G04 DipTrace 3.1.0.1*
G04 Panal-PCB-rev2-route-component2.BoardOutline.gbr*
%MOIN*%
G04 #@! TF.FileFunction,Profile*
G04 #@! TF.Part,Single*
%ADD11C,0.005512*%
%FSLAX26Y26*%
G04*
G70*
G90*
G75*
G01*
G04 BoardOutline*
%LPD*%
X3641969Y394016D2*
D11*
X984646D1*
Y590984D1*
X787598D1*
Y394016D1*
X590866D1*
X548163D1*
X541877D1*
X536063D1*
X514304D1*
X509042D1*
X504147D1*
X498898D1*
X492441D1*
X482795Y394488D1*
X473228Y395906D1*
X463858Y398268D1*
X455433Y401260D1*
X454764Y401496D1*
X446063Y405630D1*
X437756Y410591D1*
X430000Y416378D1*
X422835Y422835D1*
X416378Y430000D1*
X410591Y437756D1*
X406142Y445197D1*
X405630Y446063D1*
X401496Y454764D1*
X398268Y463858D1*
X395906Y473228D1*
X394488Y482795D1*
X394016Y492441D1*
Y525827D1*
Y590866D1*
Y4724724D1*
X394488Y4734370D1*
X395906Y4743937D1*
X398268Y4753307D1*
X401496Y4762402D1*
X405630Y4771102D1*
X410591Y4779409D1*
X416339Y4787165D1*
X422835Y4794331D1*
X430000Y4800827D1*
X437756Y4806575D1*
X446063Y4811535D1*
X454764Y4815669D1*
X455433Y4815906D1*
X463858Y4818898D1*
X473228Y4821260D1*
X482795Y4822677D1*
X492441Y4823150D1*
X536063D1*
X590866D1*
X4035748D1*
X4134173D1*
X4143819Y4822677D1*
X4153386Y4821260D1*
X4162756Y4818898D1*
X4164409Y4818320D1*
X4171850Y4815669D1*
X4180551Y4811535D1*
X4188858Y4806575D1*
X4196614Y4800787D1*
X4203780Y4794331D1*
X4210276Y4787165D1*
X4216024Y4779409D1*
X4220984Y4771102D1*
X4225118Y4762402D1*
X4228346Y4753307D1*
X4230709Y4743937D1*
X4232126Y4734370D1*
X4232598Y4724724D1*
Y4718583D1*
Y4626299D1*
Y590866D1*
Y561824D1*
Y554659D1*
Y548058D1*
Y541877D1*
Y535919D1*
Y530262D1*
Y525827D1*
Y509055D1*
Y504160D1*
Y498898D1*
Y492441D1*
X4232126Y482795D1*
X4230709Y473228D1*
X4228346Y463858D1*
X4225118Y454764D1*
X4220984Y446063D1*
X4220459Y445197D1*
X4216024Y437756D1*
X4210276Y430000D1*
X4203780Y422835D1*
X4196614Y416339D1*
X4188858Y410591D1*
X4180591Y405630D1*
X4171850Y401496D1*
X4164409Y398858D1*
X4162756Y398268D1*
X4153386Y395906D1*
X4143819Y394488D1*
X4134173Y394016D1*
X4035748D1*
X3838976D1*
Y590984D1*
X3641969D1*
Y394016D1*
M02*
