G04 DipTrace 3.1.0.1*
G04 Panal-PCB-rev2-route-component2.Top.gbr*
%MOIN*%
G04 #@! TF.FileFunction,Copper,L1,Top*
G04 #@! TF.Part,Single*
G04 #@! TA.AperFunction,ViaPad*
%ADD14C,0.03*%
G04 #@! TA.AperFunction,CopperBalancing*
%ADD15C,0.02*%
G04 #@! TA.AperFunction,Conductor*
%ADD16C,0.016*%
%ADD17C,0.015748*%
%ADD18C,0.01*%
%ADD20C,0.022*%
%ADD21C,0.04*%
%ADD22C,0.008*%
%ADD23C,0.018*%
G04 #@! TA.AperFunction,CopperBalancing*
%ADD24C,0.025984*%
%ADD27R,0.062992X0.070866*%
%ADD28R,0.070866X0.062992*%
%ADD29R,0.059055X0.051181*%
G04 #@! TA.AperFunction,ComponentPad*
%ADD30R,0.06X0.06*%
%ADD31C,0.06*%
%ADD32O,0.065X0.06*%
%ADD33C,0.065*%
%ADD34R,0.059055X0.059055*%
%ADD35O,0.07X0.06*%
%ADD36R,0.322835X0.125984*%
%ADD38R,0.047244X0.059055*%
%ADD39R,0.066929X0.07874*%
G04 #@! TA.AperFunction,ComponentPad*
%ADD40O,0.06X0.065*%
%ADD42R,0.023622X0.062992*%
%ADD43R,0.110236X0.015748*%
%ADD44R,0.023622X0.07874*%
G04 #@! TA.AperFunction,ViaPad*
%ADD48C,0.034*%
%ADD49C,0.044*%
%FSLAX26Y26*%
G04*
G70*
G90*
G75*
G01*
G04 Top*
%LPD*%
X3614790Y1559396D2*
D14*
X3608538D1*
X3521039Y1646895D1*
Y1703146D1*
Y1821896D2*
X3564790D1*
X3602290Y1859396D1*
X3614790D1*
X3796039Y4399160D2*
X3689790D1*
X3583541D1*
D15*
X3475026D1*
X3458343Y4415844D1*
Y4453147D1*
X3596039Y4696896D2*
X3533541D1*
X3596039Y4340646D2*
D16*
Y4399160D1*
X3583541D1*
X3839790Y2071896D2*
D14*
X4107703Y2339810D1*
Y3541484D1*
X3896041Y3753147D1*
Y4359396D1*
X3858541Y4396896D1*
X3798303D1*
X3796039Y4399160D1*
X3614790Y1459396D2*
D16*
X3508541D1*
X3458541Y1409396D1*
Y971896D1*
X3308541Y821896D1*
X3043776D1*
X3037526Y828146D1*
Y1000882D1*
X3039790Y1003146D1*
X3060803Y3509396D2*
X3052290D1*
Y3690647D1*
X3039790Y3703147D1*
X3060803Y3509396D2*
Y3344633D1*
X3221039Y3184396D1*
Y2990646D1*
X3039790Y2809396D1*
Y2353146D1*
Y2174160D1*
X3054554Y2159396D1*
Y2007131D1*
X3446039Y1615646D1*
X3952290Y2594633D2*
X3827563D1*
D17*
Y2593944D1*
X3763756D1*
X3700638D1*
D16*
X3673992D1*
X3671039Y2596896D1*
X3677290Y3046896D2*
Y3167911D1*
X3821039Y3203244D2*
X3777388D1*
X3739790Y3165646D1*
X3679555D1*
X3677290Y3167911D1*
X3214790Y3184396D2*
X3221039D1*
X3371039D2*
X3471041D1*
X3596039Y3165646D2*
X3675025D1*
X3677290Y3167911D1*
X3821039Y3203244D2*
Y3265648D1*
X3758541Y3328147D1*
Y3421896D1*
X3827290Y3490646D1*
X3039790Y2353146D2*
X3371039D1*
Y2353147D1*
X3921039Y3128147D2*
D18*
Y3203244D1*
X3927290Y3490646D2*
X3933541D1*
X3977290Y3446896D1*
Y3203244D1*
X3971039D1*
X3677290Y2936660D2*
X3817054D1*
X3821039Y2940646D1*
Y2990646D1*
X4027290Y3390646D2*
Y3165647D1*
X3946039Y3084396D1*
X3852290D1*
X3821039Y3053146D1*
Y2990646D1*
X3871039Y3203244D2*
Y3278146D1*
X3927290Y3334396D1*
Y3390646D1*
X3763756Y2721896D2*
X3833541D1*
X3883541Y2771896D1*
X3952290D1*
X1139790Y1003146D2*
X1046039Y1096896D1*
Y1184396D1*
Y1346896D2*
Y1684394D1*
X1046037Y1684396D1*
Y2003146D2*
Y2115646D1*
X1046038D1*
X1139790Y2353146D2*
Y2453146D1*
X1046039Y2546896D1*
X1046041Y2696896D2*
Y3040647D1*
X1046042Y3353147D2*
Y3459396D1*
X1046041D1*
X3614790Y859396D2*
X3496039D1*
X3371039Y734396D1*
X1402289D1*
X1371039Y765646D1*
X2939790Y2953146D2*
Y3703147D1*
Y1603146D2*
Y2353146D1*
X3614790Y1159396D2*
X3489790D1*
X3421039D2*
X3096041D1*
X2939790Y1003146D1*
Y4303147D2*
Y3790646D1*
X2889790Y3740646D1*
Y1390646D1*
X3021039Y1259396D1*
X3421039D1*
X3496039D2*
X3614790D1*
X1483541Y765647D2*
X3364791D1*
X3558541Y959396D1*
X3614790D1*
X1239790Y1003146D2*
X1083541Y1159395D1*
Y1184396D1*
X1083542Y1346896D2*
Y1684396D1*
X1083539D1*
Y2003146D2*
Y2115646D1*
Y3459396D2*
Y3353147D1*
Y3040647D2*
Y2696896D1*
X1239790Y2353146D2*
Y2390646D1*
X1083539Y2546896D1*
X3496039Y2619534D2*
D16*
X3631178D1*
X3671041Y2659396D1*
X3683539D1*
X3696039Y2671896D1*
X3762575D1*
X3763756Y2670715D1*
X3171039Y1678147D2*
D15*
Y1753147D1*
X3164790Y1759396D1*
X2927290Y828146D2*
X2852290D1*
X3164790Y2159396D2*
Y2078147D1*
X3158541Y3028147D2*
Y3096895D1*
X3146039Y3109396D1*
X3171041Y3428147D2*
Y3509395D1*
X3171039Y3509396D1*
X2846039Y4446896D2*
X2927290D1*
X3796039Y4509396D2*
D18*
Y4578147D1*
Y4509396D2*
D15*
X3689790D1*
X3583541D1*
X3383539Y4453147D2*
Y4403146D1*
X3364790Y4384396D1*
X3596041Y4203147D2*
D18*
X3679554D1*
X3452290Y3528147D2*
D15*
Y3634396D1*
X3383541D2*
X3452290D1*
X3383541Y3528147D2*
X3452290D1*
X3221039Y2721896D2*
X3152290D1*
X3952290Y2484396D2*
Y2421896D1*
X3971039Y2928147D2*
Y2990646D1*
X3677290Y3278147D2*
Y3346896D1*
X3283541Y2484396D2*
X3208539D1*
X3689790Y4509396D2*
D14*
Y4578147D1*
X3763756Y2696306D2*
D18*
X3951503D1*
X3952290Y2697093D1*
X3852290Y2628147D2*
X3846039Y2621896D1*
X3766118D1*
X3763756Y2619534D1*
X3852290Y2528147D2*
X3846039D1*
X3833541Y2540646D1*
X3765361D1*
X3763362Y2542644D1*
X3871039Y2990646D2*
Y2853147D1*
X3846039Y2828147D1*
Y2796896D1*
X3883541Y2665646D2*
X3852290D1*
X3833541Y2646896D1*
X3765528D1*
X3763756Y2645125D1*
X3883541Y2559396D2*
X3864790D1*
X3858541Y2565646D1*
X3766385D1*
X3763756Y2568274D1*
X3921039Y2990646D2*
Y2846896D1*
X3883539Y2809396D1*
X3802289Y3790647D2*
D15*
Y3883408D1*
X3756669Y3929028D1*
X3614790Y1059396D2*
D18*
X3589791D1*
X3521041Y1128147D1*
X3364790Y1190646D2*
X1683541D1*
X1321039Y1553147D1*
X1289789D1*
X1239790Y1603146D1*
X1189789Y1653147D1*
X1121041D1*
X1008541Y2003147D2*
Y2115646D1*
X1008539D1*
X1008541Y2409396D2*
Y2546896D1*
X1121039Y2728146D2*
X1239790Y2846896D1*
Y2953146D1*
X1183539Y3009396D1*
X1114790D1*
X1008541Y3353146D2*
Y3459396D1*
X1008539D1*
Y3778146D2*
Y3896896D1*
Y4046896D2*
Y4071896D1*
X1239790Y4303147D1*
X3420941Y4453147D2*
D20*
Y4282232D1*
X3425026Y4278147D1*
D21*
Y4117909D1*
X3414790Y4107673D1*
Y4071896D1*
X3420941Y4579131D2*
D15*
Y4694533D1*
X3423304Y4696896D1*
X1339790Y1603146D2*
D22*
X1333541D1*
X1227290Y1709396D1*
X964790D1*
X852290Y1596896D1*
Y1421896D1*
X777290Y1346896D1*
X637790D1*
X635790Y1348896D1*
X1439790Y1603146D2*
Y1609396D1*
X1321039Y1728147D1*
X958541D1*
X833541Y1603147D1*
Y1434396D1*
X789790Y1390646D1*
X711041D1*
X709790Y1391896D1*
X1539790Y1603146D2*
X1396039Y1746896D1*
X946039D1*
X814790Y1615647D1*
Y1546896D1*
X739790Y1471896D1*
X1639790Y1603146D2*
X1452290Y1790646D1*
X927289D1*
X739790Y1603147D1*
X644041D1*
X635790Y1594896D1*
X1739790Y1603146D2*
X1577289Y1765647D1*
X1514790D1*
X1439790Y1765646D2*
X933539D1*
X789790Y1621896D1*
Y1571895D1*
X733542Y1515647D1*
X691041Y1503147D1*
X551790Y1363896D1*
X1839790Y1603146D2*
X1633539Y1809396D1*
X921041D1*
X752290Y1640646D1*
X696039D1*
X1939790Y1603146D2*
X1714789Y1828147D1*
X914791D1*
X752290Y1665646D1*
X677290D1*
X652290Y1640646D1*
X612539D1*
X551790Y1579896D1*
X1939790Y1003146D2*
X1889791Y953147D1*
X1071039D1*
X971039Y1053147D1*
X711039D1*
X709790Y1054396D1*
X1839790Y1003146D2*
X1627290Y1215646D1*
X1564790D1*
X1189790D2*
X821039D1*
X739790Y1134396D1*
X1739790Y1003146D2*
X1471039Y1271896D1*
X1308539D1*
X1133541D2*
X650290D1*
X635790Y1257396D1*
X1639790Y1003146D2*
X1402290Y1240646D1*
X1339790D1*
X1158541D2*
X796039D1*
X733541Y1178147D1*
X691041Y1165646D1*
X551790Y1026396D1*
X1539790Y1003146D2*
X1221039Y1321896D1*
X696039D1*
X1439790Y1003146D2*
X1146039Y1296896D1*
X683541D1*
X677290Y1303147D1*
X612541D1*
X551790Y1242396D1*
X635790Y1011396D2*
X981541D1*
X1058541Y934396D1*
X1971041D1*
X2039790Y1003146D1*
X635790Y673896D2*
X735541D1*
X852290Y790646D1*
X2627290D1*
X2839790Y1003146D1*
X709790Y716896D2*
X728539D1*
X821039Y809396D1*
X2546041D1*
X2739790Y1003146D1*
X2639790D2*
X2464791Y828147D1*
X771041D1*
X739790Y796896D1*
X635790Y919896D2*
X694039D1*
X721039Y946896D1*
X964790D1*
X1033539Y878147D1*
X2414791D1*
X2539790Y1003146D1*
X2439790D2*
X2333541Y896896D1*
X2289791D1*
X2283541Y903147D1*
X2233541Y853147D2*
X758542D1*
X696039Y821896D1*
X551790Y688896D1*
X696039Y965646D2*
X971041D1*
X1039790Y896896D1*
X2233541D1*
X2339790Y1003146D1*
X551790Y904896D2*
X554041D1*
X614790Y965646D1*
X658539D1*
X683541Y990647D1*
X971038D1*
X1046039Y915646D1*
X2152290D1*
X2239790Y1003146D1*
X2139790Y4303147D2*
X1908541Y4534396D1*
X883541D1*
X733541Y4384396D1*
X637790D1*
X635790Y4386396D1*
X2239790Y4303147D2*
X1983541Y4559396D1*
X877289D1*
X746039Y4428147D1*
X711039D1*
X709790Y4429396D1*
X2339790Y4303147D2*
X2058541Y4584396D1*
X814790D1*
X739790Y4509396D1*
X2439790Y4303147D2*
X2108541Y4634396D1*
X637790D1*
X635790Y4632396D1*
X2539790Y4303147D2*
X2233541Y4609396D1*
X2183541D1*
X2089790D2*
X802289D1*
X746038Y4553146D1*
X691039Y4540646D1*
X551790Y4401396D1*
X2639790Y4303147D2*
X2283541Y4659396D1*
X696039D1*
X2739790Y4303147D2*
Y4309396D1*
X2364790Y4684396D1*
X608541D1*
X552290Y4628146D1*
Y4617896D1*
X551790Y4617396D1*
X1339790Y4303147D2*
X1252291Y4390646D1*
X1077289D1*
X733539Y4046896D1*
X637790D1*
X635790Y4048896D1*
X1439790Y4303147D2*
X1333541Y4409396D1*
X1064790D1*
X746039Y4090646D1*
X711041D1*
X709790Y4091896D1*
X1539790Y4303147D2*
X1414790Y4428147D1*
X996041D1*
X739790Y4171896D1*
X1639790Y4303147D2*
X1471041Y4471896D1*
X908541D1*
X752290Y4315646D1*
X714789D1*
X696039Y4296896D1*
X637790D1*
X635790Y4294896D1*
X1739790Y4303147D2*
X1596041Y4446896D1*
X1546041D1*
X1452290D2*
X971041D1*
X739791Y4215647D1*
X691041Y4203147D1*
X551790Y4063896D1*
X1839790Y4303147D2*
X1652291Y4490646D1*
X902290D1*
X752290Y4340646D1*
X696039D1*
X1939790Y4303147D2*
X1733541Y4509396D1*
X883541D1*
X739790Y4365646D1*
X677290D1*
X652290Y4340646D1*
X602289D1*
X551790Y4290147D1*
Y4279896D1*
X1939790Y3703147D2*
X1889790Y3653147D1*
X1108541D1*
X1008541Y3753147D1*
X711039D1*
X709790Y3754396D1*
X1839790Y3703147D2*
X1621041Y3921896D1*
X1564790D1*
X1183541D2*
X827290D1*
X739790Y3834396D1*
X1739790Y3703147D2*
X1471041Y3971896D1*
X1321041D1*
X1121039D2*
X650290D1*
X635790Y3957396D1*
X1639790Y3703147D2*
X1396042Y3946895D1*
X1352290D1*
X1152290D2*
X802287D1*
X733538Y3878146D1*
X696039Y3865646D1*
X551790Y3726396D1*
X1539790Y3703147D2*
X1221041Y4021896D1*
X746041D1*
X708541D1*
X1439790Y3703147D2*
X1146041Y3996896D1*
X696041D1*
X689790Y4003147D1*
X608541D1*
X551790Y3946396D1*
Y3942396D1*
X2039790Y3703147D2*
X1971039Y3634396D1*
X1089790D1*
X1014790Y3709396D1*
X637790D1*
X635790Y3711396D1*
X2839790Y3703147D2*
X2621039Y3484396D1*
X846041D1*
X733541Y3371896D1*
X637790D1*
X635790Y3373896D1*
X2739790Y3703147D2*
X2539790Y3503147D1*
X833542D1*
X746041Y3415646D1*
X711041D1*
X709790Y3416896D1*
X2639790Y3703147D2*
X2464790Y3528147D1*
X771041D1*
X739790Y3496896D1*
X2539790Y3703147D2*
X2414789Y3578146D1*
X1046041D1*
X1002290Y3621896D1*
X637790D1*
X635790Y3619896D1*
X2439790Y3703147D2*
X2339790Y3603147D1*
X2277290D1*
X2227290Y3553147D2*
X746042D1*
X733542Y3540647D1*
X691041Y3528147D1*
X551790Y3388896D1*
X2339790Y3703147D2*
X2233539Y3596896D1*
X1058539D1*
X989789Y3665647D1*
X696039D1*
X2239790Y3703147D2*
X2152290Y3615647D1*
X1071039D1*
X996041Y3690646D1*
X677290D1*
X652290Y3665646D1*
X612539D1*
X551790Y3604896D1*
X2139790Y2953146D2*
X1889789Y3203147D1*
X908541D1*
X739790Y3034396D1*
X637790D1*
X635790Y3036396D1*
X2239790Y2953146D2*
X1971039Y3221896D1*
X902289D1*
X758539Y3078147D1*
X711039D1*
X709790Y3079396D1*
X2339790Y2953146D2*
X2052290Y3240646D1*
X821039D1*
X739790Y3159396D1*
X2439790Y2953146D2*
X2108539Y3284396D1*
X637790D1*
X635790Y3282396D1*
X2539790Y2953146D2*
X2233539Y3259396D1*
X2183539D1*
X2089790D2*
X789790D1*
X733539Y3203146D1*
X696039Y3190646D1*
X551790Y3051396D1*
X696039Y3309396D2*
X2283539D1*
X2639790Y2953146D1*
X2739790D2*
X2364789Y3328147D1*
X721039D1*
X708541Y3340646D1*
X683538D1*
X671039Y3328147D1*
X608541D1*
X551790Y3271396D1*
Y3267396D1*
X1339790Y2953146D2*
X1227290Y3065646D1*
X983539D1*
X858541Y2940647D1*
Y2815647D1*
X739790Y2696896D1*
X637790D1*
X635790Y2698896D1*
X1439790Y2953146D2*
X1308539Y3084396D1*
X971041D1*
X839790Y2953146D1*
Y2828146D1*
X758541Y2746896D1*
X714790D1*
X709790Y2741896D1*
X1539790Y2953146D2*
X1389789Y3103147D1*
X958541D1*
X808541Y2953147D1*
Y2890647D1*
X739790Y2821896D1*
X1639790Y2953146D2*
X1446039Y3146896D1*
X933539D1*
X739790Y2953147D1*
X644041D1*
X635790Y2944896D1*
X1739790Y2953146D2*
X1571039Y3121896D1*
X1527290D1*
X1414790D2*
X946039D1*
X789790Y2965647D1*
Y2915646D1*
X739790Y2865646D1*
X696041Y2859396D1*
X551790Y2713896D1*
X1839790Y2953146D2*
X1627290Y3165646D1*
X927289D1*
X752290Y2990647D1*
X696039D1*
X1939790Y2953146D2*
X1708539Y3184396D1*
X921039D1*
X752290Y3015647D1*
X677290D1*
X652290Y2990647D1*
X612541D1*
X551790Y2929896D1*
X1939790Y2353146D2*
X1889791Y2303147D1*
X1077290D1*
X977290Y2403147D1*
X711039D1*
X709790Y2404396D1*
X1839790Y2353146D2*
X1621039Y2571896D1*
X1564790D1*
X1183539D2*
X827290D1*
X739790Y2484396D1*
X635790Y2607396D2*
X669041D1*
X683541Y2621896D1*
X1121039D1*
X1314790D2*
X1471039D1*
X1739790Y2353146D1*
X1639790D2*
X1396039Y2596896D1*
X1346041D1*
X1152290D2*
X802290D1*
X733541Y2528147D1*
X696039Y2515647D1*
X551790Y2376396D1*
X696041Y2671896D2*
X1221039D1*
X1539790Y2353146D1*
X551790Y2592396D2*
X554039D1*
X614790Y2653147D1*
X671039D1*
X677290Y2646896D1*
X1146039D1*
X1439790Y2353146D1*
X2039790D2*
X1971041Y2284396D1*
X1064790D1*
X989790Y2359396D1*
X637790D1*
X635790Y2361396D1*
X2839790Y2353146D2*
X2627290Y2140646D1*
X864789D1*
X746039Y2021896D1*
X637790D1*
X635790Y2023896D1*
X2739790Y2353146D2*
X2546041Y2159396D1*
X852291D1*
X758541Y2065646D1*
X711041D1*
X709790Y2066896D1*
X2639790Y2353146D2*
X2464791Y2178147D1*
X771041D1*
X739790Y2146896D1*
X2539790Y2353146D2*
X2414791Y2228147D1*
X1027290D1*
X977290Y2278147D1*
X644041D1*
X635790Y2269896D1*
X2439790Y2353146D2*
X2339791Y2253147D1*
X2289790D1*
X2239790Y2203146D2*
X758538D1*
X696039Y2178147D1*
X551790Y2038896D1*
X2339790Y2353146D2*
X2233541Y2246896D1*
X1039789D1*
X971039Y2315646D1*
X696039D1*
X2239790Y2353146D2*
X2152290Y2265646D1*
X1052290D1*
X977290Y2340646D1*
X677290D1*
X652290Y2315646D1*
X612539D1*
X551790Y2254896D1*
X2139790Y1603146D2*
X1896039Y1846896D1*
X908539D1*
X746039Y1684396D1*
X637790D1*
X635790Y1686396D1*
X2239790Y1603146D2*
X1977290Y1865646D1*
X902289D1*
X764790Y1728147D1*
X711039D1*
X709790Y1729396D1*
X2339790Y1603146D2*
X2058539Y1884396D1*
X814790D1*
X739790Y1809396D1*
X635790Y1932396D2*
X2110539D1*
X2439790Y1603146D1*
X2539790D2*
X2239790Y1903146D1*
X2183541D1*
X2089790Y1903147D2*
X783541D1*
X733541Y1853147D1*
X691041Y1840646D1*
X551790Y1701396D1*
X2639790Y1603146D2*
X2283539Y1959396D1*
X696039D1*
X2739790Y1603146D2*
X2364789Y1978147D1*
X714790D1*
X708541Y1984396D1*
X683539D1*
X677290Y1978147D1*
X612541D1*
X551790Y1917396D1*
X3383539Y4579131D2*
D23*
Y4553146D1*
X3314790Y4484396D1*
Y4278147D1*
X3796039Y4071547D2*
D15*
Y4196898D1*
X3789790Y4203147D1*
X3502290Y4578147D2*
X3459327D1*
X3458343Y4579131D1*
X3502290Y4365646D2*
Y4334396D1*
X3552290Y4284396D1*
X3771039D1*
X3789790Y4265646D1*
Y4203147D1*
X3321039Y2940646D2*
D14*
Y3040646D1*
X3271039Y3090646D1*
Y3609398D1*
X3152290Y3728147D1*
Y4546896D1*
X2983541Y4715646D1*
X552290D1*
X439790Y4603146D1*
Y4466396D1*
Y4128896D1*
Y3791396D1*
Y3453896D1*
Y3116396D1*
Y2835896D1*
X496790Y2778896D1*
Y3453896D2*
D23*
X439790D1*
X496790Y3791396D2*
X439790D1*
X496790Y4128896D2*
X439790D1*
X496790Y4466396D2*
X439790D1*
X496790Y3116396D2*
X439790D1*
X3496039Y2670715D2*
D17*
X3560157D1*
D23*
X3576109D1*
X3596039Y2690646D1*
Y2740648D1*
X3533541Y2803147D1*
X3389789D1*
X3321039Y2871896D1*
Y2940646D1*
X3421039D2*
D14*
Y3040646D1*
X3314790Y3146895D1*
Y3628147D1*
X3196039Y3746898D1*
Y4565647D1*
X3002290Y4759396D1*
X796041D1*
X3496039Y2645125D2*
D17*
X3560157D1*
D23*
X3594268D1*
X3627290Y2678147D1*
Y2771896D1*
X3552290Y2846896D1*
X3458539D1*
X3421039Y2884396D1*
Y2940646D1*
X3496039Y2593944D2*
D17*
X3386837D1*
D23*
X3352290Y2559396D1*
Y2471896D1*
X3496039Y2328147D1*
Y2309396D1*
D14*
Y2209396D1*
Y2190646D1*
X3596039Y2090646D1*
X3652291D1*
X3727290Y2015647D1*
Y771896D1*
X3652290Y696896D1*
X802290D1*
X727290Y621896D1*
X502289D1*
X439790Y684395D1*
Y753896D1*
Y1091396D1*
Y1428896D1*
Y1766396D1*
Y2103896D1*
Y2384396D1*
X496790Y2441396D1*
Y2103896D2*
X439790D1*
X496790Y1766396D2*
X439790D1*
X496790Y1428896D2*
X439790D1*
X496790Y1091396D2*
X439790D1*
X496790Y753896D2*
X439790D1*
X3496047Y2568353D2*
D17*
X3560165D1*
D23*
X3580833D1*
X3596039Y2553147D1*
Y2309396D1*
D14*
Y2209396D1*
X3608541D1*
X3777290Y2040647D1*
Y734395D1*
X3689791Y646896D1*
X1502290D1*
X3496039Y2721896D2*
D18*
X3331276D1*
X3283541Y2594633D2*
D23*
X3318777D1*
X3374165Y2650021D1*
X3420450Y2696306D1*
X3431331D1*
D17*
X3496039D1*
X3402290Y2678147D2*
D23*
X3374165Y2650021D1*
X3496039Y2542762D2*
D17*
X3431921D1*
D23*
X3404407D1*
X3402290Y2540646D1*
X3414790Y3827802D2*
D21*
Y3803146D1*
X3562526Y3634396D2*
Y3528147D1*
X3671039D2*
X3562526D1*
X3527290Y2953146D2*
Y3396896D1*
X3564790Y3434396D1*
Y3525883D1*
X3562526Y3528147D1*
X3671039D2*
X3702290D1*
X3802289Y3628146D1*
Y3680411D1*
X3562526Y3634396D2*
Y3680066D1*
X3414790Y3827802D1*
X3046039Y1596896D2*
D23*
X3039790Y1603146D1*
D14*
Y1744633D1*
X3054554Y1759396D1*
X3614790Y1359396D2*
X3677290Y1421896D1*
Y1696896D1*
X3614790Y1759396D1*
X3039790Y2953146D2*
Y3105409D1*
X3035803Y3109396D1*
X3039790Y4303147D2*
Y4444633D1*
X3037526Y4446896D1*
X3614790Y1759396D2*
X3427289D1*
X3296039Y1890646D1*
X3052290Y1896896D2*
Y1761660D1*
X3054554Y1759396D1*
X3296039Y1890646D2*
Y2290646D1*
X3296041D1*
X2989790Y3596896D2*
Y3221896D1*
X3035803Y3175883D1*
Y3109396D1*
X696039Y4659396D3*
X2089790Y4609396D3*
X2183541D3*
X696039Y4340646D3*
X1452290Y4446896D3*
X1546041D3*
X708541Y4021896D3*
X1121039Y3971896D3*
X1321041D3*
X1152290Y3946895D3*
X1352290D3*
X1183541Y3921896D3*
X1564790D3*
X696039Y3665647D3*
X2277290Y3603147D3*
X2227290Y3553147D3*
X696039Y3309396D3*
X2089790Y3259396D3*
X2183539D3*
X696039Y2990647D3*
X1414790Y3121896D3*
X1527290D3*
X696041Y2671896D3*
X1121039Y2621896D3*
X1314790D3*
X1152290Y2596896D3*
X1346041D3*
X1183539Y2571896D3*
X1564790D3*
X696039Y2315646D3*
X2289790Y2253147D3*
X2239790Y2203146D3*
X696039Y1959396D3*
X2089790Y1903147D3*
X2183541Y1903146D3*
X696039Y1640646D3*
X1439790Y1765646D3*
X1514790Y1765647D3*
X696039Y1321896D3*
X1133541Y1271896D3*
X1158541Y1240646D3*
X1189790Y1215646D3*
X1308539Y1271896D3*
X1339790Y1240646D3*
X1564790Y1215646D3*
X696039Y965646D3*
X2283541Y903147D3*
X2233541Y853147D3*
X1483541Y765647D3*
X1371039Y765646D3*
X3489790Y1159396D3*
X3421039D3*
X3521041Y1128147D3*
X3364790Y1190646D3*
X1046039Y1184396D3*
X1083541D3*
X1046039Y1346896D3*
X1083542D3*
X1046037Y1684396D3*
X1083539D3*
X1046037Y2003146D3*
X1083539D3*
X1046038Y2115646D3*
X1083539D3*
X1046039Y2546896D3*
X1083539D3*
X1046041Y2696896D3*
X1083539D3*
X1046041Y3040647D3*
X1083539D3*
X1046041Y3459396D3*
X1083539D3*
X1046042Y3353147D3*
X1083539D3*
X1121041Y1653147D3*
X1008539Y2115646D3*
X1008541Y2003147D3*
Y2409396D3*
Y2546896D3*
X1121039Y2728146D3*
X1114790Y3009396D3*
D48*
X3689790Y4578147D3*
D14*
X1008541Y3353146D3*
X1008539Y3459396D3*
Y3778146D3*
Y3896896D3*
Y4046896D3*
X3421039Y1259396D3*
X3496039D3*
D49*
X796041Y4759396D3*
X1502290Y646896D3*
X3402290Y2678147D3*
Y2540646D3*
X3671041Y2659396D3*
X3446039Y1615646D3*
D14*
X3846039Y2796896D3*
X3883539Y2809396D3*
X3852290Y2628147D3*
X3883541Y2665646D3*
Y2559396D3*
X3852290Y2528147D3*
D49*
X3671039Y2596896D3*
X3521039Y1821896D3*
Y1703146D3*
D48*
X3171039Y1678147D3*
X2852290Y828146D3*
X3164790Y2078147D3*
X3158541Y3028147D3*
X3171041Y3428147D3*
X2846039Y4446896D3*
X3596039Y4340646D3*
Y4696896D3*
D49*
X3527290Y2953146D3*
D14*
X3502290Y4578147D3*
Y4365646D3*
D48*
X3796039Y4578147D3*
X3364790Y4384396D3*
X3596041Y4203147D3*
X3383541Y3634396D3*
Y3528147D3*
X3152290Y2721896D3*
X3952290Y2421896D3*
D49*
X3214790Y3184396D3*
X3371039D3*
X3471041D3*
X3596039Y3165646D3*
D14*
X3921039Y3128147D3*
D48*
X3971039Y2928147D3*
X3677290Y3346896D3*
D49*
X3839790Y2071896D3*
D48*
X3208539Y2484396D3*
D49*
X3371039Y2353147D3*
X3052290Y1896896D3*
X3296039Y1890646D3*
X3296041Y2290646D3*
X2989790Y3596896D3*
X3055160Y4773281D2*
D15*
X4180328D1*
X3075041Y4753412D2*
X3359010D1*
X3597837D2*
X4194180D1*
X3094920Y4733543D2*
X3359010D1*
X3628734D2*
X4199921D1*
X3114801Y4713675D2*
X3359010D1*
X3642799D2*
X3973025D1*
X4084929D2*
X4200602D1*
X3134644Y4693806D2*
X3359010D1*
X3645743D2*
X3947404D1*
X4110550D2*
X4200602D1*
X3154524Y4673937D2*
X3359010D1*
X3639965D2*
X3932297D1*
X4125622D2*
X4200602D1*
X3174403Y4654068D2*
X3359010D1*
X3619260D2*
X3923038D1*
X4134916D2*
X4200602D1*
X3194248Y4634199D2*
X3338916D1*
X3597837D2*
X3918087D1*
X4139832D2*
X4200602D1*
X3214127Y4614331D2*
X3338916D1*
X3532385D2*
X3916866D1*
X4141051D2*
X4200602D1*
X3233648Y4594462D2*
X3338916D1*
X3547097D2*
X3919307D1*
X4138612D2*
X4200602D1*
X3242942Y4574593D2*
X3338916D1*
X3549967D2*
X3925587D1*
X4132332D2*
X4200602D1*
X3243840Y4554724D2*
X3326823D1*
X3864277D2*
X3936602D1*
X4121352D2*
X4200602D1*
X3243840Y4534856D2*
X3306979D1*
X3864277D2*
X3954365D1*
X4103552D2*
X4200602D1*
X3243840Y4514987D2*
X3287098D1*
X3864277D2*
X3987127D1*
X4070790D2*
X4200602D1*
X3243840Y4495118D2*
X3274467D1*
X3864277D2*
X4200602D1*
X3243840Y4475249D2*
X3272996D1*
X3864277D2*
X4200602D1*
X3243840Y4455381D2*
X3272996D1*
X3864277D2*
X4200602D1*
X3243840Y4435512D2*
X3272996D1*
X3885161D2*
X4200602D1*
X3243840Y4415643D2*
X3272996D1*
X3906549D2*
X4200602D1*
X3243840Y4395774D2*
X3272996D1*
X3926428D2*
X4200602D1*
X3243840Y4375906D2*
X3272996D1*
X3940747D2*
X4200602D1*
X3243840Y4356037D2*
X3272996D1*
X3943832D2*
X4200602D1*
X3943832Y4336168D2*
X4200602D1*
X3943832Y4316299D2*
X4200602D1*
X3943832Y4296430D2*
X4200602D1*
X3943832Y4276562D2*
X4200602D1*
X3943832Y4256693D2*
X4200602D1*
X3943832Y4236824D2*
X4200602D1*
X3943832Y4216955D2*
X4200602D1*
X3243840Y4197087D2*
X3372217D1*
X3943832D2*
X4200602D1*
X3243840Y4177218D2*
X3372217D1*
X3943832D2*
X4200602D1*
X3943832Y4157349D2*
X4200602D1*
X3943832Y4137480D2*
X4200602D1*
X3943832Y4117612D2*
X4200602D1*
X3943832Y4097743D2*
X4200602D1*
X3943832Y4077874D2*
X4200602D1*
X3943832Y4058005D2*
X4200602D1*
X3943832Y4038136D2*
X4200602D1*
X3943832Y4018268D2*
X4200602D1*
X3943832Y3998399D2*
X4200602D1*
X3943832Y3978530D2*
X4200602D1*
X3943832Y3958661D2*
X4200602D1*
X3943832Y3938793D2*
X4200602D1*
X3943832Y3918924D2*
X4200602D1*
X3943832Y3899055D2*
X4200602D1*
X3943832Y3879186D2*
X4200602D1*
X3943832Y3859318D2*
X4200602D1*
X3943832Y3839449D2*
X4200602D1*
X3943832Y3819580D2*
X4200602D1*
X3943832Y3799711D2*
X4200602D1*
X3943832Y3779843D2*
X4200602D1*
X3955997Y3759974D2*
X4200602D1*
X3975841Y3740105D2*
X4200602D1*
X3995720Y3720236D2*
X4200602D1*
X4015601Y3700367D2*
X4200602D1*
X4035445Y3680499D2*
X4200602D1*
X4055324Y3660630D2*
X4200602D1*
X4075205Y3640761D2*
X4200602D1*
X4095084Y3620892D2*
X4200602D1*
X4114928Y3601024D2*
X4200602D1*
X4134808Y3581155D2*
X4200602D1*
X4150992Y3561286D2*
X4200602D1*
X4155513Y3541417D2*
X4200602D1*
X4155513Y3521549D2*
X4200602D1*
X4155513Y3501680D2*
X4200602D1*
X4155513Y3481811D2*
X4200602D1*
X4155513Y3461942D2*
X4200602D1*
X4155513Y3442073D2*
X4200602D1*
X4155513Y3422205D2*
X4200602D1*
X4155513Y3402336D2*
X4200602D1*
X4155513Y3382467D2*
X4200602D1*
X4155513Y3362598D2*
X4200602D1*
X4155513Y3342730D2*
X4200602D1*
X4155513Y3322861D2*
X4200602D1*
X4155513Y3302992D2*
X4200602D1*
X4155513Y3283123D2*
X4200602D1*
X4155513Y3263255D2*
X4200602D1*
X4155513Y3243386D2*
X4200602D1*
X4155513Y3223517D2*
X4200602D1*
X4155513Y3203648D2*
X4200602D1*
X4155513Y3183780D2*
X4200602D1*
X4155513Y3163911D2*
X4200602D1*
X4155513Y3144042D2*
X4200602D1*
X4155513Y3124173D2*
X4200602D1*
X4155513Y3104304D2*
X4200602D1*
X4155513Y3084436D2*
X4200602D1*
X4155513Y3064567D2*
X4200602D1*
X4155513Y3044698D2*
X4200602D1*
X4155513Y3024829D2*
X4200602D1*
X4155513Y3004961D2*
X4200602D1*
X4155513Y2985092D2*
X4200602D1*
X4155513Y2965223D2*
X4200602D1*
X4155513Y2945354D2*
X4200602D1*
X4155513Y2925486D2*
X4200602D1*
X4155513Y2905617D2*
X4200602D1*
X4155513Y2885748D2*
X4200602D1*
X4155513Y2865879D2*
X4200602D1*
X4155513Y2846010D2*
X4200602D1*
X4155513Y2826142D2*
X4200602D1*
X4155513Y2806273D2*
X4200602D1*
X4155513Y2786404D2*
X4200602D1*
X4155513Y2766535D2*
X4200602D1*
X4155513Y2746667D2*
X4200602D1*
X4155513Y2726798D2*
X4200602D1*
X4155513Y2706929D2*
X4200602D1*
X4155513Y2687060D2*
X4200602D1*
X4155513Y2667192D2*
X4200602D1*
X4155513Y2647323D2*
X4200602D1*
X4155513Y2627454D2*
X4200602D1*
X4155513Y2607585D2*
X4200602D1*
X4155513Y2587717D2*
X4200602D1*
X4155513Y2567848D2*
X4200602D1*
X4155513Y2547979D2*
X4200602D1*
X4155513Y2528110D2*
X4200602D1*
X4155513Y2508241D2*
X4200602D1*
X4155513Y2488373D2*
X4200602D1*
X4155513Y2468504D2*
X4200602D1*
X4155513Y2448635D2*
X4200602D1*
X4155513Y2428766D2*
X4200602D1*
X4155513Y2408898D2*
X4200602D1*
X4155513Y2389029D2*
X4200602D1*
X4155513Y2369160D2*
X4200602D1*
X4155513Y2349291D2*
X4200602D1*
X4154293Y2329423D2*
X4200602D1*
X4144102Y2309554D2*
X4200602D1*
X4124366Y2289685D2*
X4200602D1*
X4104486Y2269816D2*
X4200602D1*
X4084606Y2249948D2*
X4200602D1*
X4064726Y2230079D2*
X4200602D1*
X4044882Y2210210D2*
X4200602D1*
X4025003Y2190341D2*
X4200602D1*
X4005122Y2170472D2*
X4200602D1*
X3985278Y2150604D2*
X4200602D1*
X3965399Y2130735D2*
X4200602D1*
X3945518Y2110866D2*
X4200602D1*
X3925675Y2090997D2*
X4200602D1*
X3905795Y2071129D2*
X3978982D1*
X4078936D2*
X4200602D1*
X3890400Y2051260D2*
X3950490D1*
X4107428D2*
X4200602D1*
X3875652Y2031391D2*
X3934235D1*
X4123719D2*
X4200602D1*
X3825092Y2011522D2*
X3924186D1*
X4133768D2*
X4200602D1*
X3825092Y1991654D2*
X3918589D1*
X4139329D2*
X4200602D1*
X3825092Y1971785D2*
X3916831D1*
X4141088D2*
X4200602D1*
X3825092Y1951916D2*
X3918660D1*
X4139257D2*
X4200602D1*
X3825092Y1932047D2*
X3924331D1*
X4133588D2*
X4200602D1*
X3825092Y1912178D2*
X3934486D1*
X4123433D2*
X4200602D1*
X3825092Y1892310D2*
X3950957D1*
X4106997D2*
X4200602D1*
X3825092Y1872441D2*
X3979879D1*
X4078075D2*
X4200602D1*
X3825092Y1852572D2*
X4200602D1*
X3825092Y1832703D2*
X4200602D1*
X3825092Y1812835D2*
X4200602D1*
X3825092Y1792966D2*
X4200602D1*
X3825092Y1773097D2*
X4200602D1*
X3825092Y1753228D2*
X4200602D1*
X3825092Y1733360D2*
X4200602D1*
X3825092Y1713491D2*
X4200602D1*
X3825092Y1693622D2*
X4200602D1*
X3825092Y1673753D2*
X4200602D1*
X3825092Y1653885D2*
X4200602D1*
X3825092Y1634016D2*
X4200602D1*
X3825092Y1614147D2*
X4200602D1*
X3825092Y1594278D2*
X4200602D1*
X3825092Y1574409D2*
X4200602D1*
X3825092Y1554541D2*
X4200602D1*
X3825092Y1534672D2*
X4200602D1*
X3825092Y1514803D2*
X4200602D1*
X3825092Y1494934D2*
X4200602D1*
X3825092Y1475066D2*
X4200602D1*
X3825092Y1455197D2*
X4200602D1*
X3825092Y1435328D2*
X4200602D1*
X3825092Y1415459D2*
X4200602D1*
X3825092Y1395591D2*
X4200602D1*
X3825092Y1375722D2*
X4200602D1*
X3825092Y1355853D2*
X4200602D1*
X3825092Y1335984D2*
X4200602D1*
X3825092Y1316115D2*
X4200602D1*
X3825092Y1296247D2*
X4200602D1*
X3825092Y1276378D2*
X4200602D1*
X3825092Y1256509D2*
X4200602D1*
X3825092Y1236640D2*
X4200602D1*
X3825092Y1216772D2*
X4200602D1*
X3825092Y1196903D2*
X4200602D1*
X3825092Y1177034D2*
X4200602D1*
X3825092Y1157165D2*
X4200602D1*
X3825092Y1137297D2*
X4200602D1*
X3825092Y1117428D2*
X4200602D1*
X3825092Y1097559D2*
X4200602D1*
X3825092Y1077690D2*
X4200602D1*
X3825092Y1057822D2*
X4200602D1*
X3825092Y1037953D2*
X4200602D1*
X3825092Y1018084D2*
X4200602D1*
X3825092Y998215D2*
X4200602D1*
X3825092Y978346D2*
X4200602D1*
X3825092Y958478D2*
X4200602D1*
X3825092Y938609D2*
X4200602D1*
X3825092Y918740D2*
X4200602D1*
X3825092Y898871D2*
X4005285D1*
X4052633D2*
X4200602D1*
X3825092Y879003D2*
X3960896D1*
X4097022D2*
X4200602D1*
X3825092Y859134D2*
X3940514D1*
X4117404D2*
X4200602D1*
X3825092Y839265D2*
X3928026D1*
X4129892D2*
X4200602D1*
X3825092Y819396D2*
X3920598D1*
X4137356D2*
X4200602D1*
X3825092Y799528D2*
X3917154D1*
X4140765D2*
X4200602D1*
X3825092Y779659D2*
X3917404D1*
X4140513D2*
X4200602D1*
X3825092Y759790D2*
X3921316D1*
X4136602D2*
X4200602D1*
X3825092Y739921D2*
X3929354D1*
X4128600D2*
X4200602D1*
X3822795Y720052D2*
X3942631D1*
X4115287D2*
X4200602D1*
X3809841Y700184D2*
X3964521D1*
X4093433D2*
X4200602D1*
X3789997Y680315D2*
X4200602D1*
X3770117Y660446D2*
X4200602D1*
X3750238Y640577D2*
X4200602D1*
X3870987Y620709D2*
X4200602D1*
X3870987Y600840D2*
X4200602D1*
X3870987Y580971D2*
X4200602D1*
X3870987Y561102D2*
X4200602D1*
X3870987Y541234D2*
X4200602D1*
X3870987Y521365D2*
X4200602D1*
X3870987Y501496D2*
X4200602D1*
X3870987Y481627D2*
X4199634D1*
X3870987Y461759D2*
X4193210D1*
X3870987Y441890D2*
X4178139D1*
X3261681Y4344379D2*
X3274993D1*
X3275113Y4487518D1*
X3276089Y4493688D1*
X3278020Y4499627D1*
X3280854Y4505192D1*
X3284526Y4510244D1*
X3312630Y4538522D1*
X3340923Y4566814D1*
X3340928Y4641428D1*
X3360988D1*
X3361009Y4763129D1*
X3595837D1*
X3596039Y4744697D1*
X3603517Y4744108D1*
X3610811Y4742357D1*
X3617740Y4739487D1*
X3624135Y4735567D1*
X3629839Y4730696D1*
X3634710Y4724992D1*
X3638630Y4718597D1*
X3641500Y4711668D1*
X3643251Y4704374D1*
X3643840Y4696896D1*
X3643251Y4689419D1*
X3641500Y4682125D1*
X3638630Y4675196D1*
X3634710Y4668801D1*
X3629839Y4663097D1*
X3624135Y4658226D1*
X3617740Y4654306D1*
X3610811Y4651436D1*
X3603517Y4649685D1*
X3595849Y4649104D1*
X3595837Y4630663D1*
X3500924D1*
X3502290Y4623948D1*
X3509455Y4623383D1*
X3516444Y4621705D1*
X3523083Y4618955D1*
X3529210Y4615199D1*
X3534676Y4610533D1*
X3539343Y4605067D1*
X3543098Y4598940D1*
X3545848Y4592301D1*
X3547526Y4585312D1*
X3548091Y4578147D1*
X3547610Y4571694D1*
X3862273Y4571693D1*
Y4442545D1*
X3869232Y4441430D1*
X3876068Y4439210D1*
X3882471Y4435948D1*
X3888285Y4431723D1*
X3910413Y4409795D1*
X3930867Y4389140D1*
X3935092Y4383327D1*
X3938354Y4376924D1*
X3940575Y4370088D1*
X3941699Y4362990D1*
X3941841Y4331837D1*
Y3772152D1*
X4142530Y3571230D1*
X4146755Y3565415D1*
X4150017Y3559012D1*
X4152238Y3552176D1*
X4153362Y3545077D1*
X4153504Y3513925D1*
X4153362Y2336217D1*
X4152238Y2329118D1*
X4150017Y2322282D1*
X4146755Y2315879D1*
X4142530Y2310064D1*
X4120602Y2287937D1*
X3890739Y2058075D1*
X3888571Y2051690D1*
X3884810Y2044308D1*
X3879940Y2037605D1*
X3874081Y2031747D1*
X3867378Y2026877D1*
X3859996Y2023115D1*
X3852115Y2020555D1*
X3843933Y2019259D1*
X3835647D1*
X3827465Y2020555D1*
X3823094Y2021820D1*
X3822949Y730802D1*
X3821824Y723703D1*
X3819604Y716867D1*
X3816341Y710465D1*
X3812117Y704651D1*
X3790189Y682522D1*
X3728656Y620991D1*
X3860541Y620861D1*
X3863516Y619894D1*
X3866047Y618055D1*
X3867886Y615524D1*
X3868853Y612549D1*
X3868976Y592612D1*
Y423992D1*
X4136465Y424164D1*
X4143437Y424759D1*
X4150228Y426080D1*
X4158269Y428510D1*
X4164098Y431016D1*
X4169954Y434234D1*
X4175487Y438021D1*
X4180621Y442332D1*
X4185316Y447135D1*
X4189499Y452350D1*
X4193167Y458001D1*
X4196277Y463969D1*
X4198731Y470110D1*
X4200619Y476598D1*
X4201856Y483177D1*
X4202450Y490150D1*
X4202598Y506118D1*
X4202450Y4727016D1*
X4201856Y4733988D1*
X4200619Y4740567D1*
X4198731Y4747055D1*
X4196266Y4753220D1*
X4193155Y4759192D1*
X4189501Y4764812D1*
X4185325Y4770021D1*
X4180655Y4774785D1*
X4175455Y4779144D1*
X4169950Y4782924D1*
X4164049Y4786161D1*
X4157962Y4788768D1*
X4151543Y4790786D1*
X4144958Y4792181D1*
X4138100Y4792921D1*
X4124497Y4793150D1*
X3033252D1*
X3228425Y4598033D1*
X3233092Y4592567D1*
X3236848Y4586440D1*
X3239597Y4579801D1*
X3241276Y4572812D1*
X3241839Y4565633D1*
X3241840Y4165718D1*
X3374256Y4165688D1*
X3374226Y4211890D1*
X3252495Y4211913D1*
Y4344379D1*
X3261681D1*
X4138755Y1963354D2*
X4137739Y1954766D1*
X4136051Y1946285D1*
X4133705Y1937962D1*
X4130711Y1929849D1*
X4127091Y1921996D1*
X4122866Y1914451D1*
X4118062Y1907261D1*
X4112707Y1900470D1*
X4106837Y1894121D1*
X4100488Y1888251D1*
X4093697Y1882896D1*
X4086507Y1878092D1*
X4078962Y1873867D1*
X4071109Y1870247D1*
X4062996Y1867253D1*
X4054673Y1864907D1*
X4046192Y1863219D1*
X4037604Y1862203D1*
X4028963Y1861864D1*
X4020323Y1862203D1*
X4011735Y1863219D1*
X4003253Y1864907D1*
X3994930Y1867253D1*
X3986818Y1870247D1*
X3978965Y1873867D1*
X3971420Y1878092D1*
X3964230Y1882896D1*
X3957438Y1888251D1*
X3951089Y1894121D1*
X3945219Y1900470D1*
X3939865Y1907261D1*
X3935060Y1914451D1*
X3930836Y1921996D1*
X3927215Y1929849D1*
X3924222Y1937962D1*
X3921875Y1946285D1*
X3920188Y1954766D1*
X3919172Y1963354D1*
X3918832Y1971995D1*
X3919172Y1980635D1*
X3920188Y1989223D1*
X3921875Y1997705D1*
X3924222Y2006028D1*
X3927215Y2014140D1*
X3930836Y2021993D1*
X3935060Y2029538D1*
X3939865Y2036728D1*
X3945219Y2043520D1*
X3951089Y2049869D1*
X3957438Y2055739D1*
X3964230Y2061093D1*
X3971420Y2065898D1*
X3978965Y2070122D1*
X3986818Y2073743D1*
X3994930Y2076736D1*
X4003253Y2079083D1*
X4011735Y2080770D1*
X4020323Y2081786D1*
X4028963Y2082126D1*
X4037604Y2081786D1*
X4046192Y2080770D1*
X4054673Y2079083D1*
X4062996Y2076736D1*
X4071109Y2073743D1*
X4078962Y2070122D1*
X4086507Y2065898D1*
X4093697Y2061093D1*
X4100488Y2055739D1*
X4106837Y2049869D1*
X4112707Y2043520D1*
X4118062Y2036728D1*
X4122866Y2029538D1*
X4127091Y2021993D1*
X4130711Y2014140D1*
X4133705Y2006028D1*
X4136051Y1997705D1*
X4137739Y1989223D1*
X4138755Y1980635D1*
X4139094Y1971995D1*
X4138755Y1963354D1*
Y782252D2*
X4137739Y773664D1*
X4136051Y765182D1*
X4133705Y756860D1*
X4130711Y748747D1*
X4127091Y740894D1*
X4122866Y733349D1*
X4118062Y726159D1*
X4112707Y719367D1*
X4106837Y713018D1*
X4100488Y707148D1*
X4093697Y701794D1*
X4086507Y696990D1*
X4078962Y692765D1*
X4071109Y689144D1*
X4062996Y686151D1*
X4054673Y683804D1*
X4046192Y682117D1*
X4037604Y681101D1*
X4028963Y680761D1*
X4020323Y681101D1*
X4011735Y682117D1*
X4003253Y683804D1*
X3994930Y686151D1*
X3986818Y689144D1*
X3978965Y692765D1*
X3971420Y696990D1*
X3964230Y701794D1*
X3957438Y707148D1*
X3951089Y713018D1*
X3945219Y719367D1*
X3939865Y726159D1*
X3935060Y733349D1*
X3930836Y740894D1*
X3927215Y748747D1*
X3924222Y756860D1*
X3921875Y765182D1*
X3920188Y773664D1*
X3919172Y782252D1*
X3918832Y790892D1*
X3919172Y799533D1*
X3920188Y808121D1*
X3921875Y816602D1*
X3924222Y824925D1*
X3927215Y833038D1*
X3930836Y840891D1*
X3935060Y848436D1*
X3939865Y855626D1*
X3945219Y862417D1*
X3951089Y868766D1*
X3957438Y874636D1*
X3964230Y879991D1*
X3971420Y884795D1*
X3978965Y889020D1*
X3986818Y892640D1*
X3994930Y895634D1*
X4003253Y897980D1*
X4011735Y899668D1*
X4020323Y900684D1*
X4028963Y901024D1*
X4037604Y900684D1*
X4046192Y899668D1*
X4054673Y897980D1*
X4062996Y895634D1*
X4071109Y892640D1*
X4078962Y889020D1*
X4086507Y884795D1*
X4093697Y879991D1*
X4100488Y874636D1*
X4106837Y868766D1*
X4112707Y862417D1*
X4118062Y855626D1*
X4122866Y848436D1*
X4127091Y840891D1*
X4130711Y833038D1*
X4133705Y824925D1*
X4136051Y816602D1*
X4137739Y808121D1*
X4138755Y799533D1*
X4139094Y790892D1*
X4138755Y782252D1*
Y4609024D2*
X4137739Y4600436D1*
X4136051Y4591954D1*
X4133705Y4583631D1*
X4130711Y4575518D1*
X4127091Y4567665D1*
X4122866Y4560121D1*
X4118062Y4552930D1*
X4112707Y4546139D1*
X4106837Y4539790D1*
X4100488Y4533920D1*
X4093697Y4528566D1*
X4086507Y4523761D1*
X4078962Y4519537D1*
X4071109Y4515916D1*
X4062996Y4512923D1*
X4054673Y4510576D1*
X4046192Y4508888D1*
X4037604Y4507873D1*
X4028963Y4507533D1*
X4020323Y4507873D1*
X4011735Y4508888D1*
X4003253Y4510576D1*
X3994930Y4512923D1*
X3986818Y4515916D1*
X3978965Y4519537D1*
X3971420Y4523761D1*
X3964230Y4528566D1*
X3957438Y4533920D1*
X3951089Y4539790D1*
X3945219Y4546139D1*
X3939865Y4552930D1*
X3935060Y4560121D1*
X3930836Y4567665D1*
X3927215Y4575518D1*
X3924222Y4583631D1*
X3921875Y4591954D1*
X3920188Y4600436D1*
X3919172Y4609024D1*
X3918832Y4617664D1*
X3919172Y4626304D1*
X3920188Y4634892D1*
X3921875Y4643374D1*
X3924222Y4651697D1*
X3927215Y4659810D1*
X3930836Y4667663D1*
X3935060Y4675207D1*
X3939865Y4682398D1*
X3945219Y4689189D1*
X3951089Y4695538D1*
X3957438Y4701408D1*
X3964230Y4706762D1*
X3971420Y4711567D1*
X3978965Y4715791D1*
X3986818Y4719412D1*
X3994930Y4722406D1*
X4003253Y4724752D1*
X4011735Y4726440D1*
X4020323Y4727455D1*
X4028963Y4727795D1*
X4037604Y4727455D1*
X4046192Y4726440D1*
X4054673Y4724752D1*
X4062996Y4722406D1*
X4071109Y4719412D1*
X4078962Y4715791D1*
X4086507Y4711567D1*
X4093697Y4706762D1*
X4100488Y4701408D1*
X4106837Y4695538D1*
X4112707Y4689189D1*
X4118062Y4682398D1*
X4122866Y4675207D1*
X4127091Y4667663D1*
X4130711Y4659810D1*
X4133705Y4651697D1*
X4136051Y4643374D1*
X4137739Y4634892D1*
X4138755Y4626304D1*
X4139094Y4617664D1*
X4138755Y4609024D1*
X3583541Y4571656D2*
D24*
Y4509396D1*
X3689790Y4571656D2*
Y4509396D1*
X3796039Y4571656D2*
Y4509396D1*
X3862236D1*
D27*
X2927290Y828146D3*
X3037526D3*
X3164790Y1759396D3*
X3054554D3*
X3164790Y2159396D3*
X3054554D3*
X3146039Y3109396D3*
X3035803D3*
X3171039Y3509396D3*
X3060803D3*
X2927290Y4446896D3*
X3037526D3*
D28*
X3677290Y3278147D3*
Y3167911D3*
D27*
X3425026Y4278147D3*
X3314790D3*
X3452290Y3634396D3*
X3562526D3*
X3452290Y3528147D3*
X3562526D3*
D28*
X3583541Y4509396D3*
Y4399160D3*
X3689790Y4509396D3*
Y4399160D3*
X3796039Y4509396D3*
Y4399160D3*
X3952290Y2484396D3*
Y2594633D3*
X3283541Y2484396D3*
Y2594633D3*
D27*
X3221039Y2721896D3*
X3331276D3*
D29*
X3952290Y2771896D3*
Y2697093D3*
D30*
X3827290Y3390646D3*
D31*
Y3490646D3*
X3927290Y3390646D3*
Y3490646D3*
X4027290Y3390646D3*
Y3490646D3*
D30*
X3614790Y859396D3*
D32*
Y959396D3*
Y1059396D3*
Y1159396D3*
Y1259396D3*
Y1359396D3*
Y1459396D3*
Y1659396D3*
Y1759396D3*
Y1859396D3*
Y1959396D3*
Y1559396D3*
D33*
X3321039Y2940646D3*
X3421039D3*
D34*
X3321039Y3040646D3*
D33*
X3421039D3*
X3496039Y2209396D3*
X3596039D3*
D34*
X3496039Y2309396D3*
D33*
X3596039D3*
D35*
X3671039Y3528147D3*
Y3628147D3*
D36*
X3414790Y4071896D3*
Y3827802D3*
D28*
X3802289Y3790647D3*
Y3680411D3*
D38*
X3796039Y4071547D3*
D39*
X3756669Y3929028D3*
D38*
X3717299Y4071508D3*
D27*
X3789790Y4203147D3*
X3679554D3*
X3533541Y4696896D3*
X3423304D3*
D28*
X3677290Y3046896D3*
Y2936660D3*
D34*
X3039790Y4303147D3*
D40*
X2939790D3*
X2839790D3*
X2739790D3*
X2639790D3*
X2539790D3*
X2439790D3*
X2339790D3*
X2239790D3*
X2139790D3*
X2039790D3*
X1939790D3*
X1839790D3*
X1739790D3*
X1639790D3*
X1539790D3*
X1439790D3*
X1339790D3*
X1239790D3*
X1139790D3*
Y3703147D3*
X1239790D3*
X1339790D3*
X1439790D3*
X1539790D3*
X1639790D3*
X1739790D3*
X1839790D3*
X1939790D3*
X2039790D3*
X2139790D3*
X2239790D3*
X2339790D3*
X2439790D3*
X2539790D3*
X2639790D3*
X2739790D3*
X2839790D3*
X2939790D3*
X3039790D3*
D34*
Y2953146D3*
D40*
X2939790D3*
X2839790D3*
X2739790D3*
X2639790D3*
X2539790D3*
X2439790D3*
X2339790D3*
X2239790D3*
X2139790D3*
X2039790D3*
X1939790D3*
X1839790D3*
X1739790D3*
X1639790D3*
X1539790D3*
X1439790D3*
X1339790D3*
X1239790D3*
X1139790D3*
Y2353146D3*
X1239790D3*
X1339790D3*
X1439790D3*
X1539790D3*
X1639790D3*
X1739790D3*
X1839790D3*
X1939790D3*
X2039790D3*
X2139790D3*
X2239790D3*
X2339790D3*
X2439790D3*
X2539790D3*
X2639790D3*
X2739790D3*
X2839790D3*
X2939790D3*
X3039790D3*
D34*
Y1603146D3*
D40*
X2939790D3*
X2839790D3*
X2739790D3*
X2639790D3*
X2539790D3*
X2439790D3*
X2339790D3*
X2239790D3*
X2139790D3*
X2039790D3*
X1939790D3*
X1839790D3*
X1739790D3*
X1639790D3*
X1539790D3*
X1439790D3*
X1339790D3*
X1239790D3*
X1139790D3*
Y1003146D3*
X1239790D3*
X1339790D3*
X1439790D3*
X1539790D3*
X1639790D3*
X1739790D3*
X1839790D3*
X1939790D3*
X2039790D3*
X2139790D3*
X2239790D3*
X2339790D3*
X2439790D3*
X2539790D3*
X2639790D3*
X2739790D3*
X2839790D3*
X2939790D3*
X3039790D3*
D42*
X3383539Y4453147D3*
X3420941D3*
X3458343D3*
Y4579131D3*
X3420941D3*
X3383539D3*
D43*
X3496039Y2721896D3*
Y2696306D3*
Y2670715D3*
Y2645125D3*
Y2619534D3*
Y2593944D3*
X3496047Y2568353D3*
X3496039Y2542762D3*
X3763362Y2542644D3*
X3763756Y2568274D3*
Y2593944D3*
Y2619534D3*
Y2645125D3*
Y2670715D3*
Y2696306D3*
Y2721896D3*
D44*
X3821039Y2990646D3*
X3871039D3*
X3921039D3*
X3971039D3*
Y3203244D3*
X3921039D3*
X3871039D3*
X3821039D3*
D31*
X739790Y4509396D3*
X709790Y4429396D3*
X635790Y4386396D3*
X551790Y4401396D3*
X496790Y4466396D3*
Y4552396D3*
X551790Y4617396D3*
X635790Y4632396D3*
X709790Y4589396D3*
X739790Y4171896D3*
X709790Y4091896D3*
X635790Y4048896D3*
X551790Y4063896D3*
X496790Y4128896D3*
Y4214896D3*
X551790Y4279896D3*
X635790Y4294896D3*
X709790Y4251896D3*
X739790Y3834396D3*
X709790Y3754396D3*
X635790Y3711396D3*
X551790Y3726396D3*
X496790Y3791396D3*
Y3877396D3*
X551790Y3942396D3*
X635790Y3957396D3*
X709790Y3914396D3*
X739790Y3496896D3*
X709790Y3416896D3*
X635790Y3373896D3*
X551790Y3388896D3*
X496790Y3453896D3*
Y3539896D3*
X551790Y3604896D3*
X635790Y3619896D3*
X709790Y3576896D3*
X739790Y3159396D3*
X709790Y3079396D3*
X635790Y3036396D3*
X551790Y3051396D3*
X496790Y3116396D3*
Y3202396D3*
X551790Y3267396D3*
X635790Y3282396D3*
X709790Y3239396D3*
X739790Y2821896D3*
X709790Y2741896D3*
X635790Y2698896D3*
X551790Y2713896D3*
X496790Y2778896D3*
Y2864896D3*
X551790Y2929896D3*
X635790Y2944896D3*
X709790Y2901896D3*
X739790Y2484396D3*
X709790Y2404396D3*
X635790Y2361396D3*
X551790Y2376396D3*
X496790Y2441396D3*
Y2527396D3*
X551790Y2592396D3*
X635790Y2607396D3*
X709790Y2564396D3*
X739790Y2146896D3*
X709790Y2066896D3*
X635790Y2023896D3*
X551790Y2038896D3*
X496790Y2103896D3*
Y2189896D3*
X551790Y2254896D3*
X635790Y2269896D3*
X709790Y2226896D3*
X739790Y1809396D3*
X709790Y1729396D3*
X635790Y1686396D3*
X551790Y1701396D3*
X496790Y1766396D3*
Y1852396D3*
X551790Y1917396D3*
X635790Y1932396D3*
X709790Y1889396D3*
X739790Y1471896D3*
X709790Y1391896D3*
X635790Y1348896D3*
X551790Y1363896D3*
X496790Y1428896D3*
Y1514896D3*
X551790Y1579896D3*
X635790Y1594896D3*
X709790Y1551896D3*
X739790Y1134396D3*
X709790Y1054396D3*
X635790Y1011396D3*
X551790Y1026396D3*
X496790Y1091396D3*
Y1177396D3*
X551790Y1242396D3*
X635790Y1257396D3*
X709790Y1214396D3*
X739790Y796896D3*
X709790Y716896D3*
X635790Y673896D3*
X551790Y688896D3*
X496790Y753896D3*
Y839896D3*
X551790Y904896D3*
X635790Y919896D3*
X709790Y876896D3*
M02*
