G04 DipTrace 3.1.0.1*
G04 Panal-PCB-rev2-route-component2.Bottom.gbr*
%MOIN*%
G04 #@! TF.FileFunction,Copper,L2,Bot*
G04 #@! TF.Part,Single*
G04 #@! TA.AperFunction,ViaPad*
%ADD14C,0.03*%
G04 #@! TA.AperFunction,CopperBalancing*
%ADD15C,0.02*%
G04 #@! TA.AperFunction,Conductor*
%ADD16C,0.016*%
%ADD18C,0.01*%
%ADD19C,0.025*%
%ADD21C,0.04*%
%ADD22C,0.008*%
G04 #@! TA.AperFunction,CopperBalancing*
%ADD24C,0.025984*%
G04 #@! TA.AperFunction,ComponentPad*
%ADD30R,0.06X0.06*%
%ADD31C,0.06*%
%ADD32O,0.065X0.06*%
%ADD33C,0.065*%
%ADD34R,0.059055X0.059055*%
%ADD35O,0.07X0.06*%
%ADD40O,0.06X0.065*%
G04 #@! TA.AperFunction,ViaPad*
%ADD48C,0.034*%
%ADD49C,0.044*%
%FSLAX26Y26*%
G04*
G70*
G90*
G75*
G01*
G04 Bottom*
%LPD*%
X3521039Y1703146D2*
D14*
Y1821896D1*
X3596039Y4696896D2*
D15*
Y4340646D1*
X3614790Y1859396D2*
D14*
X3627290D1*
X3614790D2*
X3689790D1*
X3839790Y2009396D1*
Y2071896D1*
X3214790Y3184396D2*
D16*
X3371039D1*
X3471041D2*
X3577289D1*
X3596039Y3165646D1*
X3371039Y2353147D2*
X3614789Y2596896D1*
X3671039D1*
X3614790Y1459396D2*
X3527289D1*
X3446039Y1540646D1*
Y1615646D1*
X3827290Y3390646D2*
D18*
Y3221896D1*
X3921039Y3128147D1*
X1371039Y765646D2*
X1139790Y996895D1*
Y1003146D1*
X1046039Y1184396D2*
Y1346896D1*
X1046037Y1684396D2*
Y2003146D1*
X1046038Y2115646D2*
Y2259394D1*
X1139790Y2353146D1*
X1046039Y2546896D2*
Y2696896D1*
X1046041D1*
Y3040647D2*
Y3353147D1*
X1046042D1*
X1046041Y3459396D2*
Y3609398D1*
X1139790Y3703147D1*
X3489790Y1159396D2*
X3421039D1*
Y1259396D2*
X3496039D1*
X1239790Y1003146D2*
X1246042D1*
X1483541Y765647D1*
X1083541Y1184396D2*
Y1346895D1*
X1083542Y1346896D1*
X1083539Y1684396D2*
Y2003146D1*
Y2115646D2*
Y2196895D1*
X1239790Y2353146D1*
X1083539Y3459396D2*
Y3546896D1*
X1239790Y3703147D1*
X1083539Y3353147D2*
Y3040647D1*
Y2696896D2*
Y2546896D1*
X3171039Y1678147D2*
X3233541D1*
X3246039Y1690646D1*
Y1809396D1*
X3339790D1*
D19*
X3502290Y1646896D1*
X3614790D1*
D18*
Y1659396D1*
X3171039Y1678147D2*
Y1553146D1*
X3073772Y1455878D1*
X3058539Y1440646D1*
X1302290D1*
X1139790Y1603146D1*
X2852290Y828146D2*
Y909398D1*
X2871039Y928147D1*
X3177290D1*
X3208539Y959396D1*
Y1321110D1*
X3073772Y1455878D1*
X1139790Y4303147D2*
Y4259396D1*
X1302290Y4096896D1*
X1502290D1*
X1656942Y3942244D1*
X1789790Y3809396D1*
Y3546896D1*
X1723869Y3480975D1*
X1464790Y3221896D1*
X1408541D1*
X1139790Y2953146D1*
Y2896896D1*
X1264790Y2771896D1*
X1446041D1*
X1607004Y2610933D1*
X1789790Y2428147D1*
Y2278146D1*
X1258541Y1746896D1*
Y1721896D1*
X1139790Y1603146D1*
X3171041Y3428147D2*
X2711377D1*
X1776697D1*
X1723869Y3480975D1*
X2846039Y4446896D2*
Y4409396D1*
X2789790Y4353147D1*
Y4109396D1*
X2689790Y4009396D1*
X1724094D1*
X1656942Y3942244D1*
X3614790Y1959396D2*
X3283541D1*
X3193782Y2049155D1*
X3164790Y2078147D1*
X3364790Y4384396D2*
X3371039D1*
X3464790Y4290646D1*
X3596041D1*
X3627290D1*
X3802290Y4465646D1*
Y4571896D1*
X3796039Y4578147D1*
X3171041Y3428147D2*
Y3634396D1*
Y4340647D1*
X3214790Y4384396D1*
X3364790D1*
X3596041Y4203147D2*
Y4290646D1*
X3383541Y3634396D2*
X3171041D1*
X3383541Y3528147D2*
X3271041D1*
X3171041Y3428147D1*
X3383541Y3634396D2*
X3664790D1*
X3671039Y3628147D1*
X3952290Y2421896D2*
X3858541D1*
X3764790Y2515647D1*
Y2640646D1*
X3739790Y2665646D1*
X3677290D1*
X3671041Y2659396D1*
X3193782Y2049155D2*
X3367049D1*
X3427290Y2109396D1*
X3683539D1*
Y2253147D1*
X3677290Y2259396D1*
X3789790D1*
X3885301Y2354907D1*
X3952290Y2421896D1*
X4027290Y3490646D2*
X4121039D1*
Y3353146D1*
X3977290Y3209396D1*
Y2934398D1*
X3971039Y2928147D1*
X3677290Y3346896D2*
Y3121896D1*
X3710686Y3088500D1*
X3821039Y2978147D1*
X3921039D1*
X3971039Y2928147D1*
X3710686Y3088500D2*
Y2861542D1*
X3664790Y2815646D1*
Y2665647D1*
X3671041Y2659396D1*
X3208539Y2484396D2*
X3086336D1*
X2891188Y2679545D1*
X2858539Y2646896D1*
X1642967D1*
X1607004Y2610933D1*
X3614790Y1659396D2*
X3939790D1*
X4164790Y1884396D1*
Y2075417D1*
X3885301Y2354907D1*
X3152290Y2721896D2*
X2992188D1*
X2962864Y2751220D1*
X2891188Y2679545D1*
X3158541Y3028147D2*
X3111377D1*
X2711377Y3428147D1*
X3846039Y2796896D2*
Y2628147D1*
X3852290D1*
Y2528147D1*
X3883539Y2809396D2*
Y2665646D1*
X3883541D1*
Y2559396D1*
X3521041Y1128147D2*
X3396039D1*
X3364790Y1159396D1*
Y1190646D1*
X1008541Y2003147D2*
Y1671896D1*
X1027290Y1653147D1*
X1121041D1*
X1008539Y2115646D2*
Y2409396D1*
X1008541D1*
Y2546896D2*
Y2709396D1*
X1027290Y2728146D1*
X1121039D1*
X1114790Y3009396D2*
X1030932D1*
X1008541Y3031787D1*
Y3353146D1*
X1008539Y3459396D2*
Y3778146D1*
Y3896896D2*
Y4046896D1*
X1514790Y1765647D2*
D22*
X1439790D1*
Y1765646D1*
X696039Y1640646D2*
X546039D1*
X496039Y1590646D1*
Y1515647D1*
X496790Y1514896D1*
X1564790Y1215646D2*
X1189790D1*
X1308539Y1271896D2*
X1133541D1*
X1339790Y1240646D2*
X1158541D1*
X696039Y1321896D2*
X677290Y1303147D1*
X539790D1*
X496039Y1259396D1*
Y1178147D1*
X496790Y1177396D1*
X2283541Y903147D2*
X2233541Y853147D1*
X496790Y839896D2*
Y922646D1*
X539790Y965646D1*
X696039D1*
X2183541Y4609396D2*
X2089790D1*
X696039Y4659396D2*
X671039Y4684396D1*
X539790D1*
X496039Y4640646D1*
Y4553147D1*
X496790Y4552396D1*
X1546041Y4446896D2*
X1452290D1*
X696039Y4340646D2*
X539789D1*
X496039Y4296896D1*
Y4215647D1*
X496790Y4214896D1*
X1564790Y3921896D2*
X1183541D1*
X1321041Y3971896D2*
X1121039D1*
X1352290Y3946895D2*
X1152290D1*
X708541Y4021896D2*
X689791Y4003147D1*
X546039D1*
X496039Y3953147D1*
Y3878147D1*
X496790Y3877396D1*
X2277290Y3603147D2*
X2227290Y3553147D1*
X696039Y3665647D2*
Y3665646D1*
X546039D1*
X496039Y3615646D1*
Y3540647D1*
X496790Y3539896D1*
X2183539Y3259396D2*
X2089790D1*
X496790Y3202396D2*
Y3285147D1*
X539790Y3328147D1*
X677289D1*
X696039Y3309396D1*
X1527290Y3121896D2*
X1414790D1*
X696039Y2990647D2*
X539790D1*
X496039Y2946896D1*
Y2865647D1*
X496790Y2864896D1*
X1564790Y2571896D2*
X1183539D1*
X1121039Y2621896D2*
X1314790D1*
X1346041Y2596896D2*
X1152290D1*
X496790Y2527396D2*
Y2610147D1*
X539790Y2653147D1*
X677291D1*
X696041Y2671896D1*
X2289790Y2253147D2*
Y2253146D1*
X2239790Y2203146D1*
X696039Y2315646D2*
X546039D1*
X496039Y2265646D1*
Y2190647D1*
X496790Y2189896D1*
X2183541Y1903146D2*
X2089790D1*
Y1903147D1*
X696039Y1959396D2*
X677289Y1978147D1*
X546039D1*
X496039Y1928147D1*
Y1853147D1*
X496790Y1852396D1*
X3502290Y4365646D2*
D15*
Y4578147D1*
X3321039Y2940646D2*
D14*
Y3040646D1*
X796041Y4759396D2*
X796039D1*
Y4677568D1*
Y4339625D1*
Y4001824D1*
Y3660787D1*
Y3322013D1*
Y2988146D1*
X709790Y2901896D1*
Y3239396D2*
X713423D1*
X796039Y3322013D1*
X709790Y3576896D2*
X712148D1*
X796039Y3660787D1*
X709790Y3914396D2*
X796039Y4001824D1*
X709790Y4251896D2*
X796039Y4339625D1*
X709790Y4589396D2*
Y4591319D1*
X796039Y4677568D1*
X3421039Y2940646D2*
Y3040646D1*
X3496039Y2309396D2*
Y2209396D1*
X1502290Y646896D2*
X927290D1*
X796039Y778147D1*
Y834306D1*
Y1173804D1*
Y1509858D1*
Y1848579D1*
Y2190801D1*
Y2534396D1*
X766039Y2564396D1*
X709790D1*
Y2226896D2*
X759944D1*
X796039Y2190801D1*
X709790Y1889396D2*
X755222D1*
X796039Y1848579D1*
X709790Y1551896D2*
X754001D1*
X796039Y1509858D1*
X709790Y1214396D2*
X755448D1*
X796039Y1173804D1*
X709790Y876896D2*
X753449D1*
X796039Y834306D1*
X3596039Y2309396D2*
Y2209396D1*
X3402290Y2678147D2*
D21*
Y2540646D1*
X3527290Y2953146D2*
Y2803147D1*
X3402290Y2678147D1*
X3296039Y1890646D2*
D14*
X3058541D1*
X3052290Y1896896D1*
X3296041Y2290646D2*
Y2696895D1*
X3039790Y2953146D1*
X2989790Y3596896D2*
X3039790D1*
X3108539Y3665646D1*
Y3740647D1*
X3039790Y3809396D1*
Y4303147D1*
X696039Y4659396D3*
X2089790Y4609396D3*
X2183541D3*
X696039Y4340646D3*
X1452290Y4446896D3*
X1546041D3*
X708541Y4021896D3*
X1121039Y3971896D3*
X1321041D3*
X1152290Y3946895D3*
X1352290D3*
X1183541Y3921896D3*
X1564790D3*
X696039Y3665647D3*
X2277290Y3603147D3*
X2227290Y3553147D3*
X696039Y3309396D3*
X2089790Y3259396D3*
X2183539D3*
X696039Y2990647D3*
X1414790Y3121896D3*
X1527290D3*
X696041Y2671896D3*
X1121039Y2621896D3*
X1314790D3*
X1152290Y2596896D3*
X1346041D3*
X1183539Y2571896D3*
X1564790D3*
X696039Y2315646D3*
X2289790Y2253147D3*
X2239790Y2203146D3*
X696039Y1959396D3*
X2089790Y1903147D3*
X2183541Y1903146D3*
X696039Y1640646D3*
X1439790Y1765646D3*
X1514790Y1765647D3*
X696039Y1321896D3*
X1133541Y1271896D3*
X1158541Y1240646D3*
X1189790Y1215646D3*
X1308539Y1271896D3*
X1339790Y1240646D3*
X1564790Y1215646D3*
X696039Y965646D3*
X2283541Y903147D3*
X2233541Y853147D3*
X1483541Y765647D3*
X1371039Y765646D3*
X3489790Y1159396D3*
X3421039D3*
X3521041Y1128147D3*
X3364790Y1190646D3*
X1046039Y1184396D3*
X1083541D3*
X1046039Y1346896D3*
X1083542D3*
X1046037Y1684396D3*
X1083539D3*
X1046037Y2003146D3*
X1083539D3*
X1046038Y2115646D3*
X1083539D3*
X1046039Y2546896D3*
X1083539D3*
X1046041Y2696896D3*
X1083539D3*
X1046041Y3040647D3*
X1083539D3*
X1046041Y3459396D3*
X1083539D3*
X1046042Y3353147D3*
X1083539D3*
X1121041Y1653147D3*
X1008539Y2115646D3*
X1008541Y2003147D3*
Y2409396D3*
Y2546896D3*
X1121039Y2728146D3*
X1114790Y3009396D3*
D48*
X3689790Y4578147D3*
D14*
X1008541Y3353146D3*
X1008539Y3459396D3*
Y3778146D3*
Y3896896D3*
Y4046896D3*
X3421039Y1259396D3*
X3496039D3*
D49*
X796041Y4759396D3*
X1502290Y646896D3*
X3402290Y2678147D3*
Y2540646D3*
X3671041Y2659396D3*
X3446039Y1615646D3*
D14*
X3846039Y2796896D3*
X3883539Y2809396D3*
X3852290Y2628147D3*
X3883541Y2665646D3*
Y2559396D3*
X3852290Y2528147D3*
D49*
X3671039Y2596896D3*
X3521039Y1821896D3*
Y1703146D3*
D48*
X3171039Y1678147D3*
X2852290Y828146D3*
X3164790Y2078147D3*
X3158541Y3028147D3*
X3171041Y3428147D3*
X2846039Y4446896D3*
X3596039Y4340646D3*
Y4696896D3*
D49*
X3527290Y2953146D3*
D14*
X3502290Y4578147D3*
Y4365646D3*
D48*
X3796039Y4578147D3*
X3364790Y4384396D3*
X3596041Y4203147D3*
X3383541Y3634396D3*
Y3528147D3*
X3152290Y2721896D3*
X3952290Y2421896D3*
D49*
X3214790Y3184396D3*
X3371039D3*
X3471041D3*
X3596039Y3165646D3*
D14*
X3921039Y3128147D3*
D48*
X3971039Y2928147D3*
X3677290Y3346896D3*
D49*
X3839790Y2071896D3*
D48*
X3208539Y2484396D3*
D49*
X3371039Y2353147D3*
X3052290Y1896896D3*
X3296039Y1890646D3*
X3296041Y2290646D3*
X2989790Y3596896D3*
X848965Y4773281D2*
D15*
X4180328D1*
X850508Y4753412D2*
X4194180D1*
X844084Y4733543D2*
X3563336D1*
X3628734D2*
X4199921D1*
X843833Y4713675D2*
X3549269D1*
X3642799D2*
X3973025D1*
X4084929D2*
X4200602D1*
X843833Y4693806D2*
X3546327D1*
X3645743D2*
X3947404D1*
X4110550D2*
X4200602D1*
X843833Y4673937D2*
X3552104D1*
X3639965D2*
X3932297D1*
X4125622D2*
X4200602D1*
X843833Y4654068D2*
X2077694D1*
X2101896D2*
X2171424D1*
X2195626D2*
X3553252D1*
X3638853D2*
X3923038D1*
X4134916D2*
X4200602D1*
X843833Y4634199D2*
X2049274D1*
X2224047D2*
X3553252D1*
X3638853D2*
X3918087D1*
X4139832D2*
X4200602D1*
X843833Y4614331D2*
X2042240D1*
X2231080D2*
X3472226D1*
X3532385D2*
X3553252D1*
X3638853D2*
X3916866D1*
X4141051D2*
X4200602D1*
X843833Y4594462D2*
X2044501D1*
X2228856D2*
X3457476D1*
X3638853D2*
X3919307D1*
X4138612D2*
X4200602D1*
X843833Y4574593D2*
X2058030D1*
X2121562D2*
X2151759D1*
X2215327D2*
X3454642D1*
X3638853D2*
X3925587D1*
X4132332D2*
X4200602D1*
X843833Y4554724D2*
X3459487D1*
X3638853D2*
X3936602D1*
X4121352D2*
X4200602D1*
X843833Y4534856D2*
X3459487D1*
X3638853D2*
X3954365D1*
X4103552D2*
X4200602D1*
X843833Y4514987D2*
X3459487D1*
X3638853D2*
X3987127D1*
X4070790D2*
X4200602D1*
X843833Y4495118D2*
X3459487D1*
X3638853D2*
X4200602D1*
X843833Y4475249D2*
X1414339D1*
X1584016D2*
X3459487D1*
X3638853D2*
X4200602D1*
X843833Y4455381D2*
X1405297D1*
X1593059D2*
X3459487D1*
X3638853D2*
X4200602D1*
X843833Y4435512D2*
X1405942D1*
X1592413D2*
X3459487D1*
X3638853D2*
X4200602D1*
X843833Y4415643D2*
X1416815D1*
X1581504D2*
X3459487D1*
X3638853D2*
X4200602D1*
X843833Y4395774D2*
X3459487D1*
X3638853D2*
X4200602D1*
X843833Y4375906D2*
X3455647D1*
X3638853D2*
X4200602D1*
X843833Y4356037D2*
X1103761D1*
X1175798D2*
X1203770D1*
X1275807D2*
X1303780D1*
X1375816D2*
X1403753D1*
X1475825D2*
X1503762D1*
X1575799D2*
X1603772D1*
X1675808D2*
X1703781D1*
X1775818D2*
X1803755D1*
X1875827D2*
X1903764D1*
X1975801D2*
X2003773D1*
X2075810D2*
X2103782D1*
X2175819D2*
X2203756D1*
X2275828D2*
X2303765D1*
X2375801D2*
X2403774D1*
X2475810D2*
X2503783D1*
X2575819D2*
X2603756D1*
X2675828D2*
X2703765D1*
X2775802D2*
X2803774D1*
X2875811D2*
X2903783D1*
X3102133D2*
X3455504D1*
X3643302D2*
X4200602D1*
X843833Y4336168D2*
X1085210D1*
X3102133D2*
X3465228D1*
X3645635D2*
X4200602D1*
X843833Y4316299D2*
X1077925D1*
X3102133D2*
X3552894D1*
X3639176D2*
X4200602D1*
X843833Y4296430D2*
X1077135D1*
X3102133D2*
X3575895D1*
X3616210D2*
X4200602D1*
X843833Y4276562D2*
X1081980D1*
X3102133D2*
X4200602D1*
X843833Y4256693D2*
X1095795D1*
X1183801D2*
X1195769D1*
X1283810D2*
X1295778D1*
X1383782D2*
X1395787D1*
X1483791D2*
X1495787D1*
X1583801D2*
X1595786D1*
X1683810D2*
X1695778D1*
X1783783D2*
X1795787D1*
X1883793D2*
X1895797D1*
X1983802D2*
X1995770D1*
X2083811D2*
X2095780D1*
X2183785D2*
X2195789D1*
X2283794D2*
X2295810D1*
X2383803D2*
X2395765D1*
X2483812D2*
X2495806D1*
X2583786D2*
X2595790D1*
X2683795D2*
X2695799D1*
X2783804D2*
X2795773D1*
X2883814D2*
X2895782D1*
X3102133D2*
X4200602D1*
X843833Y4236824D2*
X2991987D1*
X3087600D2*
X4200602D1*
X843833Y4216955D2*
X2991987D1*
X3087600D2*
X4200602D1*
X843833Y4197087D2*
X2991987D1*
X3087600D2*
X4200602D1*
X843833Y4177218D2*
X2991987D1*
X3087600D2*
X4200602D1*
X843833Y4157349D2*
X2991987D1*
X3087600D2*
X4200602D1*
X843833Y4137480D2*
X2991987D1*
X3087600D2*
X4200602D1*
X843833Y4117612D2*
X2991987D1*
X3087600D2*
X4200602D1*
X843833Y4097743D2*
X2991987D1*
X3087600D2*
X4200602D1*
X843833Y4077874D2*
X972820D1*
X1044282D2*
X2991987D1*
X3087600D2*
X4200602D1*
X843833Y4058005D2*
X962091D1*
X1054976D2*
X2991987D1*
X3087600D2*
X4200602D1*
X843833Y4038136D2*
X961588D1*
X1055478D2*
X2991987D1*
X3087600D2*
X4200602D1*
X843833Y4018268D2*
X970739D1*
X1046328D2*
X2991987D1*
X3087600D2*
X4200602D1*
X843833Y3998399D2*
X970739D1*
X1046328D2*
X1081693D1*
X1360386D2*
X2991987D1*
X3087600D2*
X4200602D1*
X843833Y3978530D2*
X970739D1*
X1046328D2*
X1073727D1*
X1387407D2*
X2991987D1*
X3087600D2*
X4200602D1*
X843833Y3958661D2*
X970739D1*
X1046328D2*
X1075198D1*
X1398567D2*
X1535484D1*
X1594100D2*
X2991987D1*
X3087600D2*
X4200602D1*
X843833Y3938793D2*
X970739D1*
X1046328D2*
X1087398D1*
X1609350D2*
X2991987D1*
X3087600D2*
X4200602D1*
X843833Y3918924D2*
X966396D1*
X1050706D2*
X1114025D1*
X1612508D2*
X2991987D1*
X3087600D2*
X4200602D1*
X843833Y3899055D2*
X960799D1*
X1056303D2*
X1141835D1*
X1606480D2*
X2991987D1*
X3087600D2*
X4200602D1*
X843833Y3879186D2*
X964315D1*
X1052787D2*
X1165016D1*
X1202066D2*
X1546249D1*
X1583335D2*
X2991987D1*
X3087600D2*
X4200602D1*
X843833Y3859318D2*
X980356D1*
X1036711D2*
X2991987D1*
X3087600D2*
X4200602D1*
X843833Y3839449D2*
X2991987D1*
X3087600D2*
X4200602D1*
X843833Y3819580D2*
X987030D1*
X1030072D2*
X2991987D1*
X3096391D2*
X4200602D1*
X843833Y3799711D2*
X966146D1*
X1050957D2*
X2993028D1*
X3116235D2*
X4200602D1*
X843833Y3779843D2*
X960762D1*
X1056303D2*
X3002789D1*
X3136115D2*
X4200602D1*
X843833Y3759974D2*
X964495D1*
X1052572D2*
X1110508D1*
X1169088D2*
X1210482D1*
X1269097D2*
X1310491D1*
X1369106D2*
X1410500D1*
X1469079D2*
X1510509D1*
X1569088D2*
X1610482D1*
X1669098D2*
X1710491D1*
X1769108D2*
X1810500D1*
X1869080D2*
X1910474D1*
X1969089D2*
X2010483D1*
X2069098D2*
X2110492D1*
X2169072D2*
X2210501D1*
X2269081D2*
X2310475D1*
X2369091D2*
X2410484D1*
X2469100D2*
X2510493D1*
X2569073D2*
X2610503D1*
X2669083D2*
X2710476D1*
X2769092D2*
X2810486D1*
X2869101D2*
X2910495D1*
X2969075D2*
X3010504D1*
X3152047D2*
X4200602D1*
X843833Y3740105D2*
X970739D1*
X1046328D2*
X1087685D1*
X3156354D2*
X4200602D1*
X843833Y3720236D2*
X970739D1*
X1046328D2*
X1078751D1*
X3156354D2*
X4200602D1*
X843833Y3700367D2*
X970739D1*
X1046328D2*
X1076992D1*
X3156354D2*
X4200602D1*
X843833Y3680499D2*
X970739D1*
X1046328D2*
X1064504D1*
X3156354D2*
X3633130D1*
X3708970D2*
X4200602D1*
X843833Y3660630D2*
X970739D1*
X3156067D2*
X3612640D1*
X3729424D2*
X4200602D1*
X843833Y3640761D2*
X970739D1*
X1252303D2*
X1327283D1*
X1352277D2*
X1427293D1*
X1452286D2*
X1527303D1*
X1552295D2*
X1627276D1*
X1652304D2*
X1727285D1*
X1752277D2*
X1827294D1*
X1852286D2*
X1927303D1*
X1952295D2*
X2027277D1*
X2052304D2*
X2127286D1*
X2152278D2*
X2227295D1*
X2305432D2*
X2327269D1*
X2352297D2*
X2427278D1*
X2452306D2*
X2527287D1*
X2552280D2*
X2627297D1*
X2652289D2*
X2727270D1*
X2752298D2*
X2827280D1*
X2852307D2*
X2927289D1*
X3148997D2*
X3604567D1*
X3737534D2*
X4200602D1*
X843833Y3620892D2*
X970739D1*
X1210175D2*
X2233072D1*
X2321508D2*
X2940744D1*
X3130552D2*
X3603669D1*
X3738395D2*
X4200602D1*
X843833Y3601024D2*
X970739D1*
X1190295D2*
X2223958D1*
X2325025D2*
X2935147D1*
X3110673D2*
X3609626D1*
X3732438D2*
X4200602D1*
X843833Y3581155D2*
X970739D1*
X1170415D2*
X2189043D1*
X2319463D2*
X2937408D1*
X3090829D2*
X3625451D1*
X3716614D2*
X4200602D1*
X843833Y3561286D2*
X970739D1*
X1150571D2*
X2180215D1*
X2297861D2*
X2948819D1*
X3070591D2*
X3613071D1*
X3729029D2*
X4200602D1*
X843833Y3541417D2*
X970739D1*
X1130692D2*
X2181005D1*
X2273567D2*
X3604710D1*
X3737391D2*
X3791846D1*
X3862734D2*
X3891856D1*
X3962743D2*
X3991828D1*
X4062752D2*
X4200602D1*
X843833Y3521549D2*
X970739D1*
X1121325D2*
X2192129D1*
X2262442D2*
X3603597D1*
X3738467D2*
X3772934D1*
X4081664D2*
X4200602D1*
X843833Y3501680D2*
X970739D1*
X1121325D2*
X3609303D1*
X3732761D2*
X3765507D1*
X4089092D2*
X4200602D1*
X843833Y3481811D2*
X966612D1*
X1125488D2*
X3624661D1*
X3717403D2*
X3765148D1*
X4089450D2*
X4200602D1*
X843833Y3461942D2*
X960799D1*
X1131265D2*
X3771678D1*
X4082883D2*
X4200602D1*
X843833Y3442073D2*
X964136D1*
X1127928D2*
X3764503D1*
X4065874D2*
X4200602D1*
X843833Y3422205D2*
X979818D1*
X1112283D2*
X3764503D1*
X4081269D2*
X4200602D1*
X843833Y3402336D2*
X3764503D1*
X4088948D2*
X4200602D1*
X843833Y3382467D2*
X971349D1*
X1120715D2*
X3764503D1*
X4089522D2*
X4200602D1*
X843833Y3362598D2*
X961732D1*
X1130369D2*
X3764503D1*
X4083243D2*
X4200602D1*
X843833Y3342730D2*
X961948D1*
X1130154D2*
X3764503D1*
X3966726D2*
X3987881D1*
X4066699D2*
X4200602D1*
X843833Y3322861D2*
X970739D1*
X1121325D2*
X3789478D1*
X3865102D2*
X4200602D1*
X843833Y3302992D2*
X970739D1*
X1121325D2*
X2073747D1*
X2105844D2*
X2167512D1*
X2199573D2*
X3789478D1*
X3865102D2*
X4200602D1*
X843833Y3283123D2*
X970739D1*
X1121325D2*
X2048629D1*
X2224728D2*
X3789478D1*
X3865102D2*
X4200602D1*
X843833Y3263255D2*
X970739D1*
X1121325D2*
X2042169D1*
X2231188D2*
X3789478D1*
X3865102D2*
X4200602D1*
X843833Y3243386D2*
X970739D1*
X1121325D2*
X2044896D1*
X2228461D2*
X3789478D1*
X3865102D2*
X4200602D1*
X843833Y3223517D2*
X970739D1*
X1121325D2*
X2059322D1*
X2120269D2*
X2153087D1*
X2213999D2*
X3177329D1*
X3252236D2*
X3333570D1*
X3408512D2*
X3433579D1*
X3508486D2*
X3789478D1*
X3878307D2*
X4200602D1*
X843833Y3203648D2*
X970739D1*
X1121325D2*
X3163622D1*
X3634690D2*
X3794501D1*
X3898152D2*
X4200602D1*
X843833Y3183780D2*
X970739D1*
X1121325D2*
X3159997D1*
X3647644D2*
X3812766D1*
X3918031D2*
X4200602D1*
X843833Y3163911D2*
X970739D1*
X1121325D2*
X1394567D1*
X1435025D2*
X1507064D1*
X1547522D2*
X3164123D1*
X3650802D2*
X3832646D1*
X3951655D2*
X4200602D1*
X843833Y3144042D2*
X970739D1*
X1121325D2*
X1372714D1*
X1569375D2*
X3178728D1*
X3250837D2*
X3335004D1*
X3407076D2*
X3434978D1*
X3507085D2*
X3545860D1*
X3646209D2*
X3852526D1*
X3966009D2*
X4200602D1*
X843833Y3124173D2*
X970739D1*
X1121325D2*
X1367043D1*
X1575046D2*
X3561362D1*
X3630707D2*
X3872370D1*
X3968664D2*
X4200602D1*
X843833Y3104304D2*
X970739D1*
X1121325D2*
X1370488D1*
X1571564D2*
X3879941D1*
X3962133D2*
X4200602D1*
X843833Y3084436D2*
X970739D1*
X1121325D2*
X1386457D1*
X1443135D2*
X1498954D1*
X1555633D2*
X3258714D1*
X3468761D2*
X3905383D1*
X3936727D2*
X4200602D1*
X843833Y3064567D2*
X970739D1*
X1124591D2*
X3258714D1*
X3481644D2*
X4200602D1*
X843833Y3044698D2*
X970739D1*
X1145978D2*
X3258714D1*
X3486201D2*
X4200602D1*
X843833Y3024829D2*
X971420D1*
X1159902D2*
X3258714D1*
X3484335D2*
X4200602D1*
X843833Y3004961D2*
X982724D1*
X1177341D2*
X1202227D1*
X1277350D2*
X1302238D1*
X1377360D2*
X1402210D1*
X1477369D2*
X1502219D1*
X1577343D2*
X1602228D1*
X1677352D2*
X1702238D1*
X1777361D2*
X1802211D1*
X1877370D2*
X1902220D1*
X1977343D2*
X2002230D1*
X2077352D2*
X2102239D1*
X2177361D2*
X2202213D1*
X2277335D2*
X2302222D1*
X2377344D2*
X2402231D1*
X2477353D2*
X2502240D1*
X2577362D2*
X2602214D1*
X2677336D2*
X2702223D1*
X2777345D2*
X2802232D1*
X2877354D2*
X2902241D1*
X3102133D2*
X3258714D1*
X3475328D2*
X3515143D1*
X3539453D2*
X4200602D1*
X843726Y2985092D2*
X1002604D1*
X3102133D2*
X3258714D1*
X3468833D2*
X3483241D1*
X3571319D2*
X4200602D1*
X837697Y2965223D2*
X1077745D1*
X3102133D2*
X3260688D1*
X3580684D2*
X4200602D1*
X820007Y2945354D2*
X1077207D1*
X3114369D2*
X3255916D1*
X3581509D2*
X4200602D1*
X800163Y2925486D2*
X1082446D1*
X3134213D2*
X3257566D1*
X3580075D2*
X4200602D1*
X780282Y2905617D2*
X1096944D1*
X1182652D2*
X1196953D1*
X1282661D2*
X1296927D1*
X1382634D2*
X1396936D1*
X1482643D2*
X1496945D1*
X1582652D2*
X1596954D1*
X1682626D2*
X1696927D1*
X1782635D2*
X1796936D1*
X1882644D2*
X1896945D1*
X1982654D2*
X1996919D1*
X2082627D2*
X2096928D1*
X2182636D2*
X2196937D1*
X2282646D2*
X2296946D1*
X2382655D2*
X2396920D1*
X2482629D2*
X2496929D1*
X2582638D2*
X2596938D1*
X2682647D2*
X2696948D1*
X2782656D2*
X2796921D1*
X2882629D2*
X2896930D1*
X3154093D2*
X3266322D1*
X3580075D2*
X4200602D1*
X770415Y2885748D2*
X3040430D1*
X3173972D2*
X3287529D1*
X3354542D2*
X3387539D1*
X3454551D2*
X3474486D1*
X3580075D2*
X4200602D1*
X783764Y2865879D2*
X3060276D1*
X3193816D2*
X3474486D1*
X3580075D2*
X4200602D1*
X797614Y2846010D2*
X3080155D1*
X3213697D2*
X3474486D1*
X3580075D2*
X3854033D1*
X3913043D2*
X4200602D1*
X802459Y2826142D2*
X3100034D1*
X3233576D2*
X3474486D1*
X3580075D2*
X3808783D1*
X3928151D2*
X4200602D1*
X800556Y2806273D2*
X3119878D1*
X3253420D2*
X3456580D1*
X3580075D2*
X3799202D1*
X3931238D2*
X4200602D1*
X791155Y2786404D2*
X3139759D1*
X3273301D2*
X3436699D1*
X3577239D2*
X3799453D1*
X3925136D2*
X4200602D1*
X767364Y2766535D2*
X1094072D1*
X1148024D2*
X3159638D1*
X3293180D2*
X3416820D1*
X3564537D2*
X3808245D1*
X3921333D2*
X4200602D1*
X772388Y2746667D2*
X993167D1*
X1164925D2*
X3179482D1*
X3313024D2*
X3396976D1*
X3544656D2*
X3808245D1*
X3921333D2*
X4200602D1*
X770701Y2726798D2*
X975260D1*
X1168836D2*
X3199362D1*
X3332724D2*
X3377096D1*
X3524777D2*
X3808245D1*
X3921333D2*
X4200602D1*
X761514Y2706929D2*
X970739D1*
X1163633D2*
X3219241D1*
X3342736D2*
X3356033D1*
X3504896D2*
X3808245D1*
X3921333D2*
X4200602D1*
X741240Y2687060D2*
X970739D1*
X1143287D2*
X3239122D1*
X3485052D2*
X3808245D1*
X3926034D2*
X4200602D1*
X743609Y2667192D2*
X970739D1*
X1129831D2*
X1306005D1*
X1323576D2*
X3248236D1*
X3465173D2*
X3808245D1*
X3931308D2*
X4200602D1*
X736684Y2647323D2*
X970739D1*
X1354896D2*
X3248236D1*
X3455089D2*
X3653369D1*
X3688696D2*
X3808245D1*
X3927505D2*
X4200602D1*
X709125Y2627454D2*
X970739D1*
X1382168D2*
X3248236D1*
X3455089D2*
X3588885D1*
X3716112D2*
X3804513D1*
X3921333D2*
X4200602D1*
X783297Y2607585D2*
X970739D1*
X1392575D2*
X1534084D1*
X1595499D2*
X3248236D1*
X3455089D2*
X3568610D1*
X3724760D2*
X3809357D1*
X3921333D2*
X4200602D1*
X809492Y2587717D2*
X970739D1*
X1609781D2*
X3248236D1*
X3455089D2*
X3548731D1*
X3725046D2*
X3814488D1*
X3921549D2*
X4200602D1*
X829371Y2567848D2*
X965823D1*
X1612400D2*
X3248236D1*
X3455089D2*
X3528887D1*
X3717115D2*
X3814488D1*
X3930555D2*
X4200602D1*
X841787Y2547979D2*
X960762D1*
X1131337D2*
X1142480D1*
X1605833D2*
X3248236D1*
X3456560D2*
X3509007D1*
X3622740D2*
X3649171D1*
X3692930D2*
X3808999D1*
X3929909D2*
X4200602D1*
X843833Y2528110D2*
X964782D1*
X1127319D2*
X1168102D1*
X1198979D2*
X1549371D1*
X1580213D2*
X3248236D1*
X3455592D2*
X3489127D1*
X3602861D2*
X3804478D1*
X3919000D2*
X4200602D1*
X843833Y2508241D2*
X981971D1*
X1110094D2*
X3248236D1*
X3343849D2*
X3358615D1*
X3445975D2*
X3469247D1*
X3583017D2*
X3809034D1*
X3895531D2*
X4200602D1*
X843833Y2488373D2*
X3248236D1*
X3343849D2*
X3392849D1*
X3411741D2*
X3449403D1*
X3563136D2*
X3827587D1*
X3876980D2*
X4200602D1*
X843833Y2468504D2*
X3248236D1*
X3343849D2*
X3429524D1*
X3543257D2*
X4200602D1*
X843833Y2448635D2*
X982903D1*
X1034163D2*
X3248236D1*
X3343849D2*
X3409643D1*
X3523413D2*
X4200602D1*
X843833Y2428766D2*
X965033D1*
X1052033D2*
X3248236D1*
X3343849D2*
X3389799D1*
X3503533D2*
X4200602D1*
X843833Y2408898D2*
X960727D1*
X1056340D2*
X1108462D1*
X1171133D2*
X1208436D1*
X1271142D2*
X1308445D1*
X1371115D2*
X1408454D1*
X1471125D2*
X1508463D1*
X1571134D2*
X1608437D1*
X1671143D2*
X1708446D1*
X1771117D2*
X1808455D1*
X1871126D2*
X1908465D1*
X1971135D2*
X2008438D1*
X2071144D2*
X2108448D1*
X2171118D2*
X2208457D1*
X2271127D2*
X2308466D1*
X2371136D2*
X2408438D1*
X2471146D2*
X2508448D1*
X2571118D2*
X2608457D1*
X2671127D2*
X2708466D1*
X2771136D2*
X2808440D1*
X2871146D2*
X2908449D1*
X2971119D2*
X3008458D1*
X3071129D2*
X3248236D1*
X3343849D2*
X3369920D1*
X3483654D2*
X4200602D1*
X843833Y2389029D2*
X965535D1*
X1051567D2*
X1086967D1*
X3092588D2*
X3248236D1*
X3463810D2*
X4200602D1*
X843833Y2369160D2*
X970739D1*
X1046328D2*
X1078499D1*
X3101056D2*
X3248236D1*
X3558365D2*
X3573168D1*
X3618902D2*
X4200602D1*
X843833Y2349291D2*
X970739D1*
X1046328D2*
X1076992D1*
X3102563D2*
X3248236D1*
X3647177D2*
X4200602D1*
X843833Y2329423D2*
X970739D1*
X1046328D2*
X1063428D1*
X3098760D2*
X3248236D1*
X3420210D2*
X3433722D1*
X3658087D2*
X4200602D1*
X843833Y2309554D2*
X970739D1*
X3086594D2*
X3244756D1*
X3402843D2*
X3433722D1*
X3661352D2*
X4200602D1*
X843833Y2289685D2*
X970739D1*
X1228942D2*
X2260165D1*
X2319391D2*
X3241239D1*
X3350846D2*
X3433722D1*
X3658194D2*
X4200602D1*
X843833Y2269816D2*
X970739D1*
X1209098D2*
X2245130D1*
X2334462D2*
X3245509D1*
X3346576D2*
X3433722D1*
X3647429D2*
X4200602D1*
X843833Y2249948D2*
X970739D1*
X1189219D2*
X2235369D1*
X2337476D2*
X3260402D1*
X3331684D2*
X3433722D1*
X3646639D2*
X4200602D1*
X843833Y2230079D2*
X970739D1*
X1169339D2*
X2200741D1*
X2331340D2*
X3434224D1*
X3657871D2*
X4200602D1*
X843833Y2210210D2*
X970739D1*
X1149495D2*
X2192524D1*
X2307728D2*
X3430743D1*
X3661352D2*
X4200602D1*
X843833Y2190341D2*
X970739D1*
X1129615D2*
X2193815D1*
X2285768D2*
X3433686D1*
X3658409D2*
X4200602D1*
X843833Y2170472D2*
X970739D1*
X1121325D2*
X2205693D1*
X2273890D2*
X3444129D1*
X3647967D2*
X4200602D1*
X843833Y2150604D2*
X970739D1*
X1121325D2*
X3470575D1*
X3521512D2*
X3570584D1*
X3621484D2*
X4200602D1*
X843833Y2130735D2*
X963311D1*
X1128790D2*
X4200602D1*
X843833Y2110866D2*
X960978D1*
X1131087D2*
X3802181D1*
X3877411D2*
X4200602D1*
X843833Y2090997D2*
X967940D1*
X1124125D2*
X3788580D1*
X3891010D2*
X4200602D1*
X843833Y2071129D2*
X995786D1*
X1021316D2*
X1033285D1*
X1058815D2*
X1070783D1*
X1096315D2*
X3784992D1*
X3894600D2*
X3978982D1*
X4078936D2*
X4200602D1*
X843833Y2051260D2*
X3789190D1*
X3890400D2*
X3950490D1*
X4107428D2*
X4200602D1*
X843833Y2031391D2*
X970488D1*
X1121577D2*
X3791990D1*
X3887602D2*
X3934235D1*
X4123719D2*
X4200602D1*
X843833Y2011522D2*
X961517D1*
X1130584D2*
X3578980D1*
X3650587D2*
X3775160D1*
X3887602D2*
X3924186D1*
X4133768D2*
X4200602D1*
X843833Y1991654D2*
X962198D1*
X1129866D2*
X3558743D1*
X3670825D2*
X3755280D1*
X3884013D2*
X3918589D1*
X4139329D2*
X4200602D1*
X843833Y1971785D2*
X970739D1*
X1121325D2*
X3550776D1*
X3678828D2*
X3735400D1*
X3868942D2*
X3916831D1*
X4141088D2*
X4200602D1*
X843833Y1951916D2*
X970739D1*
X1121325D2*
X3549950D1*
X3679617D2*
X3715556D1*
X3849098D2*
X3918660D1*
X4139257D2*
X4200602D1*
X843833Y1932047D2*
X970739D1*
X1121325D2*
X2052252D1*
X2221068D2*
X3010899D1*
X3330823D2*
X3555979D1*
X3673588D2*
X3695676D1*
X3829218D2*
X3924331D1*
X4133588D2*
X4200602D1*
X843833Y1912178D2*
X970739D1*
X1121325D2*
X2042887D1*
X2230434D2*
X2999739D1*
X3346253D2*
X3571983D1*
X3657584D2*
X3675797D1*
X3809339D2*
X3934486D1*
X4123433D2*
X4200602D1*
X843833Y1892310D2*
X970739D1*
X1121325D2*
X2043281D1*
X2230039D2*
X2997693D1*
X3350810D2*
X3559173D1*
X3789458D2*
X3950957D1*
X4106997D2*
X4200602D1*
X843833Y1872441D2*
X970739D1*
X1121325D2*
X2053795D1*
X2219525D2*
X3003507D1*
X3347617D2*
X3503768D1*
X3538304D2*
X3550920D1*
X3769614D2*
X3979879D1*
X4078075D2*
X4200602D1*
X843833Y1852572D2*
X970739D1*
X1121325D2*
X3021592D1*
X3334626D2*
X3476066D1*
X3749735D2*
X4200602D1*
X843833Y1832703D2*
X970739D1*
X1121325D2*
X3467345D1*
X3729854D2*
X4200602D1*
X843833Y1812835D2*
X970739D1*
X1121325D2*
X3467022D1*
X3658374D2*
X4200602D1*
X843833Y1792966D2*
X970739D1*
X1121325D2*
X1401026D1*
X1553551D2*
X3473230D1*
X3670000D2*
X4200602D1*
X843833Y1773097D2*
X970739D1*
X1121325D2*
X1392593D1*
X1561983D2*
X3473230D1*
X3678541D2*
X4200602D1*
X843833Y1753228D2*
X970739D1*
X1121325D2*
X1393706D1*
X1560871D2*
X3473230D1*
X3679761D2*
X4200602D1*
X843833Y1733360D2*
X970739D1*
X1121325D2*
X1405297D1*
X1549281D2*
X3473230D1*
X3674235D2*
X4200602D1*
X843833Y1713491D2*
X970739D1*
X1121325D2*
X3467273D1*
X3659163D2*
X4200602D1*
X843833Y1693622D2*
X970739D1*
X1144471D2*
X3467094D1*
X3669534D2*
X4200602D1*
X843833Y1673753D2*
X970739D1*
X1163957D2*
X3475168D1*
X3678361D2*
X4200602D1*
X843833Y1653885D2*
X975619D1*
X1178812D2*
X1200793D1*
X1278786D2*
X1300765D1*
X1378795D2*
X1400774D1*
X1478804D2*
X1500783D1*
X1578814D2*
X1600794D1*
X1678786D2*
X1700766D1*
X1778795D2*
X1800776D1*
X1878804D2*
X1900785D1*
X1978814D2*
X2000794D1*
X2078787D2*
X2100768D1*
X2178797D2*
X2200777D1*
X2278806D2*
X2300786D1*
X2378815D2*
X2400795D1*
X2478789D2*
X2500769D1*
X2578798D2*
X2600778D1*
X2678807D2*
X2700787D1*
X2778816D2*
X2800797D1*
X2878790D2*
X2900770D1*
X3102133D2*
X3407634D1*
X3484442D2*
X3500035D1*
X3679832D2*
X4200602D1*
X843833Y1634016D2*
X993777D1*
X3102133D2*
X3394537D1*
X3497541D2*
X3555046D1*
X3674521D2*
X4200602D1*
X843833Y1614147D2*
X1077602D1*
X3102133D2*
X3391270D1*
X3500806D2*
X3569686D1*
X3659916D2*
X4200602D1*
X843833Y1594278D2*
X1077315D1*
X3102133D2*
X3395756D1*
X3496320D2*
X3560500D1*
X3669102D2*
X4200602D1*
X843833Y1574409D2*
X1082949D1*
X3102133D2*
X3405230D1*
X3486848D2*
X3551386D1*
X3678218D2*
X4200602D1*
X843833Y1554541D2*
X1098164D1*
X1181432D2*
X1198136D1*
X1281441D2*
X1298146D1*
X1381415D2*
X1398155D1*
X1481424D2*
X1498164D1*
X1581433D2*
X1598138D1*
X1681442D2*
X1698147D1*
X1781415D2*
X1798156D1*
X1881424D2*
X1898165D1*
X1981434D2*
X1998139D1*
X2081444D2*
X2098148D1*
X2181416D2*
X2198157D1*
X2281425D2*
X2298167D1*
X2381434D2*
X2398140D1*
X2481408D2*
X2498150D1*
X2581417D2*
X2598159D1*
X2681427D2*
X2698168D1*
X2781436D2*
X2798140D1*
X2881409D2*
X2898150D1*
X3102133D2*
X3405230D1*
X3489000D2*
X3549699D1*
X3679904D2*
X4200602D1*
X843833Y1534672D2*
X3405696D1*
X3508881D2*
X3554759D1*
X3674844D2*
X4200602D1*
X843833Y1514803D2*
X3415098D1*
X3528760D2*
X3568970D1*
X3660634D2*
X4200602D1*
X843833Y1494934D2*
X3434870D1*
X3668636D2*
X4200602D1*
X843833Y1475066D2*
X3454749D1*
X3678038D2*
X4200602D1*
X843833Y1455197D2*
X3474630D1*
X3679940D2*
X4200602D1*
X843833Y1435328D2*
X3494474D1*
X3675131D2*
X4200602D1*
X843833Y1415459D2*
X3568252D1*
X3661316D2*
X4200602D1*
X843833Y1395591D2*
X3561433D1*
X3668134D2*
X4200602D1*
X843833Y1375722D2*
X1008453D1*
X1121146D2*
X3551709D1*
X3677858D2*
X4200602D1*
X843833Y1355853D2*
X999123D1*
X1130440D2*
X3549592D1*
X3679976D2*
X4200602D1*
X843833Y1335984D2*
X999554D1*
X1130009D2*
X3554185D1*
X3675419D2*
X4200602D1*
X843833Y1316115D2*
X1008238D1*
X1147486D2*
X1294593D1*
X1322457D2*
X3567605D1*
X3661997D2*
X4200602D1*
X843833Y1296247D2*
X1008238D1*
X1349333D2*
X3391845D1*
X3450245D2*
X3466843D1*
X3525243D2*
X3561936D1*
X3667668D2*
X4200602D1*
X843833Y1276378D2*
X1008238D1*
X1370433D2*
X3376487D1*
X3540566D2*
X3551925D1*
X3677680D2*
X4200602D1*
X843833Y1256509D2*
X1008238D1*
X1384752D2*
X1542122D1*
X1587461D2*
X3373328D1*
X3680012D2*
X4200602D1*
X843833Y1236640D2*
X1008238D1*
X1607484D2*
X3379285D1*
X3537803D2*
X3553898D1*
X3675669D2*
X4200602D1*
X843833Y1216772D2*
X1008238D1*
X1612580D2*
X3325172D1*
X3439803D2*
X3477285D1*
X3514801D2*
X3566924D1*
X3662644D2*
X4200602D1*
X843833Y1196903D2*
X999984D1*
X1129615D2*
X1142983D1*
X1608597D2*
X3317421D1*
X3449312D2*
X3461509D1*
X3518067D2*
X3562438D1*
X3667130D2*
X4200602D1*
X843833Y1177034D2*
X998836D1*
X1130727D2*
X1163150D1*
X1216419D2*
X1538139D1*
X1591408D2*
X3319072D1*
X3534071D2*
X3552104D1*
X3677465D2*
X4200602D1*
X843833Y1157165D2*
X1007197D1*
X1122366D2*
X3327073D1*
X3680047D2*
X4200602D1*
X843833Y1137297D2*
X3334609D1*
X3675921D2*
X4200602D1*
X843833Y1117428D2*
X3354130D1*
X3663290D2*
X4200602D1*
X843833Y1097559D2*
X3375446D1*
X3666627D2*
X4200602D1*
X843833Y1077690D2*
X3552319D1*
X3677285D2*
X4200602D1*
X843833Y1057822D2*
X1106560D1*
X1172999D2*
X1206570D1*
X1273008D2*
X1306579D1*
X1373017D2*
X1406588D1*
X1472991D2*
X1506562D1*
X1573000D2*
X1606571D1*
X1673009D2*
X1706580D1*
X1773018D2*
X1806589D1*
X1872992D2*
X1906563D1*
X1973001D2*
X2006572D1*
X2073010D2*
X2106581D1*
X2173020D2*
X2206591D1*
X2272992D2*
X2306563D1*
X2373003D2*
X2406572D1*
X2473012D2*
X2506581D1*
X2573021D2*
X2606591D1*
X2672993D2*
X2706564D1*
X2773003D2*
X2806573D1*
X2873012D2*
X2906583D1*
X2973021D2*
X3006592D1*
X3072995D2*
X3549520D1*
X3680084D2*
X4200602D1*
X843833Y1037953D2*
X1086286D1*
X3093306D2*
X3553395D1*
X3676172D2*
X4200602D1*
X843833Y1018084D2*
X1078283D1*
X3101307D2*
X3565668D1*
X3663900D2*
X4200602D1*
X843833Y998215D2*
X1077028D1*
X3102528D2*
X3563479D1*
X3666089D2*
X4200602D1*
X843833Y978346D2*
X1081226D1*
X3098365D2*
X3552534D1*
X3677070D2*
X4200602D1*
X843833Y958478D2*
X1094001D1*
X3085591D2*
X3549484D1*
X3680084D2*
X4200602D1*
X843833Y938609D2*
X1145459D1*
X1363220D2*
X2252558D1*
X2314510D2*
X3553144D1*
X3676424D2*
X4200602D1*
X843833Y918740D2*
X1165303D1*
X1383064D2*
X2238491D1*
X2328613D2*
X3551996D1*
X3677608D2*
X4200602D1*
X843833Y898871D2*
X1185182D1*
X1402945D2*
X2228049D1*
X2331125D2*
X3551996D1*
X3677608D2*
X4005285D1*
X4052633D2*
X4200602D1*
X843833Y879003D2*
X1205063D1*
X1422824D2*
X2193744D1*
X2324450D2*
X3551996D1*
X3677608D2*
X3960896D1*
X4097022D2*
X4200602D1*
X843833Y859134D2*
X1224907D1*
X1442668D2*
X2186136D1*
X2298219D2*
X3551996D1*
X3677608D2*
X3940514D1*
X4117404D2*
X4200602D1*
X843833Y839265D2*
X1244786D1*
X1462549D2*
X2187895D1*
X2279201D2*
X3551996D1*
X3677608D2*
X3928026D1*
X4129892D2*
X4200602D1*
X843833Y819396D2*
X1264667D1*
X1482428D2*
X2200597D1*
X2266497D2*
X3551996D1*
X3677608D2*
X3920598D1*
X4137356D2*
X4200602D1*
X843833Y799528D2*
X1284546D1*
X1516375D2*
X3551996D1*
X3677608D2*
X3917154D1*
X4140765D2*
X4200602D1*
X861308Y779659D2*
X1304390D1*
X1529150D2*
X3917404D1*
X4140513D2*
X4200602D1*
X881152Y759790D2*
X1323623D1*
X1418446D2*
X1436121D1*
X1530979D2*
X3921316D1*
X4136602D2*
X4200602D1*
X901033Y739921D2*
X1331160D1*
X1410948D2*
X1443656D1*
X1523444D2*
X3929354D1*
X4128600D2*
X4200602D1*
X920912Y720052D2*
X1364676D1*
X1377396D2*
X1477209D1*
X1489861D2*
X3942631D1*
X4115287D2*
X4200602D1*
X940756Y700184D2*
X3964521D1*
X4093433D2*
X4200602D1*
X1545154Y680315D2*
X4200602D1*
X1555308Y660446D2*
X4200602D1*
X1556709Y640577D2*
X4200602D1*
X1550142Y620709D2*
X3609984D1*
X3870987D2*
X4200602D1*
X1016651Y600840D2*
X1474482D1*
X1530118D2*
X3609984D1*
X3870987D2*
X4200602D1*
X1016651Y580971D2*
X3609984D1*
X3870987D2*
X4200602D1*
X1016651Y561102D2*
X3609984D1*
X3870987D2*
X4200602D1*
X1016651Y541234D2*
X3609984D1*
X3870987D2*
X4200602D1*
X1016651Y521365D2*
X3609984D1*
X3870987D2*
X4200602D1*
X1016651Y501496D2*
X3609984D1*
X3870987D2*
X4200602D1*
X1016651Y481627D2*
X3609984D1*
X3870987D2*
X4199634D1*
X1016651Y461759D2*
X3609984D1*
X3870987D2*
X4193210D1*
X1016651Y441890D2*
X3609984D1*
X3870987D2*
X4178139D1*
X4138755Y1963354D2*
X4137739Y1954766D1*
X4136051Y1946285D1*
X4133705Y1937962D1*
X4130711Y1929849D1*
X4127091Y1921996D1*
X4122866Y1914451D1*
X4118062Y1907261D1*
X4112707Y1900470D1*
X4106837Y1894121D1*
X4100488Y1888251D1*
X4093697Y1882896D1*
X4086507Y1878092D1*
X4078962Y1873867D1*
X4071109Y1870247D1*
X4062996Y1867253D1*
X4054673Y1864907D1*
X4046192Y1863219D1*
X4037604Y1862203D1*
X4028963Y1861864D1*
X4020323Y1862203D1*
X4011735Y1863219D1*
X4003253Y1864907D1*
X3994930Y1867253D1*
X3986818Y1870247D1*
X3978965Y1873867D1*
X3971420Y1878092D1*
X3964230Y1882896D1*
X3957438Y1888251D1*
X3951089Y1894121D1*
X3945219Y1900470D1*
X3939865Y1907261D1*
X3935060Y1914451D1*
X3930836Y1921996D1*
X3927215Y1929849D1*
X3924222Y1937962D1*
X3921875Y1946285D1*
X3920188Y1954766D1*
X3919172Y1963354D1*
X3918832Y1971995D1*
X3919172Y1980635D1*
X3920188Y1989223D1*
X3921875Y1997705D1*
X3924222Y2006028D1*
X3927215Y2014140D1*
X3930836Y2021993D1*
X3935060Y2029538D1*
X3939865Y2036728D1*
X3945219Y2043520D1*
X3951089Y2049869D1*
X3957438Y2055739D1*
X3964230Y2061093D1*
X3971420Y2065898D1*
X3978965Y2070122D1*
X3986818Y2073743D1*
X3994930Y2076736D1*
X4003253Y2079083D1*
X4011735Y2080770D1*
X4020323Y2081786D1*
X4028963Y2082126D1*
X4037604Y2081786D1*
X4046192Y2080770D1*
X4054673Y2079083D1*
X4062996Y2076736D1*
X4071109Y2073743D1*
X4078962Y2070122D1*
X4086507Y2065898D1*
X4093697Y2061093D1*
X4100488Y2055739D1*
X4106837Y2049869D1*
X4112707Y2043520D1*
X4118062Y2036728D1*
X4122866Y2029538D1*
X4127091Y2021993D1*
X4130711Y2014140D1*
X4133705Y2006028D1*
X4136051Y1997705D1*
X4137739Y1989223D1*
X4138755Y1980635D1*
X4139094Y1971995D1*
X4138755Y1963354D1*
Y782252D2*
X4137739Y773664D1*
X4136051Y765182D1*
X4133705Y756860D1*
X4130711Y748747D1*
X4127091Y740894D1*
X4122866Y733349D1*
X4118062Y726159D1*
X4112707Y719367D1*
X4106837Y713018D1*
X4100488Y707148D1*
X4093697Y701794D1*
X4086507Y696990D1*
X4078962Y692765D1*
X4071109Y689144D1*
X4062996Y686151D1*
X4054673Y683804D1*
X4046192Y682117D1*
X4037604Y681101D1*
X4028963Y680761D1*
X4020323Y681101D1*
X4011735Y682117D1*
X4003253Y683804D1*
X3994930Y686151D1*
X3986818Y689144D1*
X3978965Y692765D1*
X3971420Y696990D1*
X3964230Y701794D1*
X3957438Y707148D1*
X3951089Y713018D1*
X3945219Y719367D1*
X3939865Y726159D1*
X3935060Y733349D1*
X3930836Y740894D1*
X3927215Y748747D1*
X3924222Y756860D1*
X3921875Y765182D1*
X3920188Y773664D1*
X3919172Y782252D1*
X3918832Y790892D1*
X3919172Y799533D1*
X3920188Y808121D1*
X3921875Y816602D1*
X3924222Y824925D1*
X3927215Y833038D1*
X3930836Y840891D1*
X3935060Y848436D1*
X3939865Y855626D1*
X3945219Y862417D1*
X3951089Y868766D1*
X3957438Y874636D1*
X3964230Y879991D1*
X3971420Y884795D1*
X3978965Y889020D1*
X3986818Y892640D1*
X3994930Y895634D1*
X4003253Y897980D1*
X4011735Y899668D1*
X4020323Y900684D1*
X4028963Y901024D1*
X4037604Y900684D1*
X4046192Y899668D1*
X4054673Y897980D1*
X4062996Y895634D1*
X4071109Y892640D1*
X4078962Y889020D1*
X4086507Y884795D1*
X4093697Y879991D1*
X4100488Y874636D1*
X4106837Y868766D1*
X4112707Y862417D1*
X4118062Y855626D1*
X4122866Y848436D1*
X4127091Y840891D1*
X4130711Y833038D1*
X4133705Y824925D1*
X4136051Y816602D1*
X4137739Y808121D1*
X4138755Y799533D1*
X4139094Y790892D1*
X4138755Y782252D1*
Y4609024D2*
X4137739Y4600436D1*
X4136051Y4591954D1*
X4133705Y4583631D1*
X4130711Y4575518D1*
X4127091Y4567665D1*
X4122866Y4560121D1*
X4118062Y4552930D1*
X4112707Y4546139D1*
X4106837Y4539790D1*
X4100488Y4533920D1*
X4093697Y4528566D1*
X4086507Y4523761D1*
X4078962Y4519537D1*
X4071109Y4515916D1*
X4062996Y4512923D1*
X4054673Y4510576D1*
X4046192Y4508888D1*
X4037604Y4507873D1*
X4028963Y4507533D1*
X4020323Y4507873D1*
X4011735Y4508888D1*
X4003253Y4510576D1*
X3994930Y4512923D1*
X3986818Y4515916D1*
X3978965Y4519537D1*
X3971420Y4523761D1*
X3964230Y4528566D1*
X3957438Y4533920D1*
X3951089Y4539790D1*
X3945219Y4546139D1*
X3939865Y4552930D1*
X3935060Y4560121D1*
X3930836Y4567665D1*
X3927215Y4575518D1*
X3924222Y4583631D1*
X3921875Y4591954D1*
X3920188Y4600436D1*
X3919172Y4609024D1*
X3918832Y4617664D1*
X3919172Y4626304D1*
X3920188Y4634892D1*
X3921875Y4643374D1*
X3924222Y4651697D1*
X3927215Y4659810D1*
X3930836Y4667663D1*
X3935060Y4675207D1*
X3939865Y4682398D1*
X3945219Y4689189D1*
X3951089Y4695538D1*
X3957438Y4701408D1*
X3964230Y4706762D1*
X3971420Y4711567D1*
X3978965Y4715791D1*
X3986818Y4719412D1*
X3994930Y4722406D1*
X4003253Y4724752D1*
X4011735Y4726440D1*
X4020323Y4727455D1*
X4028963Y4727795D1*
X4037604Y4727455D1*
X4046192Y4726440D1*
X4054673Y4724752D1*
X4062996Y4722406D1*
X4071109Y4719412D1*
X4078962Y4715791D1*
X4086507Y4711567D1*
X4093697Y4706762D1*
X4100488Y4701408D1*
X4106837Y4695538D1*
X4112707Y4689189D1*
X4118062Y4682398D1*
X4122866Y4675207D1*
X4127091Y4667663D1*
X4130711Y4659810D1*
X4133705Y4651697D1*
X4136051Y4643374D1*
X4137739Y4634892D1*
X4138755Y4626304D1*
X4139094Y4617664D1*
X4138755Y4609024D1*
X3775676Y3451446D2*
X3780808D1*
X3775450Y3458878D1*
X3771118Y3467378D1*
X3768169Y3476453D1*
X3766677Y3485875D1*
Y3495416D1*
X3768169Y3504839D1*
X3771118Y3513913D1*
X3775450Y3522413D1*
X3781058Y3530133D1*
X3787803Y3536878D1*
X3795522Y3542486D1*
X3804022Y3546818D1*
X3813097Y3549766D1*
X3822520Y3551259D1*
X3832060D1*
X3841483Y3549766D1*
X3850558Y3546818D1*
X3859058Y3542486D1*
X3866777Y3536878D1*
X3873522Y3530133D1*
X3877276Y3525189D1*
X3881058Y3530133D1*
X3887803Y3536878D1*
X3895522Y3542486D1*
X3904022Y3546818D1*
X3913097Y3549766D1*
X3922520Y3551259D1*
X3932060D1*
X3941483Y3549766D1*
X3950558Y3546818D1*
X3959058Y3542486D1*
X3966777Y3536878D1*
X3973522Y3530133D1*
X3977298Y3525249D1*
X3981836Y3531025D1*
X3987037Y3536211D1*
X3992824Y3540734D1*
X3999115Y3544524D1*
X4005818Y3547528D1*
X4012832Y3549702D1*
X4020059Y3551014D1*
X4027391Y3551446D1*
X4034722Y3550990D1*
X4041944Y3549654D1*
X4048951Y3547455D1*
X4055643Y3544429D1*
X4061923Y3540618D1*
X4067696Y3536077D1*
X4072878Y3530874D1*
X4077396Y3525084D1*
X4081184Y3518791D1*
X4084184Y3512087D1*
X4086354Y3505071D1*
X4087663Y3497844D1*
X4088091Y3490646D1*
X4087647Y3483315D1*
X4086322Y3476091D1*
X4084136Y3469079D1*
X4081121Y3462382D1*
X4077320Y3456097D1*
X4072789Y3450316D1*
X4067594Y3445125D1*
X4061875Y3440642D1*
X4066777Y3436878D1*
X4073522Y3430133D1*
X4079130Y3422413D1*
X4083462Y3413913D1*
X4086411Y3404839D1*
X4087903Y3395416D1*
Y3385875D1*
X4086411Y3376453D1*
X4083462Y3367378D1*
X4079130Y3358878D1*
X4073522Y3351159D1*
X4066777Y3344413D1*
X4059058Y3338806D1*
X4050558Y3334474D1*
X4041483Y3331525D1*
X4032060Y3330033D1*
X4022520D1*
X4013097Y3331525D1*
X4004022Y3334474D1*
X3995522Y3338806D1*
X3987803Y3344413D1*
X3981058Y3351159D1*
X3977304Y3356102D1*
X3973522Y3351159D1*
X3966777Y3344413D1*
X3959058Y3338806D1*
X3950558Y3334474D1*
X3941483Y3331525D1*
X3932060Y3330033D1*
X3922520D1*
X3913097Y3331525D1*
X3904022Y3334474D1*
X3895522Y3338806D1*
X3888081Y3344194D1*
X3888091Y3329845D1*
X3863079D1*
X3863091Y3236739D1*
X3926164Y3173652D1*
X3931731Y3172681D1*
X3938566Y3170461D1*
X3944970Y3167198D1*
X3950783Y3162974D1*
X3955866Y3157891D1*
X3960091Y3152077D1*
X3963353Y3145673D1*
X3965573Y3138839D1*
X3966698Y3131740D1*
Y3124554D1*
X3965573Y3117455D1*
X3963353Y3110621D1*
X3960091Y3104217D1*
X3955866Y3098403D1*
X3950783Y3093320D1*
X3944970Y3089096D1*
X3938566Y3085833D1*
X3931731Y3083613D1*
X3924633Y3082488D1*
X3917446D1*
X3910348Y3083613D1*
X3903513Y3085833D1*
X3897109Y3089096D1*
X3891295Y3093320D1*
X3886213Y3098403D1*
X3881988Y3104217D1*
X3878726Y3110621D1*
X3876505Y3117455D1*
X3875564Y3123005D1*
X3800067Y3198646D1*
X3796765Y3203190D1*
X3794215Y3208197D1*
X3792479Y3213539D1*
X3791600Y3219088D1*
X3791490Y3267828D1*
Y3329871D1*
X3766490Y3329845D1*
Y3451446D1*
X3775676D1*
X3563176Y920197D2*
X3565797D1*
X3560450Y927629D1*
X3556118Y936129D1*
X3553169Y945203D1*
X3551677Y954626D1*
Y964167D1*
X3553169Y973589D1*
X3556118Y982664D1*
X3560450Y991164D1*
X3566058Y998883D1*
X3572803Y1005629D1*
X3577747Y1009382D1*
X3572803Y1013164D1*
X3566058Y1019909D1*
X3560450Y1027629D1*
X3556118Y1036129D1*
X3553169Y1045203D1*
X3551677Y1054626D1*
Y1064167D1*
X3553169Y1073589D1*
X3556118Y1082664D1*
X3560450Y1091164D1*
X3566058Y1098883D1*
X3572803Y1105629D1*
X3577747Y1109382D1*
X3572803Y1113164D1*
X3566096Y1119869D1*
X3564598Y1113993D1*
X3561849Y1107354D1*
X3558093Y1101227D1*
X3553427Y1095761D1*
X3547961Y1091094D1*
X3541833Y1087339D1*
X3535194Y1084589D1*
X3528206Y1082911D1*
X3521041Y1082346D1*
X3513875Y1082911D1*
X3506887Y1084589D1*
X3500248Y1087339D1*
X3494121Y1091094D1*
X3492521Y1092356D1*
X3393231Y1092457D1*
X3387682Y1093336D1*
X3382340Y1095072D1*
X3377333Y1097622D1*
X3372789Y1100924D1*
X3339475Y1134081D1*
X3335827Y1138353D1*
X3332892Y1143143D1*
X3330741Y1148333D1*
X3329430Y1153797D1*
X3328990Y1159396D1*
Y1162088D1*
X3325739Y1166715D1*
X3322476Y1173119D1*
X3320256Y1179954D1*
X3319131Y1187052D1*
Y1194239D1*
X3320256Y1201337D1*
X3322476Y1208172D1*
X3325739Y1214576D1*
X3329963Y1220390D1*
X3335046Y1225472D1*
X3340860Y1229697D1*
X3347264Y1232959D1*
X3354098Y1235180D1*
X3361197Y1236304D1*
X3368383D1*
X3375482Y1235180D1*
X3382316Y1232959D1*
X3384294Y1232047D1*
X3380231Y1238604D1*
X3377482Y1245243D1*
X3375803Y1252231D1*
X3375239Y1259396D1*
X3375803Y1266562D1*
X3377482Y1273550D1*
X3380231Y1280189D1*
X3383987Y1286316D1*
X3388654Y1291782D1*
X3394119Y1296449D1*
X3400247Y1300205D1*
X3406886Y1302954D1*
X3413874Y1304633D1*
X3421039Y1305197D1*
X3428205Y1304633D1*
X3435193Y1302954D1*
X3441832Y1300205D1*
X3447959Y1296449D1*
X3449559Y1295188D1*
X3467509Y1295197D1*
X3472109Y1298448D1*
X3478513Y1301710D1*
X3485348Y1303930D1*
X3492446Y1305055D1*
X3499633D1*
X3506731Y1303930D1*
X3513566Y1301710D1*
X3519970Y1298448D1*
X3525783Y1294223D1*
X3530866Y1289140D1*
X3535091Y1283327D1*
X3538353Y1276923D1*
X3540573Y1270088D1*
X3541698Y1262990D1*
Y1255803D1*
X3540573Y1248705D1*
X3538353Y1241870D1*
X3535091Y1235466D1*
X3530866Y1229652D1*
X3525783Y1224570D1*
X3519970Y1220345D1*
X3513566Y1217083D1*
X3506731Y1214862D1*
X3499633Y1213738D1*
X3492446D1*
X3485348Y1214862D1*
X3478513Y1217083D1*
X3472109Y1220345D1*
X3467520Y1223605D1*
X3449570Y1223596D1*
X3444970Y1220345D1*
X3438566Y1217083D1*
X3431731Y1214862D1*
X3424633Y1213738D1*
X3417446D1*
X3410348Y1214862D1*
X3403513Y1217083D1*
X3401535Y1217995D1*
X3405598Y1211438D1*
X3408348Y1204799D1*
X3408711Y1203514D1*
X3413874Y1204633D1*
X3421039Y1205197D1*
X3428205Y1204633D1*
X3435193Y1202954D1*
X3441832Y1200205D1*
X3447959Y1196449D1*
X3449559Y1195188D1*
X3461194Y1195197D1*
X3465860Y1198448D1*
X3472264Y1201710D1*
X3479098Y1203930D1*
X3486197Y1205055D1*
X3493383D1*
X3500482Y1203930D1*
X3507316Y1201710D1*
X3513720Y1198448D1*
X3519534Y1194223D1*
X3524617Y1189140D1*
X3528841Y1183327D1*
X3532104Y1176923D1*
X3533741Y1172156D1*
X3538567Y1170461D1*
X3544971Y1167198D1*
X3550785Y1162974D1*
X3551559Y1162259D1*
X3552239Y1168908D1*
X3554466Y1178185D1*
X3558117Y1186999D1*
X3563102Y1195134D1*
X3569298Y1202388D1*
X3576552Y1208584D1*
X3577747Y1209382D1*
X3572803Y1213164D1*
X3566058Y1219909D1*
X3560450Y1227629D1*
X3556118Y1236129D1*
X3553169Y1245203D1*
X3551677Y1254626D1*
Y1264167D1*
X3553169Y1273589D1*
X3556118Y1282664D1*
X3560450Y1291164D1*
X3566058Y1298883D1*
X3572803Y1305629D1*
X3577747Y1309382D1*
X3572803Y1313164D1*
X3566058Y1319909D1*
X3560450Y1327629D1*
X3556118Y1336129D1*
X3553169Y1345203D1*
X3551677Y1354626D1*
Y1364167D1*
X3553169Y1373589D1*
X3556118Y1382664D1*
X3560450Y1391164D1*
X3566058Y1398883D1*
X3572803Y1405629D1*
X3577747Y1409382D1*
X3572803Y1413164D1*
X3566058Y1419909D1*
X3565514Y1420598D1*
X3524244Y1420717D1*
X3518231Y1421668D1*
X3512441Y1423550D1*
X3507016Y1426314D1*
X3502091Y1429892D1*
X3467374Y1464440D1*
X3416535Y1515448D1*
X3412957Y1520373D1*
X3410193Y1525798D1*
X3408311Y1531588D1*
X3407360Y1537601D1*
X3407239Y1579867D1*
X3403323Y1584610D1*
X3398995Y1591675D1*
X3395824Y1599329D1*
X3393890Y1607386D1*
X3393239Y1615646D1*
X3393890Y1623906D1*
X3395824Y1631962D1*
X3398995Y1639617D1*
X3403323Y1646681D1*
X3408705Y1652980D1*
X3415004Y1658362D1*
X3422068Y1662690D1*
X3429723Y1665861D1*
X3437780Y1667795D1*
X3446039Y1668446D1*
X3454299Y1667795D1*
X3462356Y1665861D1*
X3470010Y1662690D1*
X3477075Y1658362D1*
X3483374Y1652980D1*
X3488756Y1646681D1*
X3493084Y1639617D1*
X3496255Y1631962D1*
X3498189Y1623906D1*
X3498840Y1615646D1*
X3498189Y1607386D1*
X3496255Y1599329D1*
X3493084Y1591675D1*
X3488756Y1584610D1*
X3484837Y1579892D1*
X3484840Y1556688D1*
X3543381Y1498176D1*
X3565505Y1498197D1*
X3569298Y1502388D1*
X3576552Y1508584D1*
X3577747Y1509382D1*
X3572803Y1513164D1*
X3566058Y1519909D1*
X3560450Y1527629D1*
X3556118Y1536129D1*
X3553169Y1545203D1*
X3551677Y1554626D1*
Y1564167D1*
X3553169Y1573589D1*
X3556118Y1582664D1*
X3560450Y1591164D1*
X3566058Y1598883D1*
X3572803Y1605629D1*
X3577747Y1609382D1*
X3571936Y1613920D1*
X3566747Y1619117D1*
X3562222Y1624903D1*
X3558428Y1631192D1*
X3555420Y1637892D1*
X3553241Y1644907D1*
X3551925Y1652133D1*
X3551499Y1660016D1*
X3545010Y1656101D1*
X3537356Y1652930D1*
X3529299Y1650996D1*
X3521039Y1650345D1*
X3512780Y1650996D1*
X3504723Y1652930D1*
X3497068Y1656101D1*
X3490004Y1660429D1*
X3483705Y1665811D1*
X3478323Y1672110D1*
X3473995Y1679175D1*
X3470824Y1686829D1*
X3468890Y1694886D1*
X3468239Y1703146D1*
X3468890Y1711406D1*
X3470824Y1719462D1*
X3473995Y1727117D1*
X3475236Y1729335D1*
X3475239Y1795619D1*
X3472259Y1801690D1*
X3469698Y1809571D1*
X3468402Y1817753D1*
Y1826039D1*
X3469698Y1834222D1*
X3472259Y1842102D1*
X3476020Y1849484D1*
X3480890Y1856188D1*
X3486748Y1862046D1*
X3493451Y1866916D1*
X3500833Y1870677D1*
X3508714Y1873238D1*
X3516896Y1874534D1*
X3525182D1*
X3533365Y1873238D1*
X3541245Y1870677D1*
X3548627Y1866916D1*
X3551738Y1864837D1*
X3553169Y1873589D1*
X3556118Y1882664D1*
X3560450Y1891164D1*
X3566058Y1898883D1*
X3572803Y1905629D1*
X3577747Y1909382D1*
X3571936Y1913920D1*
X3566747Y1919117D1*
X3562222Y1924903D1*
X3558428Y1931192D1*
X3555420Y1937892D1*
X3553241Y1944907D1*
X3551925Y1952133D1*
X3551490Y1959463D1*
X3551942Y1966794D1*
X3553274Y1974017D1*
X3555467Y1981026D1*
X3558491Y1987720D1*
X3562298Y1994000D1*
X3566836Y1999776D1*
X3572037Y2004962D1*
X3577824Y2009484D1*
X3584115Y2013274D1*
X3590818Y2016278D1*
X3597832Y2018453D1*
X3605059Y2019765D1*
X3612398Y2020196D1*
X3622895Y2019937D1*
X3630154Y2018820D1*
X3637226Y2016835D1*
X3644005Y2014012D1*
X3650396Y2010392D1*
X3656304Y2006029D1*
X3661642Y2000984D1*
X3666333Y1995332D1*
X3670308Y1989157D1*
X3673510Y1982547D1*
X3675891Y1975598D1*
X3677417Y1968415D1*
X3678066Y1961098D1*
X3677840Y1953892D1*
X3676735Y1946631D1*
X3674762Y1939556D1*
X3671950Y1932772D1*
X3668341Y1926375D1*
X3663987Y1920459D1*
X3658951Y1915113D1*
X3653307Y1910413D1*
X3651875Y1909392D1*
X3657256Y1905186D1*
X3670806Y1905197D1*
X3793992Y2028370D1*
X3793990Y2045604D1*
X3791009Y2051690D1*
X3788449Y2059571D1*
X3787152Y2067753D1*
Y2076039D1*
X3788449Y2084222D1*
X3791009Y2092102D1*
X3794770Y2099484D1*
X3799640Y2106188D1*
X3805499Y2112046D1*
X3812202Y2116916D1*
X3819584Y2120677D1*
X3827465Y2123238D1*
X3835647Y2124534D1*
X3843933D1*
X3852115Y2123238D1*
X3859996Y2120677D1*
X3867378Y2116916D1*
X3874081Y2112046D1*
X3879940Y2106188D1*
X3884810Y2099484D1*
X3888571Y2092102D1*
X3891131Y2084222D1*
X3892428Y2076039D1*
Y2067753D1*
X3891131Y2059571D1*
X3888571Y2051690D1*
X3885593Y2045707D1*
X3885449Y2005803D1*
X3884324Y1998705D1*
X3882104Y1991869D1*
X3878841Y1985466D1*
X3874617Y1979651D1*
X3852689Y1957524D1*
X3719535Y1824570D1*
X3713720Y1820345D1*
X3707318Y1817083D1*
X3700482Y1814862D1*
X3693383Y1813738D1*
X3657243Y1813596D1*
X3651833Y1809411D1*
X3656777Y1805629D1*
X3663522Y1798883D1*
X3669130Y1791164D1*
X3673462Y1782664D1*
X3676411Y1773589D1*
X3677903Y1764167D1*
Y1754626D1*
X3676411Y1745203D1*
X3673462Y1736129D1*
X3669130Y1727629D1*
X3663522Y1719909D1*
X3656777Y1713164D1*
X3651923Y1709369D1*
X3657696Y1704828D1*
X3662878Y1699625D1*
X3667396Y1693835D1*
X3671184Y1687542D1*
X3674184Y1680837D1*
X3676354Y1673822D1*
X3677663Y1666594D1*
X3678091Y1659396D1*
X3677647Y1652066D1*
X3676322Y1644841D1*
X3674136Y1637829D1*
X3671121Y1631133D1*
X3667320Y1624848D1*
X3662789Y1619067D1*
X3657594Y1613875D1*
X3651875Y1609392D1*
X3656777Y1605629D1*
X3663522Y1598883D1*
X3669130Y1591164D1*
X3673462Y1582664D1*
X3676411Y1573589D1*
X3677903Y1564167D1*
Y1554626D1*
X3676411Y1545203D1*
X3673462Y1536129D1*
X3669130Y1527629D1*
X3663522Y1519909D1*
X3656777Y1513164D1*
X3651833Y1509411D1*
X3656777Y1505629D1*
X3663522Y1498883D1*
X3669130Y1491164D1*
X3673462Y1482664D1*
X3676411Y1473589D1*
X3677903Y1464167D1*
Y1454626D1*
X3676411Y1445203D1*
X3673462Y1436129D1*
X3669130Y1427629D1*
X3663522Y1419909D1*
X3656777Y1413164D1*
X3651833Y1409411D1*
X3656777Y1405629D1*
X3663522Y1398883D1*
X3669130Y1391164D1*
X3673462Y1382664D1*
X3676411Y1373589D1*
X3677903Y1364167D1*
Y1354626D1*
X3676411Y1345203D1*
X3673462Y1336129D1*
X3669130Y1327629D1*
X3663522Y1319909D1*
X3656777Y1313164D1*
X3651833Y1309411D1*
X3656777Y1305629D1*
X3663522Y1298883D1*
X3669130Y1291164D1*
X3673462Y1282664D1*
X3676411Y1273589D1*
X3677903Y1264167D1*
Y1254626D1*
X3676411Y1245203D1*
X3673462Y1236129D1*
X3669130Y1227629D1*
X3663522Y1219909D1*
X3656777Y1213164D1*
X3651833Y1209411D1*
X3656777Y1205629D1*
X3663522Y1198883D1*
X3669130Y1191164D1*
X3673462Y1182664D1*
X3676411Y1173589D1*
X3677903Y1164167D1*
Y1154626D1*
X3676411Y1145203D1*
X3673462Y1136129D1*
X3669130Y1127629D1*
X3663522Y1119909D1*
X3656777Y1113164D1*
X3651833Y1109411D1*
X3656777Y1105629D1*
X3663522Y1098883D1*
X3669130Y1091164D1*
X3673462Y1082664D1*
X3676411Y1073589D1*
X3677903Y1064167D1*
Y1054626D1*
X3676411Y1045203D1*
X3673462Y1036129D1*
X3669130Y1027629D1*
X3663522Y1019909D1*
X3656777Y1013164D1*
X3651833Y1009411D1*
X3656777Y1005629D1*
X3663522Y998883D1*
X3669130Y991164D1*
X3673462Y982664D1*
X3676411Y973589D1*
X3677903Y964167D1*
Y954626D1*
X3676411Y945203D1*
X3673462Y936129D1*
X3669130Y927629D1*
X3663741Y920188D1*
X3675591Y920197D1*
Y798596D1*
X3553990D1*
Y920197D1*
X3563176D1*
X3371012Y2901869D2*
X3365799Y2895886D1*
X3358247Y2889434D1*
X3349777Y2884245D1*
X3340600Y2880444D1*
X3330942Y2878125D1*
X3321039Y2877345D1*
X3311136Y2878125D1*
X3301479Y2880444D1*
X3292302Y2884245D1*
X3283832Y2889434D1*
X3276280Y2895886D1*
X3269828Y2903438D1*
X3264639Y2911908D1*
X3260837Y2921085D1*
X3258518Y2930743D1*
X3257739Y2940646D1*
X3258518Y2950549D1*
X3260837Y2960206D1*
X3264639Y2969383D1*
X3269828Y2977853D1*
X3271764Y2980307D1*
X3260713Y2980318D1*
Y3100972D1*
X3381367D1*
Y3089957D1*
X3387965Y3094618D1*
X3396815Y3099127D1*
X3406262Y3102197D1*
X3416073Y3103751D1*
X3426005D1*
X3435816Y3102197D1*
X3445264Y3099127D1*
X3454114Y3094618D1*
X3462150Y3088780D1*
X3469173Y3081756D1*
X3475012Y3073720D1*
X3479521Y3064870D1*
X3482591Y3055423D1*
X3484144Y3045612D1*
Y3035680D1*
X3482591Y3025869D1*
X3479521Y3016421D1*
X3475012Y3007571D1*
X3469173Y2999535D1*
X3466840Y2997012D1*
Y2984344D1*
X3472251Y2977853D1*
X3477184Y2969841D1*
X3480245Y2977117D1*
X3484573Y2984181D1*
X3489955Y2990480D1*
X3496255Y2995862D1*
X3503319Y3000190D1*
X3510974Y3003361D1*
X3519030Y3005295D1*
X3527290Y3005946D1*
X3535550Y3005295D1*
X3543606Y3003361D1*
X3551261Y3000190D1*
X3558325Y2995862D1*
X3564625Y2990480D1*
X3570007Y2984181D1*
X3574335Y2977117D1*
X3577505Y2969462D1*
X3579440Y2961406D1*
X3580091Y2953146D1*
X3579440Y2944886D1*
X3578091Y2938903D1*
X3577933Y2799161D1*
X3576686Y2791287D1*
X3574223Y2783706D1*
X3570604Y2776604D1*
X3565919Y2770155D1*
X3543724Y2747739D1*
X3453114Y2657129D1*
X3453091Y2555029D1*
X3454440Y2548906D1*
X3455091Y2540646D1*
X3454440Y2532386D1*
X3452505Y2524329D1*
X3449335Y2516675D1*
X3445007Y2509610D1*
X3439625Y2503311D1*
X3433325Y2497929D1*
X3426261Y2493601D1*
X3418606Y2490430D1*
X3410550Y2488496D1*
X3402290Y2487845D1*
X3394030Y2488496D1*
X3385974Y2490430D1*
X3378319Y2493601D1*
X3371255Y2497929D1*
X3364955Y2503311D1*
X3359573Y2509610D1*
X3355245Y2516675D1*
X3352075Y2524329D1*
X3350140Y2532386D1*
X3349490Y2540646D1*
X3350140Y2548906D1*
X3351490Y2554888D1*
Y2663764D1*
X3350140Y2669887D1*
X3349490Y2678147D1*
X3350140Y2686407D1*
X3352075Y2694463D1*
X3355245Y2702118D1*
X3359573Y2709182D1*
X3364955Y2715482D1*
X3371255Y2720864D1*
X3376440Y2724139D1*
X3476466Y2824165D1*
X3476490Y2910118D1*
X3472251Y2903438D1*
X3465799Y2895886D1*
X3458247Y2889434D1*
X3449777Y2884245D1*
X3440600Y2880444D1*
X3430942Y2878125D1*
X3421039Y2877345D1*
X3411136Y2878125D1*
X3401479Y2880444D1*
X3392302Y2884245D1*
X3383832Y2889434D1*
X3376280Y2895886D1*
X3371067Y2901869D1*
X3546012Y2170619D2*
X3540799Y2164636D1*
X3533247Y2158185D1*
X3524777Y2152996D1*
X3515600Y2149194D1*
X3505942Y2146875D1*
X3496039Y2146096D1*
X3486136Y2146875D1*
X3476479Y2149194D1*
X3467302Y2152996D1*
X3458832Y2158185D1*
X3451280Y2164636D1*
X3444828Y2172189D1*
X3439639Y2180659D1*
X3435837Y2189836D1*
X3433518Y2199493D1*
X3432739Y2209396D1*
X3433518Y2219299D1*
X3435837Y2228957D1*
X3439639Y2238134D1*
X3444828Y2246604D1*
X3446764Y2249058D1*
X3435713Y2249068D1*
Y2362929D1*
X3423780Y2351016D1*
X3423189Y2344887D1*
X3421255Y2336831D1*
X3418084Y2329176D1*
X3413756Y2322112D1*
X3408374Y2315812D1*
X3402075Y2310430D1*
X3395010Y2306102D1*
X3387356Y2302932D1*
X3379299Y2300997D1*
X3371039Y2300346D1*
X3362780Y2300997D1*
X3354723Y2302932D1*
X3347068Y2306102D1*
X3346404Y2306474D1*
X3348190Y2298906D1*
X3348841Y2290646D1*
X3348190Y2282386D1*
X3346256Y2274329D1*
X3343085Y2266675D1*
X3338757Y2259610D1*
X3333375Y2253311D1*
X3327076Y2247929D1*
X3320012Y2243601D1*
X3312357Y2240430D1*
X3304301Y2238496D1*
X3296041Y2237845D1*
X3287781Y2238496D1*
X3279724Y2240430D1*
X3272070Y2243601D1*
X3265005Y2247929D1*
X3258706Y2253311D1*
X3253324Y2259610D1*
X3248996Y2266675D1*
X3245825Y2274329D1*
X3243891Y2282386D1*
X3243240Y2290646D1*
X3243891Y2298906D1*
X3245825Y2306962D1*
X3248996Y2314617D1*
X3250238Y2316835D1*
X3250240Y2677944D1*
X3035366Y2892799D1*
X2979463Y2892818D1*
X2979277Y2904413D1*
X2971558Y2898806D1*
X2963058Y2894474D1*
X2953983Y2891525D1*
X2944560Y2890033D1*
X2935020D1*
X2925597Y2891525D1*
X2916522Y2894474D1*
X2908022Y2898806D1*
X2900303Y2904413D1*
X2893558Y2911159D1*
X2889804Y2916102D1*
X2886022Y2911159D1*
X2879277Y2904413D1*
X2871558Y2898806D1*
X2863058Y2894474D1*
X2853983Y2891525D1*
X2844560Y2890033D1*
X2835020D1*
X2825597Y2891525D1*
X2816522Y2894474D1*
X2808022Y2898806D1*
X2800303Y2904413D1*
X2793558Y2911159D1*
X2789804Y2916102D1*
X2786022Y2911159D1*
X2779277Y2904413D1*
X2771558Y2898806D1*
X2763058Y2894474D1*
X2753983Y2891525D1*
X2744560Y2890033D1*
X2735020D1*
X2725597Y2891525D1*
X2716522Y2894474D1*
X2708022Y2898806D1*
X2700303Y2904413D1*
X2693558Y2911159D1*
X2689804Y2916102D1*
X2686022Y2911159D1*
X2679277Y2904413D1*
X2671558Y2898806D1*
X2663058Y2894474D1*
X2653983Y2891525D1*
X2644560Y2890033D1*
X2635020D1*
X2625597Y2891525D1*
X2616522Y2894474D1*
X2608022Y2898806D1*
X2600303Y2904413D1*
X2593558Y2911159D1*
X2589804Y2916102D1*
X2586022Y2911159D1*
X2579277Y2904413D1*
X2571558Y2898806D1*
X2563058Y2894474D1*
X2553983Y2891525D1*
X2544560Y2890033D1*
X2535020D1*
X2525597Y2891525D1*
X2516522Y2894474D1*
X2508022Y2898806D1*
X2500303Y2904413D1*
X2493558Y2911159D1*
X2489804Y2916102D1*
X2486022Y2911159D1*
X2479277Y2904413D1*
X2471558Y2898806D1*
X2463058Y2894474D1*
X2453983Y2891525D1*
X2444560Y2890033D1*
X2435020D1*
X2425597Y2891525D1*
X2416522Y2894474D1*
X2408022Y2898806D1*
X2400303Y2904413D1*
X2393558Y2911159D1*
X2389804Y2916102D1*
X2386022Y2911159D1*
X2379277Y2904413D1*
X2371558Y2898806D1*
X2363058Y2894474D1*
X2353983Y2891525D1*
X2344560Y2890033D1*
X2335020D1*
X2325597Y2891525D1*
X2316522Y2894474D1*
X2308022Y2898806D1*
X2300303Y2904413D1*
X2293558Y2911159D1*
X2289804Y2916102D1*
X2286022Y2911159D1*
X2279277Y2904413D1*
X2271558Y2898806D1*
X2263058Y2894474D1*
X2253983Y2891525D1*
X2244560Y2890033D1*
X2235020D1*
X2225597Y2891525D1*
X2216522Y2894474D1*
X2208022Y2898806D1*
X2200303Y2904413D1*
X2193558Y2911159D1*
X2189804Y2916102D1*
X2186022Y2911159D1*
X2179277Y2904413D1*
X2171558Y2898806D1*
X2163058Y2894474D1*
X2153983Y2891525D1*
X2144560Y2890033D1*
X2135020D1*
X2125597Y2891525D1*
X2116522Y2894474D1*
X2108022Y2898806D1*
X2100303Y2904413D1*
X2093558Y2911159D1*
X2089804Y2916102D1*
X2086022Y2911159D1*
X2079277Y2904413D1*
X2071558Y2898806D1*
X2063058Y2894474D1*
X2053983Y2891525D1*
X2044560Y2890033D1*
X2035020D1*
X2025597Y2891525D1*
X2016522Y2894474D1*
X2008022Y2898806D1*
X2000303Y2904413D1*
X1993558Y2911159D1*
X1989804Y2916102D1*
X1986022Y2911159D1*
X1979277Y2904413D1*
X1971558Y2898806D1*
X1963058Y2894474D1*
X1953983Y2891525D1*
X1944560Y2890033D1*
X1935020D1*
X1925597Y2891525D1*
X1916522Y2894474D1*
X1908022Y2898806D1*
X1900303Y2904413D1*
X1893558Y2911159D1*
X1889804Y2916102D1*
X1886022Y2911159D1*
X1879277Y2904413D1*
X1871558Y2898806D1*
X1863058Y2894474D1*
X1853983Y2891525D1*
X1844560Y2890033D1*
X1835020D1*
X1825597Y2891525D1*
X1816522Y2894474D1*
X1808022Y2898806D1*
X1800303Y2904413D1*
X1793558Y2911159D1*
X1789804Y2916102D1*
X1786022Y2911159D1*
X1779277Y2904413D1*
X1771558Y2898806D1*
X1763058Y2894474D1*
X1753983Y2891525D1*
X1744560Y2890033D1*
X1735020D1*
X1725597Y2891525D1*
X1716522Y2894474D1*
X1708022Y2898806D1*
X1700303Y2904413D1*
X1693558Y2911159D1*
X1689804Y2916102D1*
X1686022Y2911159D1*
X1679277Y2904413D1*
X1671558Y2898806D1*
X1663058Y2894474D1*
X1653983Y2891525D1*
X1644560Y2890033D1*
X1635020D1*
X1625597Y2891525D1*
X1616522Y2894474D1*
X1608022Y2898806D1*
X1600303Y2904413D1*
X1593558Y2911159D1*
X1589804Y2916102D1*
X1586022Y2911159D1*
X1579277Y2904413D1*
X1571558Y2898806D1*
X1563058Y2894474D1*
X1553983Y2891525D1*
X1544560Y2890033D1*
X1535020D1*
X1525597Y2891525D1*
X1516522Y2894474D1*
X1508022Y2898806D1*
X1500303Y2904413D1*
X1493558Y2911159D1*
X1489804Y2916102D1*
X1486022Y2911159D1*
X1479277Y2904413D1*
X1471558Y2898806D1*
X1463058Y2894474D1*
X1453983Y2891525D1*
X1444560Y2890033D1*
X1435020D1*
X1425597Y2891525D1*
X1416522Y2894474D1*
X1408022Y2898806D1*
X1400303Y2904413D1*
X1393558Y2911159D1*
X1389804Y2916102D1*
X1386022Y2911159D1*
X1379277Y2904413D1*
X1371558Y2898806D1*
X1363058Y2894474D1*
X1353983Y2891525D1*
X1344560Y2890033D1*
X1335020D1*
X1325597Y2891525D1*
X1316522Y2894474D1*
X1308022Y2898806D1*
X1300303Y2904413D1*
X1293558Y2911159D1*
X1289804Y2916102D1*
X1286022Y2911159D1*
X1279277Y2904413D1*
X1271558Y2898806D1*
X1263058Y2894474D1*
X1253983Y2891525D1*
X1244560Y2890033D1*
X1235020D1*
X1225597Y2891525D1*
X1216522Y2894474D1*
X1208022Y2898806D1*
X1200303Y2904413D1*
X1193558Y2911159D1*
X1189804Y2916102D1*
X1185289Y2910316D1*
X1180094Y2905125D1*
X1174311Y2900597D1*
X1168025Y2896799D1*
X1161325Y2893787D1*
X1154312Y2891605D1*
X1147088Y2890285D1*
X1139756Y2889845D1*
X1132425Y2890294D1*
X1125202Y2891622D1*
X1118192Y2893811D1*
X1111496Y2896831D1*
X1105214Y2900635D1*
X1099436Y2905169D1*
X1094247Y2910366D1*
X1089722Y2916152D1*
X1085928Y2922441D1*
X1082920Y2929142D1*
X1080741Y2936156D1*
X1079425Y2943382D1*
X1078991Y2950720D1*
X1079245Y2961217D1*
X1080360Y2968476D1*
X1081702Y2973591D1*
X1028123Y2973706D1*
X1022575Y2974585D1*
X1017232Y2976322D1*
X1012226Y2978871D1*
X1007681Y2982173D1*
X983226Y3006472D1*
X979577Y3010744D1*
X976643Y3015534D1*
X974493Y3020724D1*
X973181Y3026188D1*
X972740Y3031787D1*
Y3324567D1*
X969490Y3329215D1*
X966227Y3335619D1*
X964007Y3342454D1*
X962882Y3349552D1*
Y3356739D1*
X964007Y3363837D1*
X966227Y3370672D1*
X969490Y3377076D1*
X973714Y3382890D1*
X978797Y3387972D1*
X984610Y3392197D1*
X991014Y3395459D1*
X997849Y3397680D1*
X1004948Y3398804D1*
X1012134D1*
X1019232Y3397680D1*
X1026067Y3395459D1*
X1027255Y3394912D1*
X1031888Y3396705D1*
X1038877Y3398383D1*
X1046042Y3398948D1*
X1053207Y3398383D1*
X1060196Y3396705D1*
X1064756Y3394913D1*
X1069386Y3396705D1*
X1076374Y3398383D1*
X1083539Y3398948D1*
X1090705Y3398383D1*
X1097693Y3396705D1*
X1104332Y3393955D1*
X1110459Y3390199D1*
X1115925Y3385533D1*
X1120592Y3380067D1*
X1124348Y3373940D1*
X1127097Y3367301D1*
X1128776Y3360312D1*
X1129340Y3353147D1*
X1128776Y3345982D1*
X1127097Y3338993D1*
X1124348Y3332354D1*
X1120592Y3326227D1*
X1119331Y3324627D1*
X1119340Y3069196D1*
X1122591Y3064577D1*
X1125853Y3058173D1*
X1127491Y3053407D1*
X1132316Y3051710D1*
X1138720Y3048448D1*
X1144534Y3044223D1*
X1149617Y3039140D1*
X1153841Y3033327D1*
X1157104Y3026923D1*
X1159324Y3020088D1*
X1160455Y3012836D1*
X1168143Y3009429D1*
X1174423Y3005618D1*
X1180196Y3001077D1*
X1185378Y2995874D1*
X1189793Y2990230D1*
X1193558Y2995133D1*
X1200303Y3001878D1*
X1208022Y3007486D1*
X1216522Y3011818D1*
X1225597Y3014766D1*
X1235020Y3016259D1*
X1244560D1*
X1253983Y3014766D1*
X1263058Y3011818D1*
X1271558Y3007486D1*
X1279277Y3001878D1*
X1286022Y2995133D1*
X1289776Y2990189D1*
X1293558Y2995133D1*
X1300303Y3001878D1*
X1308022Y3007486D1*
X1316522Y3011818D1*
X1325597Y3014766D1*
X1335020Y3016259D1*
X1344560D1*
X1353983Y3014766D1*
X1363058Y3011818D1*
X1371558Y3007486D1*
X1379277Y3001878D1*
X1386022Y2995133D1*
X1389776Y2990189D1*
X1393558Y2995133D1*
X1400303Y3001878D1*
X1408022Y3007486D1*
X1416522Y3011818D1*
X1425597Y3014766D1*
X1435020Y3016259D1*
X1444560D1*
X1453983Y3014766D1*
X1463058Y3011818D1*
X1471558Y3007486D1*
X1479277Y3001878D1*
X1486022Y2995133D1*
X1489776Y2990189D1*
X1493558Y2995133D1*
X1500303Y3001878D1*
X1508022Y3007486D1*
X1516522Y3011818D1*
X1525597Y3014766D1*
X1535020Y3016259D1*
X1544560D1*
X1553983Y3014766D1*
X1563058Y3011818D1*
X1571558Y3007486D1*
X1579277Y3001878D1*
X1586022Y2995133D1*
X1589776Y2990189D1*
X1593558Y2995133D1*
X1600303Y3001878D1*
X1608022Y3007486D1*
X1616522Y3011818D1*
X1625597Y3014766D1*
X1635020Y3016259D1*
X1644560D1*
X1653983Y3014766D1*
X1663058Y3011818D1*
X1671558Y3007486D1*
X1679277Y3001878D1*
X1686022Y2995133D1*
X1689776Y2990189D1*
X1693558Y2995133D1*
X1700303Y3001878D1*
X1708022Y3007486D1*
X1716522Y3011818D1*
X1725597Y3014766D1*
X1735020Y3016259D1*
X1744560D1*
X1753983Y3014766D1*
X1763058Y3011818D1*
X1771558Y3007486D1*
X1779277Y3001878D1*
X1786022Y2995133D1*
X1789776Y2990189D1*
X1793558Y2995133D1*
X1800303Y3001878D1*
X1808022Y3007486D1*
X1816522Y3011818D1*
X1825597Y3014766D1*
X1835020Y3016259D1*
X1844560D1*
X1853983Y3014766D1*
X1863058Y3011818D1*
X1871558Y3007486D1*
X1879277Y3001878D1*
X1886022Y2995133D1*
X1889776Y2990189D1*
X1893558Y2995133D1*
X1900303Y3001878D1*
X1908022Y3007486D1*
X1916522Y3011818D1*
X1925597Y3014766D1*
X1935020Y3016259D1*
X1944560D1*
X1953983Y3014766D1*
X1963058Y3011818D1*
X1971558Y3007486D1*
X1979277Y3001878D1*
X1986022Y2995133D1*
X1989776Y2990189D1*
X1993558Y2995133D1*
X2000303Y3001878D1*
X2008022Y3007486D1*
X2016522Y3011818D1*
X2025597Y3014766D1*
X2035020Y3016259D1*
X2044560D1*
X2053983Y3014766D1*
X2063058Y3011818D1*
X2071558Y3007486D1*
X2079277Y3001878D1*
X2086022Y2995133D1*
X2089776Y2990189D1*
X2093558Y2995133D1*
X2100303Y3001878D1*
X2108022Y3007486D1*
X2116522Y3011818D1*
X2125597Y3014766D1*
X2135020Y3016259D1*
X2144560D1*
X2153983Y3014766D1*
X2163058Y3011818D1*
X2171558Y3007486D1*
X2179277Y3001878D1*
X2186022Y2995133D1*
X2189776Y2990189D1*
X2193558Y2995133D1*
X2200303Y3001878D1*
X2208022Y3007486D1*
X2216522Y3011818D1*
X2225597Y3014766D1*
X2235020Y3016259D1*
X2244560D1*
X2253983Y3014766D1*
X2263058Y3011818D1*
X2271558Y3007486D1*
X2279277Y3001878D1*
X2286022Y2995133D1*
X2289776Y2990189D1*
X2293558Y2995133D1*
X2300303Y3001878D1*
X2308022Y3007486D1*
X2316522Y3011818D1*
X2325597Y3014766D1*
X2335020Y3016259D1*
X2344560D1*
X2353983Y3014766D1*
X2363058Y3011818D1*
X2371558Y3007486D1*
X2379277Y3001878D1*
X2386022Y2995133D1*
X2389776Y2990189D1*
X2393558Y2995133D1*
X2400303Y3001878D1*
X2408022Y3007486D1*
X2416522Y3011818D1*
X2425597Y3014766D1*
X2435020Y3016259D1*
X2444560D1*
X2453983Y3014766D1*
X2463058Y3011818D1*
X2471558Y3007486D1*
X2479277Y3001878D1*
X2486022Y2995133D1*
X2489776Y2990189D1*
X2493558Y2995133D1*
X2500303Y3001878D1*
X2508022Y3007486D1*
X2516522Y3011818D1*
X2525597Y3014766D1*
X2535020Y3016259D1*
X2544560D1*
X2553983Y3014766D1*
X2563058Y3011818D1*
X2571558Y3007486D1*
X2579277Y3001878D1*
X2586022Y2995133D1*
X2589776Y2990189D1*
X2593558Y2995133D1*
X2600303Y3001878D1*
X2608022Y3007486D1*
X2616522Y3011818D1*
X2625597Y3014766D1*
X2635020Y3016259D1*
X2644560D1*
X2653983Y3014766D1*
X2663058Y3011818D1*
X2671558Y3007486D1*
X2679277Y3001878D1*
X2686022Y2995133D1*
X2689776Y2990189D1*
X2693558Y2995133D1*
X2700303Y3001878D1*
X2708022Y3007486D1*
X2716522Y3011818D1*
X2725597Y3014766D1*
X2735020Y3016259D1*
X2744560D1*
X2753983Y3014766D1*
X2763058Y3011818D1*
X2771558Y3007486D1*
X2779277Y3001878D1*
X2786022Y2995133D1*
X2789776Y2990189D1*
X2793558Y2995133D1*
X2800303Y3001878D1*
X2808022Y3007486D1*
X2816522Y3011818D1*
X2825597Y3014766D1*
X2835020Y3016259D1*
X2844560D1*
X2853983Y3014766D1*
X2863058Y3011818D1*
X2871558Y3007486D1*
X2879277Y3001878D1*
X2886022Y2995133D1*
X2889776Y2990189D1*
X2893558Y2995133D1*
X2900303Y3001878D1*
X2908022Y3007486D1*
X2916522Y3011818D1*
X2925597Y3014766D1*
X2935020Y3016259D1*
X2944560D1*
X2953983Y3014766D1*
X2963058Y3011818D1*
X2971558Y3007486D1*
X2979454Y3001714D1*
X2979463Y3013472D1*
X3100118D1*
Y2957601D1*
X3330867Y2726640D1*
X3335092Y2720825D1*
X3338354Y2714423D1*
X3340575Y2707587D1*
X3341699Y2700488D1*
X3341841Y2669336D1*
Y2397155D1*
X3347068Y2400192D1*
X3354723Y2403362D1*
X3362780Y2405297D1*
X3368887Y2405862D1*
X3589591Y2626400D1*
X3594516Y2629979D1*
X3599941Y2632743D1*
X3605731Y2634625D1*
X3611744Y2635576D1*
X3635207Y2635697D1*
X3640004Y2639613D1*
X3647068Y2643941D1*
X3654723Y2647112D1*
X3662780Y2649046D1*
X3671039Y2649697D1*
X3679299Y2649046D1*
X3687356Y2647112D1*
X3695010Y2643941D1*
X3702075Y2639613D1*
X3708374Y2634231D1*
X3713756Y2627932D1*
X3718084Y2620867D1*
X3721255Y2613213D1*
X3723189Y2605156D1*
X3723840Y2596896D1*
X3723189Y2588636D1*
X3721255Y2580580D1*
X3718084Y2572925D1*
X3713756Y2565861D1*
X3708374Y2559562D1*
X3702075Y2554180D1*
X3695010Y2549852D1*
X3687356Y2546681D1*
X3679299Y2544747D1*
X3671039Y2544096D1*
X3662780Y2544747D1*
X3654723Y2546681D1*
X3647068Y2549852D1*
X3640004Y2554180D1*
X3635286Y2558098D1*
X3630885Y2558096D1*
X3442507Y2369743D1*
X3556367Y2369723D1*
Y2358707D1*
X3562965Y2363369D1*
X3571815Y2367878D1*
X3581262Y2370948D1*
X3591073Y2372501D1*
X3601005D1*
X3610816Y2370948D1*
X3620264Y2367878D1*
X3629114Y2363369D1*
X3637150Y2357530D1*
X3644173Y2350507D1*
X3650012Y2342471D1*
X3654521Y2333621D1*
X3657591Y2324173D1*
X3659144Y2314362D1*
Y2304430D1*
X3657591Y2294619D1*
X3654521Y2285172D1*
X3650012Y2276322D1*
X3644173Y2268286D1*
X3641840Y2265762D1*
Y2253094D1*
X3647251Y2246604D1*
X3652440Y2238134D1*
X3656241Y2228957D1*
X3658560Y2219299D1*
X3659340Y2209396D1*
X3658560Y2199493D1*
X3656241Y2189836D1*
X3652440Y2180659D1*
X3647251Y2172189D1*
X3640799Y2164636D1*
X3633247Y2158185D1*
X3624777Y2152996D1*
X3615600Y2149194D1*
X3605942Y2146875D1*
X3596039Y2146096D1*
X3586136Y2146875D1*
X3576479Y2149194D1*
X3567302Y2152996D1*
X3558832Y2158185D1*
X3551280Y2164636D1*
X3546067Y2170619D1*
X3666058Y3467348D2*
X3656528Y3468096D1*
X3647251Y3470323D1*
X3638437Y3473974D1*
X3630302Y3478959D1*
X3623047Y3485155D1*
X3616852Y3492409D1*
X3611866Y3500545D1*
X3608215Y3509358D1*
X3605988Y3518635D1*
X3605239Y3528147D1*
X3605988Y3537659D1*
X3608215Y3546936D1*
X3611866Y3555749D1*
X3616852Y3563885D1*
X3623047Y3571139D1*
X3630302Y3577335D1*
X3631496Y3578133D1*
X3625685Y3582671D1*
X3620496Y3587867D1*
X3615971Y3593654D1*
X3612177Y3599942D1*
X3609169Y3606643D1*
X3606991Y3613657D1*
X3605675Y3620883D1*
X3605239Y3628214D1*
X3605692Y3635545D1*
X3607024Y3642768D1*
X3609217Y3649777D1*
X3612240Y3656471D1*
X3616047Y3662751D1*
X3620585Y3668526D1*
X3625786Y3673713D1*
X3631573Y3678235D1*
X3637865Y3682025D1*
X3644567Y3685029D1*
X3651581Y3687203D1*
X3658808Y3688516D1*
X3666147Y3688946D1*
X3681644Y3688688D1*
X3688903Y3687571D1*
X3695975Y3685585D1*
X3702755Y3682762D1*
X3709146Y3679143D1*
X3715054Y3674780D1*
X3720391Y3669735D1*
X3725083Y3664083D1*
X3729058Y3657908D1*
X3732260Y3651298D1*
X3734640Y3644349D1*
X3736167Y3637165D1*
X3736815Y3629849D1*
X3736589Y3622643D1*
X3735484Y3615382D1*
X3733512Y3608307D1*
X3730699Y3601522D1*
X3727091Y3595126D1*
X3722736Y3589210D1*
X3717701Y3583864D1*
X3712056Y3579164D1*
X3710625Y3578143D1*
X3715526Y3574379D1*
X3722272Y3567634D1*
X3727879Y3559915D1*
X3732211Y3551415D1*
X3735160Y3542340D1*
X3736652Y3532917D1*
Y3523377D1*
X3735160Y3513954D1*
X3732211Y3504879D1*
X3727879Y3496379D1*
X3722272Y3488660D1*
X3715526Y3481915D1*
X3707807Y3476307D1*
X3699307Y3471975D1*
X3690232Y3469026D1*
X3680810Y3467534D1*
X3666039Y3467383D1*
X2119566Y4574598D2*
X2113720Y4570345D1*
X2107316Y4567083D1*
X2100482Y4564862D1*
X2093383Y4563738D1*
X2086197D1*
X2079098Y4564862D1*
X2072264Y4567083D1*
X2065860Y4570345D1*
X2060046Y4574570D1*
X2054963Y4579652D1*
X2050739Y4585466D1*
X2047476Y4591870D1*
X2045256Y4598705D1*
X2044131Y4605803D1*
Y4612990D1*
X2045256Y4620088D1*
X2047476Y4626923D1*
X2050739Y4633327D1*
X2054963Y4639140D1*
X2060046Y4644223D1*
X2065860Y4648448D1*
X2072264Y4651710D1*
X2079098Y4653930D1*
X2086197Y4655055D1*
X2093383D1*
X2100482Y4653930D1*
X2107316Y4651710D1*
X2113720Y4648448D1*
X2119566Y4644194D1*
X2153797Y4644223D1*
X2159610Y4648448D1*
X2166014Y4651710D1*
X2172849Y4653930D1*
X2179948Y4655055D1*
X2187134D1*
X2194232Y4653930D1*
X2201067Y4651710D1*
X2207471Y4648448D1*
X2213285Y4644223D1*
X2218367Y4639140D1*
X2222592Y4633327D1*
X2225854Y4626923D1*
X2228075Y4620088D1*
X2229199Y4612990D1*
Y4605803D1*
X2228075Y4598705D1*
X2225854Y4591870D1*
X2222592Y4585466D1*
X2218367Y4579652D1*
X2213285Y4574570D1*
X2207471Y4570345D1*
X2201067Y4567083D1*
X2194232Y4564862D1*
X2187134Y4563738D1*
X2179948D1*
X2172849Y4564862D1*
X2166014Y4567083D1*
X2159610Y4570345D1*
X2153765Y4574598D1*
X2119559Y4574596D1*
X1482066Y4412098D2*
X1476220Y4407845D1*
X1469816Y4404583D1*
X1462982Y4402362D1*
X1455883Y4401238D1*
X1448697D1*
X1441598Y4402362D1*
X1434764Y4404583D1*
X1428360Y4407845D1*
X1422546Y4412070D1*
X1417463Y4417152D1*
X1413239Y4422966D1*
X1409976Y4429370D1*
X1407756Y4436205D1*
X1406631Y4443303D1*
Y4450490D1*
X1407756Y4457588D1*
X1409976Y4464423D1*
X1413239Y4470827D1*
X1417463Y4476640D1*
X1422546Y4481723D1*
X1428360Y4485948D1*
X1434764Y4489210D1*
X1441598Y4491430D1*
X1448697Y4492555D1*
X1455883D1*
X1462982Y4491430D1*
X1469816Y4489210D1*
X1476220Y4485948D1*
X1482066Y4481694D1*
X1516297Y4481723D1*
X1522110Y4485948D1*
X1528514Y4489210D1*
X1535349Y4491430D1*
X1542448Y4492555D1*
X1549634D1*
X1556732Y4491430D1*
X1563567Y4489210D1*
X1569971Y4485948D1*
X1575785Y4481723D1*
X1580867Y4476640D1*
X1585092Y4470827D1*
X1588354Y4464423D1*
X1590575Y4457588D1*
X1591699Y4450490D1*
Y4443303D1*
X1590575Y4436205D1*
X1588354Y4429370D1*
X1585092Y4422966D1*
X1580867Y4417152D1*
X1575785Y4412070D1*
X1569971Y4407845D1*
X1563567Y4404583D1*
X1556732Y4402362D1*
X1549634Y4401238D1*
X1542448D1*
X1535349Y4402362D1*
X1528514Y4404583D1*
X1522110Y4407845D1*
X1516265Y4412098D1*
X1482059Y4412096D1*
X1110912Y3927249D2*
X1103513Y3929583D1*
X1097109Y3932845D1*
X1091295Y3937070D1*
X1086213Y3942152D1*
X1081988Y3947966D1*
X1078726Y3954370D1*
X1076505Y3961205D1*
X1075381Y3968303D1*
Y3975490D1*
X1076505Y3982588D1*
X1078726Y3989423D1*
X1081988Y3995827D1*
X1086213Y4001640D1*
X1091295Y4006723D1*
X1097109Y4010948D1*
X1103513Y4014210D1*
X1110348Y4016430D1*
X1117446Y4017555D1*
X1124633D1*
X1131731Y4016430D1*
X1138566Y4014210D1*
X1144970Y4010948D1*
X1150815Y4006694D1*
X1291297Y4006723D1*
X1297110Y4010948D1*
X1303514Y4014210D1*
X1310349Y4016430D1*
X1317448Y4017555D1*
X1324634D1*
X1331732Y4016430D1*
X1338567Y4014210D1*
X1344971Y4010948D1*
X1350785Y4006723D1*
X1355867Y4001640D1*
X1360092Y3995827D1*
X1362361Y3991579D1*
X1369816Y3989209D1*
X1376220Y3985946D1*
X1382034Y3981722D1*
X1387117Y3976639D1*
X1391341Y3970825D1*
X1394604Y3964421D1*
X1396824Y3957587D1*
X1397003Y3956692D1*
X1535046Y3956723D1*
X1540860Y3960948D1*
X1547264Y3964210D1*
X1554098Y3966430D1*
X1561197Y3967555D1*
X1568383D1*
X1575482Y3966430D1*
X1582316Y3964210D1*
X1588720Y3960948D1*
X1594534Y3956723D1*
X1599617Y3951640D1*
X1603841Y3945827D1*
X1607104Y3939423D1*
X1609324Y3932588D1*
X1610449Y3925490D1*
Y3918303D1*
X1609324Y3911205D1*
X1607104Y3904370D1*
X1603841Y3897966D1*
X1599617Y3892152D1*
X1594534Y3887070D1*
X1588720Y3882845D1*
X1582316Y3879583D1*
X1575482Y3877362D1*
X1568383Y3876238D1*
X1561197D1*
X1554098Y3877362D1*
X1547264Y3879583D1*
X1540860Y3882845D1*
X1535014Y3887098D1*
X1213285Y3887070D1*
X1207471Y3882845D1*
X1201067Y3879583D1*
X1194232Y3877362D1*
X1187134Y3876238D1*
X1179948D1*
X1172849Y3877362D1*
X1166014Y3879583D1*
X1159610Y3882845D1*
X1153797Y3887070D1*
X1148714Y3892152D1*
X1144490Y3897966D1*
X1142220Y3902214D1*
X1134764Y3904581D1*
X1128360Y3907844D1*
X1122546Y3912068D1*
X1117463Y3917151D1*
X1113239Y3922965D1*
X1110970Y3927213D1*
X2322949Y3599554D2*
X2321824Y3592455D1*
X2319604Y3585621D1*
X2316341Y3579217D1*
X2312117Y3573403D1*
X2307034Y3568320D1*
X2301220Y3564096D1*
X2294816Y3560833D1*
X2287982Y3558613D1*
X2280841Y3557487D1*
X2272949Y3549554D1*
X2271824Y3542455D1*
X2269604Y3535621D1*
X2266341Y3529217D1*
X2262117Y3523403D1*
X2257034Y3518320D1*
X2251220Y3514096D1*
X2244816Y3510833D1*
X2237982Y3508613D1*
X2230883Y3507488D1*
X2223697D1*
X2216598Y3508613D1*
X2209764Y3510833D1*
X2203360Y3514096D1*
X2197546Y3518320D1*
X2192463Y3523403D1*
X2188239Y3529217D1*
X2184976Y3535621D1*
X2182756Y3542455D1*
X2181631Y3549554D1*
Y3556740D1*
X2182756Y3563839D1*
X2184976Y3570673D1*
X2188239Y3577077D1*
X2192463Y3582891D1*
X2197546Y3587974D1*
X2203360Y3592198D1*
X2209764Y3595461D1*
X2216598Y3597681D1*
X2223739Y3598807D1*
X2231631Y3606740D1*
X2232756Y3613839D1*
X2234976Y3620673D1*
X2238239Y3627077D1*
X2242463Y3632891D1*
X2247546Y3637974D1*
X2251572Y3641004D1*
X2244560Y3640034D1*
X2235020D1*
X2225597Y3641526D1*
X2216522Y3644475D1*
X2208022Y3648807D1*
X2200303Y3654415D1*
X2193558Y3661160D1*
X2189804Y3666104D1*
X2186022Y3661160D1*
X2179277Y3654415D1*
X2171558Y3648807D1*
X2163058Y3644475D1*
X2153983Y3641526D1*
X2144560Y3640034D1*
X2135020D1*
X2125597Y3641526D1*
X2116522Y3644475D1*
X2108022Y3648807D1*
X2100303Y3654415D1*
X2093558Y3661160D1*
X2089804Y3666104D1*
X2086022Y3661160D1*
X2079277Y3654415D1*
X2071558Y3648807D1*
X2063058Y3644475D1*
X2053983Y3641526D1*
X2044560Y3640034D1*
X2035020D1*
X2025597Y3641526D1*
X2016522Y3644475D1*
X2008022Y3648807D1*
X2000303Y3654415D1*
X1993558Y3661160D1*
X1989804Y3666104D1*
X1986022Y3661160D1*
X1979277Y3654415D1*
X1971558Y3648807D1*
X1963058Y3644475D1*
X1953983Y3641526D1*
X1944560Y3640034D1*
X1935020D1*
X1925597Y3641526D1*
X1916522Y3644475D1*
X1908022Y3648807D1*
X1900303Y3654415D1*
X1893558Y3661160D1*
X1889804Y3666104D1*
X1886022Y3661160D1*
X1879277Y3654415D1*
X1871558Y3648807D1*
X1863058Y3644475D1*
X1853983Y3641526D1*
X1844560Y3640034D1*
X1835020D1*
X1825597Y3641526D1*
X1816522Y3644475D1*
X1808022Y3648807D1*
X1800303Y3654415D1*
X1793558Y3661160D1*
X1789804Y3666104D1*
X1786022Y3661160D1*
X1779277Y3654415D1*
X1771558Y3648807D1*
X1763058Y3644475D1*
X1753983Y3641526D1*
X1744560Y3640034D1*
X1735020D1*
X1725597Y3641526D1*
X1716522Y3644475D1*
X1708022Y3648807D1*
X1700303Y3654415D1*
X1693558Y3661160D1*
X1689804Y3666104D1*
X1686022Y3661160D1*
X1679277Y3654415D1*
X1671558Y3648807D1*
X1663058Y3644475D1*
X1653983Y3641526D1*
X1644560Y3640034D1*
X1635020D1*
X1625597Y3641526D1*
X1616522Y3644475D1*
X1608022Y3648807D1*
X1600303Y3654415D1*
X1593558Y3661160D1*
X1589804Y3666104D1*
X1586022Y3661160D1*
X1579277Y3654415D1*
X1571558Y3648807D1*
X1563058Y3644475D1*
X1553983Y3641526D1*
X1544560Y3640034D1*
X1535020D1*
X1525597Y3641526D1*
X1516522Y3644475D1*
X1508022Y3648807D1*
X1500303Y3654415D1*
X1493558Y3661160D1*
X1489804Y3666104D1*
X1486022Y3661160D1*
X1479277Y3654415D1*
X1471558Y3648807D1*
X1463058Y3644475D1*
X1453983Y3641526D1*
X1444560Y3640034D1*
X1435020D1*
X1425597Y3641526D1*
X1416522Y3644475D1*
X1408022Y3648807D1*
X1400303Y3654415D1*
X1393558Y3661160D1*
X1389804Y3666104D1*
X1386022Y3661160D1*
X1379277Y3654415D1*
X1371558Y3648807D1*
X1363058Y3644475D1*
X1353983Y3641526D1*
X1344560Y3640034D1*
X1335020D1*
X1325597Y3641526D1*
X1316522Y3644475D1*
X1308022Y3648807D1*
X1300303Y3654415D1*
X1293558Y3661160D1*
X1289804Y3666104D1*
X1286022Y3661160D1*
X1279277Y3654415D1*
X1271558Y3648807D1*
X1263058Y3644475D1*
X1253983Y3641526D1*
X1244560Y3640034D1*
X1235020D1*
X1228285Y3640992D1*
X1119331Y3532059D1*
X1119340Y3487938D1*
X1122591Y3483327D1*
X1125853Y3476923D1*
X1128073Y3470088D1*
X1129198Y3462990D1*
Y3455803D1*
X1128073Y3448705D1*
X1125853Y3441870D1*
X1122591Y3435466D1*
X1118366Y3429652D1*
X1113283Y3424570D1*
X1107470Y3420345D1*
X1101066Y3417083D1*
X1094231Y3414862D1*
X1087133Y3413738D1*
X1079946D1*
X1072848Y3414862D1*
X1066013Y3417083D1*
X1064825Y3417630D1*
X1060194Y3415839D1*
X1053206Y3414160D1*
X1046041Y3413596D1*
X1038875Y3414160D1*
X1031887Y3415839D1*
X1027327Y3417630D1*
X1022693Y3415839D1*
X1015705Y3414160D1*
X1008539Y3413596D1*
X1001374Y3414160D1*
X994386Y3415839D1*
X987747Y3418588D1*
X981619Y3422344D1*
X976154Y3427010D1*
X971487Y3432476D1*
X967731Y3438604D1*
X964982Y3445243D1*
X963303Y3452231D1*
X962739Y3459396D1*
X963303Y3466562D1*
X964982Y3473550D1*
X967731Y3480189D1*
X971487Y3486316D1*
X972748Y3487916D1*
X972739Y3749592D1*
X969488Y3754215D1*
X966226Y3760619D1*
X964005Y3767454D1*
X962881Y3774552D1*
Y3781739D1*
X964005Y3788837D1*
X966226Y3795672D1*
X969488Y3802076D1*
X973713Y3807890D1*
X978795Y3812972D1*
X984609Y3817197D1*
X991013Y3820459D1*
X997848Y3822680D1*
X1004946Y3823804D1*
X1012133D1*
X1019231Y3822680D1*
X1026066Y3820459D1*
X1032470Y3817197D1*
X1038283Y3812972D1*
X1043366Y3807890D1*
X1047591Y3802076D1*
X1050853Y3795672D1*
X1053073Y3788837D1*
X1054198Y3781739D1*
Y3774552D1*
X1053073Y3767454D1*
X1050853Y3760619D1*
X1047591Y3754215D1*
X1044331Y3749626D1*
X1044340Y3658328D1*
X1079416Y3693402D1*
X1078991Y3700665D1*
X1079177Y3710417D1*
X1080669Y3719840D1*
X1083618Y3728915D1*
X1087950Y3737415D1*
X1093558Y3745134D1*
X1100303Y3751879D1*
X1108022Y3757487D1*
X1116522Y3761819D1*
X1125597Y3764768D1*
X1135020Y3766260D1*
X1144560D1*
X1153983Y3764768D1*
X1163058Y3761819D1*
X1171558Y3757487D1*
X1179277Y3751879D1*
X1186022Y3745134D1*
X1189776Y3740190D1*
X1193558Y3745134D1*
X1200303Y3751879D1*
X1208022Y3757487D1*
X1216522Y3761819D1*
X1225597Y3764768D1*
X1235020Y3766260D1*
X1244560D1*
X1253983Y3764768D1*
X1263058Y3761819D1*
X1271558Y3757487D1*
X1279277Y3751879D1*
X1286022Y3745134D1*
X1289776Y3740190D1*
X1293558Y3745134D1*
X1300303Y3751879D1*
X1308022Y3757487D1*
X1316522Y3761819D1*
X1325597Y3764768D1*
X1335020Y3766260D1*
X1344560D1*
X1353983Y3764768D1*
X1363058Y3761819D1*
X1371558Y3757487D1*
X1379277Y3751879D1*
X1386022Y3745134D1*
X1389776Y3740190D1*
X1393558Y3745134D1*
X1400303Y3751879D1*
X1408022Y3757487D1*
X1416522Y3761819D1*
X1425597Y3764768D1*
X1435020Y3766260D1*
X1444560D1*
X1453983Y3764768D1*
X1463058Y3761819D1*
X1471558Y3757487D1*
X1479277Y3751879D1*
X1486022Y3745134D1*
X1489776Y3740190D1*
X1493558Y3745134D1*
X1500303Y3751879D1*
X1508022Y3757487D1*
X1516522Y3761819D1*
X1525597Y3764768D1*
X1535020Y3766260D1*
X1544560D1*
X1553983Y3764768D1*
X1563058Y3761819D1*
X1571558Y3757487D1*
X1579277Y3751879D1*
X1586022Y3745134D1*
X1589776Y3740190D1*
X1593558Y3745134D1*
X1600303Y3751879D1*
X1608022Y3757487D1*
X1616522Y3761819D1*
X1625597Y3764768D1*
X1635020Y3766260D1*
X1644560D1*
X1653983Y3764768D1*
X1663058Y3761819D1*
X1671558Y3757487D1*
X1679277Y3751879D1*
X1686022Y3745134D1*
X1689776Y3740190D1*
X1693558Y3745134D1*
X1700303Y3751879D1*
X1708022Y3757487D1*
X1716522Y3761819D1*
X1725597Y3764768D1*
X1735020Y3766260D1*
X1744560D1*
X1753983Y3764768D1*
X1763058Y3761819D1*
X1771558Y3757487D1*
X1779277Y3751879D1*
X1786022Y3745134D1*
X1789776Y3740190D1*
X1793558Y3745134D1*
X1800303Y3751879D1*
X1808022Y3757487D1*
X1816522Y3761819D1*
X1825597Y3764768D1*
X1835020Y3766260D1*
X1844560D1*
X1853983Y3764768D1*
X1863058Y3761819D1*
X1871558Y3757487D1*
X1879277Y3751879D1*
X1886022Y3745134D1*
X1889776Y3740190D1*
X1893558Y3745134D1*
X1900303Y3751879D1*
X1908022Y3757487D1*
X1916522Y3761819D1*
X1925597Y3764768D1*
X1935020Y3766260D1*
X1944560D1*
X1953983Y3764768D1*
X1963058Y3761819D1*
X1971558Y3757487D1*
X1979277Y3751879D1*
X1986022Y3745134D1*
X1989776Y3740190D1*
X1993558Y3745134D1*
X2000303Y3751879D1*
X2008022Y3757487D1*
X2016522Y3761819D1*
X2025597Y3764768D1*
X2035020Y3766260D1*
X2044560D1*
X2053983Y3764768D1*
X2063058Y3761819D1*
X2071558Y3757487D1*
X2079277Y3751879D1*
X2086022Y3745134D1*
X2089776Y3740190D1*
X2093558Y3745134D1*
X2100303Y3751879D1*
X2108022Y3757487D1*
X2116522Y3761819D1*
X2125597Y3764768D1*
X2135020Y3766260D1*
X2144560D1*
X2153983Y3764768D1*
X2163058Y3761819D1*
X2171558Y3757487D1*
X2179277Y3751879D1*
X2186022Y3745134D1*
X2189776Y3740190D1*
X2193558Y3745134D1*
X2200303Y3751879D1*
X2208022Y3757487D1*
X2216522Y3761819D1*
X2225597Y3764768D1*
X2235020Y3766260D1*
X2244560D1*
X2253983Y3764768D1*
X2263058Y3761819D1*
X2271558Y3757487D1*
X2279277Y3751879D1*
X2286022Y3745134D1*
X2289776Y3740190D1*
X2293558Y3745134D1*
X2300303Y3751879D1*
X2308022Y3757487D1*
X2316522Y3761819D1*
X2325597Y3764768D1*
X2335020Y3766260D1*
X2344560D1*
X2353983Y3764768D1*
X2363058Y3761819D1*
X2371558Y3757487D1*
X2379277Y3751879D1*
X2386022Y3745134D1*
X2389776Y3740190D1*
X2393558Y3745134D1*
X2400303Y3751879D1*
X2408022Y3757487D1*
X2416522Y3761819D1*
X2425597Y3764768D1*
X2435020Y3766260D1*
X2444560D1*
X2453983Y3764768D1*
X2463058Y3761819D1*
X2471558Y3757487D1*
X2479277Y3751879D1*
X2486022Y3745134D1*
X2489776Y3740190D1*
X2493558Y3745134D1*
X2500303Y3751879D1*
X2508022Y3757487D1*
X2516522Y3761819D1*
X2525597Y3764768D1*
X2535020Y3766260D1*
X2544560D1*
X2553983Y3764768D1*
X2563058Y3761819D1*
X2571558Y3757487D1*
X2579277Y3751879D1*
X2586022Y3745134D1*
X2589776Y3740190D1*
X2593558Y3745134D1*
X2600303Y3751879D1*
X2608022Y3757487D1*
X2616522Y3761819D1*
X2625597Y3764768D1*
X2635020Y3766260D1*
X2644560D1*
X2653983Y3764768D1*
X2663058Y3761819D1*
X2671558Y3757487D1*
X2679277Y3751879D1*
X2686022Y3745134D1*
X2689776Y3740190D1*
X2693558Y3745134D1*
X2700303Y3751879D1*
X2708022Y3757487D1*
X2716522Y3761819D1*
X2725597Y3764768D1*
X2735020Y3766260D1*
X2744560D1*
X2753983Y3764768D1*
X2763058Y3761819D1*
X2771558Y3757487D1*
X2779277Y3751879D1*
X2786022Y3745134D1*
X2789776Y3740190D1*
X2793558Y3745134D1*
X2800303Y3751879D1*
X2808022Y3757487D1*
X2816522Y3761819D1*
X2825597Y3764768D1*
X2835020Y3766260D1*
X2844560D1*
X2853983Y3764768D1*
X2863058Y3761819D1*
X2871558Y3757487D1*
X2879277Y3751879D1*
X2886022Y3745134D1*
X2889776Y3740190D1*
X2893558Y3745134D1*
X2900303Y3751879D1*
X2908022Y3757487D1*
X2916522Y3761819D1*
X2925597Y3764768D1*
X2935020Y3766260D1*
X2944560D1*
X2953983Y3764768D1*
X2963058Y3761819D1*
X2971558Y3757487D1*
X2979277Y3751879D1*
X2986022Y3745134D1*
X2989776Y3740190D1*
X2993558Y3745134D1*
X3000303Y3751879D1*
X3008022Y3757487D1*
X3016522Y3761819D1*
X3020949Y3763451D1*
X3004963Y3779652D1*
X3000739Y3785466D1*
X2997476Y3791869D1*
X2995256Y3798705D1*
X2994131Y3805803D1*
X2993990Y3836955D1*
Y4242841D1*
X2979463Y4242819D1*
X2979277Y4254415D1*
X2971558Y4248807D1*
X2963058Y4244475D1*
X2953983Y4241526D1*
X2944560Y4240034D1*
X2935020D1*
X2925597Y4241526D1*
X2916522Y4244475D1*
X2908022Y4248807D1*
X2900303Y4254415D1*
X2893558Y4261160D1*
X2889804Y4266104D1*
X2886022Y4261160D1*
X2879277Y4254415D1*
X2871558Y4248807D1*
X2863058Y4244475D1*
X2853983Y4241526D1*
X2844560Y4240034D1*
X2835020D1*
X2825597Y4241526D1*
X2816522Y4244475D1*
X2808022Y4248807D1*
X2800303Y4254415D1*
X2793558Y4261160D1*
X2789804Y4266104D1*
X2786022Y4261160D1*
X2779277Y4254415D1*
X2771558Y4248807D1*
X2763058Y4244475D1*
X2753983Y4241526D1*
X2744560Y4240034D1*
X2735020D1*
X2725597Y4241526D1*
X2716522Y4244475D1*
X2708022Y4248807D1*
X2700303Y4254415D1*
X2693558Y4261160D1*
X2689804Y4266104D1*
X2686022Y4261160D1*
X2679277Y4254415D1*
X2671558Y4248807D1*
X2663058Y4244475D1*
X2653983Y4241526D1*
X2644560Y4240034D1*
X2635020D1*
X2625597Y4241526D1*
X2616522Y4244475D1*
X2608022Y4248807D1*
X2600303Y4254415D1*
X2593558Y4261160D1*
X2589804Y4266104D1*
X2586022Y4261160D1*
X2579277Y4254415D1*
X2571558Y4248807D1*
X2563058Y4244475D1*
X2553983Y4241526D1*
X2544560Y4240034D1*
X2535020D1*
X2525597Y4241526D1*
X2516522Y4244475D1*
X2508022Y4248807D1*
X2500303Y4254415D1*
X2493558Y4261160D1*
X2489804Y4266104D1*
X2486022Y4261160D1*
X2479277Y4254415D1*
X2471558Y4248807D1*
X2463058Y4244475D1*
X2453983Y4241526D1*
X2444560Y4240034D1*
X2435020D1*
X2425597Y4241526D1*
X2416522Y4244475D1*
X2408022Y4248807D1*
X2400303Y4254415D1*
X2393558Y4261160D1*
X2389804Y4266104D1*
X2386022Y4261160D1*
X2379277Y4254415D1*
X2371558Y4248807D1*
X2363058Y4244475D1*
X2353983Y4241526D1*
X2344560Y4240034D1*
X2335020D1*
X2325597Y4241526D1*
X2316522Y4244475D1*
X2308022Y4248807D1*
X2300303Y4254415D1*
X2293558Y4261160D1*
X2289804Y4266104D1*
X2286022Y4261160D1*
X2279277Y4254415D1*
X2271558Y4248807D1*
X2263058Y4244475D1*
X2253983Y4241526D1*
X2244560Y4240034D1*
X2235020D1*
X2225597Y4241526D1*
X2216522Y4244475D1*
X2208022Y4248807D1*
X2200303Y4254415D1*
X2193558Y4261160D1*
X2189804Y4266104D1*
X2186022Y4261160D1*
X2179277Y4254415D1*
X2171558Y4248807D1*
X2163058Y4244475D1*
X2153983Y4241526D1*
X2144560Y4240034D1*
X2135020D1*
X2125597Y4241526D1*
X2116522Y4244475D1*
X2108022Y4248807D1*
X2100303Y4254415D1*
X2093558Y4261160D1*
X2089804Y4266104D1*
X2086022Y4261160D1*
X2079277Y4254415D1*
X2071558Y4248807D1*
X2063058Y4244475D1*
X2053983Y4241526D1*
X2044560Y4240034D1*
X2035020D1*
X2025597Y4241526D1*
X2016522Y4244475D1*
X2008022Y4248807D1*
X2000303Y4254415D1*
X1993558Y4261160D1*
X1989804Y4266104D1*
X1986022Y4261160D1*
X1979277Y4254415D1*
X1971558Y4248807D1*
X1963058Y4244475D1*
X1953983Y4241526D1*
X1944560Y4240034D1*
X1935020D1*
X1925597Y4241526D1*
X1916522Y4244475D1*
X1908022Y4248807D1*
X1900303Y4254415D1*
X1893558Y4261160D1*
X1889804Y4266104D1*
X1886022Y4261160D1*
X1879277Y4254415D1*
X1871558Y4248807D1*
X1863058Y4244475D1*
X1853983Y4241526D1*
X1844560Y4240034D1*
X1835020D1*
X1825597Y4241526D1*
X1816522Y4244475D1*
X1808022Y4248807D1*
X1800303Y4254415D1*
X1793558Y4261160D1*
X1789804Y4266104D1*
X1786022Y4261160D1*
X1779277Y4254415D1*
X1771558Y4248807D1*
X1763058Y4244475D1*
X1753983Y4241526D1*
X1744560Y4240034D1*
X1735020D1*
X1725597Y4241526D1*
X1716522Y4244475D1*
X1708022Y4248807D1*
X1700303Y4254415D1*
X1693558Y4261160D1*
X1689804Y4266104D1*
X1686022Y4261160D1*
X1679277Y4254415D1*
X1671558Y4248807D1*
X1663058Y4244475D1*
X1653983Y4241526D1*
X1644560Y4240034D1*
X1635020D1*
X1625597Y4241526D1*
X1616522Y4244475D1*
X1608022Y4248807D1*
X1600303Y4254415D1*
X1593558Y4261160D1*
X1589804Y4266104D1*
X1586022Y4261160D1*
X1579277Y4254415D1*
X1571558Y4248807D1*
X1563058Y4244475D1*
X1553983Y4241526D1*
X1544560Y4240034D1*
X1535020D1*
X1525597Y4241526D1*
X1516522Y4244475D1*
X1508022Y4248807D1*
X1500303Y4254415D1*
X1493558Y4261160D1*
X1489804Y4266104D1*
X1486022Y4261160D1*
X1479277Y4254415D1*
X1471558Y4248807D1*
X1463058Y4244475D1*
X1453983Y4241526D1*
X1444560Y4240034D1*
X1435020D1*
X1425597Y4241526D1*
X1416522Y4244475D1*
X1408022Y4248807D1*
X1400303Y4254415D1*
X1393558Y4261160D1*
X1389804Y4266104D1*
X1386022Y4261160D1*
X1379277Y4254415D1*
X1371558Y4248807D1*
X1363058Y4244475D1*
X1353983Y4241526D1*
X1344560Y4240034D1*
X1335020D1*
X1325597Y4241526D1*
X1316522Y4244475D1*
X1308022Y4248807D1*
X1300303Y4254415D1*
X1293558Y4261160D1*
X1289804Y4266104D1*
X1286022Y4261160D1*
X1279277Y4254415D1*
X1271558Y4248807D1*
X1263058Y4244475D1*
X1253983Y4241526D1*
X1244560Y4240034D1*
X1235020D1*
X1225597Y4241526D1*
X1216522Y4244475D1*
X1208022Y4248807D1*
X1200303Y4254415D1*
X1193558Y4261160D1*
X1189804Y4266104D1*
X1185289Y4260318D1*
X1180094Y4255126D1*
X1174311Y4250598D1*
X1168025Y4246801D1*
X1161325Y4243789D1*
X1154312Y4241606D1*
X1147088Y4240286D1*
X1139756Y4239846D1*
X1132425Y4240295D1*
X1125202Y4241623D1*
X1118192Y4243812D1*
X1111496Y4246832D1*
X1105214Y4250636D1*
X1099436Y4255171D1*
X1094247Y4260367D1*
X1089722Y4266154D1*
X1085928Y4272442D1*
X1082920Y4279143D1*
X1080741Y4286157D1*
X1079425Y4293383D1*
X1078991Y4300722D1*
X1079245Y4311218D1*
X1080360Y4318478D1*
X1082340Y4325550D1*
X1085159Y4332332D1*
X1088776Y4338726D1*
X1093136Y4344635D1*
X1098177Y4349976D1*
X1103827Y4354671D1*
X1110000Y4358648D1*
X1116609Y4361854D1*
X1123555Y4364239D1*
X1130739Y4365769D1*
X1138054Y4366423D1*
X1145395Y4366188D1*
X1152654Y4365071D1*
X1159726Y4363085D1*
X1166505Y4360262D1*
X1172896Y4356643D1*
X1178804Y4352280D1*
X1184142Y4347235D1*
X1188833Y4341583D1*
X1189793Y4340231D1*
X1193558Y4345134D1*
X1200303Y4351879D1*
X1208022Y4357487D1*
X1216522Y4361819D1*
X1225597Y4364768D1*
X1235020Y4366260D1*
X1244560D1*
X1253983Y4364768D1*
X1263058Y4361819D1*
X1271558Y4357487D1*
X1279277Y4351879D1*
X1286022Y4345134D1*
X1289776Y4340190D1*
X1293558Y4345134D1*
X1300303Y4351879D1*
X1308022Y4357487D1*
X1316522Y4361819D1*
X1325597Y4364768D1*
X1335020Y4366260D1*
X1344560D1*
X1353983Y4364768D1*
X1363058Y4361819D1*
X1371558Y4357487D1*
X1379277Y4351879D1*
X1386022Y4345134D1*
X1389776Y4340190D1*
X1393558Y4345134D1*
X1400303Y4351879D1*
X1408022Y4357487D1*
X1416522Y4361819D1*
X1425597Y4364768D1*
X1435020Y4366260D1*
X1444560D1*
X1453983Y4364768D1*
X1463058Y4361819D1*
X1471558Y4357487D1*
X1479277Y4351879D1*
X1486022Y4345134D1*
X1489776Y4340190D1*
X1493558Y4345134D1*
X1500303Y4351879D1*
X1508022Y4357487D1*
X1516522Y4361819D1*
X1525597Y4364768D1*
X1535020Y4366260D1*
X1544560D1*
X1553983Y4364768D1*
X1563058Y4361819D1*
X1571558Y4357487D1*
X1579277Y4351879D1*
X1586022Y4345134D1*
X1589776Y4340190D1*
X1593558Y4345134D1*
X1600303Y4351879D1*
X1608022Y4357487D1*
X1616522Y4361819D1*
X1625597Y4364768D1*
X1635020Y4366260D1*
X1644560D1*
X1653983Y4364768D1*
X1663058Y4361819D1*
X1671558Y4357487D1*
X1679277Y4351879D1*
X1686022Y4345134D1*
X1689776Y4340190D1*
X1693558Y4345134D1*
X1700303Y4351879D1*
X1708022Y4357487D1*
X1716522Y4361819D1*
X1725597Y4364768D1*
X1735020Y4366260D1*
X1744560D1*
X1753983Y4364768D1*
X1763058Y4361819D1*
X1771558Y4357487D1*
X1779277Y4351879D1*
X1786022Y4345134D1*
X1789776Y4340190D1*
X1793558Y4345134D1*
X1800303Y4351879D1*
X1808022Y4357487D1*
X1816522Y4361819D1*
X1825597Y4364768D1*
X1835020Y4366260D1*
X1844560D1*
X1853983Y4364768D1*
X1863058Y4361819D1*
X1871558Y4357487D1*
X1879277Y4351879D1*
X1886022Y4345134D1*
X1889776Y4340190D1*
X1893558Y4345134D1*
X1900303Y4351879D1*
X1908022Y4357487D1*
X1916522Y4361819D1*
X1925597Y4364768D1*
X1935020Y4366260D1*
X1944560D1*
X1953983Y4364768D1*
X1963058Y4361819D1*
X1971558Y4357487D1*
X1979277Y4351879D1*
X1986022Y4345134D1*
X1989776Y4340190D1*
X1993558Y4345134D1*
X2000303Y4351879D1*
X2008022Y4357487D1*
X2016522Y4361819D1*
X2025597Y4364768D1*
X2035020Y4366260D1*
X2044560D1*
X2053983Y4364768D1*
X2063058Y4361819D1*
X2071558Y4357487D1*
X2079277Y4351879D1*
X2086022Y4345134D1*
X2089776Y4340190D1*
X2093558Y4345134D1*
X2100303Y4351879D1*
X2108022Y4357487D1*
X2116522Y4361819D1*
X2125597Y4364768D1*
X2135020Y4366260D1*
X2144560D1*
X2153983Y4364768D1*
X2163058Y4361819D1*
X2171558Y4357487D1*
X2179277Y4351879D1*
X2186022Y4345134D1*
X2189776Y4340190D1*
X2193558Y4345134D1*
X2200303Y4351879D1*
X2208022Y4357487D1*
X2216522Y4361819D1*
X2225597Y4364768D1*
X2235020Y4366260D1*
X2244560D1*
X2253983Y4364768D1*
X2263058Y4361819D1*
X2271558Y4357487D1*
X2279277Y4351879D1*
X2286022Y4345134D1*
X2289776Y4340190D1*
X2293558Y4345134D1*
X2300303Y4351879D1*
X2308022Y4357487D1*
X2316522Y4361819D1*
X2325597Y4364768D1*
X2335020Y4366260D1*
X2344560D1*
X2353983Y4364768D1*
X2363058Y4361819D1*
X2371558Y4357487D1*
X2379277Y4351879D1*
X2386022Y4345134D1*
X2389776Y4340190D1*
X2393558Y4345134D1*
X2400303Y4351879D1*
X2408022Y4357487D1*
X2416522Y4361819D1*
X2425597Y4364768D1*
X2435020Y4366260D1*
X2444560D1*
X2453983Y4364768D1*
X2463058Y4361819D1*
X2471558Y4357487D1*
X2479277Y4351879D1*
X2486022Y4345134D1*
X2489776Y4340190D1*
X2493558Y4345134D1*
X2500303Y4351879D1*
X2508022Y4357487D1*
X2516522Y4361819D1*
X2525597Y4364768D1*
X2535020Y4366260D1*
X2544560D1*
X2553983Y4364768D1*
X2563058Y4361819D1*
X2571558Y4357487D1*
X2579277Y4351879D1*
X2586022Y4345134D1*
X2589776Y4340190D1*
X2593558Y4345134D1*
X2600303Y4351879D1*
X2608022Y4357487D1*
X2616522Y4361819D1*
X2625597Y4364768D1*
X2635020Y4366260D1*
X2644560D1*
X2653983Y4364768D1*
X2663058Y4361819D1*
X2671558Y4357487D1*
X2679277Y4351879D1*
X2686022Y4345134D1*
X2689776Y4340190D1*
X2693558Y4345134D1*
X2700303Y4351879D1*
X2708022Y4357487D1*
X2716522Y4361819D1*
X2725597Y4364768D1*
X2735020Y4366260D1*
X2744560D1*
X2753983Y4364768D1*
X2763058Y4361819D1*
X2771558Y4357487D1*
X2779277Y4351879D1*
X2786022Y4345134D1*
X2789776Y4340190D1*
X2793558Y4345134D1*
X2800303Y4351879D1*
X2808022Y4357487D1*
X2816522Y4361819D1*
X2825597Y4364768D1*
X2835020Y4366260D1*
X2844560D1*
X2853983Y4364768D1*
X2863058Y4361819D1*
X2871558Y4357487D1*
X2879277Y4351879D1*
X2886022Y4345134D1*
X2889776Y4340190D1*
X2893558Y4345134D1*
X2900303Y4351879D1*
X2908022Y4357487D1*
X2916522Y4361819D1*
X2925597Y4364768D1*
X2935020Y4366260D1*
X2944560D1*
X2953983Y4364768D1*
X2963058Y4361819D1*
X2971558Y4357487D1*
X2979454Y4351715D1*
X2979463Y4363474D1*
X3100118D1*
Y4242819D1*
X3085585D1*
X3085591Y3828364D1*
X3143366Y3770392D1*
X3147591Y3764577D1*
X3150853Y3758175D1*
X3153073Y3751339D1*
X3154198Y3744240D1*
X3154340Y3713088D1*
X3154198Y3662052D1*
X3153073Y3654954D1*
X3150853Y3648118D1*
X3147591Y3641715D1*
X3143366Y3635900D1*
X3121438Y3613773D1*
X3069535Y3562070D1*
X3063720Y3557845D1*
X3057318Y3554583D1*
X3050482Y3552362D1*
X3043383Y3551238D1*
X3016071Y3551096D1*
X3009996Y3548115D1*
X3002115Y3545555D1*
X2993933Y3544259D1*
X2985647D1*
X2977465Y3545555D1*
X2969584Y3548115D1*
X2962202Y3551877D1*
X2955499Y3556747D1*
X2949640Y3562605D1*
X2944770Y3569308D1*
X2941009Y3576690D1*
X2938449Y3584571D1*
X2937152Y3592753D1*
Y3601039D1*
X2938449Y3609222D1*
X2941009Y3617102D1*
X2944770Y3624484D1*
X2949640Y3631188D1*
X2955499Y3637046D1*
X2962202Y3641916D1*
X2969584Y3645677D1*
X2977465Y3648238D1*
X2985647Y3649534D1*
X2993933D1*
X3002115Y3648238D1*
X3009996Y3645677D1*
X3015979Y3642699D1*
X3020829Y3642697D1*
X3012188Y3646474D1*
X3004052Y3651459D1*
X2996798Y3657655D1*
X2990602Y3664909D1*
X2989804Y3666104D1*
X2986022Y3661160D1*
X2979277Y3654415D1*
X2971558Y3648807D1*
X2963058Y3644475D1*
X2953983Y3641526D1*
X2944560Y3640034D1*
X2935020D1*
X2925597Y3641526D1*
X2916522Y3644475D1*
X2908022Y3648807D1*
X2900303Y3654415D1*
X2893558Y3661160D1*
X2889804Y3666104D1*
X2886022Y3661160D1*
X2879277Y3654415D1*
X2871558Y3648807D1*
X2863058Y3644475D1*
X2853983Y3641526D1*
X2844560Y3640034D1*
X2835020D1*
X2825597Y3641526D1*
X2816522Y3644475D1*
X2808022Y3648807D1*
X2800303Y3654415D1*
X2793558Y3661160D1*
X2789804Y3666104D1*
X2786022Y3661160D1*
X2779277Y3654415D1*
X2771558Y3648807D1*
X2763058Y3644475D1*
X2753983Y3641526D1*
X2744560Y3640034D1*
X2735020D1*
X2725597Y3641526D1*
X2716522Y3644475D1*
X2708022Y3648807D1*
X2700303Y3654415D1*
X2693558Y3661160D1*
X2689804Y3666104D1*
X2686022Y3661160D1*
X2679277Y3654415D1*
X2671558Y3648807D1*
X2663058Y3644475D1*
X2653983Y3641526D1*
X2644560Y3640034D1*
X2635020D1*
X2625597Y3641526D1*
X2616522Y3644475D1*
X2608022Y3648807D1*
X2600303Y3654415D1*
X2593558Y3661160D1*
X2589804Y3666104D1*
X2586022Y3661160D1*
X2579277Y3654415D1*
X2571558Y3648807D1*
X2563058Y3644475D1*
X2553983Y3641526D1*
X2544560Y3640034D1*
X2535020D1*
X2525597Y3641526D1*
X2516522Y3644475D1*
X2508022Y3648807D1*
X2500303Y3654415D1*
X2493558Y3661160D1*
X2489804Y3666104D1*
X2486022Y3661160D1*
X2479277Y3654415D1*
X2471558Y3648807D1*
X2463058Y3644475D1*
X2453983Y3641526D1*
X2444560Y3640034D1*
X2435020D1*
X2425597Y3641526D1*
X2416522Y3644475D1*
X2408022Y3648807D1*
X2400303Y3654415D1*
X2393558Y3661160D1*
X2389804Y3666104D1*
X2386022Y3661160D1*
X2379277Y3654415D1*
X2371558Y3648807D1*
X2363058Y3644475D1*
X2353983Y3641526D1*
X2344560Y3640034D1*
X2335020D1*
X2325597Y3641526D1*
X2316522Y3644475D1*
X2308022Y3648807D1*
X2300303Y3654415D1*
X2293558Y3661160D1*
X2289804Y3666104D1*
X2286022Y3661160D1*
X2279277Y3654415D1*
X2271558Y3648807D1*
X2271054Y3648524D1*
X2277290Y3648948D1*
X2284455Y3648383D1*
X2291444Y3646705D1*
X2298083Y3643955D1*
X2304210Y3640199D1*
X2309676Y3635533D1*
X2314343Y3630067D1*
X2318098Y3623940D1*
X2320848Y3617301D1*
X2322526Y3610312D1*
X2323091Y3603147D1*
X2322949Y3599554D1*
X2119566Y3224598D2*
X2113720Y3220345D1*
X2107316Y3217083D1*
X2100482Y3214862D1*
X2093383Y3213738D1*
X2086197D1*
X2079098Y3214862D1*
X2072264Y3217083D1*
X2065860Y3220345D1*
X2060046Y3224570D1*
X2054963Y3229652D1*
X2050739Y3235466D1*
X2047476Y3241870D1*
X2045256Y3248705D1*
X2044131Y3255803D1*
Y3262990D1*
X2045256Y3270088D1*
X2047476Y3276923D1*
X2050739Y3283327D1*
X2054963Y3289140D1*
X2060046Y3294223D1*
X2065860Y3298448D1*
X2072264Y3301710D1*
X2079098Y3303930D1*
X2086197Y3305055D1*
X2093383D1*
X2100482Y3303930D1*
X2107316Y3301710D1*
X2113720Y3298448D1*
X2119566Y3294194D1*
X2153795Y3294223D1*
X2159609Y3298448D1*
X2166013Y3301710D1*
X2172848Y3303930D1*
X2179946Y3305055D1*
X2187133D1*
X2194231Y3303930D1*
X2201066Y3301710D1*
X2207470Y3298448D1*
X2213283Y3294223D1*
X2218366Y3289140D1*
X2222591Y3283327D1*
X2225853Y3276923D1*
X2228073Y3270088D1*
X2229198Y3262990D1*
Y3255803D1*
X2228073Y3248705D1*
X2225853Y3241870D1*
X2222591Y3235466D1*
X2218366Y3229652D1*
X2213283Y3224570D1*
X2207470Y3220345D1*
X2201066Y3217083D1*
X2194231Y3214862D1*
X2187133Y3213738D1*
X2179946D1*
X2172848Y3214862D1*
X2166013Y3217083D1*
X2159609Y3220345D1*
X2153764Y3224598D1*
X2119558Y3224596D1*
X1444566Y3087098D2*
X1438720Y3082845D1*
X1432316Y3079583D1*
X1425482Y3077362D1*
X1418383Y3076238D1*
X1411197D1*
X1404098Y3077362D1*
X1397264Y3079583D1*
X1390860Y3082845D1*
X1385046Y3087070D1*
X1379963Y3092152D1*
X1375739Y3097966D1*
X1372476Y3104370D1*
X1370256Y3111205D1*
X1369131Y3118303D1*
Y3125490D1*
X1370256Y3132588D1*
X1372476Y3139423D1*
X1375739Y3145827D1*
X1379963Y3151640D1*
X1385046Y3156723D1*
X1390860Y3160948D1*
X1397264Y3164210D1*
X1404098Y3166430D1*
X1411197Y3167555D1*
X1418383D1*
X1425482Y3166430D1*
X1432316Y3164210D1*
X1438720Y3160948D1*
X1444566Y3156694D1*
X1497546Y3156723D1*
X1503360Y3160948D1*
X1509764Y3164210D1*
X1516598Y3166430D1*
X1523697Y3167555D1*
X1530883D1*
X1537982Y3166430D1*
X1544816Y3164210D1*
X1551220Y3160948D1*
X1557034Y3156723D1*
X1562117Y3151640D1*
X1566341Y3145827D1*
X1569604Y3139423D1*
X1571824Y3132588D1*
X1572949Y3125490D1*
Y3118303D1*
X1571824Y3111205D1*
X1569604Y3104370D1*
X1566341Y3097966D1*
X1562117Y3092152D1*
X1557034Y3087070D1*
X1551220Y3082845D1*
X1544816Y3079583D1*
X1537982Y3077362D1*
X1530883Y3076238D1*
X1523697D1*
X1516598Y3077362D1*
X1509764Y3079583D1*
X1503360Y3082845D1*
X1497514Y3087098D1*
X1444577Y3087096D1*
X741699Y2668303D2*
X740575Y2661205D1*
X738354Y2654370D1*
X735092Y2647966D1*
X730867Y2642152D1*
X725785Y2637070D1*
X719971Y2632845D1*
X713567Y2629583D1*
X706732Y2627362D1*
X699340Y2626226D1*
X695597Y2623517D1*
X705020Y2625009D1*
X714560D1*
X723984Y2623517D1*
X733058Y2620568D1*
X741558Y2616236D1*
X749277Y2610629D1*
X749756Y2610186D1*
X769633Y2610055D1*
X776731Y2608930D1*
X783567Y2606710D1*
X789970Y2603448D1*
X795785Y2599223D1*
X817912Y2577295D1*
X830866Y2564142D1*
X835091Y2558327D1*
X838353Y2551924D1*
X840573Y2545088D1*
X841698Y2537990D1*
X841840Y2506837D1*
Y797094D1*
X946236Y692722D1*
X1475995Y692697D1*
X1482084Y695677D1*
X1489965Y698238D1*
X1498147Y699534D1*
X1506433D1*
X1514615Y698238D1*
X1522496Y695677D1*
X1529878Y691916D1*
X1536581Y687046D1*
X1542440Y681188D1*
X1547310Y674484D1*
X1551071Y667102D1*
X1553631Y659222D1*
X1554928Y651039D1*
Y642753D1*
X1553631Y634571D1*
X1551071Y626690D1*
X1547310Y619308D1*
X1542440Y612605D1*
X1536581Y606747D1*
X1529878Y601877D1*
X1522496Y598115D1*
X1514615Y595555D1*
X1506433Y594259D1*
X1498147D1*
X1489965Y595555D1*
X1482084Y598115D1*
X1476101Y601093D1*
X1014660Y601096D1*
X1014646Y423992D1*
X3611955Y424016D1*
X3612092Y612549D1*
X3613058Y615524D1*
X3614898Y618055D1*
X3617429Y619895D1*
X3620404Y620861D1*
X3640341Y620984D1*
X3860541Y620861D1*
X3863516Y619895D1*
X3866047Y618055D1*
X3867887Y615524D1*
X3868853Y612549D1*
X3868976Y592612D1*
Y423992D1*
X4136465Y424164D1*
X4143437Y424759D1*
X4150228Y426080D1*
X4158269Y428510D1*
X4164098Y431016D1*
X4169954Y434234D1*
X4175487Y438021D1*
X4180621Y442332D1*
X4185316Y447135D1*
X4189499Y452350D1*
X4193167Y458001D1*
X4196277Y463969D1*
X4198731Y470110D1*
X4200619Y476597D1*
X4201856Y483177D1*
X4202450Y490150D1*
X4202598Y506118D1*
X4202450Y4727016D1*
X4201856Y4733988D1*
X4200619Y4740568D1*
X4198731Y4747055D1*
X4196266Y4753220D1*
X4193155Y4759192D1*
X4189501Y4764812D1*
X4185324Y4770021D1*
X4180655Y4774785D1*
X4175455Y4779144D1*
X4169950Y4782924D1*
X4164049Y4786161D1*
X4157962Y4788768D1*
X4151543Y4790786D1*
X4144958Y4792181D1*
X4138100Y4792921D1*
X4124497Y4793150D1*
X836636D1*
X841060Y4786984D1*
X844822Y4779602D1*
X847382Y4771722D1*
X848678Y4763539D1*
Y4755253D1*
X847382Y4747071D1*
X844822Y4739190D1*
X841844Y4733207D1*
X841698Y2984552D1*
X840573Y2977454D1*
X838353Y2970618D1*
X835091Y2964215D1*
X830866Y2958400D1*
X808938Y2936273D1*
X770445Y2897781D1*
X769841Y2892385D1*
X767614Y2883108D1*
X765252Y2877088D1*
X771558Y2873736D1*
X779277Y2868129D1*
X786024Y2861383D1*
X791631Y2853664D1*
X795962Y2845164D1*
X798911Y2836089D1*
X800403Y2826667D1*
Y2817126D1*
X798911Y2807703D1*
X795962Y2798629D1*
X791631Y2790129D1*
X786024Y2782409D1*
X779277Y2775664D1*
X771558Y2770056D1*
X765276Y2766747D1*
X767614Y2760685D1*
X769841Y2751408D1*
X770591Y2741896D1*
X769841Y2732385D1*
X767614Y2723108D1*
X763963Y2714294D1*
X758979Y2706159D1*
X752782Y2698904D1*
X745528Y2692709D1*
X738744Y2688479D1*
X740575Y2682588D1*
X741699Y2675490D1*
Y2668303D1*
X1119341Y2667630D2*
X1124633Y2667555D1*
X1131731Y2666430D1*
X1138566Y2664210D1*
X1144970Y2660948D1*
X1150815Y2656694D1*
X1285046Y2656723D1*
X1290860Y2660948D1*
X1297264Y2664210D1*
X1304098Y2666430D1*
X1311197Y2667555D1*
X1318383D1*
X1325482Y2666430D1*
X1332316Y2664210D1*
X1338720Y2660948D1*
X1344534Y2656723D1*
X1349617Y2651640D1*
X1353841Y2645827D1*
X1356110Y2641579D1*
X1363567Y2639210D1*
X1369971Y2635948D1*
X1375785Y2631723D1*
X1380867Y2626640D1*
X1385092Y2620827D1*
X1388354Y2614423D1*
X1390575Y2607588D1*
X1390753Y2606693D1*
X1535046Y2606723D1*
X1540860Y2610948D1*
X1547264Y2614210D1*
X1554098Y2616430D1*
X1561197Y2617555D1*
X1568383D1*
X1575482Y2616430D1*
X1582316Y2614210D1*
X1588720Y2610948D1*
X1594534Y2606723D1*
X1599617Y2601640D1*
X1603841Y2595827D1*
X1607104Y2589423D1*
X1609324Y2582588D1*
X1610449Y2575490D1*
Y2568303D1*
X1609324Y2561205D1*
X1607104Y2554370D1*
X1603841Y2547966D1*
X1599617Y2542152D1*
X1594534Y2537070D1*
X1588720Y2532845D1*
X1582316Y2529583D1*
X1575482Y2527362D1*
X1568383Y2526238D1*
X1561197D1*
X1554098Y2527362D1*
X1547264Y2529583D1*
X1540860Y2532845D1*
X1535014Y2537098D1*
X1213283Y2537070D1*
X1207470Y2532845D1*
X1201066Y2529583D1*
X1194231Y2527362D1*
X1187133Y2526238D1*
X1179946D1*
X1172848Y2527362D1*
X1166013Y2529583D1*
X1159609Y2532845D1*
X1153795Y2537070D1*
X1148713Y2542152D1*
X1144488Y2547966D1*
X1142219Y2552214D1*
X1134764Y2554583D1*
X1127950Y2558118D1*
X1129198Y2550490D1*
Y2543303D1*
X1128073Y2536205D1*
X1125853Y2529370D1*
X1122591Y2522966D1*
X1118366Y2517152D1*
X1113283Y2512070D1*
X1107470Y2507845D1*
X1101066Y2504583D1*
X1094231Y2502362D1*
X1087133Y2501238D1*
X1079946D1*
X1072848Y2502362D1*
X1066013Y2504583D1*
X1064825Y2505130D1*
X1060193Y2503339D1*
X1053205Y2501660D1*
X1046039Y2501096D1*
X1038874Y2501660D1*
X1031886Y2503339D1*
X1027325Y2505130D1*
X1022694Y2503339D1*
X1015706Y2501660D1*
X1008541Y2501096D1*
X1001375Y2501660D1*
X994387Y2503339D1*
X987748Y2506088D1*
X981621Y2509844D1*
X976155Y2514510D1*
X971488Y2519976D1*
X967732Y2526104D1*
X964983Y2532743D1*
X963304Y2539731D1*
X962740Y2546896D1*
X963304Y2554062D1*
X964983Y2561050D1*
X967732Y2567689D1*
X971488Y2573816D1*
X972749Y2575416D1*
X972850Y2712205D1*
X973730Y2717753D1*
X975466Y2723096D1*
X978016Y2728102D1*
X981318Y2732647D1*
X1001975Y2753461D1*
X1006247Y2757109D1*
X1011037Y2760043D1*
X1016227Y2762193D1*
X1021690Y2763505D1*
X1027290Y2763946D1*
X1092492D1*
X1097109Y2767197D1*
X1103513Y2770459D1*
X1110348Y2772680D1*
X1117446Y2773804D1*
X1124633D1*
X1131731Y2772680D1*
X1138566Y2770459D1*
X1144970Y2767197D1*
X1150783Y2762972D1*
X1155866Y2757890D1*
X1160091Y2752076D1*
X1163353Y2745672D1*
X1165573Y2738837D1*
X1166698Y2731739D1*
Y2724552D1*
X1165573Y2717454D1*
X1163353Y2710619D1*
X1160091Y2704215D1*
X1155866Y2698402D1*
X1150783Y2693319D1*
X1144970Y2689094D1*
X1138566Y2685832D1*
X1131731Y2683612D1*
X1127097Y2682743D1*
X1124348Y2676104D1*
X1120592Y2669976D1*
X1119331Y2668377D1*
X2335449Y2249554D2*
X2334324Y2242455D1*
X2332104Y2235621D1*
X2328841Y2229217D1*
X2324617Y2223403D1*
X2319534Y2218320D1*
X2313720Y2214096D1*
X2307316Y2210833D1*
X2300482Y2208613D1*
X2293341Y2207487D1*
X2285449Y2199552D1*
X2284324Y2192454D1*
X2282104Y2185619D1*
X2278841Y2179215D1*
X2274617Y2173402D1*
X2269534Y2168319D1*
X2263720Y2164094D1*
X2257316Y2160832D1*
X2250482Y2158612D1*
X2243383Y2157487D1*
X2236197D1*
X2229098Y2158612D1*
X2222264Y2160832D1*
X2215860Y2164094D1*
X2210046Y2168319D1*
X2204963Y2173402D1*
X2200739Y2179215D1*
X2197476Y2185619D1*
X2195256Y2192454D1*
X2194131Y2199552D1*
Y2206739D1*
X2195256Y2213837D1*
X2197476Y2220672D1*
X2200739Y2227076D1*
X2204963Y2232890D1*
X2210046Y2237972D1*
X2215860Y2242197D1*
X2222264Y2245459D1*
X2229098Y2247680D1*
X2236239Y2248806D1*
X2244131Y2256740D1*
X2245256Y2263839D1*
X2247476Y2270673D1*
X2250739Y2277077D1*
X2254963Y2282891D1*
X2260046Y2287974D1*
X2265860Y2292198D1*
X2272264Y2295461D1*
X2279098Y2297681D1*
X2286197Y2298806D1*
X2293383D1*
X2300482Y2297681D1*
X2307316Y2295461D1*
X2313720Y2292198D1*
X2319534Y2287974D1*
X2324617Y2282891D1*
X2328841Y2277077D1*
X2332104Y2270673D1*
X2334324Y2263839D1*
X2335449Y2256740D1*
Y2249554D1*
X2119566Y1868349D2*
X2113720Y1864096D1*
X2107316Y1860833D1*
X2100482Y1858613D1*
X2093383Y1857488D1*
X2086197D1*
X2079098Y1858613D1*
X2072264Y1860833D1*
X2065860Y1864096D1*
X2060046Y1868320D1*
X2054963Y1873403D1*
X2050739Y1879217D1*
X2047476Y1885621D1*
X2045256Y1892455D1*
X2044131Y1899554D1*
Y1906740D1*
X2045256Y1913839D1*
X2047476Y1920673D1*
X2050739Y1927077D1*
X2054963Y1932891D1*
X2060046Y1937974D1*
X2065860Y1942198D1*
X2072264Y1945461D1*
X2079098Y1947681D1*
X2086197Y1948806D1*
X2093383D1*
X2100482Y1947681D1*
X2107316Y1945461D1*
X2113720Y1942198D1*
X2119566Y1937945D1*
X2153797Y1937972D1*
X2159610Y1942197D1*
X2166014Y1945459D1*
X2172849Y1947680D1*
X2179948Y1948804D1*
X2187134D1*
X2194232Y1947680D1*
X2201067Y1945459D1*
X2207471Y1942197D1*
X2213285Y1937972D1*
X2218367Y1932890D1*
X2222592Y1927076D1*
X2225854Y1920672D1*
X2228075Y1913837D1*
X2229199Y1906739D1*
Y1899552D1*
X2228075Y1892454D1*
X2225854Y1885619D1*
X2222592Y1879215D1*
X2218367Y1873402D1*
X2213285Y1868319D1*
X2207471Y1864094D1*
X2201067Y1860832D1*
X2194232Y1858612D1*
X2187134Y1857487D1*
X2179948D1*
X2172849Y1858612D1*
X2166014Y1860832D1*
X2159610Y1864094D1*
X2153765Y1868348D1*
X2119559Y1868345D1*
X1469566Y1730848D2*
X1463720Y1726594D1*
X1457316Y1723332D1*
X1450482Y1721112D1*
X1443383Y1719987D1*
X1436197D1*
X1429098Y1721112D1*
X1422264Y1723332D1*
X1415860Y1726594D1*
X1410046Y1730819D1*
X1404963Y1735902D1*
X1400739Y1741715D1*
X1397476Y1748119D1*
X1395256Y1754954D1*
X1394131Y1762052D1*
Y1769239D1*
X1395256Y1776337D1*
X1397476Y1783172D1*
X1400739Y1789576D1*
X1404963Y1795390D1*
X1410046Y1800472D1*
X1415860Y1804697D1*
X1422264Y1807959D1*
X1429098Y1810180D1*
X1436197Y1811304D1*
X1443383D1*
X1450482Y1810180D1*
X1457316Y1807959D1*
X1463720Y1804697D1*
X1469566Y1800444D1*
X1485046Y1800474D1*
X1490860Y1804698D1*
X1497264Y1807961D1*
X1504098Y1810181D1*
X1511197Y1811306D1*
X1518383D1*
X1525482Y1810181D1*
X1532316Y1807961D1*
X1538720Y1804698D1*
X1544534Y1800474D1*
X1549617Y1795391D1*
X1553841Y1789577D1*
X1557104Y1783173D1*
X1559324Y1776339D1*
X1560449Y1769240D1*
Y1762054D1*
X1559324Y1754955D1*
X1557104Y1748121D1*
X1553841Y1741717D1*
X1549617Y1735903D1*
X1544534Y1730820D1*
X1538720Y1726596D1*
X1532316Y1723333D1*
X1525482Y1721113D1*
X1518383Y1719988D1*
X1511197D1*
X1504098Y1721113D1*
X1497264Y1723333D1*
X1490860Y1726596D1*
X1485014Y1730849D1*
X1469541Y1730846D1*
X1119348Y1315440D2*
X1126375Y1317133D1*
X1133541Y1317697D1*
X1140706Y1317133D1*
X1147694Y1315454D1*
X1154333Y1312705D1*
X1160461Y1308949D1*
X1163316Y1306694D1*
X1278795Y1306723D1*
X1284609Y1310948D1*
X1291013Y1314210D1*
X1297848Y1316430D1*
X1304946Y1317555D1*
X1312133D1*
X1319231Y1316430D1*
X1326066Y1314210D1*
X1332470Y1310948D1*
X1338283Y1306723D1*
X1343366Y1301640D1*
X1347591Y1295827D1*
X1350853Y1289423D1*
X1352491Y1284656D1*
X1357316Y1282959D1*
X1363720Y1279697D1*
X1369534Y1275472D1*
X1374617Y1270390D1*
X1378841Y1264576D1*
X1382104Y1258172D1*
X1384324Y1251337D1*
X1384503Y1250442D1*
X1535046Y1250472D1*
X1540860Y1254697D1*
X1547264Y1257959D1*
X1554098Y1260180D1*
X1561197Y1261304D1*
X1568383D1*
X1575482Y1260180D1*
X1582316Y1257959D1*
X1588720Y1254697D1*
X1594534Y1250472D1*
X1599617Y1245390D1*
X1603841Y1239576D1*
X1607104Y1233172D1*
X1609324Y1226337D1*
X1610449Y1219239D1*
Y1212052D1*
X1609324Y1204954D1*
X1607104Y1198119D1*
X1603841Y1191715D1*
X1599617Y1185902D1*
X1594534Y1180819D1*
X1588720Y1176594D1*
X1582316Y1173332D1*
X1575482Y1171112D1*
X1568383Y1169987D1*
X1561197D1*
X1554098Y1171112D1*
X1547264Y1173332D1*
X1540860Y1176594D1*
X1535014Y1180848D1*
X1219534Y1180819D1*
X1213720Y1176594D1*
X1207316Y1173332D1*
X1200482Y1171112D1*
X1193383Y1169987D1*
X1186197D1*
X1179098Y1171112D1*
X1172264Y1173332D1*
X1165860Y1176594D1*
X1160046Y1180819D1*
X1154963Y1185902D1*
X1150739Y1191715D1*
X1148470Y1195963D1*
X1141014Y1198332D1*
X1134610Y1201594D1*
X1128797Y1205819D1*
X1123714Y1210902D1*
X1119345Y1216972D1*
X1120593Y1211316D1*
X1124349Y1205189D1*
X1127098Y1198550D1*
X1128777Y1191562D1*
X1129341Y1184396D1*
X1128777Y1177231D1*
X1127098Y1170243D1*
X1124349Y1163604D1*
X1120593Y1157476D1*
X1115927Y1152010D1*
X1110461Y1147344D1*
X1104333Y1143588D1*
X1097694Y1140839D1*
X1090706Y1139160D1*
X1083541Y1138596D1*
X1076375Y1139160D1*
X1069387Y1140839D1*
X1064827Y1142630D1*
X1060193Y1140839D1*
X1053205Y1139160D1*
X1046039Y1138596D1*
X1038874Y1139160D1*
X1031886Y1140839D1*
X1025247Y1143588D1*
X1019119Y1147344D1*
X1013654Y1152010D1*
X1008987Y1157476D1*
X1005231Y1163604D1*
X1002482Y1170243D1*
X1000803Y1177231D1*
X1000239Y1184396D1*
X1000803Y1191562D1*
X1002482Y1198550D1*
X1005231Y1205189D1*
X1008987Y1211316D1*
X1010248Y1212916D1*
X1010239Y1318352D1*
X1006988Y1322966D1*
X1003726Y1329370D1*
X1001505Y1336205D1*
X1000381Y1343303D1*
Y1350490D1*
X1001505Y1357588D1*
X1003726Y1364423D1*
X1006988Y1370827D1*
X1011213Y1376640D1*
X1016295Y1381723D1*
X1022109Y1385948D1*
X1028513Y1389210D1*
X1035348Y1391430D1*
X1042446Y1392555D1*
X1049633D1*
X1056731Y1391430D1*
X1063566Y1389210D1*
X1064753Y1388663D1*
X1069388Y1390454D1*
X1076377Y1392133D1*
X1083542Y1392697D1*
X1090707Y1392133D1*
X1097696Y1390454D1*
X1104335Y1387705D1*
X1110462Y1383949D1*
X1115928Y1379282D1*
X1120594Y1373816D1*
X1124350Y1367689D1*
X1127100Y1361050D1*
X1128778Y1354062D1*
X1129343Y1346896D1*
X1128778Y1339731D1*
X1127100Y1332743D1*
X1124350Y1326104D1*
X1120594Y1319976D1*
X1119333Y1318377D1*
X2329199Y899554D2*
X2328075Y892455D1*
X2325854Y885621D1*
X2322592Y879217D1*
X2318367Y873403D1*
X2313285Y868320D1*
X2307471Y864096D1*
X2301067Y860833D1*
X2294232Y858613D1*
X2287092Y857487D1*
X2279199Y849554D1*
X2278075Y842455D1*
X2275854Y835621D1*
X2272592Y829217D1*
X2268367Y823403D1*
X2263285Y818320D1*
X2257471Y814096D1*
X2251067Y810833D1*
X2244232Y808613D1*
X2237134Y807488D1*
X2229948D1*
X2222849Y808613D1*
X2216014Y810833D1*
X2209610Y814096D1*
X2203797Y818320D1*
X2198714Y823403D1*
X2194490Y829217D1*
X2191227Y835621D1*
X2189007Y842455D1*
X2187882Y849554D1*
Y856740D1*
X2189007Y863839D1*
X2191227Y870673D1*
X2194490Y877077D1*
X2198714Y882891D1*
X2203797Y887974D1*
X2209610Y892198D1*
X2216014Y895461D1*
X2222849Y897681D1*
X2229990Y898807D1*
X2237882Y906740D1*
X2239007Y913839D1*
X2241227Y920673D1*
X2244490Y927077D1*
X2248714Y932891D1*
X2253797Y937974D1*
X2259610Y942198D1*
X2266014Y945461D1*
X2272849Y947681D1*
X2279948Y948806D1*
X2287134D1*
X2294232Y947681D1*
X2301067Y945461D1*
X2307471Y942198D1*
X2313285Y937974D1*
X2318367Y932891D1*
X2322592Y927077D1*
X2325854Y920673D1*
X2328075Y913839D1*
X2329199Y906740D1*
Y899554D1*
X1529199Y762054D2*
X1528075Y754955D1*
X1525854Y748121D1*
X1522592Y741717D1*
X1518367Y735903D1*
X1513285Y730820D1*
X1507471Y726596D1*
X1501067Y723333D1*
X1494232Y721113D1*
X1487134Y719988D1*
X1479948D1*
X1472849Y721113D1*
X1466014Y723333D1*
X1459610Y726596D1*
X1453797Y730820D1*
X1448714Y735903D1*
X1444490Y741717D1*
X1441227Y748121D1*
X1439007Y754955D1*
X1438066Y760505D1*
X1411848Y786438D1*
X1414597Y779799D1*
X1416276Y772811D1*
X1416840Y765646D1*
X1416276Y758480D1*
X1414597Y751492D1*
X1411848Y744853D1*
X1408092Y738726D1*
X1403425Y733260D1*
X1397959Y728593D1*
X1391832Y724837D1*
X1385193Y722088D1*
X1378205Y720409D1*
X1371039Y719845D1*
X1363874Y720409D1*
X1356886Y722088D1*
X1350247Y724837D1*
X1344119Y728593D1*
X1338654Y733260D1*
X1333987Y738726D1*
X1330231Y744853D1*
X1327482Y751492D1*
X1325803Y758480D1*
X1325564Y760504D1*
X1145906Y940151D1*
X1139790Y939845D1*
X1130278Y940594D1*
X1121001Y942822D1*
X1112188Y946472D1*
X1104052Y951458D1*
X1096798Y957654D1*
X1090602Y964908D1*
X1085617Y973043D1*
X1081966Y981857D1*
X1079739Y991134D1*
X1078991Y1000664D1*
X1079177Y1010416D1*
X1080669Y1019839D1*
X1083618Y1028913D1*
X1087950Y1037413D1*
X1093558Y1045133D1*
X1100303Y1051878D1*
X1108022Y1057486D1*
X1116522Y1061818D1*
X1125597Y1064766D1*
X1135020Y1066259D1*
X1144560D1*
X1153983Y1064766D1*
X1163058Y1061818D1*
X1171558Y1057486D1*
X1179277Y1051878D1*
X1186022Y1045133D1*
X1189776Y1040189D1*
X1193558Y1045133D1*
X1200303Y1051878D1*
X1208022Y1057486D1*
X1216522Y1061818D1*
X1225597Y1064766D1*
X1235020Y1066259D1*
X1244560D1*
X1253983Y1064766D1*
X1263058Y1061818D1*
X1271558Y1057486D1*
X1279277Y1051878D1*
X1286022Y1045133D1*
X1289776Y1040189D1*
X1293558Y1045133D1*
X1300303Y1051878D1*
X1308022Y1057486D1*
X1316522Y1061818D1*
X1325597Y1064766D1*
X1335020Y1066259D1*
X1344560D1*
X1353983Y1064766D1*
X1363058Y1061818D1*
X1371558Y1057486D1*
X1379277Y1051878D1*
X1386022Y1045133D1*
X1389776Y1040189D1*
X1393558Y1045133D1*
X1400303Y1051878D1*
X1408022Y1057486D1*
X1416522Y1061818D1*
X1425597Y1064766D1*
X1435020Y1066259D1*
X1444560D1*
X1453983Y1064766D1*
X1463058Y1061818D1*
X1471558Y1057486D1*
X1479277Y1051878D1*
X1486022Y1045133D1*
X1489776Y1040189D1*
X1493558Y1045133D1*
X1500303Y1051878D1*
X1508022Y1057486D1*
X1516522Y1061818D1*
X1525597Y1064766D1*
X1535020Y1066259D1*
X1544560D1*
X1553983Y1064766D1*
X1563058Y1061818D1*
X1571558Y1057486D1*
X1579277Y1051878D1*
X1586022Y1045133D1*
X1589776Y1040189D1*
X1593558Y1045133D1*
X1600303Y1051878D1*
X1608022Y1057486D1*
X1616522Y1061818D1*
X1625597Y1064766D1*
X1635020Y1066259D1*
X1644560D1*
X1653983Y1064766D1*
X1663058Y1061818D1*
X1671558Y1057486D1*
X1679277Y1051878D1*
X1686022Y1045133D1*
X1689776Y1040189D1*
X1693558Y1045133D1*
X1700303Y1051878D1*
X1708022Y1057486D1*
X1716522Y1061818D1*
X1725597Y1064766D1*
X1735020Y1066259D1*
X1744560D1*
X1753983Y1064766D1*
X1763058Y1061818D1*
X1771558Y1057486D1*
X1779277Y1051878D1*
X1786022Y1045133D1*
X1789776Y1040189D1*
X1793558Y1045133D1*
X1800303Y1051878D1*
X1808022Y1057486D1*
X1816522Y1061818D1*
X1825597Y1064766D1*
X1835020Y1066259D1*
X1844560D1*
X1853983Y1064766D1*
X1863058Y1061818D1*
X1871558Y1057486D1*
X1879277Y1051878D1*
X1886022Y1045133D1*
X1889776Y1040189D1*
X1893558Y1045133D1*
X1900303Y1051878D1*
X1908022Y1057486D1*
X1916522Y1061818D1*
X1925597Y1064766D1*
X1935020Y1066259D1*
X1944560D1*
X1953983Y1064766D1*
X1963058Y1061818D1*
X1971558Y1057486D1*
X1979277Y1051878D1*
X1986022Y1045133D1*
X1989776Y1040189D1*
X1993558Y1045133D1*
X2000303Y1051878D1*
X2008022Y1057486D1*
X2016522Y1061818D1*
X2025597Y1064766D1*
X2035020Y1066259D1*
X2044560D1*
X2053983Y1064766D1*
X2063058Y1061818D1*
X2071558Y1057486D1*
X2079277Y1051878D1*
X2086022Y1045133D1*
X2089776Y1040189D1*
X2093558Y1045133D1*
X2100303Y1051878D1*
X2108022Y1057486D1*
X2116522Y1061818D1*
X2125597Y1064766D1*
X2135020Y1066259D1*
X2144560D1*
X2153983Y1064766D1*
X2163058Y1061818D1*
X2171558Y1057486D1*
X2179277Y1051878D1*
X2186022Y1045133D1*
X2189776Y1040189D1*
X2193558Y1045133D1*
X2200303Y1051878D1*
X2208022Y1057486D1*
X2216522Y1061818D1*
X2225597Y1064766D1*
X2235020Y1066259D1*
X2244560D1*
X2253983Y1064766D1*
X2263058Y1061818D1*
X2271558Y1057486D1*
X2279277Y1051878D1*
X2286022Y1045133D1*
X2289776Y1040189D1*
X2293558Y1045133D1*
X2300303Y1051878D1*
X2308022Y1057486D1*
X2316522Y1061818D1*
X2325597Y1064766D1*
X2335020Y1066259D1*
X2344560D1*
X2353983Y1064766D1*
X2363058Y1061818D1*
X2371558Y1057486D1*
X2379277Y1051878D1*
X2386022Y1045133D1*
X2389776Y1040189D1*
X2393558Y1045133D1*
X2400303Y1051878D1*
X2408022Y1057486D1*
X2416522Y1061818D1*
X2425597Y1064766D1*
X2435020Y1066259D1*
X2444560D1*
X2453983Y1064766D1*
X2463058Y1061818D1*
X2471558Y1057486D1*
X2479277Y1051878D1*
X2486022Y1045133D1*
X2489776Y1040189D1*
X2493558Y1045133D1*
X2500303Y1051878D1*
X2508022Y1057486D1*
X2516522Y1061818D1*
X2525597Y1064766D1*
X2535020Y1066259D1*
X2544560D1*
X2553983Y1064766D1*
X2563058Y1061818D1*
X2571558Y1057486D1*
X2579277Y1051878D1*
X2586022Y1045133D1*
X2589776Y1040189D1*
X2593558Y1045133D1*
X2600303Y1051878D1*
X2608022Y1057486D1*
X2616522Y1061818D1*
X2625597Y1064766D1*
X2635020Y1066259D1*
X2644560D1*
X2653983Y1064766D1*
X2663058Y1061818D1*
X2671558Y1057486D1*
X2679277Y1051878D1*
X2686022Y1045133D1*
X2689776Y1040189D1*
X2693558Y1045133D1*
X2700303Y1051878D1*
X2708022Y1057486D1*
X2716522Y1061818D1*
X2725597Y1064766D1*
X2735020Y1066259D1*
X2744560D1*
X2753983Y1064766D1*
X2763058Y1061818D1*
X2771558Y1057486D1*
X2779277Y1051878D1*
X2786022Y1045133D1*
X2789776Y1040189D1*
X2793558Y1045133D1*
X2800303Y1051878D1*
X2808022Y1057486D1*
X2816522Y1061818D1*
X2825597Y1064766D1*
X2835020Y1066259D1*
X2844560D1*
X2853983Y1064766D1*
X2863058Y1061818D1*
X2871558Y1057486D1*
X2879277Y1051878D1*
X2886022Y1045133D1*
X2889776Y1040189D1*
X2893558Y1045133D1*
X2900303Y1051878D1*
X2908022Y1057486D1*
X2916522Y1061818D1*
X2925597Y1064766D1*
X2935020Y1066259D1*
X2944560D1*
X2953983Y1064766D1*
X2963058Y1061818D1*
X2971558Y1057486D1*
X2979277Y1051878D1*
X2986022Y1045133D1*
X2989776Y1040189D1*
X2993558Y1045133D1*
X3000303Y1051878D1*
X3008022Y1057486D1*
X3016522Y1061818D1*
X3025597Y1064766D1*
X3035020Y1066259D1*
X3044560D1*
X3053983Y1064766D1*
X3063058Y1061818D1*
X3071558Y1057486D1*
X3079277Y1051878D1*
X3086022Y1045133D1*
X3091630Y1037413D1*
X3095962Y1028913D1*
X3098911Y1019839D1*
X3100403Y1010416D1*
X3100554Y1000646D1*
X3099841Y991134D1*
X3097614Y981857D1*
X3093963Y973043D1*
X3088978Y964908D1*
X3082782Y957654D1*
X3075528Y951458D1*
X3067392Y946472D1*
X3058579Y942822D1*
X3049302Y940594D1*
X3039790Y939845D1*
X3030278Y940594D1*
X3021001Y942822D1*
X3012188Y946472D1*
X3004052Y951458D1*
X2996798Y957654D1*
X2990602Y964908D1*
X2989804Y966102D1*
X2986022Y961159D1*
X2979277Y954413D1*
X2971558Y948806D1*
X2963058Y944474D1*
X2953983Y941525D1*
X2944560Y940033D1*
X2935020D1*
X2925597Y941525D1*
X2916522Y944474D1*
X2908022Y948806D1*
X2900303Y954413D1*
X2893558Y961159D1*
X2889804Y966102D1*
X2886022Y961159D1*
X2879277Y954413D1*
X2871558Y948806D1*
X2863058Y944474D1*
X2853983Y941525D1*
X2844560Y940033D1*
X2835020D1*
X2825597Y941525D1*
X2816522Y944474D1*
X2808022Y948806D1*
X2800303Y954413D1*
X2793558Y961159D1*
X2789804Y966102D1*
X2786022Y961159D1*
X2779277Y954413D1*
X2771558Y948806D1*
X2763058Y944474D1*
X2753983Y941525D1*
X2744560Y940033D1*
X2735020D1*
X2725597Y941525D1*
X2716522Y944474D1*
X2708022Y948806D1*
X2700303Y954413D1*
X2693558Y961159D1*
X2689804Y966102D1*
X2686022Y961159D1*
X2679277Y954413D1*
X2671558Y948806D1*
X2663058Y944474D1*
X2653983Y941525D1*
X2644560Y940033D1*
X2635020D1*
X2625597Y941525D1*
X2616522Y944474D1*
X2608022Y948806D1*
X2600303Y954413D1*
X2593558Y961159D1*
X2589804Y966102D1*
X2586022Y961159D1*
X2579277Y954413D1*
X2571558Y948806D1*
X2563058Y944474D1*
X2553983Y941525D1*
X2544560Y940033D1*
X2535020D1*
X2525597Y941525D1*
X2516522Y944474D1*
X2508022Y948806D1*
X2500303Y954413D1*
X2493558Y961159D1*
X2489804Y966102D1*
X2486022Y961159D1*
X2479277Y954413D1*
X2471558Y948806D1*
X2463058Y944474D1*
X2453983Y941525D1*
X2444560Y940033D1*
X2435020D1*
X2425597Y941525D1*
X2416522Y944474D1*
X2408022Y948806D1*
X2400303Y954413D1*
X2393558Y961159D1*
X2389804Y966102D1*
X2386022Y961159D1*
X2379277Y954413D1*
X2371558Y948806D1*
X2363058Y944474D1*
X2353983Y941525D1*
X2344560Y940033D1*
X2335020D1*
X2325597Y941525D1*
X2316522Y944474D1*
X2308022Y948806D1*
X2300303Y954413D1*
X2293558Y961159D1*
X2289804Y966102D1*
X2286022Y961159D1*
X2279277Y954413D1*
X2271558Y948806D1*
X2263058Y944474D1*
X2253983Y941525D1*
X2244560Y940033D1*
X2235020D1*
X2225597Y941525D1*
X2216522Y944474D1*
X2208022Y948806D1*
X2200303Y954413D1*
X2193558Y961159D1*
X2189804Y966102D1*
X2186022Y961159D1*
X2179277Y954413D1*
X2171558Y948806D1*
X2163058Y944474D1*
X2153983Y941525D1*
X2144560Y940033D1*
X2135020D1*
X2125597Y941525D1*
X2116522Y944474D1*
X2108022Y948806D1*
X2100303Y954413D1*
X2093558Y961159D1*
X2089804Y966102D1*
X2086022Y961159D1*
X2079277Y954413D1*
X2071558Y948806D1*
X2063058Y944474D1*
X2053983Y941525D1*
X2044560Y940033D1*
X2035020D1*
X2025597Y941525D1*
X2016522Y944474D1*
X2008022Y948806D1*
X2000303Y954413D1*
X1993558Y961159D1*
X1989804Y966102D1*
X1986022Y961159D1*
X1979277Y954413D1*
X1971558Y948806D1*
X1963058Y944474D1*
X1953983Y941525D1*
X1944560Y940033D1*
X1935020D1*
X1925597Y941525D1*
X1916522Y944474D1*
X1908022Y948806D1*
X1900303Y954413D1*
X1893558Y961159D1*
X1889804Y966102D1*
X1886022Y961159D1*
X1879277Y954413D1*
X1871558Y948806D1*
X1863058Y944474D1*
X1853983Y941525D1*
X1844560Y940033D1*
X1835020D1*
X1825597Y941525D1*
X1816522Y944474D1*
X1808022Y948806D1*
X1800303Y954413D1*
X1793558Y961159D1*
X1789804Y966102D1*
X1786022Y961159D1*
X1779277Y954413D1*
X1771558Y948806D1*
X1763058Y944474D1*
X1753983Y941525D1*
X1744560Y940033D1*
X1735020D1*
X1725597Y941525D1*
X1716522Y944474D1*
X1708022Y948806D1*
X1700303Y954413D1*
X1693558Y961159D1*
X1689804Y966102D1*
X1686022Y961159D1*
X1679277Y954413D1*
X1671558Y948806D1*
X1663058Y944474D1*
X1653983Y941525D1*
X1644560Y940033D1*
X1635020D1*
X1625597Y941525D1*
X1616522Y944474D1*
X1608022Y948806D1*
X1600303Y954413D1*
X1593558Y961159D1*
X1589804Y966102D1*
X1586022Y961159D1*
X1579277Y954413D1*
X1571558Y948806D1*
X1563058Y944474D1*
X1553983Y941525D1*
X1544560Y940033D1*
X1535020D1*
X1525597Y941525D1*
X1516522Y944474D1*
X1508022Y948806D1*
X1500303Y954413D1*
X1493558Y961159D1*
X1489804Y966102D1*
X1486022Y961159D1*
X1479277Y954413D1*
X1471558Y948806D1*
X1463058Y944474D1*
X1453983Y941525D1*
X1444560Y940033D1*
X1435020D1*
X1425597Y941525D1*
X1416522Y944474D1*
X1408022Y948806D1*
X1400303Y954413D1*
X1393558Y961159D1*
X1389804Y966102D1*
X1386022Y961159D1*
X1379277Y954413D1*
X1371558Y948806D1*
X1363058Y944474D1*
X1357340Y942472D1*
X1488634Y811182D1*
X1494232Y810181D1*
X1501067Y807961D1*
X1507471Y804698D1*
X1513285Y800474D1*
X1518367Y795391D1*
X1522592Y789577D1*
X1525854Y783173D1*
X1528075Y776339D1*
X1529199Y769240D1*
Y762054D1*
X1119331Y1712916D2*
X1122591Y1708327D1*
X1125853Y1701923D1*
X1127101Y1698535D1*
X1131732Y1697681D1*
X1138567Y1695461D1*
X1144971Y1692198D1*
X1150785Y1687974D1*
X1155867Y1682891D1*
X1160092Y1677077D1*
X1163354Y1670673D1*
X1165575Y1663839D1*
X1166505Y1660261D1*
X1172896Y1656642D1*
X1178804Y1652278D1*
X1184142Y1647234D1*
X1188833Y1641581D1*
X1189793Y1640230D1*
X1193558Y1645133D1*
X1200303Y1651878D1*
X1208022Y1657486D1*
X1216522Y1661818D1*
X1225597Y1664766D1*
X1235020Y1666259D1*
X1244560D1*
X1253983Y1664766D1*
X1263058Y1661818D1*
X1271558Y1657486D1*
X1279277Y1651878D1*
X1286022Y1645133D1*
X1289776Y1640189D1*
X1293558Y1645133D1*
X1300303Y1651878D1*
X1308022Y1657486D1*
X1316522Y1661818D1*
X1325597Y1664766D1*
X1335020Y1666259D1*
X1344560D1*
X1353983Y1664766D1*
X1363058Y1661818D1*
X1371558Y1657486D1*
X1379277Y1651878D1*
X1386022Y1645133D1*
X1389776Y1640189D1*
X1393558Y1645133D1*
X1400303Y1651878D1*
X1408022Y1657486D1*
X1416522Y1661818D1*
X1425597Y1664766D1*
X1435020Y1666259D1*
X1444560D1*
X1453983Y1664766D1*
X1463058Y1661818D1*
X1471558Y1657486D1*
X1479277Y1651878D1*
X1486022Y1645133D1*
X1489776Y1640189D1*
X1493558Y1645133D1*
X1500303Y1651878D1*
X1508022Y1657486D1*
X1516522Y1661818D1*
X1525597Y1664766D1*
X1535020Y1666259D1*
X1544560D1*
X1553983Y1664766D1*
X1563058Y1661818D1*
X1571558Y1657486D1*
X1579277Y1651878D1*
X1586022Y1645133D1*
X1589776Y1640189D1*
X1593558Y1645133D1*
X1600303Y1651878D1*
X1608022Y1657486D1*
X1616522Y1661818D1*
X1625597Y1664766D1*
X1635020Y1666259D1*
X1644560D1*
X1653983Y1664766D1*
X1663058Y1661818D1*
X1671558Y1657486D1*
X1679277Y1651878D1*
X1686022Y1645133D1*
X1689776Y1640189D1*
X1693558Y1645133D1*
X1700303Y1651878D1*
X1708022Y1657486D1*
X1716522Y1661818D1*
X1725597Y1664766D1*
X1735020Y1666259D1*
X1744560D1*
X1753983Y1664766D1*
X1763058Y1661818D1*
X1771558Y1657486D1*
X1779277Y1651878D1*
X1786022Y1645133D1*
X1789776Y1640189D1*
X1793558Y1645133D1*
X1800303Y1651878D1*
X1808022Y1657486D1*
X1816522Y1661818D1*
X1825597Y1664766D1*
X1835020Y1666259D1*
X1844560D1*
X1853983Y1664766D1*
X1863058Y1661818D1*
X1871558Y1657486D1*
X1879277Y1651878D1*
X1886022Y1645133D1*
X1889776Y1640189D1*
X1893558Y1645133D1*
X1900303Y1651878D1*
X1908022Y1657486D1*
X1916522Y1661818D1*
X1925597Y1664766D1*
X1935020Y1666259D1*
X1944560D1*
X1953983Y1664766D1*
X1963058Y1661818D1*
X1971558Y1657486D1*
X1979277Y1651878D1*
X1986022Y1645133D1*
X1989776Y1640189D1*
X1993558Y1645133D1*
X2000303Y1651878D1*
X2008022Y1657486D1*
X2016522Y1661818D1*
X2025597Y1664766D1*
X2035020Y1666259D1*
X2044560D1*
X2053983Y1664766D1*
X2063058Y1661818D1*
X2071558Y1657486D1*
X2079277Y1651878D1*
X2086022Y1645133D1*
X2089776Y1640189D1*
X2093558Y1645133D1*
X2100303Y1651878D1*
X2108022Y1657486D1*
X2116522Y1661818D1*
X2125597Y1664766D1*
X2135020Y1666259D1*
X2144560D1*
X2153983Y1664766D1*
X2163058Y1661818D1*
X2171558Y1657486D1*
X2179277Y1651878D1*
X2186022Y1645133D1*
X2189776Y1640189D1*
X2193558Y1645133D1*
X2200303Y1651878D1*
X2208022Y1657486D1*
X2216522Y1661818D1*
X2225597Y1664766D1*
X2235020Y1666259D1*
X2244560D1*
X2253983Y1664766D1*
X2263058Y1661818D1*
X2271558Y1657486D1*
X2279277Y1651878D1*
X2286022Y1645133D1*
X2289776Y1640189D1*
X2293558Y1645133D1*
X2300303Y1651878D1*
X2308022Y1657486D1*
X2316522Y1661818D1*
X2325597Y1664766D1*
X2335020Y1666259D1*
X2344560D1*
X2353983Y1664766D1*
X2363058Y1661818D1*
X2371558Y1657486D1*
X2379277Y1651878D1*
X2386022Y1645133D1*
X2389776Y1640189D1*
X2393558Y1645133D1*
X2400303Y1651878D1*
X2408022Y1657486D1*
X2416522Y1661818D1*
X2425597Y1664766D1*
X2435020Y1666259D1*
X2444560D1*
X2453983Y1664766D1*
X2463058Y1661818D1*
X2471558Y1657486D1*
X2479277Y1651878D1*
X2486022Y1645133D1*
X2489776Y1640189D1*
X2493558Y1645133D1*
X2500303Y1651878D1*
X2508022Y1657486D1*
X2516522Y1661818D1*
X2525597Y1664766D1*
X2535020Y1666259D1*
X2544560D1*
X2553983Y1664766D1*
X2563058Y1661818D1*
X2571558Y1657486D1*
X2579277Y1651878D1*
X2586022Y1645133D1*
X2589776Y1640189D1*
X2593558Y1645133D1*
X2600303Y1651878D1*
X2608022Y1657486D1*
X2616522Y1661818D1*
X2625597Y1664766D1*
X2635020Y1666259D1*
X2644560D1*
X2653983Y1664766D1*
X2663058Y1661818D1*
X2671558Y1657486D1*
X2679277Y1651878D1*
X2686022Y1645133D1*
X2689776Y1640189D1*
X2693558Y1645133D1*
X2700303Y1651878D1*
X2708022Y1657486D1*
X2716522Y1661818D1*
X2725597Y1664766D1*
X2735020Y1666259D1*
X2744560D1*
X2753983Y1664766D1*
X2763058Y1661818D1*
X2771558Y1657486D1*
X2779277Y1651878D1*
X2786022Y1645133D1*
X2789776Y1640189D1*
X2793558Y1645133D1*
X2800303Y1651878D1*
X2808022Y1657486D1*
X2816522Y1661818D1*
X2825597Y1664766D1*
X2835020Y1666259D1*
X2844560D1*
X2853983Y1664766D1*
X2863058Y1661818D1*
X2871558Y1657486D1*
X2879277Y1651878D1*
X2886022Y1645133D1*
X2889776Y1640189D1*
X2893558Y1645133D1*
X2900303Y1651878D1*
X2908022Y1657486D1*
X2916522Y1661818D1*
X2925597Y1664766D1*
X2935020Y1666259D1*
X2944560D1*
X2953983Y1664766D1*
X2963058Y1661818D1*
X2971558Y1657486D1*
X2979454Y1651714D1*
X2979463Y1663472D1*
X3100118D1*
Y1542818D1*
X2979463D1*
X2979277Y1554413D1*
X2971558Y1548806D1*
X2963058Y1544474D1*
X2953983Y1541525D1*
X2944560Y1540033D1*
X2935020D1*
X2925597Y1541525D1*
X2916522Y1544474D1*
X2908022Y1548806D1*
X2900303Y1554413D1*
X2893558Y1561159D1*
X2889804Y1566102D1*
X2886022Y1561159D1*
X2879277Y1554413D1*
X2871558Y1548806D1*
X2863058Y1544474D1*
X2853983Y1541525D1*
X2844560Y1540033D1*
X2835020D1*
X2825597Y1541525D1*
X2816522Y1544474D1*
X2808022Y1548806D1*
X2800303Y1554413D1*
X2793558Y1561159D1*
X2789804Y1566102D1*
X2786022Y1561159D1*
X2779277Y1554413D1*
X2771558Y1548806D1*
X2763058Y1544474D1*
X2753983Y1541525D1*
X2744560Y1540033D1*
X2735020D1*
X2725597Y1541525D1*
X2716522Y1544474D1*
X2708022Y1548806D1*
X2700303Y1554413D1*
X2693558Y1561159D1*
X2689804Y1566102D1*
X2686022Y1561159D1*
X2679277Y1554413D1*
X2671558Y1548806D1*
X2663058Y1544474D1*
X2653983Y1541525D1*
X2644560Y1540033D1*
X2635020D1*
X2625597Y1541525D1*
X2616522Y1544474D1*
X2608022Y1548806D1*
X2600303Y1554413D1*
X2593558Y1561159D1*
X2589804Y1566102D1*
X2586022Y1561159D1*
X2579277Y1554413D1*
X2571558Y1548806D1*
X2563058Y1544474D1*
X2553983Y1541525D1*
X2544560Y1540033D1*
X2535020D1*
X2525597Y1541525D1*
X2516522Y1544474D1*
X2508022Y1548806D1*
X2500303Y1554413D1*
X2493558Y1561159D1*
X2489804Y1566102D1*
X2486022Y1561159D1*
X2479277Y1554413D1*
X2471558Y1548806D1*
X2463058Y1544474D1*
X2453983Y1541525D1*
X2444560Y1540033D1*
X2435020D1*
X2425597Y1541525D1*
X2416522Y1544474D1*
X2408022Y1548806D1*
X2400303Y1554413D1*
X2393558Y1561159D1*
X2389804Y1566102D1*
X2386022Y1561159D1*
X2379277Y1554413D1*
X2371558Y1548806D1*
X2363058Y1544474D1*
X2353983Y1541525D1*
X2344560Y1540033D1*
X2335020D1*
X2325597Y1541525D1*
X2316522Y1544474D1*
X2308022Y1548806D1*
X2300303Y1554413D1*
X2293558Y1561159D1*
X2289804Y1566102D1*
X2286022Y1561159D1*
X2279277Y1554413D1*
X2271558Y1548806D1*
X2263058Y1544474D1*
X2253983Y1541525D1*
X2244560Y1540033D1*
X2235020D1*
X2225597Y1541525D1*
X2216522Y1544474D1*
X2208022Y1548806D1*
X2200303Y1554413D1*
X2193558Y1561159D1*
X2189804Y1566102D1*
X2186022Y1561159D1*
X2179277Y1554413D1*
X2171558Y1548806D1*
X2163058Y1544474D1*
X2153983Y1541525D1*
X2144560Y1540033D1*
X2135020D1*
X2125597Y1541525D1*
X2116522Y1544474D1*
X2108022Y1548806D1*
X2100303Y1554413D1*
X2093558Y1561159D1*
X2089804Y1566102D1*
X2086022Y1561159D1*
X2079277Y1554413D1*
X2071558Y1548806D1*
X2063058Y1544474D1*
X2053983Y1541525D1*
X2044560Y1540033D1*
X2035020D1*
X2025597Y1541525D1*
X2016522Y1544474D1*
X2008022Y1548806D1*
X2000303Y1554413D1*
X1993558Y1561159D1*
X1989804Y1566102D1*
X1986022Y1561159D1*
X1979277Y1554413D1*
X1971558Y1548806D1*
X1963058Y1544474D1*
X1953983Y1541525D1*
X1944560Y1540033D1*
X1935020D1*
X1925597Y1541525D1*
X1916522Y1544474D1*
X1908022Y1548806D1*
X1900303Y1554413D1*
X1893558Y1561159D1*
X1889804Y1566102D1*
X1886022Y1561159D1*
X1879277Y1554413D1*
X1871558Y1548806D1*
X1863058Y1544474D1*
X1853983Y1541525D1*
X1844560Y1540033D1*
X1835020D1*
X1825597Y1541525D1*
X1816522Y1544474D1*
X1808022Y1548806D1*
X1800303Y1554413D1*
X1793558Y1561159D1*
X1789804Y1566102D1*
X1786022Y1561159D1*
X1779277Y1554413D1*
X1771558Y1548806D1*
X1763058Y1544474D1*
X1753983Y1541525D1*
X1744560Y1540033D1*
X1735020D1*
X1725597Y1541525D1*
X1716522Y1544474D1*
X1708022Y1548806D1*
X1700303Y1554413D1*
X1693558Y1561159D1*
X1689804Y1566102D1*
X1686022Y1561159D1*
X1679277Y1554413D1*
X1671558Y1548806D1*
X1663058Y1544474D1*
X1653983Y1541525D1*
X1644560Y1540033D1*
X1635020D1*
X1625597Y1541525D1*
X1616522Y1544474D1*
X1608022Y1548806D1*
X1600303Y1554413D1*
X1593558Y1561159D1*
X1589804Y1566102D1*
X1586022Y1561159D1*
X1579277Y1554413D1*
X1571558Y1548806D1*
X1563058Y1544474D1*
X1553983Y1541525D1*
X1544560Y1540033D1*
X1535020D1*
X1525597Y1541525D1*
X1516522Y1544474D1*
X1508022Y1548806D1*
X1500303Y1554413D1*
X1493558Y1561159D1*
X1489804Y1566102D1*
X1486022Y1561159D1*
X1479277Y1554413D1*
X1471558Y1548806D1*
X1463058Y1544474D1*
X1453983Y1541525D1*
X1444560Y1540033D1*
X1435020D1*
X1425597Y1541525D1*
X1416522Y1544474D1*
X1408022Y1548806D1*
X1400303Y1554413D1*
X1393558Y1561159D1*
X1389804Y1566102D1*
X1386022Y1561159D1*
X1379277Y1554413D1*
X1371558Y1548806D1*
X1363058Y1544474D1*
X1353983Y1541525D1*
X1344560Y1540033D1*
X1335020D1*
X1325597Y1541525D1*
X1316522Y1544474D1*
X1308022Y1548806D1*
X1300303Y1554413D1*
X1293558Y1561159D1*
X1289804Y1566102D1*
X1286022Y1561159D1*
X1279277Y1554413D1*
X1271558Y1548806D1*
X1263058Y1544474D1*
X1253983Y1541525D1*
X1244560Y1540033D1*
X1235020D1*
X1225597Y1541525D1*
X1216522Y1544474D1*
X1208022Y1548806D1*
X1200303Y1554413D1*
X1193558Y1561159D1*
X1189804Y1566102D1*
X1185289Y1560316D1*
X1180094Y1555125D1*
X1174311Y1550597D1*
X1168025Y1546799D1*
X1161325Y1543787D1*
X1154312Y1541605D1*
X1147088Y1540285D1*
X1139756Y1539845D1*
X1132425Y1540294D1*
X1125202Y1541622D1*
X1118192Y1543811D1*
X1111496Y1546831D1*
X1105214Y1550635D1*
X1099436Y1555169D1*
X1094247Y1560366D1*
X1089722Y1566152D1*
X1085928Y1572441D1*
X1082920Y1579142D1*
X1080741Y1586156D1*
X1079425Y1593382D1*
X1078991Y1600720D1*
X1079245Y1611217D1*
X1080133Y1617344D1*
X1024482Y1617457D1*
X1018933Y1618336D1*
X1013591Y1620072D1*
X1008584Y1622622D1*
X1004039Y1625924D1*
X983226Y1646581D1*
X979577Y1650853D1*
X976643Y1655643D1*
X974492Y1660833D1*
X973181Y1666297D1*
X972741Y1671907D1*
X972740Y1974580D1*
X969490Y1979217D1*
X966227Y1985621D1*
X964007Y1992455D1*
X962882Y1999554D1*
Y2006740D1*
X964007Y2013839D1*
X966227Y2020673D1*
X969490Y2027077D1*
X973714Y2032891D1*
X978797Y2037974D1*
X984610Y2042198D1*
X991014Y2045461D1*
X997849Y2047681D1*
X1004948Y2048806D1*
X1012134D1*
X1019232Y2047681D1*
X1026067Y2045461D1*
X1027255Y2044913D1*
X1031883Y2046703D1*
X1038871Y2048382D1*
X1046037Y2048946D1*
X1053202Y2048382D1*
X1060190Y2046703D1*
X1064751Y2044912D1*
X1069386Y2046703D1*
X1076374Y2048382D1*
X1083539Y2048946D1*
X1090705Y2048382D1*
X1097693Y2046703D1*
X1104332Y2043954D1*
X1110459Y2040198D1*
X1115925Y2035531D1*
X1120592Y2030066D1*
X1124348Y2023938D1*
X1127097Y2017299D1*
X1128776Y2010311D1*
X1129340Y2003146D1*
X1128776Y1995980D1*
X1127097Y1988992D1*
X1124348Y1982353D1*
X1120592Y1976226D1*
X1119331Y1974626D1*
X1119340Y1712950D1*
X1064752Y2073879D2*
X1060192Y2072088D1*
X1053203Y2070409D1*
X1046038Y2069845D1*
X1038873Y2070409D1*
X1031885Y2072088D1*
X1027324Y2073879D1*
X1022693Y2072088D1*
X1015705Y2070409D1*
X1008539Y2069845D1*
X1001374Y2070409D1*
X994386Y2072088D1*
X987747Y2074837D1*
X981619Y2078593D1*
X976154Y2083260D1*
X971487Y2088726D1*
X967731Y2094853D1*
X964982Y2101492D1*
X963303Y2108480D1*
X962739Y2115646D1*
X963303Y2122811D1*
X964982Y2129799D1*
X967731Y2136438D1*
X971487Y2142566D1*
X972748Y2144165D1*
X972739Y2380866D1*
X969490Y2385466D1*
X966227Y2391870D1*
X964007Y2398705D1*
X962882Y2405803D1*
Y2412990D1*
X964007Y2420088D1*
X966227Y2426923D1*
X969490Y2433327D1*
X973714Y2439140D1*
X978797Y2444223D1*
X984610Y2448448D1*
X991014Y2451710D1*
X997849Y2453930D1*
X1004948Y2455055D1*
X1012134D1*
X1019232Y2453930D1*
X1026067Y2451710D1*
X1032471Y2448448D1*
X1038285Y2444223D1*
X1043367Y2439140D1*
X1047592Y2433327D1*
X1050854Y2426923D1*
X1053075Y2420088D1*
X1054199Y2412990D1*
Y2405803D1*
X1053075Y2398705D1*
X1050854Y2391870D1*
X1047592Y2385466D1*
X1044332Y2380877D1*
X1044340Y2308311D1*
X1079413Y2343398D1*
X1078991Y2350664D1*
X1079177Y2360416D1*
X1080669Y2369839D1*
X1083618Y2378913D1*
X1087950Y2387413D1*
X1093558Y2395133D1*
X1100303Y2401878D1*
X1108022Y2407486D1*
X1116522Y2411818D1*
X1125597Y2414766D1*
X1135020Y2416259D1*
X1144560D1*
X1153983Y2414766D1*
X1163058Y2411818D1*
X1171558Y2407486D1*
X1179277Y2401878D1*
X1186022Y2395133D1*
X1189776Y2390189D1*
X1193558Y2395133D1*
X1200303Y2401878D1*
X1208022Y2407486D1*
X1216522Y2411818D1*
X1225597Y2414766D1*
X1235020Y2416259D1*
X1244560D1*
X1253983Y2414766D1*
X1263058Y2411818D1*
X1271558Y2407486D1*
X1279277Y2401878D1*
X1286022Y2395133D1*
X1289776Y2390189D1*
X1293558Y2395133D1*
X1300303Y2401878D1*
X1308022Y2407486D1*
X1316522Y2411818D1*
X1325597Y2414766D1*
X1335020Y2416259D1*
X1344560D1*
X1353983Y2414766D1*
X1363058Y2411818D1*
X1371558Y2407486D1*
X1379277Y2401878D1*
X1386022Y2395133D1*
X1389776Y2390189D1*
X1393558Y2395133D1*
X1400303Y2401878D1*
X1408022Y2407486D1*
X1416522Y2411818D1*
X1425597Y2414766D1*
X1435020Y2416259D1*
X1444560D1*
X1453983Y2414766D1*
X1463058Y2411818D1*
X1471558Y2407486D1*
X1479277Y2401878D1*
X1486022Y2395133D1*
X1489776Y2390189D1*
X1493558Y2395133D1*
X1500303Y2401878D1*
X1508022Y2407486D1*
X1516522Y2411818D1*
X1525597Y2414766D1*
X1535020Y2416259D1*
X1544560D1*
X1553983Y2414766D1*
X1563058Y2411818D1*
X1571558Y2407486D1*
X1579277Y2401878D1*
X1586022Y2395133D1*
X1589776Y2390189D1*
X1593558Y2395133D1*
X1600303Y2401878D1*
X1608022Y2407486D1*
X1616522Y2411818D1*
X1625597Y2414766D1*
X1635020Y2416259D1*
X1644560D1*
X1653983Y2414766D1*
X1663058Y2411818D1*
X1671558Y2407486D1*
X1679277Y2401878D1*
X1686022Y2395133D1*
X1689776Y2390189D1*
X1693558Y2395133D1*
X1700303Y2401878D1*
X1708022Y2407486D1*
X1716522Y2411818D1*
X1725597Y2414766D1*
X1735020Y2416259D1*
X1744560D1*
X1753983Y2414766D1*
X1763058Y2411818D1*
X1771558Y2407486D1*
X1779277Y2401878D1*
X1786022Y2395133D1*
X1789776Y2390189D1*
X1793558Y2395133D1*
X1800303Y2401878D1*
X1808022Y2407486D1*
X1816522Y2411818D1*
X1825597Y2414766D1*
X1835020Y2416259D1*
X1844560D1*
X1853983Y2414766D1*
X1863058Y2411818D1*
X1871558Y2407486D1*
X1879277Y2401878D1*
X1886022Y2395133D1*
X1889776Y2390189D1*
X1893558Y2395133D1*
X1900303Y2401878D1*
X1908022Y2407486D1*
X1916522Y2411818D1*
X1925597Y2414766D1*
X1935020Y2416259D1*
X1944560D1*
X1953983Y2414766D1*
X1963058Y2411818D1*
X1971558Y2407486D1*
X1979277Y2401878D1*
X1986022Y2395133D1*
X1989776Y2390189D1*
X1993558Y2395133D1*
X2000303Y2401878D1*
X2008022Y2407486D1*
X2016522Y2411818D1*
X2025597Y2414766D1*
X2035020Y2416259D1*
X2044560D1*
X2053983Y2414766D1*
X2063058Y2411818D1*
X2071558Y2407486D1*
X2079277Y2401878D1*
X2086022Y2395133D1*
X2089776Y2390189D1*
X2093558Y2395133D1*
X2100303Y2401878D1*
X2108022Y2407486D1*
X2116522Y2411818D1*
X2125597Y2414766D1*
X2135020Y2416259D1*
X2144560D1*
X2153983Y2414766D1*
X2163058Y2411818D1*
X2171558Y2407486D1*
X2179277Y2401878D1*
X2186022Y2395133D1*
X2189776Y2390189D1*
X2193558Y2395133D1*
X2200303Y2401878D1*
X2208022Y2407486D1*
X2216522Y2411818D1*
X2225597Y2414766D1*
X2235020Y2416259D1*
X2244560D1*
X2253983Y2414766D1*
X2263058Y2411818D1*
X2271558Y2407486D1*
X2279277Y2401878D1*
X2286022Y2395133D1*
X2289776Y2390189D1*
X2293558Y2395133D1*
X2300303Y2401878D1*
X2308022Y2407486D1*
X2316522Y2411818D1*
X2325597Y2414766D1*
X2335020Y2416259D1*
X2344560D1*
X2353983Y2414766D1*
X2363058Y2411818D1*
X2371558Y2407486D1*
X2379277Y2401878D1*
X2386022Y2395133D1*
X2389776Y2390189D1*
X2393558Y2395133D1*
X2400303Y2401878D1*
X2408022Y2407486D1*
X2416522Y2411818D1*
X2425597Y2414766D1*
X2435020Y2416259D1*
X2444560D1*
X2453983Y2414766D1*
X2463058Y2411818D1*
X2471558Y2407486D1*
X2479277Y2401878D1*
X2486022Y2395133D1*
X2489776Y2390189D1*
X2493558Y2395133D1*
X2500303Y2401878D1*
X2508022Y2407486D1*
X2516522Y2411818D1*
X2525597Y2414766D1*
X2535020Y2416259D1*
X2544560D1*
X2553983Y2414766D1*
X2563058Y2411818D1*
X2571558Y2407486D1*
X2579277Y2401878D1*
X2586022Y2395133D1*
X2589776Y2390189D1*
X2593558Y2395133D1*
X2600303Y2401878D1*
X2608022Y2407486D1*
X2616522Y2411818D1*
X2625597Y2414766D1*
X2635020Y2416259D1*
X2644560D1*
X2653983Y2414766D1*
X2663058Y2411818D1*
X2671558Y2407486D1*
X2679277Y2401878D1*
X2686022Y2395133D1*
X2689776Y2390189D1*
X2693558Y2395133D1*
X2700303Y2401878D1*
X2708022Y2407486D1*
X2716522Y2411818D1*
X2725597Y2414766D1*
X2735020Y2416259D1*
X2744560D1*
X2753983Y2414766D1*
X2763058Y2411818D1*
X2771558Y2407486D1*
X2779277Y2401878D1*
X2786022Y2395133D1*
X2789776Y2390189D1*
X2793558Y2395133D1*
X2800303Y2401878D1*
X2808022Y2407486D1*
X2816522Y2411818D1*
X2825597Y2414766D1*
X2835020Y2416259D1*
X2844560D1*
X2853983Y2414766D1*
X2863058Y2411818D1*
X2871558Y2407486D1*
X2879277Y2401878D1*
X2886022Y2395133D1*
X2889776Y2390189D1*
X2893558Y2395133D1*
X2900303Y2401878D1*
X2908022Y2407486D1*
X2916522Y2411818D1*
X2925597Y2414766D1*
X2935020Y2416259D1*
X2944560D1*
X2953983Y2414766D1*
X2963058Y2411818D1*
X2971558Y2407486D1*
X2979277Y2401878D1*
X2986022Y2395133D1*
X2989776Y2390189D1*
X2993558Y2395133D1*
X3000303Y2401878D1*
X3008022Y2407486D1*
X3016522Y2411818D1*
X3025597Y2414766D1*
X3035020Y2416259D1*
X3044560D1*
X3053983Y2414766D1*
X3063058Y2411818D1*
X3071558Y2407486D1*
X3079277Y2401878D1*
X3086022Y2395133D1*
X3091630Y2387413D1*
X3095962Y2378913D1*
X3098911Y2369839D1*
X3100403Y2360416D1*
X3100554Y2350646D1*
X3099841Y2341134D1*
X3097614Y2331857D1*
X3093963Y2323043D1*
X3088978Y2314908D1*
X3082782Y2307654D1*
X3075528Y2301458D1*
X3067392Y2296472D1*
X3058579Y2292822D1*
X3049302Y2290594D1*
X3039790Y2289845D1*
X3030278Y2290594D1*
X3021001Y2292822D1*
X3012188Y2296472D1*
X3004052Y2301458D1*
X2996798Y2307654D1*
X2990602Y2314908D1*
X2989804Y2316102D1*
X2986022Y2311159D1*
X2979277Y2304413D1*
X2971558Y2298806D1*
X2963058Y2294474D1*
X2953983Y2291525D1*
X2944560Y2290033D1*
X2935020D1*
X2925597Y2291525D1*
X2916522Y2294474D1*
X2908022Y2298806D1*
X2900303Y2304413D1*
X2893558Y2311159D1*
X2889804Y2316102D1*
X2886022Y2311159D1*
X2879277Y2304413D1*
X2871558Y2298806D1*
X2863058Y2294474D1*
X2853983Y2291525D1*
X2844560Y2290033D1*
X2835020D1*
X2825597Y2291525D1*
X2816522Y2294474D1*
X2808022Y2298806D1*
X2800303Y2304413D1*
X2793558Y2311159D1*
X2789804Y2316102D1*
X2786022Y2311159D1*
X2779277Y2304413D1*
X2771558Y2298806D1*
X2763058Y2294474D1*
X2753983Y2291525D1*
X2744560Y2290033D1*
X2735020D1*
X2725597Y2291525D1*
X2716522Y2294474D1*
X2708022Y2298806D1*
X2700303Y2304413D1*
X2693558Y2311159D1*
X2689804Y2316102D1*
X2686022Y2311159D1*
X2679277Y2304413D1*
X2671558Y2298806D1*
X2663058Y2294474D1*
X2653983Y2291525D1*
X2644560Y2290033D1*
X2635020D1*
X2625597Y2291525D1*
X2616522Y2294474D1*
X2608022Y2298806D1*
X2600303Y2304413D1*
X2593558Y2311159D1*
X2589804Y2316102D1*
X2586022Y2311159D1*
X2579277Y2304413D1*
X2571558Y2298806D1*
X2563058Y2294474D1*
X2553983Y2291525D1*
X2544560Y2290033D1*
X2535020D1*
X2525597Y2291525D1*
X2516522Y2294474D1*
X2508022Y2298806D1*
X2500303Y2304413D1*
X2493558Y2311159D1*
X2489804Y2316102D1*
X2486022Y2311159D1*
X2479277Y2304413D1*
X2471558Y2298806D1*
X2463058Y2294474D1*
X2453983Y2291525D1*
X2444560Y2290033D1*
X2435020D1*
X2425597Y2291525D1*
X2416522Y2294474D1*
X2408022Y2298806D1*
X2400303Y2304413D1*
X2393558Y2311159D1*
X2389804Y2316102D1*
X2386022Y2311159D1*
X2379277Y2304413D1*
X2371558Y2298806D1*
X2363058Y2294474D1*
X2353983Y2291525D1*
X2344560Y2290033D1*
X2335020D1*
X2325597Y2291525D1*
X2316522Y2294474D1*
X2308022Y2298806D1*
X2300303Y2304413D1*
X2293558Y2311159D1*
X2289804Y2316102D1*
X2286022Y2311159D1*
X2279277Y2304413D1*
X2271558Y2298806D1*
X2263058Y2294474D1*
X2253983Y2291525D1*
X2244560Y2290033D1*
X2235020D1*
X2225597Y2291525D1*
X2216522Y2294474D1*
X2208022Y2298806D1*
X2200303Y2304413D1*
X2193558Y2311159D1*
X2189804Y2316102D1*
X2186022Y2311159D1*
X2179277Y2304413D1*
X2171558Y2298806D1*
X2163058Y2294474D1*
X2153983Y2291525D1*
X2144560Y2290033D1*
X2135020D1*
X2125597Y2291525D1*
X2116522Y2294474D1*
X2108022Y2298806D1*
X2100303Y2304413D1*
X2093558Y2311159D1*
X2089804Y2316102D1*
X2086022Y2311159D1*
X2079277Y2304413D1*
X2071558Y2298806D1*
X2063058Y2294474D1*
X2053983Y2291525D1*
X2044560Y2290033D1*
X2035020D1*
X2025597Y2291525D1*
X2016522Y2294474D1*
X2008022Y2298806D1*
X2000303Y2304413D1*
X1993558Y2311159D1*
X1989804Y2316102D1*
X1986022Y2311159D1*
X1979277Y2304413D1*
X1971558Y2298806D1*
X1963058Y2294474D1*
X1953983Y2291525D1*
X1944560Y2290033D1*
X1935020D1*
X1925597Y2291525D1*
X1916522Y2294474D1*
X1908022Y2298806D1*
X1900303Y2304413D1*
X1893558Y2311159D1*
X1889804Y2316102D1*
X1886022Y2311159D1*
X1879277Y2304413D1*
X1871558Y2298806D1*
X1863058Y2294474D1*
X1853983Y2291525D1*
X1844560Y2290033D1*
X1835020D1*
X1825597Y2291525D1*
X1816522Y2294474D1*
X1808022Y2298806D1*
X1800303Y2304413D1*
X1793558Y2311159D1*
X1789804Y2316102D1*
X1786022Y2311159D1*
X1779277Y2304413D1*
X1771558Y2298806D1*
X1763058Y2294474D1*
X1753983Y2291525D1*
X1744560Y2290033D1*
X1735020D1*
X1725597Y2291525D1*
X1716522Y2294474D1*
X1708022Y2298806D1*
X1700303Y2304413D1*
X1693558Y2311159D1*
X1689804Y2316102D1*
X1686022Y2311159D1*
X1679277Y2304413D1*
X1671558Y2298806D1*
X1663058Y2294474D1*
X1653983Y2291525D1*
X1644560Y2290033D1*
X1635020D1*
X1625597Y2291525D1*
X1616522Y2294474D1*
X1608022Y2298806D1*
X1600303Y2304413D1*
X1593558Y2311159D1*
X1589804Y2316102D1*
X1586022Y2311159D1*
X1579277Y2304413D1*
X1571558Y2298806D1*
X1563058Y2294474D1*
X1553983Y2291525D1*
X1544560Y2290033D1*
X1535020D1*
X1525597Y2291525D1*
X1516522Y2294474D1*
X1508022Y2298806D1*
X1500303Y2304413D1*
X1493558Y2311159D1*
X1489804Y2316102D1*
X1486022Y2311159D1*
X1479277Y2304413D1*
X1471558Y2298806D1*
X1463058Y2294474D1*
X1453983Y2291525D1*
X1444560Y2290033D1*
X1435020D1*
X1425597Y2291525D1*
X1416522Y2294474D1*
X1408022Y2298806D1*
X1400303Y2304413D1*
X1393558Y2311159D1*
X1389804Y2316102D1*
X1386022Y2311159D1*
X1379277Y2304413D1*
X1371558Y2298806D1*
X1363058Y2294474D1*
X1353983Y2291525D1*
X1344560Y2290033D1*
X1335020D1*
X1325597Y2291525D1*
X1316522Y2294474D1*
X1308022Y2298806D1*
X1300303Y2304413D1*
X1293558Y2311159D1*
X1289804Y2316102D1*
X1286022Y2311159D1*
X1279277Y2304413D1*
X1271558Y2298806D1*
X1263058Y2294474D1*
X1253983Y2291525D1*
X1244560Y2290033D1*
X1235020D1*
X1228285Y2290991D1*
X1119331Y2182058D1*
X1119340Y2144181D1*
X1122591Y2139576D1*
X1125853Y2133172D1*
X1128073Y2126337D1*
X1129198Y2119239D1*
Y2112052D1*
X1128073Y2104954D1*
X1125853Y2098119D1*
X1122591Y2091715D1*
X1118366Y2085902D1*
X1113283Y2080819D1*
X1107470Y2076594D1*
X1101066Y2073332D1*
X1094231Y2071112D1*
X1087133Y2069987D1*
X1079946D1*
X1072848Y2071112D1*
X1066013Y2073332D1*
X1064825Y2073879D1*
X1054198Y3893303D2*
X1053073Y3886205D1*
X1050853Y3879370D1*
X1047591Y3872966D1*
X1043366Y3867152D1*
X1038283Y3862070D1*
X1032470Y3857845D1*
X1026066Y3854583D1*
X1019231Y3852362D1*
X1012133Y3851238D1*
X1004946D1*
X997848Y3852362D1*
X991013Y3854583D1*
X984609Y3857845D1*
X978795Y3862070D1*
X973713Y3867152D1*
X969488Y3872966D1*
X966226Y3879370D1*
X964005Y3886205D1*
X962881Y3893303D1*
Y3900490D1*
X964005Y3907588D1*
X966226Y3914423D1*
X969488Y3920827D1*
X972748Y3925416D1*
X972739Y4018365D1*
X969488Y4022966D1*
X966226Y4029370D1*
X964005Y4036205D1*
X962881Y4043303D1*
Y4050490D1*
X964005Y4057588D1*
X966226Y4064423D1*
X969488Y4070827D1*
X973713Y4076640D1*
X978795Y4081723D1*
X984609Y4085948D1*
X991013Y4089210D1*
X997848Y4091430D1*
X1004946Y4092555D1*
X1012133D1*
X1019231Y4091430D1*
X1026066Y4089210D1*
X1032470Y4085948D1*
X1038283Y4081723D1*
X1043366Y4076640D1*
X1047591Y4070827D1*
X1050853Y4064423D1*
X1053073Y4057588D1*
X1054198Y4050490D1*
Y4043303D1*
X1053073Y4036205D1*
X1050853Y4029370D1*
X1047591Y4022966D1*
X1044331Y4018377D1*
X1044340Y3925428D1*
X1047591Y3920827D1*
X1050853Y3914423D1*
X1053073Y3907588D1*
X1054198Y3900490D1*
Y3893303D1*
X3810248Y2768377D2*
X3806988Y2772966D1*
X3803726Y2779370D1*
X3801505Y2786205D1*
X3800381Y2793303D1*
Y2800490D1*
X3801505Y2807588D1*
X3803726Y2814423D1*
X3806988Y2820827D1*
X3811213Y2826640D1*
X3816295Y2831723D1*
X3822109Y2835948D1*
X3828513Y2839210D1*
X3835348Y2841430D1*
X3842446Y2842555D1*
X3849633D1*
X3851684Y2842312D1*
X3856619Y2846449D1*
X3862747Y2850205D1*
X3869386Y2852954D1*
X3876374Y2854633D1*
X3883539Y2855197D1*
X3890705Y2854633D1*
X3897693Y2852954D1*
X3904332Y2850205D1*
X3910459Y2846449D1*
X3915925Y2841782D1*
X3920592Y2836316D1*
X3924348Y2830189D1*
X3927097Y2823550D1*
X3928776Y2816562D1*
X3929340Y2809396D1*
X3928776Y2802231D1*
X3927097Y2795243D1*
X3924348Y2788604D1*
X3920592Y2782476D1*
X3919331Y2780877D1*
X3919340Y2694244D1*
X3922592Y2689576D1*
X3925854Y2683172D1*
X3928075Y2676337D1*
X3929199Y2669239D1*
Y2662052D1*
X3928075Y2654954D1*
X3925854Y2648119D1*
X3922592Y2641715D1*
X3919332Y2637126D1*
X3919341Y2587957D1*
X3922592Y2583327D1*
X3925854Y2576923D1*
X3928075Y2570088D1*
X3929199Y2562990D1*
Y2555803D1*
X3928075Y2548705D1*
X3925854Y2541870D1*
X3922592Y2535466D1*
X3918367Y2529652D1*
X3913285Y2524570D1*
X3907471Y2520345D1*
X3901067Y2517083D1*
X3896301Y2515445D1*
X3894604Y2510621D1*
X3891341Y2504217D1*
X3887117Y2498403D1*
X3882034Y2493320D1*
X3876220Y2489096D1*
X3869816Y2485833D1*
X3862982Y2483613D1*
X3855883Y2482488D1*
X3848697D1*
X3841598Y2483613D1*
X3834764Y2485833D1*
X3828360Y2489096D1*
X3822546Y2493320D1*
X3817463Y2498403D1*
X3813239Y2504217D1*
X3809976Y2510621D1*
X3807756Y2517455D1*
X3806631Y2524554D1*
Y2531740D1*
X3807756Y2538839D1*
X3809976Y2545673D1*
X3813239Y2552077D1*
X3816499Y2556667D1*
X3816490Y2599592D1*
X3813239Y2604217D1*
X3809976Y2610621D1*
X3807756Y2617455D1*
X3806631Y2624554D1*
Y2631740D1*
X3807756Y2638839D1*
X3810241Y2646248D1*
X3810239Y2768346D1*
X3643692Y4336895D2*
X3642518Y4329487D1*
X3640201Y4322353D1*
X3636795Y4315671D1*
X3632387Y4309602D1*
X3627083Y4304298D1*
X3621014Y4299890D1*
X3614332Y4296484D1*
X3607198Y4294167D1*
X3599790Y4292993D1*
X3592289D1*
X3584881Y4294167D1*
X3577747Y4296484D1*
X3571064Y4299890D1*
X3564996Y4304298D1*
X3559692Y4309602D1*
X3555283Y4315671D1*
X3551878Y4322353D1*
X3549560Y4329487D1*
X3548387Y4336895D1*
Y4344396D1*
X3549560Y4351804D1*
X3551878Y4358938D1*
X3555234Y4365531D1*
X3555239Y4671965D1*
X3551878Y4678604D1*
X3549560Y4685738D1*
X3548387Y4693146D1*
Y4700647D1*
X3549560Y4708055D1*
X3551878Y4715189D1*
X3555283Y4721871D1*
X3559692Y4727940D1*
X3564996Y4733244D1*
X3571064Y4737652D1*
X3577747Y4741058D1*
X3584881Y4743375D1*
X3592289Y4744549D1*
X3599790D1*
X3607198Y4743375D1*
X3614332Y4741058D1*
X3621014Y4737652D1*
X3627083Y4733244D1*
X3632387Y4727940D1*
X3636795Y4721871D1*
X3640201Y4715189D1*
X3642518Y4708055D1*
X3643692Y4700647D1*
Y4693146D1*
X3642518Y4685738D1*
X3640201Y4678604D1*
X3636845Y4672010D1*
X3636840Y4365577D1*
X3640201Y4358938D1*
X3642518Y4351804D1*
X3643692Y4344396D1*
Y4336895D1*
X3547949Y4574554D2*
X3546824Y4567455D1*
X3544604Y4560621D1*
X3543092Y4557343D1*
X3543098Y4386438D1*
X3545848Y4379799D1*
X3547526Y4372811D1*
X3548091Y4365646D1*
X3547526Y4358480D1*
X3545848Y4351492D1*
X3543098Y4344853D1*
X3539343Y4338726D1*
X3534676Y4333260D1*
X3529210Y4328593D1*
X3523083Y4324837D1*
X3516444Y4322088D1*
X3509455Y4320409D1*
X3502290Y4319845D1*
X3495125Y4320409D1*
X3488136Y4322088D1*
X3481497Y4324837D1*
X3475370Y4328593D1*
X3469904Y4333260D1*
X3465238Y4338726D1*
X3461482Y4344853D1*
X3458732Y4351492D1*
X3457054Y4358480D1*
X3456490Y4365646D1*
X3457054Y4372811D1*
X3458732Y4379799D1*
X3461488Y4386450D1*
X3461482Y4557354D1*
X3458732Y4563993D1*
X3457054Y4570982D1*
X3456490Y4578147D1*
X3457054Y4585312D1*
X3458732Y4592301D1*
X3461482Y4598940D1*
X3465238Y4605067D1*
X3469904Y4610533D1*
X3475370Y4615199D1*
X3481497Y4618955D1*
X3488136Y4621705D1*
X3495125Y4623383D1*
X3502290Y4623948D1*
X3509455Y4623383D1*
X3516444Y4621705D1*
X3523083Y4618955D1*
X3529210Y4615199D1*
X3534676Y4610533D1*
X3539343Y4605067D1*
X3543098Y4598940D1*
X3545848Y4592301D1*
X3547526Y4585312D1*
X3548091Y4578147D1*
X3547949Y4574554D1*
X3250543Y3145598D2*
X3245825Y3141680D1*
X3238761Y3137352D1*
X3231106Y3134181D1*
X3223050Y3132247D1*
X3214790Y3131596D1*
X3206530Y3132247D1*
X3198474Y3134181D1*
X3190819Y3137352D1*
X3183755Y3141680D1*
X3177455Y3147062D1*
X3172073Y3153361D1*
X3167745Y3160425D1*
X3164575Y3168080D1*
X3162640Y3176136D1*
X3161990Y3184396D1*
X3162640Y3192656D1*
X3164575Y3200713D1*
X3167745Y3208367D1*
X3172073Y3215432D1*
X3177455Y3221731D1*
X3183755Y3227113D1*
X3190819Y3231441D1*
X3198474Y3234612D1*
X3206530Y3236546D1*
X3214790Y3237197D1*
X3223050Y3236546D1*
X3231106Y3234612D1*
X3238761Y3231441D1*
X3245825Y3227113D1*
X3250543Y3223194D1*
X3335253Y3223197D1*
X3340004Y3227113D1*
X3347068Y3231441D1*
X3354723Y3234612D1*
X3362780Y3236546D1*
X3371039Y3237197D1*
X3379299Y3236546D1*
X3387356Y3234612D1*
X3395010Y3231441D1*
X3402075Y3227113D1*
X3408374Y3221731D1*
X3413756Y3215432D1*
X3418084Y3208367D1*
X3421025Y3201336D1*
X3423996Y3208367D1*
X3428324Y3215432D1*
X3433706Y3221731D1*
X3440005Y3227113D1*
X3447070Y3231441D1*
X3454724Y3234612D1*
X3462781Y3236546D1*
X3471041Y3237197D1*
X3479301Y3236546D1*
X3487357Y3234612D1*
X3495012Y3231441D1*
X3502076Y3227113D1*
X3506794Y3223194D1*
X3580333Y3223077D1*
X3586346Y3222125D1*
X3592136Y3220243D1*
X3596039Y3218446D1*
X3604299Y3217795D1*
X3612356Y3215861D1*
X3620010Y3212690D1*
X3627075Y3208362D1*
X3633374Y3202980D1*
X3638756Y3196681D1*
X3643084Y3189617D1*
X3646255Y3181962D1*
X3648189Y3173906D1*
X3648840Y3165646D1*
X3648189Y3157386D1*
X3646255Y3149329D1*
X3643084Y3141675D1*
X3638756Y3134610D1*
X3633374Y3128311D1*
X3627075Y3122929D1*
X3620010Y3118601D1*
X3612356Y3115430D1*
X3604299Y3113496D1*
X3596039Y3112845D1*
X3587780Y3113496D1*
X3579723Y3115430D1*
X3572068Y3118601D1*
X3565004Y3122929D1*
X3558705Y3128311D1*
X3553323Y3134610D1*
X3548995Y3141675D1*
X3547197Y3145608D1*
X3506848Y3145596D1*
X3502076Y3141680D1*
X3495012Y3137352D1*
X3487357Y3134181D1*
X3479301Y3132247D1*
X3471041Y3131596D1*
X3462781Y3132247D1*
X3454724Y3134181D1*
X3447070Y3137352D1*
X3440005Y3141680D1*
X3433706Y3147062D1*
X3428324Y3153361D1*
X3423996Y3160425D1*
X3421055Y3167457D1*
X3418084Y3160425D1*
X3413756Y3153361D1*
X3408374Y3147062D1*
X3402075Y3141680D1*
X3395010Y3137352D1*
X3387356Y3134181D1*
X3379299Y3132247D1*
X3371039Y3131596D1*
X3362780Y3132247D1*
X3354723Y3134181D1*
X3347068Y3137352D1*
X3340004Y3141680D1*
X3335286Y3145598D1*
X3250576Y3145596D1*
X3061042Y1844844D2*
X3052290Y1844096D1*
X3044030Y1844747D1*
X3035974Y1846681D1*
X3028319Y1849852D1*
X3021255Y1854180D1*
X3014955Y1859562D1*
X3009573Y1865861D1*
X3005245Y1872925D1*
X3002075Y1880580D1*
X3000140Y1888636D1*
X2999490Y1896896D1*
X3000140Y1905156D1*
X3002075Y1913213D1*
X3005245Y1920867D1*
X3009573Y1927932D1*
X3014955Y1934231D1*
X3021255Y1939613D1*
X3028319Y1943941D1*
X3035974Y1947112D1*
X3044030Y1949046D1*
X3052290Y1949697D1*
X3060550Y1949046D1*
X3068606Y1947112D1*
X3076261Y1943941D1*
X3083325Y1939613D1*
X3087235Y1936441D1*
X3269791Y1936446D1*
X3275833Y1939427D1*
X3283714Y1941987D1*
X3291896Y1943283D1*
X3300182D1*
X3308365Y1941987D1*
X3316245Y1939427D1*
X3323627Y1935665D1*
X3330331Y1930795D1*
X3336189Y1924937D1*
X3341059Y1918234D1*
X3344820Y1910852D1*
X3347381Y1902971D1*
X3348677Y1894789D1*
Y1886503D1*
X3347381Y1878320D1*
X3344820Y1870440D1*
X3341059Y1863058D1*
X3336189Y1856354D1*
X3330331Y1850496D1*
X3323627Y1845626D1*
X3316245Y1841865D1*
X3308365Y1839304D1*
X3300182Y1838008D1*
X3291896D1*
X3283714Y1839304D1*
X3275833Y1841865D1*
X3269850Y1844843D1*
X3061144Y1844845D1*
X4027290Y3551409D2*
D24*
Y3490646D1*
X4088054D1*
X3551526Y1659396D2*
X3678054D1*
X3614790Y2020160D2*
Y1959396D1*
X3551526D2*
X3678054D1*
X3671039Y3688911D2*
Y3628147D1*
X3605276D2*
X3736803D1*
X1139790Y4366411D2*
Y4239883D1*
X1079026Y4303147D2*
X1139790D1*
Y2953146D2*
Y2889882D1*
X1079026Y2953146D2*
X1139790D1*
Y1603146D2*
Y1539882D1*
X1079026Y1603146D2*
X1139790D1*
D30*
X3827290Y3390646D3*
D31*
Y3490646D3*
X3927290Y3390646D3*
Y3490646D3*
X4027290Y3390646D3*
Y3490646D3*
D30*
X3614790Y859396D3*
D32*
Y959396D3*
Y1059396D3*
Y1159396D3*
Y1259396D3*
Y1359396D3*
Y1459396D3*
Y1659396D3*
Y1759396D3*
Y1859396D3*
Y1959396D3*
Y1559396D3*
D33*
X3321039Y2940646D3*
X3421039D3*
D34*
X3321039Y3040646D3*
D33*
X3421039D3*
X3496039Y2209396D3*
X3596039D3*
D34*
X3496039Y2309396D3*
D33*
X3596039D3*
D35*
X3671039Y3528147D3*
Y3628147D3*
D34*
X3039790Y4303147D3*
D40*
X2939790D3*
X2839790D3*
X2739790D3*
X2639790D3*
X2539790D3*
X2439790D3*
X2339790D3*
X2239790D3*
X2139790D3*
X2039790D3*
X1939790D3*
X1839790D3*
X1739790D3*
X1639790D3*
X1539790D3*
X1439790D3*
X1339790D3*
X1239790D3*
X1139790D3*
Y3703147D3*
X1239790D3*
X1339790D3*
X1439790D3*
X1539790D3*
X1639790D3*
X1739790D3*
X1839790D3*
X1939790D3*
X2039790D3*
X2139790D3*
X2239790D3*
X2339790D3*
X2439790D3*
X2539790D3*
X2639790D3*
X2739790D3*
X2839790D3*
X2939790D3*
X3039790D3*
D34*
Y2953146D3*
D40*
X2939790D3*
X2839790D3*
X2739790D3*
X2639790D3*
X2539790D3*
X2439790D3*
X2339790D3*
X2239790D3*
X2139790D3*
X2039790D3*
X1939790D3*
X1839790D3*
X1739790D3*
X1639790D3*
X1539790D3*
X1439790D3*
X1339790D3*
X1239790D3*
X1139790D3*
Y2353146D3*
X1239790D3*
X1339790D3*
X1439790D3*
X1539790D3*
X1639790D3*
X1739790D3*
X1839790D3*
X1939790D3*
X2039790D3*
X2139790D3*
X2239790D3*
X2339790D3*
X2439790D3*
X2539790D3*
X2639790D3*
X2739790D3*
X2839790D3*
X2939790D3*
X3039790D3*
D34*
Y1603146D3*
D40*
X2939790D3*
X2839790D3*
X2739790D3*
X2639790D3*
X2539790D3*
X2439790D3*
X2339790D3*
X2239790D3*
X2139790D3*
X2039790D3*
X1939790D3*
X1839790D3*
X1739790D3*
X1639790D3*
X1539790D3*
X1439790D3*
X1339790D3*
X1239790D3*
X1139790D3*
Y1003146D3*
X1239790D3*
X1339790D3*
X1439790D3*
X1539790D3*
X1639790D3*
X1739790D3*
X1839790D3*
X1939790D3*
X2039790D3*
X2139790D3*
X2239790D3*
X2339790D3*
X2439790D3*
X2539790D3*
X2639790D3*
X2739790D3*
X2839790D3*
X2939790D3*
X3039790D3*
D31*
X739790Y4509396D3*
X709790Y4429396D3*
X635790Y4386396D3*
X551790Y4401396D3*
X496790Y4466396D3*
Y4552396D3*
X551790Y4617396D3*
X635790Y4632396D3*
X709790Y4589396D3*
X739790Y4171896D3*
X709790Y4091896D3*
X635790Y4048896D3*
X551790Y4063896D3*
X496790Y4128896D3*
Y4214896D3*
X551790Y4279896D3*
X635790Y4294896D3*
X709790Y4251896D3*
X739790Y3834396D3*
X709790Y3754396D3*
X635790Y3711396D3*
X551790Y3726396D3*
X496790Y3791396D3*
Y3877396D3*
X551790Y3942396D3*
X635790Y3957396D3*
X709790Y3914396D3*
X739790Y3496896D3*
X709790Y3416896D3*
X635790Y3373896D3*
X551790Y3388896D3*
X496790Y3453896D3*
Y3539896D3*
X551790Y3604896D3*
X635790Y3619896D3*
X709790Y3576896D3*
X739790Y3159396D3*
X709790Y3079396D3*
X635790Y3036396D3*
X551790Y3051396D3*
X496790Y3116396D3*
Y3202396D3*
X551790Y3267396D3*
X635790Y3282396D3*
X709790Y3239396D3*
X739790Y2821896D3*
X709790Y2741896D3*
X635790Y2698896D3*
X551790Y2713896D3*
X496790Y2778896D3*
Y2864896D3*
X551790Y2929896D3*
X635790Y2944896D3*
X709790Y2901896D3*
X739790Y2484396D3*
X709790Y2404396D3*
X635790Y2361396D3*
X551790Y2376396D3*
X496790Y2441396D3*
Y2527396D3*
X551790Y2592396D3*
X635790Y2607396D3*
X709790Y2564396D3*
X739790Y2146896D3*
X709790Y2066896D3*
X635790Y2023896D3*
X551790Y2038896D3*
X496790Y2103896D3*
Y2189896D3*
X551790Y2254896D3*
X635790Y2269896D3*
X709790Y2226896D3*
X739790Y1809396D3*
X709790Y1729396D3*
X635790Y1686396D3*
X551790Y1701396D3*
X496790Y1766396D3*
Y1852396D3*
X551790Y1917396D3*
X635790Y1932396D3*
X709790Y1889396D3*
X739790Y1471896D3*
X709790Y1391896D3*
X635790Y1348896D3*
X551790Y1363896D3*
X496790Y1428896D3*
Y1514896D3*
X551790Y1579896D3*
X635790Y1594896D3*
X709790Y1551896D3*
X739790Y1134396D3*
X709790Y1054396D3*
X635790Y1011396D3*
X551790Y1026396D3*
X496790Y1091396D3*
Y1177396D3*
X551790Y1242396D3*
X635790Y1257396D3*
X709790Y1214396D3*
X739790Y796896D3*
X709790Y716896D3*
X635790Y673896D3*
X551790Y688896D3*
X496790Y753896D3*
Y839896D3*
X551790Y904896D3*
X635790Y919896D3*
X709790Y876896D3*
M02*
