G04 DipTrace 3.1.0.1*
G04 Panal-PCB-rev2-route-component2.BottomMask.gbr*
%MOIN*%
G04 #@! TF.FileFunction,Soldermask,Bot*
G04 #@! TF.Part,Single*
%ADD51C,0.11*%
%ADD67O,0.068031X0.073031*%
%ADD75O,0.078031X0.068031*%
%ADD77R,0.067087X0.067087*%
%ADD79C,0.073031*%
%ADD81O,0.073031X0.068031*%
%ADD83C,0.068031*%
%ADD85R,0.068031X0.068031*%
%FSLAX26Y26*%
G04*
G70*
G90*
G75*
G01*
G04 BotMask*
%LPD*%
D51*
X4028963Y1971995D3*
Y790892D3*
Y4617664D3*
D85*
X3827290Y3390646D3*
D83*
Y3490646D3*
X3927290Y3390646D3*
Y3490646D3*
X4027290Y3390646D3*
Y3490646D3*
D85*
X3614790Y859396D3*
D81*
Y959396D3*
Y1059396D3*
Y1159396D3*
Y1259396D3*
Y1359396D3*
Y1459396D3*
Y1659396D3*
Y1759396D3*
Y1859396D3*
Y1959396D3*
Y1559396D3*
D79*
X3321039Y2940646D3*
X3421039D3*
D77*
X3321039Y3040646D3*
D79*
X3421039D3*
X3496039Y2209396D3*
X3596039D3*
D77*
X3496039Y2309396D3*
D79*
X3596039D3*
D75*
X3671039Y3528147D3*
Y3628147D3*
D77*
X3039790Y4303147D3*
D67*
X2939790D3*
X2839790D3*
X2739790D3*
X2639790D3*
X2539790D3*
X2439790D3*
X2339790D3*
X2239790D3*
X2139790D3*
X2039790D3*
X1939790D3*
X1839790D3*
X1739790D3*
X1639790D3*
X1539790D3*
X1439790D3*
X1339790D3*
X1239790D3*
X1139790D3*
Y3703147D3*
X1239790D3*
X1339790D3*
X1439790D3*
X1539790D3*
X1639790D3*
X1739790D3*
X1839790D3*
X1939790D3*
X2039790D3*
X2139790D3*
X2239790D3*
X2339790D3*
X2439790D3*
X2539790D3*
X2639790D3*
X2739790D3*
X2839790D3*
X2939790D3*
X3039790D3*
D77*
Y2953146D3*
D67*
X2939790D3*
X2839790D3*
X2739790D3*
X2639790D3*
X2539790D3*
X2439790D3*
X2339790D3*
X2239790D3*
X2139790D3*
X2039790D3*
X1939790D3*
X1839790D3*
X1739790D3*
X1639790D3*
X1539790D3*
X1439790D3*
X1339790D3*
X1239790D3*
X1139790D3*
Y2353146D3*
X1239790D3*
X1339790D3*
X1439790D3*
X1539790D3*
X1639790D3*
X1739790D3*
X1839790D3*
X1939790D3*
X2039790D3*
X2139790D3*
X2239790D3*
X2339790D3*
X2439790D3*
X2539790D3*
X2639790D3*
X2739790D3*
X2839790D3*
X2939790D3*
X3039790D3*
D77*
Y1603146D3*
D67*
X2939790D3*
X2839790D3*
X2739790D3*
X2639790D3*
X2539790D3*
X2439790D3*
X2339790D3*
X2239790D3*
X2139790D3*
X2039790D3*
X1939790D3*
X1839790D3*
X1739790D3*
X1639790D3*
X1539790D3*
X1439790D3*
X1339790D3*
X1239790D3*
X1139790D3*
Y1003146D3*
X1239790D3*
X1339790D3*
X1439790D3*
X1539790D3*
X1639790D3*
X1739790D3*
X1839790D3*
X1939790D3*
X2039790D3*
X2139790D3*
X2239790D3*
X2339790D3*
X2439790D3*
X2539790D3*
X2639790D3*
X2739790D3*
X2839790D3*
X2939790D3*
X3039790D3*
D83*
X739790Y4509396D3*
X709790Y4429396D3*
X635790Y4386396D3*
X551790Y4401396D3*
X496790Y4466396D3*
Y4552396D3*
X551790Y4617396D3*
X635790Y4632396D3*
X709790Y4589396D3*
X739790Y4171896D3*
X709790Y4091896D3*
X635790Y4048896D3*
X551790Y4063896D3*
X496790Y4128896D3*
Y4214896D3*
X551790Y4279896D3*
X635790Y4294896D3*
X709790Y4251896D3*
X739790Y3834396D3*
X709790Y3754396D3*
X635790Y3711396D3*
X551790Y3726396D3*
X496790Y3791396D3*
Y3877396D3*
X551790Y3942396D3*
X635790Y3957396D3*
X709790Y3914396D3*
X739790Y3496896D3*
X709790Y3416896D3*
X635790Y3373896D3*
X551790Y3388896D3*
X496790Y3453896D3*
Y3539896D3*
X551790Y3604896D3*
X635790Y3619896D3*
X709790Y3576896D3*
X739790Y3159396D3*
X709790Y3079396D3*
X635790Y3036396D3*
X551790Y3051396D3*
X496790Y3116396D3*
Y3202396D3*
X551790Y3267396D3*
X635790Y3282396D3*
X709790Y3239396D3*
X739790Y2821896D3*
X709790Y2741896D3*
X635790Y2698896D3*
X551790Y2713896D3*
X496790Y2778896D3*
Y2864896D3*
X551790Y2929896D3*
X635790Y2944896D3*
X709790Y2901896D3*
X739790Y2484396D3*
X709790Y2404396D3*
X635790Y2361396D3*
X551790Y2376396D3*
X496790Y2441396D3*
Y2527396D3*
X551790Y2592396D3*
X635790Y2607396D3*
X709790Y2564396D3*
X739790Y2146896D3*
X709790Y2066896D3*
X635790Y2023896D3*
X551790Y2038896D3*
X496790Y2103896D3*
Y2189896D3*
X551790Y2254896D3*
X635790Y2269896D3*
X709790Y2226896D3*
X739790Y1809396D3*
X709790Y1729396D3*
X635790Y1686396D3*
X551790Y1701396D3*
X496790Y1766396D3*
Y1852396D3*
X551790Y1917396D3*
X635790Y1932396D3*
X709790Y1889396D3*
X739790Y1471896D3*
X709790Y1391896D3*
X635790Y1348896D3*
X551790Y1363896D3*
X496790Y1428896D3*
Y1514896D3*
X551790Y1579896D3*
X635790Y1594896D3*
X709790Y1551896D3*
X739790Y1134396D3*
X709790Y1054396D3*
X635790Y1011396D3*
X551790Y1026396D3*
X496790Y1091396D3*
Y1177396D3*
X551790Y1242396D3*
X635790Y1257396D3*
X709790Y1214396D3*
X739790Y796896D3*
X709790Y716896D3*
X635790Y673896D3*
X551790Y688896D3*
X496790Y753896D3*
Y839896D3*
X551790Y904896D3*
X635790Y919896D3*
X709790Y876896D3*
M02*
