G04 DipTrace 3.1.0.1*
G04 Panal-PCB-rev2-route-component2.BottomSilk.gbr*
%MOIN*%
G04 #@! TF.FileFunction,Legend,Bot*
G04 #@! TF.Part,Single*
%ADD25C,0.007*%
%ADD94C,0.009264*%
%FSLAX26Y26*%
G04*
G70*
G90*
G75*
G01*
G04 BotSilk*
%LPD*%
X2408541Y3215646D2*
D25*
G03X2408541Y3465648I0J125001D01*
G01*
X1908542Y3215646D2*
G02X1908542Y3465648I0J125001D01*
G01*
X2408541D1*
X1908542Y3215646D2*
X2408541D1*
X2158541Y3465648D2*
Y3515647D1*
X2233542Y3465648D2*
Y3515647D1*
X2308539Y3465648D2*
Y3515647D1*
X2383541Y3465648D2*
Y3515647D1*
X2083541Y3465648D2*
Y3515647D1*
X2008539Y3465648D2*
Y3515647D1*
X1933542Y3465648D2*
Y3515647D1*
X2121041Y3165648D2*
Y3215646D1*
X2196039Y3165648D2*
Y3215646D1*
X1908541Y3377141D2*
D94*
X1931555Y3437429D1*
X1954503Y3377141D1*
X1945881Y3397237D2*
X1917163D1*
X2029983Y3437429D2*
Y3377141D1*
X2004116D1*
X1995494Y3380059D1*
X1992642Y3382911D1*
X1989791Y3388615D1*
Y3397237D1*
X1992642Y3403007D1*
X1995494Y3405859D1*
X2004116Y3408711D1*
X1995494Y3411629D1*
X1992642Y3414481D1*
X1989791Y3420185D1*
Y3425955D1*
X1992642Y3431659D1*
X1995494Y3434577D1*
X2004116Y3437429D1*
X2029983D1*
Y3408711D2*
X2004116D1*
X2064792Y3423103D2*
X2067644Y3428807D1*
X2073414Y3434577D1*
X2079118Y3437429D1*
X2090592D1*
X2096362Y3434577D1*
X2102066Y3428807D1*
X2104984Y3423103D1*
X2107836Y3414481D1*
Y3400089D1*
X2104984Y3391533D1*
X2102066Y3385763D1*
X2096362Y3380059D1*
X2090592Y3377141D1*
X2079118D1*
X2073414Y3380059D1*
X2067644Y3385763D1*
X2064792Y3391533D1*
X2179981Y3437429D2*
Y3377141D1*
X2159885D1*
X2151263Y3380059D1*
X2145493Y3385763D1*
X2142641Y3391533D1*
X2139789Y3400089D1*
Y3414481D1*
X2142641Y3423103D1*
X2145493Y3428807D1*
X2151263Y3434577D1*
X2159885Y3437429D1*
X2179981D1*
X2214791D2*
X2252064D1*
Y3377141D1*
X2214791D1*
X2252064Y3408711D2*
X2229116D1*
X2289791Y3437429D2*
X2327131D1*
Y3377141D1*
Y3408711D2*
X2304183D1*
X2364792Y3423103D2*
X2367644Y3428807D1*
X2373414Y3434577D1*
X2379118Y3437429D1*
X2390592D1*
X2396362Y3434577D1*
X2402066Y3428807D1*
X2404984Y3423103D1*
X2407836Y3414481D1*
Y3400089D1*
X2404984Y3391533D1*
X2402066Y3385763D1*
X2396362Y3380059D1*
X2390592Y3377141D1*
X2379118D1*
X2373414Y3380059D1*
X2367644Y3385763D1*
X2364792Y3391533D1*
Y3400089D1*
X2379118D1*
X2121907Y3301836D2*
Y3250170D1*
X2147707Y3275969D2*
X2096041D1*
X2216703Y3276003D2*
X2183541D1*
X1949212Y3599860D2*
X1917709D1*
X1934887Y3576912D1*
X1926265D1*
X1920561Y3574060D1*
X1917709Y3571208D1*
X1914791Y3562586D1*
Y3556883D1*
X1917709Y3548261D1*
X1923413Y3542490D1*
X1932035Y3539638D1*
X1940657D1*
X1949212Y3542490D1*
X1952064Y3545409D1*
X1954983Y3551112D1*
X2027064Y3585534D2*
Y3588386D1*
X2024212Y3594156D1*
X2021361Y3597008D1*
X2015590Y3599860D1*
X2004116D1*
X1998413Y3597008D1*
X1995561Y3594156D1*
X1992642Y3588386D1*
Y3582682D1*
X1995561Y3576912D1*
X2001265Y3568357D1*
X2029983Y3539638D1*
X1989791D1*
X2064792Y3579830D2*
X2067710Y3571208D1*
X2073414Y3565438D1*
X2082036Y3562586D1*
X2084888D1*
X2093510Y3565438D1*
X2099214Y3571208D1*
X2102132Y3579830D1*
Y3582682D1*
X2099214Y3591304D1*
X2093510Y3597008D1*
X2084888Y3599860D1*
X2082036D1*
X2073414Y3597008D1*
X2067710Y3591304D1*
X2064792Y3579830D1*
Y3565438D1*
X2067710Y3551112D1*
X2073414Y3542490D1*
X2082036Y3539638D1*
X2087740D1*
X2096362Y3542490D1*
X2099214Y3548261D1*
X2154115Y3539638D2*
Y3599860D1*
X2182833Y3559734D1*
X2139789D1*
X2217642Y3591304D2*
X2220494Y3597008D1*
X2229116Y3599860D1*
X2234820D1*
X2243442Y3597008D1*
X2249212Y3588386D1*
X2252064Y3574060D1*
Y3559734D1*
X2249212Y3548261D1*
X2243442Y3542490D1*
X2234820Y3539638D1*
X2231968D1*
X2223413Y3542490D1*
X2217642Y3548261D1*
X2214791Y3556883D1*
Y3559734D1*
X2217642Y3568357D1*
X2223413Y3574060D1*
X2231968Y3576912D1*
X2234820D1*
X2243442Y3574060D1*
X2249212Y3568357D1*
X2252064Y3559734D1*
X2318509Y3539638D2*
X2289791Y3599860D1*
X2329983D1*
X2390592D2*
X2399147Y3597008D1*
X2402066Y3591304D1*
Y3585534D1*
X2399147Y3579830D1*
X2393444Y3576912D1*
X2381970Y3574060D1*
X2373348Y3571208D1*
X2367644Y3565438D1*
X2364792Y3559734D1*
Y3551112D1*
X2367644Y3545409D1*
X2370496Y3542490D1*
X2379118Y3539638D1*
X2390592D1*
X2399147Y3542490D1*
X2402066Y3545409D1*
X2404918Y3551112D1*
Y3559734D1*
X2402066Y3565438D1*
X2396296Y3571208D1*
X2387740Y3574060D1*
X2376266Y3576912D1*
X2370496Y3579830D1*
X2367644Y3585534D1*
Y3591304D1*
X2370496Y3597008D1*
X2379118Y3599860D1*
X2390592D1*
X2129184Y3125888D2*
X2123414Y3128806D1*
X2114792Y3137361D1*
Y3077140D1*
X2183061Y3137361D2*
X2211712D1*
X2214564Y3111562D1*
X2211712Y3114414D1*
X2203090Y3117332D1*
X2194535D1*
X2185913Y3114414D1*
X2180142Y3108710D1*
X2177291Y3100088D1*
Y3094384D1*
X2180142Y3085762D1*
X2185913Y3079992D1*
X2194535Y3077140D1*
X2203090D1*
X2211712Y3079992D1*
X2214564Y3082910D1*
X2217483Y3088614D1*
X2458783Y1328806D2*
X2464487Y1334576D1*
X2473109Y1337428D1*
X2484583D1*
X2493205Y1334576D1*
X2498975Y1328806D1*
Y1323102D1*
X2496057Y1317332D1*
X2493205Y1314480D1*
X2487501Y1311628D1*
X2470257Y1305858D1*
X2464487Y1303006D1*
X2461635Y1300088D1*
X2458783Y1294384D1*
Y1285762D1*
X2464487Y1280058D1*
X2473109Y1277140D1*
X2484583D1*
X2493205Y1280058D1*
X2498975Y1285762D1*
X2400064Y1337428D2*
Y1277140D1*
X2440256Y1337428D1*
Y1277140D1*
X2370063D2*
X2341345Y1337361D1*
X2381537D1*
X2288396D2*
X2317048D1*
X2319899Y1311562D1*
X2317048Y1314414D1*
X2308425Y1317332D1*
X2299870D1*
X2291248Y1314414D1*
X2285478Y1308710D1*
X2282626Y1300088D1*
Y1294384D1*
X2285478Y1285762D1*
X2291248Y1279992D1*
X2299870Y1277140D1*
X2308425D1*
X2317048Y1279992D1*
X2319899Y1282910D1*
X2322818Y1288614D1*
X2229677Y1337361D2*
X2258328D1*
X2261180Y1311562D1*
X2258328Y1314414D1*
X2249706Y1317332D1*
X2241151D1*
X2232529Y1314414D1*
X2226758Y1308710D1*
X2223907Y1300088D1*
Y1294384D1*
X2226758Y1285762D1*
X2232529Y1279992D1*
X2241151Y1277140D1*
X2249706D1*
X2258328Y1279992D1*
X2261180Y1282910D1*
X2264099Y1288614D1*
X2205379Y1325888D2*
X2199609Y1328806D1*
X2190987Y1337361D1*
Y1277140D1*
X2158134Y1337361D2*
X2166690Y1334510D1*
X2169608Y1328806D1*
Y1323036D1*
X2166690Y1317332D1*
X2160986Y1314414D1*
X2149512Y1311562D1*
X2140890Y1308710D1*
X2135186Y1302940D1*
X2132335Y1297236D1*
Y1288614D1*
X2135186Y1282910D1*
X2138038Y1279992D1*
X2146660Y1277140D1*
X2158134D1*
X2166690Y1279992D1*
X2169608Y1282910D1*
X2172460Y1288614D1*
Y1297236D1*
X2169608Y1302940D1*
X2163838Y1308710D1*
X2155282Y1311562D1*
X2143808Y1314414D1*
X2138038Y1317332D1*
X2135186Y1323036D1*
Y1328806D1*
X2138038Y1334510D1*
X2146660Y1337361D1*
X2158134D1*
X2055486Y1277140D2*
X2015294Y1337361D1*
X1938446Y1337428D2*
Y1277140D1*
X1898254Y1337428D2*
Y1277140D1*
X1938446Y1308710D2*
X1898254D1*
X1879727Y1337428D2*
X1856779Y1277140D1*
X1833831Y1337428D1*
X1780882Y1337361D2*
X1809534D1*
X1812386Y1311562D1*
X1809534Y1314414D1*
X1800912Y1317332D1*
X1792356D1*
X1783734Y1314414D1*
X1777964Y1308710D1*
X1775112Y1300088D1*
Y1294384D1*
X1777964Y1285762D1*
X1783734Y1279992D1*
X1792356Y1277140D1*
X1800912D1*
X1809534Y1279992D1*
X1812386Y1282910D1*
X1815304Y1288614D1*
X1756585Y1325888D2*
X1750815Y1328806D1*
X1742193Y1337361D1*
Y1277140D1*
X1709340Y1337361D2*
X1717895Y1334510D1*
X1720814Y1328806D1*
Y1323036D1*
X1717895Y1317332D1*
X1712192Y1314414D1*
X1700718Y1311562D1*
X1692096Y1308710D1*
X1686392Y1302940D1*
X1683540Y1297236D1*
Y1288614D1*
X1686392Y1282910D1*
X1689244Y1279992D1*
X1697866Y1277140D1*
X1709340D1*
X1717895Y1279992D1*
X1720814Y1282910D1*
X1723666Y1288614D1*
Y1297236D1*
X1720814Y1302940D1*
X1715044Y1308710D1*
X1706488Y1311562D1*
X1695014Y1314414D1*
X1689244Y1317332D1*
X1686392Y1323036D1*
Y1328806D1*
X1689244Y1334510D1*
X1697866Y1337361D1*
X1709340D1*
X2458783Y2678806D2*
X2464487Y2684576D1*
X2473109Y2687428D1*
X2484583D1*
X2493205Y2684576D1*
X2498975Y2678806D1*
Y2673102D1*
X2496057Y2667332D1*
X2493205Y2664480D1*
X2487501Y2661628D1*
X2470257Y2655858D1*
X2464487Y2653006D1*
X2461635Y2650088D1*
X2458783Y2644384D1*
Y2635762D1*
X2464487Y2630058D1*
X2473109Y2627140D1*
X2484583D1*
X2493205Y2630058D1*
X2498975Y2635762D1*
X2400064Y2687428D2*
Y2627140D1*
X2440256Y2687428D1*
Y2627140D1*
X2370063D2*
X2341345Y2687361D1*
X2381537D1*
X2288396D2*
X2317048D1*
X2319899Y2661562D1*
X2317048Y2664414D1*
X2308425Y2667332D1*
X2299870D1*
X2291248Y2664414D1*
X2285478Y2658710D1*
X2282626Y2650088D1*
Y2644384D1*
X2285478Y2635762D1*
X2291248Y2629992D1*
X2299870Y2627140D1*
X2308425D1*
X2317048Y2629992D1*
X2319899Y2632910D1*
X2322818Y2638614D1*
X2229677Y2687361D2*
X2258328D1*
X2261180Y2661562D1*
X2258328Y2664414D1*
X2249706Y2667332D1*
X2241151D1*
X2232529Y2664414D1*
X2226758Y2658710D1*
X2223907Y2650088D1*
Y2644384D1*
X2226758Y2635762D1*
X2232529Y2629992D1*
X2241151Y2627140D1*
X2249706D1*
X2258328Y2629992D1*
X2261180Y2632910D1*
X2264099Y2638614D1*
X2205379Y2675888D2*
X2199609Y2678806D1*
X2190987Y2687361D1*
Y2627140D1*
X2158134Y2687361D2*
X2166690Y2684510D1*
X2169608Y2678806D1*
Y2673036D1*
X2166690Y2667332D1*
X2160986Y2664414D1*
X2149512Y2661562D1*
X2140890Y2658710D1*
X2135186Y2652940D1*
X2132335Y2647236D1*
Y2638614D1*
X2135186Y2632910D1*
X2138038Y2629992D1*
X2146660Y2627140D1*
X2158134D1*
X2166690Y2629992D1*
X2169608Y2632910D1*
X2172460Y2638614D1*
Y2647236D1*
X2169608Y2652940D1*
X2163838Y2658710D1*
X2155282Y2661562D1*
X2143808Y2664414D1*
X2138038Y2667332D1*
X2135186Y2673036D1*
Y2678806D1*
X2138038Y2684510D1*
X2146660Y2687361D1*
X2158134D1*
X2055486Y2627140D2*
X2015294Y2687361D1*
X1938446Y2687428D2*
Y2627140D1*
X1898254Y2687428D2*
Y2627140D1*
X1938446Y2658710D2*
X1898254D1*
X1879727Y2687428D2*
X1856779Y2627140D1*
X1833831Y2687428D1*
X1780882Y2687361D2*
X1809534D1*
X1812386Y2661562D1*
X1809534Y2664414D1*
X1800912Y2667332D1*
X1792356D1*
X1783734Y2664414D1*
X1777964Y2658710D1*
X1775112Y2650088D1*
Y2644384D1*
X1777964Y2635762D1*
X1783734Y2629992D1*
X1792356Y2627140D1*
X1800912D1*
X1809534Y2629992D1*
X1812386Y2632910D1*
X1815304Y2638614D1*
X1756585Y2675888D2*
X1750815Y2678806D1*
X1742193Y2687361D1*
Y2627140D1*
X1709340Y2687361D2*
X1717895Y2684510D1*
X1720814Y2678806D1*
Y2673036D1*
X1717895Y2667332D1*
X1712192Y2664414D1*
X1700718Y2661562D1*
X1692096Y2658710D1*
X1686392Y2652940D1*
X1683540Y2647236D1*
Y2638614D1*
X1686392Y2632910D1*
X1689244Y2629992D1*
X1697866Y2627140D1*
X1709340D1*
X1717895Y2629992D1*
X1720814Y2632910D1*
X1723666Y2638614D1*
Y2647236D1*
X1720814Y2652940D1*
X1715044Y2658710D1*
X1706488Y2661562D1*
X1695014Y2664414D1*
X1689244Y2667332D1*
X1686392Y2673036D1*
Y2678806D1*
X1689244Y2684510D1*
X1697866Y2687361D1*
X1709340D1*
X2458783Y4028806D2*
X2464487Y4034576D1*
X2473109Y4037428D1*
X2484583D1*
X2493205Y4034576D1*
X2498975Y4028806D1*
Y4023102D1*
X2496057Y4017332D1*
X2493205Y4014480D1*
X2487501Y4011628D1*
X2470257Y4005858D1*
X2464487Y4003006D1*
X2461635Y4000088D1*
X2458783Y3994384D1*
Y3985762D1*
X2464487Y3980058D1*
X2473109Y3977140D1*
X2484583D1*
X2493205Y3980058D1*
X2498975Y3985762D1*
X2400064Y4037428D2*
Y3977140D1*
X2440256Y4037428D1*
Y3977140D1*
X2370063D2*
X2341345Y4037361D1*
X2381537D1*
X2288396D2*
X2317048D1*
X2319899Y4011562D1*
X2317048Y4014414D1*
X2308425Y4017332D1*
X2299870D1*
X2291248Y4014414D1*
X2285478Y4008710D1*
X2282626Y4000088D1*
Y3994384D1*
X2285478Y3985762D1*
X2291248Y3979992D1*
X2299870Y3977140D1*
X2308425D1*
X2317048Y3979992D1*
X2319899Y3982910D1*
X2322818Y3988614D1*
X2229677Y4037361D2*
X2258328D1*
X2261180Y4011562D1*
X2258328Y4014414D1*
X2249706Y4017332D1*
X2241151D1*
X2232529Y4014414D1*
X2226758Y4008710D1*
X2223907Y4000088D1*
Y3994384D1*
X2226758Y3985762D1*
X2232529Y3979992D1*
X2241151Y3977140D1*
X2249706D1*
X2258328Y3979992D1*
X2261180Y3982910D1*
X2264099Y3988614D1*
X2205379Y4025888D2*
X2199609Y4028806D1*
X2190987Y4037361D1*
Y3977140D1*
X2158134Y4037361D2*
X2166690Y4034510D1*
X2169608Y4028806D1*
Y4023036D1*
X2166690Y4017332D1*
X2160986Y4014414D1*
X2149512Y4011562D1*
X2140890Y4008710D1*
X2135186Y4002940D1*
X2132335Y3997236D1*
Y3988614D1*
X2135186Y3982910D1*
X2138038Y3979992D1*
X2146660Y3977140D1*
X2158134D1*
X2166690Y3979992D1*
X2169608Y3982910D1*
X2172460Y3988614D1*
Y3997236D1*
X2169608Y4002940D1*
X2163838Y4008710D1*
X2155282Y4011562D1*
X2143808Y4014414D1*
X2138038Y4017332D1*
X2135186Y4023036D1*
Y4028806D1*
X2138038Y4034510D1*
X2146660Y4037361D1*
X2158134D1*
X2055486Y3977140D2*
X2015294Y4037361D1*
X1938446Y4037428D2*
Y3977140D1*
X1898254Y4037428D2*
Y3977140D1*
X1938446Y4008710D2*
X1898254D1*
X1879727Y4037428D2*
X1856779Y3977140D1*
X1833831Y4037428D1*
X1780882Y4037361D2*
X1809534D1*
X1812386Y4011562D1*
X1809534Y4014414D1*
X1800912Y4017332D1*
X1792356D1*
X1783734Y4014414D1*
X1777964Y4008710D1*
X1775112Y4000088D1*
Y3994384D1*
X1777964Y3985762D1*
X1783734Y3979992D1*
X1792356Y3977140D1*
X1800912D1*
X1809534Y3979992D1*
X1812386Y3982910D1*
X1815304Y3988614D1*
X1756585Y4025888D2*
X1750815Y4028806D1*
X1742193Y4037361D1*
Y3977140D1*
X1709340Y4037361D2*
X1717895Y4034510D1*
X1720814Y4028806D1*
Y4023036D1*
X1717895Y4017332D1*
X1712192Y4014414D1*
X1700718Y4011562D1*
X1692096Y4008710D1*
X1686392Y4002940D1*
X1683540Y3997236D1*
Y3988614D1*
X1686392Y3982910D1*
X1689244Y3979992D1*
X1697866Y3977140D1*
X1709340D1*
X1717895Y3979992D1*
X1720814Y3982910D1*
X1723666Y3988614D1*
Y3997236D1*
X1720814Y4002940D1*
X1715044Y4008710D1*
X1706488Y4011562D1*
X1695014Y4014414D1*
X1689244Y4017332D1*
X1686392Y4023036D1*
Y4028806D1*
X1689244Y4034510D1*
X1697866Y4037361D1*
X1709340D1*
X3748869Y4543677D2*
Y4483389D1*
X3768965Y4543677D2*
X3728773D1*
X3710246Y4512107D2*
X3684380D1*
X3675824Y4514959D1*
X3672906Y4517877D1*
X3670054Y4523581D1*
Y4532203D1*
X3672906Y4537907D1*
X3675824Y4540825D1*
X3684380Y4543677D1*
X3710246D1*
Y4483389D1*
X3611335Y4535055D2*
X3617039Y4540825D1*
X3625661Y4543677D1*
X3637135D1*
X3645757Y4540825D1*
X3651527Y4535055D1*
Y4529351D1*
X3648609Y4523581D1*
X3645757Y4520729D1*
X3640053Y4517877D1*
X3622809Y4512107D1*
X3617039Y4509255D1*
X3614187Y4506337D1*
X3611335Y4500633D1*
Y4492011D1*
X3617039Y4486307D1*
X3625661Y4483389D1*
X3637135D1*
X3645757Y4486307D1*
X3651527Y4492011D1*
X3558386Y4543611D2*
X3587038D1*
X3589890Y4517811D1*
X3587038Y4520663D1*
X3578416Y4523581D1*
X3569860D1*
X3561238Y4520663D1*
X3555468Y4514959D1*
X3552616Y4506337D1*
Y4500633D1*
X3555468Y4492011D1*
X3561238Y4486241D1*
X3569860Y4483389D1*
X3578416D1*
X3587038Y4486241D1*
X3589890Y4489159D1*
X3592808Y4494863D1*
X3499667Y4535055D2*
X3502519Y4540759D1*
X3511141Y4543611D1*
X3516845D1*
X3525467Y4540759D1*
X3531237Y4532137D1*
X3534089Y4517811D1*
Y4503485D1*
X3531237Y4492011D1*
X3525467Y4486241D1*
X3516845Y4483389D1*
X3513993D1*
X3505437Y4486241D1*
X3499667Y4492011D1*
X3496815Y4500633D1*
Y4503485D1*
X3499667Y4512107D1*
X3505437Y4517811D1*
X3513993Y4520663D1*
X3516845D1*
X3525467Y4517811D1*
X3531237Y4512107D1*
X3534089Y4503485D1*
X3475370Y4529285D2*
Y4532137D1*
X3472518Y4537907D1*
X3469666Y4540759D1*
X3463896Y4543611D1*
X3452422D1*
X3446718Y4540759D1*
X3443866Y4537907D1*
X3440948Y4532137D1*
Y4526433D1*
X3443866Y4520663D1*
X3449570Y4512107D1*
X3478288Y4483389D1*
X3438096D1*
X3416651Y4529285D2*
Y4532137D1*
X3413799Y4537907D1*
X3410947Y4540759D1*
X3405177Y4543611D1*
X3393703D1*
X3387999Y4540759D1*
X3385147Y4537907D1*
X3382229Y4532137D1*
Y4526433D1*
X3385147Y4520663D1*
X3390851Y4512107D1*
X3419569Y4483389D1*
X3379377D1*
X3343606Y4543611D2*
X3352228Y4540759D1*
X3357998Y4532137D1*
X3360850Y4517811D1*
Y4509189D1*
X3357998Y4494863D1*
X3352228Y4486241D1*
X3343606Y4483389D1*
X3337902D1*
X3329280Y4486241D1*
X3323576Y4494863D1*
X3320658Y4509189D1*
Y4517811D1*
X3323576Y4532137D1*
X3329280Y4540759D1*
X3337902Y4543611D1*
X3343606D1*
X3323576Y4532137D2*
X3357998Y4494863D1*
X3264791Y4523581D2*
X3267709Y4514959D1*
X3273413Y4509189D1*
X3282035Y4506337D1*
X3284887D1*
X3293509Y4509189D1*
X3299212Y4514959D1*
X3302131Y4523581D1*
Y4526433D1*
X3299212Y4535055D1*
X3293509Y4540759D1*
X3284887Y4543611D1*
X3282035D1*
X3273413Y4540759D1*
X3267709Y4535055D1*
X3264791Y4523581D1*
Y4509189D1*
X3267709Y4494863D1*
X3273413Y4486241D1*
X3282035Y4483389D1*
X3287738D1*
X3296361Y4486241D1*
X3299212Y4492011D1*
X3765720Y2793677D2*
Y2733389D1*
X3731298D1*
X3712771Y2793677D2*
X3689823Y2733389D1*
X3666875Y2793677D1*
X3634023Y2793611D2*
X3642578Y2790759D1*
X3645496Y2785055D1*
Y2779285D1*
X3642578Y2773581D1*
X3636874Y2770663D1*
X3625400Y2767811D1*
X3616778Y2764959D1*
X3611075Y2759189D1*
X3608223Y2753485D1*
Y2744863D1*
X3611075Y2739159D1*
X3613927Y2736241D1*
X3622549Y2733389D1*
X3634023D1*
X3642578Y2736241D1*
X3645496Y2739159D1*
X3648348Y2744863D1*
Y2753485D1*
X3645496Y2759189D1*
X3639726Y2764959D1*
X3631171Y2767811D1*
X3619697Y2770663D1*
X3613927Y2773581D1*
X3611075Y2779285D1*
Y2785055D1*
X3613927Y2790759D1*
X3622549Y2793611D1*
X3634023D1*
X3560978Y2733389D2*
Y2793611D1*
X3589696Y2753485D1*
X3546652D1*
X3510880Y2793611D2*
X3519503Y2790759D1*
X3525273Y2782137D1*
X3528125Y2767811D1*
Y2759189D1*
X3525273Y2744863D1*
X3519503Y2736241D1*
X3510880Y2733389D1*
X3505177D1*
X3496555Y2736241D1*
X3490851Y2744863D1*
X3487933Y2759189D1*
Y2767811D1*
X3490851Y2782137D1*
X3496555Y2790759D1*
X3505177Y2793611D1*
X3510880D1*
X3490851Y2782137D2*
X3525273Y2744863D1*
X3434984Y2793611D2*
X3463635D1*
X3466487Y2767811D1*
X3463635Y2770663D1*
X3455013Y2773581D1*
X3446458D1*
X3437836Y2770663D1*
X3432065Y2764959D1*
X3429213Y2756337D1*
Y2750633D1*
X3432065Y2742011D1*
X3437836Y2736241D1*
X3446458Y2733389D1*
X3455013D1*
X3463635Y2736241D1*
X3466487Y2739159D1*
X3469405Y2744863D1*
X3410686Y2793677D2*
X3387738Y2733389D1*
X3364791Y2793677D1*
M02*
