M48
INCH
T01C0.014
T02C0.024
T03C0.029
T04C0.034
T05C0.0354
T06C0.11
%
T01
X+006960Y+046594
X+006960Y+043406
X+007085Y+040219
X+010085Y+040469
X+011210Y+039719
X+011523Y+039469
X+011835Y+039219
X+013210Y+039719
X+013523Y+039469
X+015648Y+039219
X+015460Y+044469
X+014523Y+044469
X+020898Y+046094
X+021835Y+046094
X+028460Y+044469
X+033648Y+043844
X+035023Y+043656
X+035960Y+043406
X+035960Y+042031
X+036898Y+045781
X+037960Y+045781
X+035960Y+046969
X+035023Y+045781
X+033835Y+036344
X+033835Y+035281
X+031710Y+034281
X+031585Y+030281
X+031523Y+027219
X+032085Y+024844
X+031648Y+020781
X+031710Y+016781
X+034210Y+012594
X+034960Y+012594
X+034898Y+011594
X+035210Y+011281
X+034210Y+011594
X+033648Y+011906
X+028523Y+008281
X+022835Y+009031
X+022335Y+008531
X+014835Y+007656
X+013710Y+007656
X+013398Y+012406
X+013085Y+012719
X+011898Y+012156
X+011585Y+012406
X+011335Y+012719
X+010835Y+013469
X+010460Y+013469
X+010460Y+011844
X+010835Y+011844
X+006960Y+013219
X+006960Y+016406
X+006960Y+019594
X+010085Y+020031
X+010460Y+020031
X+010835Y+020031
X+010835Y+021156
X+010460Y+021156
X+010085Y+021156
X+010085Y+024094
X+010085Y+025469
X+010460Y+025469
X+010835Y+025469
X+011210Y+026219
X+011523Y+025969
X+011835Y+025719
X+013148Y+026219
X+013460Y+025969
X+015648Y+025719
X+011210Y+027281
X+010835Y+026969
X+010460Y+026969
X+011148Y+030094
X+010835Y+030406
X+010460Y+030406
X+010460Y+033531
X+010835Y+033531
X+010085Y+033531
X+010085Y+034594
X+010460Y+034594
X+010835Y+034594
X+010085Y+037781
X+010085Y+038969
X+006960Y+036656
X+006960Y+033094
X+006960Y+029906
X+006960Y+026719
X+006960Y+023156
X+010460Y+016844
X+010835Y+016844
X+011210Y+016531
X+014398Y+017656
X+015148Y+017656
X+015648Y+012156
X+020898Y+019031
X+021835Y+019031
X+022398Y+022031
X+022898Y+022531
X+021835Y+032594
X+020898Y+032594
X+022273Y+035531
X+022773Y+036031
X+015273Y+031219
X+014148Y+031219
X+006960Y+009656
X+038523Y+025281
X+038835Y+025594
X+038523Y+026281
X+038835Y+026656
X+038460Y+027969
X+038835Y+028094
X+039710Y+029281
X+039210Y+031281
X+036773Y+033469
X+039523Y+024219
T02
X+007960Y+047594
X+029898Y+035969
X+032148Y+031844
X+033710Y+031844
X+034710Y+031844
X+035960Y+031656
X+035273Y+029531
X+034023Y+026781
X+034023Y+025406
X+033710Y+023531
X+032960Y+022906
X+032960Y+018906
X+035210Y+018219
X+035210Y+017031
X+034460Y+016156
X+030523Y+018969
X+038398Y+020719
X+036710Y+025969
X+036710Y+026594
X+015023Y+006469
T03
X+007398Y+045094
X+007098Y+044294
X+006358Y+043864
X+005518Y+044014
X+004968Y+044664
X+004968Y+045524
X+005518Y+046174
X+006358Y+046324
X+007098Y+045894
X+006358Y+042949
X+005518Y+042799
X+004968Y+042149
X+004968Y+041289
X+005518Y+040639
X+006358Y+040489
X+007098Y+040919
X+007398Y+041719
X+007098Y+042519
X+006358Y+039574
X+005518Y+039424
X+004968Y+038774
X+004968Y+037914
X+005518Y+037264
X+006358Y+037114
X+007098Y+037544
X+007398Y+038344
X+007098Y+039144
X+006358Y+036199
X+005518Y+036049
X+004968Y+035399
X+004968Y+034539
X+005518Y+033889
X+006358Y+033739
X+007098Y+034169
X+007398Y+034969
X+007098Y+035769
X+006358Y+032824
X+005518Y+032674
X+004968Y+032024
X+004968Y+031164
X+005518Y+030514
X+006358Y+030364
X+007098Y+030794
X+007398Y+031594
X+007098Y+032394
X+006358Y+029449
X+005518Y+029299
X+004968Y+028649
X+004968Y+027789
X+005518Y+027139
X+006358Y+026989
X+007098Y+027419
X+007398Y+028219
X+007098Y+029019
X+006358Y+026074
X+005518Y+025924
X+004968Y+025274
X+004968Y+024414
X+005518Y+023764
X+006358Y+023614
X+007098Y+024044
X+007398Y+024844
X+007098Y+025644
X+006358Y+022699
X+005518Y+022549
X+004968Y+021899
X+004968Y+021039
X+005518Y+020389
X+006358Y+020239
X+007098Y+020669
X+007398Y+021469
X+007098Y+022269
X+006358Y+019324
X+005518Y+019174
X+004968Y+018524
X+004968Y+017664
X+005518Y+017014
X+006358Y+016864
X+007098Y+017294
X+007398Y+018094
X+007098Y+018894
X+006358Y+015949
X+005518Y+015799
X+004968Y+015149
X+004968Y+014289
X+005518Y+013639
X+006358Y+013489
X+007098Y+013919
X+007398Y+014719
X+007098Y+015519
X+006358Y+012574
X+005518Y+012424
X+004968Y+011774
X+004968Y+010914
X+005518Y+010264
X+006358Y+010114
X+007098Y+010544
X+007398Y+011344
X+007098Y+012144
X+006358Y+009199
X+005518Y+009049
X+004968Y+008399
X+004968Y+007539
X+005518Y+006889
X+006358Y+006739
X+007098Y+007169
X+007398Y+007969
X+007098Y+008769
T04
X+038273Y+033906
X+038273Y+034906
X+039273Y+034906
X+039273Y+033906
X+040273Y+033906
X+040273Y+034906
X+036710Y+035281
X+036710Y+036281
X+030398Y+037031
X+029398Y+037031
X+028398Y+037031
X+027398Y+037031
X+026398Y+037031
X+025398Y+037031
X+024398Y+037031
X+023398Y+037031
X+022398Y+037031
X+021398Y+037031
X+020398Y+037031
X+019398Y+037031
X+018398Y+037031
X+017398Y+037031
X+016398Y+037031
X+015398Y+037031
X+014398Y+037031
X+013398Y+037031
X+012398Y+037031
X+011398Y+037031
X+011398Y+043031
X+012398Y+043031
X+013398Y+043031
X+014398Y+043031
X+015398Y+043031
X+016398Y+043031
X+017398Y+043031
X+018398Y+043031
X+019398Y+043031
X+020398Y+043031
X+021398Y+043031
X+022398Y+043031
X+023398Y+043031
X+024398Y+043031
X+025398Y+043031
X+026398Y+043031
X+027398Y+043031
X+028398Y+043031
X+029398Y+043031
X+033210Y+030406
X+034210Y+030406
X+034210Y+029406
X+033210Y+029406
X+029398Y+029531
X+028398Y+029531
X+027398Y+029531
X+026398Y+029531
X+025398Y+029531
X+024398Y+029531
X+023398Y+029531
X+022398Y+029531
X+021398Y+029531
X+020398Y+029531
X+019398Y+029531
X+018398Y+029531
X+017398Y+029531
X+016398Y+029531
X+015398Y+029531
X+014398Y+029531
X+013398Y+029531
X+012398Y+029531
X+011398Y+029531
X+011398Y+023531
X+012398Y+023531
X+013398Y+023531
X+014398Y+023531
X+015398Y+023531
X+016398Y+023531
X+017398Y+023531
X+018398Y+023531
X+019398Y+023531
X+020398Y+023531
X+021398Y+023531
X+022398Y+023531
X+023398Y+023531
X+024398Y+023531
X+025398Y+023531
X+026398Y+023531
X+027398Y+023531
X+028398Y+023531
X+029398Y+023531
X+030398Y+023531
X+034960Y+023094
X+034960Y+022094
X+035960Y+022094
X+035960Y+023094
X+036148Y+019594
X+036148Y+018594
X+036148Y+017594
X+036148Y+016594
X+036148Y+015594
X+036148Y+014594
X+036148Y+013594
X+036148Y+012594
X+036148Y+011594
X+036148Y+010594
X+036148Y+009594
X+036148Y+008594
X+030398Y+010031
X+029398Y+010031
X+028398Y+010031
X+027398Y+010031
X+026398Y+010031
X+025398Y+010031
X+024398Y+010031
X+023398Y+010031
X+022398Y+010031
X+021398Y+010031
X+020398Y+010031
X+019398Y+010031
X+018398Y+010031
X+017398Y+010031
X+016398Y+010031
X+015398Y+010031
X+014398Y+010031
X+013398Y+010031
X+012398Y+010031
X+011398Y+010031
X+011398Y+016031
X+012398Y+016031
X+013398Y+016031
X+014398Y+016031
X+015398Y+016031
X+016398Y+016031
X+017398Y+016031
X+018398Y+016031
X+019398Y+016031
X+020398Y+016031
X+021398Y+016031
X+022398Y+016031
X+023398Y+016031
X+024398Y+016031
X+025398Y+016031
X+026398Y+016031
X+027398Y+016031
X+028398Y+016031
X+029398Y+016031
T05
X+030398Y+043031
X+030398Y+029531
X+030398Y+016031
T06
X+040290Y+019720
X+040290Y+007909
X+040290Y+046177
T00
M30
