G04 DipTrace 3.1.0.1*
G04 Panal-PCB-rev2-route-component2.TopDimension.gbr*
%MOIN*%
G04 #@! TF.FileFunction,Drawing,Top*
G04 #@! TF.Part,Single*
%ADD13C,0.001378*%
%ADD96C,0.006176*%
%FSLAX26Y26*%
G04*
G70*
G90*
G75*
G01*
G04 TopDimension*
%LPD*%
X4028963Y790892D2*
D13*
X5135262D1*
X984646Y394016D2*
X5135262D1*
X5115577Y592454D2*
Y751522D1*
G36*
Y790892D2*
X5123451Y751522D1*
X5107703D1*
X5115577Y790892D1*
G37*
Y592454D2*
D13*
Y433386D1*
G36*
Y394016D2*
X5107703Y433386D1*
X5123451D1*
X5115577Y394016D1*
G37*
X4028963Y4617664D2*
D13*
X5109475D1*
X4027290Y4821896D2*
X5109475D1*
X5089790Y4719780D2*
Y4657034D1*
G36*
Y4617664D2*
X5081916Y4657034D1*
X5097664D1*
X5089790Y4617664D1*
G37*
Y4719780D2*
D13*
Y4782526D1*
G36*
Y4821896D2*
X5097664Y4782526D1*
X5081916D1*
X5089790Y4821896D1*
G37*
X4028963Y790892D2*
D13*
X5131325D1*
X4028963Y1971995D2*
X5131325D1*
X5111640Y1381444D2*
Y830262D1*
G36*
Y790892D2*
X5103766Y830262D1*
X5119514D1*
X5111640Y790892D1*
G37*
Y1381444D2*
D13*
Y1932625D1*
G36*
Y1971995D2*
X5119514Y1932625D1*
X5103766D1*
X5111640Y1971995D1*
G37*
X4028963Y4617664D2*
D13*
X5111640D1*
X4028963Y1971995D2*
X5111640D1*
X5091955Y3294829D2*
Y4578294D1*
G36*
Y4617664D2*
X5099829Y4578294D1*
X5084081D1*
X5091955Y4617664D1*
G37*
Y3294829D2*
D13*
Y2011365D1*
G36*
Y1971995D2*
X5084081Y2011365D1*
X5099829D1*
X5091955Y1971995D1*
G37*
X4028963Y4617664D2*
D13*
Y4891202D1*
X4233612Y4715283D2*
Y4891202D1*
X4131287Y4871517D2*
X4068333D1*
G36*
X4028963D2*
X4068333Y4879391D1*
Y4863643D1*
X4028963Y4871517D1*
G37*
X4131287D2*
D13*
X4194241D1*
G36*
X4233612D2*
X4194241Y4863643D1*
Y4879391D1*
X4233612Y4871517D1*
G37*
X4232598Y4626299D2*
D13*
Y4991192D1*
X4028963Y4617664D2*
Y4991192D1*
X4130781Y4971507D2*
X4193228D1*
G36*
X4232598D2*
X4193228Y4963633D1*
Y4979381D1*
X4232598Y4971507D1*
G37*
X4130781D2*
D13*
X4068333D1*
G36*
X4028963D2*
X4068333Y4979381D1*
Y4963633D1*
X4028963Y4971507D1*
G37*
X394016Y4724724D2*
D13*
Y5285331D1*
X4212598Y4724235D2*
Y5285331D1*
X2303307Y5265646D2*
X433386D1*
G36*
X394016D2*
X433386Y5273520D1*
Y5257772D1*
X394016Y5265646D1*
G37*
X2303307D2*
D13*
X4173228D1*
G36*
X4212598D2*
X4173228Y5257772D1*
Y5273520D1*
X4212598Y5265646D1*
G37*
X590866Y4823150D2*
D13*
X-517395D1*
X787598Y394016D2*
X-517395D1*
X-497710Y2608583D2*
Y4783780D1*
G36*
Y4823150D2*
X-489836Y4783780D1*
X-505584D1*
X-497710Y4823150D1*
G37*
Y2608583D2*
D13*
Y433386D1*
G36*
Y394016D2*
X-505584Y433386D1*
X-489836D1*
X-497710Y394016D1*
G37*
X394016Y4724724D2*
D13*
Y5616581D1*
X4232598Y4626299D2*
Y5616581D1*
X2313307Y5596896D2*
X433386D1*
G36*
X394016D2*
X433386Y5604770D1*
Y5589022D1*
X394016Y5596896D1*
G37*
X2313307D2*
D13*
X4193228D1*
G36*
X4232598D2*
X4193228Y5589022D1*
Y5604770D1*
X4232598Y5596896D1*
G37*
X5160287Y660960D2*
D96*
X5162232Y657113D1*
X5167936Y651365D1*
X5127788D1*
X5167936Y627517D2*
X5166035Y633265D1*
X5160287Y637112D1*
X5150736Y639013D1*
X5144988D1*
X5135437Y637112D1*
X5129689Y633265D1*
X5127788Y627517D1*
Y623715D1*
X5129689Y617967D1*
X5135437Y614164D1*
X5144988Y612219D1*
X5150736D1*
X5160287Y614164D1*
X5166035Y617967D1*
X5167936Y623715D1*
Y627517D1*
X5160287Y614164D2*
X5135437Y637112D1*
X5131635Y597966D2*
X5129689Y599867D1*
X5127788Y597966D1*
X5129689Y596021D1*
X5131635Y597966D1*
X5167936Y572173D2*
X5166035Y577921D1*
X5160287Y581768D1*
X5150736Y583669D1*
X5144988D1*
X5135437Y581768D1*
X5129689Y577921D1*
X5127788Y572173D1*
Y568371D1*
X5129689Y562623D1*
X5135437Y558820D1*
X5144988Y556875D1*
X5150736D1*
X5160287Y558820D1*
X5166035Y562623D1*
X5167936Y568371D1*
Y572173D1*
X5160287Y558820D2*
X5135437Y581768D1*
X5167936Y534973D2*
X5166035Y540676D1*
X5162232Y542622D1*
X5158385D1*
X5154583Y540676D1*
X5152637Y536874D1*
X5150736Y529225D1*
X5148835Y523477D1*
X5144988Y519674D1*
X5141186Y517773D1*
X5135437D1*
X5131635Y519674D1*
X5129689Y521575D1*
X5127788Y527323D1*
Y534973D1*
X5129689Y540676D1*
X5131635Y542622D1*
X5135437Y544523D1*
X5141186D1*
X5144988Y542622D1*
X5148835Y538775D1*
X5150736Y533071D1*
X5152637Y525422D1*
X5154583Y521575D1*
X5158385Y519674D1*
X5162232D1*
X5166035Y521575D1*
X5167936Y527323D1*
Y534973D1*
X5142149Y4744836D2*
Y4763937D1*
X5124949Y4765839D1*
X5126850Y4763937D1*
X5128795Y4758189D1*
Y4752486D1*
X5126850Y4746738D1*
X5123047Y4742891D1*
X5117299Y4740990D1*
X5113497D1*
X5107749Y4742891D1*
X5103902Y4746738D1*
X5102001Y4752486D1*
Y4758189D1*
X5103902Y4763937D1*
X5105848Y4765839D1*
X5109650Y4767784D1*
X5105848Y4726737D2*
X5103902Y4728638D1*
X5102001Y4726737D1*
X5103902Y4724791D1*
X5105848Y4726737D1*
X5134499Y4712440D2*
X5136445Y4708593D1*
X5142149Y4702845D1*
X5102001D1*
X5128795Y4665600D2*
X5123047Y4667546D1*
X5119201Y4671348D1*
X5117299Y4677096D1*
Y4678998D1*
X5119201Y4684746D1*
X5123047Y4688548D1*
X5128795Y4690494D1*
X5130697D1*
X5136445Y4688548D1*
X5140247Y4684746D1*
X5142149Y4678998D1*
Y4677096D1*
X5140247Y4671348D1*
X5136445Y4667546D1*
X5128795Y4665600D1*
X5119201D1*
X5109650Y4667546D1*
X5103902Y4671348D1*
X5102001Y4677096D1*
Y4680899D1*
X5103902Y4686647D1*
X5107749Y4688548D1*
X5163999Y1407479D2*
Y1386477D1*
X5148700Y1397929D1*
Y1392181D1*
X5146799Y1388378D1*
X5144898Y1386477D1*
X5139150Y1384531D1*
X5135347D1*
X5129599Y1386477D1*
X5125752Y1390279D1*
X5123851Y1396027D1*
Y1401776D1*
X5125752Y1407479D1*
X5127698Y1409381D1*
X5131500Y1411326D1*
X5163999Y1360684D2*
X5162098Y1366432D1*
X5156350Y1370279D1*
X5146799Y1372180D1*
X5141051D1*
X5131500Y1370279D1*
X5125752Y1366432D1*
X5123851Y1360684D1*
Y1356881D1*
X5125752Y1351133D1*
X5131500Y1347331D1*
X5141051Y1345385D1*
X5146799D1*
X5156350Y1347331D1*
X5162098Y1351133D1*
X5163999Y1356881D1*
Y1360684D1*
X5156350Y1347331D2*
X5131500Y1370279D1*
X5138610Y3328463D2*
X5142413Y3330365D1*
X5144314Y3336113D1*
Y3339915D1*
X5142413Y3345663D1*
X5136665Y3349510D1*
X5127114Y3351411D1*
X5117563D1*
X5109914Y3349510D1*
X5106067Y3345663D1*
X5104166Y3339915D1*
Y3338014D1*
X5106067Y3332310D1*
X5109914Y3328463D1*
X5115662Y3326562D1*
X5117563D1*
X5123312Y3328463D1*
X5127114Y3332310D1*
X5129015Y3338014D1*
Y3339915D1*
X5127114Y3345663D1*
X5123312Y3349510D1*
X5117563Y3351411D1*
X5104166Y3306561D2*
X5144314Y3287416D1*
Y3314211D1*
X5108013Y3273163D2*
X5106067Y3275065D1*
X5104166Y3273163D1*
X5106067Y3271218D1*
X5108013Y3273163D1*
X5134763Y3256921D2*
X5136665D1*
X5140511Y3255020D1*
X5142413Y3253118D1*
X5144314Y3249272D1*
Y3241622D1*
X5142413Y3237820D1*
X5140511Y3235919D1*
X5136665Y3233973D1*
X5132862D1*
X5129015Y3235919D1*
X5123312Y3239721D1*
X5104166Y3258866D1*
Y3232072D1*
X4116254Y4923876D2*
X4097153D1*
X4095251Y4906676D1*
X4097153Y4908577D1*
X4102901Y4910522D1*
X4108604D1*
X4114352Y4908577D1*
X4118199Y4904774D1*
X4120100Y4899026D1*
Y4895224D1*
X4118199Y4889476D1*
X4114352Y4885629D1*
X4108604Y4883728D1*
X4102901D1*
X4097153Y4885629D1*
X4095251Y4887575D1*
X4093306Y4891377D1*
X4134353Y4887575D2*
X4132452Y4885629D1*
X4134353Y4883728D1*
X4136299Y4885629D1*
X4134353Y4887575D1*
X4150596Y4914325D2*
Y4916226D1*
X4152497Y4920073D1*
X4154398Y4921974D1*
X4158245Y4923876D1*
X4165894D1*
X4169697Y4921974D1*
X4171598Y4920073D1*
X4173543Y4916226D1*
Y4912424D1*
X4171598Y4908577D1*
X4167795Y4902873D1*
X4148650Y4883728D1*
X4175445D1*
X4104774Y5023865D2*
X4085673D1*
X4083772Y5006665D1*
X4085673Y5008567D1*
X4091421Y5010512D1*
X4097125D1*
X4102873Y5008567D1*
X4106720Y5004764D1*
X4108621Y4999016D1*
Y4995213D1*
X4106720Y4989465D1*
X4102873Y4985619D1*
X4097125Y4983717D1*
X4091421D1*
X4085673Y4985619D1*
X4083772Y4987564D1*
X4081826Y4991367D1*
X4122873Y4987564D2*
X4120972Y4985619D1*
X4122873Y4983717D1*
X4124819Y4985619D1*
X4122873Y4987564D1*
X4137170Y5016216D2*
X4141017Y5018161D1*
X4146765Y5023865D1*
Y4983717D1*
X4166766D2*
X4185911Y5023865D1*
X4159117D1*
X2254897Y5304651D2*
X2252952Y5298903D1*
X2249149Y5295056D1*
X2243401Y5293155D1*
X2241500D1*
X2235752Y5295056D1*
X2231950Y5298903D1*
X2230004Y5304651D1*
Y5306552D1*
X2231950Y5312300D1*
X2235752Y5316103D1*
X2241500Y5318004D1*
X2243401D1*
X2249149Y5316103D1*
X2252952Y5312300D1*
X2254897Y5304651D1*
Y5295056D1*
X2252952Y5285506D1*
X2249149Y5279758D1*
X2243401Y5277856D1*
X2239599D1*
X2233851Y5279758D1*
X2231950Y5283604D1*
X2290197Y5312300D2*
X2288296Y5316103D1*
X2282547Y5318004D1*
X2278745D1*
X2272997Y5316103D1*
X2269150Y5310355D1*
X2267249Y5300804D1*
Y5291254D1*
X2269150Y5283604D1*
X2272997Y5279758D1*
X2278745Y5277856D1*
X2280646D1*
X2286350Y5279758D1*
X2290197Y5283604D1*
X2292098Y5289352D1*
Y5291254D1*
X2290197Y5297002D1*
X2286350Y5300804D1*
X2280646Y5302706D1*
X2278745D1*
X2272997Y5300804D1*
X2269150Y5297002D1*
X2267249Y5291254D1*
X2306351Y5281703D2*
X2304449Y5279758D1*
X2306351Y5277856D1*
X2308296Y5279758D1*
X2306351Y5281703D1*
X2345541Y5304651D2*
X2343596Y5298903D1*
X2339793Y5295056D1*
X2334045Y5293155D1*
X2332144D1*
X2326396Y5295056D1*
X2322593Y5298903D1*
X2320648Y5304651D1*
Y5306552D1*
X2322593Y5312300D1*
X2326396Y5316103D1*
X2332144Y5318004D1*
X2334045D1*
X2339793Y5316103D1*
X2343596Y5312300D1*
X2345541Y5304651D1*
Y5295056D1*
X2343596Y5285506D1*
X2339793Y5279758D1*
X2334045Y5277856D1*
X2330242D1*
X2324494Y5279758D1*
X2322593Y5283604D1*
X2382786Y5304651D2*
X2380840Y5298903D1*
X2377038Y5295056D1*
X2371290Y5293155D1*
X2369388D1*
X2363640Y5295056D1*
X2359838Y5298903D1*
X2357892Y5304651D1*
Y5306552D1*
X2359838Y5312300D1*
X2363640Y5316103D1*
X2369388Y5318004D1*
X2371290D1*
X2377038Y5316103D1*
X2380840Y5312300D1*
X2382786Y5304651D1*
Y5295056D1*
X2380840Y5285506D1*
X2377038Y5279758D1*
X2371290Y5277856D1*
X2367487D1*
X2361739Y5279758D1*
X2359838Y5283604D1*
X-542419Y2548655D2*
X-544365Y2552502D1*
X-550069Y2558250D1*
X-509921D1*
X-542419Y2570601D2*
X-544365Y2574448D1*
X-550069Y2580196D1*
X-509921D1*
X-540518Y2594493D2*
X-542419D1*
X-546266Y2596394D1*
X-548167Y2598295D1*
X-550069Y2602142D1*
Y2609791D1*
X-548167Y2613594D1*
X-546266Y2615495D1*
X-542419Y2617441D1*
X-538617D1*
X-534770Y2615495D1*
X-529066Y2611693D1*
X-509921Y2592547D1*
Y2619342D1*
X-513767Y2633595D2*
X-511822Y2631693D1*
X-509921Y2633595D1*
X-511822Y2635540D1*
X-513767Y2633595D1*
X-550069Y2670839D2*
Y2651738D1*
X-532869Y2649837D1*
X-534770Y2651738D1*
X-536715Y2657486D1*
Y2663190D1*
X-534770Y2668938D1*
X-530967Y2672785D1*
X-525219Y2674686D1*
X-521417D1*
X-515669Y2672785D1*
X-511822Y2668938D1*
X-509921Y2663190D1*
Y2657486D1*
X-511822Y2651738D1*
X-513767Y2649837D1*
X-517570Y2647891D1*
X2281596Y5635902D2*
X2279651Y5630154D1*
X2275848Y5626307D1*
X2270100Y5624406D1*
X2268199D1*
X2262451Y5626307D1*
X2258649Y5630154D1*
X2256703Y5635902D1*
Y5637803D1*
X2258649Y5643551D1*
X2262451Y5647354D1*
X2268199Y5649255D1*
X2270100D1*
X2275848Y5647354D1*
X2279651Y5643551D1*
X2281596Y5635902D1*
Y5626307D1*
X2279651Y5616756D1*
X2275848Y5611008D1*
X2270100Y5609107D1*
X2266298D1*
X2260550Y5611008D1*
X2258649Y5614855D1*
X2301597Y5609107D2*
X2320743Y5649255D1*
X2293948D1*
X2334995Y5612954D2*
X2333094Y5611008D1*
X2334995Y5609107D1*
X2336941Y5611008D1*
X2334995Y5612954D1*
X2372240Y5649255D2*
X2353139D1*
X2351238Y5632055D1*
X2353139Y5633956D1*
X2358887Y5635902D1*
X2364591D1*
X2370339Y5633956D1*
X2374186Y5630154D1*
X2376087Y5624406D1*
Y5620603D1*
X2374186Y5614855D1*
X2370339Y5611008D1*
X2364591Y5609107D1*
X2358887D1*
X2353139Y5611008D1*
X2351238Y5612954D1*
X2349292Y5616756D1*
M02*
