G04 DipTrace 3.1.0.1*
G04 Panal-PCB-rev2-route-component2.TopPaste.gbr*
%MOIN*%
G04 #@! TF.FileFunction,Paste,Top*
G04 #@! TF.Part,Single*
%ADD62R,0.015591X0.070709*%
%ADD64R,0.102205X0.007717*%
%ADD66R,0.015591X0.054961*%
%ADD70R,0.058898X0.070709*%
%ADD72R,0.039213X0.051024*%
%ADD74R,0.314803X0.117953*%
%ADD88R,0.051024X0.04315*%
%ADD90R,0.062835X0.054961*%
%ADD92R,0.054961X0.062835*%
%FSLAX26Y26*%
G04*
G70*
G90*
G75*
G01*
G04 TopPaste*
%LPD*%
D92*
X2927290Y828146D3*
X3037526D3*
X3164790Y1759396D3*
X3054554D3*
X3164790Y2159396D3*
X3054554D3*
X3146039Y3109396D3*
X3035803D3*
X3171039Y3509396D3*
X3060803D3*
X2927290Y4446896D3*
X3037526D3*
D90*
X3677290Y3278147D3*
Y3167911D3*
D92*
X3425026Y4278147D3*
X3314790D3*
X3452290Y3634396D3*
X3562526D3*
X3452290Y3528147D3*
X3562526D3*
D90*
X3583541Y4509396D3*
Y4399160D3*
X3689790Y4509396D3*
Y4399160D3*
X3796039Y4509396D3*
Y4399160D3*
X3952290Y2484396D3*
Y2594633D3*
X3283541Y2484396D3*
Y2594633D3*
D92*
X3221039Y2721896D3*
X3331276D3*
D88*
X3952290Y2771896D3*
Y2697093D3*
D74*
X3414790Y4071896D3*
Y3827802D3*
D90*
X3802289Y3790647D3*
Y3680411D3*
D72*
X3796039Y4071547D3*
D70*
X3756669Y3929028D3*
D72*
X3717299Y4071508D3*
D92*
X3789790Y4203147D3*
X3679554D3*
X3533541Y4696896D3*
X3423304D3*
D90*
X3677290Y3046896D3*
Y2936660D3*
D66*
X3383539Y4453147D3*
X3420941D3*
X3458343D3*
Y4579131D3*
X3420941D3*
X3383539D3*
D64*
X3496039Y2721896D3*
Y2696306D3*
Y2670715D3*
Y2645125D3*
Y2619534D3*
Y2593944D3*
X3496047Y2568353D3*
X3496039Y2542762D3*
X3763362Y2542644D3*
X3763756Y2568274D3*
Y2593944D3*
Y2619534D3*
Y2645125D3*
Y2670715D3*
Y2696306D3*
Y2721896D3*
D62*
X3821039Y2990646D3*
X3871039D3*
X3921039D3*
X3971039D3*
Y3203244D3*
X3921039D3*
X3871039D3*
X3821039D3*
M02*
