G04 DipTrace 3.1.0.1*
G04 TAS5805Mbis2.TopAssy.gbr*
%MOIN*%
G04 #@! TF.FileFunction,Drawing,Top*
G04 #@! TF.Part,Single*
%ADD10C,0.009843*%
%ADD63C,0.006176*%
%FSLAX26Y26*%
G04*
G70*
G90*
G75*
G01*
G04 TopAssy*
%LPD*%
X1877377Y1720302D2*
D10*
X2113621D1*
Y1484082D1*
X1877377D1*
Y1720302D1*
Y1436838D2*
X2113621D1*
Y1200617D1*
X1877377D1*
Y1436838D1*
Y869909D2*
X2113621D1*
Y633688D1*
X1877377D1*
Y869909D1*
Y1153373D2*
X2113621D1*
Y917153D1*
X1877377D1*
Y1153373D1*
X1156910Y1370118D2*
X1330158D1*
Y984291D1*
X1156910D1*
Y1370118D1*
X2867324Y1400119D2*
D63*
Y1396316D1*
X2869225Y1392470D1*
X2874973Y1390568D1*
X2907516D1*
X2880721Y1384820D2*
Y1398218D1*
Y1412470D2*
X2907516D1*
X2892217D2*
X2886469Y1414416D1*
X2882622Y1418218D1*
X2880721Y1422065D1*
Y1427813D1*
Y1449715D2*
X2882622Y1445912D1*
X2886469Y1442066D1*
X2892217Y1440164D1*
X2896020D1*
X2901768Y1442066D1*
X2905570Y1445912D1*
X2907516Y1449715D1*
Y1455463D1*
X2905570Y1459310D1*
X2901768Y1463112D1*
X2896019Y1465058D1*
X2892217D1*
X2886469Y1463112D1*
X2882622Y1459310D1*
X2880721Y1455463D1*
Y1449715D1*
Y1477409D2*
X2907516D1*
X2888370D2*
X2882622Y1483157D1*
X2880721Y1487004D1*
Y1492708D1*
X2882622Y1496555D1*
X2888370Y1498456D1*
X2907516D1*
X2867324Y1516555D2*
X2899866D1*
X2905570Y1518456D1*
X2907516Y1522303D1*
Y1526106D1*
X2880721Y1510807D2*
Y1524205D1*
X2867324Y833190D2*
Y829387D1*
X2869225Y825540D1*
X2874973Y823639D1*
X2907516D1*
X2880721Y817891D2*
Y831288D1*
Y845541D2*
X2907516D1*
X2892217D2*
X2886469Y847487D1*
X2882622Y851289D1*
X2880721Y855136D1*
Y860884D1*
Y882786D2*
X2882622Y878983D1*
X2886469Y875137D1*
X2892217Y873235D1*
X2896020D1*
X2901768Y875137D1*
X2905570Y878983D1*
X2907516Y882786D1*
Y888534D1*
X2905570Y892381D1*
X2901768Y896183D1*
X2896019Y898129D1*
X2892217D1*
X2886469Y896183D1*
X2882622Y892381D1*
X2880721Y888534D1*
Y882786D1*
Y910480D2*
X2907516D1*
X2888370D2*
X2882622Y916228D1*
X2880721Y920075D1*
Y925779D1*
X2882622Y929625D1*
X2888370Y931527D1*
X2907516D1*
X2867324Y949626D2*
X2899866D1*
X2905570Y951527D1*
X2907516Y955374D1*
Y959177D1*
X2880721Y943878D2*
Y957275D1*
M02*
