G04 DipTrace 3.1.0.1*
G04 TAS5805Mbis2.Top.gbr*
%MOIN*%
G04 #@! TF.FileFunction,Copper,L1,Top*
G04 #@! TF.Part,Single*
G04 #@! TA.AperFunction,Conductor*
%ADD10C,0.009843*%
%ADD14C,0.01378*%
G04 #@! TA.AperFunction,CopperBalancing*
%ADD15C,0.003937*%
%ADD17R,0.064961X0.122047*%
%ADD18R,0.062992X0.106299*%
%ADD19R,0.062992X0.070866*%
%ADD20R,0.051181X0.059055*%
%ADD21R,0.059055X0.051181*%
G04 #@! TA.AperFunction,ComponentPad*
%ADD22O,0.07X0.06*%
%ADD23C,0.094488*%
%ADD24R,0.098425X0.23622*%
%ADD25R,0.070866X0.015748*%
%ADD26R,0.098425X0.216535*%
G04 #@! TA.AperFunction,ViaPad*
%ADD27C,0.031496*%
%ADD29C,0.023622*%
%ADD31C,0.027559*%
%FSLAX26Y26*%
G04*
G70*
G90*
G75*
G01*
G04 Top*
%LPD*%
X497467Y827008D2*
D10*
X711247D1*
X806522Y922283D1*
X1062428Y1296299D2*
Y1292362D1*
X1129357D1*
X1062428Y1296299D2*
X1026995Y1331732D1*
X999436D1*
X997467Y1333701D1*
X1129357Y1036457D2*
X1093924D1*
X1066365Y1008898D1*
Y957717D1*
X1034869Y926220D1*
X997467D1*
X1357703Y1266772D2*
D14*
X1548648D1*
X1566365Y1284488D1*
Y1323858D1*
X1357703Y1190000D2*
X1621483D1*
X1649042Y1217559D1*
X1746483D1*
X1747467Y1218543D1*
X1357703Y1087638D2*
X1546680D1*
X1566365Y1067953D1*
Y1030551D1*
X1357703Y1164409D2*
X1623451D1*
X1652388Y1135472D1*
X1747467D1*
X1129357Y1317953D2*
X1091955D1*
X1074239Y1335669D1*
Y1457717D1*
D10*
X1078176Y1461654D1*
Y1501024D1*
Y1540394D1*
X1026995D1*
X1003373Y1516772D1*
X1078176Y1501024D2*
X1019121D1*
X1003373Y1516772D1*
X1078176Y1461654D2*
X1036837D1*
X997467Y1422283D1*
X499436Y1527008D2*
X785262D1*
X798648Y1540394D1*
Y1501024D1*
Y1461654D1*
X739593Y997087D2*
X680538D1*
X676601Y1001024D1*
X715971Y945906D2*
Y973465D1*
X739593Y997087D1*
X759278Y945906D2*
Y977402D1*
X739593Y997087D1*
X828176D2*
X739593D1*
X676601Y961654D2*
Y1001024D1*
X828176Y997087D2*
X865577D1*
X889199Y1020709D1*
X916759D1*
X922664Y1014803D1*
X798648Y1461654D2*
Y1422283D1*
Y1382913D1*
Y1343543D1*
X922664Y1333701D2*
X808491D1*
X798648Y1343543D1*
X1243534Y1177205D2*
X1243530Y1249055D1*
X1129357Y1343543D2*
X1196286D1*
X1129357Y1010866D2*
X1194318D1*
X1196286Y1012835D1*
X1298648Y1678189D2*
X1337231D1*
X1360853Y1654567D1*
X1298648Y1634882D2*
X1341168D1*
X1360853Y1654567D1*
X1298648Y1560079D2*
X1337231D1*
X1360853Y1536457D1*
X1298648Y1516772D2*
X1341168D1*
X1360853Y1536457D1*
Y1654567D1*
Y1536457D2*
Y1445906D1*
X1364790Y1441969D1*
X1306522Y1465591D2*
X1341168D1*
X1364790Y1441969D1*
X1306522Y1422283D2*
X1345105D1*
X1364790Y1441969D1*
X1306522Y934094D2*
X1343136D1*
X1364790Y912441D1*
X1306522Y890787D2*
X1343136D1*
X1364790Y912441D1*
X1298648Y839606D2*
X1339199D1*
X1360853Y817953D1*
X1298648Y796299D2*
X1339199D1*
X1360853Y817953D1*
X1298648Y721496D2*
X1337231D1*
X1358885Y699843D1*
X1298648Y678189D2*
X1337231D1*
X1358885Y699843D1*
X1364790Y912441D2*
Y821890D1*
X1360853Y817953D1*
Y701811D1*
X1358885Y699843D1*
X857703Y1690000D2*
X876601D1*
X915971Y1650630D1*
X857703D2*
X915971D1*
X857703Y1611260D2*
X876601D1*
X915971Y1650630D1*
X971877Y1611260D2*
X955341D1*
X915971Y1650630D1*
X971877D2*
X915971D1*
X971877Y1690000D2*
X955341D1*
X915971Y1650630D1*
X857703Y741181D2*
X876601D1*
X914003Y703780D1*
X857703Y701811D2*
X912034D1*
X914003Y703780D1*
X857703Y662441D2*
X872664D1*
X914003Y703780D1*
X971877Y662441D2*
X955341D1*
X914003Y703780D1*
X971877Y701811D2*
X915971D1*
X914003Y703780D1*
X971877Y741181D2*
X951404D1*
X914003Y703780D1*
X869514Y1445906D2*
Y1493150D1*
X893136Y1516772D1*
X922664Y1422283D2*
X893136D1*
X869514Y1445906D1*
X922664Y1422283D2*
X885262D1*
X869514Y1406535D1*
Y1445906D1*
X873451Y1264803D2*
X902979D1*
X922664Y1245118D1*
X873451Y1225433D2*
X902979D1*
X922664Y1245118D1*
Y926220D2*
Y880945D1*
X936444Y867165D1*
X897073D2*
Y900630D1*
X922664Y926220D1*
X2464003Y973465D2*
X2424633D1*
X2404160Y952992D1*
X2464003Y934094D2*
X2423058D1*
X2404160Y952992D1*
X2464003Y855354D2*
X2425420D1*
X2404160Y834094D1*
X2464003Y815984D2*
X2422270D1*
X2404160Y834094D1*
X2464003Y1536457D2*
X2420696D1*
X2404160Y1519921D1*
X2464003Y1497087D2*
X2426995D1*
X2404160Y1519921D1*
X2464003Y1418346D2*
X2421483D1*
X2404160Y1401024D1*
X2464003Y1378976D2*
X2426207D1*
X2404160Y1401024D1*
X1357703Y1241181D2*
X1412822D1*
X1357703Y1113228D2*
X1412822D1*
X1357703Y1241181D2*
X1298648D1*
X1290774Y1249055D1*
X1129357Y1241181D2*
X1188412D1*
X1196286Y1249055D1*
X1357703Y1113228D2*
X1296680D1*
X1290774Y1107323D1*
X2089987Y1602205D2*
X2211640D1*
X2293924Y1519921D1*
Y1578976D1*
X2314396Y1599449D1*
X2754160D1*
X2794711Y1558898D1*
X2089987Y1318740D2*
X2211640D1*
X2293924Y1401024D1*
Y1340394D1*
X2318333Y1315984D1*
X2748648D1*
X2794711Y1362047D1*
X499436Y1327008D2*
X724633D1*
X873451Y1178189D1*
X1038806D1*
X1074239Y1213622D1*
X1127388D1*
X1129357Y1215591D1*
X1357703Y1292362D2*
D14*
X1460066D1*
X1491562Y1323858D1*
D10*
Y1355354D1*
X1735656Y1599449D1*
X1898255D1*
X1901010Y1602205D1*
X1357703Y1215591D2*
D14*
X1588018D1*
X1664790Y1292362D1*
X1746483D1*
X1747467Y1293346D1*
D10*
X1875617D1*
X1901010Y1318740D1*
X1357703Y1062047D2*
D14*
X1460066D1*
X1491562Y1030551D1*
D10*
Y1004961D1*
X1743530Y752992D1*
X1899829D1*
X1901010Y751811D1*
X1357703Y1138819D2*
D14*
X1589987D1*
X1668136Y1060669D1*
X1747467D1*
D10*
X1875617D1*
X1901010Y1035276D1*
X1129357Y1062047D2*
X1068333D1*
X1062428Y1056142D1*
X497467Y727008D2*
X658491D1*
X853766Y922283D1*
X1062428Y1056142D2*
X1026995Y1020709D1*
X1003373D1*
X997467Y1014803D1*
X1357703Y1317953D2*
X1399042D1*
X1424633Y1343543D1*
X1431719Y1350630D1*
Y1434094D1*
X1439593Y1441969D1*
X1357703Y1343543D2*
X1424633D1*
X1357711Y1010866D2*
X1395105D1*
X1419908Y986063D1*
Y932126D1*
X1439593Y912441D1*
X1357703Y1036457D2*
X1389199D1*
X1419908Y1005748D1*
Y986063D1*
X1439593Y1441969D2*
Y1504961D1*
X1471089Y1536457D1*
Y1654567D1*
X1439593Y912441D2*
X1456129D1*
Y832913D1*
X1471089Y817953D1*
Y701811D1*
X1469121Y699843D1*
X915971Y1819921D2*
X1365577D1*
X1471877Y1713622D1*
Y1655354D1*
X1471089Y1654567D1*
X1534869Y1697874D2*
X1514396D1*
X1471089Y1654567D1*
X1534869Y1658504D2*
X1475026D1*
X1471089Y1654567D1*
X1534869Y1619134D2*
X1506522D1*
X1471089Y1654567D1*
X1534869Y1564016D2*
X1498648D1*
X1471089Y1536457D1*
X1534869Y1524646D2*
X1482900D1*
X1471089Y1536457D1*
X1499436Y1477402D2*
X1475026D1*
X1439593Y1441969D1*
X1499436Y1438031D2*
X1443530D1*
X1439593Y1441969D1*
X1499436Y918346D2*
X1445499D1*
X1439593Y912441D1*
X1499436Y878976D2*
X1473058D1*
X1439593Y912441D1*
X1534869Y831732D2*
X1484869D1*
X1471089Y817953D1*
X1534869Y792362D2*
X1496680D1*
X1471089Y817953D1*
X1534869Y737244D2*
X1506522D1*
X1469121Y699843D1*
X1534869Y697874D2*
X1471089D1*
X1469121Y699843D1*
X1534869Y658504D2*
X1510459D1*
X1469121Y699843D1*
X914003Y534488D2*
X1367546D1*
X1471877Y638819D1*
Y697087D1*
X499436Y1627008D2*
X637231D1*
X830144Y1819921D1*
X915971D1*
X2089987Y751811D2*
X2211640D1*
X2293924Y834094D1*
Y757717D1*
X2291955Y755748D1*
X2755341D1*
X2794711Y795118D1*
X2089987Y1035276D2*
X2211640D1*
X2293924Y952992D1*
Y1035669D1*
X2297467Y1039213D1*
X2747467D1*
X2794711Y991969D1*
X828176Y1071890D2*
Y1054173D1*
X808491Y1034488D1*
X604948D1*
X497467Y927008D1*
X828176Y1071890D2*
X869514D1*
X885262Y1087638D1*
X1129357D1*
X499436Y1227008D2*
X627782D1*
X645105Y1209685D1*
X818333D1*
X869514Y1158504D1*
X1046680D1*
X1078176Y1190000D1*
X1129357D1*
X497467Y1027008D2*
X556916D1*
X601798Y1071890D1*
X739593D1*
Y1099449D1*
X755341Y1115197D1*
X1127388D1*
X1129357Y1113228D1*
X499436Y1127008D2*
X578176D1*
X641168Y1190000D1*
X810459D1*
X865577Y1134882D1*
X1054554D1*
X1082113Y1162441D1*
X1127388D1*
X1129357Y1164409D1*
Y1266772D2*
X1056522D1*
X1034869Y1245118D1*
X997467D1*
D27*
X1306522Y1422283D3*
D29*
X1412822Y1241181D3*
D27*
X798648Y1540394D3*
D29*
X1412822Y1113228D3*
X1196286Y1296299D3*
X1243530D3*
X1290774D3*
X1196286Y1343543D3*
X1243530D3*
X1290774D3*
X1196286Y1201811D3*
X1243530D3*
X1290774D3*
X1196286Y1249055D3*
X1243530D3*
X1290774D3*
X1196286Y1107323D3*
X1243530D3*
X1290774D3*
X1196286Y1154567D3*
X1243530D3*
X1290774D3*
X1196286Y1012835D3*
X1243530D3*
X1290774D3*
X1196286Y1060079D3*
X1243530D3*
X1290774D3*
D31*
X1062428Y1056142D3*
X853766Y922283D3*
D27*
X1306522Y1465591D3*
X1298648Y1516772D3*
Y1560079D3*
Y1634882D3*
Y1678189D3*
X1306522Y934094D3*
Y890787D3*
X1298648Y839606D3*
Y796299D3*
Y721496D3*
Y678189D3*
X1534869Y1697874D3*
Y1658504D3*
Y1619134D3*
Y1564016D3*
Y1524646D3*
X1499436Y1477402D3*
Y1438031D3*
X1534869Y658504D3*
Y697874D3*
Y737244D3*
Y792362D3*
Y831732D3*
X1499436Y878976D3*
Y918346D3*
X971877Y662441D3*
Y701811D3*
Y741181D3*
X857703Y662441D3*
Y701811D3*
Y741181D3*
X971877Y1611260D3*
Y1650630D3*
Y1690000D3*
X857703Y1611260D3*
Y1650630D3*
Y1690000D3*
X869514Y1445906D3*
Y1406535D3*
X798648Y1501024D3*
Y1461654D3*
D31*
X1062428Y1296299D3*
X806522Y922283D3*
D27*
X1078176Y1540394D3*
Y1501024D3*
Y1461654D3*
X873451Y1264803D3*
Y1225433D3*
X897073Y867165D3*
X936444D3*
X2464003Y973465D3*
Y934094D3*
Y855354D3*
Y815984D3*
Y1536457D3*
Y1497087D3*
Y1418346D3*
Y1378976D3*
X676601Y1001024D3*
Y961654D3*
X715971Y945906D3*
X759278D3*
X798648Y1422283D3*
Y1382913D3*
Y1343543D3*
X1243530Y1422283D3*
X1164790D3*
X1243530Y1501024D3*
X1164790D3*
X1243530Y1579764D3*
X1164790D3*
X1243530Y1658504D3*
X1086050D3*
X1164790D3*
X2345892Y1918346D3*
X1755341Y1839606D3*
X1164790Y1918346D3*
X1401010D3*
X1243530D3*
X1322270D3*
X1479751D3*
X1715971D3*
X1558491D3*
X1637231D3*
X1794711D3*
X2030932D3*
X1873451D3*
X1952192D3*
X2109672D3*
X1597861Y1839606D3*
X2188412Y1918346D3*
X2267152D3*
X2582113D3*
X2424633D3*
X2503373D3*
X2660853D3*
X1676601Y1839606D3*
X1834081D3*
X2070302D3*
X1912822D3*
X771089Y1918346D3*
X1991562Y1839606D3*
X692349Y1918346D3*
X849829D3*
X1086050D3*
X928570D3*
X1007310D3*
X2149042Y1839606D3*
X2227782D3*
X2306522D3*
X2385262D3*
X2621483D3*
X2464003D3*
X2542743D3*
X1519121D3*
X1715971Y1760866D3*
X1558491D3*
X1637231D3*
X1794711D3*
X2030932D3*
X1873451D3*
X1952192D3*
X2109672D3*
X2188412D3*
X2267152D3*
X2345892D3*
X2582113D3*
X2424633D3*
X2503373D3*
X2660853D3*
X1755341Y516772D3*
X1164790Y438031D3*
X1401010D3*
X1243530D3*
X1322270D3*
X1479751D3*
X1715971D3*
X1558491D3*
X1637231D3*
X1794711D3*
X2030932D3*
X1873451D3*
X1952192D3*
X2109672D3*
X1597861Y516772D3*
X2188412Y438031D3*
X2267152D3*
X2345892D3*
X2582113D3*
X2424633D3*
X2503373D3*
X2660853D3*
X1676601Y516772D3*
X1834081D3*
X2070302D3*
X1912822D3*
X771089Y438031D3*
X1991562Y516772D3*
X692349Y438031D3*
X849829D3*
X1086050D3*
X928570D3*
X1007310D3*
X2149042Y516772D3*
X2227782D3*
X2306522D3*
X2385262D3*
X2621483D3*
X2464003D3*
X2542743D3*
X1519121D3*
X1715971Y595512D3*
X1558491D3*
X1637231D3*
X1794711D3*
X2030932D3*
X1873451D3*
X1952192D3*
X2109672D3*
X2188412D3*
X2267152D3*
X2345892D3*
X2582113D3*
X2424633D3*
X2503373D3*
X2660853D3*
X1243530Y934094D3*
X1164790D3*
X1243530Y855354D3*
X1164790D3*
X1243530Y776614D3*
X1164790D3*
X1243530Y697874D3*
X1086050D3*
X1164790D3*
X704160Y1150630D3*
X649042Y1115197D3*
X2263215Y1174252D3*
X2341955D3*
X2420696D3*
X2656916D3*
X2499436D3*
X2578176D3*
X2735656D3*
X2814396D3*
X1995499Y981339D3*
Y1690000D3*
Y1532520D3*
Y1611260D3*
Y1375039D3*
Y1453780D3*
Y1217559D3*
Y1296299D3*
Y1060079D3*
Y1138819D3*
Y823858D3*
Y902598D3*
Y666378D3*
Y745118D3*
X2897073Y981339D3*
Y1690000D3*
Y1532520D3*
Y1611260D3*
X1688412Y1375039D3*
X1767152Y1406535D3*
X1688412Y981339D3*
X1767152Y949843D3*
X2897073Y1375039D3*
Y1453780D3*
Y1217559D3*
Y1296299D3*
Y1060079D3*
Y1138819D3*
Y823858D3*
Y902598D3*
Y666378D3*
Y745118D3*
X823614Y1861391D2*
D15*
X1407541D1*
X819807Y1857585D2*
X1411348D1*
X816001Y1853780D2*
X1415154D1*
X812194Y1849974D2*
X1418961D1*
X808388Y1846168D2*
X1422766D1*
X804583Y1842362D2*
X1426572D1*
X800776Y1838556D2*
X1430379D1*
X796970Y1834751D2*
X1434185D1*
X793164Y1830945D2*
X1437991D1*
X789357Y1827139D2*
X1441798D1*
X785551Y1823333D2*
X1445604D1*
X781744Y1819528D2*
X1449411D1*
X777938Y1815722D2*
X1453217D1*
X774133Y1811916D2*
X1457022D1*
X770333Y1808110D2*
X1460822D1*
X766528Y1804304D2*
X1464627D1*
X762720Y1800499D2*
X1468434D1*
X758915Y1796693D2*
X1472240D1*
X755108Y1792887D2*
X1476047D1*
X751302Y1789081D2*
X1479853D1*
X747496Y1785276D2*
X1483659D1*
X743689Y1781470D2*
X1487466D1*
X739883Y1777664D2*
X1491272D1*
X736077Y1773858D2*
X1495077D1*
X732270Y1770052D2*
X1498885D1*
X728465Y1766247D2*
X1502690D1*
X724657Y1762441D2*
X816728D1*
X1386844D2*
X1506497D1*
X720852Y1758635D2*
X812923D1*
X1391281D2*
X1510303D1*
X717046Y1754829D2*
X809115D1*
X1395726D2*
X1514109D1*
X713247Y1751024D2*
X805310D1*
X1400163D2*
X1517908D1*
X709441Y1747218D2*
X801510D1*
X1404606D2*
X1521714D1*
X705634Y1743412D2*
X797705D1*
X1409043D2*
X1525521D1*
X701828Y1739606D2*
X793899D1*
X1413480D2*
X1529327D1*
X698021Y1735801D2*
X790092D1*
X1417925D2*
X1533134D1*
X694215Y1731995D2*
X786286D1*
X1422362D2*
X1536940D1*
X690409Y1728189D2*
X782479D1*
X1426806D2*
X1540745D1*
X686602Y1724383D2*
X778673D1*
X1431243D2*
X1544552D1*
X682797Y1720577D2*
X774867D1*
X1435688D2*
X1548358D1*
X678991Y1716772D2*
X771060D1*
X1440125D2*
X1552164D1*
X675184Y1712966D2*
X767255D1*
X1442747D2*
X1555971D1*
X671378Y1709160D2*
X763449D1*
X1442747D2*
X1556125D1*
X667571Y1705354D2*
X759642D1*
X1442747D2*
X1556125D1*
X663765Y1701549D2*
X755836D1*
X1442747D2*
X1556125D1*
X659959Y1697743D2*
X752029D1*
X1442747D2*
X1556125D1*
X656160Y1693937D2*
X748223D1*
X1442747D2*
X1556125D1*
X652354Y1690131D2*
X744424D1*
X1442747D2*
X1556125D1*
X648547Y1686325D2*
X740618D1*
X1442747D2*
X1556125D1*
X644741Y1682520D2*
X736812D1*
X1442747D2*
X1556125D1*
X640934Y1678714D2*
X733005D1*
X1442747D2*
X1556125D1*
X475711Y1674908D2*
X729199D1*
X1442747D2*
X1556125D1*
X471906Y1671102D2*
X725392D1*
X1442747D2*
X1556125D1*
X468098Y1667297D2*
X721587D1*
X1442747D2*
X1556125D1*
X464293Y1663491D2*
X717781D1*
X1442747D2*
X1556125D1*
X460487Y1659685D2*
X713974D1*
X1442747D2*
X1556125D1*
X456680Y1655879D2*
X710168D1*
X1442747D2*
X1556125D1*
X452874Y1652073D2*
X706362D1*
X1442747D2*
X1556125D1*
X450621Y1648268D2*
X702555D1*
X1442747D2*
X1556125D1*
X450621Y1644462D2*
X698749D1*
X1442747D2*
X1556125D1*
X450621Y1640656D2*
X694942D1*
X1442747D2*
X1556125D1*
X450621Y1636850D2*
X691136D1*
X1442747D2*
X1556125D1*
X450621Y1633045D2*
X687337D1*
X1442747D2*
X1556125D1*
X450621Y1629239D2*
X683531D1*
X1442747D2*
X1556125D1*
X450621Y1625433D2*
X679726D1*
X1442747D2*
X1556125D1*
X450621Y1621627D2*
X675919D1*
X1442747D2*
X1556125D1*
X450621Y1617822D2*
X672113D1*
X1442747D2*
X1556125D1*
X450621Y1614016D2*
X668306D1*
X1442747D2*
X1556125D1*
X450621Y1610210D2*
X664500D1*
X1442747D2*
X1556125D1*
X450621Y1606404D2*
X660694D1*
X1442747D2*
X1556125D1*
X452220Y1602598D2*
X656887D1*
X1442747D2*
X1556125D1*
X456026Y1598793D2*
X653081D1*
X1442747D2*
X1556125D1*
X459832Y1594987D2*
X649276D1*
X1442747D2*
X1556125D1*
X463639Y1591181D2*
X645469D1*
X1442747D2*
X1556125D1*
X467445Y1587375D2*
X641663D1*
X1442747D2*
X1556125D1*
X471252Y1583570D2*
X637856D1*
X1442747D2*
X1556125D1*
X475058Y1579764D2*
X634050D1*
X1442747D2*
X1556125D1*
X1442747Y1575958D2*
X1556125D1*
X1442747Y1572152D2*
X1556125D1*
X1442747Y1568346D2*
X1556125D1*
X1442747Y1564541D2*
X1556125D1*
X1442747Y1560735D2*
X1556125D1*
X1442747Y1556929D2*
X1556125D1*
X1442747Y1553123D2*
X1556125D1*
X1442747Y1549318D2*
X1556125D1*
X1442747Y1545512D2*
X1556125D1*
X1442747Y1541706D2*
X1556125D1*
X1442747Y1537900D2*
X1556125D1*
X1442747Y1534094D2*
X1556125D1*
X1442747Y1530289D2*
X1556125D1*
X1442747Y1526483D2*
X1556125D1*
X1442747Y1522677D2*
X1556125D1*
X1442747Y1518871D2*
X1556125D1*
X1442747Y1515066D2*
X1556125D1*
X1442747Y1511260D2*
X1556125D1*
X1442747Y1507454D2*
X1553871D1*
X1442747Y1503648D2*
X1550066D1*
X1442747Y1499843D2*
X1530510D1*
X1442747Y1496037D2*
X1526705D1*
X1442639Y1492231D2*
X1522899D1*
X1438833Y1488425D2*
X1519092D1*
X1435026Y1484619D2*
X1516755D1*
X1431220Y1480814D2*
X1516755D1*
X1427413Y1477008D2*
X1516755D1*
X1423608Y1473202D2*
X1516755D1*
X1419802Y1469396D2*
X1516755D1*
X1419125Y1465591D2*
X1516755D1*
X1419125Y1461785D2*
X1516755D1*
X1419125Y1457979D2*
X1516755D1*
X1419125Y1454173D2*
X1516755D1*
X1419125Y1450367D2*
X1516755D1*
X1419125Y1446562D2*
X1516755D1*
X1419125Y1442756D2*
X1516755D1*
X1419125Y1438950D2*
X1516755D1*
X1419125Y1435144D2*
X1516755D1*
X1419125Y1431339D2*
X1516755D1*
X1419125Y1427533D2*
X1516755D1*
X1419125Y1423727D2*
X1513449D1*
X1419125Y1419921D2*
X1478146D1*
X1419125Y1416115D2*
X1474340D1*
X1419125Y1412310D2*
X1470533D1*
X1419125Y1408504D2*
X1466727D1*
X1419125Y1404698D2*
X1462928D1*
X1419125Y1400892D2*
X1459122D1*
X1419125Y1397087D2*
X1445888D1*
X1419125Y1393281D2*
X1445888D1*
X1419125Y1389475D2*
X1445888D1*
X1419125Y1385669D2*
X1445888D1*
X1419125Y1381864D2*
X1445888D1*
X1419125Y1378058D2*
X1445888D1*
X1419125Y1374252D2*
X1445888D1*
X1419125Y1370446D2*
X1445888D1*
X1419117Y1366640D2*
X1445888D1*
X1415602Y1362835D2*
X1445888D1*
X1411797Y1359029D2*
X1445888D1*
X1407991Y1355223D2*
X1445888D1*
X1404192Y1351417D2*
X1445073D1*
X1391566Y1347612D2*
X1441274D1*
X1391566Y1343806D2*
X1437469D1*
X1391566Y1340000D2*
X1433663D1*
X1391566Y1336194D2*
X1429856D1*
X1391566Y1332388D2*
X1426050D1*
X1391566Y1328583D2*
X1422243D1*
X1391566Y1324777D2*
X1418437D1*
X1391566Y1320971D2*
X1414631D1*
X1391566Y1317165D2*
X1410824D1*
X476636Y1577795D2*
X632471D1*
X817176Y1762459D1*
X817724Y1762739D1*
X818333Y1762835D1*
X1385573Y1762810D1*
X1386159Y1762618D1*
X1386543Y1762361D1*
X1441878Y1714900D1*
X1442199Y1714375D1*
X1442343Y1713777D1*
Y1492995D1*
X1442199Y1492396D1*
X1441878Y1491871D1*
X1418726Y1468711D1*
X1418703Y1366857D1*
X1418513Y1366272D1*
X1418151Y1365773D1*
X1402168Y1349824D1*
X1401619Y1349545D1*
X1401010Y1349449D1*
X1391176D1*
X1391168Y1314024D1*
X1408062Y1314016D1*
X1446287Y1352234D1*
X1446310Y1398970D1*
X1446500Y1399555D1*
X1446862Y1400054D1*
X1447361Y1400416D1*
X1447946Y1400606D1*
X1454160Y1400630D1*
X1459243D1*
X1478593Y1419940D1*
X1479142Y1420219D1*
X1479751Y1420315D1*
X1510424D1*
X1517154Y1427038D1*
X1517176Y1485584D1*
X1517366Y1486169D1*
X1517728Y1486668D1*
X1533711Y1502617D1*
X1534260Y1502896D1*
X1534869Y1502992D1*
X1549794D1*
X1556524Y1509715D1*
X1556522Y1712799D1*
X1404136Y1865193D1*
X827030Y1865197D1*
X638388Y1676596D1*
X637840Y1676316D1*
X637231Y1676220D1*
X476636D1*
X450224Y1649816D1*
X450223Y1604209D1*
X476627Y1577797D1*
X642058Y1570052D2*
X805178D1*
X465476Y1566247D2*
X472555D1*
X636552D2*
X808986D1*
X461671Y1562441D2*
X812791D1*
X457864Y1558635D2*
X816598D1*
X454058Y1554829D2*
X819904D1*
X450621Y1551024D2*
X819904D1*
X450621Y1547218D2*
X819904D1*
X450621Y1543412D2*
X819904D1*
X450621Y1539606D2*
X819904D1*
X450621Y1535801D2*
X819904D1*
X450621Y1531995D2*
X819904D1*
X450621Y1528189D2*
X819904D1*
X450621Y1524383D2*
X819904D1*
X450621Y1520577D2*
X819904D1*
X450621Y1516772D2*
X819904D1*
X450621Y1512966D2*
X819904D1*
X450621Y1509160D2*
X819904D1*
X450621Y1505354D2*
X819904D1*
X450906Y1501549D2*
X819904D1*
X454711Y1497743D2*
X819904D1*
X458518Y1493937D2*
X819904D1*
X462324Y1490131D2*
X819904D1*
X466130Y1486325D2*
X819904D1*
X469937Y1482520D2*
X819904D1*
X721774Y1478714D2*
X819904D1*
X725580Y1474908D2*
X819904D1*
X729387Y1471102D2*
X819904D1*
X733193Y1467297D2*
X819904D1*
X737000Y1463491D2*
X819904D1*
X740806Y1459685D2*
X819904D1*
X744612Y1455879D2*
X819904D1*
X748411Y1452073D2*
X819904D1*
X752217Y1448268D2*
X819904D1*
X756024Y1444462D2*
X819904D1*
X759829Y1440656D2*
X819904D1*
X763636Y1436850D2*
X819904D1*
X767442Y1433045D2*
X819904D1*
X769518Y1429239D2*
X819904D1*
X769518Y1425433D2*
X819904D1*
X769518Y1421627D2*
X819904D1*
X769518Y1417822D2*
X819904D1*
X769518Y1414016D2*
X819904D1*
X769518Y1410210D2*
X819904D1*
X769518Y1406404D2*
X819904D1*
X769518Y1402598D2*
X819904D1*
X769518Y1398793D2*
X819904D1*
X769518Y1394987D2*
X819904D1*
X769518Y1391181D2*
X819904D1*
X769518Y1387375D2*
X819904D1*
X769518Y1383570D2*
X819904D1*
X769518Y1379764D2*
X822580D1*
X769518Y1375958D2*
X827148D1*
X769518Y1372152D2*
X831715D1*
X769518Y1368346D2*
X836283D1*
X769518Y1364541D2*
X840850D1*
X769518Y1360735D2*
X945888D1*
X769518Y1356929D2*
X945888D1*
X769518Y1353123D2*
X945888D1*
X769518Y1349318D2*
X945888D1*
X769518Y1345512D2*
X945888D1*
X769518Y1341706D2*
X945888D1*
X769518Y1337900D2*
X945888D1*
X771902Y1334094D2*
X945888D1*
X775709Y1330289D2*
X945888D1*
X779514Y1326483D2*
X945888D1*
X783322Y1322677D2*
X945888D1*
X787127Y1318871D2*
X945888D1*
X865736Y1315066D2*
X945888D1*
X869543Y1311260D2*
X945888D1*
X873349Y1307454D2*
X945888D1*
X633286Y1565827D2*
X475029Y1565857D1*
X473479Y1566104D1*
X471987Y1566588D1*
X470589Y1567301D1*
X469319Y1568223D1*
X468160Y1569337D1*
X450222Y1551388D1*
X450223Y1501846D1*
X472693Y1479369D1*
X720217Y1479346D1*
X720802Y1479156D1*
X721301Y1478794D1*
X768745Y1431315D1*
X769025Y1430766D1*
X769121Y1430157D1*
Y1336492D1*
X787656Y1317949D1*
X861949Y1317929D1*
X862534Y1317739D1*
X863033Y1317377D1*
X874265Y1306143D1*
X946278Y1306142D1*
X946286Y1361252D1*
X845608Y1361281D1*
X845020Y1361463D1*
X844633Y1361717D1*
X820773Y1381635D1*
X820451Y1382160D1*
X820308Y1382759D1*
X820302Y1555319D1*
X801766Y1573862D1*
X645466Y1573858D1*
X639789Y1568223D1*
X638518Y1567301D1*
X637121Y1566588D1*
X635629Y1566104D1*
X634079Y1565857D1*
X633291Y1565827D1*
X1063772Y1558241D2*
X1096517D1*
X1059965Y1554436D2*
X1100324D1*
X1056159Y1550630D2*
X1103369D1*
X974243Y1546824D2*
X1103369D1*
X974243Y1543018D2*
X1103369D1*
X974243Y1539213D2*
X1103369D1*
X974243Y1535407D2*
X1103369D1*
X974243Y1531601D2*
X1103369D1*
X974243Y1527795D2*
X1103369D1*
X974243Y1523990D2*
X1103369D1*
X974243Y1520184D2*
X1103369D1*
X974243Y1516378D2*
X1103369D1*
X974243Y1512572D2*
X1103369D1*
X974243Y1508766D2*
X1103369D1*
X974243Y1504961D2*
X1103369D1*
X974243Y1501155D2*
X1103369D1*
X974243Y1497349D2*
X1103369D1*
X974243Y1493543D2*
X1103369D1*
X974243Y1489738D2*
X1103369D1*
X974243Y1485932D2*
X1103369D1*
X974243Y1482126D2*
X1103369D1*
X974243Y1478320D2*
X1103369D1*
X974243Y1474514D2*
X1103369D1*
X974243Y1470709D2*
X1103369D1*
X974243Y1466903D2*
X1103369D1*
X974243Y1463097D2*
X1103369D1*
X974243Y1459291D2*
X1103369D1*
X974243Y1455486D2*
X1100324D1*
X974243Y1451680D2*
X1096517D1*
X974243Y1447874D2*
X1092711D1*
X974243Y1444068D2*
X1088912D1*
X974243Y1440262D2*
X1085106D1*
X974243Y1436457D2*
X1081301D1*
X974243Y1432651D2*
X1077493D1*
X974243Y1428845D2*
X1073688D1*
X974243Y1425039D2*
X1069881D1*
X974243Y1421234D2*
X1066075D1*
X974243Y1417428D2*
X1062269D1*
X974243Y1413622D2*
X1058462D1*
X974243Y1409816D2*
X1054656D1*
X974243Y1406010D2*
X1050850D1*
X974243Y1402205D2*
X1047043D1*
X974243Y1398399D2*
X1043238D1*
X1054546Y1550236D2*
X973853D1*
X973845Y1396701D1*
X1041920Y1396693D1*
X1103765Y1458531D1*
X1103766Y1551382D1*
X1093110Y1562046D1*
X1067188Y1562047D1*
X1055711Y1550612D1*
X1055163Y1550332D1*
X1054554Y1550236D1*
X886606Y1038556D2*
X945888D1*
X882799Y1034751D2*
X945888D1*
X878993Y1030945D2*
X945888D1*
X875186Y1027139D2*
X945888D1*
X871381Y1023333D2*
X945888D1*
X867575Y1019528D2*
X945888D1*
X670854Y1015722D2*
X945888D1*
X667049Y1011916D2*
X945888D1*
X663243Y1008110D2*
X945888D1*
X659436Y1004304D2*
X945888D1*
X659282Y1000499D2*
X945888D1*
X659282Y996693D2*
X945888D1*
X659282Y992887D2*
X945888D1*
X659282Y989081D2*
X945888D1*
X659282Y985276D2*
X886018D1*
X659282Y981470D2*
X882219D1*
X659282Y977664D2*
X878413D1*
X659282Y973858D2*
X787993D1*
X659282Y970052D2*
X784186D1*
X659282Y966247D2*
X780381D1*
X659282Y962441D2*
X776605D1*
X659282Y958635D2*
X776597D1*
X659282Y954829D2*
X776597D1*
X662850Y951024D2*
X776597D1*
X666656Y947218D2*
X776597D1*
X670462Y943412D2*
X776597D1*
X674269Y939606D2*
X776597D1*
X678075Y935801D2*
X773552D1*
X681882Y931995D2*
X769745D1*
X857696Y1018740D2*
X673479D1*
X658881Y1004142D1*
X658885Y954602D1*
X685289Y928190D1*
X766329Y928189D1*
X776993Y938845D1*
X777018Y961962D1*
X777209Y962547D1*
X777572Y963046D1*
X789617Y975058D1*
X790165Y975337D1*
X790774Y975433D1*
X876566D1*
X888042Y986869D1*
X888591Y987148D1*
X889199Y987244D1*
X946278D1*
X946286Y1042354D1*
X890022Y1042362D1*
X866735Y1019115D1*
X866186Y1018836D1*
X865577Y1018740D1*
X857703D1*
X1846928Y1711916D2*
X1851400D1*
X1842915Y1708110D2*
X1851400D1*
X1838900Y1704304D2*
X1851400D1*
X1834894Y1700499D2*
X1851400D1*
X1830881Y1696693D2*
X1851400D1*
X1826874Y1692887D2*
X1851400D1*
X1822860Y1689081D2*
X1851400D1*
X1818854Y1685276D2*
X1851400D1*
X1814840Y1681470D2*
X1851400D1*
X1810833Y1677664D2*
X1851400D1*
X1806820Y1673858D2*
X1851400D1*
X1802814Y1670052D2*
X1851400D1*
X1798799Y1666247D2*
X1851400D1*
X1794794Y1662441D2*
X1851400D1*
X1790780Y1658635D2*
X1851400D1*
X1786766Y1654829D2*
X1851400D1*
X1782760Y1651024D2*
X1851400D1*
X1778745Y1647218D2*
X1851400D1*
X1774739Y1643412D2*
X1851400D1*
X1770726Y1639606D2*
X1851400D1*
X1766719Y1635801D2*
X1851400D1*
X1762706Y1631995D2*
X1851400D1*
X1758699Y1628189D2*
X1851400D1*
X1754685Y1624383D2*
X1851400D1*
X1750678Y1620577D2*
X1851400D1*
X1746665Y1616772D2*
X1851400D1*
X1742651Y1612966D2*
X1851400D1*
X1738646Y1609160D2*
X1851400D1*
X1734631Y1605354D2*
X1851400D1*
X1730625Y1601549D2*
X1851400D1*
X1726612Y1597743D2*
X1851400D1*
X1722605Y1593937D2*
X1851400D1*
X1718591Y1590131D2*
X1851400D1*
X1714585Y1586325D2*
X1851400D1*
X1710571Y1582520D2*
X1851400D1*
X1706564Y1578714D2*
X1851400D1*
X1702551Y1574908D2*
X1851400D1*
X1698537Y1571102D2*
X1851400D1*
X1694530Y1567297D2*
X1851400D1*
X1690517Y1563491D2*
X1851400D1*
X1686510Y1559685D2*
X1851400D1*
X1682496Y1555879D2*
X1851400D1*
X1678491Y1552073D2*
X1851400D1*
X1674476Y1548268D2*
X1851400D1*
X1670470Y1544462D2*
X1851400D1*
X1666457Y1540656D2*
X1851400D1*
X1662450Y1536850D2*
X1851400D1*
X1658436Y1533045D2*
X1851400D1*
X1654430Y1529239D2*
X1851400D1*
X1650416Y1525433D2*
X1851400D1*
X1646402Y1521627D2*
X1851400D1*
X1642396Y1517822D2*
X1851400D1*
X1638382Y1514016D2*
X1851400D1*
X1634375Y1510210D2*
X1851400D1*
X1630362Y1506404D2*
X1851400D1*
X1626356Y1502598D2*
X1851400D1*
X1622341Y1498793D2*
X1851400D1*
X1618336Y1494987D2*
X1851400D1*
X1614322Y1491181D2*
X1851400D1*
X1610315Y1487375D2*
X1851400D1*
X1606302Y1483570D2*
X1842150D1*
X1602287Y1479764D2*
X1830870D1*
X1598282Y1475958D2*
X1819581D1*
X1594268Y1472152D2*
X1808293D1*
X1590261Y1468346D2*
X1797005D1*
X1586248Y1464541D2*
X1785724D1*
X1582241Y1460735D2*
X1774437D1*
X1578227Y1456929D2*
X1763148D1*
X1574222Y1453123D2*
X1751860D1*
X1570207Y1449318D2*
X1740580D1*
X1566201Y1445512D2*
X1729291D1*
X1562188Y1441706D2*
X1718004D1*
X1558173Y1437900D2*
X1706723D1*
X1554167Y1434094D2*
X1695434D1*
X1550154Y1430289D2*
X1684147D1*
X1546147Y1426483D2*
X1672858D1*
X1542133Y1422677D2*
X1661579D1*
X1538127Y1418871D2*
X1650290D1*
X1534113Y1415066D2*
X1639001D1*
X1530106Y1411260D2*
X1627714D1*
X1526093Y1407454D2*
X1616433D1*
X1522087Y1403648D2*
X1605146D1*
X1518072Y1399843D2*
X1593857D1*
X1514067Y1396037D2*
X1582568D1*
X1510052Y1392231D2*
X1571289D1*
X1506038Y1388425D2*
X1560000D1*
X1502033Y1384619D2*
X1548713D1*
X1498018Y1380814D2*
X1537432D1*
X1494012Y1377008D2*
X1526143D1*
X1489999Y1373202D2*
X1514856D1*
X1485992Y1369396D2*
X1512818D1*
X1481978Y1365591D2*
X1512818D1*
X1477972Y1361785D2*
X1512818D1*
X1473958Y1357979D2*
X1512818D1*
X1470306Y1354173D2*
X1512818D1*
X1470306Y1350367D2*
X1512818D1*
X1470306Y1346562D2*
X1512818D1*
X1470306Y1342756D2*
X1512818D1*
X1470306Y1338950D2*
X1512818D1*
X1470306Y1335144D2*
X1512818D1*
X1470306Y1331339D2*
X1512818D1*
X1470306Y1327533D2*
X1512818D1*
X1470306Y1323727D2*
X1512818D1*
X1470306Y1319921D2*
X1512818D1*
X1470306Y1316115D2*
X1512818D1*
X1470306Y1312310D2*
X1512818D1*
X1470306Y1308504D2*
X1512818D1*
X1470306Y1304698D2*
X1512818D1*
X1470306Y1300892D2*
X1512818D1*
X1851803Y1716919D2*
X1469908Y1354509D1*
Y1298276D1*
X1513207Y1298268D1*
X1513236Y1371388D1*
X1513420Y1371976D1*
X1513777Y1372479D1*
X1514270Y1372846D1*
X1520151Y1374854D1*
X1851803Y1486692D1*
X1851798Y1716921D1*
X1470306Y1054304D2*
X1512818D1*
X1470306Y1050499D2*
X1512818D1*
X1470306Y1046693D2*
X1512818D1*
X1470306Y1042887D2*
X1512818D1*
X1470306Y1039081D2*
X1512818D1*
X1470306Y1035276D2*
X1512818D1*
X1470306Y1031470D2*
X1512818D1*
X1470306Y1027664D2*
X1512818D1*
X1470306Y1023858D2*
X1512818D1*
X1470306Y1020052D2*
X1512818D1*
X1470306Y1016247D2*
X1512818D1*
X1470306Y1012441D2*
X1512818D1*
X1470306Y1008635D2*
X1512818D1*
X1470306Y1004829D2*
X1512818D1*
X1471190Y1001024D2*
X1512818D1*
X1475203Y997218D2*
X1512818D1*
X1479210Y993412D2*
X1512818D1*
X1483224Y989606D2*
X1512818D1*
X1487238Y985801D2*
X1512818D1*
X1491244Y981995D2*
X1518362D1*
X1495259Y978189D2*
X1529642D1*
X1499264Y974383D2*
X1540930D1*
X1503278Y970577D2*
X1552219D1*
X1507285Y966772D2*
X1563507D1*
X1511298Y962966D2*
X1574787D1*
X1515304Y959160D2*
X1586075D1*
X1519319Y955354D2*
X1597364D1*
X1523324Y951549D2*
X1608644D1*
X1527339Y947743D2*
X1619932D1*
X1531353Y943937D2*
X1631220D1*
X1535358Y940131D2*
X1642508D1*
X1539373Y936325D2*
X1653789D1*
X1543379Y932520D2*
X1665077D1*
X1547392Y928714D2*
X1676365D1*
X1551399Y924908D2*
X1687654D1*
X1555412Y921102D2*
X1698933D1*
X1559419Y917297D2*
X1710222D1*
X1563433Y913491D2*
X1721510D1*
X1567440Y909685D2*
X1732798D1*
X1571453Y905879D2*
X1744079D1*
X1575467Y902073D2*
X1755366D1*
X1579472Y898268D2*
X1766655D1*
X1583487Y894462D2*
X1777936D1*
X1587493Y890656D2*
X1789223D1*
X1591507Y886850D2*
X1800512D1*
X1595513Y883045D2*
X1811799D1*
X1599528Y879239D2*
X1823080D1*
X1603533Y875433D2*
X1834369D1*
X1607547Y871627D2*
X1845656D1*
X1611554Y867822D2*
X1851400D1*
X1615567Y864016D2*
X1851400D1*
X1619573Y860210D2*
X1851400D1*
X1623588Y856404D2*
X1851400D1*
X1627601Y852598D2*
X1851400D1*
X1631608Y848793D2*
X1851400D1*
X1635622Y844987D2*
X1851400D1*
X1639627Y841181D2*
X1851400D1*
X1643642Y837375D2*
X1851400D1*
X1647648Y833570D2*
X1851400D1*
X1651661Y829764D2*
X1851400D1*
X1655668Y825958D2*
X1851400D1*
X1659682Y822152D2*
X1851400D1*
X1663688Y818346D2*
X1851400D1*
X1667702Y814541D2*
X1851400D1*
X1671717Y810735D2*
X1851400D1*
X1675722Y806929D2*
X1851400D1*
X1679736Y803123D2*
X1851400D1*
X1683743Y799318D2*
X1851400D1*
X1687756Y795512D2*
X1851400D1*
X1691762Y791706D2*
X1851400D1*
X1695777Y787900D2*
X1851400D1*
X1699782Y784094D2*
X1851400D1*
X1703797Y780289D2*
X1851400D1*
X1707803Y776483D2*
X1851400D1*
X1711816Y772677D2*
X1851400D1*
X1715831Y768871D2*
X1851400D1*
X1719837Y765066D2*
X1851400D1*
X1723850Y761260D2*
X1851400D1*
X1727857Y757454D2*
X1851400D1*
X1731870Y753648D2*
X1851400D1*
X1735877Y749843D2*
X1851400D1*
X1739891Y746037D2*
X1851400D1*
X1743896Y742231D2*
X1851400D1*
X1747911Y738425D2*
X1851400D1*
X1751917Y734619D2*
X1851400D1*
X1755930Y730814D2*
X1851400D1*
X1759937Y727008D2*
X1851400D1*
X1763951Y723202D2*
X1851400D1*
X1767965Y719396D2*
X1851400D1*
X1771971Y715591D2*
X1851400D1*
X1775986Y711785D2*
X1851400D1*
X1779991Y707979D2*
X1851400D1*
X1784005Y704173D2*
X1851400D1*
X1788012Y700367D2*
X1851400D1*
X1792025Y696562D2*
X1851400D1*
X1796031Y692756D2*
X1851400D1*
X1800046Y688950D2*
X1851400D1*
X1804051Y685144D2*
X1851400D1*
X1808066Y681339D2*
X1851400D1*
X1812080Y677533D2*
X1851400D1*
X1816085Y673727D2*
X1851400D1*
X1820100Y669921D2*
X1851400D1*
X1824106Y666115D2*
X1851400D1*
X1828119Y662310D2*
X1851400D1*
X1832126Y658504D2*
X1851400D1*
X1836140Y654698D2*
X1851400D1*
X1840146Y650892D2*
X1851400D1*
X1844160Y647087D2*
X1851400D1*
X1848167Y643281D2*
X1851400D1*
X1469903Y1001874D2*
X1851797Y639465D1*
X1851798Y869696D1*
X1514411Y983466D1*
X1513888Y983793D1*
X1513493Y984265D1*
X1513265Y984837D1*
X1513215Y987244D1*
Y1058102D1*
X1469916Y1058110D1*
X1469908Y1001862D1*
X2139597Y1711785D2*
X2166923D1*
X2139597Y1707979D2*
X2197126D1*
X2139597Y1704173D2*
X2227339D1*
X2139597Y1700367D2*
X2257550D1*
X2139597Y1696562D2*
X2287755D1*
X2139597Y1692756D2*
X2317967D1*
X2139597Y1688950D2*
X2348171D1*
X2139597Y1685144D2*
X2378383D1*
X2139597Y1681339D2*
X2408587D1*
X2139597Y1677533D2*
X2438799D1*
X2139597Y1673727D2*
X2469003D1*
X2139597Y1669921D2*
X2499215D1*
X2139597Y1666115D2*
X2529419D1*
X2139597Y1662310D2*
X2559631D1*
X2139597Y1658504D2*
X2589836D1*
X2139597Y1654698D2*
X2620047D1*
X2139597Y1650892D2*
X2859274D1*
X2139597Y1647087D2*
X2859274D1*
X2139597Y1643281D2*
X2859274D1*
X2139597Y1639475D2*
X2859274D1*
X2139597Y1635669D2*
X2859274D1*
X2139597Y1631864D2*
X2859274D1*
X2139597Y1628058D2*
X2859274D1*
X2139597Y1624252D2*
X2859274D1*
X2139597Y1620446D2*
X2859274D1*
X2139597Y1616640D2*
X2859274D1*
X2139597Y1612835D2*
X2859274D1*
X2139597Y1609029D2*
X2859274D1*
X2139597Y1605223D2*
X2859274D1*
X2139597Y1601417D2*
X2859274D1*
X2139597Y1597612D2*
X2859274D1*
X2139597Y1593806D2*
X2859274D1*
X2139597Y1590000D2*
X2859274D1*
X2139597Y1586194D2*
X2859274D1*
X2139597Y1582388D2*
X2859274D1*
X2139597Y1578583D2*
X2859274D1*
X2139597Y1574777D2*
X2341665D1*
X2481709D2*
X2859274D1*
X2139597Y1570971D2*
X2337860D1*
X2487953D2*
X2859274D1*
X2139597Y1567165D2*
X2334052D1*
X2494197D2*
X2859274D1*
X2139597Y1563360D2*
X2330247D1*
X2500433D2*
X2859274D1*
X2139597Y1559554D2*
X2326441D1*
X2506677D2*
X2859274D1*
X2139597Y1555748D2*
X2323841D1*
X2512921D2*
X2859274D1*
X2139597Y1551942D2*
X2323841D1*
X2519157D2*
X2859274D1*
X2139597Y1548136D2*
X2323841D1*
X2525400D2*
X2859274D1*
X2139597Y1544331D2*
X2323841D1*
X2531644D2*
X2859274D1*
X2139597Y1540525D2*
X2323841D1*
X2537881D2*
X2859274D1*
X2139597Y1536719D2*
X2323841D1*
X2544125D2*
X2859274D1*
X2139597Y1532913D2*
X2323841D1*
X2550369D2*
X2859274D1*
X2139597Y1529108D2*
X2323841D1*
X2556605D2*
X2859274D1*
X2139597Y1525302D2*
X2323841D1*
X2562849D2*
X2859274D1*
X2139597Y1521496D2*
X2323841D1*
X2569092D2*
X2859274D1*
X2139597Y1517690D2*
X2323841D1*
X2575336D2*
X2859274D1*
X2139597Y1513885D2*
X2323841D1*
X2581572D2*
X2859274D1*
X2139597Y1510079D2*
X2323841D1*
X2587816D2*
X2859274D1*
X2139597Y1506273D2*
X2323841D1*
X2594060D2*
X2859274D1*
X2139597Y1502467D2*
X2323841D1*
X2600297D2*
X2859274D1*
X2139597Y1498661D2*
X2323841D1*
X2606539D2*
X2859274D1*
X2139597Y1494856D2*
X2323841D1*
X2612783D2*
X2859274D1*
X2139597Y1491050D2*
X2323841D1*
X2619020D2*
X2859274D1*
X2625264Y1487244D2*
X2859274D1*
X2631508Y1483438D2*
X2859274D1*
X2637744Y1479633D2*
X2859274D1*
X2636978Y1652614D2*
X2139205Y1715327D1*
X2139199Y1487252D1*
X2324231Y1487244D1*
X2324262Y1556450D1*
X2324453Y1557035D1*
X2324816Y1557534D1*
X2344735Y1577420D1*
X2345283Y1577699D1*
X2345892Y1577795D1*
X2476122Y1577772D1*
X2476707Y1577581D1*
X2637785Y1479369D1*
X2859664Y1479370D1*
X2859672Y1652591D1*
X2637076Y1652605D1*
X2631938Y1436194D2*
X2859274D1*
X2625694Y1432388D2*
X2859274D1*
X2139597Y1428583D2*
X2323841D1*
X2619450D2*
X2859274D1*
X2139597Y1424777D2*
X2323841D1*
X2613214D2*
X2859274D1*
X2139597Y1420971D2*
X2323841D1*
X2606971D2*
X2859274D1*
X2139597Y1417165D2*
X2323841D1*
X2600727D2*
X2859274D1*
X2139597Y1413360D2*
X2323841D1*
X2594491D2*
X2859274D1*
X2139597Y1409554D2*
X2323841D1*
X2588247D2*
X2859274D1*
X2139597Y1405748D2*
X2323841D1*
X2582003D2*
X2859274D1*
X2139597Y1401942D2*
X2323841D1*
X2575766D2*
X2859274D1*
X2139597Y1398136D2*
X2323841D1*
X2569522D2*
X2859274D1*
X2139597Y1394331D2*
X2323841D1*
X2563280D2*
X2859274D1*
X2139597Y1390525D2*
X2323841D1*
X2557035D2*
X2859274D1*
X2139597Y1386719D2*
X2323841D1*
X2550799D2*
X2859274D1*
X2139597Y1382913D2*
X2323841D1*
X2544555D2*
X2859274D1*
X2139597Y1379108D2*
X2323841D1*
X2538311D2*
X2859274D1*
X2139597Y1375302D2*
X2323841D1*
X2532075D2*
X2859274D1*
X2139597Y1371496D2*
X2323841D1*
X2525831D2*
X2859274D1*
X2139597Y1367690D2*
X2323841D1*
X2519588D2*
X2859274D1*
X2139597Y1363885D2*
X2323841D1*
X2513352D2*
X2859274D1*
X2139597Y1360079D2*
X2326178D1*
X2507108D2*
X2859274D1*
X2139597Y1356273D2*
X2329986D1*
X2500864D2*
X2859274D1*
X2139597Y1352467D2*
X2333791D1*
X2494627D2*
X2859274D1*
X2139597Y1348661D2*
X2337597D1*
X2488383D2*
X2859274D1*
X2139597Y1344856D2*
X2341404D1*
X2482140D2*
X2859274D1*
X2139597Y1341050D2*
X2859274D1*
X2139597Y1337244D2*
X2859274D1*
X2139597Y1333438D2*
X2859274D1*
X2139597Y1329633D2*
X2859274D1*
X2139597Y1325827D2*
X2859274D1*
X2139597Y1322021D2*
X2859274D1*
X2139597Y1318215D2*
X2859274D1*
X2139597Y1314409D2*
X2859274D1*
X2139597Y1310604D2*
X2859274D1*
X2139597Y1306798D2*
X2859274D1*
X2139597Y1302992D2*
X2859274D1*
X2139597Y1299186D2*
X2859274D1*
X2139597Y1295381D2*
X2859274D1*
X2139597Y1291575D2*
X2859274D1*
X2139597Y1287769D2*
X2859274D1*
X2139597Y1283963D2*
X2859274D1*
X2139597Y1280157D2*
X2859274D1*
X2139597Y1276352D2*
X2859274D1*
X2139597Y1272546D2*
X2859274D1*
X2139597Y1268740D2*
X2859274D1*
X2139597Y1264934D2*
X2622131D1*
X2139597Y1261129D2*
X2591919D1*
X2139597Y1257323D2*
X2561715D1*
X2139597Y1253517D2*
X2531503D1*
X2139597Y1249711D2*
X2501299D1*
X2139597Y1245906D2*
X2471087D1*
X2139597Y1242100D2*
X2440883D1*
X2139597Y1238294D2*
X2410671D1*
X2139597Y1234488D2*
X2380467D1*
X2139597Y1230682D2*
X2350255D1*
X2139597Y1226877D2*
X2320050D1*
X2139597Y1223071D2*
X2289839D1*
X2139597Y1219265D2*
X2259626D1*
X2139597Y1215459D2*
X2229423D1*
X2139597Y1211654D2*
X2199210D1*
X2139597Y1207848D2*
X2169007D1*
X2139205Y1204043D2*
X2637231Y1266772D1*
X2859664D1*
X2859672Y1439992D1*
X2637777Y1440000D1*
X2476567Y1341724D1*
X2475969Y1341581D1*
X2345738D1*
X2345139Y1341724D1*
X2344614Y1342046D1*
X2324614Y1362071D1*
X2324335Y1362619D1*
X2324239Y1363228D1*
Y1432118D1*
X2139207Y1432126D1*
X2139199Y1204049D1*
X2139597Y1144856D2*
X2166923D1*
X2139597Y1141050D2*
X2197126D1*
X2139597Y1137244D2*
X2227339D1*
X2139597Y1133438D2*
X2257550D1*
X2139597Y1129633D2*
X2287755D1*
X2139597Y1125827D2*
X2317967D1*
X2139597Y1122021D2*
X2348171D1*
X2139597Y1118215D2*
X2378383D1*
X2139597Y1114409D2*
X2408587D1*
X2139597Y1110604D2*
X2438799D1*
X2139597Y1106798D2*
X2469003D1*
X2139597Y1102992D2*
X2499215D1*
X2139597Y1099186D2*
X2529419D1*
X2139597Y1095381D2*
X2559631D1*
X2139597Y1091575D2*
X2589836D1*
X2139597Y1087769D2*
X2620047D1*
X2139597Y1083963D2*
X2859274D1*
X2139597Y1080157D2*
X2859274D1*
X2139597Y1076352D2*
X2859274D1*
X2139597Y1072546D2*
X2859274D1*
X2139597Y1068740D2*
X2859274D1*
X2139597Y1064934D2*
X2859274D1*
X2139597Y1061129D2*
X2859274D1*
X2139597Y1057323D2*
X2859274D1*
X2139597Y1053517D2*
X2859274D1*
X2139597Y1049711D2*
X2859274D1*
X2139597Y1045906D2*
X2859274D1*
X2139597Y1042100D2*
X2859274D1*
X2139597Y1038294D2*
X2859274D1*
X2139597Y1034488D2*
X2859274D1*
X2139597Y1030682D2*
X2859274D1*
X2139597Y1026877D2*
X2859274D1*
X2139597Y1023071D2*
X2859274D1*
X2139597Y1019265D2*
X2859274D1*
X2139597Y1015459D2*
X2859274D1*
X2139597Y1011654D2*
X2859274D1*
X2139597Y1007848D2*
X2341665D1*
X2481709D2*
X2859274D1*
X2139597Y1004042D2*
X2337860D1*
X2487953D2*
X2859274D1*
X2139597Y1000236D2*
X2334052D1*
X2494197D2*
X2859274D1*
X2139597Y996430D2*
X2330247D1*
X2500433D2*
X2859274D1*
X2139597Y992625D2*
X2326441D1*
X2506677D2*
X2859274D1*
X2139597Y988819D2*
X2323841D1*
X2512921D2*
X2859274D1*
X2139597Y985013D2*
X2323841D1*
X2519157D2*
X2859274D1*
X2139597Y981207D2*
X2323841D1*
X2525400D2*
X2859274D1*
X2139597Y977402D2*
X2323841D1*
X2531644D2*
X2859274D1*
X2139597Y973596D2*
X2323841D1*
X2537881D2*
X2859274D1*
X2139597Y969790D2*
X2323841D1*
X2544125D2*
X2859274D1*
X2139597Y965984D2*
X2323841D1*
X2550369D2*
X2859274D1*
X2139597Y962178D2*
X2323841D1*
X2556605D2*
X2859274D1*
X2139597Y958373D2*
X2323841D1*
X2562849D2*
X2859274D1*
X2139597Y954567D2*
X2323841D1*
X2569092D2*
X2859274D1*
X2139597Y950761D2*
X2323841D1*
X2575336D2*
X2859274D1*
X2139597Y946955D2*
X2323841D1*
X2581572D2*
X2859274D1*
X2139597Y943150D2*
X2323841D1*
X2587816D2*
X2859274D1*
X2139597Y939344D2*
X2323841D1*
X2594060D2*
X2859274D1*
X2139597Y935538D2*
X2323841D1*
X2600297D2*
X2859274D1*
X2139597Y931732D2*
X2323841D1*
X2606539D2*
X2859274D1*
X2139597Y927927D2*
X2323841D1*
X2612783D2*
X2859274D1*
X2139597Y924121D2*
X2323841D1*
X2619020D2*
X2859274D1*
X2625264Y920315D2*
X2859274D1*
X2631508Y916509D2*
X2859274D1*
X2637744Y912703D2*
X2859274D1*
X2636978Y1085685D2*
X2139205Y1148398D1*
X2139199Y920323D1*
X2324231Y920315D1*
X2324262Y989521D1*
X2324453Y990106D1*
X2324816Y990605D1*
X2344735Y1010491D1*
X2345283Y1010770D1*
X2345892Y1010866D1*
X2476122Y1010843D1*
X2476707Y1010652D1*
X2637785Y912440D1*
X2859664Y912441D1*
X2859672Y1085661D1*
X2637076Y1085676D1*
X2631938Y869265D2*
X2859274D1*
X2625694Y865459D2*
X2859274D1*
X2139597Y861654D2*
X2323841D1*
X2619450D2*
X2859274D1*
X2139597Y857848D2*
X2323841D1*
X2613214D2*
X2859274D1*
X2139597Y854042D2*
X2323841D1*
X2606971D2*
X2859274D1*
X2139597Y850236D2*
X2323841D1*
X2600727D2*
X2859274D1*
X2139597Y846430D2*
X2323841D1*
X2594491D2*
X2859274D1*
X2139597Y842625D2*
X2323841D1*
X2588247D2*
X2859274D1*
X2139597Y838819D2*
X2323841D1*
X2582003D2*
X2859274D1*
X2139597Y835013D2*
X2323841D1*
X2575766D2*
X2859274D1*
X2139597Y831207D2*
X2323841D1*
X2569522D2*
X2859274D1*
X2139597Y827402D2*
X2323841D1*
X2563280D2*
X2859274D1*
X2139597Y823596D2*
X2323841D1*
X2557035D2*
X2859274D1*
X2139597Y819790D2*
X2323841D1*
X2550799D2*
X2859274D1*
X2139597Y815984D2*
X2323841D1*
X2544555D2*
X2859274D1*
X2139597Y812178D2*
X2323841D1*
X2538311D2*
X2859274D1*
X2139597Y808373D2*
X2323841D1*
X2532075D2*
X2859274D1*
X2139597Y804567D2*
X2323841D1*
X2525831D2*
X2859274D1*
X2139597Y800761D2*
X2323841D1*
X2519588D2*
X2859274D1*
X2139597Y796955D2*
X2323841D1*
X2513352D2*
X2859274D1*
X2139597Y793150D2*
X2326178D1*
X2507108D2*
X2859274D1*
X2139597Y789344D2*
X2329986D1*
X2500864D2*
X2859274D1*
X2139597Y785538D2*
X2333791D1*
X2494627D2*
X2859274D1*
X2139597Y781732D2*
X2337597D1*
X2488383D2*
X2859274D1*
X2139597Y777927D2*
X2341404D1*
X2482140D2*
X2859274D1*
X2139597Y774121D2*
X2859274D1*
X2139597Y770315D2*
X2859274D1*
X2139597Y766509D2*
X2859274D1*
X2139597Y762703D2*
X2859274D1*
X2139597Y758898D2*
X2859274D1*
X2139597Y755092D2*
X2859274D1*
X2139597Y751286D2*
X2859274D1*
X2139597Y747480D2*
X2859274D1*
X2139597Y743675D2*
X2859274D1*
X2139597Y739869D2*
X2859274D1*
X2139597Y736063D2*
X2859274D1*
X2139597Y732257D2*
X2859274D1*
X2139597Y728451D2*
X2859274D1*
X2139597Y724646D2*
X2859274D1*
X2139597Y720840D2*
X2859274D1*
X2139597Y717034D2*
X2859274D1*
X2139597Y713228D2*
X2859274D1*
X2139597Y709423D2*
X2859274D1*
X2139597Y705617D2*
X2859274D1*
X2139597Y701811D2*
X2859274D1*
X2139597Y698005D2*
X2622131D1*
X2139597Y694199D2*
X2591919D1*
X2139597Y690394D2*
X2561715D1*
X2139597Y686588D2*
X2531503D1*
X2139597Y682782D2*
X2501299D1*
X2139597Y678976D2*
X2471087D1*
X2139597Y675171D2*
X2440883D1*
X2139597Y671365D2*
X2410671D1*
X2139597Y667559D2*
X2380467D1*
X2139597Y663753D2*
X2350255D1*
X2139597Y659948D2*
X2320050D1*
X2139597Y656142D2*
X2289839D1*
X2139597Y652336D2*
X2259626D1*
X2139597Y648530D2*
X2229423D1*
X2139597Y644724D2*
X2199210D1*
X2139597Y640919D2*
X2169007D1*
X2139205Y637114D2*
X2637231Y699843D1*
X2859664D1*
X2859672Y873063D1*
X2637777Y873071D1*
X2476567Y774795D1*
X2475969Y774652D1*
X2345738D1*
X2345139Y774795D1*
X2344614Y775117D1*
X2324614Y795142D1*
X2324335Y795690D1*
X2324239Y796299D1*
Y865189D1*
X2139207Y865197D1*
X2139199Y637119D1*
X1847605Y1424646D2*
X1851400D1*
X1845067Y1420840D2*
X1851400D1*
X1842530Y1417034D2*
X1851400D1*
X1839992Y1413228D2*
X1851400D1*
X1837455Y1409423D2*
X1851400D1*
X1834917Y1405617D2*
X1851400D1*
X1832379Y1401811D2*
X1851400D1*
X1829843Y1398005D2*
X1851400D1*
X1827304Y1394199D2*
X1851400D1*
X1824768Y1390394D2*
X1851400D1*
X1822230Y1386588D2*
X1851400D1*
X1819692Y1382782D2*
X1851400D1*
X1817155Y1378976D2*
X1851400D1*
X1814617Y1375171D2*
X1851400D1*
X1812080Y1371365D2*
X1851400D1*
X1809542Y1367559D2*
X1851400D1*
X1807004Y1363753D2*
X1851400D1*
X1804467Y1359948D2*
X1851400D1*
X1801929Y1356142D2*
X1851400D1*
X1799392Y1352336D2*
X1851400D1*
X1796862Y1348530D2*
X1851400D1*
X1794324Y1344724D2*
X1851400D1*
X1791787Y1340919D2*
X1851400D1*
X1789249Y1337113D2*
X1851400D1*
X1786711Y1333307D2*
X1851400D1*
X1784175Y1329501D2*
X1851400D1*
X1781636Y1325696D2*
X1851400D1*
X1779100Y1321890D2*
X1851400D1*
X1776562Y1318084D2*
X1851400D1*
X1710356Y1314278D2*
X1851400D1*
X1699698Y1310472D2*
X1851400D1*
X1689041Y1306667D2*
X1851400D1*
X1678383Y1302861D2*
X1851400D1*
X1667732Y1299055D2*
X1851400D1*
X1664388Y1295249D2*
X1851400D1*
X1662012Y1291444D2*
X1851400D1*
X1659629Y1287638D2*
X1851400D1*
X1657252Y1283832D2*
X1851400D1*
X1654877Y1280026D2*
X1851400D1*
X1652492Y1276220D2*
X1851400D1*
X1650117Y1272415D2*
X1851400D1*
X1778508Y1268609D2*
X1851400D1*
X1782736Y1264803D2*
X1851400D1*
X1786966Y1260997D2*
X1851400D1*
X1791196Y1257192D2*
X1851400D1*
X1795424Y1253386D2*
X1851400D1*
X1799654Y1249580D2*
X1851400D1*
X1803882Y1245774D2*
X1851400D1*
X1808112Y1241969D2*
X1851400D1*
X1812341Y1238163D2*
X1851400D1*
X1816563Y1234357D2*
X1851400D1*
X1820791Y1230551D2*
X1851400D1*
X1825021Y1226745D2*
X1851400D1*
X1829251Y1222940D2*
X1851400D1*
X1833479Y1219134D2*
X1851400D1*
X1837709Y1215328D2*
X1851400D1*
X1841938Y1211522D2*
X1851400D1*
X1846167Y1207717D2*
X1851400D1*
X1851801Y1431533D2*
X1776419Y1318529D1*
X1775920Y1318167D1*
X1775335Y1317976D1*
X1769121Y1317953D1*
X1720255D1*
X1666093Y1298612D1*
X1648654Y1270705D1*
X1775335Y1270685D1*
X1775920Y1270495D1*
X1776306Y1270236D1*
X1851794Y1202298D1*
X1851798Y1431534D1*
X1391566Y1038556D2*
X1399667D1*
X1391566Y1034751D2*
X1403474D1*
X1391566Y1030945D2*
X1407280D1*
X1391566Y1027139D2*
X1411087D1*
X1391566Y1023333D2*
X1414892D1*
X1391566Y1019528D2*
X1418698D1*
X1391566Y1015722D2*
X1422505D1*
X1391566Y1011916D2*
X1426311D1*
X1391566Y1008110D2*
X1430117D1*
X1393034Y1004304D2*
X1430140D1*
X1396840Y1000499D2*
X1430140D1*
X1400647Y996693D2*
X1430140D1*
X1404453Y992887D2*
X1430140D1*
X1408260Y989081D2*
X1430140D1*
X1412066Y985276D2*
X1430140D1*
X1415180Y981470D2*
X1430140D1*
X1415180Y977664D2*
X1430140D1*
X1415180Y973858D2*
X1430140D1*
X1415180Y970052D2*
X1430140D1*
X1415180Y966247D2*
X1430140D1*
X1415180Y962441D2*
X1430140D1*
X1415180Y958635D2*
X1430140D1*
X1415180Y954829D2*
X1430140D1*
X1415180Y951024D2*
X1430140D1*
X1415180Y947218D2*
X1430140D1*
X1415180Y943412D2*
X1430140D1*
X1415180Y939606D2*
X1502560D1*
X1415180Y935801D2*
X1506366D1*
X1415180Y931995D2*
X1510172D1*
X1415180Y928189D2*
X1513971D1*
X1415180Y924383D2*
X1516755D1*
X1415180Y920577D2*
X1516755D1*
X1415180Y916772D2*
X1516755D1*
X1415180Y912966D2*
X1516755D1*
X1415180Y909160D2*
X1516755D1*
X1415180Y905354D2*
X1516755D1*
X1415180Y901549D2*
X1516755D1*
X1415180Y897743D2*
X1516755D1*
X1415180Y893937D2*
X1516755D1*
X1415180Y890131D2*
X1516755D1*
X1415180Y886325D2*
X1516755D1*
X1416395Y882520D2*
X1516755D1*
X1420201Y878714D2*
X1516755D1*
X1424008Y874908D2*
X1516762D1*
X1427814Y871102D2*
X1519877D1*
X1431613Y867297D2*
X1523682D1*
X1435419Y863491D2*
X1527490D1*
X1439224Y859685D2*
X1531295D1*
X1442739Y855879D2*
X1535102D1*
X1442747Y852073D2*
X1538908D1*
X1442747Y848268D2*
X1542714D1*
X1442747Y844462D2*
X1546521D1*
X1442747Y840656D2*
X1550327D1*
X1442747Y836850D2*
X1554133D1*
X1442747Y833045D2*
X1556125D1*
X1442747Y829239D2*
X1556125D1*
X1442747Y825433D2*
X1556125D1*
X1442747Y821627D2*
X1556125D1*
X1442747Y817822D2*
X1556125D1*
X1442747Y814016D2*
X1556125D1*
X1442747Y810210D2*
X1556125D1*
X1442747Y806404D2*
X1556125D1*
X1442747Y802598D2*
X1556125D1*
X1442747Y798793D2*
X1556125D1*
X1442747Y794987D2*
X1556125D1*
X1442747Y791181D2*
X1556125D1*
X1442747Y787375D2*
X1556125D1*
X1442747Y783570D2*
X1556125D1*
X1442747Y779764D2*
X1556125D1*
X1442747Y775958D2*
X1556125D1*
X1442747Y772152D2*
X1556125D1*
X1442747Y768346D2*
X1556125D1*
X1442747Y764541D2*
X1556125D1*
X1442747Y760735D2*
X1556125D1*
X1442747Y756929D2*
X1556125D1*
X1442747Y753123D2*
X1556125D1*
X1442747Y749318D2*
X1556125D1*
X1442747Y745512D2*
X1556125D1*
X1442747Y741706D2*
X1556125D1*
X1442747Y737900D2*
X1556125D1*
X1442747Y734094D2*
X1556125D1*
X1442747Y730289D2*
X1556125D1*
X1442747Y726483D2*
X1556125D1*
X1442747Y722677D2*
X1556125D1*
X1442747Y718871D2*
X1556125D1*
X1442747Y715066D2*
X1556125D1*
X1442747Y711260D2*
X1556125D1*
X1442747Y707454D2*
X1556125D1*
X1442747Y703648D2*
X1556125D1*
X1442747Y699843D2*
X1556125D1*
X1442747Y696037D2*
X1556125D1*
X1442747Y692231D2*
X1556125D1*
X1442747Y688425D2*
X1556125D1*
X1442747Y684619D2*
X1556125D1*
X1442747Y680814D2*
X1556125D1*
X1442747Y677008D2*
X1556125D1*
X1442747Y673202D2*
X1556125D1*
X1442747Y669396D2*
X1556125D1*
X1442747Y665591D2*
X1556125D1*
X1442747Y661785D2*
X1556125D1*
X1442747Y657979D2*
X1556125D1*
X1442747Y654173D2*
X1556125D1*
X1442747Y650367D2*
X1556125D1*
X1442747Y646562D2*
X1556125D1*
X1442747Y642756D2*
X1556125D1*
X1442747Y638950D2*
X1555448D1*
X1442747Y635144D2*
X1551642D1*
X1440017Y631339D2*
X1547836D1*
X1436210Y627533D2*
X1544029D1*
X1432404Y623727D2*
X1540223D1*
X1428598Y619921D2*
X1536416D1*
X1424791Y616115D2*
X1532610D1*
X1420986Y612310D2*
X1528804D1*
X1417180Y608504D2*
X1524997D1*
X1413373Y604698D2*
X1521192D1*
X1409567Y600892D2*
X1517386D1*
X1405760Y597087D2*
X1513579D1*
X883692Y593281D2*
X1509773D1*
X883692Y589475D2*
X1505966D1*
X883692Y585669D2*
X1502160D1*
X883692Y581864D2*
X1498361D1*
X883692Y578058D2*
X1494555D1*
X883692Y574252D2*
X1490749D1*
X883692Y570446D2*
X1486942D1*
X883692Y566640D2*
X1483136D1*
X883692Y562835D2*
X1479329D1*
X883692Y559029D2*
X1475524D1*
X883692Y555223D2*
X1471718D1*
X883692Y551417D2*
X1467911D1*
X883692Y547612D2*
X1464105D1*
X883692Y543806D2*
X1460299D1*
X883692Y540000D2*
X1456492D1*
X883692Y536194D2*
X1452686D1*
X883692Y532388D2*
X1448879D1*
X883692Y528583D2*
X1445073D1*
X883692Y524777D2*
X1441274D1*
X883692Y520971D2*
X1437469D1*
X883692Y517165D2*
X1433663D1*
X883692Y513360D2*
X1429856D1*
X883692Y509554D2*
X1426050D1*
X883692Y505748D2*
X1422243D1*
X883692Y501942D2*
X1418437D1*
X883692Y498136D2*
X1414631D1*
X883692Y494331D2*
X1410824D1*
X883692Y490525D2*
X1407018D1*
X1391168Y1042354D2*
Y1005783D1*
X1414415Y982496D1*
X1414694Y981948D1*
X1414790Y981335D1*
Y883736D1*
X1441974Y856512D1*
X1442253Y855963D1*
X1442349Y855354D1*
X1442325Y634573D1*
X1442135Y633988D1*
X1441773Y633490D1*
X1402168Y593919D1*
X1401619Y593639D1*
X1401010Y593543D1*
X883302D1*
X883294Y487252D1*
X1404125Y487244D1*
X1556522Y639634D1*
Y834846D1*
X1517528Y873882D1*
X1517248Y874430D1*
X1517152Y875039D1*
Y925398D1*
X1502554Y940004D1*
X1432198Y940024D1*
X1431613Y940214D1*
X1431114Y940576D1*
X1430752Y941075D1*
X1430562Y941660D1*
X1430538Y947874D1*
Y1008075D1*
X1396259Y1042361D1*
X1391176Y1042362D1*
X1846459Y1144987D2*
X1851400D1*
X1842230Y1141181D2*
X1851400D1*
X1838001Y1137375D2*
X1851400D1*
X1833772Y1133570D2*
X1851400D1*
X1829542Y1129764D2*
X1851400D1*
X1825314Y1125958D2*
X1851400D1*
X1821084Y1122152D2*
X1851400D1*
X1816854Y1118346D2*
X1851400D1*
X1812626Y1114541D2*
X1851400D1*
X1808404Y1110735D2*
X1851400D1*
X1804175Y1106929D2*
X1851400D1*
X1799945Y1103123D2*
X1851400D1*
X1795717Y1099318D2*
X1851400D1*
X1791487Y1095512D2*
X1851400D1*
X1787259Y1091706D2*
X1851400D1*
X1783029Y1087900D2*
X1851400D1*
X1778799Y1084094D2*
X1851400D1*
X1649955Y1080289D2*
X1851400D1*
X1652331Y1076483D2*
X1851400D1*
X1654707Y1072677D2*
X1851400D1*
X1657091Y1068871D2*
X1851400D1*
X1659467Y1065066D2*
X1851400D1*
X1661843Y1061260D2*
X1851400D1*
X1664227Y1057454D2*
X1851400D1*
X1666995Y1053648D2*
X1851400D1*
X1677652Y1049843D2*
X1851400D1*
X1688310Y1046037D2*
X1851400D1*
X1698959Y1042231D2*
X1851400D1*
X1709617Y1038425D2*
X1851400D1*
X1720274Y1034619D2*
X1851400D1*
X1778923Y1030814D2*
X1851400D1*
X1781461Y1027008D2*
X1851400D1*
X1783997Y1023202D2*
X1851400D1*
X1786535Y1019396D2*
X1851400D1*
X1789072Y1015591D2*
X1851400D1*
X1791610Y1011785D2*
X1851400D1*
X1794148Y1007979D2*
X1851400D1*
X1796685Y1004173D2*
X1851400D1*
X1799223Y1000367D2*
X1851400D1*
X1801760Y996562D2*
X1851400D1*
X1804298Y992756D2*
X1851400D1*
X1806835Y988950D2*
X1851400D1*
X1809373Y985144D2*
X1851400D1*
X1811911Y981339D2*
X1851400D1*
X1814440Y977533D2*
X1851400D1*
X1816978Y973727D2*
X1851400D1*
X1819516Y969921D2*
X1851400D1*
X1822052Y966115D2*
X1851400D1*
X1824591Y962310D2*
X1851400D1*
X1827127Y958504D2*
X1851400D1*
X1829665Y954698D2*
X1851400D1*
X1832203Y950892D2*
X1851400D1*
X1834740Y947087D2*
X1851400D1*
X1837278Y943281D2*
X1851400D1*
X1839815Y939475D2*
X1851400D1*
X1842353Y935669D2*
X1851400D1*
X1844891Y931864D2*
X1851400D1*
X1847428Y928058D2*
X1851400D1*
X1776668Y1033605D2*
X1851798Y920911D1*
Y1150146D1*
X1776055Y1082022D1*
X1775486Y1081786D1*
X1775026Y1081732D1*
X1648650D1*
X1666094Y1053831D1*
X1720247Y1034490D1*
X1775335Y1034465D1*
X1775920Y1034274D1*
X1776419Y1033912D1*
X1776619Y1033676D1*
X470156Y1938045D2*
X2876934D1*
X460959Y1934239D2*
X2886123D1*
X454224Y1930433D2*
X2892866D1*
X448879Y1926627D2*
X2898210D1*
X444435Y1922822D2*
X2902655D1*
X440605Y1919016D2*
X2906469D1*
X437237Y1915210D2*
X2909821D1*
X434415Y1911404D2*
X526717D1*
X574518D2*
X2770811D1*
X2818612D2*
X2912659D1*
X431955Y1907598D2*
X514244D1*
X586990D2*
X2758339D1*
X2831084D2*
X2915127D1*
X429717Y1903793D2*
X505425D1*
X595810D2*
X2749519D1*
X2839904D2*
X2917373D1*
X427910Y1899987D2*
X498350D1*
X602884D2*
X2742445D1*
X2846979D2*
X2919180D1*
X426288Y1896181D2*
X492383D1*
X608851D2*
X2736478D1*
X2852946D2*
X2920802D1*
X424934Y1892375D2*
X487201D1*
X614034D2*
X871128D1*
X960813D2*
X2731295D1*
X2858128D2*
X2922148D1*
X423850Y1888570D2*
X482633D1*
X618601D2*
X871128D1*
X960813D2*
X2726728D1*
X2862696D2*
X2923240D1*
X422889Y1884764D2*
X478550D1*
X622684D2*
X871128D1*
X960813D2*
X2722644D1*
X2866779D2*
X2924193D1*
X422281Y1880958D2*
X474890D1*
X626345D2*
X871128D1*
X960813D2*
X2718984D1*
X2870439D2*
X2924808D1*
X421743Y1877152D2*
X471576D1*
X629659D2*
X819216D1*
X1411939D2*
X2715670D1*
X2873753D2*
X2925346D1*
X421559Y1873346D2*
X468577D1*
X632658D2*
X815072D1*
X1416084D2*
X2712671D1*
X2876752D2*
X2925531D1*
X421382Y1869541D2*
X465847D1*
X635387D2*
X811266D1*
X1419890D2*
X2709941D1*
X2879482D2*
X2925708D1*
X421382Y1865735D2*
X463379D1*
X637856D2*
X807459D1*
X1423696D2*
X2707473D1*
X2881950D2*
X2925708D1*
X421382Y1861929D2*
X461141D1*
X640093D2*
X803653D1*
X1427503D2*
X2705235D1*
X2884188D2*
X2925708D1*
X421382Y1858123D2*
X459111D1*
X642123D2*
X799847D1*
X1431309D2*
X2703205D1*
X2886218D2*
X2925708D1*
X421382Y1854318D2*
X457281D1*
X643946D2*
X796040D1*
X1435115D2*
X2701375D1*
X2888040D2*
X2925708D1*
X421382Y1850512D2*
X455643D1*
X645591D2*
X792234D1*
X1438921D2*
X2699737D1*
X2889686D2*
X2925708D1*
X421382Y1846706D2*
X454190D1*
X647045D2*
X788428D1*
X1442728D2*
X2698284D1*
X2891139D2*
X2925708D1*
X421382Y1842900D2*
X452898D1*
X648336D2*
X784622D1*
X1446534D2*
X2696992D1*
X2892431D2*
X2925708D1*
X421382Y1839094D2*
X451768D1*
X649459D2*
X780815D1*
X1450340D2*
X2695862D1*
X2893554D2*
X2925708D1*
X421382Y1835289D2*
X450806D1*
X650428D2*
X777009D1*
X1454147D2*
X2694901D1*
X2894522D2*
X2925708D1*
X421382Y1831483D2*
X449991D1*
X651243D2*
X773203D1*
X1457953D2*
X2694086D1*
X2895338D2*
X2925708D1*
X421382Y1827677D2*
X449330D1*
X651904D2*
X769396D1*
X1461759D2*
X2693424D1*
X2895999D2*
X2925708D1*
X421382Y1823871D2*
X448807D1*
X652420D2*
X765590D1*
X1465558D2*
X2692902D1*
X2896514D2*
X2925708D1*
X421382Y1820066D2*
X448438D1*
X652796D2*
X761791D1*
X1469364D2*
X2692532D1*
X2896891D2*
X2925708D1*
X421382Y1816260D2*
X448207D1*
X653027D2*
X757985D1*
X1473170D2*
X2692302D1*
X2897122D2*
X2925708D1*
X421382Y1812454D2*
X448123D1*
X653112D2*
X754179D1*
X1476977D2*
X2692217D1*
X2897206D2*
X2925708D1*
X421382Y1808648D2*
X448177D1*
X653050D2*
X750373D1*
X1480783D2*
X2692271D1*
X2897145D2*
X2925708D1*
X421382Y1804843D2*
X448376D1*
X652858D2*
X746566D1*
X1484589D2*
X2692471D1*
X2896952D2*
X2925708D1*
X421382Y1801037D2*
X448722D1*
X652512D2*
X742760D1*
X1488396D2*
X2692817D1*
X2896606D2*
X2925708D1*
X421382Y1797231D2*
X449207D1*
X652027D2*
X738954D1*
X1492202D2*
X2693301D1*
X2896122D2*
X2925708D1*
X421382Y1793425D2*
X449837D1*
X651397D2*
X735147D1*
X1496008D2*
X2693932D1*
X2895491D2*
X2925708D1*
X421382Y1789619D2*
X450614D1*
X650620D2*
X731341D1*
X1499814D2*
X2694709D1*
X2894715D2*
X2925708D1*
X421382Y1785814D2*
X451552D1*
X649682D2*
X727535D1*
X1503621D2*
X2695647D1*
X2893777D2*
X2925708D1*
X421382Y1782008D2*
X452644D1*
X648590D2*
X723729D1*
X1507427D2*
X2696739D1*
X2892685D2*
X2925708D1*
X421382Y1778202D2*
X453897D1*
X647337D2*
X719922D1*
X1511233D2*
X2697992D1*
X2891431D2*
X2925708D1*
X421382Y1774396D2*
X455320D1*
X645914D2*
X716116D1*
X1515040D2*
X2699415D1*
X2890009D2*
X2925708D1*
X421382Y1770591D2*
X456919D1*
X644315D2*
X712310D1*
X1518846D2*
X2701014D1*
X2888409D2*
X2925708D1*
X421382Y1766785D2*
X458703D1*
X642531D2*
X708503D1*
X1522644D2*
X2702798D1*
X2886625D2*
X2925708D1*
X421382Y1762979D2*
X460687D1*
X640547D2*
X704705D1*
X1526451D2*
X2704782D1*
X2884642D2*
X2925708D1*
X421382Y1759173D2*
X462879D1*
X638356D2*
X700899D1*
X1530257D2*
X2706973D1*
X2882450D2*
X2925708D1*
X421382Y1755367D2*
X465301D1*
X635933D2*
X697092D1*
X1534063D2*
X2709395D1*
X2880028D2*
X2925708D1*
X421382Y1751562D2*
X467969D1*
X633265D2*
X693286D1*
X1537870D2*
X2712064D1*
X2877360D2*
X2925708D1*
X421382Y1747756D2*
X470907D1*
X630328D2*
X689480D1*
X822541D2*
X871128D1*
X960813D2*
X1381770D1*
X1541676D2*
X2715001D1*
X2874422D2*
X2925708D1*
X421382Y1743950D2*
X474152D1*
X627083D2*
X685673D1*
X818735D2*
X1386215D1*
X1545482D2*
X2718246D1*
X2871177D2*
X2925708D1*
X421382Y1740144D2*
X477735D1*
X623499D2*
X681867D1*
X814929D2*
X1390652D1*
X1549288D2*
X2721829D1*
X2867594D2*
X2925708D1*
X421382Y1736339D2*
X481718D1*
X619516D2*
X678061D1*
X811123D2*
X1395096D1*
X1553095D2*
X2725812D1*
X2863611D2*
X2925708D1*
X421382Y1732533D2*
X486178D1*
X615056D2*
X674255D1*
X807316D2*
X1399533D1*
X1556901D2*
X1848744D1*
X1858790D2*
X2730272D1*
X2859151D2*
X2925708D1*
X421382Y1728727D2*
X491214D1*
X610020D2*
X670448D1*
X803518D2*
X1403970D1*
X1560707D2*
X1839440D1*
X1962582D2*
X2028416D1*
X2151558D2*
X2735309D1*
X2854114D2*
X2925708D1*
X421382Y1724921D2*
X496997D1*
X604237D2*
X666642D1*
X799711D2*
X1408414D1*
X1564514D2*
X1839440D1*
X1962582D2*
X2028416D1*
X2174942D2*
X2741091D1*
X2848332D2*
X2925708D1*
X421382Y1721115D2*
X503794D1*
X597440D2*
X662836D1*
X795905D2*
X1412851D1*
X1568220D2*
X1835587D1*
X1962582D2*
X2028416D1*
X2205146D2*
X2747889D1*
X2841534D2*
X2925708D1*
X421382Y1717310D2*
X512153D1*
X589081D2*
X659029D1*
X792099D2*
X1417296D1*
X1570273D2*
X1831573D1*
X1962582D2*
X2028416D1*
X2235358D2*
X2756247D1*
X2833176D2*
X2925708D1*
X421382Y1713504D2*
X523510D1*
X577724D2*
X655223D1*
X788292D2*
X1421732D1*
X1570850D2*
X1827567D1*
X1962582D2*
X2028416D1*
X2265562D2*
X2767605D1*
X2821819D2*
X2925708D1*
X421382Y1709698D2*
X651417D1*
X784486D2*
X1426177D1*
X1570850D2*
X1823553D1*
X1962582D2*
X2028416D1*
X2295774D2*
X2925708D1*
X421382Y1705892D2*
X647618D1*
X780680D2*
X1427230D1*
X1570850D2*
X1819539D1*
X1962582D2*
X2028416D1*
X2325979D2*
X2925708D1*
X421382Y1702087D2*
X643812D1*
X776874D2*
X1427230D1*
X1570850D2*
X1815533D1*
X1962582D2*
X2028416D1*
X2356190D2*
X2925708D1*
X421382Y1698281D2*
X640006D1*
X773067D2*
X1427230D1*
X1570850D2*
X1811519D1*
X1962582D2*
X2028416D1*
X2386395D2*
X2925708D1*
X421382Y1694475D2*
X636199D1*
X769261D2*
X1427230D1*
X1570850D2*
X1807513D1*
X1962582D2*
X2028416D1*
X2416607D2*
X2925708D1*
X421382Y1690669D2*
X632393D1*
X765455D2*
X1427230D1*
X1570850D2*
X1803499D1*
X1962582D2*
X2028416D1*
X2446811D2*
X2925708D1*
X421382Y1686864D2*
X467177D1*
X761648D2*
X1427230D1*
X1570850D2*
X1799493D1*
X1962582D2*
X2028416D1*
X2477023D2*
X2925708D1*
X421382Y1683058D2*
X463363D1*
X757842D2*
X1427230D1*
X1570850D2*
X1795479D1*
X1962582D2*
X2028416D1*
X2507235D2*
X2925708D1*
X421382Y1679252D2*
X459557D1*
X754036D2*
X1427230D1*
X1570850D2*
X1791473D1*
X1962582D2*
X2028416D1*
X2537439D2*
X2925708D1*
X421382Y1675446D2*
X455751D1*
X750230D2*
X1427230D1*
X1570850D2*
X1787459D1*
X1962582D2*
X2028416D1*
X2567651D2*
X2925708D1*
X421382Y1671640D2*
X451944D1*
X746431D2*
X1427230D1*
X1570850D2*
X1783453D1*
X1962582D2*
X2028416D1*
X2597855D2*
X2925708D1*
X421382Y1667835D2*
X448138D1*
X742625D2*
X1427230D1*
X1570850D2*
X1779439D1*
X1962582D2*
X2028416D1*
X2628067D2*
X2925708D1*
X421382Y1664029D2*
X444332D1*
X738818D2*
X1427230D1*
X1570850D2*
X1775433D1*
X1962582D2*
X2028416D1*
X2869363D2*
X2925708D1*
X421382Y1660223D2*
X440525D1*
X735012D2*
X1427230D1*
X1570850D2*
X1771419D1*
X1962582D2*
X2028416D1*
X2872584D2*
X2925708D1*
X421382Y1656417D2*
X437388D1*
X731206D2*
X1427230D1*
X1570850D2*
X1767405D1*
X1962582D2*
X2028416D1*
X2873861D2*
X2925708D1*
X421382Y1652612D2*
X436058D1*
X727400D2*
X1427230D1*
X1570850D2*
X1763399D1*
X1962582D2*
X2028416D1*
X2873999D2*
X2925708D1*
X421382Y1648806D2*
X435889D1*
X723593D2*
X1427230D1*
X1570850D2*
X1759385D1*
X1962582D2*
X2028416D1*
X2873999D2*
X2925708D1*
X421382Y1645000D2*
X435889D1*
X719787D2*
X1427230D1*
X1570850D2*
X1755378D1*
X1962582D2*
X2028416D1*
X2873999D2*
X2925708D1*
X421382Y1641194D2*
X435889D1*
X715981D2*
X1427230D1*
X1570850D2*
X1751365D1*
X1962582D2*
X2028416D1*
X2873999D2*
X2925708D1*
X421382Y1637388D2*
X435889D1*
X712174D2*
X1427230D1*
X1570850D2*
X1747358D1*
X1962582D2*
X2028416D1*
X2873999D2*
X2925708D1*
X421382Y1633583D2*
X435889D1*
X708368D2*
X1427230D1*
X1570850D2*
X1743344D1*
X1962582D2*
X2028416D1*
X2873999D2*
X2925708D1*
X421382Y1629777D2*
X435889D1*
X704562D2*
X1427230D1*
X1570850D2*
X1739338D1*
X1962582D2*
X2028416D1*
X2873999D2*
X2925708D1*
X421382Y1625971D2*
X435889D1*
X700756D2*
X1427230D1*
X1570850D2*
X1735324D1*
X1962582D2*
X2028416D1*
X2873999D2*
X2925708D1*
X421382Y1622165D2*
X435889D1*
X696949D2*
X1427230D1*
X1570850D2*
X1731318D1*
X1962582D2*
X2028416D1*
X2873999D2*
X2925708D1*
X421382Y1618360D2*
X435889D1*
X693143D2*
X1427230D1*
X1570850D2*
X1727304D1*
X1962582D2*
X2028416D1*
X2873999D2*
X2925708D1*
X421382Y1614554D2*
X435889D1*
X689344D2*
X1427230D1*
X1570850D2*
X1723290D1*
X1962582D2*
X2028416D1*
X2873999D2*
X2925708D1*
X421382Y1610748D2*
X435889D1*
X685538D2*
X1427230D1*
X1570850D2*
X1719284D1*
X1962582D2*
X2028416D1*
X2873999D2*
X2925708D1*
X421382Y1606942D2*
X435889D1*
X681732D2*
X1427230D1*
X1570850D2*
X1715270D1*
X1962582D2*
X2028416D1*
X2873999D2*
X2925708D1*
X421382Y1603136D2*
X435896D1*
X677926D2*
X1427230D1*
X1570850D2*
X1711264D1*
X1962582D2*
X2028416D1*
X2873999D2*
X2925708D1*
X421382Y1599331D2*
X436604D1*
X674119D2*
X1427230D1*
X1570850D2*
X1707250D1*
X1962582D2*
X2028416D1*
X2873999D2*
X2925708D1*
X421382Y1595525D2*
X438834D1*
X670313D2*
X1427230D1*
X1570850D2*
X1703244D1*
X1962582D2*
X2028416D1*
X2873999D2*
X2925708D1*
X421382Y1591719D2*
X442602D1*
X666507D2*
X1427230D1*
X1570850D2*
X1699230D1*
X1962582D2*
X2028416D1*
X2873999D2*
X2925708D1*
X421382Y1587913D2*
X446408D1*
X662700D2*
X1428015D1*
X1570850D2*
X1695224D1*
X1962582D2*
X2028416D1*
X2873999D2*
X2925708D1*
X421382Y1584108D2*
X450214D1*
X811622D2*
X1428015D1*
X1570850D2*
X1691210D1*
X1962582D2*
X2028416D1*
X2873999D2*
X2925708D1*
X421382Y1580302D2*
X454021D1*
X815429D2*
X1427230D1*
X1570850D2*
X1687204D1*
X1962582D2*
X2028416D1*
X2873999D2*
X2925708D1*
X421382Y1576496D2*
X455228D1*
X819235D2*
X1427230D1*
X1570850D2*
X1683190D1*
X1962582D2*
X2028416D1*
X2873999D2*
X2925708D1*
X421382Y1572690D2*
X451421D1*
X823041D2*
X1057728D1*
X1102561D2*
X1427230D1*
X1570850D2*
X1679176D1*
X1962582D2*
X2028416D1*
X2873999D2*
X2925708D1*
X421382Y1568885D2*
X447615D1*
X826847D2*
X1053914D1*
X1106375D2*
X1427230D1*
X1570850D2*
X1675170D1*
X1962582D2*
X2028416D1*
X2873999D2*
X2925708D1*
X421382Y1565079D2*
X443809D1*
X830654D2*
X1050108D1*
X1110181D2*
X1427230D1*
X1570850D2*
X1671156D1*
X1962582D2*
X2028416D1*
X2873999D2*
X2925708D1*
X421382Y1561273D2*
X440003D1*
X833476D2*
X959511D1*
X1113988D2*
X1427230D1*
X1570850D2*
X1667150D1*
X1962582D2*
X2028416D1*
X2348655D2*
X2476297D1*
X2873999D2*
X2925708D1*
X421382Y1557467D2*
X437111D1*
X834560D2*
X959511D1*
X1116879D2*
X1427230D1*
X1570850D2*
X1663136D1*
X1962582D2*
X2028416D1*
X2344856D2*
X2482541D1*
X2873999D2*
X2925708D1*
X421382Y1553661D2*
X435981D1*
X834629D2*
X959511D1*
X1118009D2*
X1427230D1*
X1570850D2*
X1659129D1*
X1962582D2*
X2028416D1*
X2341050D2*
X2488785D1*
X2873999D2*
X2925708D1*
X421382Y1549856D2*
X435889D1*
X834629D2*
X959511D1*
X1118094D2*
X1427230D1*
X1570850D2*
X1655115D1*
X1962582D2*
X2028416D1*
X2338566D2*
X2495021D1*
X2873999D2*
X2925708D1*
X421382Y1546050D2*
X435889D1*
X834629D2*
X959511D1*
X1118094D2*
X1427230D1*
X1570850D2*
X1651109D1*
X1962582D2*
X2028416D1*
X2338566D2*
X2501265D1*
X2873999D2*
X2925708D1*
X421382Y1542244D2*
X435889D1*
X834629D2*
X959511D1*
X1118094D2*
X1427230D1*
X1570850D2*
X1647095D1*
X1962582D2*
X2028416D1*
X2338566D2*
X2507508D1*
X2873999D2*
X2925708D1*
X421382Y1538438D2*
X435889D1*
X834629D2*
X959511D1*
X1118094D2*
X1427230D1*
X1570850D2*
X1643089D1*
X1962582D2*
X2028416D1*
X2338566D2*
X2513745D1*
X2873999D2*
X2925708D1*
X421382Y1534633D2*
X435889D1*
X834629D2*
X959511D1*
X1118094D2*
X1427230D1*
X1570850D2*
X1639075D1*
X1962582D2*
X2028416D1*
X2338566D2*
X2519988D1*
X2873999D2*
X2925708D1*
X421382Y1530827D2*
X435889D1*
X834629D2*
X959511D1*
X1118094D2*
X1427230D1*
X1570850D2*
X1635069D1*
X1962582D2*
X2028416D1*
X2338566D2*
X2526232D1*
X2873999D2*
X2925708D1*
X421382Y1527021D2*
X435889D1*
X834629D2*
X959511D1*
X1118094D2*
X1427230D1*
X1570850D2*
X1631055D1*
X1962582D2*
X2028416D1*
X2338566D2*
X2532468D1*
X2873999D2*
X2925708D1*
X421382Y1523215D2*
X435889D1*
X834629D2*
X959511D1*
X1118094D2*
X1427230D1*
X1570850D2*
X1627041D1*
X1962582D2*
X2028416D1*
X2338566D2*
X2538712D1*
X2873999D2*
X2925708D1*
X421382Y1519409D2*
X435889D1*
X834629D2*
X959511D1*
X1118094D2*
X1427230D1*
X1570850D2*
X1623035D1*
X1962582D2*
X2028416D1*
X2338566D2*
X2544956D1*
X2873999D2*
X2925708D1*
X421382Y1515604D2*
X435889D1*
X834629D2*
X959511D1*
X1118094D2*
X1426085D1*
X1570850D2*
X1619021D1*
X1962582D2*
X2028416D1*
X2338566D2*
X2551200D1*
X2873999D2*
X2925708D1*
X421382Y1511798D2*
X435889D1*
X834629D2*
X959511D1*
X1118094D2*
X1423755D1*
X1570850D2*
X1615015D1*
X1962582D2*
X2028416D1*
X2338566D2*
X2557436D1*
X2873999D2*
X2925708D1*
X421382Y1507992D2*
X435889D1*
X834629D2*
X959511D1*
X1118094D2*
X1422586D1*
X1570819D2*
X1611001D1*
X1962582D2*
X2028416D1*
X2338566D2*
X2563680D1*
X2873999D2*
X2925708D1*
X421382Y1504186D2*
X435889D1*
X834629D2*
X959511D1*
X1118094D2*
X1422309D1*
X1569889D2*
X1606995D1*
X1962582D2*
X2028416D1*
X2338566D2*
X2569924D1*
X2873999D2*
X2925708D1*
X421382Y1500381D2*
X435912D1*
X834629D2*
X959511D1*
X1118094D2*
X1422309D1*
X1567297D2*
X1602981D1*
X1962582D2*
X2028416D1*
X2338566D2*
X2576160D1*
X2873999D2*
X2925708D1*
X421382Y1496575D2*
X436750D1*
X834629D2*
X959511D1*
X1118094D2*
X1422309D1*
X1563491D2*
X1598975D1*
X1962582D2*
X2028416D1*
X2338566D2*
X2582404D1*
X2873999D2*
X2925708D1*
X421382Y1492769D2*
X439195D1*
X834629D2*
X959511D1*
X1118094D2*
X1422309D1*
X1559685D2*
X1594961D1*
X1962582D2*
X2028416D1*
X2338566D2*
X2588648D1*
X2873999D2*
X2925708D1*
X421382Y1488963D2*
X442994D1*
X834629D2*
X959511D1*
X1118094D2*
X1418872D1*
X1540130D2*
X1590955D1*
X1962582D2*
X2028416D1*
X2338566D2*
X2594884D1*
X2873999D2*
X2925708D1*
X421382Y1485157D2*
X446800D1*
X834629D2*
X959511D1*
X1118094D2*
X1415066D1*
X1536324D2*
X1586941D1*
X1962582D2*
X2028416D1*
X2338566D2*
X2601128D1*
X2873999D2*
X2925708D1*
X421382Y1481352D2*
X450606D1*
X834629D2*
X959511D1*
X1118094D2*
X1401640D1*
X1532518D2*
X1582927D1*
X1962582D2*
X2028416D1*
X2337905D2*
X2607372D1*
X2873999D2*
X2925708D1*
X421382Y1477546D2*
X454413D1*
X834629D2*
X959511D1*
X1118094D2*
X1401640D1*
X1531480D2*
X1578921D1*
X1962582D2*
X2028416D1*
X2337782D2*
X2613608D1*
X2873999D2*
X2925708D1*
X421382Y1473740D2*
X458219D1*
X834629D2*
X959511D1*
X1118094D2*
X1401640D1*
X1531480D2*
X1574907D1*
X1962582D2*
X2028416D1*
X2337782D2*
X2619852D1*
X2873430D2*
X2925708D1*
X421382Y1469934D2*
X462025D1*
X834629D2*
X959511D1*
X1118094D2*
X1401640D1*
X1531480D2*
X1570900D1*
X1846125D2*
X2626095D1*
X2871385D2*
X2925708D1*
X421382Y1466129D2*
X467462D1*
X834629D2*
X959511D1*
X1118094D2*
X1401640D1*
X1531480D2*
X1566887D1*
X1834837D2*
X2632816D1*
X2866056D2*
X2925708D1*
X421382Y1462323D2*
X717669D1*
X834629D2*
X959511D1*
X1118094D2*
X1401640D1*
X1531480D2*
X1562880D1*
X1823549D2*
X2925708D1*
X421382Y1458517D2*
X721476D1*
X834629D2*
X959511D1*
X1118094D2*
X1401640D1*
X1531480D2*
X1558866D1*
X1812261D2*
X2925708D1*
X421382Y1454711D2*
X725282D1*
X834629D2*
X959511D1*
X1117717D2*
X1401640D1*
X1531480D2*
X1554860D1*
X1800980D2*
X2925708D1*
X421382Y1450906D2*
X729088D1*
X834629D2*
X959511D1*
X1115971D2*
X1401640D1*
X1531480D2*
X1550846D1*
X1789692D2*
X2628502D1*
X2869993D2*
X2925708D1*
X421382Y1447100D2*
X732887D1*
X834629D2*
X959511D1*
X1112434D2*
X1401640D1*
X1531480D2*
X1546840D1*
X1778404D2*
X1839440D1*
X1962582D2*
X2028416D1*
X2151558D2*
X2250065D1*
X2337782D2*
X2622266D1*
X2872846D2*
X2925708D1*
X421382Y1443294D2*
X736693D1*
X834629D2*
X959511D1*
X1108636D2*
X1401640D1*
X1531480D2*
X1542826D1*
X1767116D2*
X1839440D1*
X1962582D2*
X2028416D1*
X2337782D2*
X2616022D1*
X2873930D2*
X2925708D1*
X421382Y1439488D2*
X740499D1*
X834629D2*
X959511D1*
X1104829D2*
X1401640D1*
X1531480D2*
X1538812D1*
X1755835D2*
X1839440D1*
X1962582D2*
X2028416D1*
X2337782D2*
X2609778D1*
X2873999D2*
X2925708D1*
X421382Y1435682D2*
X744306D1*
X834629D2*
X959511D1*
X1101023D2*
X1401640D1*
X1531480D2*
X1534806D1*
X1744547D2*
X1837425D1*
X1962582D2*
X2028416D1*
X2338466D2*
X2603542D1*
X2873999D2*
X2925708D1*
X421382Y1431877D2*
X748112D1*
X834629D2*
X959511D1*
X1097217D2*
X1401640D1*
X1733259D2*
X1834888D1*
X1962582D2*
X2028416D1*
X2338566D2*
X2597298D1*
X2873999D2*
X2925708D1*
X421382Y1428071D2*
X751918D1*
X834629D2*
X959511D1*
X1093487D2*
X1401640D1*
X1721979D2*
X1832350D1*
X1962582D2*
X2028416D1*
X2338566D2*
X2591055D1*
X2873999D2*
X2925708D1*
X421382Y1424265D2*
X754786D1*
X834629D2*
X959511D1*
X1093487D2*
X1401640D1*
X1710690D2*
X1829813D1*
X1962582D2*
X2028416D1*
X2338566D2*
X2584811D1*
X2873999D2*
X2925708D1*
X421382Y1420459D2*
X754786D1*
X834629D2*
X959511D1*
X1093487D2*
X1401640D1*
X1699402D2*
X1827275D1*
X1962582D2*
X2028416D1*
X2338566D2*
X2578575D1*
X2873999D2*
X2925708D1*
X421382Y1416654D2*
X754786D1*
X834629D2*
X959511D1*
X1093487D2*
X1401640D1*
X1688114D2*
X1824737D1*
X1962582D2*
X2028416D1*
X2338566D2*
X2572331D1*
X2873999D2*
X2925708D1*
X421382Y1412848D2*
X754786D1*
X834629D2*
X959511D1*
X1093487D2*
X1401640D1*
X1676834D2*
X1822200D1*
X1962582D2*
X2028416D1*
X2338566D2*
X2566087D1*
X2873999D2*
X2925708D1*
X421382Y1409042D2*
X754786D1*
X834629D2*
X959511D1*
X1093487D2*
X1401640D1*
X1665545D2*
X1819662D1*
X1962582D2*
X2028416D1*
X2338566D2*
X2559851D1*
X2873999D2*
X2925708D1*
X421382Y1405236D2*
X754786D1*
X834629D2*
X959511D1*
X1093487D2*
X1401640D1*
X1654257D2*
X1817125D1*
X1962582D2*
X2028416D1*
X2338566D2*
X2553607D1*
X2873999D2*
X2925708D1*
X421382Y1401430D2*
X754786D1*
X834629D2*
X959511D1*
X1093487D2*
X1401640D1*
X1642969D2*
X1814587D1*
X1962582D2*
X2028416D1*
X2338566D2*
X2547363D1*
X2873999D2*
X2925708D1*
X421382Y1397625D2*
X754786D1*
X834629D2*
X959511D1*
X1093487D2*
X1404393D1*
X1631689D2*
X1812050D1*
X1962582D2*
X2028416D1*
X2338566D2*
X2541127D1*
X2873999D2*
X2925708D1*
X421382Y1393819D2*
X754786D1*
X834629D2*
X959511D1*
X1093487D2*
X1404393D1*
X1620401D2*
X1809512D1*
X1962582D2*
X2028416D1*
X2338566D2*
X2534883D1*
X2873999D2*
X2925708D1*
X421382Y1390013D2*
X754786D1*
X834629D2*
X959511D1*
X1093487D2*
X1404393D1*
X1609112D2*
X1806975D1*
X1962582D2*
X2028416D1*
X2338566D2*
X2528639D1*
X2873999D2*
X2925708D1*
X421382Y1386207D2*
X754786D1*
X837405D2*
X959511D1*
X1051541D2*
X1054983D1*
X1093487D2*
X1404393D1*
X1597824D2*
X1804437D1*
X1962582D2*
X2028416D1*
X2338566D2*
X2522403D1*
X2873999D2*
X2925708D1*
X421382Y1382402D2*
X754786D1*
X841973D2*
X959511D1*
X1035417D2*
X1054983D1*
X1093487D2*
X1404393D1*
X1586544D2*
X1801900D1*
X1962582D2*
X2028416D1*
X2338566D2*
X2516159D1*
X2873999D2*
X2925708D1*
X421382Y1378596D2*
X754786D1*
X846540D2*
X1054983D1*
X1093487D2*
X1404393D1*
X1575256D2*
X1799362D1*
X1962582D2*
X2028416D1*
X2338566D2*
X2509915D1*
X2873999D2*
X2925708D1*
X421382Y1374790D2*
X754786D1*
X1035417D2*
X1054983D1*
X1093487D2*
X1404393D1*
X1563968D2*
X1796825D1*
X1962582D2*
X2028416D1*
X2338566D2*
X2503671D1*
X2873999D2*
X2925708D1*
X421382Y1370984D2*
X754786D1*
X1035417D2*
X1054983D1*
X1093487D2*
X1403255D1*
X1552687D2*
X1794287D1*
X1962582D2*
X2028416D1*
X2338566D2*
X2497435D1*
X2873999D2*
X2925708D1*
X421382Y1367178D2*
X481887D1*
X516985D2*
X754786D1*
X1035417D2*
X1054983D1*
X1093487D2*
X1399448D1*
X1541399D2*
X1791750D1*
X1962582D2*
X2028416D1*
X2339574D2*
X2491191D1*
X2873999D2*
X2925708D1*
X421382Y1363373D2*
X473090D1*
X525782D2*
X754786D1*
X1035417D2*
X1054983D1*
X1093487D2*
X1309904D1*
X1604314D2*
X1789212D1*
X1962582D2*
X2028416D1*
X2343380D2*
X2484948D1*
X2873999D2*
X2925708D1*
X421382Y1359567D2*
X467562D1*
X531310D2*
X754786D1*
X1035417D2*
X1054983D1*
X1093487D2*
X1309904D1*
X1604314D2*
X1786682D1*
X1962582D2*
X2028416D1*
X2347186D2*
X2478711D1*
X2873999D2*
X2925708D1*
X421382Y1355761D2*
X463471D1*
X535401D2*
X754786D1*
X1035417D2*
X1054983D1*
X1093487D2*
X1309904D1*
X1604314D2*
X1784145D1*
X1962582D2*
X2028416D1*
X2350992D2*
X2472468D1*
X2873999D2*
X2925708D1*
X421382Y1351955D2*
X460295D1*
X538577D2*
X754786D1*
X1035417D2*
X1054983D1*
X1093487D2*
X1309904D1*
X1604314D2*
X1781607D1*
X1962582D2*
X2028416D1*
X2873999D2*
X2925708D1*
X421382Y1348150D2*
X457788D1*
X541084D2*
X754786D1*
X1035417D2*
X1054983D1*
X1093487D2*
X1309904D1*
X1604314D2*
X1779070D1*
X1962582D2*
X2028416D1*
X2873999D2*
X2925708D1*
X421382Y1344344D2*
X455820D1*
X543052D2*
X754786D1*
X1038623D2*
X1054983D1*
X1093487D2*
X1309904D1*
X1604314D2*
X1776532D1*
X1962582D2*
X2028416D1*
X2873999D2*
X2925708D1*
X421382Y1340538D2*
X454313D1*
X735135D2*
X754786D1*
X1042468D2*
X1054983D1*
X1096433D2*
X1309904D1*
X1604314D2*
X1773995D1*
X1962582D2*
X2028416D1*
X2873999D2*
X2925708D1*
X421382Y1336732D2*
X453213D1*
X739188D2*
X754786D1*
X1046274D2*
X1054983D1*
X1177149D2*
X1309904D1*
X1604314D2*
X1771457D1*
X1962582D2*
X2028416D1*
X2873999D2*
X2925708D1*
X421382Y1332927D2*
X452490D1*
X742994D2*
X755109D1*
X1050080D2*
X1055191D1*
X1177149D2*
X1309904D1*
X1604314D2*
X1768920D1*
X1962582D2*
X2028416D1*
X2873999D2*
X2925708D1*
X421382Y1329121D2*
X452129D1*
X746800D2*
X756740D1*
X1053887D2*
X1056165D1*
X1177149D2*
X1309904D1*
X1604314D2*
X1705581D1*
X1962582D2*
X2028416D1*
X2873999D2*
X2925708D1*
X421382Y1325315D2*
X452106D1*
X750606D2*
X760184D1*
X1177149D2*
X1309904D1*
X1604314D2*
X1699030D1*
X1962582D2*
X2028416D1*
X2873999D2*
X2925708D1*
X421382Y1321509D2*
X452436D1*
X754413D2*
X763991D1*
X1177149D2*
X1309904D1*
X1604314D2*
X1688372D1*
X1962582D2*
X2028416D1*
X2873999D2*
X2925708D1*
X421382Y1317703D2*
X453121D1*
X758219D2*
X767797D1*
X1177149D2*
X1309904D1*
X1604314D2*
X1677723D1*
X1962582D2*
X2028416D1*
X2873999D2*
X2925708D1*
X421382Y1313898D2*
X454174D1*
X762025D2*
X771603D1*
X1177149D2*
X1309904D1*
X1604314D2*
X1667065D1*
X1962582D2*
X2028416D1*
X2873999D2*
X2925708D1*
X421382Y1310092D2*
X455635D1*
X543237D2*
X717269D1*
X765832D2*
X775410D1*
X1177149D2*
X1309904D1*
X1604314D2*
X1657607D1*
X1962582D2*
X2028416D1*
X2873999D2*
X2925708D1*
X421382Y1306286D2*
X457542D1*
X541322D2*
X721076D1*
X769630D2*
X779431D1*
X1177149D2*
X1309904D1*
X1604314D2*
X1651678D1*
X1962582D2*
X2028416D1*
X2873999D2*
X2925708D1*
X421382Y1302480D2*
X459988D1*
X538885D2*
X724882D1*
X773436D2*
X857825D1*
X1177149D2*
X1309904D1*
X1604314D2*
X1647841D1*
X1962582D2*
X2028416D1*
X2873999D2*
X2925708D1*
X421382Y1298675D2*
X463079D1*
X535793D2*
X728688D1*
X777243D2*
X861632D1*
X1177149D2*
X1309904D1*
X1604314D2*
X1644043D1*
X1962582D2*
X2028416D1*
X2873999D2*
X2925708D1*
X421382Y1294869D2*
X467054D1*
X531818D2*
X732495D1*
X781049D2*
X865530D1*
X1177149D2*
X1309904D1*
X1604314D2*
X1640236D1*
X1962582D2*
X2028416D1*
X2873999D2*
X2925708D1*
X421382Y1291063D2*
X472375D1*
X526497D2*
X736301D1*
X784855D2*
X1036821D1*
X1177149D2*
X1309904D1*
X1604314D2*
X1636430D1*
X1962582D2*
X2028416D1*
X2873999D2*
X2925708D1*
X421382Y1287257D2*
X480580D1*
X518292D2*
X740107D1*
X788662D2*
X1037928D1*
X1177149D2*
X1309904D1*
X1604314D2*
X1632624D1*
X1962582D2*
X2028416D1*
X2873999D2*
X2925708D1*
X421382Y1283451D2*
X743906D1*
X792468D2*
X959511D1*
X1035417D2*
X1039720D1*
X1177149D2*
X1309904D1*
X1604314D2*
X1628818D1*
X1962582D2*
X2028416D1*
X2873999D2*
X2925708D1*
X421382Y1279646D2*
X747712D1*
X796274D2*
X959511D1*
X1035417D2*
X1042396D1*
X1177149D2*
X1309904D1*
X1584983D2*
X1625011D1*
X1962582D2*
X2028416D1*
X2873999D2*
X2925708D1*
X421382Y1275840D2*
X751518D1*
X800080D2*
X959511D1*
X1035417D2*
X1041311D1*
X1177149D2*
X1309904D1*
X1583514D2*
X1621205D1*
X1962582D2*
X2028416D1*
X2873999D2*
X2925708D1*
X421382Y1272034D2*
X755325D1*
X803887D2*
X959511D1*
X1035417D2*
X1037505D1*
X1177149D2*
X1309904D1*
X1580923D2*
X1617399D1*
X1962582D2*
X2028416D1*
X2873999D2*
X2925708D1*
X421382Y1268228D2*
X486155D1*
X512717D2*
X759131D1*
X807693D2*
X959511D1*
X1177149D2*
X1309904D1*
X1577170D2*
X1613592D1*
X1962582D2*
X2028416D1*
X2873999D2*
X2925708D1*
X421382Y1264423D2*
X475028D1*
X523844D2*
X762937D1*
X811499D2*
X959511D1*
X1177149D2*
X1309904D1*
X1573364D2*
X1609786D1*
X1962582D2*
X2028416D1*
X2873999D2*
X2925708D1*
X421382Y1260617D2*
X468907D1*
X529965D2*
X766744D1*
X815306D2*
X959511D1*
X1177149D2*
X1309904D1*
X1569558D2*
X1605980D1*
X1962582D2*
X2028416D1*
X2873246D2*
X2925708D1*
X421382Y1256811D2*
X464494D1*
X534379D2*
X770550D1*
X819112D2*
X959511D1*
X1177149D2*
X1309904D1*
X1565752D2*
X1602174D1*
X1962582D2*
X2028416D1*
X2870947D2*
X2925708D1*
X421382Y1253005D2*
X461095D1*
X537777D2*
X774356D1*
X822918D2*
X959511D1*
X1177149D2*
X1309904D1*
X1561930D2*
X1598367D1*
X1962582D2*
X2028416D1*
X2864049D2*
X2925708D1*
X421382Y1249199D2*
X458419D1*
X540453D2*
X778162D1*
X826717D2*
X959511D1*
X1063229D2*
X1081558D1*
X1177149D2*
X1309904D1*
X1555886D2*
X1594561D1*
X1962582D2*
X2028416D1*
X2609520D2*
X2925708D1*
X421382Y1245394D2*
X456312D1*
X542552D2*
X781969D1*
X830523D2*
X959511D1*
X1059423D2*
X1590755D1*
X1962582D2*
X2028416D1*
X2579316D2*
X2925708D1*
X421382Y1241588D2*
X454689D1*
X636702D2*
X785775D1*
X834329D2*
X959511D1*
X1055617D2*
X1586956D1*
X1962582D2*
X2028416D1*
X2549104D2*
X2925708D1*
X421382Y1237782D2*
X453482D1*
X641285D2*
X789581D1*
X838136D2*
X959511D1*
X1051811D2*
X1583150D1*
X1962582D2*
X2028416D1*
X2518900D2*
X2925708D1*
X421382Y1233976D2*
X452659D1*
X645092D2*
X793388D1*
X841942D2*
X959511D1*
X1048004D2*
X1081558D1*
X1177149D2*
X1309904D1*
X1962582D2*
X2028416D1*
X2488688D2*
X2925708D1*
X421382Y1230171D2*
X452190D1*
X648898D2*
X797194D1*
X845748D2*
X959511D1*
X1043129D2*
X1070470D1*
X1177149D2*
X1309904D1*
X1962582D2*
X2028416D1*
X2458483D2*
X2925708D1*
X421382Y1226365D2*
X452075D1*
X849554D2*
X959511D1*
X1035417D2*
X1062757D1*
X1177149D2*
X1309904D1*
X1962582D2*
X2028416D1*
X2428272D2*
X2925708D1*
X421382Y1222559D2*
X452313D1*
X853361D2*
X959511D1*
X1035417D2*
X1058897D1*
X1177149D2*
X1309904D1*
X1962582D2*
X2028416D1*
X2398067D2*
X2925708D1*
X421382Y1218753D2*
X452890D1*
X857167D2*
X959511D1*
X1035417D2*
X1055091D1*
X1177149D2*
X1309904D1*
X1962582D2*
X2028416D1*
X2367855D2*
X2925708D1*
X421382Y1214948D2*
X453844D1*
X860973D2*
X959511D1*
X1035417D2*
X1051285D1*
X1177149D2*
X1309904D1*
X1962582D2*
X2028416D1*
X2337643D2*
X2925708D1*
X421382Y1211142D2*
X455189D1*
X864780D2*
X959511D1*
X1035417D2*
X1047478D1*
X1177149D2*
X1309904D1*
X1962582D2*
X2028416D1*
X2307439D2*
X2925708D1*
X421382Y1207336D2*
X456973D1*
X541899D2*
X623173D1*
X868586D2*
X959511D1*
X1035417D2*
X1043672D1*
X1177149D2*
X1309904D1*
X1962582D2*
X2028416D1*
X2277227D2*
X2925708D1*
X421382Y1203530D2*
X459257D1*
X539615D2*
X626980D1*
X872392D2*
X1039866D1*
X1177149D2*
X1309904D1*
X1962582D2*
X2028416D1*
X2247023D2*
X2925708D1*
X421382Y1199724D2*
X462148D1*
X536716D2*
X626611D1*
X876198D2*
X1036059D1*
X1177149D2*
X1309904D1*
X1962582D2*
X2028416D1*
X2216811D2*
X2925708D1*
X421382Y1195919D2*
X465847D1*
X533025D2*
X622804D1*
X880005D2*
X1032253D1*
X1177149D2*
X1309904D1*
X1962582D2*
X2028416D1*
X2186607D2*
X2925708D1*
X421382Y1192113D2*
X470722D1*
X528150D2*
X618998D1*
X1177149D2*
X1309904D1*
X1962582D2*
X2028416D1*
X2156395D2*
X2925708D1*
X421382Y1188307D2*
X477804D1*
X521068D2*
X615192D1*
X1177149D2*
X1309904D1*
X1881873D2*
X2925708D1*
X421382Y1184501D2*
X611393D1*
X1177149D2*
X1309904D1*
X1881873D2*
X2925708D1*
X421382Y1180696D2*
X607587D1*
X1177149D2*
X1309904D1*
X1881873D2*
X2925708D1*
X421382Y1176890D2*
X603781D1*
X1177149D2*
X1309904D1*
X1881873D2*
X2925708D1*
X421382Y1173084D2*
X599974D1*
X648529D2*
X803099D1*
X1177149D2*
X1309904D1*
X1881873D2*
X2925708D1*
X421382Y1169278D2*
X596168D1*
X644722D2*
X806898D1*
X1177149D2*
X1309904D1*
X1881873D2*
X2925708D1*
X421382Y1165472D2*
X477250D1*
X521614D2*
X592362D1*
X640916D2*
X810704D1*
X1177149D2*
X1309904D1*
X1881873D2*
X2925708D1*
X421382Y1161667D2*
X470376D1*
X528496D2*
X588555D1*
X637118D2*
X814510D1*
X1177149D2*
X1309904D1*
X1962582D2*
X2028416D1*
X2151558D2*
X2925708D1*
X421382Y1157861D2*
X465593D1*
X533279D2*
X584749D1*
X633311D2*
X818317D1*
X1177149D2*
X1309904D1*
X1962582D2*
X2028416D1*
X2175980D2*
X2925708D1*
X421382Y1154055D2*
X461948D1*
X536924D2*
X580943D1*
X629505D2*
X822123D1*
X1177149D2*
X1309904D1*
X1962582D2*
X2028416D1*
X2206192D2*
X2925708D1*
X421382Y1150249D2*
X459096D1*
X539777D2*
X577137D1*
X625699D2*
X825929D1*
X1177149D2*
X1309904D1*
X1962582D2*
X2028416D1*
X2236396D2*
X2925708D1*
X421382Y1146444D2*
X456843D1*
X542030D2*
X573330D1*
X621892D2*
X829736D1*
X1177149D2*
X1309904D1*
X1962582D2*
X2028416D1*
X2266608D2*
X2925708D1*
X421382Y1142638D2*
X455089D1*
X618086D2*
X833542D1*
X1177149D2*
X1309904D1*
X1962582D2*
X2028416D1*
X2296812D2*
X2925708D1*
X421382Y1138832D2*
X453774D1*
X614280D2*
X837348D1*
X1177149D2*
X1309904D1*
X1962582D2*
X2028416D1*
X2327024D2*
X2925708D1*
X421382Y1135026D2*
X452844D1*
X610474D2*
X841154D1*
X1177149D2*
X1309904D1*
X1962582D2*
X2028416D1*
X2357229D2*
X2925708D1*
X421382Y1131220D2*
X452283D1*
X606667D2*
X749611D1*
X1177149D2*
X1309904D1*
X1962582D2*
X2028416D1*
X2387440D2*
X2925708D1*
X421382Y1127415D2*
X452075D1*
X602861D2*
X743283D1*
X1177149D2*
X1309904D1*
X1962582D2*
X2028416D1*
X2417645D2*
X2925708D1*
X421382Y1123609D2*
X452213D1*
X599055D2*
X739477D1*
X1177149D2*
X1309904D1*
X1962582D2*
X2028416D1*
X2447857D2*
X2925708D1*
X421382Y1119803D2*
X452698D1*
X595248D2*
X735670D1*
X1177149D2*
X1309904D1*
X1405495D2*
X1581943D1*
X1962582D2*
X2028416D1*
X2478061D2*
X2925708D1*
X421382Y1115997D2*
X453544D1*
X591442D2*
X731864D1*
X1177149D2*
X1585749D1*
X1962582D2*
X2028416D1*
X2508273D2*
X2925708D1*
X421382Y1112192D2*
X454774D1*
X586675D2*
X728058D1*
X1177149D2*
X1589547D1*
X1962582D2*
X2028416D1*
X2538477D2*
X2925708D1*
X421382Y1108386D2*
X456435D1*
X542437D2*
X697700D1*
X1177149D2*
X1593354D1*
X1962582D2*
X2028416D1*
X2568689D2*
X2925708D1*
X421382Y1104580D2*
X458565D1*
X540299D2*
X697700D1*
X1177149D2*
X1309904D1*
X1555355D2*
X1597160D1*
X1962582D2*
X2028416D1*
X2598901D2*
X2925708D1*
X421382Y1100774D2*
X461279D1*
X537585D2*
X697700D1*
X1177149D2*
X1309904D1*
X1560607D2*
X1600966D1*
X1962582D2*
X2028416D1*
X2629105D2*
X2925708D1*
X421382Y1096969D2*
X464732D1*
X534140D2*
X697700D1*
X1177149D2*
X1309904D1*
X1564414D2*
X1604773D1*
X1962582D2*
X2028416D1*
X2869532D2*
X2925708D1*
X421382Y1093163D2*
X469223D1*
X529650D2*
X697700D1*
X1177149D2*
X1309904D1*
X1568220D2*
X1608579D1*
X1962582D2*
X2028416D1*
X2872654D2*
X2925708D1*
X421382Y1089357D2*
X475505D1*
X523367D2*
X697700D1*
X1177149D2*
X1309904D1*
X1572026D2*
X1612385D1*
X1962582D2*
X2028416D1*
X2873876D2*
X2925708D1*
X421382Y1085551D2*
X487508D1*
X511364D2*
X591470D1*
X1177149D2*
X1309904D1*
X1575832D2*
X1616191D1*
X1962582D2*
X2028416D1*
X2873999D2*
X2925708D1*
X421382Y1081745D2*
X587371D1*
X1177149D2*
X1309904D1*
X1579639D2*
X1619998D1*
X1962582D2*
X2028416D1*
X2873999D2*
X2925708D1*
X421382Y1077940D2*
X583565D1*
X1177149D2*
X1309904D1*
X1582753D2*
X1623804D1*
X1962582D2*
X2028416D1*
X2873999D2*
X2925708D1*
X421382Y1074134D2*
X579759D1*
X1177149D2*
X1309904D1*
X1584575D2*
X1627610D1*
X1962582D2*
X2028416D1*
X2873999D2*
X2925708D1*
X421382Y1070328D2*
X575960D1*
X1177149D2*
X1309904D1*
X1604314D2*
X1631417D1*
X1962582D2*
X2028416D1*
X2873999D2*
X2925708D1*
X421382Y1066522D2*
X477935D1*
X517000D2*
X572154D1*
X1177149D2*
X1309904D1*
X1604314D2*
X1635223D1*
X1962582D2*
X2028416D1*
X2873999D2*
X2925708D1*
X421382Y1062717D2*
X470022D1*
X524913D2*
X568348D1*
X1177149D2*
X1309904D1*
X1604314D2*
X1639029D1*
X1962582D2*
X2028416D1*
X2873999D2*
X2925708D1*
X421382Y1058911D2*
X464809D1*
X530126D2*
X564541D1*
X1177149D2*
X1309904D1*
X1604314D2*
X1642835D1*
X1962582D2*
X2028416D1*
X2873999D2*
X2925708D1*
X421382Y1055105D2*
X460895D1*
X534033D2*
X560735D1*
X1177149D2*
X1309904D1*
X1604314D2*
X1646634D1*
X1962582D2*
X2028416D1*
X2873999D2*
X2925708D1*
X421382Y1051299D2*
X457850D1*
X537085D2*
X556929D1*
X1177149D2*
X1309904D1*
X1604314D2*
X1650440D1*
X1962582D2*
X2028416D1*
X2873999D2*
X2925708D1*
X421382Y1047493D2*
X455443D1*
X539492D2*
X553122D1*
X1177149D2*
X1309904D1*
X1604314D2*
X1653224D1*
X1962582D2*
X2028416D1*
X2873999D2*
X2925708D1*
X421382Y1043688D2*
X453559D1*
X1177149D2*
X1309904D1*
X1604314D2*
X1655984D1*
X1962582D2*
X2028416D1*
X2873999D2*
X2925708D1*
X421382Y1039882D2*
X452129D1*
X1177149D2*
X1309912D1*
X1604314D2*
X1663312D1*
X1962582D2*
X2028416D1*
X2873999D2*
X2925708D1*
X421382Y1036076D2*
X451099D1*
X1177149D2*
X1309912D1*
X1604314D2*
X1673970D1*
X1962582D2*
X2028416D1*
X2873999D2*
X2925708D1*
X421382Y1032270D2*
X450437D1*
X1177149D2*
X1309912D1*
X1604314D2*
X1684628D1*
X1962582D2*
X2028416D1*
X2873999D2*
X2925708D1*
X421382Y1028465D2*
X450130D1*
X1059031D2*
X1061650D1*
X1177149D2*
X1309912D1*
X1604314D2*
X1695285D1*
X1962582D2*
X2028416D1*
X2873999D2*
X2925708D1*
X421382Y1024659D2*
X450168D1*
X1055225D2*
X1057844D1*
X1177149D2*
X1309912D1*
X1604314D2*
X1705581D1*
X1962582D2*
X2028416D1*
X2873999D2*
X2925708D1*
X421382Y1020853D2*
X450560D1*
X1051418D2*
X1054039D1*
X1177149D2*
X1309912D1*
X1604314D2*
X1716847D1*
X1962582D2*
X2028416D1*
X2873999D2*
X2925708D1*
X421382Y1017047D2*
X451306D1*
X611788D2*
X651686D1*
X1047612D2*
X1051177D1*
X1177149D2*
X1309912D1*
X1604314D2*
X1770565D1*
X1962582D2*
X2028416D1*
X2873999D2*
X2925708D1*
X421382Y1013241D2*
X452429D1*
X607982D2*
X647880D1*
X1043806D2*
X1049647D1*
X1094987D2*
X1309920D1*
X1604314D2*
X1773103D1*
X1962582D2*
X2028416D1*
X2873999D2*
X2925708D1*
X421382Y1009436D2*
X453959D1*
X540976D2*
X555614D1*
X604176D2*
X645419D1*
X1040000D2*
X1049093D1*
X1091181D2*
X1309920D1*
X1604314D2*
X1775640D1*
X1962582D2*
X2028416D1*
X2873999D2*
X2925708D1*
X421382Y1005630D2*
X455958D1*
X538977D2*
X551807D1*
X600370D2*
X644573D1*
X1035417D2*
X1049078D1*
X1087374D2*
X1309920D1*
X1604314D2*
X1778178D1*
X1962582D2*
X2028416D1*
X2873999D2*
X2925708D1*
X421382Y1001824D2*
X458503D1*
X536432D2*
X548001D1*
X596563D2*
X644550D1*
X1035417D2*
X1049078D1*
X1083645D2*
X1309920D1*
X1604314D2*
X1780715D1*
X1962582D2*
X2028416D1*
X2873999D2*
X2925708D1*
X421382Y998018D2*
X461725D1*
X533210D2*
X544195D1*
X592757D2*
X644550D1*
X1035417D2*
X1049078D1*
X1083645D2*
X1309920D1*
X1604314D2*
X1783253D1*
X1962582D2*
X2028416D1*
X2873999D2*
X2925708D1*
X421382Y994213D2*
X465885D1*
X529050D2*
X540389D1*
X588951D2*
X644550D1*
X1035417D2*
X1049078D1*
X1083645D2*
X1309920D1*
X1604314D2*
X1785783D1*
X1962582D2*
X2028416D1*
X2348524D2*
X2476512D1*
X2873999D2*
X2925708D1*
X421382Y990407D2*
X471537D1*
X523398D2*
X536590D1*
X585144D2*
X644550D1*
X1035417D2*
X1049078D1*
X1083645D2*
X1386430D1*
X1604314D2*
X1788320D1*
X1962582D2*
X2028416D1*
X2344718D2*
X2482756D1*
X2873999D2*
X2925708D1*
X421382Y986601D2*
X480734D1*
X514201D2*
X532784D1*
X581338D2*
X644550D1*
X1035417D2*
X1049078D1*
X1083645D2*
X1390236D1*
X1549104D2*
X1790858D1*
X1962582D2*
X2028416D1*
X2340919D2*
X2489000D1*
X2873999D2*
X2925708D1*
X421382Y982795D2*
X528977D1*
X577532D2*
X644550D1*
X1035417D2*
X1049078D1*
X1083645D2*
X1394043D1*
X1560392D2*
X1793395D1*
X1962582D2*
X2028416D1*
X2338566D2*
X2495236D1*
X2873999D2*
X2925708D1*
X421382Y978990D2*
X525171D1*
X573726D2*
X644550D1*
X1035417D2*
X1049078D1*
X1083645D2*
X1397849D1*
X1571672D2*
X1795933D1*
X1962582D2*
X2028416D1*
X2338566D2*
X2501480D1*
X2873999D2*
X2925708D1*
X421382Y975184D2*
X521365D1*
X569919D2*
X644550D1*
X1035417D2*
X1049078D1*
X1083645D2*
X1400456D1*
X1582961D2*
X1798470D1*
X1962582D2*
X2028416D1*
X2338566D2*
X2507724D1*
X2873999D2*
X2925708D1*
X421382Y971378D2*
X517559D1*
X566113D2*
X644550D1*
X892623D2*
X1049078D1*
X1083645D2*
X1400456D1*
X1594249D2*
X1801008D1*
X1962582D2*
X2028416D1*
X2338566D2*
X2513960D1*
X2873999D2*
X2925708D1*
X421382Y967572D2*
X481310D1*
X562314D2*
X644550D1*
X888817D2*
X959511D1*
X1035417D2*
X1049078D1*
X1083645D2*
X1400456D1*
X1605537D2*
X1803545D1*
X1962582D2*
X2028416D1*
X2338566D2*
X2520204D1*
X2873999D2*
X2925708D1*
X421382Y963766D2*
X471822D1*
X558508D2*
X644550D1*
X884795D2*
X959511D1*
X1035417D2*
X1048132D1*
X1083645D2*
X1400456D1*
X1616817D2*
X1806083D1*
X1962582D2*
X2028416D1*
X2338566D2*
X2526448D1*
X2873999D2*
X2925708D1*
X421382Y959961D2*
X466085D1*
X554702D2*
X644550D1*
X870062D2*
X959511D1*
X1035417D2*
X1044326D1*
X1083645D2*
X1400456D1*
X1628105D2*
X1808620D1*
X1962582D2*
X2028416D1*
X2338566D2*
X2532684D1*
X2873999D2*
X2925708D1*
X421382Y956155D2*
X461879D1*
X550896D2*
X644550D1*
X791322D2*
X959511D1*
X1035417D2*
X1040527D1*
X1083576D2*
X1400456D1*
X1639394D2*
X1811158D1*
X1962582D2*
X2028416D1*
X2338566D2*
X2538928D1*
X2873999D2*
X2925708D1*
X421382Y952349D2*
X458619D1*
X547089D2*
X644642D1*
X791322D2*
X959511D1*
X1082776D2*
X1400456D1*
X1650682D2*
X1813695D1*
X1962582D2*
X2028416D1*
X2338566D2*
X2545171D1*
X2873999D2*
X2925708D1*
X421382Y948543D2*
X456051D1*
X543283D2*
X645757D1*
X791322D2*
X959511D1*
X1080938D2*
X1400456D1*
X1661962D2*
X1816233D1*
X1962582D2*
X2028416D1*
X2338566D2*
X2551415D1*
X2873999D2*
X2925708D1*
X421382Y944738D2*
X454036D1*
X540899D2*
X648641D1*
X791322D2*
X793526D1*
X819519D2*
X840770D1*
X866764D2*
X959511D1*
X1077663D2*
X1400456D1*
X1673250D2*
X1818770D1*
X1962582D2*
X2028416D1*
X2338566D2*
X2557651D1*
X2873999D2*
X2925708D1*
X421382Y940932D2*
X452483D1*
X542452D2*
X652447D1*
X824671D2*
X835618D1*
X871915D2*
X959511D1*
X1073856D2*
X1400456D1*
X1684538D2*
X1821308D1*
X1962582D2*
X2028416D1*
X2338566D2*
X2563895D1*
X2873999D2*
X2925708D1*
X421382Y937126D2*
X451345D1*
X543591D2*
X656254D1*
X827955D2*
X832335D1*
X875199D2*
X959511D1*
X1070050D2*
X1400456D1*
X1695819D2*
X1823846D1*
X1962582D2*
X2028416D1*
X2338566D2*
X2570139D1*
X2873999D2*
X2925708D1*
X421382Y933320D2*
X450583D1*
X544352D2*
X660052D1*
X877421D2*
X959511D1*
X1066251D2*
X1400456D1*
X1707107D2*
X1826383D1*
X1962582D2*
X2028416D1*
X2338566D2*
X2576375D1*
X2873999D2*
X2925708D1*
X421382Y929514D2*
X450183D1*
X544752D2*
X663858D1*
X878874D2*
X959511D1*
X1062445D2*
X1400456D1*
X1718395D2*
X1828921D1*
X1962582D2*
X2028416D1*
X2338566D2*
X2582619D1*
X2873999D2*
X2925708D1*
X421382Y925709D2*
X450122D1*
X544805D2*
X667665D1*
X879682D2*
X959511D1*
X1058639D2*
X1400456D1*
X1729683D2*
X1831458D1*
X1962582D2*
X2028416D1*
X2338566D2*
X2588863D1*
X2873999D2*
X2925708D1*
X421382Y921903D2*
X450414D1*
X544521D2*
X671471D1*
X879905D2*
X959511D1*
X1054833D2*
X1400456D1*
X1531480D2*
X1533530D1*
X1740964D2*
X1833996D1*
X1962582D2*
X2028416D1*
X2338566D2*
X2595099D1*
X2873999D2*
X2925708D1*
X421382Y918097D2*
X451060D1*
X543875D2*
X675277D1*
X879566D2*
X959511D1*
X1051026D2*
X1400456D1*
X1531480D2*
X1537544D1*
X1752252D2*
X1836533D1*
X1962582D2*
X2028416D1*
X2338566D2*
X2601343D1*
X2873999D2*
X2925708D1*
X421382Y914291D2*
X452075D1*
X542860D2*
X683113D1*
X768515D2*
X774248D1*
X878636D2*
X959511D1*
X1047220D2*
X1400456D1*
X1531480D2*
X1541557D1*
X1763540D2*
X1839071D1*
X1962582D2*
X2028416D1*
X2337859D2*
X2607587D1*
X2873999D2*
X2925708D1*
X421382Y910486D2*
X453498D1*
X541437D2*
X770442D1*
X877044D2*
X959511D1*
X1041399D2*
X1400456D1*
X1531480D2*
X1545564D1*
X1774828D2*
X1839440D1*
X1962582D2*
X2028416D1*
X2337782D2*
X2613823D1*
X2873999D2*
X2925708D1*
X421382Y906680D2*
X455358D1*
X539577D2*
X766636D1*
X874645D2*
X959511D1*
X1035417D2*
X1400456D1*
X1531480D2*
X1549578D1*
X1786109D2*
X1839440D1*
X1962582D2*
X2028416D1*
X2337782D2*
X2620067D1*
X2873384D2*
X2925708D1*
X421382Y902874D2*
X457735D1*
X537193D2*
X762830D1*
X871077D2*
X959511D1*
X1035417D2*
X1400456D1*
X1531480D2*
X1553584D1*
X1797397D2*
X1850182D1*
X1857352D2*
X2626311D1*
X2871285D2*
X2925708D1*
X421382Y899068D2*
X460756D1*
X534179D2*
X759031D1*
X865295D2*
X959511D1*
X1035417D2*
X1400456D1*
X1531480D2*
X1557598D1*
X1808685D2*
X2633208D1*
X2865664D2*
X2925708D1*
X421382Y895262D2*
X464624D1*
X530311D2*
X755225D1*
X851023D2*
X959511D1*
X1035417D2*
X1400456D1*
X1531480D2*
X1561604D1*
X1819973D2*
X2925708D1*
X421382Y891457D2*
X469769D1*
X525167D2*
X751418D1*
X847217D2*
X959511D1*
X1035417D2*
X1400456D1*
X1531480D2*
X1565618D1*
X1831254D2*
X2925708D1*
X421382Y887651D2*
X477496D1*
X517431D2*
X747612D1*
X843411D2*
X959511D1*
X1035417D2*
X1400456D1*
X1531480D2*
X1569624D1*
X1842542D2*
X2925708D1*
X421382Y883845D2*
X743806D1*
X839604D2*
X1400456D1*
X1531480D2*
X1573638D1*
X1853830D2*
X2628287D1*
X2870139D2*
X2925708D1*
X421382Y880039D2*
X740000D1*
X835798D2*
X1400809D1*
X1531480D2*
X1577644D1*
X1962582D2*
X2028416D1*
X2151558D2*
X2250065D1*
X2337782D2*
X2622051D1*
X2872907D2*
X2925708D1*
X421382Y876234D2*
X736193D1*
X831999D2*
X1401640D1*
X1535247D2*
X1581658D1*
X1962582D2*
X2028416D1*
X2337782D2*
X2615807D1*
X2873945D2*
X2925708D1*
X421382Y872428D2*
X732387D1*
X828193D2*
X1401640D1*
X1539054D2*
X1585672D1*
X1962582D2*
X2028416D1*
X2337782D2*
X2609563D1*
X2873999D2*
X2925708D1*
X421382Y868622D2*
X486632D1*
X508304D2*
X728581D1*
X824387D2*
X1409791D1*
X1542860D2*
X1589678D1*
X1962582D2*
X2028416D1*
X2338482D2*
X2603327D1*
X2873999D2*
X2925708D1*
X421382Y864816D2*
X473859D1*
X521076D2*
X724774D1*
X820581D2*
X1413597D1*
X1546666D2*
X1593692D1*
X1962582D2*
X2028416D1*
X2338566D2*
X2597083D1*
X2873999D2*
X2925708D1*
X421382Y861010D2*
X467469D1*
X527458D2*
X720968D1*
X816774D2*
X1417403D1*
X1550473D2*
X1597698D1*
X1962582D2*
X2028416D1*
X2338566D2*
X2590839D1*
X2873999D2*
X2925708D1*
X421382Y857205D2*
X462925D1*
X532010D2*
X717162D1*
X812968D2*
X1421210D1*
X1554279D2*
X1601712D1*
X1962582D2*
X2028416D1*
X2338566D2*
X2584595D1*
X2873999D2*
X2925708D1*
X421382Y853399D2*
X459442D1*
X535494D2*
X713356D1*
X809162D2*
X1425016D1*
X1558077D2*
X1605718D1*
X1962582D2*
X2028416D1*
X2338566D2*
X2578359D1*
X2873999D2*
X2925708D1*
X421382Y849593D2*
X456704D1*
X538231D2*
X709549D1*
X805355D2*
X1427230D1*
X1561884D2*
X1609732D1*
X1962582D2*
X2028416D1*
X2338566D2*
X2572115D1*
X2873999D2*
X2925708D1*
X421382Y845787D2*
X454543D1*
X540392D2*
X705743D1*
X801549D2*
X1427230D1*
X1565690D2*
X1613738D1*
X1962582D2*
X2028416D1*
X2338566D2*
X2565872D1*
X2873999D2*
X2925708D1*
X421382Y841982D2*
X452867D1*
X797743D2*
X1427230D1*
X1569050D2*
X1617752D1*
X1962582D2*
X2028416D1*
X2338566D2*
X2559635D1*
X2873999D2*
X2925708D1*
X421382Y838176D2*
X451621D1*
X793937D2*
X1427230D1*
X1570588D2*
X1621759D1*
X1962582D2*
X2028416D1*
X2338566D2*
X2553392D1*
X2873999D2*
X2925708D1*
X421382Y834370D2*
X450752D1*
X790130D2*
X1427230D1*
X1570850D2*
X1625772D1*
X1962582D2*
X2028416D1*
X2338566D2*
X2547148D1*
X2873999D2*
X2925708D1*
X421382Y830564D2*
X450253D1*
X786324D2*
X1427230D1*
X1570850D2*
X1629786D1*
X1962582D2*
X2028416D1*
X2338566D2*
X2540912D1*
X2873999D2*
X2925708D1*
X421382Y826759D2*
X450107D1*
X782518D2*
X1427230D1*
X1570850D2*
X1633793D1*
X1962582D2*
X2028416D1*
X2338566D2*
X2534668D1*
X2873999D2*
X2925708D1*
X421382Y822953D2*
X450299D1*
X778711D2*
X1427230D1*
X1570850D2*
X1637807D1*
X1962582D2*
X2028416D1*
X2338566D2*
X2528424D1*
X2873999D2*
X2925708D1*
X421382Y819147D2*
X450845D1*
X774913D2*
X1427230D1*
X1570850D2*
X1641813D1*
X1962582D2*
X2028416D1*
X2338566D2*
X2522188D1*
X2873999D2*
X2925708D1*
X421382Y815341D2*
X451760D1*
X771107D2*
X1427230D1*
X1570850D2*
X1645827D1*
X1962582D2*
X2028416D1*
X2338566D2*
X2515944D1*
X2873999D2*
X2925708D1*
X421382Y811535D2*
X453059D1*
X767300D2*
X1427230D1*
X1570850D2*
X1649833D1*
X1962582D2*
X2028416D1*
X2338566D2*
X2509700D1*
X2873999D2*
X2925708D1*
X421382Y807730D2*
X454797D1*
X540138D2*
X714932D1*
X763494D2*
X1427230D1*
X1570850D2*
X1653847D1*
X1962582D2*
X2028416D1*
X2338566D2*
X2503456D1*
X2873999D2*
X2925708D1*
X421382Y803924D2*
X457027D1*
X537908D2*
X711126D1*
X759688D2*
X1427230D1*
X1570850D2*
X1657853D1*
X1962582D2*
X2028416D1*
X2338566D2*
X2497220D1*
X2873999D2*
X2925708D1*
X421382Y800118D2*
X459849D1*
X535086D2*
X707319D1*
X755881D2*
X1427230D1*
X1570850D2*
X1661867D1*
X1962582D2*
X2028416D1*
X2339712D2*
X2490976D1*
X2873999D2*
X2925708D1*
X421382Y796312D2*
X463455D1*
X531480D2*
X703513D1*
X752075D2*
X1427230D1*
X1570850D2*
X1665873D1*
X1962582D2*
X2028416D1*
X2343511D2*
X2484732D1*
X2873999D2*
X2925708D1*
X421382Y792507D2*
X468177D1*
X526758D2*
X699707D1*
X748269D2*
X1427230D1*
X1570850D2*
X1669887D1*
X1962582D2*
X2028416D1*
X2347317D2*
X2478496D1*
X2873999D2*
X2925708D1*
X421382Y788701D2*
X474928D1*
X520007D2*
X695900D1*
X744463D2*
X1427230D1*
X1570850D2*
X1673893D1*
X1962582D2*
X2028416D1*
X2351123D2*
X2472252D1*
X2873999D2*
X2925708D1*
X421382Y784895D2*
X692102D1*
X740656D2*
X1427230D1*
X1570850D2*
X1677907D1*
X1962582D2*
X2028416D1*
X2873999D2*
X2925708D1*
X421382Y781089D2*
X688296D1*
X736850D2*
X1427230D1*
X1570850D2*
X1681921D1*
X1962582D2*
X2028416D1*
X2873999D2*
X2925708D1*
X421382Y777283D2*
X684489D1*
X733044D2*
X1427230D1*
X1570850D2*
X1685927D1*
X1962582D2*
X2028416D1*
X2873999D2*
X2925708D1*
X421382Y773478D2*
X680683D1*
X729237D2*
X1427230D1*
X1570850D2*
X1689941D1*
X1962582D2*
X2028416D1*
X2873999D2*
X2925708D1*
X421382Y769672D2*
X676877D1*
X725431D2*
X1428015D1*
X1570850D2*
X1693947D1*
X1962582D2*
X2028416D1*
X2873999D2*
X2925708D1*
X421382Y765866D2*
X476220D1*
X518715D2*
X673070D1*
X721625D2*
X1428015D1*
X1570850D2*
X1697961D1*
X1962582D2*
X2028416D1*
X2873999D2*
X2925708D1*
X421382Y762060D2*
X468992D1*
X525943D2*
X669264D1*
X717826D2*
X1425262D1*
X1570850D2*
X1701967D1*
X1962582D2*
X2028416D1*
X2873999D2*
X2925708D1*
X421382Y758255D2*
X464055D1*
X530880D2*
X665458D1*
X714020D2*
X1425262D1*
X1570850D2*
X1705981D1*
X1962582D2*
X2028416D1*
X2873999D2*
X2925708D1*
X421382Y754449D2*
X460318D1*
X534617D2*
X661652D1*
X710214D2*
X1425262D1*
X1570850D2*
X1709988D1*
X1962582D2*
X2028416D1*
X2873999D2*
X2925708D1*
X421382Y750643D2*
X457396D1*
X537539D2*
X657845D1*
X706407D2*
X1425262D1*
X1570850D2*
X1714001D1*
X1962582D2*
X2028416D1*
X2873999D2*
X2925708D1*
X421382Y746837D2*
X455082D1*
X539846D2*
X654039D1*
X702601D2*
X1425262D1*
X1570850D2*
X1718008D1*
X1962582D2*
X2028416D1*
X2873999D2*
X2925708D1*
X421382Y743031D2*
X453282D1*
X698795D2*
X1425262D1*
X1570850D2*
X1722022D1*
X1962582D2*
X2028416D1*
X2873999D2*
X2925708D1*
X421382Y739226D2*
X451921D1*
X694988D2*
X1425262D1*
X1570850D2*
X1726035D1*
X1962582D2*
X2028416D1*
X2873999D2*
X2925708D1*
X421382Y735420D2*
X450960D1*
X691182D2*
X1425262D1*
X1570850D2*
X1730042D1*
X1962582D2*
X2028416D1*
X2873999D2*
X2925708D1*
X421382Y731614D2*
X450360D1*
X687376D2*
X1425262D1*
X1570850D2*
X1734056D1*
X1962582D2*
X2028416D1*
X2873999D2*
X2925708D1*
X421382Y727808D2*
X450114D1*
X683570D2*
X1425262D1*
X1570850D2*
X1738062D1*
X1962582D2*
X2028416D1*
X2873999D2*
X2925708D1*
X421382Y724003D2*
X450214D1*
X679763D2*
X1425262D1*
X1570850D2*
X1742076D1*
X1962582D2*
X2028416D1*
X2873999D2*
X2925708D1*
X421382Y720197D2*
X450660D1*
X675957D2*
X1425262D1*
X1570850D2*
X1746082D1*
X1962582D2*
X2028416D1*
X2873999D2*
X2925708D1*
X421382Y716391D2*
X451468D1*
X672151D2*
X1425262D1*
X1570850D2*
X1750096D1*
X1962582D2*
X2028416D1*
X2873999D2*
X2925708D1*
X421382Y712585D2*
X452659D1*
X667675D2*
X1425262D1*
X1570850D2*
X1754102D1*
X1962582D2*
X2028416D1*
X2873999D2*
X2925708D1*
X421382Y708780D2*
X454267D1*
X540661D2*
X1425262D1*
X1570850D2*
X1758116D1*
X1962582D2*
X2028416D1*
X2873999D2*
X2925708D1*
X421382Y704974D2*
X456358D1*
X538577D2*
X1425262D1*
X1570850D2*
X1762122D1*
X1962582D2*
X2028416D1*
X2873999D2*
X2925708D1*
X421382Y701168D2*
X459003D1*
X535932D2*
X1425262D1*
X1570850D2*
X1766136D1*
X1962582D2*
X2028416D1*
X2873999D2*
X2925708D1*
X421382Y697362D2*
X462364D1*
X532564D2*
X1425262D1*
X1570850D2*
X1770150D1*
X1962582D2*
X2028416D1*
X2873992D2*
X2925708D1*
X421382Y693556D2*
X466731D1*
X528204D2*
X1425262D1*
X1570850D2*
X1774156D1*
X1962582D2*
X2028416D1*
X2873200D2*
X2925708D1*
X421382Y689751D2*
X472752D1*
X522183D2*
X1425262D1*
X1570850D2*
X1778170D1*
X1962582D2*
X2028416D1*
X2870824D2*
X2925708D1*
X421382Y685945D2*
X483402D1*
X511533D2*
X1425262D1*
X1570850D2*
X1782176D1*
X1962582D2*
X2028416D1*
X2863003D2*
X2925708D1*
X421382Y682139D2*
X1425262D1*
X1570850D2*
X1786190D1*
X1962582D2*
X2028416D1*
X2608482D2*
X2925708D1*
X421382Y678333D2*
X1425262D1*
X1570850D2*
X1790196D1*
X1962582D2*
X2028416D1*
X2578270D2*
X2925708D1*
X421382Y674528D2*
X1425262D1*
X1570850D2*
X1794210D1*
X1962582D2*
X2028416D1*
X2548066D2*
X2925708D1*
X421382Y670722D2*
X1425262D1*
X1570850D2*
X1798217D1*
X1962582D2*
X2028416D1*
X2517854D2*
X2925708D1*
X421382Y666916D2*
X1425262D1*
X1570850D2*
X1802230D1*
X1962582D2*
X2028416D1*
X2487650D2*
X2925708D1*
X421382Y663110D2*
X1425262D1*
X1570850D2*
X1806237D1*
X1962582D2*
X2028416D1*
X2457438D2*
X2925708D1*
X421382Y659304D2*
X1425262D1*
X1570850D2*
X1810251D1*
X1962582D2*
X2028416D1*
X2427233D2*
X2925708D1*
X421382Y655499D2*
X1425262D1*
X1570850D2*
X1814257D1*
X1962582D2*
X2028416D1*
X2397022D2*
X2925708D1*
X421382Y651693D2*
X527278D1*
X573956D2*
X1425262D1*
X1570850D2*
X1818271D1*
X1962582D2*
X2028416D1*
X2366817D2*
X2771373D1*
X2818051D2*
X2925708D1*
X421382Y647887D2*
X514598D1*
X586636D2*
X1425262D1*
X1570850D2*
X1822285D1*
X1962582D2*
X2028416D1*
X2336605D2*
X2758693D1*
X2830731D2*
X2925708D1*
X421382Y644081D2*
X505694D1*
X595541D2*
X1425262D1*
X1570850D2*
X1826291D1*
X1962582D2*
X2028416D1*
X2306393D2*
X2749788D1*
X2839635D2*
X2925708D1*
X421382Y640276D2*
X498573D1*
X602661D2*
X1425262D1*
X1570850D2*
X1830305D1*
X1962582D2*
X2028416D1*
X2276189D2*
X2742668D1*
X2846756D2*
X2925708D1*
X421382Y636470D2*
X492568D1*
X608659D2*
X1424647D1*
X1570619D2*
X1834311D1*
X1962582D2*
X2028416D1*
X2245977D2*
X2736662D1*
X2852753D2*
X2925708D1*
X421382Y632664D2*
X487370D1*
X613865D2*
X1420840D1*
X1569150D2*
X1838325D1*
X1962582D2*
X2028416D1*
X2215773D2*
X2731464D1*
X2857959D2*
X2925708D1*
X421382Y628858D2*
X482779D1*
X618455D2*
X1417034D1*
X1565852D2*
X1839440D1*
X1962582D2*
X2028416D1*
X2185561D2*
X2726874D1*
X2862550D2*
X2925708D1*
X421382Y625052D2*
X478688D1*
X622546D2*
X1413228D1*
X1562045D2*
X1839440D1*
X1962582D2*
X2028416D1*
X2155357D2*
X2722783D1*
X2866640D2*
X2925708D1*
X421382Y621247D2*
X475005D1*
X626229D2*
X1409429D1*
X1558239D2*
X2719100D1*
X2870324D2*
X2925708D1*
X421382Y617441D2*
X471683D1*
X629551D2*
X1405623D1*
X1554433D2*
X2715778D1*
X2873646D2*
X2925708D1*
X421382Y613635D2*
X468669D1*
X632565D2*
X1401817D1*
X1550626D2*
X2712763D1*
X2876660D2*
X2925708D1*
X421382Y609829D2*
X465939D1*
X635295D2*
X1398010D1*
X1546820D2*
X2710034D1*
X2879390D2*
X2925708D1*
X421382Y606024D2*
X463463D1*
X637771D2*
X869160D1*
X1543014D2*
X2707558D1*
X2881866D2*
X2925708D1*
X421382Y602218D2*
X461210D1*
X640024D2*
X869160D1*
X1539208D2*
X2705305D1*
X2884119D2*
X2925708D1*
X421382Y598412D2*
X459180D1*
X642054D2*
X869160D1*
X1535401D2*
X2703275D1*
X2886149D2*
X2925708D1*
X421382Y594606D2*
X457342D1*
X643892D2*
X868960D1*
X1531595D2*
X2701437D1*
X2887986D2*
X2925708D1*
X421382Y590801D2*
X455697D1*
X645537D2*
X868960D1*
X1527789D2*
X2699791D1*
X2889632D2*
X2925708D1*
X421382Y586995D2*
X454236D1*
X646998D2*
X868960D1*
X1523990D2*
X2698330D1*
X2891093D2*
X2925708D1*
X421382Y583189D2*
X452936D1*
X648298D2*
X868960D1*
X1520184D2*
X2697031D1*
X2892393D2*
X2925708D1*
X421382Y579383D2*
X451806D1*
X649428D2*
X868960D1*
X1516377D2*
X2695900D1*
X2893523D2*
X2925708D1*
X421382Y575577D2*
X450837D1*
X650397D2*
X868960D1*
X1512571D2*
X2694932D1*
X2894492D2*
X2925708D1*
X421382Y571772D2*
X450014D1*
X651220D2*
X868960D1*
X1508765D2*
X2694109D1*
X2895314D2*
X2925708D1*
X421382Y567966D2*
X449345D1*
X651889D2*
X868960D1*
X1504959D2*
X2693440D1*
X2895983D2*
X2925708D1*
X421382Y564160D2*
X448822D1*
X652404D2*
X868960D1*
X1501152D2*
X2692917D1*
X2896499D2*
X2925708D1*
X421382Y560354D2*
X448446D1*
X652781D2*
X868960D1*
X1497346D2*
X2692540D1*
X2896875D2*
X2925708D1*
X421382Y556549D2*
X448215D1*
X653019D2*
X868960D1*
X1493540D2*
X2692309D1*
X2897114D2*
X2925708D1*
X421382Y552743D2*
X448123D1*
X653112D2*
X868960D1*
X1489733D2*
X2692217D1*
X2897206D2*
X2925708D1*
X421382Y548937D2*
X448177D1*
X653058D2*
X868960D1*
X1485927D2*
X2692271D1*
X2897152D2*
X2925708D1*
X421382Y545131D2*
X448369D1*
X652866D2*
X868960D1*
X1482121D2*
X2692463D1*
X2896960D2*
X2925708D1*
X421382Y541325D2*
X448707D1*
X652527D2*
X868960D1*
X1478315D2*
X2692802D1*
X2896622D2*
X2925708D1*
X421382Y537520D2*
X449184D1*
X652050D2*
X868960D1*
X1474508D2*
X2693278D1*
X2896145D2*
X2925708D1*
X421382Y533714D2*
X449814D1*
X651420D2*
X868960D1*
X1470702D2*
X2693909D1*
X2895514D2*
X2925708D1*
X421382Y529908D2*
X450591D1*
X650643D2*
X868960D1*
X1466903D2*
X2694686D1*
X2894738D2*
X2925708D1*
X421382Y526102D2*
X451514D1*
X649721D2*
X868960D1*
X1463097D2*
X2695608D1*
X2893815D2*
X2925708D1*
X421382Y522297D2*
X452606D1*
X648629D2*
X868960D1*
X1459291D2*
X2696700D1*
X2892723D2*
X2925708D1*
X421382Y518491D2*
X453851D1*
X647383D2*
X868960D1*
X1455485D2*
X2697946D1*
X2891477D2*
X2925708D1*
X421382Y514685D2*
X455266D1*
X645968D2*
X868960D1*
X1451678D2*
X2699361D1*
X2890063D2*
X2925708D1*
X421382Y510879D2*
X456858D1*
X644376D2*
X868960D1*
X1447872D2*
X2700952D1*
X2888471D2*
X2925708D1*
X421382Y507073D2*
X458642D1*
X642592D2*
X868960D1*
X1444066D2*
X2702736D1*
X2886687D2*
X2925708D1*
X421382Y503268D2*
X460618D1*
X640616D2*
X868960D1*
X1440259D2*
X2704713D1*
X2884711D2*
X2925708D1*
X421382Y499462D2*
X462802D1*
X638432D2*
X868960D1*
X1436453D2*
X2706896D1*
X2882527D2*
X2925708D1*
X421382Y495656D2*
X465216D1*
X636018D2*
X868960D1*
X1432647D2*
X2709311D1*
X2880112D2*
X2925708D1*
X421436Y491850D2*
X467869D1*
X633365D2*
X868960D1*
X1428841D2*
X2711964D1*
X2877460D2*
X2925646D1*
X421628Y488045D2*
X470799D1*
X630435D2*
X868960D1*
X1425034D2*
X2714893D1*
X2874530D2*
X2925462D1*
X421928Y484239D2*
X474036D1*
X627198D2*
X869006D1*
X1421228D2*
X2718131D1*
X2871293D2*
X2925154D1*
X422497Y480433D2*
X477604D1*
X623630D2*
X869160D1*
X1417422D2*
X2721699D1*
X2867725D2*
X2924593D1*
X423258Y476627D2*
X481580D1*
X619655D2*
X869160D1*
X1413615D2*
X2725674D1*
X2863749D2*
X2923832D1*
X424212Y472822D2*
X486016D1*
X615218D2*
X869160D1*
X958845D2*
X2730111D1*
X2859312D2*
X2922870D1*
X425450Y469016D2*
X491030D1*
X610204D2*
X869160D1*
X958845D2*
X2735124D1*
X2854299D2*
X2921640D1*
X426803Y465210D2*
X496782D1*
X604453D2*
X869160D1*
X958845D2*
X2740876D1*
X2848547D2*
X2920287D1*
X428595Y461404D2*
X503533D1*
X597694D2*
X2747627D1*
X2841788D2*
X2918495D1*
X430548Y457598D2*
X511830D1*
X589404D2*
X2755924D1*
X2833499D2*
X2916542D1*
X432816Y453793D2*
X523033D1*
X578201D2*
X2767128D1*
X2822295D2*
X2914266D1*
X435484Y449987D2*
X2911598D1*
X438460Y446181D2*
X2908622D1*
X441913Y442375D2*
X2905162D1*
X446027Y438570D2*
X2901063D1*
X450825Y434764D2*
X2896257D1*
X456646Y430958D2*
X2890444D1*
X464005Y427152D2*
X2883085D1*
X475100Y423346D2*
X2871989D1*
X871522Y607480D2*
X1396051D1*
X1425655Y637082D1*
X1425656Y764961D1*
X1428417D1*
X1428412Y770547D1*
X1427625Y770551D1*
Y851191D1*
X1407868Y870940D1*
X1402034Y870945D1*
Y877735D1*
X1401439Y879215D1*
X1401000Y881041D1*
X1400853Y882917D1*
Y976379D1*
X1386214Y991020D1*
X1310310Y991023D1*
X1310302Y1107480D1*
X1405105D1*
Y1106504D1*
X1546680Y1106496D1*
X1548159Y1106438D1*
X1549630Y1106264D1*
X1551082Y1105975D1*
X1552507Y1105573D1*
X1553897Y1105061D1*
X1555241Y1104441D1*
X1556533Y1103717D1*
X1557764Y1102895D1*
X1558927Y1101978D1*
X1561407Y1099581D1*
X1579700Y1081288D1*
X1580705Y1080200D1*
X1581622Y1079037D1*
X1582444Y1077806D1*
X1583168Y1076514D1*
X1583788Y1075170D1*
X1584300Y1073780D1*
X1584703Y1072349D1*
X1585893Y1072047D1*
X1603924D1*
Y989055D1*
X1541432D1*
X1858350Y882158D1*
X1859515Y881889D1*
X1962192D1*
Y621732D1*
X1839830D1*
X1839816Y631620D1*
X1531085Y924600D1*
X1531089Y879999D1*
X1567592Y843442D1*
X1568696Y841923D1*
X1569548Y840249D1*
X1570129Y838463D1*
X1570423Y836608D1*
X1570459Y831732D1*
X1570423Y637880D1*
X1570129Y636025D1*
X1569548Y634239D1*
X1568696Y632565D1*
X1567592Y631046D1*
X1564170Y627572D1*
X1412720Y476175D1*
X1411201Y475071D1*
X1409528Y474218D1*
X1407742Y473638D1*
X1405887Y473344D1*
X1401010Y473307D1*
X958459D1*
X958451Y461496D1*
X869554D1*
X869504Y483403D1*
X869357Y485279D1*
X869394Y596451D1*
X869505Y597388D1*
X869554Y603228D1*
Y607480D1*
X871522D1*
X873491Y1892913D2*
X960420D1*
Y1879141D1*
X1404948Y1879134D1*
X1406820Y1878987D1*
X1408646Y1878548D1*
X1410381Y1877829D1*
X1411982Y1876848D1*
X1413413Y1875626D1*
X1567592Y1721395D1*
X1568696Y1719876D1*
X1569548Y1718202D1*
X1570129Y1716416D1*
X1570423Y1714561D1*
X1570459Y1709685D1*
X1570423Y1507959D1*
X1570129Y1506104D1*
X1569548Y1504317D1*
X1568696Y1502644D1*
X1567592Y1501125D1*
X1564170Y1497651D1*
X1558390Y1491923D1*
X1556870Y1490819D1*
X1555197Y1489966D1*
X1553411Y1489386D1*
X1551556Y1489092D1*
X1546680Y1489055D1*
X1539828D1*
X1531093Y1480321D1*
X1531096Y1431788D1*
X1839827Y1724768D1*
X1839830Y1732283D1*
X1848588D1*
X1850068Y1732879D1*
X1851894Y1733317D1*
X1853766Y1733465D1*
X1855639Y1733317D1*
X1857465Y1732879D1*
X1858350Y1732552D1*
X1859515Y1732283D1*
X1962192D1*
Y1472126D1*
X1852225D1*
X1535599Y1365356D1*
X1603924Y1365354D1*
Y1282362D1*
X1585108D1*
X1584702Y1280086D1*
X1584300Y1278661D1*
X1583788Y1277271D1*
X1583168Y1275927D1*
X1582444Y1274635D1*
X1581622Y1273404D1*
X1580705Y1272241D1*
X1578308Y1269761D1*
X1561983Y1253437D1*
X1560896Y1252432D1*
X1559733Y1251515D1*
X1558502Y1250692D1*
X1557210Y1249969D1*
X1555865Y1249349D1*
X1554476Y1248836D1*
X1553051Y1248434D1*
X1551598Y1248146D1*
X1550128Y1247971D1*
X1546680Y1247913D1*
X1405109D1*
X1405105Y1246929D1*
X1310302D1*
Y1363386D1*
X1396051D1*
X1404787Y1372120D1*
X1404790Y1398665D1*
X1404318Y1400472D1*
X1402034D1*
Y1483464D1*
X1413776D1*
X1422699Y1492394D1*
X1422703Y1504961D1*
X1422755Y1506286D1*
X1422911Y1507603D1*
X1423170Y1508903D1*
X1423530Y1510180D1*
X1423989Y1511424D1*
X1424544Y1512628D1*
X1425192Y1513786D1*
X1425929Y1514888D1*
X1426754Y1515933D1*
X1427625Y1518583D1*
Y1583858D1*
X1428417D1*
X1428412Y1589445D1*
X1427625Y1589449D1*
Y1708797D1*
X1380835Y1748897D1*
X960427Y1748898D1*
X960420Y1746929D1*
X871522D1*
X871483Y1748898D1*
X823293D1*
X662189Y1587796D1*
X803524Y1587759D1*
X805379Y1587465D1*
X807166Y1586884D1*
X808839Y1586032D1*
X810358Y1584928D1*
X813832Y1581506D1*
X831371Y1563915D1*
X832475Y1562395D1*
X833328Y1560722D1*
X833908Y1558936D1*
X834202Y1557081D1*
X834239Y1552205D1*
Y1388519D1*
X850224Y1375199D1*
X1035026Y1375197D1*
Y1346584D1*
X1036922Y1345397D1*
X1037964Y1344575D1*
X1040330Y1342283D1*
X1060627Y1321986D1*
X1061226Y1322017D1*
X1059899Y1323422D1*
X1058982Y1324585D1*
X1058159Y1325816D1*
X1057436Y1327108D1*
X1056816Y1328452D1*
X1056303Y1329842D1*
X1055901Y1331267D1*
X1055613Y1332719D1*
X1055439Y1334190D1*
X1055380Y1337638D1*
Y1390441D1*
X1050516Y1385623D1*
X1048996Y1384520D1*
X1047323Y1383667D1*
X1045537Y1383087D1*
X1043682Y1382793D1*
X1038806Y1382756D1*
X1035030D1*
X1035026Y1380787D1*
X959908D1*
Y1564173D1*
X1049594D1*
X1058592Y1573117D1*
X1060111Y1574221D1*
X1061785Y1575073D1*
X1063571Y1575654D1*
X1065426Y1575947D1*
X1070302Y1575984D1*
X1094863Y1575947D1*
X1096718Y1575654D1*
X1098504Y1575073D1*
X1100177Y1574221D1*
X1101697Y1573117D1*
X1105171Y1569695D1*
X1114836Y1559978D1*
X1115940Y1558458D1*
X1116792Y1556785D1*
X1117373Y1554999D1*
X1117667Y1553144D1*
X1117703Y1548268D1*
X1117667Y1456777D1*
X1117373Y1454923D1*
X1116792Y1453136D1*
X1115940Y1451463D1*
X1114836Y1449944D1*
X1111414Y1446470D1*
X1093096Y1428151D1*
X1093142Y1343436D1*
X1098780Y1337798D1*
X1176759Y1337795D1*
Y1246929D1*
X1081956D1*
Y1249889D1*
X1063512Y1249882D1*
X1046812Y1233175D1*
X1045838Y1232275D1*
X1044796Y1231454D1*
X1043694Y1230717D1*
X1042537Y1230069D1*
X1041332Y1229514D1*
X1040088Y1229055D1*
X1038812Y1228695D1*
X1037511Y1228436D1*
X1036189Y1228280D1*
X1035026Y1227559D1*
Y1203622D1*
X959908D1*
Y1286614D1*
X1035026D1*
Y1269167D1*
X1044092Y1278228D1*
X1042654Y1279808D1*
X1041452Y1281367D1*
X1040373Y1283013D1*
X1039422Y1284736D1*
X1038606Y1286527D1*
X1037930Y1288375D1*
X1037396Y1290269D1*
X1037008Y1292199D1*
X1036769Y1294152D1*
X1036680Y1296118D1*
X1036743Y1298093D1*
X1035027Y1299814D1*
X1035026Y1292205D1*
X872512Y1292242D1*
X870657Y1292535D1*
X868871Y1293116D1*
X867198Y1293968D1*
X865678Y1295072D1*
X862204Y1298494D1*
X856686Y1304013D1*
X785898Y1304053D1*
X784043Y1304346D1*
X782257Y1304927D1*
X780584Y1305779D1*
X779064Y1306883D1*
X775590Y1310305D1*
X758051Y1327896D1*
X756947Y1329416D1*
X756095Y1331089D1*
X755514Y1332875D1*
X755221Y1334730D1*
X755184Y1339606D1*
Y1425198D1*
X714946Y1465438D1*
X471877Y1465433D1*
X470004Y1465580D1*
X468178Y1466019D1*
X466443Y1466738D1*
X464842Y1467719D1*
X463411Y1468941D1*
X439154Y1493251D1*
X438050Y1494770D1*
X437197Y1496443D1*
X436617Y1498230D1*
X436323Y1500085D1*
X436286Y1504961D1*
X436323Y1553144D1*
X436617Y1554999D1*
X437197Y1556785D1*
X438050Y1558458D1*
X439154Y1559978D1*
X442575Y1563452D1*
X456924Y1577801D1*
X439792Y1594923D1*
X438572Y1596351D1*
X437591Y1597952D1*
X436872Y1599687D1*
X436433Y1601514D1*
X436286Y1603389D1*
X436323Y1651569D1*
X436617Y1653424D1*
X437197Y1655210D1*
X438050Y1656883D1*
X439154Y1658403D1*
X442575Y1661877D1*
X468041Y1687290D1*
X469560Y1688394D1*
X471233Y1689247D1*
X473020Y1689827D1*
X474875Y1690121D1*
X479751Y1690158D1*
X632271D1*
X818434Y1876266D1*
X819954Y1877370D1*
X821627Y1878223D1*
X823413Y1878803D1*
X825268Y1879097D1*
X830144Y1879134D1*
X871521D1*
X871522Y1892913D1*
X873491D1*
X961877Y967716D2*
X1035026D1*
Y950269D1*
X1049476Y964714D1*
X1049475Y1008898D1*
X1049527Y1010223D1*
X1049683Y1011540D1*
X1049942Y1012840D1*
X1050302Y1014117D1*
X1050761Y1015361D1*
X1051316Y1016565D1*
X1051964Y1017723D1*
X1052701Y1018825D1*
X1053522Y1019867D1*
X1055814Y1022232D1*
X1064030Y1030448D1*
X1061534Y1030409D1*
X1060653Y1030474D1*
X1038938Y1008766D1*
X1037964Y1007866D1*
X1036922Y1007044D1*
X1035815Y1006305D1*
X1035026Y1005118D1*
Y973307D1*
X894163D1*
X885161Y964364D1*
X883642Y963260D1*
X881969Y962407D1*
X880182Y961827D1*
X878327Y961533D1*
X873451Y961496D1*
X869676D1*
X869672Y959528D1*
X793769D1*
X790935Y956699D1*
X790932Y942776D1*
X792327Y943765D1*
X794009Y944786D1*
X795764Y945676D1*
X797582Y946430D1*
X799453Y947042D1*
X801364Y947510D1*
X803306Y947830D1*
X805267Y948001D1*
X807235Y948022D1*
X809198Y947892D1*
X811147Y947613D1*
X813068Y947186D1*
X814951Y946613D1*
X816784Y945898D1*
X818558Y945045D1*
X820261Y944060D1*
X821884Y942947D1*
X823418Y941713D1*
X824852Y940366D1*
X826180Y938913D1*
X827393Y937363D1*
X828483Y935725D1*
X829446Y934008D1*
X830142Y932509D1*
X831527Y935258D1*
X832583Y936919D1*
X833762Y938494D1*
X835059Y939975D1*
X836465Y941352D1*
X837972Y942618D1*
X839571Y943765D1*
X841253Y944786D1*
X843008Y945676D1*
X844827Y946430D1*
X846697Y947042D1*
X848609Y947510D1*
X850550Y947830D1*
X852511Y948001D1*
X854479Y948022D1*
X856443Y947892D1*
X858391Y947613D1*
X860312Y947186D1*
X862195Y946613D1*
X864028Y945898D1*
X865802Y945045D1*
X867505Y944060D1*
X869128Y942947D1*
X870662Y941713D1*
X872096Y940366D1*
X873424Y938913D1*
X874637Y937363D1*
X875727Y935725D1*
X876690Y934008D1*
X877518Y932223D1*
X878208Y930380D1*
X878755Y928490D1*
X879156Y926563D1*
X879409Y924611D1*
X879514Y922283D1*
X879439Y920317D1*
X879214Y918362D1*
X878840Y916430D1*
X878320Y914532D1*
X877656Y912679D1*
X876853Y910882D1*
X875914Y909152D1*
X874847Y907499D1*
X873656Y905932D1*
X872349Y904461D1*
X870933Y903094D1*
X869418Y901838D1*
X867810Y900703D1*
X866121Y899693D1*
X864360Y898815D1*
X862536Y898075D1*
X860662Y897476D1*
X858747Y897022D1*
X856803Y896715D1*
X854841Y896558D1*
X851991Y896615D1*
X670434Y715065D1*
X669460Y714165D1*
X668418Y713344D1*
X667316Y712607D1*
X666159Y711959D1*
X664954Y711404D1*
X663710Y710945D1*
X662434Y710585D1*
X661133Y710326D1*
X659816Y710170D1*
X656522Y710118D1*
X540880D1*
X539903Y708037D1*
X537962Y704613D1*
X535708Y701387D1*
X533162Y698386D1*
X530346Y695637D1*
X527285Y693163D1*
X524005Y690987D1*
X520536Y689128D1*
X516909Y687602D1*
X513154Y686423D1*
X509305Y685600D1*
X505397Y685142D1*
X502467Y685039D1*
X491462Y685051D1*
X487536Y685330D1*
X483654Y685975D1*
X479849Y686981D1*
X476155Y688339D1*
X472605Y690037D1*
X469229Y692060D1*
X466058Y694390D1*
X463119Y697008D1*
X460437Y699889D1*
X458038Y703008D1*
X455941Y706339D1*
X454166Y709851D1*
X452727Y713514D1*
X451638Y717296D1*
X450908Y721163D1*
X450543Y725082D1*
X450547Y729017D1*
X450919Y732935D1*
X451657Y736801D1*
X452754Y740581D1*
X454200Y744241D1*
X455983Y747750D1*
X458086Y751076D1*
X460492Y754191D1*
X463178Y757067D1*
X466123Y759678D1*
X469299Y762002D1*
X472679Y764018D1*
X476232Y765709D1*
X479929Y767060D1*
X483736Y768058D1*
X487620Y768695D1*
X491546Y768966D1*
X503514Y768963D1*
X507439Y768681D1*
X511321Y768032D1*
X515125Y767022D1*
X518818Y765660D1*
X522366Y763959D1*
X525740Y761933D1*
X528909Y759599D1*
X531846Y756979D1*
X534524Y754095D1*
X536920Y750973D1*
X539014Y747641D1*
X540786Y744127D1*
X540884Y743893D1*
X651495Y743898D1*
X720424Y812827D1*
X718915Y811959D1*
X717710Y811404D1*
X716466Y810945D1*
X715190Y810585D1*
X713889Y810326D1*
X712572Y810170D1*
X709278Y810118D1*
X540887D1*
X539903Y808037D1*
X537962Y804613D1*
X535708Y801387D1*
X533162Y798386D1*
X530346Y795637D1*
X527285Y793163D1*
X524005Y790987D1*
X520536Y789128D1*
X516909Y787602D1*
X513154Y786423D1*
X509305Y785600D1*
X505397Y785142D1*
X502467Y785039D1*
X491462Y785051D1*
X487536Y785330D1*
X483654Y785975D1*
X479849Y786981D1*
X476155Y788339D1*
X472605Y790037D1*
X469229Y792060D1*
X466058Y794390D1*
X463119Y797008D1*
X460437Y799889D1*
X458038Y803008D1*
X455941Y806339D1*
X454166Y809851D1*
X452727Y813514D1*
X451638Y817296D1*
X450908Y821163D1*
X450543Y825082D1*
X450547Y829017D1*
X450919Y832935D1*
X451657Y836801D1*
X452754Y840581D1*
X454200Y844241D1*
X455983Y847750D1*
X458086Y851076D1*
X460492Y854191D1*
X463178Y857067D1*
X466123Y859678D1*
X469299Y862002D1*
X472679Y864018D1*
X476232Y865709D1*
X479929Y867060D1*
X483736Y868058D1*
X487620Y868695D1*
X491546Y868966D1*
X503514Y868963D1*
X507439Y868681D1*
X511321Y868032D1*
X515125Y867022D1*
X518818Y865660D1*
X522366Y863959D1*
X525740Y861933D1*
X528909Y859599D1*
X531846Y856979D1*
X534524Y854095D1*
X536920Y850973D1*
X539014Y847641D1*
X540786Y844127D1*
X540884Y843893D1*
X704245Y843898D1*
X780836Y920483D1*
X780801Y922940D1*
X774925Y917119D1*
X773406Y916016D1*
X771732Y915163D1*
X769946Y914583D1*
X768091Y914289D1*
X763215Y914252D1*
X683536Y914289D1*
X681681Y914583D1*
X679895Y915163D1*
X678221Y916016D1*
X676702Y917119D1*
X673228Y920541D1*
X647815Y946007D1*
X646711Y947526D1*
X645859Y949199D1*
X645278Y950986D1*
X644984Y952840D1*
X644947Y957717D1*
X644984Y1005900D1*
X645278Y1007755D1*
X645859Y1009541D1*
X646711Y1011214D1*
X647815Y1012734D1*
X651237Y1016208D1*
X652623Y1017594D1*
X611940Y1017598D1*
X540045Y945700D1*
X541546Y942311D1*
X542808Y938583D1*
X543715Y934754D1*
X544259Y930856D1*
X544436Y927008D1*
X544251Y923077D1*
X543699Y919180D1*
X542785Y915352D1*
X541516Y911627D1*
X539903Y908037D1*
X537962Y904613D1*
X535708Y901387D1*
X533162Y898386D1*
X530346Y895637D1*
X527285Y893163D1*
X524005Y890987D1*
X520536Y889128D1*
X516909Y887602D1*
X513154Y886423D1*
X509305Y885600D1*
X505397Y885142D1*
X502467Y885039D1*
X491462Y885051D1*
X487536Y885330D1*
X483654Y885975D1*
X479849Y886981D1*
X476155Y888339D1*
X472605Y890037D1*
X469229Y892060D1*
X466058Y894390D1*
X463119Y897008D1*
X460437Y899889D1*
X458038Y903008D1*
X455941Y906339D1*
X454166Y909851D1*
X452727Y913514D1*
X451638Y917296D1*
X450908Y921163D1*
X450543Y925082D1*
X450547Y929017D1*
X450919Y932935D1*
X451657Y936801D1*
X452754Y940581D1*
X454200Y944241D1*
X455983Y947750D1*
X458086Y951076D1*
X460492Y954191D1*
X463178Y957067D1*
X466123Y959678D1*
X469299Y962002D1*
X472679Y964018D1*
X476232Y965709D1*
X479929Y967060D1*
X483736Y968058D1*
X487620Y968695D1*
X491546Y968966D1*
X503514Y968963D1*
X507439Y968681D1*
X511321Y968032D1*
X513936Y967368D1*
X556693Y1010119D1*
X540883Y1010118D1*
X539903Y1008037D1*
X537962Y1004613D1*
X535708Y1001387D1*
X533162Y998386D1*
X530346Y995637D1*
X527285Y993163D1*
X524005Y990987D1*
X520536Y989128D1*
X516909Y987602D1*
X513154Y986423D1*
X509305Y985600D1*
X505397Y985142D1*
X502467Y985039D1*
X491462Y985051D1*
X487536Y985330D1*
X483654Y985975D1*
X479849Y986981D1*
X476155Y988339D1*
X472605Y990037D1*
X469229Y992060D1*
X466058Y994390D1*
X463119Y997008D1*
X460437Y999889D1*
X458038Y1003008D1*
X455941Y1006339D1*
X454166Y1009851D1*
X452727Y1013514D1*
X451638Y1017296D1*
X450908Y1021163D1*
X450543Y1025082D1*
X450547Y1029017D1*
X450919Y1032935D1*
X451657Y1036801D1*
X452754Y1040581D1*
X454200Y1044241D1*
X455983Y1047750D1*
X458086Y1051076D1*
X460492Y1054191D1*
X463178Y1057067D1*
X466123Y1059678D1*
X469299Y1062002D1*
X472679Y1064018D1*
X476232Y1065709D1*
X479929Y1067060D1*
X483736Y1068058D1*
X487620Y1068695D1*
X491546Y1068966D1*
X503514Y1068963D1*
X507439Y1068681D1*
X511321Y1068032D1*
X515125Y1067022D1*
X518818Y1065660D1*
X522366Y1063959D1*
X525740Y1061933D1*
X528909Y1059599D1*
X531846Y1056979D1*
X534524Y1054095D1*
X536920Y1050973D1*
X539014Y1047641D1*
X540786Y1044127D1*
X540884Y1043893D1*
X549917Y1043898D1*
X589855Y1083833D1*
X590829Y1084733D1*
X591870Y1085554D1*
X592973Y1086291D1*
X594130Y1086939D1*
X595334Y1087494D1*
X596579Y1087953D1*
X597855Y1088313D1*
X599156Y1088572D1*
X600473Y1088728D1*
X603766Y1088780D1*
X698093D1*
X698097Y1109449D1*
X725987D1*
X726750Y1110418D1*
X729042Y1112784D1*
X744372Y1128040D1*
X745414Y1128861D1*
X746516Y1129598D1*
X747673Y1130246D1*
X748878Y1130801D1*
X750122Y1131260D1*
X751398Y1131620D1*
X752699Y1131879D1*
X754016Y1132035D1*
X757310Y1132087D1*
X844485D1*
X803465Y1173109D1*
X648158Y1173110D1*
X590119Y1115065D1*
X589145Y1114165D1*
X588103Y1113344D1*
X587001Y1112607D1*
X585844Y1111959D1*
X584639Y1111404D1*
X583395Y1110945D1*
X582119Y1110585D1*
X580818Y1110326D1*
X579501Y1110170D1*
X576207Y1110118D1*
X542858D1*
X541872Y1108037D1*
X539930Y1104613D1*
X537676Y1101387D1*
X535130Y1098386D1*
X532314Y1095637D1*
X529253Y1093163D1*
X525974Y1090987D1*
X522505Y1089128D1*
X518877Y1087602D1*
X515123Y1086423D1*
X511274Y1085600D1*
X507365Y1085142D1*
X504436Y1085039D1*
X493431Y1085051D1*
X489505Y1085330D1*
X485623Y1085975D1*
X481818Y1086981D1*
X478124Y1088339D1*
X474573Y1090037D1*
X471198Y1092060D1*
X468026Y1094390D1*
X465087Y1097008D1*
X462406Y1099889D1*
X460006Y1103008D1*
X457910Y1106339D1*
X456134Y1109851D1*
X454696Y1113514D1*
X453606Y1117296D1*
X452876Y1121163D1*
X452511Y1125082D1*
X452515Y1129017D1*
X452888Y1132935D1*
X453626Y1136801D1*
X454723Y1140581D1*
X456169Y1144241D1*
X457951Y1147750D1*
X460054Y1151076D1*
X462460Y1154191D1*
X465147Y1157067D1*
X468091Y1159678D1*
X471267Y1162002D1*
X474647Y1164018D1*
X478201Y1165709D1*
X481898Y1167060D1*
X485704Y1168058D1*
X489588Y1168695D1*
X493514Y1168966D1*
X505483Y1168963D1*
X509408Y1168681D1*
X513290Y1168032D1*
X517093Y1167022D1*
X520786Y1165660D1*
X524335Y1163959D1*
X527709Y1161933D1*
X530878Y1159599D1*
X533814Y1156979D1*
X536492Y1154095D1*
X538889Y1150973D1*
X540982Y1147641D1*
X542754Y1144127D1*
X542852Y1143893D1*
X571186Y1143898D1*
X629093Y1201811D1*
X620781Y1210123D1*
X542852Y1210118D1*
X541872Y1208037D1*
X539930Y1204613D1*
X537676Y1201387D1*
X535130Y1198386D1*
X532314Y1195637D1*
X529253Y1193163D1*
X525974Y1190987D1*
X522505Y1189128D1*
X518877Y1187602D1*
X515123Y1186423D1*
X511274Y1185600D1*
X507365Y1185142D1*
X504436Y1185039D1*
X493431Y1185051D1*
X489505Y1185330D1*
X485623Y1185975D1*
X481818Y1186981D1*
X478124Y1188339D1*
X474573Y1190037D1*
X471198Y1192060D1*
X468026Y1194390D1*
X465087Y1197008D1*
X462406Y1199889D1*
X460006Y1203008D1*
X457910Y1206339D1*
X456134Y1209851D1*
X454696Y1213514D1*
X453606Y1217296D1*
X452876Y1221163D1*
X452511Y1225082D1*
X452515Y1229017D1*
X452888Y1232935D1*
X453626Y1236801D1*
X454723Y1240581D1*
X456169Y1244241D1*
X457951Y1247750D1*
X460054Y1251076D1*
X462460Y1254191D1*
X465147Y1257067D1*
X468091Y1259678D1*
X471267Y1262002D1*
X474647Y1264018D1*
X478201Y1265709D1*
X481898Y1267060D1*
X485704Y1268058D1*
X489588Y1268695D1*
X493514Y1268966D1*
X505483Y1268963D1*
X509408Y1268681D1*
X513290Y1268032D1*
X517093Y1267022D1*
X520786Y1265660D1*
X524335Y1263959D1*
X527709Y1261933D1*
X530878Y1259599D1*
X533814Y1256979D1*
X536492Y1254095D1*
X538889Y1250973D1*
X540982Y1247641D1*
X542754Y1244127D1*
X542852Y1243893D1*
X627782Y1243898D1*
X629107Y1243846D1*
X630424Y1243690D1*
X631725Y1243431D1*
X633001Y1243071D1*
X634246Y1242612D1*
X635450Y1242057D1*
X636607Y1241409D1*
X637710Y1240672D1*
X638751Y1239851D1*
X641117Y1237559D1*
X652106Y1226570D1*
X801178Y1226575D1*
X717633Y1310122D1*
X542861Y1310118D1*
X541872Y1308037D1*
X539930Y1304613D1*
X537676Y1301387D1*
X535130Y1298386D1*
X532314Y1295637D1*
X529253Y1293163D1*
X525974Y1290987D1*
X522505Y1289128D1*
X518877Y1287602D1*
X515123Y1286423D1*
X511274Y1285600D1*
X507365Y1285142D1*
X504436Y1285039D1*
X493431Y1285051D1*
X489505Y1285330D1*
X485623Y1285975D1*
X481818Y1286981D1*
X478124Y1288339D1*
X474573Y1290037D1*
X471198Y1292060D1*
X468026Y1294390D1*
X465087Y1297008D1*
X462406Y1299889D1*
X460006Y1303008D1*
X457910Y1306339D1*
X456134Y1309851D1*
X454696Y1313514D1*
X453606Y1317296D1*
X452876Y1321163D1*
X452511Y1325082D1*
X452515Y1329017D1*
X452888Y1332935D1*
X453626Y1336801D1*
X454723Y1340581D1*
X456169Y1344241D1*
X457951Y1347750D1*
X460054Y1351076D1*
X462460Y1354191D1*
X465147Y1357067D1*
X468091Y1359678D1*
X471267Y1362002D1*
X474647Y1364018D1*
X478201Y1365709D1*
X481898Y1367060D1*
X485704Y1368058D1*
X489588Y1368695D1*
X493514Y1368966D1*
X505483Y1368963D1*
X509408Y1368681D1*
X513290Y1368032D1*
X517093Y1367022D1*
X520786Y1365660D1*
X524335Y1363959D1*
X527709Y1361933D1*
X530878Y1359599D1*
X533814Y1356979D1*
X536492Y1354095D1*
X538889Y1350973D1*
X540982Y1347641D1*
X542754Y1344127D1*
X542852Y1343893D1*
X724633Y1343898D1*
X725958Y1343846D1*
X727275Y1343690D1*
X728575Y1343431D1*
X729852Y1343071D1*
X731096Y1342612D1*
X732300Y1342057D1*
X733458Y1341409D1*
X734560Y1340672D1*
X735602Y1339851D1*
X737967Y1337559D1*
X880451Y1195075D1*
X1031816Y1195079D1*
X1062296Y1225565D1*
X1063270Y1226465D1*
X1064311Y1227286D1*
X1065414Y1228023D1*
X1066571Y1228671D1*
X1067775Y1229226D1*
X1069020Y1229685D1*
X1070296Y1230045D1*
X1071597Y1230304D1*
X1072914Y1230460D1*
X1076207Y1230512D1*
X1081951D1*
X1081956Y1235433D1*
X1176759D1*
Y1016614D1*
X1097965D1*
X1083253Y1001900D1*
X1083255Y957717D1*
X1083203Y956391D1*
X1083047Y955074D1*
X1082788Y953774D1*
X1082428Y952497D1*
X1081969Y951253D1*
X1081414Y950049D1*
X1080766Y948892D1*
X1080029Y947789D1*
X1079208Y946748D1*
X1076916Y944382D1*
X1046812Y914278D1*
X1045838Y913377D1*
X1044796Y912556D1*
X1043694Y911820D1*
X1042537Y911172D1*
X1041332Y910616D1*
X1040088Y910157D1*
X1038812Y909797D1*
X1037511Y909539D1*
X1036189Y909383D1*
X1035026Y908661D1*
Y884724D1*
X959908D1*
Y967716D1*
X961877D1*
X1707940Y1330905D2*
X1715083D1*
X1717114Y1331559D1*
X1718969Y1331853D1*
X1723845Y1331890D1*
X1768621D1*
X1839827Y1438698D1*
X1839830Y1448819D1*
X1848588D1*
X1850068Y1449414D1*
X1851894Y1449853D1*
X1853766Y1450000D1*
X1855639Y1449853D1*
X1857465Y1449414D1*
X1858350Y1449088D1*
X1859515Y1448819D1*
X1962192D1*
Y1188661D1*
X1881475D1*
X1881483Y1165355D1*
X1962192Y1165354D1*
Y905197D1*
X1861406D1*
X1860020Y904205D1*
X1858347Y903352D1*
X1856560Y902772D1*
X1854705Y902478D1*
X1852827D1*
X1850972Y902772D1*
X1849186Y903352D1*
X1847513Y904205D1*
X1846050Y905197D1*
X1839830D1*
Y913740D1*
X1768623Y1020548D1*
X1718969Y1020588D1*
X1717114Y1020882D1*
X1714029Y1021910D1*
X1710676Y1023108D1*
X1705971Y1023110D1*
Y1024794D1*
X1660765Y1040933D1*
X1659051Y1041702D1*
X1657479Y1042729D1*
X1656086Y1043989D1*
X1654906Y1045455D1*
X1651914Y1050224D1*
X1582113Y1119961D1*
X1405109D1*
X1405105Y1118976D1*
X1310302D1*
Y1235433D1*
X1405105D1*
Y1234456D1*
X1580214Y1234449D1*
X1651455Y1305697D1*
X1652542Y1306702D1*
X1653705Y1307619D1*
X1654937Y1308442D1*
X1656229Y1309165D1*
X1657579Y1309787D1*
X1659051Y1310739D1*
X1660765Y1311507D1*
X1705973Y1327653D1*
X1705971Y1330905D1*
X1707940D1*
X2337388Y1481009D2*
Y1472520D1*
X2250459D1*
Y1473312D1*
X2151172Y1473307D1*
X2151168Y1472126D1*
X2028806D1*
Y1732283D1*
X2151168D1*
Y1727862D1*
X2637987Y1666535D1*
X2862579Y1666499D1*
X2864434Y1666205D1*
X2866221Y1665625D1*
X2867894Y1664772D1*
X2869413Y1663668D1*
X2870741Y1662340D1*
X2871845Y1660821D1*
X2872698Y1659147D1*
X2873278Y1657361D1*
X2873572Y1655506D1*
X2873609Y1650630D1*
X2873572Y1476463D1*
X2873278Y1474608D1*
X2872698Y1472821D1*
X2871845Y1471148D1*
X2870741Y1469629D1*
X2869413Y1468301D1*
X2867894Y1467197D1*
X2866221Y1466344D1*
X2864434Y1465764D1*
X2862579Y1465470D1*
X2857703Y1465433D1*
X2636318Y1465468D1*
X2634463Y1465758D1*
X2632675Y1466334D1*
X2631000Y1467183D1*
X2472456Y1563856D1*
X2350852Y1563858D1*
X2338180Y1551188D1*
X2338139Y1484337D1*
X2337845Y1482482D1*
X2337589Y1481574D1*
X2252428Y1448425D2*
X2337388D1*
Y1438360D1*
X2337845Y1436889D1*
X2338139Y1435034D1*
X2338176Y1430157D1*
Y1368188D1*
X2350846Y1355516D1*
X2472453Y1355512D1*
X2631821Y1452645D1*
X2633558Y1453359D1*
X2635385Y1453794D1*
X2636322Y1453902D1*
X2651010Y1453937D1*
X2862579Y1453900D1*
X2864434Y1453606D1*
X2866221Y1453026D1*
X2867894Y1452173D1*
X2869413Y1451069D1*
X2870741Y1449741D1*
X2871845Y1448222D1*
X2872698Y1446549D1*
X2873278Y1444763D1*
X2873572Y1442908D1*
X2873609Y1438031D1*
X2873572Y1263864D1*
X2873278Y1262009D1*
X2872698Y1260223D1*
X2871845Y1258550D1*
X2870741Y1257030D1*
X2869413Y1255702D1*
X2867894Y1254598D1*
X2866221Y1253746D1*
X2864434Y1253165D1*
X2862579Y1252871D1*
X2857703Y1252835D1*
X2637977D1*
X2151170Y1191504D1*
X2151168Y1188661D1*
X2028806D1*
Y1448819D1*
X2151168D1*
Y1446058D1*
X2250458Y1446063D1*
X2250459Y1448425D1*
X2252428D1*
Y881496D2*
X2337388D1*
Y871431D1*
X2337845Y869959D1*
X2338139Y868104D1*
X2338176Y863228D1*
Y801259D1*
X2350846Y788586D1*
X2472453Y788583D1*
X2631821Y885715D1*
X2633558Y886430D1*
X2635385Y886865D1*
X2636322Y886973D1*
X2651010Y887008D1*
X2862579Y886971D1*
X2864434Y886677D1*
X2866221Y886097D1*
X2867894Y885244D1*
X2869413Y884140D1*
X2870741Y882812D1*
X2871845Y881293D1*
X2872698Y879620D1*
X2873278Y877833D1*
X2873572Y875978D1*
X2873609Y871102D1*
X2873572Y696935D1*
X2873278Y695080D1*
X2872698Y693294D1*
X2871845Y691620D1*
X2870741Y690101D1*
X2869413Y688773D1*
X2867894Y687669D1*
X2866221Y686817D1*
X2864434Y686236D1*
X2862579Y685942D1*
X2857703Y685905D1*
X2637977D1*
X2151170Y624575D1*
X2151168Y621732D1*
X2028806D1*
Y881889D1*
X2151168D1*
Y879129D1*
X2250458Y879134D1*
X2250459Y881496D1*
X2252428D1*
X2337388Y914079D2*
Y905591D1*
X2250459D1*
Y906383D1*
X2151172Y906378D1*
X2151168Y905197D1*
X2028806D1*
Y1165354D1*
X2151168D1*
Y1160933D1*
X2637987Y1099606D1*
X2862579Y1099570D1*
X2864434Y1099276D1*
X2866221Y1098695D1*
X2867894Y1097843D1*
X2869413Y1096739D1*
X2870741Y1095411D1*
X2871845Y1093891D1*
X2872698Y1092218D1*
X2873278Y1090432D1*
X2873572Y1088577D1*
X2873609Y1083701D1*
X2873572Y909533D1*
X2873278Y907678D1*
X2872698Y905892D1*
X2871845Y904219D1*
X2870741Y902699D1*
X2869413Y901371D1*
X2867894Y900267D1*
X2866221Y899415D1*
X2864434Y898834D1*
X2862579Y898541D1*
X2857703Y898504D1*
X2636292Y898541D1*
X2634437Y898834D1*
X2632651Y899415D1*
X2630974Y900270D1*
X2472456Y996927D1*
X2350852Y996929D1*
X2338180Y984259D1*
X2338139Y917407D1*
X2337845Y915552D1*
X2337589Y914645D1*
X2896792Y550236D2*
X2896640Y546303D1*
X2896337Y542377D1*
X2895883Y538467D1*
X2895278Y534577D1*
X2894523Y530713D1*
X2893621Y526881D1*
X2892571Y523087D1*
X2891376Y519336D1*
X2890037Y515634D1*
X2888556Y511986D1*
X2886936Y508398D1*
X2885179Y504876D1*
X2883287Y501423D1*
X2881263Y498046D1*
X2879111Y494750D1*
X2876833Y491539D1*
X2874434Y488418D1*
X2871915Y485392D1*
X2869282Y482466D1*
X2866538Y479643D1*
X2863688Y476928D1*
X2860734Y474325D1*
X2857683Y471837D1*
X2854538Y469469D1*
X2851304Y467224D1*
X2847986Y465106D1*
X2844588Y463117D1*
X2841117Y461260D1*
X2837576Y459539D1*
X2833972Y457955D1*
X2830310Y456512D1*
X2826594Y455211D1*
X2822831Y454054D1*
X2819026Y453043D1*
X2815186Y452179D1*
X2811314Y451464D1*
X2807418Y450899D1*
X2803503Y450484D1*
X2799576Y450221D1*
X2795640Y450109D1*
X2791704Y450149D1*
X2787772Y450341D1*
X2783850Y450684D1*
X2779944Y451179D1*
X2776061Y451823D1*
X2772205Y452617D1*
X2768382Y453558D1*
X2764599Y454647D1*
X2760860Y455880D1*
X2757172Y457257D1*
X2753540Y458774D1*
X2749968Y460431D1*
X2746464Y462224D1*
X2743031Y464151D1*
X2739675Y466209D1*
X2736400Y468394D1*
X2733213Y470705D1*
X2730117Y473136D1*
X2727116Y475685D1*
X2724217Y478348D1*
X2721422Y481120D1*
X2718736Y483998D1*
X2716163Y486978D1*
X2713707Y490055D1*
X2711371Y493224D1*
X2709159Y496480D1*
X2707075Y499820D1*
X2705120Y503237D1*
X2703299Y506727D1*
X2701614Y510285D1*
X2700067Y513905D1*
X2698661Y517582D1*
X2697398Y521311D1*
X2696279Y525085D1*
X2695307Y528900D1*
X2694482Y532750D1*
X2693807Y536628D1*
X2693281Y540530D1*
X2692907Y544449D1*
X2692683Y548379D1*
X2692612Y552315D1*
X2692692Y556251D1*
X2692924Y560181D1*
X2693307Y564099D1*
X2693841Y567999D1*
X2694525Y571876D1*
X2695357Y575724D1*
X2696338Y579537D1*
X2697465Y583309D1*
X2698736Y587035D1*
X2700150Y590709D1*
X2701705Y594325D1*
X2703398Y597880D1*
X2705226Y601366D1*
X2707188Y604779D1*
X2709280Y608114D1*
X2711499Y611366D1*
X2713841Y614530D1*
X2716304Y617601D1*
X2718884Y620575D1*
X2721576Y623448D1*
X2724377Y626214D1*
X2727282Y628870D1*
X2730288Y631413D1*
X2733389Y633838D1*
X2736582Y636141D1*
X2739861Y638320D1*
X2743221Y640370D1*
X2746658Y642290D1*
X2750167Y644075D1*
X2753742Y645724D1*
X2757377Y647234D1*
X2761069Y648602D1*
X2764810Y649828D1*
X2768596Y650908D1*
X2772420Y651841D1*
X2776278Y652627D1*
X2780163Y653263D1*
X2784069Y653748D1*
X2787992Y654083D1*
X2791924Y654266D1*
X2795861Y654298D1*
X2799796Y654178D1*
X2803723Y653906D1*
X2807637Y653483D1*
X2811532Y652909D1*
X2815402Y652186D1*
X2819241Y651314D1*
X2823043Y650295D1*
X2826804Y649130D1*
X2830516Y647820D1*
X2834176Y646369D1*
X2837777Y644778D1*
X2841313Y643049D1*
X2844781Y641184D1*
X2848174Y639188D1*
X2851487Y637062D1*
X2854717Y634811D1*
X2857856Y632436D1*
X2860902Y629942D1*
X2863850Y627332D1*
X2866695Y624611D1*
X2869433Y621782D1*
X2872060Y618850D1*
X2874571Y615819D1*
X2876964Y612693D1*
X2879235Y609477D1*
X2881380Y606176D1*
X2883396Y602795D1*
X2885281Y599338D1*
X2887030Y595812D1*
X2888643Y592220D1*
X2890116Y588569D1*
X2891447Y584864D1*
X2892634Y581111D1*
X2893675Y577314D1*
X2894570Y573480D1*
X2895316Y569615D1*
X2895912Y565724D1*
X2896358Y561812D1*
X2896653Y557887D1*
X2896796Y553952D1*
X2896792Y550236D1*
Y1810079D2*
X2896640Y1806145D1*
X2896337Y1802220D1*
X2895883Y1798310D1*
X2895278Y1794419D1*
X2894523Y1790556D1*
X2893621Y1786724D1*
X2892571Y1782930D1*
X2891376Y1779179D1*
X2890037Y1775477D1*
X2888556Y1771829D1*
X2886936Y1768241D1*
X2885179Y1764718D1*
X2883287Y1761266D1*
X2881263Y1757889D1*
X2879111Y1754593D1*
X2876833Y1751382D1*
X2874434Y1748261D1*
X2871915Y1745235D1*
X2869282Y1742308D1*
X2866538Y1739485D1*
X2863688Y1736770D1*
X2860734Y1734167D1*
X2857683Y1731680D1*
X2854538Y1729312D1*
X2851304Y1727067D1*
X2847986Y1724948D1*
X2844588Y1722959D1*
X2841117Y1721103D1*
X2837576Y1719382D1*
X2833972Y1717798D1*
X2830310Y1716354D1*
X2826594Y1715053D1*
X2822831Y1713896D1*
X2819026Y1712885D1*
X2815186Y1712021D1*
X2811314Y1711307D1*
X2807418Y1710741D1*
X2803503Y1710327D1*
X2799576Y1710063D1*
X2795640Y1709952D1*
X2791704Y1709992D1*
X2787772Y1710184D1*
X2783850Y1710527D1*
X2779944Y1711021D1*
X2776061Y1711665D1*
X2772205Y1712459D1*
X2768382Y1713401D1*
X2764599Y1714489D1*
X2760860Y1715722D1*
X2757172Y1717099D1*
X2753540Y1718617D1*
X2749968Y1720273D1*
X2746464Y1722067D1*
X2743031Y1723993D1*
X2739675Y1726051D1*
X2736400Y1728237D1*
X2733213Y1730547D1*
X2730117Y1732978D1*
X2727116Y1735527D1*
X2724217Y1738190D1*
X2721422Y1740963D1*
X2718736Y1743841D1*
X2716163Y1746821D1*
X2713707Y1749897D1*
X2711371Y1753066D1*
X2709159Y1756323D1*
X2707075Y1759662D1*
X2705120Y1763080D1*
X2703299Y1766570D1*
X2701614Y1770128D1*
X2700067Y1773748D1*
X2698661Y1777425D1*
X2697398Y1781154D1*
X2696279Y1784928D1*
X2695307Y1788743D1*
X2694482Y1792592D1*
X2693807Y1796471D1*
X2693281Y1800372D1*
X2692907Y1804291D1*
X2692683Y1808221D1*
X2692612Y1812158D1*
X2692692Y1816094D1*
X2692924Y1820023D1*
X2693307Y1823942D1*
X2693841Y1827842D1*
X2694525Y1831719D1*
X2695357Y1835567D1*
X2696338Y1839379D1*
X2697465Y1843151D1*
X2698736Y1846877D1*
X2700150Y1850551D1*
X2701705Y1854168D1*
X2703398Y1857722D1*
X2705226Y1861208D1*
X2707188Y1864622D1*
X2709280Y1867957D1*
X2711499Y1871208D1*
X2713841Y1874372D1*
X2716304Y1877444D1*
X2718884Y1880418D1*
X2721576Y1883290D1*
X2724377Y1886057D1*
X2727282Y1888713D1*
X2730288Y1891255D1*
X2733389Y1893680D1*
X2736582Y1895984D1*
X2739861Y1898162D1*
X2743221Y1900213D1*
X2746658Y1902132D1*
X2750167Y1903918D1*
X2753742Y1905566D1*
X2757377Y1907076D1*
X2761069Y1908445D1*
X2764810Y1909670D1*
X2768596Y1910750D1*
X2772420Y1911684D1*
X2776278Y1912469D1*
X2780163Y1913105D1*
X2784069Y1913591D1*
X2787992Y1913926D1*
X2791924Y1914109D1*
X2795861Y1914141D1*
X2799796Y1914020D1*
X2803723Y1913748D1*
X2807637Y1913325D1*
X2811532Y1912752D1*
X2815402Y1912029D1*
X2819241Y1911157D1*
X2823043Y1910137D1*
X2826804Y1908972D1*
X2830516Y1907663D1*
X2834176Y1906211D1*
X2837777Y1904620D1*
X2841313Y1902891D1*
X2844781Y1901027D1*
X2848174Y1899031D1*
X2851487Y1896905D1*
X2854717Y1894653D1*
X2857856Y1892278D1*
X2860902Y1889785D1*
X2863850Y1887175D1*
X2866695Y1884454D1*
X2869433Y1881625D1*
X2872060Y1878693D1*
X2874571Y1875661D1*
X2876964Y1872535D1*
X2879235Y1869319D1*
X2881380Y1866018D1*
X2883396Y1862637D1*
X2885281Y1859181D1*
X2887030Y1855654D1*
X2888643Y1852063D1*
X2890116Y1848412D1*
X2891447Y1844707D1*
X2892634Y1840953D1*
X2893675Y1837157D1*
X2894570Y1833323D1*
X2895316Y1829458D1*
X2895912Y1825566D1*
X2896358Y1821655D1*
X2896653Y1817729D1*
X2896796Y1813795D1*
X2896792Y1810079D1*
X652698Y550236D2*
X652546Y546303D1*
X652242Y542377D1*
X651788Y538467D1*
X651183Y534577D1*
X650429Y530713D1*
X649526Y526881D1*
X648476Y523087D1*
X647281Y519336D1*
X645942Y515634D1*
X644462Y511986D1*
X642841Y508398D1*
X641084Y504876D1*
X639192Y501423D1*
X637169Y498046D1*
X635017Y494750D1*
X632739Y491539D1*
X630339Y488418D1*
X627821Y485392D1*
X625188Y482466D1*
X622444Y479643D1*
X619593Y476928D1*
X616640Y474325D1*
X613588Y471837D1*
X610443Y469469D1*
X607209Y467224D1*
X603891Y465106D1*
X600494Y463117D1*
X597022Y461260D1*
X593482Y459539D1*
X589878Y457955D1*
X586215Y456512D1*
X582500Y455211D1*
X578737Y454054D1*
X574932Y453043D1*
X571091Y452179D1*
X567220Y451464D1*
X563324Y450899D1*
X559409Y450484D1*
X555481Y450221D1*
X551546Y450109D1*
X547609Y450149D1*
X543677Y450341D1*
X539755Y450684D1*
X535850Y451179D1*
X531966Y451823D1*
X528110Y452617D1*
X524288Y453558D1*
X520504Y454647D1*
X516766Y455880D1*
X513078Y457257D1*
X509445Y458774D1*
X505874Y460431D1*
X502369Y462224D1*
X498936Y464151D1*
X495580Y466209D1*
X492306Y468394D1*
X489118Y470705D1*
X486022Y473136D1*
X483022Y475685D1*
X480122Y478348D1*
X477327Y481120D1*
X474641Y483998D1*
X472069Y486978D1*
X469612Y490055D1*
X467277Y493224D1*
X465065Y496480D1*
X462980Y499820D1*
X461026Y503237D1*
X459205Y506727D1*
X457519Y510285D1*
X455973Y513905D1*
X454567Y517582D1*
X453303Y521311D1*
X452185Y525085D1*
X451212Y528900D1*
X450388Y532750D1*
X449712Y536628D1*
X449187Y540530D1*
X448812Y544449D1*
X448589Y548379D1*
X448517Y552315D1*
X448597Y556251D1*
X448829Y560181D1*
X449212Y564099D1*
X449746Y567999D1*
X450430Y571876D1*
X451263Y575724D1*
X452243Y579537D1*
X453370Y583309D1*
X454642Y587035D1*
X456056Y590709D1*
X457610Y594325D1*
X459303Y597880D1*
X461132Y601366D1*
X463094Y604779D1*
X465185Y608114D1*
X467404Y611366D1*
X469747Y614530D1*
X472210Y617601D1*
X474789Y620575D1*
X477481Y623448D1*
X480282Y626214D1*
X483187Y628870D1*
X486193Y631413D1*
X489295Y633838D1*
X492487Y636141D1*
X495766Y638320D1*
X499127Y640370D1*
X502564Y642290D1*
X506072Y644075D1*
X509647Y645724D1*
X513283Y647234D1*
X516974Y648602D1*
X520715Y649828D1*
X524501Y650908D1*
X528326Y651841D1*
X532183Y652627D1*
X536068Y653263D1*
X539975Y653748D1*
X543897Y654083D1*
X547830Y654266D1*
X551767Y654298D1*
X555701Y654178D1*
X559629Y653906D1*
X563543Y653483D1*
X567438Y652909D1*
X571307Y652186D1*
X575146Y651314D1*
X578949Y650295D1*
X582709Y649130D1*
X586422Y647820D1*
X590081Y646369D1*
X593682Y644778D1*
X597219Y643049D1*
X600686Y641184D1*
X604079Y639188D1*
X607393Y637062D1*
X610622Y634811D1*
X613762Y632436D1*
X616808Y629942D1*
X619756Y627332D1*
X622600Y624611D1*
X625338Y621782D1*
X627965Y618850D1*
X630477Y615819D1*
X632870Y612693D1*
X635141Y609477D1*
X637286Y606176D1*
X639302Y602795D1*
X641186Y599338D1*
X642936Y595812D1*
X644548Y592220D1*
X646021Y588569D1*
X647352Y584864D1*
X648539Y581111D1*
X649581Y577314D1*
X650475Y573480D1*
X651221Y569615D1*
X651818Y565724D1*
X652263Y561812D1*
X652558Y557887D1*
X652702Y553952D1*
X652698Y550236D1*
Y1810079D2*
X652546Y1806145D1*
X652242Y1802220D1*
X651788Y1798310D1*
X651183Y1794419D1*
X650429Y1790556D1*
X649526Y1786724D1*
X648476Y1782930D1*
X647281Y1779179D1*
X645942Y1775477D1*
X644462Y1771829D1*
X642841Y1768241D1*
X641084Y1764718D1*
X639192Y1761266D1*
X637169Y1757889D1*
X635017Y1754593D1*
X632739Y1751382D1*
X630339Y1748261D1*
X627821Y1745235D1*
X625188Y1742308D1*
X622444Y1739485D1*
X619593Y1736770D1*
X616640Y1734167D1*
X613588Y1731680D1*
X610443Y1729312D1*
X607209Y1727067D1*
X603891Y1724948D1*
X600494Y1722959D1*
X597022Y1721103D1*
X593482Y1719382D1*
X589878Y1717798D1*
X586215Y1716354D1*
X582500Y1715053D1*
X578737Y1713896D1*
X574932Y1712885D1*
X571091Y1712021D1*
X567220Y1711307D1*
X563324Y1710741D1*
X559409Y1710327D1*
X555481Y1710063D1*
X551546Y1709952D1*
X547609Y1709992D1*
X543677Y1710184D1*
X539755Y1710527D1*
X535850Y1711021D1*
X531966Y1711665D1*
X528110Y1712459D1*
X524288Y1713401D1*
X520504Y1714489D1*
X516766Y1715722D1*
X513078Y1717099D1*
X509445Y1718617D1*
X505874Y1720273D1*
X502369Y1722067D1*
X498936Y1723993D1*
X495580Y1726051D1*
X492306Y1728237D1*
X489118Y1730547D1*
X486022Y1732978D1*
X483022Y1735527D1*
X480122Y1738190D1*
X477327Y1740963D1*
X474641Y1743841D1*
X472069Y1746821D1*
X469612Y1749897D1*
X467277Y1753066D1*
X465065Y1756323D1*
X462980Y1759662D1*
X461026Y1763080D1*
X459205Y1766570D1*
X457519Y1770128D1*
X455973Y1773748D1*
X454567Y1777425D1*
X453303Y1781154D1*
X452185Y1784928D1*
X451212Y1788743D1*
X450388Y1792592D1*
X449712Y1796471D1*
X449187Y1800372D1*
X448812Y1804291D1*
X448589Y1808221D1*
X448517Y1812158D1*
X448597Y1816094D1*
X448829Y1820023D1*
X449212Y1823942D1*
X449746Y1827842D1*
X450430Y1831719D1*
X451263Y1835567D1*
X452243Y1839379D1*
X453370Y1843151D1*
X454642Y1846877D1*
X456056Y1850551D1*
X457610Y1854168D1*
X459303Y1857722D1*
X461132Y1861208D1*
X463094Y1864622D1*
X465185Y1867957D1*
X467404Y1871208D1*
X469747Y1874372D1*
X472210Y1877444D1*
X474789Y1880418D1*
X477481Y1883290D1*
X480282Y1886057D1*
X483187Y1888713D1*
X486193Y1891255D1*
X489295Y1893680D1*
X492487Y1895984D1*
X495766Y1898162D1*
X499127Y1900213D1*
X502564Y1902132D1*
X506072Y1903918D1*
X509647Y1905566D1*
X513283Y1907076D1*
X516974Y1908445D1*
X520715Y1909670D1*
X524501Y1910750D1*
X528326Y1911684D1*
X532183Y1912469D1*
X536068Y1913105D1*
X539975Y1913591D1*
X543897Y1913926D1*
X547830Y1914109D1*
X551767Y1914141D1*
X555701Y1914020D1*
X559629Y1913748D1*
X563543Y1913325D1*
X567438Y1912752D1*
X571307Y1912029D1*
X575146Y1911157D1*
X578949Y1910137D1*
X582709Y1908972D1*
X586422Y1907663D1*
X590081Y1906211D1*
X593682Y1904620D1*
X597219Y1902891D1*
X600686Y1901027D1*
X604079Y1899031D1*
X607393Y1896905D1*
X610622Y1894653D1*
X613762Y1892278D1*
X616808Y1889785D1*
X619756Y1887175D1*
X622600Y1884454D1*
X625338Y1881625D1*
X627965Y1878693D1*
X630477Y1875661D1*
X632870Y1872535D1*
X635141Y1869319D1*
X637286Y1866018D1*
X639302Y1862637D1*
X641186Y1859181D1*
X642936Y1855654D1*
X644548Y1852063D1*
X646021Y1848412D1*
X647352Y1844707D1*
X648539Y1840953D1*
X649581Y1837157D1*
X650475Y1833323D1*
X651221Y1829458D1*
X651818Y1825566D1*
X652263Y1821655D1*
X652558Y1817729D1*
X652702Y1813795D1*
X652698Y1810079D1*
X2925728Y485440D2*
X2926102Y493096D1*
Y1869729D1*
X2925728Y1877396D1*
X2924701Y1884323D1*
X2922978Y1891156D1*
X2920639Y1897742D1*
X2917647Y1904043D1*
X2914050Y1910065D1*
X2909838Y1915710D1*
X2905128Y1920936D1*
X2899957Y1925624D1*
X2894330Y1929793D1*
X2888302Y1933391D1*
X2882001Y1936385D1*
X2875406Y1938726D1*
X2868573Y1940449D1*
X2861648Y1941476D1*
X2853990Y1941850D1*
X492187Y1941807D1*
X485444Y1941476D1*
X478512Y1940449D1*
X471678Y1938726D1*
X465093Y1936387D1*
X458791Y1933395D1*
X452737Y1929778D1*
X447124Y1925620D1*
X441928Y1920908D1*
X437212Y1915707D1*
X433061Y1910105D1*
X429438Y1904039D1*
X426450Y1897749D1*
X424109Y1891154D1*
X422386Y1884321D1*
X421334Y1876881D1*
X420984Y1869732D1*
Y493105D1*
X421359Y485437D1*
X422386Y478512D1*
X424109Y471678D1*
X426447Y465093D1*
X429440Y458791D1*
X433056Y452736D1*
X437217Y447122D1*
X441918Y441937D1*
X447127Y437213D1*
X452738Y433055D1*
X458795Y429438D1*
X465086Y426450D1*
X471680Y424109D1*
X478514Y422386D1*
X485442Y421359D1*
X493091Y420984D1*
X2853984D1*
X2861649Y421359D1*
X2868575Y422386D1*
X2875408Y424109D1*
X2881994Y426447D1*
X2888298Y429441D1*
X2894333Y433043D1*
X2899961Y437213D1*
X2905419Y442223D1*
X2909882Y447138D1*
X2914032Y452739D1*
X2917649Y458795D1*
X2920637Y465086D1*
X2922978Y471680D1*
X2924701Y478514D1*
X2925728Y485438D1*
D17*
X914003Y534488D3*
Y703780D3*
D18*
X1358885Y699843D3*
X1469121D3*
D19*
X1360853Y817953D3*
X1471089D3*
D20*
X1364790Y912441D3*
X1439593D3*
D17*
X915971Y1819921D3*
Y1650630D3*
D18*
X1360853Y1654567D3*
X1471089D3*
D19*
X1360853Y1536457D3*
X1471089D3*
D20*
X1364790Y1441969D3*
X1439593D3*
D19*
X893136Y1516772D3*
X1003373D3*
D20*
X922664Y1422283D3*
X997467D3*
Y1245118D3*
X922664D3*
Y926220D3*
X997467D3*
X1566365Y1323858D3*
X1491562D3*
D21*
X1747467Y1218543D3*
Y1293346D3*
D20*
X1566365Y1030551D3*
X1491562D3*
D21*
X1747467Y1135472D3*
Y1060669D3*
D19*
X2404160Y1519921D3*
X2293924D3*
X2404160Y1401024D3*
X2293924D3*
X2404160Y834094D3*
X2293924D3*
X2404160Y952992D3*
X2293924D3*
D22*
X497467Y1027008D3*
Y927008D3*
Y827008D3*
Y727008D3*
X499436Y1227008D3*
Y1327008D3*
Y1127008D3*
Y1527008D3*
Y1627008D3*
Y1427008D3*
D23*
X2794711Y1362047D3*
Y1558898D3*
Y795118D3*
Y991969D3*
D24*
X1901010Y1602205D3*
X2089987D3*
X1901010Y1318740D3*
X2089987D3*
X1901010Y751811D3*
X2089987D3*
X1901010Y1035276D3*
X2089987D3*
D21*
X739593Y1071890D3*
Y997087D3*
X828176Y1071890D3*
Y997087D3*
D20*
X997467Y1333701D3*
X922664D3*
X997467Y1014803D3*
X922664D3*
D25*
X1129357Y1343543D3*
Y1317953D3*
Y1292362D3*
Y1266772D3*
Y1241181D3*
Y1215591D3*
Y1190000D3*
Y1164409D3*
Y1138819D3*
Y1113228D3*
Y1087638D3*
Y1062047D3*
Y1036457D3*
Y1010866D3*
X1357711D3*
X1357703Y1036457D3*
Y1062047D3*
Y1087638D3*
Y1113228D3*
Y1138819D3*
Y1164409D3*
Y1190000D3*
Y1215591D3*
Y1241181D3*
Y1266772D3*
Y1292362D3*
Y1317953D3*
Y1343543D3*
D26*
X1243534Y1177205D3*
M02*
