G04 DipTrace 3.1.0.1*
G04 TAS5805Mbis2.BottomSilk.gbr*
%MOIN*%
G04 #@! TF.FileFunction,Legend,Bot*
G04 #@! TF.Part,Single*
%ADD16C,0.007874*%
%FSLAX26Y26*%
G04*
G70*
G90*
G75*
G01*
G04 BotSilk*
%LPD*%
X2267673Y1122101D2*
D16*
X2278390Y1128558D1*
X2287151Y1136937D1*
X2293806Y1146836D1*
X2298207Y1157854D1*
X2300205Y1169588D1*
X2296680Y1184094D1*
X2299652Y1181635D2*
X2296398Y1193593D1*
X2290493Y1204732D1*
X2282550Y1213990D1*
X2272988Y1221177D1*
X2262207Y1226147D1*
X2250613Y1228751D1*
X2238605Y1228840D1*
X2226588Y1226265D1*
X2215114Y1220962D1*
X2205371Y1213480D1*
X2197660Y1204280D1*
X2192129Y1193761D1*
X2188928Y1182331D1*
X2188206Y1170387D1*
X2190110Y1158335D1*
X2193915Y1148290D1*
X2196581Y1143478D1*
X2199689Y1138975D1*
X2203210Y1134808D1*
X2207114Y1131008D1*
X2211375Y1127598D1*
X2215966Y1124609D1*
X2221268Y1121811D1*
X2221962Y1121005D1*
X2222268Y1120000D1*
X2222133Y1118928D1*
X2188098Y1035840D1*
X2187252Y1035156D1*
X2186205Y1034885D1*
X2185118Y1035077D1*
X2166257Y1042807D1*
X2164898Y1042640D1*
X2123717Y1014938D1*
X2122768Y1014790D1*
X2121836Y1014999D1*
X2121037Y1015542D1*
X2086472Y1050151D1*
X2086060Y1051025D1*
X2086001Y1051978D1*
X2086303Y1052902D1*
X2113811Y1093652D1*
X2114008Y1095009D1*
X2097003Y1136093D1*
X2095920Y1136932D1*
X2047209Y1146465D1*
X2046437Y1147035D1*
X2045929Y1147845D1*
X2045755Y1148791D1*
X2045787Y1197709D1*
X2046119Y1198615D1*
X2046755Y1199328D1*
X2047625Y1199764D1*
X2095887Y1209127D1*
X2096982Y1209950D1*
X2114004Y1251029D1*
X2113825Y1252387D1*
X2086122Y1293575D1*
X2085984Y1294525D1*
X2086203Y1295455D1*
X2086752Y1296245D1*
X2121367Y1330810D1*
X2122245Y1331211D1*
X2123198Y1331261D1*
X2124121Y1330949D1*
X2164865Y1303446D1*
X2166222Y1303260D1*
X2207303Y1320274D1*
X2208133Y1321365D1*
X2217671Y1370081D1*
X2218249Y1370848D1*
X2219064Y1371346D1*
X2220016Y1371512D1*
X2268929Y1371474D1*
X2269832Y1371131D1*
X2270538Y1370488D1*
X2270965Y1369613D1*
X2280328Y1321360D1*
X2281160Y1320272D1*
X2322241Y1303259D1*
X2323598Y1303449D1*
X2364795Y1331152D1*
X2365747Y1331280D1*
X2366675Y1331051D1*
X2367467Y1330484D1*
X2402020Y1295875D1*
X2402411Y1294993D1*
X2402450Y1294039D1*
X2402127Y1293119D1*
X2374631Y1252382D1*
X2374455Y1251024D1*
X2391480Y1209946D1*
X2392577Y1209125D1*
X2441301Y1199581D1*
X2442059Y1198996D1*
X2442550Y1198175D1*
X2442661Y1148307D1*
X2442310Y1147409D1*
X2441659Y1146711D1*
X2440778Y1146294D1*
X2392534Y1136930D1*
X2391453Y1136089D1*
X2374450Y1095004D1*
X2374650Y1093648D1*
X2402354Y1052444D1*
X2402471Y1051491D1*
X2402232Y1050566D1*
X2367045Y1015230D1*
X2366159Y1014849D1*
X2365205Y1014820D1*
X2364287Y1015154D1*
X2323556Y1042642D1*
X2322197Y1042807D1*
X2302923Y1034945D1*
X2301825Y1034938D1*
X2300840Y1035381D1*
X2300113Y1036211D1*
X2266199Y1119471D1*
X2266295Y1120526D1*
X2266804Y1121448D1*
X2267673Y1122101D1*
X2278248Y1128449D1*
X2286927Y1136671D1*
X2293563Y1146379D1*
X2298016Y1157192D1*
X2300144Y1168723D1*
X2299804Y1180585D1*
X2296856Y1192396D1*
X2291290Y1203531D1*
X2283686Y1212896D1*
X2274458Y1220269D1*
X2263991Y1225509D1*
X2252671Y1228475D1*
X2240881Y1229022D1*
X2229008Y1227010D1*
X2217487Y1222322D1*
X2207454Y1215382D1*
X2199362Y1206684D1*
X2193353Y1196610D1*
X2189568Y1185546D1*
X2188152Y1173878D1*
X2189244Y1161991D1*
X2192988Y1150269D1*
X2195643Y1145049D1*
X2198560Y1140504D1*
X2201888Y1136278D1*
X2205600Y1132395D1*
X2209668Y1128883D1*
X2214066Y1125769D1*
X2221495Y1121617D1*
X2222080Y1120757D1*
X2222277Y1119736D1*
X2221986Y1118558D1*
X2188235Y1036031D1*
X2187458Y1035274D1*
X2186458Y1034908D1*
X2185371Y1034988D1*
X2166133Y1042823D1*
X2164799Y1042597D1*
X2123643Y1014913D1*
X2122706Y1014793D1*
X2121790Y1015018D1*
X2121014Y1015564D1*
X2086486Y1050134D1*
X2086070Y1050992D1*
X2085996Y1051929D1*
X2086272Y1052845D1*
X2113902Y1093888D1*
X2113969Y1095238D1*
X2097098Y1135957D1*
X2096089Y1136856D1*
X2047521Y1146340D1*
X2046684Y1146801D1*
X2046081Y1147524D1*
X2045778Y1148428D1*
X2045795Y1197757D1*
X2046138Y1198644D1*
X2046772Y1199340D1*
X2047631Y1199765D1*
X2096161Y1209253D1*
X2097142Y1210184D1*
X2113986Y1250913D1*
X2113875Y1252260D1*
X2086220Y1293331D1*
X2085987Y1294255D1*
X2086101Y1295188D1*
X2086556Y1296030D1*
X2121467Y1330878D1*
X2122348Y1331234D1*
X2123289Y1331247D1*
X2124189Y1330907D1*
X2164874Y1303442D1*
X2166213Y1303259D1*
X2207251Y1320235D1*
X2208100Y1321286D1*
X2217593Y1369907D1*
X2218105Y1370706D1*
X2218865Y1371261D1*
X2219794Y1371505D1*
X2269118Y1371433D1*
X2269978Y1371035D1*
X2270630Y1370357D1*
X2270999Y1369463D1*
X2280350Y1321304D1*
X2281193Y1320247D1*
X2322227Y1303261D1*
X2323567Y1303434D1*
X2364682Y1331112D1*
X2365614Y1331283D1*
X2366539Y1331109D1*
X2367354Y1330594D1*
X2402159Y1295651D1*
X2402454Y1294753D1*
X2402406Y1293812D1*
X2402017Y1292946D1*
X2374591Y1252280D1*
X2374470Y1250933D1*
X2391501Y1209919D1*
X2392591Y1209119D1*
X2441256Y1199604D1*
X2442017Y1199042D1*
X2442522Y1198247D1*
X2442705Y1197295D1*
X2442685Y1148457D1*
X2442391Y1147547D1*
X2441797Y1146819D1*
X2440965Y1146349D1*
X2392387Y1136865D1*
X2391371Y1135974D1*
X2374441Y1094919D1*
X2374677Y1093588D1*
X2402361Y1052423D1*
X2402471Y1051484D1*
X2402235Y1050572D1*
X2367109Y1015274D1*
X2366247Y1014870D1*
X2365308Y1014806D1*
X2364395Y1015092D1*
X2323358Y1042714D1*
X2322008Y1042770D1*
X2303117Y1034997D1*
X2302024Y1034906D1*
X2301018Y1035262D1*
X2300238Y1036008D1*
X2266252Y1119175D1*
X2266222Y1120228D1*
X2266609Y1121189D1*
X2267360Y1121930D1*
X2267673Y1122101D1*
M02*
