G04 DipTrace 3.1.0.1*
G04 TAS5805Mbis2.Bottom.gbr*
%MOIN*%
G04 #@! TF.FileFunction,Copper,L2,Bot*
G04 #@! TF.Part,Single*
G04 #@! TA.AperFunction,Conductor*
%ADD10C,0.009843*%
G04 #@! TA.AperFunction,CopperBalancing*
%ADD15C,0.003937*%
G04 #@! TA.AperFunction,ComponentPad*
%ADD22O,0.07X0.06*%
%ADD23C,0.094488*%
G04 #@! TA.AperFunction,ViaPad*
%ADD27C,0.031496*%
%ADD29C,0.023622*%
%ADD31C,0.027559*%
%FSLAX26Y26*%
G04*
G70*
G90*
G75*
G01*
G04 Bottom*
%LPD*%
X806522Y922283D2*
D10*
X1058491Y1174252D1*
Y1292362D1*
X1062428Y1296299D1*
X798648Y1540394D2*
X1078176D1*
X798648Y1461654D2*
Y1123071D1*
X676601Y1001024D1*
X1078176Y1540394D2*
Y1501024D1*
Y1461654D1*
X1243530Y1249055D2*
Y1296299D1*
Y1343543D1*
X1290774D1*
X1243530D2*
X1196286D1*
X1243530Y1296299D2*
X1290774D1*
Y1249055D1*
X1243530Y1296299D2*
X1196286D1*
Y1249055D1*
Y1201811D1*
X1243530D1*
Y1154567D1*
Y1107323D1*
Y1060079D1*
Y1012835D1*
X1196286D1*
Y1060079D1*
Y1107323D1*
Y1154567D1*
X1243530Y1012835D2*
X1290774D1*
Y1060079D1*
Y1107323D1*
Y1154567D1*
Y1201811D1*
X499436Y1427008D2*
X594711D1*
X638543Y1470840D1*
X857703Y1690000D1*
X971877D2*
X1088270D1*
X1164790D1*
X1240513D1*
X1286837D1*
X1298648Y1678189D1*
X1290774Y1343543D2*
Y1406535D1*
X1306522Y1422283D1*
X1290774Y1012835D2*
Y949843D1*
X1306522Y934094D1*
X1298648Y678189D2*
X1243530D1*
X1033991D1*
X987625D1*
X971877Y662441D1*
X869514Y1445906D2*
Y1414409D1*
X1298648D1*
X1306522Y1422283D1*
X873451Y1225433D2*
Y1264803D1*
Y1225433D2*
X991562D1*
X1003373Y1237244D1*
Y1296299D1*
X1042743Y1335669D1*
X1156916D1*
X1196286Y1296299D1*
X936444Y867165D2*
Y776614D1*
X971877Y741181D1*
X1298648Y678189D2*
Y595512D1*
X1345892Y548268D1*
X1520087D1*
X1971877D1*
X2365577Y941969D1*
X2456129D1*
X2464003Y934094D1*
Y855354D1*
Y973465D2*
Y1172867D1*
Y1174860D1*
Y1378976D1*
Y1418346D2*
Y1497087D1*
Y1378976D2*
Y1418346D1*
X1412822Y1113228D2*
X1296680D1*
X1290774Y1107323D1*
X1412822Y1241181D2*
X1298648D1*
X1290774Y1249055D1*
X1164790Y1658504D2*
Y1690000D1*
Y1658504D2*
Y1579764D1*
Y1501024D1*
Y1422283D1*
X1240513Y1690000D2*
Y1661521D1*
X1243530Y1658504D1*
Y1579764D1*
Y1501024D1*
Y1422283D1*
X857703Y1690000D2*
Y1910472D1*
X849829Y1918346D1*
X771089D1*
X692349D1*
X849829D2*
X928570D1*
X1007310D1*
X1086050D1*
X1164790D1*
X1243530D1*
X1322270D1*
X1401010D1*
X1479751D1*
X1558491D1*
X1637231D1*
X1715971D1*
X1794711D1*
X1873451D1*
X1952192D1*
X2030932D1*
X2109672D1*
X2188412D1*
X2267152D1*
X2345892D1*
X2424633D1*
X2503373D1*
X2582113D1*
X2660853D1*
Y1878976D1*
X2621483Y1839606D1*
Y1800236D1*
X2660853Y1760866D1*
X2621483Y1839606D2*
X2542743D1*
X2464003D1*
X2385262D1*
X2306522D1*
X2255341D1*
X2247467Y1831732D1*
X2235656D1*
X2227782Y1839606D1*
X2149042D1*
X2070302D1*
X1991562D1*
X1912822D1*
X1834081D1*
X1755341D1*
X1676601D1*
X1597861D1*
X1519121D1*
Y1800236D1*
X1558491Y1760866D1*
X1637231D1*
X1715971D1*
X1794711D1*
X1873451D1*
X1952192D1*
X2030932D1*
X2109672D1*
X2188412D1*
X2267152D1*
X2345892D1*
X2424633D1*
X2503373D1*
X2582113D1*
X1520087Y548268D2*
Y517738D1*
X1519121Y516772D1*
Y477402D1*
X1479751Y438031D1*
X1401010D1*
X1322270D1*
X1243530D1*
X1164790D1*
X1086050D1*
X1007310D1*
X928570D1*
X849829D1*
X771089D1*
X692349D1*
X1479751D2*
X1558491D1*
X1637231D1*
X1715971D1*
X1794711D1*
X1873451D1*
X1952192D1*
X2030932D1*
X2109672D1*
X2188412D1*
X2267152D1*
X2345892D1*
X2424633D1*
X2503373D1*
X2582113D1*
X2660853D1*
Y477402D1*
X2621483Y516772D1*
Y556142D1*
X2660853Y595512D1*
X2582113D1*
X2503373D1*
X2424633D1*
X2345892D1*
X2267152D1*
X2188412D1*
X2109672D1*
X2030932D1*
X1952192D1*
X1873451D1*
X1794711D1*
X1715971D1*
X1637231D1*
X1558491D1*
Y556142D1*
X1597861Y516772D1*
X1676601D1*
X1755341D1*
X1834081D1*
X1912822D1*
X1991562D1*
X2070302D1*
X2149042D1*
X2227782D1*
X2306522D1*
X2385262D1*
X2464003D1*
X2542743D1*
X1306522Y934094D2*
X1243530D1*
X1164790D1*
Y855354D1*
Y776614D1*
Y697874D1*
X1243530Y934094D2*
Y855354D1*
Y776614D1*
Y697874D1*
Y678189D1*
X1164790Y697874D2*
X1086050D1*
X1053676D1*
X1033991Y678189D1*
X1088270Y1690000D2*
Y1660724D1*
X1086050Y1658504D1*
X638543Y1470840D2*
Y1216247D1*
X704160Y1150630D1*
X684475D1*
X649042Y1115197D1*
X2464003Y1172867D2*
X2498051D1*
X2499436Y1174252D1*
X2578176D1*
X2656916D1*
X2735656D1*
X2814396D1*
X2464003Y1174860D2*
X2421303D1*
X2420696Y1174252D1*
X2341955D1*
X2263215D1*
X2030932Y1760866D2*
Y1725433D1*
X1995499Y1690000D1*
Y1611260D1*
Y1532520D1*
Y1453780D1*
Y1375039D1*
Y1296299D1*
Y1217559D1*
Y1138819D1*
Y1060079D1*
Y981339D1*
Y902598D1*
Y823858D1*
Y745118D1*
Y666378D1*
Y638819D1*
X1952192Y595512D1*
X1995499Y1453780D2*
X1814396D1*
X1767152Y1406535D1*
X1719908D1*
X1688412Y1375039D1*
X1995499Y902598D2*
X1814396D1*
X1767152Y949843D1*
X1719908D1*
X1688412Y981339D1*
X2814396Y1174252D2*
X2853766D1*
X2897073Y1217559D1*
Y1296299D1*
Y1375039D1*
Y1453780D1*
Y1532520D1*
Y1611260D1*
Y1690000D1*
Y1217559D2*
Y1138819D1*
Y1060079D1*
Y981339D1*
Y902598D1*
Y823858D1*
Y745118D1*
Y666378D1*
X1062428Y1056142D2*
X987625D1*
X853766Y922283D1*
X1499436Y1438031D2*
Y918346D1*
D27*
X1306522Y1422283D3*
D29*
X1412822Y1241181D3*
D27*
X798648Y1540394D3*
D29*
X1412822Y1113228D3*
X1196286Y1296299D3*
X1243530D3*
X1290774D3*
X1196286Y1343543D3*
X1243530D3*
X1290774D3*
X1196286Y1201811D3*
X1243530D3*
X1290774D3*
X1196286Y1249055D3*
X1243530D3*
X1290774D3*
X1196286Y1107323D3*
X1243530D3*
X1290774D3*
X1196286Y1154567D3*
X1243530D3*
X1290774D3*
X1196286Y1012835D3*
X1243530D3*
X1290774D3*
X1196286Y1060079D3*
X1243530D3*
X1290774D3*
D31*
X1062428Y1056142D3*
X853766Y922283D3*
D27*
X1306522Y1465591D3*
X1298648Y1516772D3*
Y1560079D3*
Y1634882D3*
Y1678189D3*
X1306522Y934094D3*
Y890787D3*
X1298648Y839606D3*
Y796299D3*
Y721496D3*
Y678189D3*
X1534869Y1697874D3*
Y1658504D3*
Y1619134D3*
Y1564016D3*
Y1524646D3*
X1499436Y1477402D3*
Y1438031D3*
X1534869Y658504D3*
Y697874D3*
Y737244D3*
Y792362D3*
Y831732D3*
X1499436Y878976D3*
Y918346D3*
X971877Y662441D3*
Y701811D3*
Y741181D3*
X857703Y662441D3*
Y701811D3*
Y741181D3*
X971877Y1611260D3*
Y1650630D3*
Y1690000D3*
X857703Y1611260D3*
Y1650630D3*
Y1690000D3*
X869514Y1445906D3*
Y1406535D3*
X798648Y1501024D3*
Y1461654D3*
D31*
X1062428Y1296299D3*
X806522Y922283D3*
D27*
X1078176Y1540394D3*
Y1501024D3*
Y1461654D3*
X873451Y1264803D3*
Y1225433D3*
X897073Y867165D3*
X936444D3*
X2464003Y973465D3*
Y934094D3*
Y855354D3*
Y815984D3*
Y1536457D3*
Y1497087D3*
Y1418346D3*
Y1378976D3*
X676601Y1001024D3*
Y961654D3*
X715971Y945906D3*
X759278D3*
X798648Y1422283D3*
Y1382913D3*
Y1343543D3*
X1243530Y1422283D3*
X1164790D3*
X1243530Y1501024D3*
X1164790D3*
X1243530Y1579764D3*
X1164790D3*
X1243530Y1658504D3*
X1086050D3*
X1164790D3*
X2345892Y1918346D3*
X1755341Y1839606D3*
X1164790Y1918346D3*
X1401010D3*
X1243530D3*
X1322270D3*
X1479751D3*
X1715971D3*
X1558491D3*
X1637231D3*
X1794711D3*
X2030932D3*
X1873451D3*
X1952192D3*
X2109672D3*
X1597861Y1839606D3*
X2188412Y1918346D3*
X2267152D3*
X2582113D3*
X2424633D3*
X2503373D3*
X2660853D3*
X1676601Y1839606D3*
X1834081D3*
X2070302D3*
X1912822D3*
X771089Y1918346D3*
X1991562Y1839606D3*
X692349Y1918346D3*
X849829D3*
X1086050D3*
X928570D3*
X1007310D3*
X2149042Y1839606D3*
X2227782D3*
X2306522D3*
X2385262D3*
X2621483D3*
X2464003D3*
X2542743D3*
X1519121D3*
X1715971Y1760866D3*
X1558491D3*
X1637231D3*
X1794711D3*
X2030932D3*
X1873451D3*
X1952192D3*
X2109672D3*
X2188412D3*
X2267152D3*
X2345892D3*
X2582113D3*
X2424633D3*
X2503373D3*
X2660853D3*
X1755341Y516772D3*
X1164790Y438031D3*
X1401010D3*
X1243530D3*
X1322270D3*
X1479751D3*
X1715971D3*
X1558491D3*
X1637231D3*
X1794711D3*
X2030932D3*
X1873451D3*
X1952192D3*
X2109672D3*
X1597861Y516772D3*
X2188412Y438031D3*
X2267152D3*
X2345892D3*
X2582113D3*
X2424633D3*
X2503373D3*
X2660853D3*
X1676601Y516772D3*
X1834081D3*
X2070302D3*
X1912822D3*
X771089Y438031D3*
X1991562Y516772D3*
X692349Y438031D3*
X849829D3*
X1086050D3*
X928570D3*
X1007310D3*
X2149042Y516772D3*
X2227782D3*
X2306522D3*
X2385262D3*
X2621483D3*
X2464003D3*
X2542743D3*
X1519121D3*
X1715971Y595512D3*
X1558491D3*
X1637231D3*
X1794711D3*
X2030932D3*
X1873451D3*
X1952192D3*
X2109672D3*
X2188412D3*
X2267152D3*
X2345892D3*
X2582113D3*
X2424633D3*
X2503373D3*
X2660853D3*
X1243530Y934094D3*
X1164790D3*
X1243530Y855354D3*
X1164790D3*
X1243530Y776614D3*
X1164790D3*
X1243530Y697874D3*
X1086050D3*
X1164790D3*
X704160Y1150630D3*
X649042Y1115197D3*
X2263215Y1174252D3*
X2341955D3*
X2420696D3*
X2656916D3*
X2499436D3*
X2578176D3*
X2735656D3*
X2814396D3*
X1995499Y981339D3*
Y1690000D3*
Y1532520D3*
Y1611260D3*
Y1375039D3*
Y1453780D3*
Y1217559D3*
Y1296299D3*
Y1060079D3*
Y1138819D3*
Y823858D3*
Y902598D3*
Y666378D3*
Y745118D3*
X2897073Y981339D3*
Y1690000D3*
Y1532520D3*
Y1611260D3*
X1688412Y1375039D3*
X1767152Y1406535D3*
X1688412Y981339D3*
X1767152Y949843D3*
X2897073Y1375039D3*
Y1453780D3*
Y1217559D3*
Y1296299D3*
Y1060079D3*
Y1138819D3*
Y823858D3*
Y902598D3*
Y666378D3*
Y745118D3*
X1063772Y1558241D2*
D15*
X1096517D1*
X784374Y1554436D2*
X816860D1*
X1059965D2*
X1100324D1*
X780568Y1550630D2*
X820665D1*
X1056159D2*
X1103369D1*
X777392Y1546824D2*
X1103369D1*
X777392Y1543018D2*
X1103369D1*
X777392Y1539213D2*
X1103369D1*
X777392Y1535407D2*
X1103369D1*
X777392Y1531601D2*
X1103369D1*
X777392Y1527795D2*
X1103369D1*
X777392Y1523990D2*
X830247D1*
X1050514D2*
X1103369D1*
X777392Y1520184D2*
X826441D1*
X1054320D2*
X1103369D1*
X777392Y1516378D2*
X822634D1*
X1058127D2*
X1103369D1*
X777392Y1512572D2*
X819904D1*
X1060857D2*
X1103369D1*
X777392Y1508766D2*
X819904D1*
X1060857D2*
X1103369D1*
X777392Y1504961D2*
X819904D1*
X1060857D2*
X1103369D1*
X777392Y1501155D2*
X819904D1*
X1060857D2*
X1103369D1*
X777392Y1497349D2*
X819904D1*
X1060857D2*
X1103369D1*
X777392Y1493543D2*
X819904D1*
X1060857D2*
X1103369D1*
X777392Y1489738D2*
X819904D1*
X1060857D2*
X1103369D1*
X777392Y1485932D2*
X819904D1*
X1060857D2*
X1103369D1*
X777392Y1482126D2*
X819904D1*
X1060857D2*
X1103369D1*
X777392Y1478320D2*
X819904D1*
X1060857D2*
X1103369D1*
X777392Y1474514D2*
X819904D1*
X1060857D2*
X1103369D1*
X777392Y1470709D2*
X819904D1*
X1060857D2*
X1103369D1*
X777392Y1466903D2*
X819904D1*
X1060857D2*
X1103369D1*
X777392Y1463097D2*
X819904D1*
X1060857D2*
X1103369D1*
X777392Y1459291D2*
X819904D1*
X1060857D2*
X1103369D1*
X777392Y1455486D2*
X819904D1*
X1060857D2*
X1100324D1*
X777392Y1451680D2*
X819904D1*
X1060857D2*
X1096517D1*
X777392Y1447874D2*
X819904D1*
X1063640D2*
X1092711D1*
X777392Y1444068D2*
X819904D1*
X1067440D2*
X1088912D1*
X777392Y1440262D2*
X819904D1*
X1071245D2*
X1085106D1*
X777392Y1436457D2*
X819904D1*
X777392Y1432651D2*
X819904D1*
X777392Y1428845D2*
X819904D1*
X777392Y1425039D2*
X819904D1*
X777392Y1421234D2*
X819904D1*
X777392Y1417428D2*
X819904D1*
X777392Y1413622D2*
X819904D1*
X777392Y1409816D2*
X819904D1*
X777392Y1406010D2*
X819904D1*
X777392Y1402205D2*
X819904D1*
X777392Y1398399D2*
X819904D1*
X777392Y1394593D2*
X819904D1*
X777392Y1390787D2*
X819904D1*
X777392Y1386982D2*
X819904D1*
X777392Y1383176D2*
X819904D1*
X777392Y1379370D2*
X819904D1*
X777392Y1375564D2*
X819904D1*
X777392Y1371759D2*
X819904D1*
X777392Y1367953D2*
X819904D1*
X777392Y1364147D2*
X819904D1*
X777392Y1360341D2*
X819904D1*
X777392Y1356535D2*
X819904D1*
X777392Y1352730D2*
X819904D1*
X777392Y1348924D2*
X819904D1*
X777392Y1345118D2*
X819904D1*
X777392Y1341312D2*
X819904D1*
X777392Y1337507D2*
X819904D1*
X777392Y1333701D2*
X819904D1*
X777392Y1329895D2*
X819904D1*
X777392Y1326089D2*
X819904D1*
X777392Y1322283D2*
X819904D1*
X777392Y1318478D2*
X819904D1*
X777392Y1314672D2*
X819904D1*
X777392Y1310866D2*
X819904D1*
X777392Y1307060D2*
X819904D1*
X777392Y1303255D2*
X819904D1*
X777392Y1299449D2*
X819904D1*
X777392Y1295643D2*
X819904D1*
X777392Y1291837D2*
X819904D1*
X777392Y1288031D2*
X819904D1*
X777392Y1284226D2*
X819904D1*
X777392Y1280420D2*
X819904D1*
X777392Y1276614D2*
X819904D1*
X777392Y1272808D2*
X819904D1*
X777392Y1269003D2*
X819904D1*
X777392Y1265197D2*
X819904D1*
X777392Y1261391D2*
X819904D1*
X777392Y1257585D2*
X819904D1*
X777392Y1253780D2*
X819904D1*
X777392Y1249974D2*
X819904D1*
X777392Y1246168D2*
X819904D1*
X777392Y1242362D2*
X819904D1*
X777392Y1238556D2*
X819904D1*
X777392Y1234751D2*
X819904D1*
X777392Y1230945D2*
X819904D1*
X777392Y1227139D2*
X819904D1*
X777392Y1223333D2*
X819904D1*
X777392Y1219528D2*
X819904D1*
X777392Y1215722D2*
X819904D1*
X777392Y1211916D2*
X819904D1*
X777392Y1208110D2*
X819904D1*
X777392Y1204304D2*
X819904D1*
X777392Y1200499D2*
X819904D1*
X777392Y1196693D2*
X819904D1*
X777392Y1192887D2*
X819904D1*
X777392Y1189081D2*
X819904D1*
X777392Y1185276D2*
X819904D1*
X777392Y1181470D2*
X819904D1*
X777392Y1177664D2*
X819904D1*
X777392Y1173858D2*
X819904D1*
X777392Y1170052D2*
X819904D1*
X777392Y1166247D2*
X819904D1*
X777392Y1162441D2*
X819904D1*
X777392Y1158635D2*
X819904D1*
X777392Y1154829D2*
X819904D1*
X777392Y1151024D2*
X819904D1*
X777392Y1147218D2*
X819904D1*
X777392Y1143412D2*
X819904D1*
X777392Y1139606D2*
X819904D1*
X777392Y1135801D2*
X819904D1*
X777392Y1131995D2*
X819904D1*
X777392Y1128189D2*
X816336D1*
X777392Y1124383D2*
X812530D1*
X775709Y1120577D2*
X808724D1*
X771902Y1116772D2*
X804917D1*
X768096Y1112966D2*
X801112D1*
X764290Y1109160D2*
X797304D1*
X760491Y1105354D2*
X793499D1*
X756685Y1101549D2*
X789699D1*
X752878Y1097743D2*
X785894D1*
X749072Y1093937D2*
X782088D1*
X745265Y1090131D2*
X778281D1*
X741459Y1086325D2*
X774475D1*
X737654Y1082520D2*
X770668D1*
X733846Y1078714D2*
X766862D1*
X730041Y1074908D2*
X763056D1*
X726235Y1071102D2*
X759249D1*
X722428Y1067297D2*
X755444D1*
X718622Y1063491D2*
X751638D1*
X714815Y1059685D2*
X747831D1*
X711009Y1055879D2*
X744025D1*
X707203Y1052073D2*
X740218D1*
X703404Y1048268D2*
X736412D1*
X699598Y1044462D2*
X732613D1*
X695791Y1040656D2*
X728807D1*
X691986Y1036850D2*
X725001D1*
X688178Y1033045D2*
X721194D1*
X684373Y1029239D2*
X717388D1*
X680567Y1025433D2*
X713581D1*
X676760Y1021627D2*
X709776D1*
X672954Y1017822D2*
X705970D1*
X669148Y1014016D2*
X705731D1*
X665341Y1010210D2*
X705731D1*
X661535Y1006404D2*
X705731D1*
X659278Y1002598D2*
X705731D1*
X659278Y998793D2*
X705731D1*
X659278Y994987D2*
X705731D1*
X659278Y991181D2*
X705731D1*
X659278Y987375D2*
X705731D1*
X659278Y983570D2*
X705731D1*
X659278Y979764D2*
X705739D1*
X659278Y975958D2*
X761480D1*
X659278Y972152D2*
X765286D1*
X659278Y968346D2*
X769092D1*
X659278Y964541D2*
X772899D1*
X659278Y960735D2*
X776597D1*
X659278Y956929D2*
X776597D1*
X660751Y953123D2*
X776597D1*
X664556Y949318D2*
X776597D1*
X668364Y945512D2*
X776597D1*
X672169Y941706D2*
X776597D1*
X675976Y937900D2*
X775651D1*
X679782Y934094D2*
X771845D1*
X683581Y930289D2*
X768046D1*
X819487Y1552205D2*
X813579Y1558112D1*
X787660Y1558110D1*
X776996Y1547454D1*
X776971Y1122762D1*
X776781Y1122177D1*
X776419Y1121678D1*
X658881Y1004142D1*
X658885Y954602D1*
X685289Y928190D1*
X766329Y928189D1*
X776993Y938845D1*
X776995Y960831D1*
X758459Y979374D1*
X707789Y979394D1*
X707203Y979584D1*
X706705Y979946D1*
X706343Y980445D1*
X706152Y981030D1*
X706129Y987244D1*
X706152Y1017080D1*
X706343Y1017665D1*
X706705Y1018164D1*
X820303Y1131762D1*
X820325Y1513143D1*
X820516Y1513728D1*
X820878Y1514227D1*
X832924Y1526239D1*
X833472Y1526518D1*
X834081Y1526614D1*
X1046988Y1526591D1*
X1047573Y1526400D1*
X1048072Y1526038D1*
X1060084Y1513992D1*
X1060364Y1513444D1*
X1060459Y1512835D1*
Y1450665D1*
X1071115Y1440001D1*
X1085227Y1440000D1*
X1103770Y1458535D1*
X1103766Y1551382D1*
X1093110Y1562046D1*
X1067188Y1562047D1*
X1055711Y1550612D1*
X1055163Y1550332D1*
X1054554Y1550236D1*
X821962Y1550260D1*
X821377Y1550450D1*
X820878Y1550812D1*
X819487Y1552205D1*
X1520465Y1719659D2*
X1549273D1*
X1516657Y1715853D2*
X1553080D1*
X1513613Y1712047D2*
X1556125D1*
X1513613Y1708241D2*
X1556125D1*
X1513613Y1704436D2*
X1556125D1*
X1513613Y1700630D2*
X1556125D1*
X1513613Y1696824D2*
X1556125D1*
X1513613Y1693018D2*
X1556125D1*
X1513613Y1689213D2*
X1556125D1*
X1513613Y1685407D2*
X1556125D1*
X1513613Y1681601D2*
X1556125D1*
X1513613Y1677795D2*
X1556125D1*
X1513613Y1673990D2*
X1556125D1*
X1513613Y1670184D2*
X1556125D1*
X1513613Y1666378D2*
X1556125D1*
X1513613Y1662572D2*
X1556125D1*
X1513613Y1658766D2*
X1556125D1*
X1513613Y1654961D2*
X1556125D1*
X1513613Y1651155D2*
X1556125D1*
X1513613Y1647349D2*
X1556125D1*
X1513613Y1643543D2*
X1556125D1*
X1513613Y1639738D2*
X1556125D1*
X1513613Y1635932D2*
X1556125D1*
X1513613Y1632126D2*
X1556125D1*
X1513613Y1628320D2*
X1556125D1*
X1513613Y1624514D2*
X1556125D1*
X1513613Y1620709D2*
X1556125D1*
X1513613Y1616903D2*
X1556125D1*
X1513613Y1613097D2*
X1556125D1*
X1513613Y1609291D2*
X1556125D1*
X1513613Y1605486D2*
X1556125D1*
X1513613Y1601680D2*
X1556125D1*
X1513613Y1597874D2*
X1556125D1*
X1513613Y1594068D2*
X1556125D1*
X1513613Y1590262D2*
X1556125D1*
X1513613Y1586457D2*
X1556125D1*
X1513613Y1582651D2*
X1556125D1*
X1513613Y1578845D2*
X1556125D1*
X1513613Y1575039D2*
X1556125D1*
X1513613Y1571234D2*
X1556125D1*
X1513613Y1567428D2*
X1556125D1*
X1513613Y1563622D2*
X1556125D1*
X1513613Y1559816D2*
X1556125D1*
X1513613Y1556010D2*
X1556125D1*
X1513613Y1552205D2*
X1556125D1*
X1513613Y1548399D2*
X1556125D1*
X1513613Y1544593D2*
X1556125D1*
X1513613Y1540787D2*
X1556125D1*
X1513613Y1536982D2*
X1556125D1*
X1513613Y1533176D2*
X1556125D1*
X1513613Y1529370D2*
X1556125D1*
X1513613Y1525564D2*
X1556125D1*
X1513613Y1521759D2*
X1556125D1*
X1513613Y1517953D2*
X1556125D1*
X1511798Y1514147D2*
X1556125D1*
X1507992Y1510341D2*
X1556125D1*
X1504185Y1506535D2*
X1556125D1*
X1500379Y1502730D2*
X1556125D1*
X1496573Y1498924D2*
X1556125D1*
X1492774Y1495118D2*
X1556125D1*
X1488969Y1491312D2*
X1556125D1*
X1485161Y1487507D2*
X1556125D1*
X1481356Y1483701D2*
X1556125D1*
X1477549Y1479895D2*
X1556125D1*
X1474243Y1476089D2*
X1556125D1*
X1474243Y1472283D2*
X1556125D1*
X1474243Y1468478D2*
X1556125D1*
X1474243Y1464672D2*
X1556125D1*
X1474243Y1460866D2*
X1556125D1*
X1474243Y1457060D2*
X1556125D1*
X1474243Y1453255D2*
X1556125D1*
X1474243Y1449449D2*
X1556125D1*
X1474243Y1445643D2*
X1556125D1*
X1474243Y1441837D2*
X1556125D1*
X1474243Y1438031D2*
X1556125D1*
X1474243Y1434226D2*
X1556125D1*
X1474243Y1430420D2*
X1556125D1*
X1474243Y1426614D2*
X1556125D1*
X1474243Y1422808D2*
X1556125D1*
X1474243Y1419003D2*
X1556125D1*
X1474243Y1415197D2*
X1556125D1*
X1474243Y1411391D2*
X1556125D1*
X1474243Y1407585D2*
X1556125D1*
X1474243Y1403780D2*
X1556125D1*
X1474243Y1399974D2*
X1556125D1*
X1474243Y1396168D2*
X1556125D1*
X1474243Y1392362D2*
X1556125D1*
X1474243Y1388556D2*
X1556125D1*
X1474243Y1384751D2*
X1556125D1*
X1474243Y1380945D2*
X1556125D1*
X1474243Y1377139D2*
X1556125D1*
X1474243Y1373333D2*
X1556125D1*
X1474243Y1369528D2*
X1556125D1*
X1474243Y1365722D2*
X1556125D1*
X1474243Y1361916D2*
X1556125D1*
X1474243Y1358110D2*
X1556125D1*
X1474243Y1354304D2*
X1556125D1*
X1474243Y1350499D2*
X1556125D1*
X1474243Y1346693D2*
X1556125D1*
X1474243Y1342887D2*
X1556125D1*
X1474243Y1339081D2*
X1556125D1*
X1474243Y1335276D2*
X1556125D1*
X1474243Y1331470D2*
X1556125D1*
X1474243Y1327664D2*
X1556125D1*
X1474243Y1323858D2*
X1556125D1*
X1474243Y1320052D2*
X1556125D1*
X1474243Y1316247D2*
X1556125D1*
X1474243Y1312441D2*
X1556125D1*
X1474243Y1308635D2*
X1556125D1*
X1474243Y1304829D2*
X1556125D1*
X1474243Y1301024D2*
X1556125D1*
X1474243Y1297218D2*
X1556125D1*
X1474243Y1293412D2*
X1556125D1*
X1474243Y1289606D2*
X1556125D1*
X1474243Y1285801D2*
X1556125D1*
X1474243Y1281995D2*
X1556125D1*
X1474243Y1278189D2*
X1556125D1*
X1474243Y1274383D2*
X1556125D1*
X1474243Y1270577D2*
X1556125D1*
X1474243Y1266772D2*
X1556125D1*
X1474243Y1262966D2*
X1556125D1*
X1474243Y1259160D2*
X1556125D1*
X1474243Y1255354D2*
X1556125D1*
X1474243Y1251549D2*
X1556125D1*
X1474243Y1247743D2*
X1556125D1*
X1474243Y1243937D2*
X1556125D1*
X1474243Y1240131D2*
X1556125D1*
X1474243Y1236325D2*
X1556125D1*
X1474243Y1232520D2*
X1556125D1*
X1474243Y1228714D2*
X1556125D1*
X1474243Y1224908D2*
X1556125D1*
X1474243Y1221102D2*
X1556125D1*
X1474243Y1217297D2*
X1556125D1*
X1474243Y1213491D2*
X1556125D1*
X1474243Y1209685D2*
X1556125D1*
X1474243Y1205879D2*
X1556125D1*
X1474243Y1202073D2*
X1556125D1*
X1474243Y1198268D2*
X1556125D1*
X1474243Y1194462D2*
X1556125D1*
X1474243Y1190656D2*
X1556125D1*
X1474243Y1186850D2*
X1556125D1*
X1474243Y1183045D2*
X1556125D1*
X1474243Y1179239D2*
X1556125D1*
X1474243Y1175433D2*
X1556125D1*
X1474243Y1171627D2*
X1556125D1*
X1474243Y1167822D2*
X1556125D1*
X1474243Y1164016D2*
X1556125D1*
X1474243Y1160210D2*
X1556125D1*
X1474243Y1156404D2*
X1556125D1*
X1474243Y1152598D2*
X1556125D1*
X1474243Y1148793D2*
X1556125D1*
X1474243Y1144987D2*
X1556125D1*
X1474243Y1141181D2*
X1556125D1*
X1474243Y1137375D2*
X1556125D1*
X1474243Y1133570D2*
X1556125D1*
X1474243Y1129764D2*
X1556125D1*
X1474243Y1125958D2*
X1556125D1*
X1474243Y1122152D2*
X1556125D1*
X1474243Y1118346D2*
X1556125D1*
X1474243Y1114541D2*
X1556125D1*
X1474243Y1110735D2*
X1556125D1*
X1474243Y1106929D2*
X1556125D1*
X1474243Y1103123D2*
X1556125D1*
X1474243Y1099318D2*
X1556125D1*
X1474243Y1095512D2*
X1556125D1*
X1474243Y1091706D2*
X1556125D1*
X1474243Y1087900D2*
X1556125D1*
X1474243Y1084094D2*
X1556125D1*
X1474243Y1080289D2*
X1556125D1*
X1474243Y1076483D2*
X1556125D1*
X1474243Y1072677D2*
X1556125D1*
X1474243Y1068871D2*
X1556125D1*
X1474243Y1065066D2*
X1556125D1*
X1474243Y1061260D2*
X1556125D1*
X1474243Y1057454D2*
X1556125D1*
X1474243Y1053648D2*
X1556125D1*
X1474243Y1049843D2*
X1556125D1*
X1474243Y1046037D2*
X1556125D1*
X1474243Y1042231D2*
X1556125D1*
X1474243Y1038425D2*
X1556125D1*
X1474243Y1034619D2*
X1556125D1*
X1474243Y1030814D2*
X1556125D1*
X1474243Y1027008D2*
X1556125D1*
X1474243Y1023202D2*
X1556125D1*
X1474243Y1019396D2*
X1556125D1*
X1474243Y1015591D2*
X1556125D1*
X1474243Y1011785D2*
X1556125D1*
X1474243Y1007979D2*
X1556125D1*
X1474243Y1004173D2*
X1556125D1*
X1474243Y1000367D2*
X1556125D1*
X1474243Y996562D2*
X1556125D1*
X1474243Y992756D2*
X1556125D1*
X1474243Y988950D2*
X1556125D1*
X1474243Y985144D2*
X1556125D1*
X1474243Y981339D2*
X1556125D1*
X1474243Y977533D2*
X1556125D1*
X1474243Y973727D2*
X1556125D1*
X1474243Y969921D2*
X1556125D1*
X1474243Y966115D2*
X1556125D1*
X1474243Y962310D2*
X1556125D1*
X1474243Y958504D2*
X1556125D1*
X1474243Y954698D2*
X1556125D1*
X1474243Y950892D2*
X1556125D1*
X1474243Y947087D2*
X1556125D1*
X1474243Y943281D2*
X1556125D1*
X1474243Y939475D2*
X1556125D1*
X1474243Y935669D2*
X1556125D1*
X1474243Y931864D2*
X1556125D1*
X1474243Y928058D2*
X1556125D1*
X1474243Y924252D2*
X1556125D1*
X1474243Y920446D2*
X1556125D1*
X1474243Y916640D2*
X1556125D1*
X1474243Y912835D2*
X1556125D1*
X1474243Y909029D2*
X1556125D1*
X1474243Y905223D2*
X1556125D1*
X1474243Y901417D2*
X1556125D1*
X1474243Y897612D2*
X1556125D1*
X1474243Y893806D2*
X1556125D1*
X1474243Y890000D2*
X1556125D1*
X1474243Y886194D2*
X1556125D1*
X1475580Y882388D2*
X1556125D1*
X1479387Y878583D2*
X1556125D1*
X1483193Y874777D2*
X1556125D1*
X1487000Y870971D2*
X1556125D1*
X1490806Y867165D2*
X1556125D1*
X1494605Y863360D2*
X1556125D1*
X1498411Y859554D2*
X1556125D1*
X1502217Y855748D2*
X1556125D1*
X1506024Y851942D2*
X1556125D1*
X1509829Y848136D2*
X1556125D1*
X1513605Y844331D2*
X1556125D1*
X1513613Y840525D2*
X1556125D1*
X1513613Y836719D2*
X1556125D1*
X1513613Y832913D2*
X1556125D1*
X1513613Y829108D2*
X1556125D1*
X1513613Y825302D2*
X1556125D1*
X1513613Y821496D2*
X1556125D1*
X1513613Y817690D2*
X1556125D1*
X1513613Y813885D2*
X1556125D1*
X1513613Y810079D2*
X1556125D1*
X1513613Y806273D2*
X1556125D1*
X1513613Y802467D2*
X1556125D1*
X1513613Y798661D2*
X1556125D1*
X1513613Y794856D2*
X1556125D1*
X1513613Y791050D2*
X1556125D1*
X1513613Y787244D2*
X1556125D1*
X1513613Y783438D2*
X1556125D1*
X1513613Y779633D2*
X1556125D1*
X1513613Y775827D2*
X1556125D1*
X1513613Y772021D2*
X1556125D1*
X1513613Y768215D2*
X1556125D1*
X1513613Y764409D2*
X1556125D1*
X1513613Y760604D2*
X1556125D1*
X1513613Y756798D2*
X1556125D1*
X1513613Y752992D2*
X1556125D1*
X1513613Y749186D2*
X1556125D1*
X1513613Y745381D2*
X1556125D1*
X1513613Y741575D2*
X1556125D1*
X1513613Y737769D2*
X1556125D1*
X1513613Y733963D2*
X1556125D1*
X1513613Y730157D2*
X1556125D1*
X1513613Y726352D2*
X1556125D1*
X1513613Y722546D2*
X1556125D1*
X1513613Y718740D2*
X1556125D1*
X1513613Y714934D2*
X1556125D1*
X1513613Y711129D2*
X1556125D1*
X1513613Y707323D2*
X1556125D1*
X1513613Y703517D2*
X1556125D1*
X1513613Y699711D2*
X1556125D1*
X1513613Y695906D2*
X1556125D1*
X1513613Y692100D2*
X1556125D1*
X1513613Y688294D2*
X1556125D1*
X1513613Y684488D2*
X1556125D1*
X1513613Y680682D2*
X1556125D1*
X1513613Y676877D2*
X1556125D1*
X1513613Y673071D2*
X1556125D1*
X1513613Y669265D2*
X1556125D1*
X1513613Y665459D2*
X1556125D1*
X1513613Y661654D2*
X1556125D1*
X1513613Y657848D2*
X1556125D1*
X1513613Y654042D2*
X1556125D1*
X1513613Y650236D2*
X1556125D1*
X1513613Y646430D2*
X1556125D1*
X1514559Y642625D2*
X1555178D1*
X1518365Y638819D2*
X1551373D1*
X1522164Y635013D2*
X1547573D1*
X1556517Y1712812D2*
X1545866Y1723463D1*
X1523881Y1723465D1*
X1513217Y1712808D1*
X1513192Y1516463D1*
X1513001Y1515878D1*
X1512639Y1515379D1*
X1473844Y1476585D1*
X1473845Y883736D1*
X1512840Y844701D1*
X1513119Y844152D1*
X1513215Y843543D1*
Y643579D1*
X1523871Y632915D1*
X1545857Y632913D1*
X1556521Y643570D1*
X1556522Y1712799D1*
X470156Y1938045D2*
X2876934D1*
X460959Y1934239D2*
X2886123D1*
X454224Y1930433D2*
X2892866D1*
X448879Y1926627D2*
X2898210D1*
X444435Y1922822D2*
X2902655D1*
X440605Y1919016D2*
X2906469D1*
X437237Y1915210D2*
X2909821D1*
X434415Y1911404D2*
X526717D1*
X574518D2*
X2770811D1*
X2818612D2*
X2912659D1*
X431955Y1907598D2*
X514244D1*
X586990D2*
X2758339D1*
X2831084D2*
X2915127D1*
X429717Y1903793D2*
X505425D1*
X595810D2*
X2749519D1*
X2839904D2*
X2917373D1*
X427910Y1899987D2*
X498350D1*
X602884D2*
X2742445D1*
X2846979D2*
X2919180D1*
X426288Y1896181D2*
X492383D1*
X608851D2*
X2736478D1*
X2852946D2*
X2920802D1*
X424934Y1892375D2*
X487201D1*
X614034D2*
X2731295D1*
X2858128D2*
X2922148D1*
X423850Y1888570D2*
X482633D1*
X618601D2*
X2726728D1*
X2862696D2*
X2923240D1*
X422889Y1884764D2*
X478550D1*
X622684D2*
X2722644D1*
X2866779D2*
X2924193D1*
X422281Y1880958D2*
X474890D1*
X626345D2*
X2718984D1*
X2870439D2*
X2924808D1*
X421743Y1877152D2*
X471576D1*
X629659D2*
X2715670D1*
X2873753D2*
X2925346D1*
X421559Y1873346D2*
X468577D1*
X632658D2*
X2712671D1*
X2876752D2*
X2925531D1*
X421382Y1869541D2*
X465847D1*
X635387D2*
X2709941D1*
X2879482D2*
X2925708D1*
X421382Y1865735D2*
X463379D1*
X637856D2*
X2707473D1*
X2881950D2*
X2925708D1*
X421382Y1861929D2*
X461141D1*
X640093D2*
X2705235D1*
X2884188D2*
X2925708D1*
X421382Y1858123D2*
X459111D1*
X642123D2*
X2703205D1*
X2886218D2*
X2925708D1*
X421382Y1854318D2*
X457281D1*
X643946D2*
X2701375D1*
X2888040D2*
X2925708D1*
X421382Y1850512D2*
X455643D1*
X645591D2*
X2699737D1*
X2889686D2*
X2925708D1*
X421382Y1846706D2*
X454190D1*
X647045D2*
X2698284D1*
X2891139D2*
X2925708D1*
X421382Y1842900D2*
X452898D1*
X648336D2*
X2696992D1*
X2892431D2*
X2925708D1*
X421382Y1839094D2*
X451768D1*
X649459D2*
X2695862D1*
X2893554D2*
X2925708D1*
X421382Y1835289D2*
X450806D1*
X650428D2*
X2694901D1*
X2894522D2*
X2925708D1*
X421382Y1831483D2*
X449991D1*
X651243D2*
X2694086D1*
X2895338D2*
X2925708D1*
X421382Y1827677D2*
X449330D1*
X651904D2*
X2693424D1*
X2895999D2*
X2925708D1*
X421382Y1823871D2*
X448807D1*
X652420D2*
X2692902D1*
X2896514D2*
X2925708D1*
X421382Y1820066D2*
X448438D1*
X652796D2*
X2692532D1*
X2896891D2*
X2925708D1*
X421382Y1816260D2*
X448207D1*
X653027D2*
X2692302D1*
X2897122D2*
X2925708D1*
X421382Y1812454D2*
X448123D1*
X653112D2*
X2692217D1*
X2897206D2*
X2925708D1*
X421382Y1808648D2*
X448177D1*
X653050D2*
X2692271D1*
X2897145D2*
X2925708D1*
X421382Y1804843D2*
X448376D1*
X652858D2*
X2692471D1*
X2896952D2*
X2925708D1*
X421382Y1801037D2*
X448722D1*
X652512D2*
X2692817D1*
X2896606D2*
X2925708D1*
X421382Y1797231D2*
X449207D1*
X652027D2*
X2693301D1*
X2896122D2*
X2925708D1*
X421382Y1793425D2*
X449837D1*
X651397D2*
X2693932D1*
X2895491D2*
X2925708D1*
X421382Y1789619D2*
X450614D1*
X650620D2*
X2694709D1*
X2894715D2*
X2925708D1*
X421382Y1785814D2*
X451552D1*
X649682D2*
X2695647D1*
X2893777D2*
X2925708D1*
X421382Y1782008D2*
X452644D1*
X648590D2*
X2696739D1*
X2892685D2*
X2925708D1*
X421382Y1778202D2*
X453897D1*
X647337D2*
X2697992D1*
X2891431D2*
X2925708D1*
X421382Y1774396D2*
X455320D1*
X645914D2*
X2699415D1*
X2890009D2*
X2925708D1*
X421382Y1770591D2*
X456919D1*
X644315D2*
X2701014D1*
X2888409D2*
X2925708D1*
X421382Y1766785D2*
X458703D1*
X642531D2*
X2702798D1*
X2886625D2*
X2925708D1*
X421382Y1762979D2*
X460687D1*
X640547D2*
X2704782D1*
X2884642D2*
X2925708D1*
X421382Y1759173D2*
X462879D1*
X638356D2*
X2706973D1*
X2882450D2*
X2925708D1*
X421382Y1755367D2*
X465301D1*
X635933D2*
X2709395D1*
X2880028D2*
X2925708D1*
X421382Y1751562D2*
X467969D1*
X633265D2*
X2712064D1*
X2877360D2*
X2925708D1*
X421382Y1747756D2*
X470907D1*
X630328D2*
X2715001D1*
X2874422D2*
X2925708D1*
X421382Y1743950D2*
X474152D1*
X627083D2*
X2718246D1*
X2871177D2*
X2925708D1*
X421382Y1740144D2*
X477735D1*
X623499D2*
X2721829D1*
X2867594D2*
X2925708D1*
X421382Y1736339D2*
X481718D1*
X619516D2*
X1517735D1*
X1552003D2*
X2725812D1*
X2863611D2*
X2925708D1*
X421382Y1732533D2*
X486178D1*
X615056D2*
X1512837D1*
X1556901D2*
X2730272D1*
X2859151D2*
X2925708D1*
X421382Y1728727D2*
X491214D1*
X610020D2*
X1509031D1*
X1560707D2*
X2735309D1*
X2854114D2*
X2925708D1*
X421382Y1724921D2*
X496997D1*
X604237D2*
X1505225D1*
X1564514D2*
X2741091D1*
X2848332D2*
X2925708D1*
X421382Y1721115D2*
X503794D1*
X597440D2*
X1501518D1*
X1568220D2*
X2747889D1*
X2841534D2*
X2925708D1*
X421382Y1717310D2*
X512153D1*
X589081D2*
X1499465D1*
X1570273D2*
X2756247D1*
X2833176D2*
X2925708D1*
X421382Y1713504D2*
X523510D1*
X577724D2*
X1498881D1*
X1570850D2*
X2767605D1*
X2821819D2*
X2925708D1*
X421382Y1709698D2*
X1498881D1*
X1570850D2*
X2925708D1*
X421382Y1705892D2*
X1498881D1*
X1570850D2*
X2925708D1*
X421382Y1702087D2*
X1498881D1*
X1570850D2*
X2925708D1*
X421382Y1698281D2*
X1498881D1*
X1570850D2*
X2925708D1*
X421382Y1694475D2*
X1498881D1*
X1570850D2*
X2925708D1*
X421382Y1690669D2*
X1498881D1*
X1570850D2*
X2925708D1*
X421382Y1686864D2*
X1498881D1*
X1570850D2*
X2925708D1*
X421382Y1683058D2*
X1498881D1*
X1570850D2*
X2925708D1*
X421382Y1679252D2*
X1498881D1*
X1570850D2*
X2925708D1*
X421382Y1675446D2*
X1498881D1*
X1570850D2*
X2925708D1*
X421382Y1671640D2*
X1498881D1*
X1570850D2*
X2925708D1*
X421382Y1667835D2*
X484317D1*
X514555D2*
X1498881D1*
X1570850D2*
X2715955D1*
X2869532D2*
X2925708D1*
X421382Y1664029D2*
X474275D1*
X524598D2*
X1498881D1*
X1570850D2*
X2712833D1*
X2872654D2*
X2925708D1*
X421382Y1660223D2*
X468392D1*
X530480D2*
X1498881D1*
X1570850D2*
X2711610D1*
X2873876D2*
X2925708D1*
X421382Y1656417D2*
X464101D1*
X534771D2*
X1498881D1*
X1570850D2*
X2711479D1*
X2873999D2*
X2925708D1*
X421382Y1652612D2*
X460787D1*
X538085D2*
X1498881D1*
X1570850D2*
X2711479D1*
X2873999D2*
X2925708D1*
X421382Y1648806D2*
X458181D1*
X540692D2*
X1498881D1*
X1570850D2*
X2711479D1*
X2873999D2*
X2925708D1*
X421382Y1645000D2*
X456127D1*
X542745D2*
X1498881D1*
X1570850D2*
X2711479D1*
X2873999D2*
X2925708D1*
X421382Y1641194D2*
X454543D1*
X544329D2*
X1498881D1*
X1570850D2*
X2711479D1*
X2873999D2*
X2925708D1*
X421382Y1637388D2*
X453375D1*
X545498D2*
X1498881D1*
X1570850D2*
X2711479D1*
X2873999D2*
X2925708D1*
X421382Y1633583D2*
X452590D1*
X546282D2*
X1498881D1*
X1570850D2*
X2711479D1*
X2873999D2*
X2925708D1*
X421382Y1629777D2*
X452167D1*
X546705D2*
X1498881D1*
X1570850D2*
X2711479D1*
X2873999D2*
X2925708D1*
X421382Y1625971D2*
X452083D1*
X546782D2*
X1498881D1*
X1570850D2*
X2711479D1*
X2873999D2*
X2925708D1*
X421382Y1622165D2*
X452352D1*
X546520D2*
X1498881D1*
X1570850D2*
X2711479D1*
X2873999D2*
X2925708D1*
X421382Y1618360D2*
X452975D1*
X545897D2*
X1498881D1*
X1570850D2*
X2711479D1*
X2873999D2*
X2925708D1*
X421382Y1614554D2*
X453967D1*
X544905D2*
X1498881D1*
X1570850D2*
X2711479D1*
X2873999D2*
X2925708D1*
X421382Y1610748D2*
X455351D1*
X543521D2*
X1498881D1*
X1570850D2*
X2711479D1*
X2873999D2*
X2925708D1*
X421382Y1606942D2*
X457181D1*
X541691D2*
X1498881D1*
X1570850D2*
X2711479D1*
X2873999D2*
X2925708D1*
X421382Y1603136D2*
X459526D1*
X539346D2*
X1498881D1*
X1570850D2*
X2711479D1*
X2873999D2*
X2925708D1*
X421382Y1599331D2*
X462494D1*
X536378D2*
X1498881D1*
X1570850D2*
X2711479D1*
X2873999D2*
X2925708D1*
X421382Y1595525D2*
X466293D1*
X532579D2*
X1498881D1*
X1570850D2*
X2711479D1*
X2873999D2*
X2925708D1*
X421382Y1591719D2*
X471322D1*
X527543D2*
X1498881D1*
X1570850D2*
X2711479D1*
X2873999D2*
X2925708D1*
X421382Y1587913D2*
X478781D1*
X520092D2*
X1498881D1*
X1570850D2*
X2711479D1*
X2873999D2*
X2925708D1*
X421382Y1584108D2*
X1498881D1*
X1570850D2*
X2711479D1*
X2873999D2*
X2925708D1*
X421382Y1580302D2*
X1498881D1*
X1570850D2*
X2711479D1*
X2873999D2*
X2925708D1*
X421382Y1576496D2*
X1498881D1*
X1570850D2*
X2711479D1*
X2873999D2*
X2925708D1*
X421382Y1572690D2*
X1057728D1*
X1102561D2*
X1498881D1*
X1570850D2*
X2711479D1*
X2873999D2*
X2925708D1*
X421382Y1568885D2*
X491268D1*
X507604D2*
X778339D1*
X822895D2*
X1053914D1*
X1106375D2*
X1498881D1*
X1570850D2*
X2711479D1*
X2873999D2*
X2925708D1*
X421382Y1565079D2*
X476381D1*
X522491D2*
X774518D1*
X826717D2*
X1050108D1*
X1110181D2*
X1498881D1*
X1570850D2*
X2711479D1*
X2873999D2*
X2925708D1*
X421382Y1561273D2*
X469807D1*
X529065D2*
X770711D1*
X1113988D2*
X1498881D1*
X1570850D2*
X2711479D1*
X2873999D2*
X2925708D1*
X421382Y1557467D2*
X465170D1*
X533702D2*
X766905D1*
X1116879D2*
X1498881D1*
X1570850D2*
X2711479D1*
X2873999D2*
X2925708D1*
X421382Y1553661D2*
X461625D1*
X537247D2*
X763945D1*
X1118009D2*
X1498881D1*
X1570850D2*
X2711479D1*
X2873999D2*
X2925708D1*
X421382Y1549856D2*
X458834D1*
X540030D2*
X762768D1*
X1118094D2*
X1498881D1*
X1570850D2*
X2711479D1*
X2873999D2*
X2925708D1*
X421382Y1546050D2*
X456643D1*
X542229D2*
X762660D1*
X1118094D2*
X1498881D1*
X1570850D2*
X2711479D1*
X2873999D2*
X2925708D1*
X421382Y1542244D2*
X454936D1*
X543937D2*
X762660D1*
X1118094D2*
X1498881D1*
X1570850D2*
X2711479D1*
X2873999D2*
X2925708D1*
X421382Y1538438D2*
X453659D1*
X545213D2*
X762660D1*
X1118094D2*
X1498881D1*
X1570850D2*
X2711479D1*
X2873999D2*
X2925708D1*
X421382Y1534633D2*
X452775D1*
X546097D2*
X762660D1*
X1118094D2*
X1498881D1*
X1570850D2*
X2711479D1*
X2873999D2*
X2925708D1*
X421382Y1530827D2*
X452244D1*
X546620D2*
X762660D1*
X1118094D2*
X1498881D1*
X1570850D2*
X2711479D1*
X2873999D2*
X2925708D1*
X421382Y1527021D2*
X452075D1*
X546797D2*
X762660D1*
X1118094D2*
X1498881D1*
X1570850D2*
X2711479D1*
X2873999D2*
X2925708D1*
X421382Y1523215D2*
X452244D1*
X546628D2*
X762660D1*
X1118094D2*
X1498881D1*
X1570850D2*
X2711479D1*
X2873999D2*
X2925708D1*
X421382Y1519409D2*
X452767D1*
X546105D2*
X762660D1*
X1118094D2*
X1496566D1*
X1570850D2*
X2711479D1*
X2873999D2*
X2925708D1*
X421382Y1515604D2*
X453651D1*
X545221D2*
X762660D1*
X1118094D2*
X1492760D1*
X1570850D2*
X2711479D1*
X2873999D2*
X2925708D1*
X421382Y1511798D2*
X454928D1*
X543944D2*
X762660D1*
X838551D2*
X1042211D1*
X1118094D2*
X1488954D1*
X1570850D2*
X2711479D1*
X2873999D2*
X2925708D1*
X421382Y1507992D2*
X456627D1*
X542245D2*
X762660D1*
X834745D2*
X1046017D1*
X1118094D2*
X1485147D1*
X1570850D2*
X2711479D1*
X2873999D2*
X2925708D1*
X421382Y1504186D2*
X458819D1*
X540053D2*
X762660D1*
X834629D2*
X1046125D1*
X1118094D2*
X1481341D1*
X1570850D2*
X2711479D1*
X2873999D2*
X2925708D1*
X421382Y1500381D2*
X461602D1*
X537270D2*
X762660D1*
X834629D2*
X1046125D1*
X1118094D2*
X1477535D1*
X1570850D2*
X2711479D1*
X2873999D2*
X2925708D1*
X421382Y1496575D2*
X465139D1*
X533733D2*
X762660D1*
X834629D2*
X1046125D1*
X1118094D2*
X1473729D1*
X1570850D2*
X2711479D1*
X2873999D2*
X2925708D1*
X421382Y1492769D2*
X469769D1*
X529104D2*
X762660D1*
X834629D2*
X1046125D1*
X1118094D2*
X1469922D1*
X1570850D2*
X2711479D1*
X2873999D2*
X2925708D1*
X421382Y1488963D2*
X476320D1*
X522552D2*
X762660D1*
X834629D2*
X1046125D1*
X1118094D2*
X1466116D1*
X1570850D2*
X2711479D1*
X2873999D2*
X2925708D1*
X421382Y1485157D2*
X490899D1*
X507973D2*
X762660D1*
X834629D2*
X1046125D1*
X1118094D2*
X1462371D1*
X1570850D2*
X2711479D1*
X2873999D2*
X2925708D1*
X421382Y1481352D2*
X762660D1*
X834629D2*
X1046125D1*
X1118094D2*
X1460187D1*
X1570850D2*
X2711479D1*
X2873999D2*
X2925708D1*
X421382Y1477546D2*
X762660D1*
X834629D2*
X1046125D1*
X1118094D2*
X1459518D1*
X1570850D2*
X2711479D1*
X2873999D2*
X2925708D1*
X421382Y1473740D2*
X762660D1*
X834629D2*
X1046125D1*
X1118094D2*
X1459511D1*
X1570850D2*
X2711479D1*
X2873999D2*
X2925708D1*
X421382Y1469934D2*
X762660D1*
X834629D2*
X1046125D1*
X1118094D2*
X1459511D1*
X1570850D2*
X2711479D1*
X2873999D2*
X2925708D1*
X421382Y1466129D2*
X762660D1*
X834629D2*
X1046125D1*
X1118094D2*
X1459511D1*
X1570850D2*
X2711479D1*
X2873999D2*
X2925708D1*
X421382Y1462323D2*
X762660D1*
X834629D2*
X1046125D1*
X1118094D2*
X1459511D1*
X1570850D2*
X2711479D1*
X2873999D2*
X2925708D1*
X421382Y1458517D2*
X762660D1*
X834629D2*
X1046125D1*
X1118094D2*
X1459511D1*
X1570850D2*
X2711479D1*
X2873999D2*
X2925708D1*
X421382Y1454711D2*
X762660D1*
X834629D2*
X1046125D1*
X1117717D2*
X1459511D1*
X1570850D2*
X2711479D1*
X2873999D2*
X2925708D1*
X421382Y1450906D2*
X762660D1*
X834629D2*
X1046125D1*
X1115971D2*
X1459511D1*
X1570850D2*
X2711479D1*
X2873999D2*
X2925708D1*
X421382Y1447100D2*
X762660D1*
X834629D2*
X1046448D1*
X1112434D2*
X1459511D1*
X1570850D2*
X2711479D1*
X2873999D2*
X2925708D1*
X421382Y1443294D2*
X762660D1*
X834629D2*
X1048078D1*
X1108636D2*
X1459511D1*
X1570850D2*
X2711479D1*
X2873999D2*
X2925708D1*
X421382Y1439488D2*
X762660D1*
X834629D2*
X1051523D1*
X1104829D2*
X1459511D1*
X1570850D2*
X2711479D1*
X2873999D2*
X2925708D1*
X421382Y1435682D2*
X762660D1*
X834629D2*
X1055329D1*
X1101023D2*
X1459511D1*
X1570850D2*
X2711479D1*
X2873999D2*
X2925708D1*
X421382Y1431877D2*
X762660D1*
X834629D2*
X1059136D1*
X1097217D2*
X1459511D1*
X1570850D2*
X2711479D1*
X2873999D2*
X2925708D1*
X421382Y1428071D2*
X762660D1*
X834629D2*
X1063272D1*
X1093080D2*
X1459511D1*
X1570850D2*
X2711479D1*
X2873999D2*
X2925708D1*
X421382Y1424265D2*
X762660D1*
X834629D2*
X1459511D1*
X1570850D2*
X2711479D1*
X2873999D2*
X2925708D1*
X421382Y1420459D2*
X762660D1*
X834629D2*
X1459511D1*
X1570850D2*
X2711479D1*
X2873999D2*
X2925708D1*
X421382Y1416654D2*
X762660D1*
X834629D2*
X1459511D1*
X1570850D2*
X2711479D1*
X2873999D2*
X2925708D1*
X421382Y1412848D2*
X762660D1*
X834629D2*
X1459511D1*
X1570850D2*
X2711479D1*
X2873999D2*
X2925708D1*
X421382Y1409042D2*
X762660D1*
X834629D2*
X1459511D1*
X1570850D2*
X2711479D1*
X2873999D2*
X2925708D1*
X421382Y1405236D2*
X762660D1*
X834629D2*
X1459511D1*
X1570850D2*
X2711479D1*
X2873999D2*
X2925708D1*
X421382Y1401430D2*
X762660D1*
X834629D2*
X1459511D1*
X1570850D2*
X2711479D1*
X2873999D2*
X2925708D1*
X421382Y1397625D2*
X762660D1*
X834629D2*
X1459511D1*
X1570850D2*
X2711479D1*
X2873999D2*
X2925708D1*
X421382Y1393819D2*
X762660D1*
X834629D2*
X1459511D1*
X1570850D2*
X2711479D1*
X2873999D2*
X2925708D1*
X421382Y1390013D2*
X762660D1*
X834629D2*
X1459511D1*
X1570850D2*
X2711479D1*
X2873999D2*
X2925708D1*
X421382Y1386207D2*
X762660D1*
X834629D2*
X1459511D1*
X1570850D2*
X2711479D1*
X2873999D2*
X2925708D1*
X421382Y1382402D2*
X762660D1*
X834629D2*
X1459511D1*
X1570850D2*
X2711479D1*
X2873999D2*
X2925708D1*
X421382Y1378596D2*
X762660D1*
X834629D2*
X1459511D1*
X1570850D2*
X2711479D1*
X2873999D2*
X2925708D1*
X421382Y1374790D2*
X762660D1*
X834629D2*
X1459511D1*
X1570850D2*
X2711479D1*
X2873999D2*
X2925708D1*
X421382Y1370984D2*
X762660D1*
X834629D2*
X1459511D1*
X1570850D2*
X2711479D1*
X2873999D2*
X2925708D1*
X421382Y1367178D2*
X481887D1*
X516985D2*
X762660D1*
X834629D2*
X1459511D1*
X1570850D2*
X2711479D1*
X2873999D2*
X2925708D1*
X421382Y1363373D2*
X473090D1*
X525782D2*
X762660D1*
X834629D2*
X1459511D1*
X1570850D2*
X2711479D1*
X2873999D2*
X2925708D1*
X421382Y1359567D2*
X467562D1*
X531310D2*
X762660D1*
X834629D2*
X1459511D1*
X1570850D2*
X2711479D1*
X2873999D2*
X2925708D1*
X421382Y1355761D2*
X463471D1*
X535401D2*
X762660D1*
X834629D2*
X1459511D1*
X1570850D2*
X2711479D1*
X2873999D2*
X2925708D1*
X421382Y1351955D2*
X460295D1*
X538577D2*
X762660D1*
X834629D2*
X1459511D1*
X1570850D2*
X2711479D1*
X2873999D2*
X2925708D1*
X421382Y1348150D2*
X457788D1*
X541084D2*
X762660D1*
X834629D2*
X1459511D1*
X1570850D2*
X2711479D1*
X2873999D2*
X2925708D1*
X421382Y1344344D2*
X455820D1*
X543052D2*
X762660D1*
X834629D2*
X1459511D1*
X1570850D2*
X2711479D1*
X2873999D2*
X2925708D1*
X421382Y1340538D2*
X454313D1*
X544559D2*
X762660D1*
X834629D2*
X1459511D1*
X1570850D2*
X2711479D1*
X2873999D2*
X2925708D1*
X421382Y1336732D2*
X453213D1*
X545659D2*
X762660D1*
X834629D2*
X1459511D1*
X1570850D2*
X2711479D1*
X2873999D2*
X2925708D1*
X421382Y1332927D2*
X452490D1*
X546382D2*
X762660D1*
X834629D2*
X1459511D1*
X1570850D2*
X2711479D1*
X2873999D2*
X2925708D1*
X421382Y1329121D2*
X452129D1*
X546743D2*
X762660D1*
X834629D2*
X1459511D1*
X1570850D2*
X2711479D1*
X2873999D2*
X2925708D1*
X421382Y1325315D2*
X452106D1*
X546766D2*
X762660D1*
X834629D2*
X1459511D1*
X1570850D2*
X2711479D1*
X2873999D2*
X2925708D1*
X421382Y1321509D2*
X452436D1*
X546436D2*
X762660D1*
X834629D2*
X1056798D1*
X1068058D2*
X1459511D1*
X1570850D2*
X2711479D1*
X2873999D2*
X2925708D1*
X421382Y1317703D2*
X453121D1*
X545751D2*
X762660D1*
X834629D2*
X1047724D1*
X1077132D2*
X1459511D1*
X1570850D2*
X2711479D1*
X2873999D2*
X2925708D1*
X421382Y1313898D2*
X454174D1*
X544698D2*
X762660D1*
X834629D2*
X1043241D1*
X1081615D2*
X1459511D1*
X1570850D2*
X2711479D1*
X2873999D2*
X2925708D1*
X421382Y1310092D2*
X455635D1*
X543237D2*
X762660D1*
X834629D2*
X1040289D1*
X1084560D2*
X1459511D1*
X1570850D2*
X2711479D1*
X2873999D2*
X2925708D1*
X421382Y1306286D2*
X457542D1*
X541322D2*
X762660D1*
X834629D2*
X1038305D1*
X1086552D2*
X1459511D1*
X1570850D2*
X2711479D1*
X2873999D2*
X2925708D1*
X421382Y1302480D2*
X459988D1*
X538885D2*
X762660D1*
X834629D2*
X1037036D1*
X1087820D2*
X1459511D1*
X1570850D2*
X2711479D1*
X2873999D2*
X2925708D1*
X421382Y1298675D2*
X463079D1*
X535793D2*
X762660D1*
X834629D2*
X1036398D1*
X1088459D2*
X1459511D1*
X1570850D2*
X2711479D1*
X2873999D2*
X2925708D1*
X421382Y1294869D2*
X467054D1*
X531818D2*
X762660D1*
X834629D2*
X1036329D1*
X1088528D2*
X1459511D1*
X1570850D2*
X2711479D1*
X2873999D2*
X2925708D1*
X421382Y1291063D2*
X472375D1*
X526497D2*
X762660D1*
X834629D2*
X1036821D1*
X1088028D2*
X1459511D1*
X1570850D2*
X2711479D1*
X2873999D2*
X2925708D1*
X421382Y1287257D2*
X480580D1*
X518292D2*
X762660D1*
X834629D2*
X1037928D1*
X1086928D2*
X1459511D1*
X1570850D2*
X2711479D1*
X2873999D2*
X2925708D1*
X421382Y1283451D2*
X762660D1*
X834629D2*
X1039720D1*
X1085137D2*
X1459511D1*
X1570850D2*
X2711479D1*
X2873999D2*
X2925708D1*
X421382Y1279646D2*
X762660D1*
X834629D2*
X1041204D1*
X1082461D2*
X1459511D1*
X1570850D2*
X2711479D1*
X2873999D2*
X2925708D1*
X421382Y1275840D2*
X762660D1*
X834629D2*
X1041204D1*
X1078455D2*
X1459511D1*
X1570850D2*
X2711479D1*
X2873999D2*
X2925708D1*
X421382Y1272034D2*
X762660D1*
X834629D2*
X1041204D1*
X1075771D2*
X1459511D1*
X1570850D2*
X2711479D1*
X2873999D2*
X2925708D1*
X421382Y1268228D2*
X486155D1*
X512717D2*
X762660D1*
X834629D2*
X1041204D1*
X1075771D2*
X1459511D1*
X1570850D2*
X2711479D1*
X2873999D2*
X2925708D1*
X421382Y1264423D2*
X475028D1*
X523844D2*
X762660D1*
X834629D2*
X1041204D1*
X1075771D2*
X1459511D1*
X1570850D2*
X2711479D1*
X2873999D2*
X2925708D1*
X421382Y1260617D2*
X468907D1*
X529965D2*
X762660D1*
X834629D2*
X1041204D1*
X1075771D2*
X1459511D1*
X1570850D2*
X2711487D1*
X2873999D2*
X2925708D1*
X421382Y1256811D2*
X464494D1*
X534379D2*
X762660D1*
X834629D2*
X1041204D1*
X1075771D2*
X1459511D1*
X1570850D2*
X2712194D1*
X2873292D2*
X2925708D1*
X421382Y1253005D2*
X461095D1*
X537777D2*
X762660D1*
X834629D2*
X1041204D1*
X1075771D2*
X1459511D1*
X1570850D2*
X2714424D1*
X2871062D2*
X2925708D1*
X421382Y1249199D2*
X458419D1*
X540453D2*
X762660D1*
X834629D2*
X1041204D1*
X1075771D2*
X1459511D1*
X1570850D2*
X2720784D1*
X2864703D2*
X2925708D1*
X421382Y1245394D2*
X456312D1*
X542552D2*
X762660D1*
X834629D2*
X1041204D1*
X1075771D2*
X1459511D1*
X1570850D2*
X2925708D1*
X421382Y1241588D2*
X454689D1*
X544183D2*
X762660D1*
X834629D2*
X1041204D1*
X1075771D2*
X1459511D1*
X1570850D2*
X2925708D1*
X421382Y1237782D2*
X453482D1*
X545390D2*
X762660D1*
X834629D2*
X1041204D1*
X1075771D2*
X1459511D1*
X1570850D2*
X2925708D1*
X421382Y1233976D2*
X452659D1*
X546213D2*
X762660D1*
X834629D2*
X1041204D1*
X1075771D2*
X1459511D1*
X1570850D2*
X2925708D1*
X421382Y1230171D2*
X452190D1*
X546682D2*
X762660D1*
X834629D2*
X1041204D1*
X1075771D2*
X1459511D1*
X1570850D2*
X2925708D1*
X421382Y1226365D2*
X452075D1*
X546789D2*
X762660D1*
X834629D2*
X1041204D1*
X1075771D2*
X1459511D1*
X1570850D2*
X2925708D1*
X421382Y1222559D2*
X452313D1*
X546559D2*
X762660D1*
X834629D2*
X1041204D1*
X1075771D2*
X1459511D1*
X1570850D2*
X2925708D1*
X421382Y1218753D2*
X452890D1*
X545982D2*
X762660D1*
X834629D2*
X1041204D1*
X1075771D2*
X1459511D1*
X1570850D2*
X2925708D1*
X421382Y1214948D2*
X453844D1*
X545028D2*
X762660D1*
X834629D2*
X1041204D1*
X1075771D2*
X1459511D1*
X1570850D2*
X2925708D1*
X421382Y1211142D2*
X455189D1*
X543683D2*
X762660D1*
X834629D2*
X1041204D1*
X1075771D2*
X1459511D1*
X1570850D2*
X2925708D1*
X421382Y1207336D2*
X456973D1*
X541899D2*
X762660D1*
X834629D2*
X1041204D1*
X1075771D2*
X1459511D1*
X1570850D2*
X2925708D1*
X421382Y1203530D2*
X459257D1*
X539615D2*
X762660D1*
X834629D2*
X1041204D1*
X1075771D2*
X1459511D1*
X1570850D2*
X2925708D1*
X421382Y1199724D2*
X462148D1*
X536716D2*
X762660D1*
X834629D2*
X1041204D1*
X1075771D2*
X1459511D1*
X1570850D2*
X2925708D1*
X421382Y1195919D2*
X465847D1*
X533025D2*
X762660D1*
X834629D2*
X1041204D1*
X1075771D2*
X1459511D1*
X1570850D2*
X2925708D1*
X421382Y1192113D2*
X470722D1*
X528150D2*
X762660D1*
X834629D2*
X1041204D1*
X1075771D2*
X1459511D1*
X1570850D2*
X2925708D1*
X421382Y1188307D2*
X477804D1*
X521068D2*
X762660D1*
X834629D2*
X1041204D1*
X1075771D2*
X1459511D1*
X1570850D2*
X2925708D1*
X421382Y1184501D2*
X762660D1*
X834629D2*
X1041204D1*
X1075771D2*
X1459511D1*
X1570850D2*
X2925708D1*
X421382Y1180696D2*
X762660D1*
X834629D2*
X1040658D1*
X1075771D2*
X1459511D1*
X1570850D2*
X2925708D1*
X421382Y1176890D2*
X762660D1*
X834629D2*
X1036851D1*
X1075771D2*
X1459511D1*
X1570850D2*
X2925708D1*
X421382Y1173084D2*
X762660D1*
X834629D2*
X1033045D1*
X1075732D2*
X1459511D1*
X1570850D2*
X2925708D1*
X421382Y1169278D2*
X762660D1*
X834629D2*
X1029239D1*
X1075025D2*
X1459511D1*
X1570850D2*
X2925708D1*
X421382Y1165472D2*
X477250D1*
X521614D2*
X762660D1*
X834629D2*
X1025433D1*
X1073310D2*
X1459511D1*
X1570850D2*
X2925708D1*
X421382Y1161667D2*
X470376D1*
X528496D2*
X762660D1*
X834629D2*
X1021626D1*
X1070188D2*
X1459511D1*
X1570850D2*
X2925708D1*
X421382Y1157861D2*
X465593D1*
X533279D2*
X762660D1*
X834629D2*
X1017820D1*
X1066382D2*
X1459511D1*
X1570850D2*
X2925708D1*
X421382Y1154055D2*
X461948D1*
X536924D2*
X762660D1*
X834629D2*
X1014014D1*
X1062576D2*
X1459511D1*
X1570850D2*
X2925708D1*
X421382Y1150249D2*
X459096D1*
X539777D2*
X762660D1*
X834629D2*
X1010207D1*
X1058770D2*
X1459511D1*
X1570850D2*
X2925708D1*
X421382Y1146444D2*
X456843D1*
X542030D2*
X762660D1*
X834629D2*
X1006401D1*
X1054963D2*
X1459511D1*
X1570850D2*
X2925708D1*
X421382Y1142638D2*
X455089D1*
X543775D2*
X762660D1*
X834629D2*
X1002595D1*
X1051157D2*
X1459511D1*
X1570850D2*
X2925708D1*
X421382Y1138832D2*
X453774D1*
X545098D2*
X762660D1*
X834629D2*
X998789D1*
X1047351D2*
X1459511D1*
X1570850D2*
X2925708D1*
X421382Y1135026D2*
X452844D1*
X546028D2*
X762660D1*
X834629D2*
X994982D1*
X1043544D2*
X1459511D1*
X1570850D2*
X2925708D1*
X421382Y1131220D2*
X452283D1*
X546589D2*
X762660D1*
X834629D2*
X991176D1*
X1039738D2*
X1459511D1*
X1570850D2*
X2925708D1*
X421382Y1127415D2*
X452075D1*
X546797D2*
X762053D1*
X834099D2*
X987377D1*
X1035932D2*
X1459511D1*
X1570850D2*
X2925708D1*
X421382Y1123609D2*
X452213D1*
X546659D2*
X758247D1*
X832122D2*
X983571D1*
X1032126D2*
X1459511D1*
X1570850D2*
X2925708D1*
X421382Y1119803D2*
X452698D1*
X546174D2*
X754440D1*
X828447D2*
X979765D1*
X1028319D2*
X1459511D1*
X1570850D2*
X2925708D1*
X421382Y1115997D2*
X453544D1*
X545328D2*
X750634D1*
X824641D2*
X975959D1*
X1024513D2*
X1459511D1*
X1570850D2*
X2925708D1*
X421382Y1112192D2*
X454774D1*
X544098D2*
X746828D1*
X820834D2*
X972152D1*
X1020707D2*
X1459511D1*
X1570850D2*
X2925708D1*
X421382Y1108386D2*
X456435D1*
X542437D2*
X743021D1*
X817028D2*
X968346D1*
X1016908D2*
X1459511D1*
X1570850D2*
X2925708D1*
X421382Y1104580D2*
X458565D1*
X540299D2*
X739215D1*
X813222D2*
X964540D1*
X1013102D2*
X1459511D1*
X1570850D2*
X2925708D1*
X421382Y1100774D2*
X461279D1*
X537585D2*
X735409D1*
X809423D2*
X960733D1*
X1009295D2*
X1459511D1*
X1570850D2*
X2715793D1*
X2869693D2*
X2925708D1*
X421382Y1096969D2*
X464732D1*
X534140D2*
X731603D1*
X805617D2*
X956927D1*
X1005489D2*
X1459511D1*
X1570850D2*
X2712763D1*
X2872715D2*
X2925708D1*
X421382Y1093163D2*
X469223D1*
X529650D2*
X727796D1*
X801811D2*
X953121D1*
X1001683D2*
X1459511D1*
X1570850D2*
X2711587D1*
X2873899D2*
X2925708D1*
X421382Y1089357D2*
X475505D1*
X523367D2*
X723990D1*
X798004D2*
X949315D1*
X997877D2*
X1459511D1*
X1570850D2*
X2711479D1*
X2873999D2*
X2925708D1*
X421382Y1085551D2*
X487508D1*
X511364D2*
X720184D1*
X794198D2*
X945508D1*
X994070D2*
X1459511D1*
X1570850D2*
X2711479D1*
X2873999D2*
X2925708D1*
X421382Y1081745D2*
X716377D1*
X790392D2*
X941702D1*
X990264D2*
X1059312D1*
X1065544D2*
X1459511D1*
X1570850D2*
X2711479D1*
X2873999D2*
X2925708D1*
X421382Y1077940D2*
X712579D1*
X786585D2*
X937896D1*
X986458D2*
X1048332D1*
X1076525D2*
X1459511D1*
X1570850D2*
X2711479D1*
X2873999D2*
X2925708D1*
X421382Y1074134D2*
X708773D1*
X782779D2*
X934089D1*
X982651D2*
X1043618D1*
X1081238D2*
X1459511D1*
X1570850D2*
X2711479D1*
X2873999D2*
X2925708D1*
X421382Y1070328D2*
X704966D1*
X778973D2*
X930291D1*
X1084306D2*
X1459511D1*
X1570850D2*
X2711479D1*
X2873999D2*
X2925708D1*
X421382Y1066522D2*
X477935D1*
X517000D2*
X701160D1*
X775167D2*
X926485D1*
X1086382D2*
X1459511D1*
X1570850D2*
X2711479D1*
X2873999D2*
X2925708D1*
X421382Y1062717D2*
X470022D1*
X524913D2*
X697354D1*
X771360D2*
X922678D1*
X1087713D2*
X1459511D1*
X1570850D2*
X2711479D1*
X2873999D2*
X2925708D1*
X421382Y1058911D2*
X464809D1*
X530126D2*
X693547D1*
X767554D2*
X918872D1*
X1088420D2*
X1459511D1*
X1570850D2*
X2711479D1*
X2873999D2*
X2925708D1*
X421382Y1055105D2*
X460895D1*
X534033D2*
X689741D1*
X763748D2*
X915066D1*
X1088551D2*
X1459511D1*
X1570850D2*
X2711479D1*
X2873999D2*
X2925708D1*
X421382Y1051299D2*
X457850D1*
X537085D2*
X685935D1*
X759941D2*
X911259D1*
X1088113D2*
X1459511D1*
X1570850D2*
X2711479D1*
X2873999D2*
X2925708D1*
X421382Y1047493D2*
X455443D1*
X539492D2*
X682129D1*
X756135D2*
X907453D1*
X1087074D2*
X1459511D1*
X1570850D2*
X2711479D1*
X2873999D2*
X2925708D1*
X421382Y1043688D2*
X453559D1*
X541376D2*
X678322D1*
X752337D2*
X903647D1*
X1085360D2*
X1459511D1*
X1570850D2*
X2711479D1*
X2873999D2*
X2925708D1*
X421382Y1039882D2*
X452129D1*
X542806D2*
X674516D1*
X748530D2*
X899841D1*
X1082784D2*
X1459511D1*
X1570850D2*
X2711479D1*
X2873999D2*
X2925708D1*
X421382Y1036076D2*
X451099D1*
X543837D2*
X670710D1*
X744724D2*
X896034D1*
X991840D2*
X1045902D1*
X1078954D2*
X1459511D1*
X1570850D2*
X2711479D1*
X2873999D2*
X2925708D1*
X421382Y1032270D2*
X450437D1*
X544498D2*
X666903D1*
X740918D2*
X892228D1*
X988034D2*
X1052384D1*
X1072472D2*
X1459511D1*
X1570850D2*
X2711479D1*
X2873999D2*
X2925708D1*
X421382Y1028465D2*
X450130D1*
X544805D2*
X663097D1*
X737111D2*
X888422D1*
X984228D2*
X1459511D1*
X1570850D2*
X2711479D1*
X2873999D2*
X2925708D1*
X421382Y1024659D2*
X450168D1*
X544767D2*
X659291D1*
X733305D2*
X884615D1*
X980422D2*
X1459511D1*
X1570850D2*
X2711479D1*
X2873999D2*
X2925708D1*
X421382Y1020853D2*
X450560D1*
X544375D2*
X655492D1*
X729499D2*
X880809D1*
X976615D2*
X1459511D1*
X1570850D2*
X2711479D1*
X2873999D2*
X2925708D1*
X421382Y1017047D2*
X451306D1*
X543629D2*
X651686D1*
X725693D2*
X877003D1*
X972809D2*
X1459511D1*
X1570850D2*
X2711479D1*
X2873999D2*
X2925708D1*
X421382Y1013241D2*
X452429D1*
X542506D2*
X647880D1*
X721886D2*
X873204D1*
X969003D2*
X1459511D1*
X1570850D2*
X2711479D1*
X2873999D2*
X2925708D1*
X421382Y1009436D2*
X453959D1*
X540976D2*
X645419D1*
X720456D2*
X869398D1*
X965196D2*
X1459511D1*
X1570850D2*
X2711479D1*
X2873999D2*
X2925708D1*
X421382Y1005630D2*
X455958D1*
X538977D2*
X644573D1*
X720456D2*
X865592D1*
X961390D2*
X1459511D1*
X1570850D2*
X2711479D1*
X2873999D2*
X2925708D1*
X421382Y1001824D2*
X458503D1*
X536432D2*
X644550D1*
X720456D2*
X861785D1*
X957584D2*
X1459511D1*
X1570850D2*
X2711479D1*
X2873999D2*
X2925708D1*
X421382Y998018D2*
X461725D1*
X533210D2*
X644550D1*
X720456D2*
X857979D1*
X953778D2*
X1459511D1*
X1570850D2*
X2711479D1*
X2873999D2*
X2925708D1*
X421382Y994213D2*
X465885D1*
X529050D2*
X644550D1*
X720456D2*
X854173D1*
X949971D2*
X1459511D1*
X1570850D2*
X2711479D1*
X2873999D2*
X2925708D1*
X421382Y990407D2*
X471537D1*
X523398D2*
X644550D1*
X767485D2*
X850366D1*
X946173D2*
X1459511D1*
X1570850D2*
X2711479D1*
X2873999D2*
X2925708D1*
X421382Y986601D2*
X480734D1*
X514201D2*
X644550D1*
X771337D2*
X846560D1*
X942366D2*
X1459511D1*
X1570850D2*
X2711479D1*
X2873999D2*
X2925708D1*
X421382Y982795D2*
X644550D1*
X775143D2*
X842754D1*
X938560D2*
X1459511D1*
X1570850D2*
X2711479D1*
X2873999D2*
X2925708D1*
X421382Y978990D2*
X644550D1*
X778950D2*
X838948D1*
X934754D2*
X1459511D1*
X1570850D2*
X2711479D1*
X2873999D2*
X2925708D1*
X421382Y975184D2*
X644550D1*
X782756D2*
X835141D1*
X930947D2*
X1459511D1*
X1570850D2*
X2711479D1*
X2873999D2*
X2925708D1*
X421382Y971378D2*
X644550D1*
X786562D2*
X831335D1*
X927141D2*
X1459511D1*
X1570850D2*
X2711479D1*
X2873999D2*
X2925708D1*
X421382Y967572D2*
X481310D1*
X513625D2*
X644550D1*
X789761D2*
X827529D1*
X923335D2*
X1459511D1*
X1570850D2*
X2711479D1*
X2873999D2*
X2925708D1*
X421382Y963766D2*
X471822D1*
X523113D2*
X644550D1*
X791138D2*
X823722D1*
X919529D2*
X1459511D1*
X1570850D2*
X2711479D1*
X2873999D2*
X2925708D1*
X421382Y959961D2*
X466085D1*
X528850D2*
X644550D1*
X791322D2*
X819916D1*
X915722D2*
X1459511D1*
X1570850D2*
X2711479D1*
X2873999D2*
X2925708D1*
X421382Y956155D2*
X461879D1*
X533056D2*
X644550D1*
X791322D2*
X816118D1*
X911916D2*
X1459511D1*
X1570850D2*
X2711479D1*
X2873999D2*
X2925708D1*
X421382Y952349D2*
X458619D1*
X536316D2*
X644642D1*
X791322D2*
X812311D1*
X908110D2*
X1459511D1*
X1570850D2*
X2711479D1*
X2873999D2*
X2925708D1*
X421382Y948543D2*
X456051D1*
X538885D2*
X645757D1*
X791322D2*
X808505D1*
X904303D2*
X1459511D1*
X1570850D2*
X2711479D1*
X2873999D2*
X2925708D1*
X421382Y944738D2*
X454036D1*
X540899D2*
X648641D1*
X791322D2*
X793526D1*
X900497D2*
X1459511D1*
X1570850D2*
X2711479D1*
X2873999D2*
X2925708D1*
X421382Y940932D2*
X452483D1*
X542452D2*
X652447D1*
X896691D2*
X1459511D1*
X1570850D2*
X2711479D1*
X2873999D2*
X2925708D1*
X421382Y937126D2*
X451345D1*
X543591D2*
X656246D1*
X892885D2*
X1459511D1*
X1570850D2*
X2711479D1*
X2873999D2*
X2925708D1*
X421382Y933320D2*
X450583D1*
X544352D2*
X660052D1*
X889086D2*
X1459511D1*
X1570850D2*
X2711479D1*
X2873999D2*
X2925708D1*
X421382Y929514D2*
X450183D1*
X544752D2*
X663858D1*
X885280D2*
X1459511D1*
X1570850D2*
X2711479D1*
X2873999D2*
X2925708D1*
X421382Y925709D2*
X450122D1*
X544805D2*
X667665D1*
X881473D2*
X1459511D1*
X1570850D2*
X2711479D1*
X2873999D2*
X2925708D1*
X421382Y921903D2*
X450414D1*
X544521D2*
X671471D1*
X879905D2*
X1459511D1*
X1570850D2*
X2711479D1*
X2873999D2*
X2925708D1*
X421382Y918097D2*
X451060D1*
X543875D2*
X675277D1*
X776351D2*
X780723D1*
X879566D2*
X1459511D1*
X1570850D2*
X2711479D1*
X2873999D2*
X2925708D1*
X421382Y914291D2*
X452075D1*
X542860D2*
X683113D1*
X768515D2*
X781653D1*
X878636D2*
X1459511D1*
X1570850D2*
X2711479D1*
X2873999D2*
X2925708D1*
X421382Y910486D2*
X453498D1*
X541437D2*
X783245D1*
X877044D2*
X1459511D1*
X1570850D2*
X2711479D1*
X2873999D2*
X2925708D1*
X421382Y906680D2*
X455358D1*
X539577D2*
X785644D1*
X827401D2*
X832888D1*
X874645D2*
X1459511D1*
X1570850D2*
X2711479D1*
X2873999D2*
X2925708D1*
X421382Y902874D2*
X457735D1*
X537193D2*
X789212D1*
X823833D2*
X836456D1*
X871077D2*
X1459511D1*
X1570850D2*
X2711479D1*
X2873999D2*
X2925708D1*
X421382Y899068D2*
X460756D1*
X534179D2*
X794995D1*
X818051D2*
X842239D1*
X865295D2*
X1459511D1*
X1570850D2*
X2711479D1*
X2873999D2*
X2925708D1*
X421382Y895262D2*
X464624D1*
X530311D2*
X1459511D1*
X1570850D2*
X2711479D1*
X2873999D2*
X2925708D1*
X421382Y891457D2*
X469769D1*
X525167D2*
X1459511D1*
X1570850D2*
X2711479D1*
X2873999D2*
X2925708D1*
X421382Y887651D2*
X477496D1*
X517431D2*
X1459511D1*
X1570850D2*
X2711479D1*
X2873999D2*
X2925708D1*
X421382Y883845D2*
X1459511D1*
X1570850D2*
X2711479D1*
X2873999D2*
X2925708D1*
X421382Y880039D2*
X1459865D1*
X1570850D2*
X2711479D1*
X2873999D2*
X2925708D1*
X421382Y876234D2*
X1461549D1*
X1570850D2*
X2711479D1*
X2873999D2*
X2925708D1*
X421382Y872428D2*
X1465040D1*
X1570850D2*
X2711479D1*
X2873999D2*
X2925708D1*
X421382Y868622D2*
X486632D1*
X508304D2*
X1468846D1*
X1570850D2*
X2711479D1*
X2873999D2*
X2925708D1*
X421382Y864816D2*
X473859D1*
X521076D2*
X1472652D1*
X1570850D2*
X2711479D1*
X2873999D2*
X2925708D1*
X421382Y861010D2*
X467469D1*
X527458D2*
X1476458D1*
X1570850D2*
X2711479D1*
X2873999D2*
X2925708D1*
X421382Y857205D2*
X462925D1*
X532010D2*
X1480265D1*
X1570850D2*
X2711479D1*
X2873999D2*
X2925708D1*
X421382Y853399D2*
X459442D1*
X535494D2*
X1484071D1*
X1570850D2*
X2711479D1*
X2873999D2*
X2925708D1*
X421382Y849593D2*
X456704D1*
X538231D2*
X1487877D1*
X1570850D2*
X2711479D1*
X2873999D2*
X2925708D1*
X421382Y845787D2*
X454543D1*
X540392D2*
X1491684D1*
X1570850D2*
X2711479D1*
X2873999D2*
X2925708D1*
X421382Y841982D2*
X452867D1*
X542068D2*
X1495490D1*
X1570850D2*
X2711479D1*
X2873999D2*
X2925708D1*
X421382Y838176D2*
X451621D1*
X543314D2*
X1498881D1*
X1570850D2*
X2711479D1*
X2873999D2*
X2925708D1*
X421382Y834370D2*
X450752D1*
X544175D2*
X1498881D1*
X1570850D2*
X2711479D1*
X2873999D2*
X2925708D1*
X421382Y830564D2*
X450253D1*
X544675D2*
X1498881D1*
X1570850D2*
X2711479D1*
X2873999D2*
X2925708D1*
X421382Y826759D2*
X450107D1*
X544829D2*
X1498881D1*
X1570850D2*
X2711479D1*
X2873999D2*
X2925708D1*
X421382Y822953D2*
X450299D1*
X544636D2*
X1498881D1*
X1570850D2*
X2711479D1*
X2873999D2*
X2925708D1*
X421382Y819147D2*
X450845D1*
X544090D2*
X1498881D1*
X1570850D2*
X2711479D1*
X2873999D2*
X2925708D1*
X421382Y815341D2*
X451760D1*
X543175D2*
X1498881D1*
X1570850D2*
X2711479D1*
X2873999D2*
X2925708D1*
X421382Y811535D2*
X453059D1*
X541876D2*
X1498881D1*
X1570850D2*
X2711479D1*
X2873999D2*
X2925708D1*
X421382Y807730D2*
X454797D1*
X540138D2*
X1498881D1*
X1570850D2*
X2711479D1*
X2873999D2*
X2925708D1*
X421382Y803924D2*
X457027D1*
X537908D2*
X1498881D1*
X1570850D2*
X2711479D1*
X2873999D2*
X2925708D1*
X421382Y800118D2*
X459849D1*
X535086D2*
X1498881D1*
X1570850D2*
X2711479D1*
X2873999D2*
X2925708D1*
X421382Y796312D2*
X463455D1*
X531480D2*
X1498881D1*
X1570850D2*
X2711479D1*
X2873999D2*
X2925708D1*
X421382Y792507D2*
X468177D1*
X526758D2*
X1498881D1*
X1570850D2*
X2711479D1*
X2873999D2*
X2925708D1*
X421382Y788701D2*
X474928D1*
X520007D2*
X1498881D1*
X1570850D2*
X2711479D1*
X2873999D2*
X2925708D1*
X421382Y784895D2*
X1498881D1*
X1570850D2*
X2711479D1*
X2873999D2*
X2925708D1*
X421382Y781089D2*
X1498881D1*
X1570850D2*
X2711479D1*
X2873999D2*
X2925708D1*
X421382Y777283D2*
X1498881D1*
X1570850D2*
X2711479D1*
X2873999D2*
X2925708D1*
X421382Y773478D2*
X1498881D1*
X1570850D2*
X2711479D1*
X2873999D2*
X2925708D1*
X421382Y769672D2*
X1498881D1*
X1570850D2*
X2711479D1*
X2873999D2*
X2925708D1*
X421382Y765866D2*
X476220D1*
X518715D2*
X1498881D1*
X1570850D2*
X2711479D1*
X2873999D2*
X2925708D1*
X421382Y762060D2*
X468992D1*
X525943D2*
X1498881D1*
X1570850D2*
X2711479D1*
X2873999D2*
X2925708D1*
X421382Y758255D2*
X464055D1*
X530880D2*
X1498881D1*
X1570850D2*
X2711479D1*
X2873999D2*
X2925708D1*
X421382Y754449D2*
X460318D1*
X534617D2*
X1498881D1*
X1570850D2*
X2711479D1*
X2873999D2*
X2925708D1*
X421382Y750643D2*
X457396D1*
X537539D2*
X1498881D1*
X1570850D2*
X2711479D1*
X2873999D2*
X2925708D1*
X421382Y746837D2*
X455082D1*
X539846D2*
X1498881D1*
X1570850D2*
X2711479D1*
X2873999D2*
X2925708D1*
X421382Y743031D2*
X453282D1*
X541653D2*
X1498881D1*
X1570850D2*
X2711479D1*
X2873999D2*
X2925708D1*
X421382Y739226D2*
X451921D1*
X543014D2*
X1498881D1*
X1570850D2*
X2711479D1*
X2873999D2*
X2925708D1*
X421382Y735420D2*
X450960D1*
X543975D2*
X1498881D1*
X1570850D2*
X2711479D1*
X2873999D2*
X2925708D1*
X421382Y731614D2*
X450360D1*
X544575D2*
X1498881D1*
X1570850D2*
X2711479D1*
X2873999D2*
X2925708D1*
X421382Y727808D2*
X450114D1*
X544821D2*
X1498881D1*
X1570850D2*
X2711479D1*
X2873999D2*
X2925708D1*
X421382Y724003D2*
X450214D1*
X544721D2*
X1498881D1*
X1570850D2*
X2711479D1*
X2873999D2*
X2925708D1*
X421382Y720197D2*
X450660D1*
X544275D2*
X1498881D1*
X1570850D2*
X2711479D1*
X2873999D2*
X2925708D1*
X421382Y716391D2*
X451468D1*
X543467D2*
X1498881D1*
X1570850D2*
X2711479D1*
X2873999D2*
X2925708D1*
X421382Y712585D2*
X452659D1*
X542276D2*
X1498881D1*
X1570850D2*
X2711479D1*
X2873999D2*
X2925708D1*
X421382Y708780D2*
X454267D1*
X540661D2*
X1498881D1*
X1570850D2*
X2711479D1*
X2873999D2*
X2925708D1*
X421382Y704974D2*
X456358D1*
X538577D2*
X1498881D1*
X1570850D2*
X2711479D1*
X2873999D2*
X2925708D1*
X421382Y701168D2*
X459003D1*
X535932D2*
X1498881D1*
X1570850D2*
X2711479D1*
X2873999D2*
X2925708D1*
X421382Y697362D2*
X462364D1*
X532564D2*
X1498881D1*
X1570850D2*
X2711479D1*
X2873999D2*
X2925708D1*
X421382Y693556D2*
X466731D1*
X528204D2*
X1498881D1*
X1570850D2*
X2711487D1*
X2873999D2*
X2925708D1*
X421382Y689751D2*
X472752D1*
X522183D2*
X1498881D1*
X1570850D2*
X2712241D1*
X2873246D2*
X2925708D1*
X421382Y685945D2*
X483402D1*
X511533D2*
X1498881D1*
X1570850D2*
X2714540D1*
X2870947D2*
X2925708D1*
X421382Y682139D2*
X1498881D1*
X1570850D2*
X2721437D1*
X2864049D2*
X2925708D1*
X421382Y678333D2*
X1498881D1*
X1570850D2*
X2925708D1*
X421382Y674528D2*
X1498881D1*
X1570850D2*
X2925708D1*
X421382Y670722D2*
X1498881D1*
X1570850D2*
X2925708D1*
X421382Y666916D2*
X1498881D1*
X1570850D2*
X2925708D1*
X421382Y663110D2*
X1498881D1*
X1570850D2*
X2925708D1*
X421382Y659304D2*
X1498881D1*
X1570850D2*
X2925708D1*
X421382Y655499D2*
X1498881D1*
X1570850D2*
X2925708D1*
X421382Y651693D2*
X527278D1*
X573956D2*
X1498881D1*
X1570850D2*
X2771373D1*
X2818051D2*
X2925708D1*
X421382Y647887D2*
X514598D1*
X586636D2*
X1498881D1*
X1570850D2*
X2758693D1*
X2830731D2*
X2925708D1*
X421382Y644081D2*
X505694D1*
X595541D2*
X1498881D1*
X1570850D2*
X2749788D1*
X2839635D2*
X2925708D1*
X421382Y640276D2*
X498573D1*
X602661D2*
X1499142D1*
X1570596D2*
X2742668D1*
X2846756D2*
X2925708D1*
X421382Y636470D2*
X492568D1*
X608659D2*
X1500665D1*
X1569066D2*
X2736662D1*
X2852753D2*
X2925708D1*
X421382Y632664D2*
X487370D1*
X613865D2*
X1504017D1*
X1565721D2*
X2731464D1*
X2857959D2*
X2925708D1*
X421382Y628858D2*
X482779D1*
X618455D2*
X1507824D1*
X1561915D2*
X2726874D1*
X2862550D2*
X2925708D1*
X421382Y625052D2*
X478688D1*
X622546D2*
X1511630D1*
X1558108D2*
X2722783D1*
X2866640D2*
X2925708D1*
X421382Y621247D2*
X475005D1*
X626229D2*
X1515652D1*
X1554087D2*
X2719100D1*
X2870324D2*
X2925708D1*
X421382Y617441D2*
X471683D1*
X629551D2*
X2715778D1*
X2873646D2*
X2925708D1*
X421382Y613635D2*
X468669D1*
X632565D2*
X2712763D1*
X2876660D2*
X2925708D1*
X421382Y609829D2*
X465939D1*
X635295D2*
X2710034D1*
X2879390D2*
X2925708D1*
X421382Y606024D2*
X463463D1*
X637771D2*
X2707558D1*
X2881866D2*
X2925708D1*
X421382Y602218D2*
X461210D1*
X640024D2*
X2705305D1*
X2884119D2*
X2925708D1*
X421382Y598412D2*
X459180D1*
X642054D2*
X2703275D1*
X2886149D2*
X2925708D1*
X421382Y594606D2*
X457342D1*
X643892D2*
X2701437D1*
X2887986D2*
X2925708D1*
X421382Y590801D2*
X455697D1*
X645537D2*
X2699791D1*
X2889632D2*
X2925708D1*
X421382Y586995D2*
X454236D1*
X646998D2*
X2698330D1*
X2891093D2*
X2925708D1*
X421382Y583189D2*
X452936D1*
X648298D2*
X2697031D1*
X2892393D2*
X2925708D1*
X421382Y579383D2*
X451806D1*
X649428D2*
X2695900D1*
X2893523D2*
X2925708D1*
X421382Y575577D2*
X450837D1*
X650397D2*
X2694932D1*
X2894492D2*
X2925708D1*
X421382Y571772D2*
X450014D1*
X651220D2*
X2694109D1*
X2895314D2*
X2925708D1*
X421382Y567966D2*
X449345D1*
X651889D2*
X2693440D1*
X2895983D2*
X2925708D1*
X421382Y564160D2*
X448822D1*
X652404D2*
X2692917D1*
X2896499D2*
X2925708D1*
X421382Y560354D2*
X448446D1*
X652781D2*
X2692540D1*
X2896875D2*
X2925708D1*
X421382Y556549D2*
X448215D1*
X653019D2*
X2692309D1*
X2897114D2*
X2925708D1*
X421382Y552743D2*
X448123D1*
X653112D2*
X2692217D1*
X2897206D2*
X2925708D1*
X421382Y548937D2*
X448177D1*
X653058D2*
X2692271D1*
X2897152D2*
X2925708D1*
X421382Y545131D2*
X448369D1*
X652866D2*
X2692463D1*
X2896960D2*
X2925708D1*
X421382Y541325D2*
X448707D1*
X652527D2*
X2692802D1*
X2896622D2*
X2925708D1*
X421382Y537520D2*
X449184D1*
X652050D2*
X2693278D1*
X2896145D2*
X2925708D1*
X421382Y533714D2*
X449814D1*
X651420D2*
X2693909D1*
X2895514D2*
X2925708D1*
X421382Y529908D2*
X450591D1*
X650643D2*
X2694686D1*
X2894738D2*
X2925708D1*
X421382Y526102D2*
X451514D1*
X649721D2*
X2695608D1*
X2893815D2*
X2925708D1*
X421382Y522297D2*
X452606D1*
X648629D2*
X2696700D1*
X2892723D2*
X2925708D1*
X421382Y518491D2*
X453851D1*
X647383D2*
X2697946D1*
X2891477D2*
X2925708D1*
X421382Y514685D2*
X455266D1*
X645968D2*
X2699361D1*
X2890063D2*
X2925708D1*
X421382Y510879D2*
X456858D1*
X644376D2*
X2700952D1*
X2888471D2*
X2925708D1*
X421382Y507073D2*
X458642D1*
X642592D2*
X2702736D1*
X2886687D2*
X2925708D1*
X421382Y503268D2*
X460618D1*
X640616D2*
X2704713D1*
X2884711D2*
X2925708D1*
X421382Y499462D2*
X462802D1*
X638432D2*
X2706896D1*
X2882527D2*
X2925708D1*
X421382Y495656D2*
X465216D1*
X636018D2*
X2709311D1*
X2880112D2*
X2925708D1*
X421436Y491850D2*
X467869D1*
X633365D2*
X2711964D1*
X2877460D2*
X2925646D1*
X421628Y488045D2*
X470799D1*
X630435D2*
X2714893D1*
X2874530D2*
X2925462D1*
X421928Y484239D2*
X474036D1*
X627198D2*
X2718131D1*
X2871293D2*
X2925154D1*
X422497Y480433D2*
X477604D1*
X623630D2*
X2721699D1*
X2867725D2*
X2924593D1*
X423258Y476627D2*
X481580D1*
X619655D2*
X2725674D1*
X2863749D2*
X2923832D1*
X424212Y472822D2*
X486016D1*
X615218D2*
X2730111D1*
X2859312D2*
X2922870D1*
X425450Y469016D2*
X491030D1*
X610204D2*
X2735124D1*
X2854299D2*
X2921640D1*
X426803Y465210D2*
X496782D1*
X604453D2*
X2740876D1*
X2848547D2*
X2920287D1*
X428595Y461404D2*
X503533D1*
X597694D2*
X2747627D1*
X2841788D2*
X2918495D1*
X430548Y457598D2*
X511830D1*
X589404D2*
X2755924D1*
X2833499D2*
X2916542D1*
X432816Y453793D2*
X523033D1*
X578201D2*
X2767128D1*
X2822295D2*
X2914266D1*
X435484Y449987D2*
X2911598D1*
X438460Y446181D2*
X2908622D1*
X441913Y442375D2*
X2905162D1*
X446027Y438570D2*
X2901063D1*
X450825Y434764D2*
X2896257D1*
X456646Y430958D2*
X2890444D1*
X464005Y427152D2*
X2883085D1*
X475100Y423346D2*
X2871989D1*
X2896792Y550236D2*
X2896640Y546303D1*
X2896337Y542377D1*
X2895883Y538467D1*
X2895278Y534577D1*
X2894523Y530713D1*
X2893621Y526881D1*
X2892571Y523087D1*
X2891376Y519336D1*
X2890037Y515634D1*
X2888556Y511986D1*
X2886936Y508398D1*
X2885179Y504876D1*
X2883287Y501423D1*
X2881263Y498046D1*
X2879111Y494750D1*
X2876833Y491539D1*
X2874434Y488418D1*
X2871915Y485392D1*
X2869282Y482466D1*
X2866538Y479643D1*
X2863688Y476928D1*
X2860734Y474325D1*
X2857683Y471837D1*
X2854538Y469469D1*
X2851304Y467224D1*
X2847986Y465106D1*
X2844588Y463117D1*
X2841117Y461260D1*
X2837576Y459539D1*
X2833972Y457955D1*
X2830310Y456512D1*
X2826594Y455211D1*
X2822831Y454054D1*
X2819026Y453043D1*
X2815186Y452179D1*
X2811314Y451464D1*
X2807418Y450899D1*
X2803503Y450484D1*
X2799576Y450221D1*
X2795640Y450109D1*
X2791704Y450149D1*
X2787772Y450341D1*
X2783850Y450684D1*
X2779944Y451179D1*
X2776061Y451823D1*
X2772205Y452617D1*
X2768382Y453558D1*
X2764599Y454647D1*
X2760860Y455880D1*
X2757172Y457257D1*
X2753540Y458774D1*
X2749968Y460431D1*
X2746464Y462224D1*
X2743031Y464151D1*
X2739675Y466209D1*
X2736400Y468394D1*
X2733213Y470705D1*
X2730117Y473136D1*
X2727116Y475685D1*
X2724217Y478348D1*
X2721422Y481120D1*
X2718736Y483998D1*
X2716163Y486978D1*
X2713707Y490055D1*
X2711371Y493224D1*
X2709159Y496480D1*
X2707075Y499820D1*
X2705120Y503237D1*
X2703299Y506727D1*
X2701614Y510285D1*
X2700067Y513905D1*
X2698661Y517582D1*
X2697398Y521311D1*
X2696279Y525085D1*
X2695307Y528900D1*
X2694482Y532750D1*
X2693807Y536628D1*
X2693281Y540530D1*
X2692907Y544449D1*
X2692683Y548379D1*
X2692612Y552315D1*
X2692692Y556251D1*
X2692924Y560181D1*
X2693307Y564099D1*
X2693841Y567999D1*
X2694525Y571876D1*
X2695357Y575724D1*
X2696338Y579537D1*
X2697465Y583309D1*
X2698736Y587035D1*
X2700150Y590709D1*
X2701705Y594325D1*
X2703398Y597880D1*
X2705226Y601366D1*
X2707188Y604779D1*
X2709280Y608114D1*
X2711499Y611366D1*
X2713841Y614530D1*
X2716304Y617601D1*
X2718884Y620575D1*
X2721576Y623448D1*
X2724377Y626214D1*
X2727282Y628870D1*
X2730288Y631413D1*
X2733389Y633838D1*
X2736582Y636141D1*
X2739861Y638320D1*
X2743221Y640370D1*
X2746658Y642290D1*
X2750167Y644075D1*
X2753742Y645724D1*
X2757377Y647234D1*
X2761069Y648602D1*
X2764810Y649828D1*
X2768596Y650908D1*
X2772420Y651841D1*
X2776278Y652627D1*
X2780163Y653263D1*
X2784069Y653748D1*
X2787992Y654083D1*
X2791924Y654266D1*
X2795861Y654298D1*
X2799796Y654178D1*
X2803723Y653906D1*
X2807637Y653483D1*
X2811532Y652909D1*
X2815402Y652186D1*
X2819241Y651314D1*
X2823043Y650295D1*
X2826804Y649130D1*
X2830516Y647820D1*
X2834176Y646369D1*
X2837777Y644778D1*
X2841313Y643049D1*
X2844781Y641184D1*
X2848174Y639188D1*
X2851487Y637062D1*
X2854717Y634811D1*
X2857856Y632436D1*
X2860902Y629942D1*
X2863850Y627332D1*
X2866695Y624611D1*
X2869433Y621782D1*
X2872060Y618850D1*
X2874571Y615819D1*
X2876964Y612693D1*
X2879235Y609477D1*
X2881380Y606176D1*
X2883396Y602795D1*
X2885281Y599338D1*
X2887030Y595812D1*
X2888643Y592220D1*
X2890116Y588569D1*
X2891447Y584864D1*
X2892634Y581111D1*
X2893675Y577314D1*
X2894570Y573480D1*
X2895316Y569615D1*
X2895912Y565724D1*
X2896358Y561812D1*
X2896653Y557887D1*
X2896796Y553952D1*
X2896792Y550236D1*
Y1810079D2*
X2896640Y1806145D1*
X2896337Y1802220D1*
X2895883Y1798310D1*
X2895278Y1794419D1*
X2894523Y1790556D1*
X2893621Y1786724D1*
X2892571Y1782930D1*
X2891376Y1779179D1*
X2890037Y1775477D1*
X2888556Y1771829D1*
X2886936Y1768241D1*
X2885179Y1764718D1*
X2883287Y1761266D1*
X2881263Y1757889D1*
X2879111Y1754593D1*
X2876833Y1751382D1*
X2874434Y1748261D1*
X2871915Y1745235D1*
X2869282Y1742308D1*
X2866538Y1739485D1*
X2863688Y1736770D1*
X2860734Y1734167D1*
X2857683Y1731680D1*
X2854538Y1729312D1*
X2851304Y1727067D1*
X2847986Y1724948D1*
X2844588Y1722959D1*
X2841117Y1721103D1*
X2837576Y1719382D1*
X2833972Y1717798D1*
X2830310Y1716354D1*
X2826594Y1715053D1*
X2822831Y1713896D1*
X2819026Y1712885D1*
X2815186Y1712021D1*
X2811314Y1711307D1*
X2807418Y1710741D1*
X2803503Y1710327D1*
X2799576Y1710063D1*
X2795640Y1709952D1*
X2791704Y1709992D1*
X2787772Y1710184D1*
X2783850Y1710527D1*
X2779944Y1711021D1*
X2776061Y1711665D1*
X2772205Y1712459D1*
X2768382Y1713401D1*
X2764599Y1714489D1*
X2760860Y1715722D1*
X2757172Y1717099D1*
X2753540Y1718617D1*
X2749968Y1720273D1*
X2746464Y1722067D1*
X2743031Y1723993D1*
X2739675Y1726051D1*
X2736400Y1728237D1*
X2733213Y1730547D1*
X2730117Y1732978D1*
X2727116Y1735527D1*
X2724217Y1738190D1*
X2721422Y1740963D1*
X2718736Y1743841D1*
X2716163Y1746821D1*
X2713707Y1749897D1*
X2711371Y1753066D1*
X2709159Y1756323D1*
X2707075Y1759662D1*
X2705120Y1763080D1*
X2703299Y1766570D1*
X2701614Y1770128D1*
X2700067Y1773748D1*
X2698661Y1777425D1*
X2697398Y1781154D1*
X2696279Y1784928D1*
X2695307Y1788743D1*
X2694482Y1792592D1*
X2693807Y1796471D1*
X2693281Y1800372D1*
X2692907Y1804291D1*
X2692683Y1808221D1*
X2692612Y1812158D1*
X2692692Y1816094D1*
X2692924Y1820023D1*
X2693307Y1823942D1*
X2693841Y1827842D1*
X2694525Y1831719D1*
X2695357Y1835567D1*
X2696338Y1839379D1*
X2697465Y1843151D1*
X2698736Y1846877D1*
X2700150Y1850551D1*
X2701705Y1854168D1*
X2703398Y1857722D1*
X2705226Y1861208D1*
X2707188Y1864622D1*
X2709280Y1867957D1*
X2711499Y1871208D1*
X2713841Y1874372D1*
X2716304Y1877444D1*
X2718884Y1880418D1*
X2721576Y1883290D1*
X2724377Y1886057D1*
X2727282Y1888713D1*
X2730288Y1891255D1*
X2733389Y1893680D1*
X2736582Y1895984D1*
X2739861Y1898162D1*
X2743221Y1900213D1*
X2746658Y1902132D1*
X2750167Y1903918D1*
X2753742Y1905566D1*
X2757377Y1907076D1*
X2761069Y1908445D1*
X2764810Y1909670D1*
X2768596Y1910750D1*
X2772420Y1911684D1*
X2776278Y1912469D1*
X2780163Y1913105D1*
X2784069Y1913591D1*
X2787992Y1913926D1*
X2791924Y1914109D1*
X2795861Y1914141D1*
X2799796Y1914020D1*
X2803723Y1913748D1*
X2807637Y1913325D1*
X2811532Y1912752D1*
X2815402Y1912029D1*
X2819241Y1911157D1*
X2823043Y1910137D1*
X2826804Y1908972D1*
X2830516Y1907663D1*
X2834176Y1906211D1*
X2837777Y1904620D1*
X2841313Y1902891D1*
X2844781Y1901027D1*
X2848174Y1899031D1*
X2851487Y1896905D1*
X2854717Y1894653D1*
X2857856Y1892278D1*
X2860902Y1889785D1*
X2863850Y1887175D1*
X2866695Y1884454D1*
X2869433Y1881625D1*
X2872060Y1878693D1*
X2874571Y1875661D1*
X2876964Y1872535D1*
X2879235Y1869319D1*
X2881380Y1866018D1*
X2883396Y1862637D1*
X2885281Y1859181D1*
X2887030Y1855654D1*
X2888643Y1852063D1*
X2890116Y1848412D1*
X2891447Y1844707D1*
X2892634Y1840953D1*
X2893675Y1837157D1*
X2894570Y1833323D1*
X2895316Y1829458D1*
X2895912Y1825566D1*
X2896358Y1821655D1*
X2896653Y1817729D1*
X2896796Y1813795D1*
X2896792Y1810079D1*
X652698Y550236D2*
X652546Y546303D1*
X652242Y542377D1*
X651788Y538467D1*
X651183Y534577D1*
X650429Y530713D1*
X649526Y526881D1*
X648476Y523087D1*
X647281Y519336D1*
X645942Y515634D1*
X644462Y511986D1*
X642841Y508398D1*
X641084Y504876D1*
X639192Y501423D1*
X637169Y498046D1*
X635017Y494750D1*
X632739Y491539D1*
X630339Y488418D1*
X627821Y485392D1*
X625188Y482466D1*
X622444Y479643D1*
X619593Y476928D1*
X616640Y474325D1*
X613588Y471837D1*
X610443Y469469D1*
X607209Y467224D1*
X603891Y465106D1*
X600494Y463117D1*
X597022Y461260D1*
X593482Y459539D1*
X589878Y457955D1*
X586215Y456512D1*
X582500Y455211D1*
X578737Y454054D1*
X574932Y453043D1*
X571091Y452179D1*
X567220Y451464D1*
X563324Y450899D1*
X559409Y450484D1*
X555481Y450221D1*
X551546Y450109D1*
X547609Y450149D1*
X543677Y450341D1*
X539755Y450684D1*
X535850Y451179D1*
X531966Y451823D1*
X528110Y452617D1*
X524288Y453558D1*
X520504Y454647D1*
X516766Y455880D1*
X513078Y457257D1*
X509445Y458774D1*
X505874Y460431D1*
X502369Y462224D1*
X498936Y464151D1*
X495580Y466209D1*
X492306Y468394D1*
X489118Y470705D1*
X486022Y473136D1*
X483022Y475685D1*
X480122Y478348D1*
X477327Y481120D1*
X474641Y483998D1*
X472069Y486978D1*
X469612Y490055D1*
X467277Y493224D1*
X465065Y496480D1*
X462980Y499820D1*
X461026Y503237D1*
X459205Y506727D1*
X457519Y510285D1*
X455973Y513905D1*
X454567Y517582D1*
X453303Y521311D1*
X452185Y525085D1*
X451212Y528900D1*
X450388Y532750D1*
X449712Y536628D1*
X449187Y540530D1*
X448812Y544449D1*
X448589Y548379D1*
X448517Y552315D1*
X448597Y556251D1*
X448829Y560181D1*
X449212Y564099D1*
X449746Y567999D1*
X450430Y571876D1*
X451263Y575724D1*
X452243Y579537D1*
X453370Y583309D1*
X454642Y587035D1*
X456056Y590709D1*
X457610Y594325D1*
X459303Y597880D1*
X461132Y601366D1*
X463094Y604779D1*
X465185Y608114D1*
X467404Y611366D1*
X469747Y614530D1*
X472210Y617601D1*
X474789Y620575D1*
X477481Y623448D1*
X480282Y626214D1*
X483187Y628870D1*
X486193Y631413D1*
X489295Y633838D1*
X492487Y636141D1*
X495766Y638320D1*
X499127Y640370D1*
X502564Y642290D1*
X506072Y644075D1*
X509647Y645724D1*
X513283Y647234D1*
X516974Y648602D1*
X520715Y649828D1*
X524501Y650908D1*
X528326Y651841D1*
X532183Y652627D1*
X536068Y653263D1*
X539975Y653748D1*
X543897Y654083D1*
X547830Y654266D1*
X551767Y654298D1*
X555701Y654178D1*
X559629Y653906D1*
X563543Y653483D1*
X567438Y652909D1*
X571307Y652186D1*
X575146Y651314D1*
X578949Y650295D1*
X582709Y649130D1*
X586422Y647820D1*
X590081Y646369D1*
X593682Y644778D1*
X597219Y643049D1*
X600686Y641184D1*
X604079Y639188D1*
X607393Y637062D1*
X610622Y634811D1*
X613762Y632436D1*
X616808Y629942D1*
X619756Y627332D1*
X622600Y624611D1*
X625338Y621782D1*
X627965Y618850D1*
X630477Y615819D1*
X632870Y612693D1*
X635141Y609477D1*
X637286Y606176D1*
X639302Y602795D1*
X641186Y599338D1*
X642936Y595812D1*
X644548Y592220D1*
X646021Y588569D1*
X647352Y584864D1*
X648539Y581111D1*
X649581Y577314D1*
X650475Y573480D1*
X651221Y569615D1*
X651818Y565724D1*
X652263Y561812D1*
X652558Y557887D1*
X652702Y553952D1*
X652698Y550236D1*
Y1810079D2*
X652546Y1806145D1*
X652242Y1802220D1*
X651788Y1798310D1*
X651183Y1794419D1*
X650429Y1790556D1*
X649526Y1786724D1*
X648476Y1782930D1*
X647281Y1779179D1*
X645942Y1775477D1*
X644462Y1771829D1*
X642841Y1768241D1*
X641084Y1764718D1*
X639192Y1761266D1*
X637169Y1757889D1*
X635017Y1754593D1*
X632739Y1751382D1*
X630339Y1748261D1*
X627821Y1745235D1*
X625188Y1742308D1*
X622444Y1739485D1*
X619593Y1736770D1*
X616640Y1734167D1*
X613588Y1731680D1*
X610443Y1729312D1*
X607209Y1727067D1*
X603891Y1724948D1*
X600494Y1722959D1*
X597022Y1721103D1*
X593482Y1719382D1*
X589878Y1717798D1*
X586215Y1716354D1*
X582500Y1715053D1*
X578737Y1713896D1*
X574932Y1712885D1*
X571091Y1712021D1*
X567220Y1711307D1*
X563324Y1710741D1*
X559409Y1710327D1*
X555481Y1710063D1*
X551546Y1709952D1*
X547609Y1709992D1*
X543677Y1710184D1*
X539755Y1710527D1*
X535850Y1711021D1*
X531966Y1711665D1*
X528110Y1712459D1*
X524288Y1713401D1*
X520504Y1714489D1*
X516766Y1715722D1*
X513078Y1717099D1*
X509445Y1718617D1*
X505874Y1720273D1*
X502369Y1722067D1*
X498936Y1723993D1*
X495580Y1726051D1*
X492306Y1728237D1*
X489118Y1730547D1*
X486022Y1732978D1*
X483022Y1735527D1*
X480122Y1738190D1*
X477327Y1740963D1*
X474641Y1743841D1*
X472069Y1746821D1*
X469612Y1749897D1*
X467277Y1753066D1*
X465065Y1756323D1*
X462980Y1759662D1*
X461026Y1763080D1*
X459205Y1766570D1*
X457519Y1770128D1*
X455973Y1773748D1*
X454567Y1777425D1*
X453303Y1781154D1*
X452185Y1784928D1*
X451212Y1788743D1*
X450388Y1792592D1*
X449712Y1796471D1*
X449187Y1800372D1*
X448812Y1804291D1*
X448589Y1808221D1*
X448517Y1812158D1*
X448597Y1816094D1*
X448829Y1820023D1*
X449212Y1823942D1*
X449746Y1827842D1*
X450430Y1831719D1*
X451263Y1835567D1*
X452243Y1839379D1*
X453370Y1843151D1*
X454642Y1846877D1*
X456056Y1850551D1*
X457610Y1854168D1*
X459303Y1857722D1*
X461132Y1861208D1*
X463094Y1864622D1*
X465185Y1867957D1*
X467404Y1871208D1*
X469747Y1874372D1*
X472210Y1877444D1*
X474789Y1880418D1*
X477481Y1883290D1*
X480282Y1886057D1*
X483187Y1888713D1*
X486193Y1891255D1*
X489295Y1893680D1*
X492487Y1895984D1*
X495766Y1898162D1*
X499127Y1900213D1*
X502564Y1902132D1*
X506072Y1903918D1*
X509647Y1905566D1*
X513283Y1907076D1*
X516974Y1908445D1*
X520715Y1909670D1*
X524501Y1910750D1*
X528326Y1911684D1*
X532183Y1912469D1*
X536068Y1913105D1*
X539975Y1913591D1*
X543897Y1913926D1*
X547830Y1914109D1*
X551767Y1914141D1*
X555701Y1914020D1*
X559629Y1913748D1*
X563543Y1913325D1*
X567438Y1912752D1*
X571307Y1912029D1*
X575146Y1911157D1*
X578949Y1910137D1*
X582709Y1908972D1*
X586422Y1907663D1*
X590081Y1906211D1*
X593682Y1904620D1*
X597219Y1902891D1*
X600686Y1901027D1*
X604079Y1899031D1*
X607393Y1896905D1*
X610622Y1894653D1*
X613762Y1892278D1*
X616808Y1889785D1*
X619756Y1887175D1*
X622600Y1884454D1*
X625338Y1881625D1*
X627965Y1878693D1*
X630477Y1875661D1*
X632870Y1872535D1*
X635141Y1869319D1*
X637286Y1866018D1*
X639302Y1862637D1*
X641186Y1859181D1*
X642936Y1855654D1*
X644548Y1852063D1*
X646021Y1848412D1*
X647352Y1844707D1*
X648539Y1840953D1*
X649581Y1837157D1*
X650475Y1833323D1*
X651221Y1829458D1*
X651818Y1825566D1*
X652263Y1821655D1*
X652558Y1817729D1*
X652702Y1813795D1*
X652698Y1810079D1*
X492469Y985051D2*
X489496Y985145D1*
X485588Y985607D1*
X481740Y986433D1*
X477986Y987617D1*
X474360Y989146D1*
X470893Y991009D1*
X467616Y993188D1*
X464557Y995665D1*
X461744Y998417D1*
X459201Y1001420D1*
X456951Y1004649D1*
X455012Y1008074D1*
X453403Y1011666D1*
X452138Y1015392D1*
X451227Y1019221D1*
X450679Y1023118D1*
X450499Y1027050D1*
X450687Y1030981D1*
X451243Y1034877D1*
X452161Y1038704D1*
X453434Y1042428D1*
X455050Y1046016D1*
X456995Y1049438D1*
X459252Y1052662D1*
X461801Y1055660D1*
X464620Y1058407D1*
X467684Y1060877D1*
X470965Y1063050D1*
X474436Y1064905D1*
X478065Y1066428D1*
X481821Y1067604D1*
X485670Y1068422D1*
X489579Y1068877D1*
X492461Y1068965D1*
X503514Y1068963D1*
X507439Y1068681D1*
X511321Y1068032D1*
X515125Y1067022D1*
X518818Y1065660D1*
X522366Y1063959D1*
X525740Y1061933D1*
X528909Y1059599D1*
X531846Y1056979D1*
X534524Y1054095D1*
X536920Y1050973D1*
X539014Y1047641D1*
X540786Y1044127D1*
X542221Y1040462D1*
X543306Y1036679D1*
X544033Y1032811D1*
X544393Y1028892D1*
X544390Y1025040D1*
X544021Y1021122D1*
X543287Y1017255D1*
X542194Y1013475D1*
X540751Y1009813D1*
X538972Y1006302D1*
X536872Y1002974D1*
X534470Y999857D1*
X531786Y996978D1*
X528844Y994364D1*
X525670Y992037D1*
X522293Y990017D1*
X518740Y988323D1*
X515045Y986969D1*
X511239Y985966D1*
X507356Y985325D1*
X503430Y985050D1*
X492467Y985047D1*
X492469Y885051D2*
X489496Y885145D1*
X485588Y885607D1*
X481740Y886433D1*
X477986Y887617D1*
X474360Y889146D1*
X470893Y891009D1*
X467616Y893188D1*
X464557Y895665D1*
X461744Y898417D1*
X459201Y901420D1*
X456951Y904649D1*
X455012Y908074D1*
X453403Y911666D1*
X452138Y915392D1*
X451227Y919221D1*
X450679Y923118D1*
X450499Y927050D1*
X450687Y930981D1*
X451243Y934877D1*
X452161Y938704D1*
X453434Y942428D1*
X455050Y946016D1*
X456995Y949438D1*
X459252Y952662D1*
X461801Y955660D1*
X464620Y958407D1*
X467684Y960877D1*
X470965Y963050D1*
X474436Y964905D1*
X478065Y966428D1*
X481821Y967604D1*
X485670Y968422D1*
X489579Y968877D1*
X492461Y968965D1*
X503514Y968963D1*
X507439Y968681D1*
X511321Y968032D1*
X515125Y967022D1*
X518818Y965660D1*
X522366Y963959D1*
X525740Y961933D1*
X528909Y959599D1*
X531846Y956979D1*
X534524Y954095D1*
X536920Y950973D1*
X539014Y947641D1*
X540786Y944127D1*
X542221Y940462D1*
X543306Y936679D1*
X544033Y932811D1*
X544393Y928892D1*
X544390Y925040D1*
X544021Y921122D1*
X543287Y917255D1*
X542194Y913475D1*
X540751Y909813D1*
X538972Y906302D1*
X536872Y902974D1*
X534470Y899857D1*
X531786Y896978D1*
X528844Y894364D1*
X525670Y892037D1*
X522293Y890017D1*
X518740Y888323D1*
X515045Y886969D1*
X511239Y885966D1*
X507356Y885325D1*
X503430Y885050D1*
X492467Y885047D1*
X492469Y785051D2*
X489496Y785145D1*
X485588Y785607D1*
X481740Y786433D1*
X477986Y787617D1*
X474360Y789146D1*
X470893Y791009D1*
X467616Y793188D1*
X464557Y795665D1*
X461744Y798417D1*
X459201Y801420D1*
X456951Y804649D1*
X455012Y808074D1*
X453403Y811666D1*
X452138Y815392D1*
X451227Y819221D1*
X450679Y823118D1*
X450499Y827050D1*
X450687Y830981D1*
X451243Y834877D1*
X452161Y838704D1*
X453434Y842428D1*
X455050Y846016D1*
X456995Y849438D1*
X459252Y852662D1*
X461801Y855660D1*
X464620Y858407D1*
X467684Y860877D1*
X470965Y863050D1*
X474436Y864905D1*
X478065Y866428D1*
X481821Y867604D1*
X485670Y868422D1*
X489579Y868877D1*
X492461Y868965D1*
X503514Y868963D1*
X507439Y868681D1*
X511321Y868032D1*
X515125Y867022D1*
X518818Y865660D1*
X522366Y863959D1*
X525740Y861933D1*
X528909Y859599D1*
X531846Y856979D1*
X534524Y854095D1*
X536920Y850973D1*
X539014Y847641D1*
X540786Y844127D1*
X542221Y840462D1*
X543306Y836679D1*
X544033Y832811D1*
X544393Y828892D1*
X544390Y825040D1*
X544021Y821122D1*
X543287Y817255D1*
X542194Y813475D1*
X540751Y809813D1*
X538972Y806302D1*
X536872Y802974D1*
X534470Y799857D1*
X531786Y796978D1*
X528844Y794364D1*
X525670Y792037D1*
X522293Y790017D1*
X518740Y788323D1*
X515045Y786969D1*
X511239Y785966D1*
X507356Y785325D1*
X503430Y785050D1*
X492467Y785047D1*
X492469Y685051D2*
X489496Y685145D1*
X485588Y685607D1*
X481740Y686433D1*
X477986Y687617D1*
X474360Y689146D1*
X470893Y691009D1*
X467616Y693188D1*
X464557Y695665D1*
X461744Y698417D1*
X459201Y701420D1*
X456951Y704649D1*
X455012Y708074D1*
X453403Y711666D1*
X452138Y715392D1*
X451227Y719221D1*
X450679Y723118D1*
X450499Y727050D1*
X450687Y730981D1*
X451243Y734877D1*
X452161Y738704D1*
X453434Y742428D1*
X455050Y746016D1*
X456995Y749438D1*
X459252Y752662D1*
X461801Y755660D1*
X464620Y758407D1*
X467684Y760877D1*
X470965Y763050D1*
X474436Y764905D1*
X478065Y766428D1*
X481821Y767604D1*
X485670Y768422D1*
X489579Y768877D1*
X492461Y768965D1*
X503514Y768963D1*
X507439Y768681D1*
X511321Y768032D1*
X515125Y767022D1*
X518818Y765660D1*
X522366Y763959D1*
X525740Y761933D1*
X528909Y759599D1*
X531846Y756979D1*
X534524Y754095D1*
X536920Y750973D1*
X539014Y747641D1*
X540786Y744127D1*
X542221Y740462D1*
X543306Y736679D1*
X544033Y732811D1*
X544393Y728892D1*
X544390Y725040D1*
X544021Y721122D1*
X543287Y717255D1*
X542194Y713475D1*
X540751Y709813D1*
X538972Y706302D1*
X536872Y702974D1*
X534470Y699857D1*
X531786Y696978D1*
X528844Y694364D1*
X525670Y692037D1*
X522293Y690017D1*
X518740Y688323D1*
X515045Y686969D1*
X511239Y685966D1*
X507356Y685325D1*
X503430Y685050D1*
X492467Y685047D1*
X494438Y1185051D2*
X491465Y1185145D1*
X487556Y1185607D1*
X483708Y1186433D1*
X479955Y1187617D1*
X476329Y1189146D1*
X472862Y1191009D1*
X469585Y1193188D1*
X466526Y1195665D1*
X463713Y1198417D1*
X461170Y1201420D1*
X458919Y1204649D1*
X456981Y1208074D1*
X455372Y1211666D1*
X454107Y1215392D1*
X453196Y1219221D1*
X452648Y1223118D1*
X452467Y1227050D1*
X452656Y1230981D1*
X453211Y1234877D1*
X454130Y1238704D1*
X455403Y1242428D1*
X457019Y1246016D1*
X458964Y1249438D1*
X461221Y1252662D1*
X463770Y1255660D1*
X466588Y1258407D1*
X469652Y1260877D1*
X472934Y1263050D1*
X476404Y1264905D1*
X480033Y1266428D1*
X483789Y1267604D1*
X487639Y1268422D1*
X491548Y1268877D1*
X494429Y1268965D1*
X505483Y1268963D1*
X509408Y1268681D1*
X513290Y1268032D1*
X517093Y1267022D1*
X520786Y1265660D1*
X524335Y1263959D1*
X527709Y1261933D1*
X530878Y1259599D1*
X533814Y1256979D1*
X536492Y1254095D1*
X538889Y1250973D1*
X540982Y1247641D1*
X542754Y1244127D1*
X544189Y1240462D1*
X545275Y1236679D1*
X546001Y1232811D1*
X546362Y1228892D1*
X546358Y1225040D1*
X545989Y1221122D1*
X545255Y1217255D1*
X544162Y1213475D1*
X542720Y1209813D1*
X540941Y1206302D1*
X538841Y1202974D1*
X536438Y1199857D1*
X533754Y1196978D1*
X530813Y1194364D1*
X527639Y1192037D1*
X524261Y1190017D1*
X520709Y1188323D1*
X517014Y1186969D1*
X513208Y1185966D1*
X509325Y1185325D1*
X505399Y1185050D1*
X494436Y1185047D1*
X494438Y1285051D2*
X491465Y1285145D1*
X487556Y1285607D1*
X483708Y1286433D1*
X479955Y1287617D1*
X476329Y1289146D1*
X472862Y1291009D1*
X469585Y1293188D1*
X466526Y1295665D1*
X463713Y1298417D1*
X461170Y1301420D1*
X458919Y1304649D1*
X456981Y1308074D1*
X455372Y1311666D1*
X454107Y1315392D1*
X453196Y1319221D1*
X452648Y1323118D1*
X452467Y1327050D1*
X452656Y1330981D1*
X453211Y1334877D1*
X454130Y1338704D1*
X455403Y1342428D1*
X457019Y1346016D1*
X458964Y1349438D1*
X461221Y1352662D1*
X463770Y1355660D1*
X466588Y1358407D1*
X469652Y1360877D1*
X472934Y1363050D1*
X476404Y1364905D1*
X480033Y1366428D1*
X483789Y1367604D1*
X487639Y1368422D1*
X491548Y1368877D1*
X494429Y1368965D1*
X505483Y1368963D1*
X509408Y1368681D1*
X513290Y1368032D1*
X517093Y1367022D1*
X520786Y1365660D1*
X524335Y1363959D1*
X527709Y1361933D1*
X530878Y1359599D1*
X533814Y1356979D1*
X536492Y1354095D1*
X538889Y1350973D1*
X540982Y1347641D1*
X542754Y1344127D1*
X544189Y1340462D1*
X545275Y1336679D1*
X546001Y1332811D1*
X546362Y1328892D1*
X546358Y1325040D1*
X545989Y1321122D1*
X545255Y1317255D1*
X544162Y1313475D1*
X542720Y1309813D1*
X540941Y1306302D1*
X538841Y1302974D1*
X536438Y1299857D1*
X533754Y1296978D1*
X530813Y1294364D1*
X527639Y1292037D1*
X524261Y1290017D1*
X520709Y1288323D1*
X517014Y1286969D1*
X513208Y1285966D1*
X509325Y1285325D1*
X505399Y1285050D1*
X494436Y1285047D1*
X494438Y1085051D2*
X491465Y1085145D1*
X487556Y1085607D1*
X483708Y1086433D1*
X479955Y1087617D1*
X476329Y1089146D1*
X472862Y1091009D1*
X469585Y1093188D1*
X466526Y1095665D1*
X463713Y1098417D1*
X461170Y1101420D1*
X458919Y1104649D1*
X456981Y1108074D1*
X455372Y1111666D1*
X454107Y1115392D1*
X453196Y1119221D1*
X452648Y1123118D1*
X452467Y1127050D1*
X452656Y1130981D1*
X453211Y1134877D1*
X454130Y1138704D1*
X455403Y1142428D1*
X457019Y1146016D1*
X458964Y1149438D1*
X461221Y1152662D1*
X463770Y1155660D1*
X466588Y1158407D1*
X469652Y1160877D1*
X472934Y1163050D1*
X476404Y1164905D1*
X480033Y1166428D1*
X483789Y1167604D1*
X487639Y1168422D1*
X491548Y1168877D1*
X494429Y1168965D1*
X505483Y1168963D1*
X509408Y1168681D1*
X513290Y1168032D1*
X517093Y1167022D1*
X520786Y1165660D1*
X524335Y1163959D1*
X527709Y1161933D1*
X530878Y1159599D1*
X533814Y1156979D1*
X536492Y1154095D1*
X538889Y1150973D1*
X540982Y1147641D1*
X542754Y1144127D1*
X544189Y1140462D1*
X545275Y1136679D1*
X546001Y1132811D1*
X546362Y1128892D1*
X546358Y1125040D1*
X545989Y1121122D1*
X545255Y1117255D1*
X544162Y1113475D1*
X542720Y1109813D1*
X540941Y1106302D1*
X538841Y1102974D1*
X536438Y1099857D1*
X533754Y1096978D1*
X530813Y1094364D1*
X527639Y1092037D1*
X524261Y1090017D1*
X520709Y1088323D1*
X517014Y1086969D1*
X513208Y1085966D1*
X509325Y1085325D1*
X505399Y1085050D1*
X494436Y1085047D1*
X494438Y1485051D2*
X491465Y1485145D1*
X487556Y1485607D1*
X483708Y1486433D1*
X479955Y1487617D1*
X476329Y1489146D1*
X472862Y1491009D1*
X469585Y1493188D1*
X466526Y1495665D1*
X463713Y1498417D1*
X461170Y1501420D1*
X458919Y1504649D1*
X456981Y1508074D1*
X455372Y1511666D1*
X454107Y1515392D1*
X453196Y1519221D1*
X452648Y1523118D1*
X452467Y1527050D1*
X452656Y1530981D1*
X453211Y1534877D1*
X454130Y1538704D1*
X455403Y1542428D1*
X457019Y1546016D1*
X458964Y1549438D1*
X461221Y1552662D1*
X463770Y1555660D1*
X466588Y1558407D1*
X469652Y1560877D1*
X472934Y1563050D1*
X476404Y1564905D1*
X480033Y1566428D1*
X483789Y1567604D1*
X487639Y1568422D1*
X491548Y1568877D1*
X494429Y1568965D1*
X505483Y1568963D1*
X509408Y1568681D1*
X513290Y1568032D1*
X517093Y1567022D1*
X520786Y1565660D1*
X524335Y1563959D1*
X527709Y1561933D1*
X530878Y1559599D1*
X533814Y1556979D1*
X536492Y1554095D1*
X538889Y1550973D1*
X540982Y1547641D1*
X542754Y1544127D1*
X544189Y1540462D1*
X545275Y1536679D1*
X546001Y1532811D1*
X546362Y1528892D1*
X546358Y1525040D1*
X545989Y1521122D1*
X545255Y1517255D1*
X544162Y1513475D1*
X542720Y1509813D1*
X540941Y1506302D1*
X538841Y1502974D1*
X536438Y1499857D1*
X533754Y1496978D1*
X530813Y1494364D1*
X527639Y1492037D1*
X524261Y1490017D1*
X520709Y1488323D1*
X517014Y1486969D1*
X513208Y1485966D1*
X509325Y1485325D1*
X505399Y1485050D1*
X494436Y1485047D1*
X494438Y1585051D2*
X491465Y1585145D1*
X487556Y1585607D1*
X483708Y1586433D1*
X479955Y1587617D1*
X476329Y1589146D1*
X472862Y1591009D1*
X469585Y1593188D1*
X466526Y1595665D1*
X463713Y1598417D1*
X461170Y1601420D1*
X458919Y1604649D1*
X456981Y1608074D1*
X455372Y1611666D1*
X454107Y1615392D1*
X453196Y1619221D1*
X452648Y1623118D1*
X452467Y1627050D1*
X452656Y1630981D1*
X453211Y1634877D1*
X454130Y1638704D1*
X455403Y1642428D1*
X457019Y1646016D1*
X458964Y1649438D1*
X461221Y1652662D1*
X463770Y1655660D1*
X466588Y1658407D1*
X469652Y1660877D1*
X472934Y1663050D1*
X476404Y1664905D1*
X480033Y1666428D1*
X483789Y1667604D1*
X487639Y1668422D1*
X491548Y1668877D1*
X494429Y1668965D1*
X505483Y1668963D1*
X509408Y1668681D1*
X513290Y1668032D1*
X517093Y1667022D1*
X520786Y1665660D1*
X524335Y1663959D1*
X527709Y1661933D1*
X530878Y1659599D1*
X533814Y1656979D1*
X536492Y1654095D1*
X538889Y1650973D1*
X540982Y1647641D1*
X542754Y1644127D1*
X544189Y1640462D1*
X545275Y1636679D1*
X546001Y1632811D1*
X546362Y1628892D1*
X546358Y1625040D1*
X545989Y1621122D1*
X545255Y1617255D1*
X544162Y1613475D1*
X542720Y1609813D1*
X540941Y1606302D1*
X538841Y1602974D1*
X536438Y1599857D1*
X533754Y1596978D1*
X530813Y1594364D1*
X527639Y1592037D1*
X524261Y1590017D1*
X520709Y1588323D1*
X517014Y1586969D1*
X513208Y1585966D1*
X509325Y1585325D1*
X505399Y1585050D1*
X494436Y1585047D1*
X1088101Y1054175D2*
X1087875Y1052220D1*
X1087502Y1050288D1*
X1086981Y1048390D1*
X1086317Y1046537D1*
X1085514Y1044741D1*
X1084576Y1043011D1*
X1083508Y1041357D1*
X1082317Y1039790D1*
X1081010Y1038319D1*
X1079595Y1036952D1*
X1078079Y1035697D1*
X1076472Y1034561D1*
X1074782Y1033551D1*
X1073021Y1032674D1*
X1071198Y1031933D1*
X1069323Y1031334D1*
X1067408Y1030880D1*
X1065464Y1030573D1*
X1063502Y1030416D1*
X1061534Y1030409D1*
X1059572Y1030553D1*
X1057625Y1030846D1*
X1055707Y1031286D1*
X1053829Y1031872D1*
X1052000Y1032600D1*
X1050232Y1033465D1*
X1048536Y1034463D1*
X1046921Y1035587D1*
X1045396Y1036832D1*
X1043971Y1038189D1*
X1043009Y1039257D1*
X994614Y1039252D1*
X879453Y924084D1*
X879514Y922283D1*
X879439Y920317D1*
X879214Y918362D1*
X878840Y916430D1*
X878320Y914532D1*
X877656Y912679D1*
X876853Y910882D1*
X875914Y909152D1*
X874847Y907499D1*
X873656Y905932D1*
X872349Y904461D1*
X870933Y903094D1*
X869418Y901838D1*
X867810Y900703D1*
X866121Y899693D1*
X864360Y898815D1*
X862536Y898075D1*
X860662Y897476D1*
X858747Y897022D1*
X856803Y896715D1*
X854841Y896558D1*
X852873Y896551D1*
X850910Y896694D1*
X848964Y896987D1*
X847046Y897428D1*
X845167Y898014D1*
X843339Y898742D1*
X841571Y899607D1*
X839875Y900604D1*
X838259Y901729D1*
X836735Y902973D1*
X835310Y904330D1*
X833992Y905793D1*
X832791Y907351D1*
X831711Y908997D1*
X830761Y910720D1*
X830152Y912056D1*
X829609Y910882D1*
X828670Y909152D1*
X827603Y907499D1*
X826412Y905932D1*
X825105Y904461D1*
X823689Y903094D1*
X822174Y901838D1*
X820566Y900703D1*
X818877Y899693D1*
X817115Y898815D1*
X815292Y898075D1*
X813417Y897476D1*
X811503Y897022D1*
X809559Y896715D1*
X807597Y896558D1*
X805629Y896551D1*
X803666Y896694D1*
X801720Y896987D1*
X799802Y897428D1*
X797923Y898014D1*
X796095Y898742D1*
X794327Y899607D1*
X792631Y900604D1*
X791015Y901729D1*
X789491Y902973D1*
X788066Y904330D1*
X786748Y905793D1*
X785546Y907351D1*
X784467Y908997D1*
X783517Y910720D1*
X782701Y912511D1*
X782024Y914359D1*
X781490Y916253D1*
X781103Y918183D1*
X780864Y920136D1*
X780801Y922940D1*
X774925Y917119D1*
X773406Y916016D1*
X771732Y915163D1*
X769946Y914583D1*
X768091Y914289D1*
X763215Y914252D1*
X683536Y914289D1*
X681681Y914583D1*
X679895Y915163D1*
X678221Y916016D1*
X676702Y917119D1*
X673228Y920541D1*
X647815Y946007D1*
X646711Y947526D1*
X645858Y949199D1*
X645278Y950986D1*
X644984Y952840D1*
X644947Y957717D1*
X644984Y1005900D1*
X645278Y1007755D1*
X645858Y1009541D1*
X646711Y1011214D1*
X647815Y1012734D1*
X651237Y1016208D1*
X763056Y1128027D1*
X763095Y1549207D1*
X763388Y1551062D1*
X763969Y1552848D1*
X764821Y1554521D1*
X765925Y1556041D1*
X769347Y1559515D1*
X779064Y1569180D1*
X780584Y1570284D1*
X782257Y1571136D1*
X784043Y1571717D1*
X785898Y1572010D1*
X790774Y1572047D1*
X815335Y1572010D1*
X817190Y1571717D1*
X818977Y1571136D1*
X820650Y1570284D1*
X822169Y1569180D1*
X825643Y1565758D1*
X827226Y1564176D1*
X1049594Y1564173D1*
X1058592Y1573117D1*
X1060111Y1574221D1*
X1061785Y1575073D1*
X1063571Y1575654D1*
X1065426Y1575947D1*
X1070302Y1575984D1*
X1094863Y1575947D1*
X1096718Y1575654D1*
X1098504Y1575073D1*
X1100177Y1574221D1*
X1101697Y1573117D1*
X1105171Y1569695D1*
X1114836Y1559978D1*
X1115940Y1558458D1*
X1116792Y1556785D1*
X1117373Y1554999D1*
X1117667Y1553144D1*
X1117704Y1548268D1*
X1117667Y1456777D1*
X1117373Y1454923D1*
X1116792Y1453136D1*
X1115940Y1451463D1*
X1114836Y1449944D1*
X1111414Y1446470D1*
X1093823Y1428930D1*
X1092303Y1427827D1*
X1090630Y1426974D1*
X1088844Y1426394D1*
X1086989Y1426100D1*
X1082113Y1426063D1*
X1069363Y1426100D1*
X1067508Y1426394D1*
X1065722Y1426974D1*
X1064048Y1427827D1*
X1062529Y1428931D1*
X1059055Y1432352D1*
X1049390Y1442070D1*
X1048286Y1443589D1*
X1047433Y1445262D1*
X1046853Y1447049D1*
X1046559Y1448903D1*
X1046522Y1453780D1*
Y1507875D1*
X1041725Y1512674D1*
X839041Y1512677D1*
X834242Y1507880D1*
X834239Y1130945D1*
X834092Y1129073D1*
X833653Y1127246D1*
X832934Y1125511D1*
X831953Y1123910D1*
X830731Y1122479D1*
X720068Y1011816D1*
X720066Y993311D1*
X760217Y993270D1*
X762072Y992976D1*
X763858Y992396D1*
X765532Y991543D1*
X767051Y990440D1*
X770525Y987018D1*
X788064Y969427D1*
X789168Y967907D1*
X790021Y966234D1*
X790601Y964448D1*
X790895Y962593D1*
X790932Y957717D1*
Y942776D1*
X792327Y943765D1*
X794009Y944786D1*
X795764Y945676D1*
X797582Y946430D1*
X799453Y947042D1*
X801364Y947510D1*
X803306Y947830D1*
X805267Y948001D1*
X807235Y948022D1*
X808301Y947951D1*
X1041600Y1181247D1*
X1041601Y1281159D1*
X1040373Y1283013D1*
X1039422Y1284736D1*
X1038606Y1286527D1*
X1037930Y1288375D1*
X1037396Y1290269D1*
X1037008Y1292199D1*
X1036769Y1294152D1*
X1036680Y1296118D1*
X1036742Y1298085D1*
X1036953Y1300042D1*
X1037313Y1301977D1*
X1037820Y1303878D1*
X1038471Y1305735D1*
X1039262Y1307538D1*
X1040188Y1309274D1*
X1041244Y1310935D1*
X1042424Y1312510D1*
X1043720Y1313991D1*
X1045126Y1315368D1*
X1046633Y1316634D1*
X1048232Y1317781D1*
X1049915Y1318802D1*
X1051670Y1319692D1*
X1053488Y1320445D1*
X1055358Y1321058D1*
X1057270Y1321525D1*
X1059212Y1321846D1*
X1061172Y1322017D1*
X1063140Y1322037D1*
X1065104Y1321908D1*
X1067052Y1321629D1*
X1068973Y1321201D1*
X1070856Y1320629D1*
X1072690Y1319914D1*
X1074463Y1319061D1*
X1076167Y1318075D1*
X1077790Y1316962D1*
X1079323Y1315729D1*
X1080758Y1314382D1*
X1082085Y1312929D1*
X1083298Y1311379D1*
X1084389Y1309741D1*
X1085351Y1308024D1*
X1086180Y1306239D1*
X1086870Y1304396D1*
X1087417Y1302505D1*
X1087818Y1300579D1*
X1088070Y1298627D1*
X1088176Y1296299D1*
X1088101Y1294333D1*
X1087875Y1292378D1*
X1087502Y1290445D1*
X1086981Y1288547D1*
X1086317Y1286695D1*
X1085514Y1284898D1*
X1084576Y1283168D1*
X1083508Y1281515D1*
X1082317Y1279948D1*
X1081010Y1278477D1*
X1079595Y1277109D1*
X1078079Y1275854D1*
X1076472Y1274718D1*
X1075383Y1274068D1*
X1075381Y1174252D1*
X1075329Y1172927D1*
X1075173Y1171610D1*
X1074914Y1170309D1*
X1074554Y1169033D1*
X1074095Y1167788D1*
X1073540Y1166584D1*
X1072892Y1165427D1*
X1072155Y1164324D1*
X1071334Y1163283D1*
X1069042Y1160917D1*
X978441Y1070316D1*
X979957Y1071191D1*
X981161Y1071746D1*
X982405Y1072205D1*
X983682Y1072565D1*
X984983Y1072824D1*
X986300Y1072979D1*
X989593Y1073032D1*
X1042997D1*
X1045126Y1075210D1*
X1046633Y1076476D1*
X1048232Y1077623D1*
X1049915Y1078645D1*
X1051670Y1079535D1*
X1053488Y1080288D1*
X1055358Y1080900D1*
X1057270Y1081368D1*
X1059212Y1081688D1*
X1061172Y1081859D1*
X1063140Y1081880D1*
X1065104Y1081750D1*
X1067052Y1081471D1*
X1068973Y1081044D1*
X1070856Y1080471D1*
X1072690Y1079756D1*
X1074463Y1078904D1*
X1076167Y1077918D1*
X1077790Y1076805D1*
X1079323Y1075571D1*
X1080758Y1074224D1*
X1082085Y1072771D1*
X1083298Y1071221D1*
X1084389Y1069583D1*
X1085351Y1067867D1*
X1086180Y1066082D1*
X1086870Y1064238D1*
X1087417Y1062348D1*
X1087818Y1060421D1*
X1088070Y1058469D1*
X1088176Y1056142D1*
X1088101Y1054175D1*
X1555148Y1733891D2*
X1567592Y1721395D1*
X1568696Y1719876D1*
X1569548Y1718202D1*
X1570129Y1716416D1*
X1570423Y1714561D1*
X1570459Y1709685D1*
X1570422Y641817D1*
X1570129Y639962D1*
X1569548Y638176D1*
X1568696Y636502D1*
X1567592Y634983D1*
X1564170Y631509D1*
X1554453Y621844D1*
X1552933Y620740D1*
X1551260Y619887D1*
X1549474Y619307D1*
X1547619Y619013D1*
X1542743Y618976D1*
X1522119Y619013D1*
X1520264Y619307D1*
X1518478Y619887D1*
X1516804Y620740D1*
X1515285Y621844D1*
X1511811Y625266D1*
X1502146Y634983D1*
X1501042Y636502D1*
X1500189Y638176D1*
X1499609Y639962D1*
X1499315Y641817D1*
X1499278Y646693D1*
Y838584D1*
X1462776Y875140D1*
X1461672Y876660D1*
X1460819Y878333D1*
X1460239Y880119D1*
X1459945Y881974D1*
X1459908Y886850D1*
X1459945Y1478341D1*
X1460239Y1480196D1*
X1460819Y1481982D1*
X1461672Y1483655D1*
X1462776Y1485175D1*
X1466198Y1488648D1*
X1499283Y1521734D1*
X1499278Y1713622D1*
X1499426Y1715494D1*
X1499864Y1717321D1*
X1500583Y1719056D1*
X1501564Y1720657D1*
X1502786Y1722088D1*
X1515285Y1734534D1*
X1516804Y1735638D1*
X1518478Y1736491D1*
X1520264Y1737071D1*
X1522119Y1737365D1*
X1526995Y1737402D1*
X1547619Y1737365D1*
X1549474Y1737071D1*
X1551260Y1736491D1*
X1552933Y1735638D1*
X1554453Y1734534D1*
X1555145Y1733893D1*
X2723868Y1670473D2*
X2862579Y1670436D1*
X2864434Y1670142D1*
X2866221Y1669561D1*
X2867894Y1668709D1*
X2869413Y1667605D1*
X2870741Y1666277D1*
X2871845Y1664758D1*
X2872698Y1663084D1*
X2873278Y1661298D1*
X2873572Y1659443D1*
X2873609Y1654567D1*
X2873572Y1259927D1*
X2873278Y1258072D1*
X2872698Y1256286D1*
X2871845Y1254613D1*
X2870741Y1253093D1*
X2869413Y1251765D1*
X2867894Y1250661D1*
X2866221Y1249809D1*
X2864434Y1249228D1*
X2862579Y1248934D1*
X2857703Y1248898D1*
X2722906Y1248934D1*
X2721051Y1249228D1*
X2719265Y1249809D1*
X2717592Y1250661D1*
X2716072Y1251765D1*
X2714744Y1253093D1*
X2713640Y1254613D1*
X2712788Y1256286D1*
X2712207Y1258072D1*
X2711913Y1259927D1*
X2711877Y1264803D1*
X2711913Y1659443D1*
X2712207Y1661298D1*
X2712788Y1663084D1*
X2713640Y1664758D1*
X2714744Y1666277D1*
X2716072Y1667605D1*
X2717592Y1668709D1*
X2719265Y1669561D1*
X2721051Y1670142D1*
X2722906Y1670436D1*
X2723849Y1670472D1*
X2723868Y1103543D2*
X2862579Y1103507D1*
X2864434Y1103213D1*
X2866221Y1102632D1*
X2867894Y1101780D1*
X2869413Y1100676D1*
X2870741Y1099348D1*
X2871845Y1097828D1*
X2872698Y1096155D1*
X2873278Y1094369D1*
X2873572Y1092514D1*
X2873609Y1087638D1*
X2873572Y692998D1*
X2873278Y691143D1*
X2872698Y689357D1*
X2871845Y687683D1*
X2870741Y686164D1*
X2869413Y684836D1*
X2867894Y683732D1*
X2866221Y682879D1*
X2864434Y682299D1*
X2862579Y682005D1*
X2857703Y681968D1*
X2722906Y682005D1*
X2721051Y682299D1*
X2719265Y682879D1*
X2717592Y683732D1*
X2716072Y684836D1*
X2714744Y686164D1*
X2713640Y687683D1*
X2712788Y689357D1*
X2712207Y691143D1*
X2711913Y692998D1*
X2711876Y697874D1*
X2711913Y1092514D1*
X2712207Y1094369D1*
X2712788Y1096155D1*
X2713640Y1097828D1*
X2714744Y1099348D1*
X2716072Y1100676D1*
X2717592Y1101780D1*
X2719265Y1102632D1*
X2721051Y1103213D1*
X2722906Y1103507D1*
X2723849Y1103543D1*
X2925728Y485440D2*
X2926102Y493096D1*
Y1869729D1*
X2925728Y1877396D1*
X2924701Y1884323D1*
X2922980Y1891146D1*
X2920639Y1897742D1*
X2917646Y1904043D1*
X2914050Y1910065D1*
X2909838Y1915710D1*
X2905128Y1920936D1*
X2899957Y1925624D1*
X2894330Y1929793D1*
X2888302Y1933391D1*
X2882001Y1936385D1*
X2875406Y1938726D1*
X2868573Y1940449D1*
X2861648Y1941476D1*
X2853990Y1941850D1*
X492187Y1941807D1*
X485444Y1941476D1*
X478512Y1940449D1*
X471678Y1938726D1*
X465093Y1936388D1*
X458791Y1933395D1*
X452736Y1929778D1*
X447124Y1925620D1*
X441928Y1920907D1*
X437212Y1915707D1*
X433055Y1910097D1*
X429438Y1904039D1*
X426450Y1897749D1*
X424109Y1891155D1*
X422386Y1884321D1*
X421334Y1876881D1*
X420984Y1869732D1*
Y493105D1*
X421359Y485437D1*
X422386Y478512D1*
X424106Y471689D1*
X426447Y465093D1*
X429440Y458791D1*
X433056Y452737D1*
X437217Y447122D1*
X441918Y441937D1*
X447127Y437213D1*
X452738Y433055D1*
X458795Y429438D1*
X465086Y426450D1*
X471680Y424109D1*
X478514Y422386D1*
X485442Y421359D1*
X493091Y420984D1*
X2853984D1*
X2861649Y421359D1*
X2868575Y422386D1*
X2875408Y424109D1*
X2881994Y426447D1*
X2888298Y429441D1*
X2894333Y433043D1*
X2899961Y437214D1*
X2905419Y442223D1*
X2909882Y447138D1*
X2914032Y452739D1*
X2917649Y458795D1*
X2920637Y465086D1*
X2922978Y471680D1*
X2924701Y478514D1*
X2925728Y485438D1*
D22*
X497467Y1027008D3*
Y927008D3*
Y827008D3*
Y727008D3*
X499436Y1227008D3*
Y1327008D3*
Y1127008D3*
Y1527008D3*
Y1627008D3*
Y1427008D3*
D23*
X2794711Y1362047D3*
Y1558898D3*
Y795118D3*
Y991969D3*
M02*
