G04 DipTrace 3.1.0.1*
G04 TAS5805Mbis2.TopDimension.gbr*
%MOIN*%
G04 #@! TF.FileFunction,Drawing,Top*
G04 #@! TF.Part,Single*
%ADD13C,0.001378*%
%ADD63C,0.006176*%
%FSLAX26Y26*%
G04*
G70*
G90*
G75*
G01*
G04 TopDimension*
%LPD*%
X1393136Y1164409D2*
D13*
X1727782D1*
X1747467Y1135472D2*
X1688412D1*
X1708097Y1164409D2*
Y1135472D1*
Y1223465D2*
Y1203780D1*
G36*
Y1164409D2*
X1700223Y1203780D1*
X1715971D1*
X1708097Y1164409D1*
G37*
Y1076417D2*
D13*
Y1096102D1*
G36*
Y1135472D2*
X1715971Y1096102D1*
X1700223D1*
X1708097Y1135472D1*
G37*
Y974817D2*
D13*
Y1164409D1*
X1747467Y1218543D2*
X1675617D1*
X1357703Y1190000D2*
X1714987D1*
X1695302Y1218543D2*
Y1190000D1*
Y1277598D2*
Y1257913D1*
G36*
Y1218543D2*
X1687428Y1257913D1*
X1703176D1*
X1695302Y1218543D1*
G37*
Y1130945D2*
D13*
Y1150630D1*
G36*
Y1190000D2*
X1703176Y1150630D1*
X1687428D1*
X1695302Y1190000D1*
G37*
Y1379198D2*
D13*
Y1218543D1*
X1357703Y1343543D2*
X1271089D1*
X1439593Y1441969D2*
X1271089D1*
X1290774D2*
Y1343543D1*
Y1501024D2*
Y1481339D1*
G36*
Y1441969D2*
X1282900Y1481339D1*
X1298648D1*
X1290774Y1441969D1*
G37*
Y1284488D2*
D13*
Y1304173D1*
G36*
Y1343543D2*
X1298648Y1304173D1*
X1282900D1*
X1290774Y1343543D1*
G37*
X1439593Y912441D2*
D13*
X1255341D1*
X1357711Y1010866D2*
X1255341D1*
X1275026D2*
Y912441D1*
Y1069921D2*
Y1050236D1*
G36*
Y1010866D2*
X1267152Y1050236D1*
X1282900D1*
X1275026Y1010866D1*
G37*
Y853386D2*
D13*
Y873071D1*
G36*
Y912441D2*
X1282900Y873071D1*
X1267152D1*
X1275026Y912441D1*
G37*
X1156910Y1370118D2*
D13*
X320302D1*
X499436Y1627008D2*
X320302D1*
X339987Y1498563D2*
Y1409488D1*
G36*
Y1370118D2*
X332113Y1409488D1*
X347861D1*
X339987Y1370118D1*
G37*
Y1498563D2*
D13*
Y1587638D1*
G36*
Y1627008D2*
X347861Y1587638D1*
X332113D1*
X339987Y1627008D1*
G37*
X1156910Y984291D2*
D13*
X326207D1*
X497467Y727008D2*
X326207D1*
X345892Y855650D2*
Y944921D1*
G36*
Y984291D2*
X353766Y944921D1*
X338018D1*
X345892Y984291D1*
G37*
Y855650D2*
D13*
Y766378D1*
G36*
Y727008D2*
X338018Y766378D1*
X353766D1*
X345892Y727008D1*
G37*
X1330158Y1370118D2*
D13*
X1847467D1*
X1873439Y1728189D2*
X1808097D1*
X1827782Y1549154D2*
Y1409488D1*
G36*
Y1370118D2*
X1819908Y1409488D1*
X1835656D1*
X1827782Y1370118D1*
G37*
Y1549154D2*
D13*
Y1688819D1*
G36*
Y1728189D2*
X1835656Y1688819D1*
X1819908D1*
X1827782Y1728189D1*
G37*
X1330158Y984291D2*
D13*
X1789593D1*
X1873439Y625827D2*
X1750223D1*
X1769908Y805059D2*
Y944921D1*
G36*
Y984291D2*
X1777782Y944921D1*
X1762034D1*
X1769908Y984291D1*
G37*
Y805059D2*
D13*
Y665197D1*
G36*
Y625827D2*
X1762034Y665197D1*
X1777782D1*
X1769908Y625827D1*
G37*
X2117558Y1476220D2*
D13*
X2182900D1*
X2117558Y1444724D2*
X2182900D1*
X2163215Y1476220D2*
Y1444724D1*
Y1535276D2*
Y1515591D1*
G36*
Y1476220D2*
X2155341Y1515591D1*
X2171089D1*
X2163215Y1476220D1*
G37*
Y1385669D2*
D13*
Y1405354D1*
G36*
Y1444724D2*
X2171089Y1405354D1*
X2155341D1*
X2163215Y1444724D1*
G37*
Y1323260D2*
D13*
Y1476220D1*
X2117558Y1192756D2*
X2178963D1*
X2117558Y1161260D2*
X2178963D1*
X2159278Y1192756D2*
Y1161260D1*
Y1251811D2*
Y1232126D1*
G36*
Y1192756D2*
X2151404Y1232126D1*
X2167152D1*
X2159278Y1192756D1*
G37*
Y1102205D2*
D13*
Y1121890D1*
G36*
Y1161260D2*
X2167152Y1121890D1*
X2151404D1*
X2159278Y1161260D1*
G37*
Y1039795D2*
D13*
Y1192756D1*
X2117558Y909291D2*
X2177782D1*
X2117558Y877795D2*
X2177782D1*
X2158097Y909291D2*
Y877795D1*
Y968346D2*
Y948661D1*
G36*
Y909291D2*
X2150223Y948661D1*
X2165971D1*
X2158097Y909291D1*
G37*
Y818740D2*
D13*
Y838425D1*
G36*
Y877795D2*
X2165971Y838425D1*
X2150223D1*
X2158097Y877795D1*
G37*
Y756331D2*
D13*
Y909291D1*
X2117558Y1728189D2*
Y1892756D1*
X2255292Y1563671D2*
Y1892756D1*
X2117558Y1873071D2*
X2255292D1*
X2058503D2*
X2078188D1*
G36*
X2117558D2*
X2078188Y1865197D1*
Y1880945D1*
X2117558Y1873071D1*
G37*
X2314347D2*
D13*
X2294662D1*
G36*
X2255292D2*
X2294662Y1880945D1*
Y1865197D1*
X2255292Y1873071D1*
G37*
X1456963Y1285858D2*
D13*
X1641168D1*
X1330158Y1370118D2*
X1641168D1*
X1621483D2*
Y1285858D1*
Y1429173D2*
Y1409488D1*
G36*
Y1370118D2*
X1613609Y1409488D1*
X1629357D1*
X1621483Y1370118D1*
G37*
Y1226803D2*
D13*
Y1246488D1*
G36*
Y1285858D2*
X1629357Y1246488D1*
X1613609D1*
X1621483Y1285858D1*
G37*
Y1140502D2*
D13*
Y1370118D1*
X1456963Y1068551D2*
X1420696D1*
X1330158Y984291D2*
X1460066D1*
X1440381Y1068551D2*
Y984291D1*
Y1127606D2*
Y1107921D1*
G36*
Y1068551D2*
X1432507Y1107921D1*
X1448255D1*
X1440381Y1068551D1*
G37*
Y925236D2*
D13*
Y944921D1*
G36*
Y984291D2*
X1448255Y944921D1*
X1432507D1*
X1440381Y984291D1*
G37*
Y1213908D2*
D13*
Y1068551D1*
X2637231Y1090394D2*
X2566365D1*
X2117558Y1161260D2*
X2605735D1*
X2586050D2*
Y1090394D1*
Y1220315D2*
Y1200630D1*
G36*
Y1161260D2*
X2578176Y1200630D1*
X2593924D1*
X2586050Y1161260D1*
G37*
Y1031339D2*
D13*
Y1051024D1*
G36*
Y1090394D2*
X2593924Y1051024D1*
X2578176D1*
X2586050Y1090394D1*
G37*
Y1265525D2*
D13*
Y1161260D1*
X2637231Y696693D2*
X2550617D1*
X2117558Y625827D2*
X2589987D1*
X2570302Y696693D2*
Y625827D1*
Y755748D2*
Y736063D1*
G36*
Y696693D2*
X2562428Y736063D1*
X2578176D1*
X2570302Y696693D1*
G37*
Y566772D2*
D13*
Y586457D1*
G36*
Y625827D2*
X2578176Y586457D1*
X2562428D1*
X2570302Y625827D1*
G37*
Y800958D2*
D13*
Y696693D1*
X1321483Y1715591D2*
X1231719D1*
X1045892Y1605368D2*
X1271089D1*
X1251404Y1715591D2*
Y1605368D1*
Y1774646D2*
Y1754961D1*
G36*
Y1715591D2*
X1243530Y1754961D1*
X1259278D1*
X1251404Y1715591D1*
G37*
Y1546313D2*
D13*
Y1565998D1*
G36*
Y1605368D2*
X1259278Y1565998D1*
X1243530D1*
X1251404Y1605368D1*
G37*
X1319514Y638819D2*
D13*
X1149042D1*
X1043924Y749042D2*
X1188412D1*
X1168727D2*
Y638819D1*
Y808097D2*
Y788412D1*
G36*
Y749042D2*
X1160853Y788412D1*
X1176601D1*
X1168727Y749042D1*
G37*
Y579764D2*
D13*
Y599449D1*
G36*
Y638819D2*
X1176601Y599449D1*
X1160853D1*
X1168727Y638819D1*
G37*
X1321483Y1715591D2*
D13*
Y1946299D1*
X1045892Y1605368D2*
Y1946299D1*
X1183688Y1926614D2*
X1282113D1*
G36*
X1321483D2*
X1282113Y1918740D1*
Y1934488D1*
X1321483Y1926614D1*
G37*
X1183688D2*
D13*
X1085262D1*
G36*
X1045892D2*
X1085262Y1934488D1*
Y1918740D1*
X1045892Y1926614D1*
G37*
X1319514Y638819D2*
D13*
Y308898D1*
X1043924Y749042D2*
Y308898D1*
X1181719Y328583D2*
X1280144D1*
G36*
X1319514D2*
X1280144Y320709D1*
Y336457D1*
X1319514Y328583D1*
G37*
X1181719D2*
D13*
X1083294D1*
G36*
X1043924D2*
X1083294Y336457D1*
Y320709D1*
X1043924Y328583D1*
G37*
X2952192Y1969528D2*
D13*
Y2064016D1*
X2794711Y1812047D2*
Y2064016D1*
X2873451Y2044331D2*
X2912822D1*
G36*
X2952192D2*
X2912822Y2036457D1*
Y2052205D1*
X2952192Y2044331D1*
G37*
X2873451D2*
D13*
X2834081D1*
G36*
X2794711D2*
X2834081Y2052205D1*
Y2036457D1*
X2794711Y2044331D1*
G37*
Y1812047D2*
D13*
X3255341D1*
X2952192Y1969528D2*
X3255341D1*
X3235656Y1890787D2*
Y1851417D1*
G36*
Y1812047D2*
X3227782Y1851417D1*
X3243530D1*
X3235656Y1812047D1*
G37*
Y1890787D2*
D13*
Y1930157D1*
G36*
Y1969528D2*
X3243530Y1930157D1*
X3227782D1*
X3235656Y1969528D1*
G37*
X2794711Y552205D2*
D13*
Y217559D1*
X2952192Y394724D2*
Y217559D1*
X2873451Y237244D2*
X2834081D1*
G36*
X2794711D2*
X2834081Y245118D1*
Y229370D1*
X2794711Y237244D1*
G37*
X2873451D2*
D13*
X2912822D1*
G36*
X2952192D2*
X2912822Y229370D1*
Y245118D1*
X2952192Y237244D1*
G37*
X2794711Y552205D2*
D13*
X3519121D1*
X2952192Y394724D2*
X3519121D1*
X3499436Y473465D2*
Y512835D1*
G36*
Y552205D2*
X3507310Y512835D1*
X3491562D1*
X3499436Y552205D1*
G37*
Y473465D2*
D13*
Y434094D1*
G36*
Y394724D2*
X3491562Y434094D1*
X3507310D1*
X3499436Y394724D1*
G37*
X550617Y552205D2*
D13*
Y209685D1*
X393136Y394724D2*
Y209685D1*
X471877Y229370D2*
X511247D1*
G36*
X550617D2*
X511247Y221496D1*
Y237244D1*
X550617Y229370D1*
G37*
X471877D2*
D13*
X432507D1*
G36*
X393136D2*
X432507Y237244D1*
Y221496D1*
X393136Y229370D1*
G37*
X550617Y552205D2*
D13*
X58491D1*
X393136Y394724D2*
X58491D1*
X78176Y473465D2*
Y512835D1*
G36*
Y552205D2*
X86050Y512835D1*
X70302D1*
X78176Y552205D1*
G37*
Y473465D2*
D13*
Y434094D1*
G36*
Y394724D2*
X70302Y434094D1*
X86050D1*
X78176Y394724D1*
G37*
X550617Y1812047D2*
D13*
X176601D1*
X393136Y1969528D2*
X176601D1*
X196286Y1890787D2*
Y1851417D1*
G36*
Y1812047D2*
X188412Y1851417D1*
X204160D1*
X196286Y1812047D1*
G37*
Y1890787D2*
D13*
Y1930157D1*
G36*
Y1969528D2*
X204160Y1930157D1*
X188412D1*
X196286Y1969528D1*
G37*
X550617Y1812047D2*
D13*
Y2190000D1*
X393136Y1969528D2*
Y2190000D1*
X471877Y2170315D2*
X511247D1*
G36*
X550617D2*
X511247Y2162441D1*
Y2178189D1*
X550617Y2170315D1*
G37*
X471877D2*
D13*
X432507D1*
G36*
X393136D2*
X432507Y2178189D1*
Y2162441D1*
X393136Y2170315D1*
G37*
X1760456Y1075343D2*
D63*
X1758554Y1081091D1*
X1752806Y1084938D1*
X1743256Y1086839D1*
X1737508D1*
X1727957Y1084938D1*
X1722209Y1081091D1*
X1720308Y1075343D1*
Y1071540D1*
X1722209Y1065792D1*
X1727957Y1061990D1*
X1737508Y1060044D1*
X1743256D1*
X1752806Y1061990D1*
X1758554Y1065792D1*
X1760456Y1071540D1*
Y1075343D1*
X1752806Y1061990D2*
X1727957Y1084938D1*
X1724155Y1045791D2*
X1722209Y1047693D1*
X1720308Y1045791D1*
X1722209Y1043846D1*
X1724155Y1045791D1*
X1720308Y1023845D2*
X1760456Y1004700D1*
Y1031495D1*
Y988502D2*
Y967499D1*
X1745157Y978951D1*
Y973203D1*
X1743256Y969401D1*
X1741355Y967499D1*
X1735606Y965554D1*
X1731804D1*
X1726056Y967499D1*
X1722209Y971302D1*
X1720308Y977050D1*
Y982798D1*
X1722209Y988502D1*
X1724155Y990403D1*
X1727957Y992349D1*
X1642943Y1278673D2*
X1644845Y1272925D1*
X1650593Y1269078D1*
X1660143Y1267177D1*
X1665891D1*
X1675442Y1269078D1*
X1681190Y1272925D1*
X1683091Y1278673D1*
Y1282476D1*
X1681190Y1288224D1*
X1675442Y1292026D1*
X1665891Y1293972D1*
X1660143D1*
X1650593Y1292026D1*
X1644845Y1288224D1*
X1642943Y1282476D1*
Y1278673D1*
X1650593Y1292026D2*
X1675442Y1269078D1*
X1679244Y1308224D2*
X1681190Y1306323D1*
X1683091Y1308224D1*
X1681190Y1310170D1*
X1679244Y1308224D1*
X1683091Y1330170D2*
X1642943Y1349316D1*
Y1322521D1*
X1652494Y1363613D2*
X1650593D1*
X1646746Y1365514D1*
X1644845Y1367415D1*
X1642943Y1371262D1*
Y1378911D1*
X1644845Y1382714D1*
X1646746Y1384615D1*
X1650593Y1386561D1*
X1654395D1*
X1658242Y1384615D1*
X1663946Y1380813D1*
X1683091Y1361667D1*
Y1388462D1*
X1247966Y1356720D2*
X1246065D1*
X1242218Y1358621D1*
X1240317Y1360522D1*
X1238416Y1364369D1*
Y1372018D1*
X1240317Y1375821D1*
X1242218Y1377722D1*
X1246065Y1379668D1*
X1249868D1*
X1253714Y1377722D1*
X1259418Y1373920D1*
X1278564Y1354774D1*
Y1381569D1*
X1274717Y1395822D2*
X1276662Y1393920D1*
X1278564Y1395822D1*
X1276662Y1397767D1*
X1274717Y1395822D1*
X1238416Y1433066D2*
Y1413965D1*
X1255616Y1412064D1*
X1253714Y1413965D1*
X1251769Y1419713D1*
Y1425417D1*
X1253714Y1431165D1*
X1257517Y1435012D1*
X1263265Y1436913D1*
X1267067D1*
X1272815Y1435012D1*
X1276662Y1431165D1*
X1278564Y1425417D1*
Y1419713D1*
X1276662Y1413965D1*
X1274717Y1412064D1*
X1270914Y1410119D1*
X1232218Y925617D2*
X1230317D1*
X1226470Y927519D1*
X1224569Y929420D1*
X1222668Y933267D1*
Y940916D1*
X1224569Y944719D1*
X1226470Y946620D1*
X1230317Y948565D1*
X1234120D1*
X1237966Y946620D1*
X1243670Y942817D1*
X1262815Y923672D1*
Y950467D1*
X1258969Y964719D2*
X1260914Y962818D1*
X1262815Y964719D1*
X1260914Y966665D1*
X1258969Y964719D1*
X1222668Y1001964D2*
Y982863D1*
X1239868Y980962D1*
X1237966Y982863D1*
X1236021Y988611D1*
Y994315D1*
X1237966Y1000063D1*
X1241769Y1003910D1*
X1247517Y1005811D1*
X1251319D1*
X1257067Y1003910D1*
X1260914Y1000063D1*
X1262815Y994315D1*
Y988611D1*
X1260914Y982863D1*
X1258969Y980962D1*
X1255166Y979016D1*
X293332Y1464929D2*
X289530Y1463028D1*
X287628Y1457280D1*
Y1453477D1*
X289530Y1447729D1*
X295278Y1443882D1*
X304828Y1441981D1*
X314379D1*
X322028Y1443882D1*
X325875Y1447729D1*
X327776Y1453477D1*
Y1455378D1*
X325875Y1461082D1*
X322028Y1464929D1*
X316280Y1466830D1*
X314379D1*
X308631Y1464929D1*
X304828Y1461082D1*
X302927Y1455378D1*
Y1453477D1*
X304828Y1447729D1*
X308631Y1443882D1*
X314379Y1441981D1*
X323929Y1481083D2*
X325875Y1479182D1*
X327776Y1481083D1*
X325875Y1483028D1*
X323929Y1481083D1*
X287628Y1518328D2*
Y1499227D1*
X304828Y1497325D1*
X302927Y1499227D1*
X300981Y1504975D1*
Y1510678D1*
X302927Y1516426D1*
X306729Y1520273D1*
X312478Y1522175D1*
X316280D1*
X322028Y1520273D1*
X325875Y1516426D1*
X327776Y1510678D1*
Y1504975D1*
X325875Y1499227D1*
X323929Y1497325D1*
X320127Y1495380D1*
X297179Y1536471D2*
X295278D1*
X291431Y1538373D1*
X289530Y1540274D1*
X287628Y1544121D1*
Y1551770D1*
X289530Y1555573D1*
X291431Y1557474D1*
X295278Y1559419D1*
X299080D1*
X302927Y1557474D1*
X308631Y1553671D1*
X327776Y1534526D1*
Y1561321D1*
X299238Y822016D2*
X295435Y820114D1*
X293534Y814366D1*
Y810564D1*
X295435Y804816D1*
X301183Y800969D1*
X310734Y799068D1*
X320284D1*
X327934Y800969D1*
X331780Y804816D1*
X333682Y810564D1*
Y812465D1*
X331780Y818169D1*
X327934Y822016D1*
X322186Y823917D1*
X320284D1*
X314536Y822016D1*
X310734Y818169D1*
X308832Y812465D1*
Y810564D1*
X310734Y804816D1*
X314536Y800969D1*
X320284Y799068D1*
X329835Y838170D2*
X331780Y836268D1*
X333682Y838170D1*
X331780Y840115D1*
X329835Y838170D1*
X293534Y875414D2*
Y856313D1*
X310734Y854412D1*
X308832Y856313D1*
X306887Y862061D1*
Y867765D1*
X308832Y873513D1*
X312635Y877360D1*
X318383Y879261D1*
X322186D1*
X327934Y877360D1*
X331780Y873513D1*
X333682Y867765D1*
Y862061D1*
X331780Y856313D1*
X329835Y854412D1*
X326032Y852466D1*
X293534Y895459D2*
Y916462D1*
X308832Y905010D1*
Y910758D1*
X310734Y914560D1*
X312635Y916462D1*
X318383Y918407D1*
X322186D1*
X327934Y916462D1*
X331780Y912659D1*
X333682Y906911D1*
Y901163D1*
X331780Y895459D1*
X329835Y893558D1*
X326032Y891613D1*
X1866788Y1579914D2*
X1861040Y1581859D1*
X1857193Y1585662D1*
X1855292Y1591410D1*
Y1593311D1*
X1857193Y1599059D1*
X1861040Y1602861D1*
X1866788Y1604807D1*
X1868689D1*
X1874437Y1602861D1*
X1878239Y1599059D1*
X1880141Y1593311D1*
Y1591410D1*
X1878239Y1585662D1*
X1874437Y1581859D1*
X1866788Y1579914D1*
X1857193D1*
X1847642Y1581859D1*
X1841894Y1585662D1*
X1839993Y1591410D1*
Y1595212D1*
X1841894Y1600960D1*
X1845741Y1602861D1*
X1843840Y1565661D2*
X1841894Y1567562D1*
X1839993Y1565661D1*
X1841894Y1563715D1*
X1843840Y1565661D1*
X1880141Y1539868D2*
X1878239Y1545616D1*
X1872491Y1549463D1*
X1862941Y1551364D1*
X1857193D1*
X1847642Y1549463D1*
X1841894Y1545616D1*
X1839993Y1539868D1*
Y1536065D1*
X1841894Y1530317D1*
X1847642Y1526515D1*
X1857193Y1524569D1*
X1862941D1*
X1872491Y1526515D1*
X1878239Y1530317D1*
X1880141Y1536065D1*
Y1539868D1*
X1872491Y1526515D2*
X1847642Y1549463D1*
X1866788Y1487324D2*
X1861040Y1489270D1*
X1857193Y1493073D1*
X1855292Y1498821D1*
Y1500722D1*
X1857193Y1506470D1*
X1861040Y1510272D1*
X1866788Y1512218D1*
X1868689D1*
X1874437Y1510272D1*
X1878239Y1506470D1*
X1880141Y1500722D1*
Y1498821D1*
X1878239Y1493073D1*
X1874437Y1489270D1*
X1866788Y1487324D1*
X1857193D1*
X1847642Y1489270D1*
X1841894Y1493073D1*
X1839993Y1498821D1*
Y1502623D1*
X1841894Y1508371D1*
X1845741Y1510272D1*
X1808914Y808597D2*
X1803166Y810542D1*
X1799319Y814345D1*
X1797418Y820093D1*
Y821994D1*
X1799319Y827742D1*
X1803166Y831545D1*
X1808914Y833490D1*
X1810815D1*
X1816563Y831545D1*
X1820365Y827742D1*
X1822267Y821994D1*
Y820093D1*
X1820365Y814345D1*
X1816563Y810542D1*
X1808914Y808597D1*
X1799319D1*
X1789768Y810542D1*
X1784020Y814345D1*
X1782119Y820093D1*
Y823895D1*
X1784020Y829643D1*
X1787867Y831545D1*
X1785966Y794344D2*
X1784020Y796245D1*
X1782119Y794344D1*
X1784020Y792399D1*
X1785966Y794344D1*
X1814617Y780047D2*
X1816563Y776200D1*
X1822267Y770452D1*
X1782119D1*
X2215574Y1384595D2*
X2213672Y1390343D1*
X2207924Y1394190D1*
X2198374Y1396091D1*
X2192626D1*
X2183075Y1394190D1*
X2177327Y1390343D1*
X2175426Y1384595D1*
Y1380792D1*
X2177327Y1375044D1*
X2183075Y1371242D1*
X2192626Y1369296D1*
X2198374D1*
X2207924Y1371242D1*
X2213672Y1375044D1*
X2215574Y1380792D1*
Y1384595D1*
X2207924Y1371242D2*
X2183075Y1394190D1*
X2179273Y1355043D2*
X2177327Y1356945D1*
X2175426Y1355043D1*
X2177327Y1353098D1*
X2179273Y1355043D1*
X2215574Y1331196D2*
X2213672Y1336900D1*
X2209870Y1338845D1*
X2206023D1*
X2202221Y1336900D1*
X2200275Y1333097D1*
X2198374Y1325448D1*
X2196473Y1319700D1*
X2192626Y1315897D1*
X2188823Y1313996D1*
X2183075D1*
X2179273Y1315897D1*
X2177327Y1317799D1*
X2175426Y1323547D1*
Y1331196D1*
X2177327Y1336900D1*
X2179273Y1338845D1*
X2183075Y1340747D1*
X2188823D1*
X2192626Y1338845D1*
X2196473Y1334999D1*
X2198374Y1329295D1*
X2200275Y1321645D1*
X2202221Y1317799D1*
X2206023Y1315897D1*
X2209870D1*
X2213672Y1317799D1*
X2215574Y1323547D1*
Y1331196D1*
X2211637Y1101130D2*
X2209735Y1106878D1*
X2203987Y1110725D1*
X2194437Y1112626D1*
X2188689D1*
X2179138Y1110725D1*
X2173390Y1106878D1*
X2171489Y1101130D1*
Y1097328D1*
X2173390Y1091580D1*
X2179138Y1087777D1*
X2188689Y1085832D1*
X2194437D1*
X2203987Y1087777D1*
X2209735Y1091580D1*
X2211637Y1097328D1*
Y1101130D1*
X2203987Y1087777D2*
X2179138Y1110725D1*
X2175336Y1071579D2*
X2173390Y1073480D1*
X2171489Y1071579D1*
X2173390Y1069633D1*
X2175336Y1071579D1*
X2211637Y1047731D2*
X2209735Y1053435D1*
X2205933Y1055381D1*
X2202086D1*
X2198284Y1053435D1*
X2196338Y1049633D1*
X2194437Y1041983D1*
X2192536Y1036235D1*
X2188689Y1032433D1*
X2184886Y1030532D1*
X2179138D1*
X2175336Y1032433D1*
X2173390Y1034334D1*
X2171489Y1040082D1*
Y1047731D1*
X2173390Y1053435D1*
X2175336Y1055381D1*
X2179138Y1057282D1*
X2184886D1*
X2188689Y1055381D1*
X2192536Y1051534D1*
X2194437Y1045830D1*
X2196338Y1038181D1*
X2198284Y1034334D1*
X2202086Y1032433D1*
X2205933D1*
X2209735Y1034334D1*
X2211637Y1040082D1*
Y1047731D1*
X2210456Y817666D2*
X2208554Y823414D1*
X2202806Y827260D1*
X2193256Y829162D1*
X2187508D1*
X2177957Y827260D1*
X2172209Y823414D1*
X2170308Y817666D1*
Y813863D1*
X2172209Y808115D1*
X2177957Y804312D1*
X2187508Y802367D1*
X2193256D1*
X2202806Y804312D1*
X2208554Y808115D1*
X2210456Y813863D1*
Y817666D1*
X2202806Y804312D2*
X2177957Y827260D1*
X2174155Y788114D2*
X2172209Y790016D1*
X2170308Y788114D1*
X2172209Y786169D1*
X2174155Y788114D1*
X2210456Y764267D2*
X2208554Y769971D1*
X2204752Y771916D1*
X2200905D1*
X2197103Y769971D1*
X2195157Y766168D1*
X2193256Y758519D1*
X2191355Y752771D1*
X2187508Y748968D1*
X2183705Y747067D1*
X2177957D1*
X2174155Y748968D1*
X2172209Y750870D1*
X2170308Y756618D1*
Y764267D1*
X2172209Y769971D1*
X2174155Y771916D1*
X2177957Y773817D1*
X2183705D1*
X2187508Y771916D1*
X2191355Y768069D1*
X2193256Y762366D1*
X2195157Y754716D1*
X2197103Y750870D1*
X2200905Y748968D1*
X2204752D1*
X2208554Y750870D1*
X2210456Y756618D1*
Y764267D1*
X2152290Y1925429D2*
X2173293D1*
X2161841Y1910131D1*
X2167589D1*
X2171391Y1908230D1*
X2173293Y1906328D1*
X2175238Y1900580D1*
Y1896778D1*
X2173293Y1891030D1*
X2169490Y1887183D1*
X2163742Y1885282D1*
X2157994D1*
X2152290Y1887183D1*
X2150389Y1889128D1*
X2148443Y1892931D1*
X2189491Y1889128D2*
X2187590Y1887183D1*
X2189491Y1885282D1*
X2191436Y1887183D1*
X2189491Y1889128D1*
X2226736Y1925429D2*
X2207634D1*
X2205733Y1908230D1*
X2207634Y1910131D1*
X2213382Y1912076D1*
X2219086D1*
X2224834Y1910131D1*
X2228681Y1906328D1*
X2230582Y1900580D1*
Y1896778D1*
X2228681Y1891030D1*
X2224834Y1887183D1*
X2219086Y1885282D1*
X2213382D1*
X2207634Y1887183D1*
X2205733Y1889128D1*
X2203788Y1892931D1*
X1664291Y1235279D2*
X1666192D1*
X1670039Y1233378D1*
X1671940Y1231477D1*
X1673841Y1227630D1*
Y1219981D1*
X1671940Y1216178D1*
X1670039Y1214277D1*
X1666192Y1212331D1*
X1662390D1*
X1658543Y1214277D1*
X1652839Y1218079D1*
X1633694Y1237225D1*
Y1210430D1*
X1637540Y1196177D2*
X1635595Y1198079D1*
X1633694Y1196177D1*
X1635595Y1194232D1*
X1637540Y1196177D1*
X1666192Y1181880D2*
X1668138Y1178034D1*
X1673841Y1172286D1*
X1633694D1*
Y1140789D2*
X1673841D1*
X1647091Y1159934D1*
Y1131238D1*
X1397573Y1119130D2*
X1395671D1*
X1391825Y1121032D1*
X1389923Y1122933D1*
X1388022Y1126780D1*
Y1134429D1*
X1389923Y1138231D1*
X1391825Y1140133D1*
X1395671Y1142078D1*
X1399474D1*
X1403321Y1140133D1*
X1409024Y1136330D1*
X1428170Y1117185D1*
Y1143979D1*
X1424323Y1158232D2*
X1426269Y1156331D1*
X1428170Y1158232D1*
X1426269Y1160178D1*
X1424323Y1158232D1*
X1395671Y1172529D2*
X1393726Y1176376D1*
X1388022Y1182124D1*
X1428170D1*
Y1213621D2*
X1388022D1*
X1414772Y1194475D1*
Y1223171D1*
X2541341Y1209893D2*
X2539395Y1213740D1*
X2533691Y1219488D1*
X2573839D1*
X2569992Y1233741D2*
X2571938Y1231840D1*
X2573839Y1233741D1*
X2571938Y1235686D1*
X2569992Y1233741D1*
X2533691Y1257588D2*
X2535593Y1251885D1*
X2539395Y1249939D1*
X2543242D1*
X2547044Y1251885D1*
X2548990Y1255687D1*
X2550891Y1263336D1*
X2552792Y1269084D1*
X2556639Y1272887D1*
X2560442Y1274788D1*
X2566190D1*
X2569992Y1272887D1*
X2571938Y1270986D1*
X2573839Y1265238D1*
Y1257588D1*
X2571938Y1251885D1*
X2569992Y1249939D1*
X2566190Y1248038D1*
X2560442D1*
X2556639Y1249939D1*
X2552792Y1253786D1*
X2550891Y1259490D1*
X2548990Y1267139D1*
X2547044Y1270986D1*
X2543242Y1272887D1*
X2539395D1*
X2535593Y1270986D1*
X2533691Y1265238D1*
Y1257588D1*
X2525593Y745327D2*
X2523647Y749173D1*
X2517943Y754921D1*
X2558091D1*
X2554244Y769174D2*
X2556190Y767273D1*
X2558091Y769174D1*
X2556190Y771119D1*
X2554244Y769174D1*
X2517943Y793021D2*
X2519845Y787318D1*
X2523647Y785372D1*
X2527494D1*
X2531296Y787318D1*
X2533242Y791120D1*
X2535143Y798769D1*
X2537044Y804518D1*
X2540891Y808320D1*
X2544694Y810221D1*
X2550442D1*
X2554244Y808320D1*
X2556190Y806419D1*
X2558091Y800671D1*
Y793021D1*
X2556190Y787318D1*
X2554244Y785372D1*
X2550442Y783471D1*
X2544694D1*
X2540891Y785372D1*
X2537044Y789219D1*
X2535143Y794923D1*
X2533242Y802572D1*
X2531296Y806419D1*
X2527494Y808320D1*
X2523647D1*
X2519845Y806419D1*
X2517943Y800671D1*
Y793021D1*
X1208596Y1624465D2*
X1206695D1*
X1202848Y1626366D1*
X1200947Y1628268D1*
X1199046Y1632114D1*
Y1639764D1*
X1200947Y1643566D1*
X1202848Y1645468D1*
X1206695Y1647413D1*
X1210498D1*
X1214344Y1645468D1*
X1220048Y1641665D1*
X1239193Y1622520D1*
Y1649314D1*
X1235347Y1663567D2*
X1237292Y1661666D1*
X1239193Y1663567D1*
X1237292Y1665512D1*
X1235347Y1663567D1*
X1199046Y1687414D2*
X1200947Y1681711D1*
X1204749Y1679765D1*
X1208596D1*
X1212399Y1681711D1*
X1214344Y1685513D1*
X1216246Y1693162D1*
X1218147Y1698911D1*
X1221994Y1702713D1*
X1225796Y1704614D1*
X1231544D1*
X1235347Y1702713D1*
X1237292Y1700812D1*
X1239193Y1695064D1*
Y1687414D1*
X1237292Y1681711D1*
X1235347Y1679765D1*
X1231544Y1677864D1*
X1225796D1*
X1221994Y1679765D1*
X1218147Y1683612D1*
X1216246Y1689316D1*
X1214344Y1696965D1*
X1212399Y1700812D1*
X1208596Y1702713D1*
X1204749D1*
X1200947Y1700812D1*
X1199046Y1695064D1*
Y1687414D1*
X1125919Y657916D2*
X1124018D1*
X1120171Y659818D1*
X1118270Y661719D1*
X1116368Y665566D1*
Y673215D1*
X1118270Y677017D1*
X1120171Y678919D1*
X1124018Y680864D1*
X1127820D1*
X1131667Y678919D1*
X1137371Y675116D1*
X1156516Y655971D1*
Y682765D1*
X1152670Y697018D2*
X1154615Y695117D1*
X1156516Y697018D1*
X1154615Y698964D1*
X1152670Y697018D1*
X1116368Y720866D2*
X1118270Y715162D1*
X1122072Y713216D1*
X1125919D1*
X1129722Y715162D1*
X1131667Y718964D1*
X1133568Y726614D1*
X1135470Y732362D1*
X1139316Y736164D1*
X1143119Y738066D1*
X1148867D1*
X1152670Y736164D1*
X1154615Y734263D1*
X1156516Y728515D1*
Y720866D1*
X1154615Y715162D1*
X1152670Y713216D1*
X1148867Y711315D1*
X1143119D1*
X1139316Y713216D1*
X1135470Y717063D1*
X1133568Y722767D1*
X1131667Y730416D1*
X1129722Y734263D1*
X1125919Y736164D1*
X1122072D1*
X1118270Y734263D1*
X1116368Y728515D1*
Y720866D1*
X1181027Y1938825D2*
X1200173Y1978973D1*
X1173378D1*
X1179059Y340793D2*
X1198204Y380941D1*
X1171410D1*
X2881337Y2056541D2*
Y2096689D1*
X2862191Y2069939D1*
X2890887D1*
X3247867Y1882902D2*
X3288015D1*
X3261264Y1902048D1*
Y1873352D1*
X2881337Y249455D2*
Y289603D1*
X2862191Y262852D1*
X2890887D1*
X3511646Y465579D2*
X3551794D1*
X3525044Y484725D1*
Y456029D1*
X479762Y241581D2*
Y281729D1*
X460617Y254978D1*
X489312D1*
X65965Y481350D2*
X25817D1*
X52568Y462204D1*
Y490900D1*
X184075Y1898673D2*
X143928D1*
X170678Y1879527D1*
Y1908223D1*
X479762Y2182526D2*
Y2222674D1*
X460617Y2195923D1*
X489312D1*
M02*
