G04 DipTrace 3.1.0.1*
G04 TAS5805Mbis2.TopSilk.gbr*
%MOIN*%
G04 #@! TF.FileFunction,Legend,Top*
G04 #@! TF.Part,Single*
%ADD10C,0.009843*%
%ADD62C,0.004632*%
%ADD63C,0.006176*%
%ADD64C,0.00772*%
%FSLAX26Y26*%
G04*
G70*
G90*
G75*
G01*
G04 TopSilk*
%LPD*%
X784081Y749042D2*
D10*
X864788Y749071D1*
X784081Y749042D2*
Y532519D1*
X827397Y489226D2*
X784081Y532519D1*
X827397Y489226D2*
X864788D1*
X963217Y749071D2*
X1043924Y749042D1*
Y532519D1*
X1000608Y489226D2*
X1043924Y532519D1*
X963217Y489226D2*
X1000608D1*
X1437625Y760866D2*
X1508491D1*
X1319514Y638819D2*
X1390381D1*
X1508491Y760866D2*
Y638819D1*
X1319514Y760866D2*
X1390381D1*
X1319514D2*
Y638819D1*
X1435659D2*
X1508491D1*
X1322221Y861703D2*
X1390977D1*
X1509721D2*
Y774203D1*
X1390977D2*
X1322221D1*
Y861703D1*
X1440965Y774203D2*
X1509721D1*
X1440965Y861703D2*
X1509721D1*
X1390196Y950441D2*
X1330192D1*
X1390196Y874441D2*
X1330192D1*
Y950441D2*
Y874441D1*
X1474192Y950441D2*
X1414187D1*
X1474192Y874441D2*
X1414187D1*
X1474192Y950441D2*
Y874441D1*
X1045892Y1605368D2*
X965185Y1605339D1*
X1045892Y1605368D2*
Y1821891D1*
X1002577Y1865183D2*
X1045892Y1821891D1*
X1002577Y1865183D2*
X965185D1*
X866757Y1605339D2*
X786050Y1605368D1*
Y1821891D1*
X829366Y1865183D2*
X786050Y1821891D1*
X866757Y1865183D2*
X829366D1*
X1439593Y1715591D2*
X1510459D1*
X1321483Y1593543D2*
X1392349D1*
X1510459Y1715591D2*
Y1593543D1*
X1321483Y1715591D2*
X1392349D1*
X1321483D2*
Y1593543D1*
X1437628D2*
X1510459D1*
X1322221Y1580207D2*
X1390977D1*
X1509721D2*
Y1492707D1*
X1390977D2*
X1322221D1*
Y1580207D1*
X1440965Y1492707D2*
X1509721D1*
X1440965Y1580207D2*
X1509721D1*
X1390196Y1479969D2*
X1330192D1*
X1390196Y1403969D2*
X1330192D1*
Y1479969D2*
Y1403969D1*
X1474192Y1479969D2*
X1414187D1*
X1474192Y1403969D2*
X1414187D1*
X1474192Y1479969D2*
Y1403969D1*
X854505Y1560522D2*
X923261D1*
X1042005D2*
Y1473022D1*
X923261D2*
X854505D1*
Y1560522D1*
X973248Y1473022D2*
X1042005D1*
X973248Y1560522D2*
X1042005D1*
X948070Y1460283D2*
X888066D1*
X948070Y1384283D2*
X888066D1*
Y1460283D2*
Y1384283D1*
X1032066Y1460283D2*
X972061D1*
X1032066Y1384283D2*
X972061D1*
X1032066Y1460283D2*
Y1384283D1*
X972061Y1207118D2*
X1032066D1*
X972061Y1283118D2*
X1032066D1*
Y1207118D2*
Y1283118D1*
X888066Y1207118D2*
X948070D1*
X888066Y1283118D2*
X948070D1*
X888066Y1207118D2*
Y1283118D1*
X948070Y964220D2*
X888066D1*
X948070Y888220D2*
X888066D1*
Y964220D2*
Y888220D1*
X1032066Y964220D2*
X972061D1*
X1032066Y888220D2*
X972061D1*
X1032066Y964220D2*
Y888220D1*
X1540958Y1285858D2*
X1600963D1*
X1540958Y1361858D2*
X1600963D1*
Y1285858D2*
Y1361858D1*
X1456963Y1285858D2*
X1516968D1*
X1456963Y1361858D2*
X1516968D1*
X1456963Y1285858D2*
Y1361858D1*
X1709467Y1243950D2*
Y1183945D1*
X1785467Y1243950D2*
Y1183945D1*
X1709467D2*
X1785467D1*
X1709467Y1327945D2*
Y1267940D1*
X1785467Y1327945D2*
Y1267940D1*
X1709467Y1327945D2*
X1785467D1*
X1540958Y992551D2*
X1600963D1*
X1540958Y1068551D2*
X1600963D1*
Y992551D2*
Y1068551D1*
X1456963Y992551D2*
X1516968D1*
X1456963Y1068551D2*
X1516968D1*
X1456963Y992551D2*
Y1068551D1*
X1785467Y1110066D2*
Y1170071D1*
X1709467Y1110066D2*
Y1170071D1*
X1785467D2*
X1709467D1*
X1785467Y1026071D2*
Y1086076D1*
X1709467Y1026071D2*
Y1086076D1*
X1785467Y1026071D2*
X1709467D1*
X2442792Y1476171D2*
X2374036D1*
X2255292D2*
Y1563671D1*
X2374036D2*
X2442792D1*
Y1476171D1*
X2324048Y1563671D2*
X2255292D1*
X2324048Y1476171D2*
X2255292D1*
X2442792Y1357274D2*
X2374036D1*
X2255292D2*
Y1444774D1*
X2374036D2*
X2442792D1*
Y1357274D1*
X2324048Y1444774D2*
X2255292D1*
X2324048Y1357274D2*
X2255292D1*
X2442792Y790344D2*
X2374036D1*
X2255292D2*
Y877844D1*
X2374036D2*
X2442792D1*
Y790344D1*
X2324048Y877844D2*
X2255292D1*
X2324048Y790344D2*
X2255292D1*
X2442792Y909242D2*
X2374036D1*
X2255292D2*
Y996742D1*
X2374036D2*
X2442792D1*
Y909242D1*
X2324048Y996742D2*
X2255292D1*
X2324048Y909242D2*
X2255292D1*
X547467Y902062D2*
Y952009D1*
Y902062D2*
X522467Y877008D1*
X472467D1*
X447467Y902062D1*
X547467Y952009D2*
X522467Y977063D1*
X547467Y1001957D1*
X472467Y1076958D2*
X447467Y1052064D1*
Y1001957D1*
X472467Y977063D1*
X447467Y952009D1*
Y926955D1*
Y902062D1*
X547467Y1001957D2*
Y1052064D1*
X522467Y1076958D1*
X472467D1*
X547467Y702062D2*
Y752009D1*
Y702062D2*
X522467Y677008D1*
X472467D1*
X447467Y702062D1*
X547467Y752009D2*
X522467Y777063D1*
X547467Y801957D1*
X472467Y876958D2*
X447467Y852064D1*
Y801957D1*
X472467Y777063D1*
X447467Y752009D1*
Y726955D1*
Y702062D1*
X547467Y801957D2*
Y852064D1*
X522467Y876958D1*
X472467D1*
X549436Y1102058D2*
Y1152008D1*
Y1102058D2*
X524436Y1077008D1*
X474436D1*
X449436Y1102058D1*
X549436Y1152008D2*
X524436Y1177058D1*
X549436Y1201958D1*
X474436Y1377008D2*
X449436Y1351958D1*
Y1302008D1*
X474436Y1276958D1*
X449436Y1252058D1*
Y1201958D1*
X474436Y1177058D1*
X449436Y1152008D1*
Y1126958D1*
Y1102058D1*
X549436Y1201958D2*
Y1252058D1*
X524436Y1276958D1*
X549436Y1302008D1*
Y1351958D1*
X524436Y1377008D1*
X474436D2*
X524436D1*
X549436Y1402058D2*
Y1452008D1*
Y1402058D2*
X524436Y1377008D1*
X474436D1*
X449436Y1402058D1*
X549436Y1452008D2*
X524436Y1477058D1*
X549436Y1501958D1*
X474436Y1677008D2*
X449436Y1651958D1*
Y1602008D1*
X474436Y1576958D1*
X449436Y1552058D1*
Y1501958D1*
X474436Y1477058D1*
X449436Y1452008D1*
Y1426958D1*
Y1402058D1*
X549436Y1501958D2*
Y1552058D1*
X524436Y1576958D1*
X549436Y1602008D1*
Y1651958D1*
X524436Y1677008D1*
X474436D2*
X524436D1*
X2637231Y1263622D2*
X2932507D1*
Y1657323D1*
X2637231D1*
Y1263622D1*
Y696693D2*
X2932507D1*
Y1090394D1*
X2637231D1*
Y696693D1*
X1873439Y1728189D2*
X2117558D1*
X1873439Y1476220D2*
X2117558D1*
X1873439Y1444724D2*
X2117558D1*
X1873439Y1192756D2*
X2117558D1*
X1873439Y877795D2*
X2117558D1*
X1873439Y625827D2*
X2117558D1*
X1873439Y1161260D2*
X2117558D1*
X1873439Y909291D2*
X2117558D1*
X777593Y1046483D2*
Y1106488D1*
X701593Y1046483D2*
Y1106488D1*
X777593D2*
X701593D1*
X777593Y962488D2*
Y1022493D1*
X701593Y962488D2*
Y1022493D1*
X777593Y962488D2*
X701593D1*
X866176Y1046483D2*
Y1106488D1*
X790176Y1046483D2*
Y1106488D1*
X866176D2*
X790176D1*
X866176Y962488D2*
Y1022493D1*
X790176Y962488D2*
Y1022493D1*
X866176Y962488D2*
X790176D1*
X972061Y1295701D2*
X1032066D1*
X972061Y1371701D2*
X1032066D1*
Y1295701D2*
Y1371701D1*
X888066Y1295701D2*
X948070D1*
X888066Y1371701D2*
X948070D1*
X888066Y1295701D2*
Y1371701D1*
X972061Y976803D2*
X1032066D1*
X972061Y1052803D2*
X1032066D1*
Y976803D2*
Y1052803D1*
X888066Y976803D2*
X948070D1*
X888066Y1052803D2*
X948070D1*
X888066Y976803D2*
Y1052803D1*
X1156910Y1370118D2*
Y1358312D1*
X1330158Y1370118D2*
Y1358312D1*
X1156910Y984291D2*
X1330158D1*
X1156910Y1370118D2*
X1223845Y1370080D1*
X1263223D2*
X1330158Y1370118D1*
X1223845Y1370080D2*
G03X1263223Y1370080I19689J89D01*
G01*
X1330158Y984291D2*
Y996098D1*
X1156910Y984291D2*
Y996098D1*
X916534Y801574D2*
D62*
X915108Y804426D1*
X912223Y807311D1*
X909371Y808737D1*
X903634D1*
X900749Y807311D1*
X897897Y804426D1*
X896438Y801574D1*
X895012Y797263D1*
Y790067D1*
X896438Y785789D1*
X897897Y782904D1*
X900749Y780052D1*
X903634Y778593D1*
X909371D1*
X912223Y780052D1*
X915108Y782904D1*
X916534Y785789D1*
X925797Y802967D2*
X928682Y804426D1*
X932993Y808704D1*
Y778593D1*
X1525829Y695924D2*
X1522977Y694498D1*
X1520092Y691613D1*
X1518666Y688761D1*
Y683024D1*
X1520092Y680139D1*
X1522977Y677287D1*
X1525829Y675828D1*
X1530140Y674402D1*
X1537336D1*
X1541614Y675828D1*
X1544499Y677287D1*
X1547351Y680139D1*
X1548810Y683024D1*
Y688761D1*
X1547351Y691613D1*
X1544499Y694498D1*
X1541614Y695924D1*
X1525862Y706646D2*
X1524436D1*
X1521551Y708072D1*
X1520125Y709498D1*
X1518699Y712383D1*
Y718120D1*
X1520125Y720972D1*
X1521551Y722398D1*
X1524436Y723857D1*
X1527288D1*
X1530173Y722398D1*
X1534451Y719546D1*
X1548810Y705187D1*
Y725283D1*
X1527059Y814034D2*
X1524207Y812608D1*
X1521322Y809723D1*
X1519896Y806871D1*
Y801134D1*
X1521322Y798249D1*
X1524207Y795397D1*
X1527059Y793938D1*
X1531370Y792512D1*
X1538566D1*
X1542844Y793938D1*
X1545729Y795397D1*
X1548581Y798249D1*
X1550040Y801134D1*
Y806871D1*
X1548581Y809723D1*
X1545729Y812608D1*
X1542844Y814034D1*
X1519930Y826183D2*
Y841934D1*
X1531404Y833346D1*
Y837657D1*
X1532829Y840508D1*
X1534255Y841934D1*
X1538566Y843394D1*
X1541418D1*
X1545729Y841934D1*
X1548614Y839082D1*
X1550040Y834771D1*
Y830460D1*
X1548614Y826183D1*
X1547155Y824757D1*
X1544303Y823298D1*
X1491530Y907809D2*
X1488678Y906383D1*
X1485793Y903498D1*
X1484367Y900646D1*
Y894909D1*
X1485793Y892024D1*
X1488678Y889172D1*
X1491530Y887713D1*
X1495841Y886287D1*
X1503037D1*
X1507315Y887713D1*
X1510200Y889172D1*
X1513052Y892024D1*
X1514511Y894909D1*
Y900646D1*
X1513052Y903498D1*
X1510200Y906383D1*
X1507315Y907809D1*
X1514511Y931432D2*
X1484400D1*
X1504463Y917073D1*
Y938595D1*
X912052Y1917716D2*
X910626Y1920568D1*
X907741Y1923453D1*
X904889Y1924879D1*
X899152D1*
X896267Y1923453D1*
X893415Y1920568D1*
X891956Y1917716D1*
X890530Y1913405D1*
Y1906209D1*
X891956Y1901931D1*
X893415Y1899046D1*
X896267Y1896194D1*
X899152Y1894735D1*
X904889D1*
X907741Y1896194D1*
X910626Y1899046D1*
X912052Y1901931D1*
X938527Y1924846D2*
X924201D1*
X922775Y1911946D1*
X924201Y1913372D1*
X928512Y1914831D1*
X932790D1*
X937101Y1913372D1*
X939986Y1910520D1*
X941412Y1906209D1*
Y1903357D1*
X939986Y1899046D1*
X937101Y1896161D1*
X932790Y1894735D1*
X928512D1*
X924201Y1896161D1*
X922775Y1897620D1*
X921316Y1900472D1*
X1527798Y1651378D2*
X1524946Y1649952D1*
X1522061Y1647067D1*
X1520635Y1644215D1*
Y1638478D1*
X1522061Y1635593D1*
X1524946Y1632741D1*
X1527797Y1631282D1*
X1532108Y1629856D1*
X1539305D1*
X1543582Y1631282D1*
X1546468Y1632741D1*
X1549319Y1635593D1*
X1550779Y1638478D1*
Y1644215D1*
X1549319Y1647067D1*
X1546468Y1649952D1*
X1543583Y1651378D1*
X1524946Y1677852D2*
X1522094Y1676426D1*
X1520668Y1672115D1*
Y1669263D1*
X1522094Y1664952D1*
X1526405Y1662067D1*
X1533568Y1660641D1*
X1540731D1*
X1546468Y1662067D1*
X1549353Y1664952D1*
X1550779Y1669263D1*
Y1670689D1*
X1549353Y1674967D1*
X1546468Y1677852D1*
X1542157Y1679278D1*
X1540731D1*
X1536420Y1677852D1*
X1533568Y1674967D1*
X1532142Y1670689D1*
Y1669263D1*
X1533568Y1664952D1*
X1536420Y1662067D1*
X1540731Y1660641D1*
X1527059Y1532538D2*
X1524207Y1531112D1*
X1521322Y1528227D1*
X1519896Y1525375D1*
Y1519638D1*
X1521322Y1516753D1*
X1524207Y1513901D1*
X1527059Y1512442D1*
X1531370Y1511016D1*
X1538566D1*
X1542844Y1512442D1*
X1545729Y1513901D1*
X1548581Y1516753D1*
X1550040Y1519638D1*
Y1525375D1*
X1548581Y1528227D1*
X1545729Y1531112D1*
X1542844Y1532538D1*
X1550040Y1547538D2*
X1519930Y1561897D1*
Y1541802D1*
X1491530Y1438066D2*
X1488678Y1436640D1*
X1485793Y1433755D1*
X1484367Y1430903D1*
Y1425167D1*
X1485793Y1422281D1*
X1488678Y1419430D1*
X1491530Y1417970D1*
X1495841Y1416544D1*
X1503037D1*
X1507315Y1417970D1*
X1510200Y1419430D1*
X1513052Y1422281D1*
X1514511Y1425166D1*
Y1430903D1*
X1513052Y1433755D1*
X1510200Y1436640D1*
X1507315Y1438066D1*
X1484400Y1454493D2*
X1485826Y1450215D1*
X1488678Y1448756D1*
X1491563D1*
X1494415Y1450215D1*
X1495874Y1453067D1*
X1497300Y1458804D1*
X1498726Y1463115D1*
X1501611Y1465967D1*
X1504463Y1467393D1*
X1508774D1*
X1511626Y1465967D1*
X1513085Y1464541D1*
X1514511Y1460230D1*
Y1454493D1*
X1513085Y1450215D1*
X1511626Y1448756D1*
X1508774Y1447330D1*
X1504463D1*
X1501611Y1448756D1*
X1498726Y1451641D1*
X1497300Y1455919D1*
X1495874Y1461656D1*
X1494415Y1464541D1*
X1491563Y1465967D1*
X1488678D1*
X1485826Y1464541D1*
X1484400Y1460230D1*
Y1454493D1*
X1059343Y1513566D2*
X1056491Y1512140D1*
X1053606Y1509255D1*
X1052180Y1506403D1*
Y1500666D1*
X1053606Y1497781D1*
X1056491Y1494929D1*
X1059343Y1493470D1*
X1063654Y1492044D1*
X1070850D1*
X1075128Y1493470D1*
X1078013Y1494929D1*
X1080865Y1497781D1*
X1082324Y1500666D1*
Y1506403D1*
X1080865Y1509255D1*
X1078013Y1512140D1*
X1075128Y1513566D1*
X1062228Y1541499D2*
X1066539Y1540040D1*
X1069424Y1537188D1*
X1070850Y1532877D1*
Y1531451D1*
X1069424Y1527140D1*
X1066539Y1524289D1*
X1062228Y1522829D1*
X1060802D1*
X1056491Y1524289D1*
X1053639Y1527140D1*
X1052213Y1531451D1*
Y1532877D1*
X1053639Y1537188D1*
X1056491Y1540040D1*
X1062228Y1541499D1*
X1069424D1*
X1076587Y1540040D1*
X1080898Y1537188D1*
X1082324Y1532877D1*
Y1530025D1*
X1080898Y1525714D1*
X1078013Y1524289D1*
X1049404Y1410135D2*
X1046552Y1408709D1*
X1043667Y1405824D1*
X1042241Y1402972D1*
Y1397235D1*
X1043667Y1394350D1*
X1046552Y1391498D1*
X1049404Y1390039D1*
X1053715Y1388613D1*
X1060911D1*
X1065189Y1390039D1*
X1068074Y1391498D1*
X1070926Y1394350D1*
X1072385Y1397235D1*
Y1402972D1*
X1070926Y1405824D1*
X1068074Y1408709D1*
X1065189Y1410135D1*
X1048011Y1419398D2*
X1046552Y1422284D1*
X1042274Y1426595D1*
X1072385Y1426594D1*
X1042274Y1444480D2*
X1043700Y1440169D1*
X1048011Y1437284D1*
X1055174Y1435858D1*
X1059485D1*
X1066648Y1437284D1*
X1070959Y1440169D1*
X1072385Y1444480D1*
Y1447332D1*
X1070959Y1451643D1*
X1066648Y1454495D1*
X1059485Y1455954D1*
X1055174D1*
X1048011Y1454495D1*
X1043700Y1451643D1*
X1042274Y1447332D1*
Y1444480D1*
X1048011Y1454495D2*
X1066648Y1437284D1*
X954367Y1189780D2*
X952941Y1192632D1*
X950056Y1195517D1*
X947204Y1196943D1*
X941467D1*
X938582Y1195517D1*
X935730Y1192632D1*
X934271Y1189780D1*
X932845Y1185469D1*
Y1178273D1*
X934271Y1173995D1*
X935730Y1171110D1*
X938582Y1168258D1*
X941467Y1166799D1*
X947204D1*
X950056Y1168258D1*
X952941Y1171110D1*
X954367Y1173995D1*
X963631Y1191173D2*
X966516Y1192632D1*
X970827Y1196910D1*
Y1166799D1*
X980090Y1191173D2*
X982975Y1192632D1*
X987286Y1196910D1*
Y1166799D1*
X1049404Y914072D2*
X1046552Y912646D1*
X1043667Y909761D1*
X1042241Y906909D1*
Y901172D1*
X1043667Y898287D1*
X1046552Y895435D1*
X1049404Y893976D1*
X1053715Y892550D1*
X1060911D1*
X1065189Y893976D1*
X1068074Y895435D1*
X1070926Y898287D1*
X1072385Y901172D1*
Y906909D1*
X1070926Y909761D1*
X1068074Y912646D1*
X1065189Y914072D1*
X1048011Y923335D2*
X1046552Y926221D1*
X1042274Y930532D1*
X1072385D1*
X1049437Y941254D2*
X1048011D1*
X1045126Y942680D1*
X1043700Y944106D1*
X1042274Y946991D1*
Y952728D1*
X1043700Y955580D1*
X1045126Y957006D1*
X1048011Y958465D1*
X1050863D1*
X1053748Y957006D1*
X1058026Y954154D1*
X1072385Y939795D1*
Y959891D1*
X1516815Y1398629D2*
X1515389Y1401481D1*
X1512504Y1404366D1*
X1509652Y1405792D1*
X1503915D1*
X1501030Y1404366D1*
X1498178Y1401481D1*
X1496719Y1398629D1*
X1495293Y1394318D1*
Y1387122D1*
X1496719Y1382844D1*
X1498178Y1379959D1*
X1501030Y1377107D1*
X1503915Y1375648D1*
X1509652D1*
X1512504Y1377107D1*
X1515389Y1379959D1*
X1516815Y1382844D1*
X1526078Y1400022D2*
X1528963Y1401481D1*
X1533274Y1405759D1*
Y1375648D1*
X1545423Y1405759D2*
X1561175D1*
X1552586Y1394285D1*
X1556897D1*
X1559749Y1392859D1*
X1561175Y1391433D1*
X1562634Y1387122D1*
Y1384270D1*
X1561175Y1379959D1*
X1558323Y1377074D1*
X1554012Y1375648D1*
X1549701D1*
X1545423Y1377074D1*
X1543997Y1378533D1*
X1542538Y1381385D1*
X1672696Y1243083D2*
X1669844Y1241657D1*
X1666959Y1238772D1*
X1665533Y1235920D1*
Y1230184D1*
X1666959Y1227298D1*
X1669844Y1224447D1*
X1672696Y1222987D1*
X1677007Y1221561D1*
X1684203D1*
X1688481Y1222987D1*
X1691366Y1224447D1*
X1694218Y1227298D1*
X1695677Y1230183D1*
Y1235920D1*
X1694218Y1238772D1*
X1691366Y1241657D1*
X1688481Y1243083D1*
X1671304Y1252347D2*
X1669844Y1255232D1*
X1665567Y1259543D1*
X1695677D1*
Y1283166D2*
X1665567D1*
X1685629Y1268806D1*
Y1290328D1*
X1516815Y1105322D2*
X1515389Y1108174D1*
X1512504Y1111059D1*
X1509652Y1112485D1*
X1503915D1*
X1501030Y1111059D1*
X1498178Y1108174D1*
X1496719Y1105322D1*
X1495293Y1101011D1*
Y1093815D1*
X1496719Y1089537D1*
X1498178Y1086652D1*
X1501030Y1083800D1*
X1503915Y1082341D1*
X1509652D1*
X1512504Y1083800D1*
X1515389Y1086652D1*
X1516815Y1089537D1*
X1526078Y1106715D2*
X1528963Y1108174D1*
X1533274Y1112452D1*
Y1082341D1*
X1559749Y1112452D2*
X1545423D1*
X1543997Y1099552D1*
X1545423Y1100978D1*
X1549734Y1102437D1*
X1554012D1*
X1558323Y1100978D1*
X1561208Y1098126D1*
X1562634Y1093815D1*
Y1090963D1*
X1561208Y1086652D1*
X1558323Y1083767D1*
X1554012Y1082341D1*
X1549734D1*
X1545423Y1083767D1*
X1543997Y1085226D1*
X1542538Y1088078D1*
X1672696Y1086652D2*
X1669844Y1085226D1*
X1666959Y1082341D1*
X1665533Y1079489D1*
Y1073752D1*
X1666959Y1070867D1*
X1669844Y1068015D1*
X1672696Y1066556D1*
X1677007Y1065130D1*
X1684203D1*
X1688481Y1066556D1*
X1691366Y1068015D1*
X1694218Y1070867D1*
X1695677Y1073752D1*
Y1079489D1*
X1694218Y1082341D1*
X1691366Y1085226D1*
X1688481Y1086652D1*
X1671304Y1095915D2*
X1669844Y1098800D1*
X1665567Y1103112D1*
X1695677Y1103111D1*
X1669844Y1129586D2*
X1666993Y1128160D1*
X1665567Y1123849D1*
Y1120997D1*
X1666993Y1116686D1*
X1671304Y1113801D1*
X1678466Y1112375D1*
X1685629D1*
X1691366Y1113801D1*
X1694251Y1116686D1*
X1695677Y1120997D1*
Y1122423D1*
X1694251Y1126701D1*
X1691366Y1129586D1*
X1687055Y1131012D1*
X1685629D1*
X1681318Y1129586D1*
X1678466Y1126701D1*
X1677041Y1122423D1*
Y1120997D1*
X1678466Y1116686D1*
X1681318Y1113801D1*
X1685629Y1112375D1*
X2336893Y1600442D2*
X2335467Y1603294D1*
X2332582Y1606179D1*
X2329730Y1607605D1*
X2323993D1*
X2321108Y1606179D1*
X2318256Y1603294D1*
X2316797Y1600442D1*
X2315371Y1596131D1*
Y1588935D1*
X2316797Y1584657D1*
X2318256Y1581772D1*
X2321108Y1578920D1*
X2323993Y1577461D1*
X2329730D1*
X2332582Y1578920D1*
X2335467Y1581772D1*
X2336893Y1584657D1*
X2346157Y1601835D2*
X2349042Y1603294D1*
X2353353Y1607572D1*
Y1577461D1*
X2368354D2*
X2382713Y1607572D1*
X2362617D1*
X2336910Y1339935D2*
X2335484Y1342787D1*
X2332599Y1345672D1*
X2329747Y1347098D1*
X2324010D1*
X2321125Y1345672D1*
X2318273Y1342787D1*
X2316814Y1339935D1*
X2315388Y1335624D1*
Y1328428D1*
X2316814Y1324150D1*
X2318273Y1321265D1*
X2321125Y1318414D1*
X2324010Y1316954D1*
X2329747D1*
X2332599Y1318414D1*
X2335484Y1321265D1*
X2336910Y1324150D1*
X2346174Y1341328D2*
X2349059Y1342787D1*
X2353370Y1347065D1*
Y1316954D1*
X2369796Y1347065D2*
X2365518Y1345639D1*
X2364059Y1342787D1*
Y1339902D1*
X2365518Y1337050D1*
X2368370Y1335591D1*
X2374107Y1334165D1*
X2378418Y1332739D1*
X2381270Y1329854D1*
X2382696Y1327002D1*
Y1322691D1*
X2381270Y1319839D1*
X2379844Y1318380D1*
X2375533Y1316954D1*
X2369796D1*
X2365518Y1318380D1*
X2364059Y1319839D1*
X2362633Y1322691D1*
Y1327002D1*
X2364059Y1329854D1*
X2366944Y1332739D1*
X2371222Y1334165D1*
X2376959Y1335591D1*
X2379844Y1337050D1*
X2381270Y1339902D1*
Y1342787D1*
X2379844Y1345639D1*
X2375533Y1347065D1*
X2369796D1*
X2337606Y773006D2*
X2336180Y775858D1*
X2333295Y778743D1*
X2330443Y780169D1*
X2324706D1*
X2321821Y778743D1*
X2318969Y775858D1*
X2317510Y773006D1*
X2316084Y768695D1*
Y761499D1*
X2317510Y757221D1*
X2318969Y754336D1*
X2321821Y751484D1*
X2324706Y750025D1*
X2330443D1*
X2333295Y751484D1*
X2336180Y754336D1*
X2337606Y757221D1*
X2346870Y774399D2*
X2349755Y775858D1*
X2354066Y780136D1*
Y750025D1*
X2382000Y770121D2*
X2380540Y765810D1*
X2377689Y762925D1*
X2373378Y761499D1*
X2371952D1*
X2367641Y762925D1*
X2364789Y765810D1*
X2363330Y770121D1*
Y771547D1*
X2364789Y775858D1*
X2367641Y778710D1*
X2371952Y780136D1*
X2373378D1*
X2377689Y778710D1*
X2380540Y775858D1*
X2382000Y770121D1*
Y762925D1*
X2380540Y755762D1*
X2377689Y751451D1*
X2373378Y750025D1*
X2370526D1*
X2366215Y751451D1*
X2364789Y754336D1*
X2330443Y1033513D2*
X2329017Y1036365D1*
X2326132Y1039250D1*
X2323280Y1040676D1*
X2317544D1*
X2314658Y1039250D1*
X2311807Y1036365D1*
X2310347Y1033513D1*
X2308921Y1029202D1*
Y1022006D1*
X2310347Y1017728D1*
X2311807Y1014843D1*
X2314658Y1011991D1*
X2317544Y1010532D1*
X2323280D1*
X2326132Y1011991D1*
X2329017Y1014843D1*
X2330443Y1017728D1*
X2341166Y1033480D2*
Y1034906D1*
X2342592Y1037791D1*
X2344018Y1039217D1*
X2346903Y1040643D1*
X2352640D1*
X2355492Y1039217D1*
X2356918Y1037791D1*
X2358377Y1034906D1*
Y1032054D1*
X2356918Y1029169D1*
X2354066Y1024891D1*
X2339707Y1010532D1*
X2359803D1*
X2377689Y1040643D2*
X2373378Y1039217D1*
X2370492Y1034906D1*
X2369067Y1027743D1*
Y1023432D1*
X2370492Y1016269D1*
X2373378Y1011958D1*
X2377689Y1010532D1*
X2380540D1*
X2384851Y1011958D1*
X2387703Y1016269D1*
X2389163Y1023432D1*
Y1027743D1*
X2387703Y1034906D1*
X2384851Y1039217D1*
X2380540Y1040643D1*
X2377689D1*
X2387703Y1034906D2*
X2370492Y1016269D1*
X2149375Y1585370D2*
X2179519D1*
Y1602580D1*
X2155145Y1611844D2*
X2153686Y1614729D1*
X2149408Y1619040D1*
X2179519D1*
X2149375Y1295455D2*
X2179519D1*
Y1312666D1*
X2156571Y1323389D2*
X2155145D1*
X2152260Y1324815D1*
X2150834Y1326241D1*
X2149408Y1329126D1*
Y1334863D1*
X2150834Y1337714D1*
X2152260Y1339140D1*
X2155145Y1340599D1*
X2157997D1*
X2160882Y1339140D1*
X2165160Y1336288D1*
X2179519Y1321929D1*
Y1342025D1*
X2149375Y728526D2*
X2179519D1*
Y745737D1*
X2149408Y757885D2*
Y773637D1*
X2160882Y765048D1*
Y769359D1*
X2162308Y772211D1*
X2163734Y773637D1*
X2168045Y775096D1*
X2170897D1*
X2175208Y773637D1*
X2178093Y770785D1*
X2179519Y766474D1*
Y762163D1*
X2178093Y757885D1*
X2176634Y756459D1*
X2173782Y755000D1*
X2149375Y1011278D2*
X2179519D1*
Y1028488D1*
Y1052111D2*
X2149408D1*
X2169471Y1037752D1*
Y1059274D1*
X721315Y1136063D2*
X734215D1*
X738526Y1137522D1*
X739985Y1138948D1*
X741411Y1141800D1*
Y1144685D1*
X739985Y1147537D1*
X738526Y1148996D1*
X734215Y1150422D1*
X721315D1*
Y1120278D1*
X731363Y1136063D2*
X741411Y1120278D1*
X750675Y1144652D2*
X753560Y1146111D1*
X757871Y1150389D1*
Y1120278D1*
X803448Y1136063D2*
X816348D1*
X820659Y1137522D1*
X822118Y1138948D1*
X823544Y1141800D1*
Y1144685D1*
X822118Y1147537D1*
X820659Y1148996D1*
X816348Y1150422D1*
X803448D1*
Y1120278D1*
X813496Y1136063D2*
X823544Y1120278D1*
X834267Y1143226D2*
Y1144652D1*
X835693Y1147537D1*
X837119Y1148963D1*
X840004Y1150389D1*
X845741D1*
X848593Y1148963D1*
X850019Y1147537D1*
X851478Y1144652D1*
Y1141800D1*
X850019Y1138915D1*
X847167Y1134637D1*
X832808Y1120278D1*
X852904D1*
X858491Y1308973D2*
Y1321873D1*
X857032Y1326184D1*
X855606Y1327643D1*
X852754Y1329069D1*
X849869D1*
X847017Y1327643D1*
X845558Y1326184D1*
X844132Y1321873D1*
Y1308973D1*
X874276D1*
X858491Y1319021D2*
X874276Y1329069D1*
X844165Y1341218D2*
Y1356970D1*
X855639Y1348381D1*
Y1352692D1*
X857065Y1355544D1*
X858491Y1356969D1*
X862802Y1358429D1*
X865654D1*
X869965Y1356969D1*
X872850Y1354118D1*
X874276Y1349807D1*
Y1345496D1*
X872850Y1341218D1*
X871391Y1339792D1*
X868539Y1338333D1*
X934625Y1082378D2*
X947525D1*
X951836Y1083837D1*
X953295Y1085263D1*
X954721Y1088115D1*
Y1091000D1*
X953295Y1093852D1*
X951836Y1095311D1*
X947525Y1096737D1*
X934625D1*
Y1066593D1*
X944673Y1082378D2*
X954721Y1066593D1*
X978343D2*
Y1096704D1*
X963984Y1076641D1*
X985506D1*
X1225256Y1414052D2*
Y1392530D1*
X1226682Y1388219D1*
X1229567Y1385367D1*
X1233878Y1383908D1*
X1236730D1*
X1241041Y1385367D1*
X1243926Y1388219D1*
X1245352Y1392530D1*
Y1414052D1*
X1254616Y1408282D2*
X1257501Y1409741D1*
X1261812Y1414019D1*
Y1383908D1*
X568758Y1625372D2*
D63*
X586003D1*
X591706Y1627273D1*
X593652Y1629219D1*
X595553Y1633021D1*
Y1638769D1*
X593652Y1642572D1*
X591706Y1644517D1*
X586003Y1646419D1*
X568758D1*
Y1606227D1*
X607905Y1646419D2*
X623203Y1606227D1*
X638502Y1646419D1*
X650853D2*
Y1606227D1*
X664250D1*
X669998Y1608172D1*
X673845Y1611975D1*
X675747Y1615821D1*
X677648Y1621525D1*
Y1631120D1*
X675747Y1636868D1*
X673845Y1640671D1*
X669998Y1644517D1*
X664250Y1646419D1*
X650853D1*
X689999D2*
Y1606227D1*
X703397D1*
X709145Y1608172D1*
X712991Y1611975D1*
X714893Y1615821D1*
X716794Y1621525D1*
Y1631120D1*
X714893Y1636868D1*
X712991Y1640671D1*
X709145Y1644517D1*
X703397Y1646419D1*
X689999D1*
X568758Y1547993D2*
Y1507801D1*
X582156D1*
X587904Y1509747D1*
X591751Y1513549D1*
X593652Y1517396D1*
X595553Y1523100D1*
Y1532695D1*
X593652Y1538443D1*
X591751Y1542245D1*
X587904Y1546092D1*
X582156Y1547993D1*
X568758D1*
X607905D2*
X623203Y1507801D1*
X638502Y1547993D1*
X650853D2*
Y1507801D1*
X664250D1*
X669998Y1509747D1*
X673845Y1513549D1*
X675747Y1517396D1*
X677648Y1523100D1*
Y1532695D1*
X675747Y1538443D1*
X673845Y1542245D1*
X669998Y1546092D1*
X664250Y1547993D1*
X650853D1*
X689999D2*
Y1507801D1*
X703397D1*
X709145Y1509747D1*
X712991Y1513549D1*
X714893Y1517396D1*
X716794Y1523100D1*
Y1532695D1*
X714893Y1538443D1*
X712991Y1542245D1*
X709145Y1546092D1*
X703397Y1547993D1*
X689999D1*
X597454Y1436081D2*
X595553Y1439883D1*
X591706Y1443730D1*
X587904Y1445631D1*
X580255D1*
X576408Y1443730D1*
X572605Y1439883D1*
X570660Y1436081D1*
X568758Y1430333D1*
Y1420738D1*
X570660Y1415034D1*
X572605Y1411187D1*
X576408Y1407385D1*
X580255Y1405439D1*
X587904D1*
X591706Y1407385D1*
X595553Y1411187D1*
X597454Y1415034D1*
Y1420738D1*
X587904D1*
X636600Y1445631D2*
Y1405439D1*
X609806Y1445631D1*
Y1405439D1*
X648952Y1445631D2*
Y1405439D1*
X662349D1*
X668097Y1407385D1*
X671944Y1411187D1*
X673845Y1415034D1*
X675747Y1420738D1*
Y1430333D1*
X673845Y1436081D1*
X671944Y1439883D1*
X668097Y1443730D1*
X662349Y1445631D1*
X648952D1*
X568758Y1347206D2*
Y1307014D1*
X591706D1*
X604058Y1328061D2*
X621258D1*
X627006Y1330006D1*
X628951Y1331907D1*
X630852Y1335710D1*
Y1339557D1*
X628951Y1343359D1*
X627006Y1345305D1*
X621258Y1347206D1*
X604058D1*
Y1307014D1*
X617455Y1328061D2*
X630852Y1307014D1*
X671900Y1337655D2*
X669998Y1341458D1*
X666152Y1345305D1*
X662349Y1347206D1*
X654700D1*
X650853Y1345305D1*
X647051Y1341458D1*
X645105Y1337655D1*
X643204Y1331907D1*
Y1322313D1*
X645105Y1316609D1*
X647051Y1312762D1*
X650853Y1308959D1*
X654700Y1307014D1*
X662349D1*
X666152Y1308959D1*
X669998Y1312762D1*
X671900Y1316609D1*
X684251Y1347206D2*
Y1307014D1*
X707199D1*
X719550Y1347206D2*
Y1307014D1*
X746345Y1347206D2*
X719550Y1320411D1*
X729101Y1330006D2*
X746345Y1307014D1*
X595553Y1243033D2*
X591751Y1246880D1*
X586003Y1248781D1*
X578353D1*
X572605Y1246880D1*
X568758Y1243033D1*
Y1239230D1*
X570704Y1235383D1*
X572605Y1233482D1*
X576408Y1231581D1*
X587904Y1227734D1*
X591751Y1225833D1*
X593652Y1223887D1*
X595553Y1220085D1*
Y1214337D1*
X591751Y1210534D1*
X586003Y1208589D1*
X578353D1*
X572605Y1210534D1*
X568758Y1214337D1*
X636600Y1239230D2*
X634699Y1243033D1*
X630852Y1246880D1*
X627050Y1248781D1*
X619401D1*
X615554Y1246880D1*
X611751Y1243033D1*
X609806Y1239230D1*
X607905Y1233482D1*
Y1223887D1*
X609806Y1218184D1*
X611751Y1214337D1*
X615554Y1210534D1*
X619401Y1208589D1*
X627050D1*
X630852Y1210534D1*
X634699Y1214337D1*
X636600Y1218184D1*
X648952Y1248781D2*
Y1208589D1*
X671900D1*
X684251Y1248781D2*
Y1208589D1*
X711046Y1248781D2*
X684251Y1221986D1*
X693802Y1231581D2*
X711046Y1208589D1*
X595553Y1140671D2*
X591751Y1144517D1*
X586003Y1146419D1*
X578353D1*
X572605Y1144517D1*
X568758Y1140671D1*
Y1136868D1*
X570704Y1133021D1*
X572605Y1131120D1*
X576408Y1129219D1*
X587904Y1125372D1*
X591751Y1123471D1*
X593652Y1121525D1*
X595553Y1117723D1*
Y1111975D1*
X591751Y1108172D1*
X586003Y1106227D1*
X578353D1*
X572605Y1108172D1*
X568758Y1111975D1*
X607905Y1146419D2*
Y1106227D1*
X621302D1*
X627050Y1108172D1*
X630897Y1111975D1*
X632798Y1115821D1*
X634699Y1121525D1*
Y1131120D1*
X632798Y1136868D1*
X630897Y1140671D1*
X627050Y1144517D1*
X621302Y1146419D1*
X607905D1*
X647051D2*
Y1106227D1*
X686197Y1146419D2*
Y1106227D1*
X659402Y1146419D1*
Y1106227D1*
X591616Y1042245D2*
X587814Y1046092D1*
X582066Y1047993D1*
X574416D1*
X568668Y1046092D1*
X564821Y1042245D1*
Y1038443D1*
X566767Y1034596D1*
X568668Y1032695D1*
X572471Y1030794D1*
X583967Y1026947D1*
X587814Y1025046D1*
X589715Y1023100D1*
X591616Y1019297D1*
Y1013549D1*
X587814Y1009747D1*
X582066Y1007801D1*
X574416D1*
X568668Y1009747D1*
X564821Y1013549D1*
X603968Y1047993D2*
Y1007801D1*
X617365D1*
X623113Y1009747D1*
X626960Y1013549D1*
X628861Y1017396D1*
X630762Y1023100D1*
Y1032695D1*
X628861Y1038443D1*
X626960Y1042245D1*
X623113Y1046092D1*
X617365Y1047993D1*
X603968D1*
X673755Y1007801D2*
X658412Y1047993D1*
X643114Y1007801D1*
X648862Y1021199D2*
X668007D1*
X591616Y939883D2*
X587814Y943730D1*
X582066Y945631D1*
X574416D1*
X568668Y943730D1*
X564821Y939883D1*
Y936081D1*
X566767Y932234D1*
X568668Y930333D1*
X572471Y928431D1*
X583967Y924585D1*
X587814Y922683D1*
X589715Y920738D1*
X591616Y916935D1*
Y911187D1*
X587814Y907385D1*
X582066Y905439D1*
X574416D1*
X568668Y907385D1*
X564821Y911187D1*
X632663Y936081D2*
X630762Y939883D1*
X626915Y943730D1*
X623113Y945631D1*
X615464D1*
X611617Y943730D1*
X607814Y939883D1*
X605869Y936081D1*
X603968Y930333D1*
Y920738D1*
X605869Y915034D1*
X607814Y911187D1*
X611617Y907385D1*
X615464Y905439D1*
X623113D1*
X626915Y907385D1*
X630762Y911187D1*
X632663Y915034D1*
X645015Y945631D2*
Y905439D1*
X667963D1*
X595463Y807014D2*
X580120Y847206D1*
X564821Y807014D1*
X570569Y820411D2*
X589715D1*
X607814Y847206D2*
Y807014D1*
X621212D1*
X626960Y808959D1*
X630806Y812762D1*
X632708Y816609D1*
X634609Y822313D1*
Y831907D1*
X632708Y837655D1*
X630806Y841458D1*
X626960Y845305D1*
X621212Y847206D1*
X607814D1*
X646960Y828061D2*
X664160D1*
X669908Y830006D1*
X671854Y831907D1*
X673755Y835710D1*
Y839557D1*
X671854Y843359D1*
X669908Y845305D1*
X664160Y847206D1*
X646960D1*
Y807014D1*
X660358Y828061D2*
X673755Y807014D1*
X568758Y723797D2*
X586003D1*
X591706Y725698D1*
X593652Y727644D1*
X595553Y731446D1*
Y737195D1*
X593652Y740997D1*
X591706Y742943D1*
X586003Y744844D1*
X568758D1*
Y704652D1*
X607905Y744844D2*
Y704652D1*
X621302D1*
X627050Y706597D1*
X630897Y710400D1*
X632798Y714247D1*
X634699Y719950D1*
Y729545D1*
X632798Y735293D1*
X630897Y739096D1*
X627050Y742943D1*
X621302Y744844D1*
X607905D1*
X673845D2*
Y704652D1*
X647051Y744844D1*
Y704652D1*
X568758Y755323D2*
X686197D1*
X1653978Y1901310D2*
D64*
Y1851070D1*
X1637231Y1901310D2*
X1670725D1*
X1724466Y1851070D2*
X1705287Y1901310D1*
X1686164Y1851070D1*
X1693349Y1867817D2*
X1717281D1*
X1773398Y1894125D2*
X1768645Y1898934D1*
X1761460Y1901310D1*
X1751898D1*
X1744713Y1898934D1*
X1739905Y1894125D1*
Y1889372D1*
X1742337Y1884564D1*
X1744713Y1882187D1*
X1749466Y1879810D1*
X1763837Y1875002D1*
X1768645Y1872625D1*
X1771022Y1870194D1*
X1773398Y1865440D1*
Y1858255D1*
X1768645Y1853502D1*
X1761460Y1851070D1*
X1751898D1*
X1744713Y1853502D1*
X1739905Y1858255D1*
X1817522Y1901255D2*
X1793646D1*
X1791269Y1879755D1*
X1793646Y1882132D1*
X1800831Y1884564D1*
X1807961D1*
X1815146Y1882132D1*
X1819954Y1877379D1*
X1822331Y1870194D1*
Y1865440D1*
X1819954Y1858255D1*
X1815146Y1853447D1*
X1807961Y1851070D1*
X1800831D1*
X1793646Y1853447D1*
X1791269Y1855879D1*
X1788837Y1860632D1*
X1849708Y1901255D2*
X1842578Y1898878D1*
X1840147Y1894125D1*
Y1889317D1*
X1842578Y1884564D1*
X1847332Y1882132D1*
X1856893Y1879755D1*
X1864078Y1877379D1*
X1868831Y1872570D1*
X1871208Y1867817D1*
Y1860632D1*
X1868831Y1855879D1*
X1866455Y1853447D1*
X1859270Y1851070D1*
X1849708D1*
X1842578Y1853447D1*
X1840147Y1855879D1*
X1837770Y1860632D1*
Y1867817D1*
X1840147Y1872570D1*
X1844955Y1877379D1*
X1852085Y1879755D1*
X1861646Y1882132D1*
X1866455Y1884564D1*
X1868831Y1889317D1*
Y1894125D1*
X1866455Y1898878D1*
X1859270Y1901255D1*
X1849708D1*
X1901017D2*
X1893832Y1898878D1*
X1889024Y1891693D1*
X1886647Y1879755D1*
Y1872570D1*
X1889024Y1860632D1*
X1893832Y1853447D1*
X1901017Y1851070D1*
X1905771D1*
X1912956Y1853447D1*
X1917709Y1860632D1*
X1920141Y1872570D1*
Y1879755D1*
X1917709Y1891693D1*
X1912956Y1898878D1*
X1905771Y1901255D1*
X1901017D1*
X1917709Y1891693D2*
X1889024Y1860632D1*
X1964265Y1901255D2*
X1940388D1*
X1938012Y1879755D1*
X1940388Y1882132D1*
X1947573Y1884564D1*
X1954703D1*
X1961888Y1882132D1*
X1966697Y1877379D1*
X1969073Y1870194D1*
Y1865440D1*
X1966697Y1858255D1*
X1961888Y1853447D1*
X1954703Y1851070D1*
X1947573D1*
X1940388Y1853447D1*
X1938012Y1855879D1*
X1935580Y1860632D1*
X2022759Y1851070D2*
Y1901310D1*
X2003636Y1851070D1*
X1984512Y1901310D1*
Y1851070D1*
X2125101D2*
X2105922Y1901310D1*
X2086799Y1851070D1*
X2093984Y1867817D2*
X2117916D1*
X2140540Y1884564D2*
Y1860632D1*
X2142917Y1853502D1*
X2147725Y1851070D1*
X2154910D1*
X2159663Y1853502D1*
X2166849Y1860632D1*
Y1884564D2*
Y1851070D1*
X2210973Y1901310D2*
Y1851070D1*
Y1877379D2*
X2206219Y1882187D1*
X2201411Y1884564D1*
X2194226D1*
X2189473Y1882187D1*
X2184664Y1877379D1*
X2182288Y1870194D1*
Y1865440D1*
X2184664Y1858255D1*
X2189473Y1853502D1*
X2194226Y1851070D1*
X2201411D1*
X2206219Y1853502D1*
X2210973Y1858255D1*
X2226412Y1901310D2*
X2228789Y1898934D1*
X2231220Y1901310D1*
X2228789Y1903742D1*
X2226412Y1901310D1*
X2228789Y1884564D2*
Y1851070D1*
X2258598Y1884564D2*
X2253845Y1882187D1*
X2249036Y1877379D1*
X2246660Y1870194D1*
Y1865440D1*
X2249036Y1858255D1*
X2253845Y1853502D1*
X2258598Y1851070D1*
X2265783D1*
X2270591Y1853502D1*
X2275344Y1858255D1*
X2277776Y1865440D1*
Y1870194D1*
X2275344Y1877379D1*
X2270591Y1882187D1*
X2265783Y1884564D1*
X2258598D1*
X2380118Y1851070D2*
X2360940Y1901310D1*
X2341817Y1851070D1*
X2349002Y1867817D2*
X2372933D1*
X2395558Y1884564D2*
Y1851070D1*
Y1875002D2*
X2402743Y1882187D1*
X2407551Y1884564D1*
X2414681D1*
X2419489Y1882187D1*
X2421866Y1875002D1*
Y1851070D1*
Y1875002D2*
X2429051Y1882187D1*
X2433859Y1884564D1*
X2440989D1*
X2445798Y1882187D1*
X2448229Y1875002D1*
Y1851070D1*
X2463669Y1884564D2*
Y1834324D1*
Y1877379D2*
X2468477Y1882132D1*
X2473230Y1884564D1*
X2480415D1*
X2485224Y1882132D1*
X2489977Y1877379D1*
X2492409Y1870194D1*
Y1865385D1*
X2489977Y1858255D1*
X2485224Y1853447D1*
X2480415Y1851070D1*
X2473230D1*
X2468477Y1853447D1*
X2463669Y1858255D1*
X2507848Y1901310D2*
Y1851070D1*
X2523287Y1901310D2*
X2525664Y1898934D1*
X2528096Y1901310D1*
X2525664Y1903742D1*
X2523287Y1901310D1*
X2525664Y1884564D2*
Y1851070D1*
X2562658Y1901310D2*
X2557905D1*
X2553097Y1898934D1*
X2550720Y1891749D1*
Y1851070D1*
X2543535Y1884564D2*
X2560282D1*
X2578098Y1901310D2*
X2580474Y1898934D1*
X2582906Y1901310D1*
X2580474Y1903742D1*
X2578098Y1901310D1*
X2580474Y1884564D2*
Y1851070D1*
X2598345Y1870194D2*
X2627030D1*
Y1875002D1*
X2624654Y1879810D1*
X2622277Y1882187D1*
X2617469Y1884564D1*
X2610283D1*
X2605530Y1882187D1*
X2600722Y1877379D1*
X2598345Y1870194D1*
Y1865440D1*
X2600722Y1858255D1*
X2605530Y1853502D1*
X2610283Y1851070D1*
X2617469D1*
X2622277Y1853502D1*
X2627030Y1858255D1*
X2642469Y1884564D2*
Y1851070D1*
Y1870194D2*
X2644901Y1877379D1*
X2649654Y1882187D1*
X2654463Y1884564D1*
X2661648D1*
X1831143Y590287D2*
Y540047D1*
X1814397Y590287D2*
X1847890D1*
X1875267Y573540D2*
X1870514Y571163D1*
X1865706Y566355D1*
X1863329Y559170D1*
Y554417D1*
X1865706Y547232D1*
X1870514Y542479D1*
X1875267Y540047D1*
X1882452D1*
X1887261Y542479D1*
X1892014Y547232D1*
X1894446Y554417D1*
Y559170D1*
X1892014Y566355D1*
X1887261Y571163D1*
X1882452Y573540D1*
X1875267D1*
X1909885D2*
Y540047D1*
Y563978D2*
X1917070Y571163D1*
X1921879Y573540D1*
X1929008D1*
X1933817Y571163D1*
X1936193Y563978D1*
Y540047D1*
X1954065Y573540D2*
X1968379Y540047D1*
X1963626Y530485D1*
X1958818Y525677D1*
X1954065Y523300D1*
X1951633D1*
X1982749Y573540D2*
X1968379Y540047D1*
X2046790Y563978D2*
X2068345D1*
X2075475Y566355D1*
X2077906Y568787D1*
X2080283Y573540D1*
Y580725D1*
X2077906Y585478D1*
X2075475Y587910D1*
X2068345Y590287D1*
X2046790D1*
Y540047D1*
X2107660Y573540D2*
X2102907Y571163D1*
X2098099Y566355D1*
X2095722Y559170D1*
Y554417D1*
X2098099Y547232D1*
X2102907Y542479D1*
X2107660Y540047D1*
X2114845D1*
X2119654Y542479D1*
X2124407Y547232D1*
X2126839Y554417D1*
Y559170D1*
X2124407Y566355D1*
X2119654Y571163D1*
X2114845Y573540D1*
X2107660D1*
X2149463Y590287D2*
Y549608D1*
X2151840Y542479D1*
X2156648Y540047D1*
X2161401D1*
X2142278Y573540D2*
X2159025D1*
X2184026Y590287D2*
Y549608D1*
X2186402Y542479D1*
X2191211Y540047D1*
X2195964D1*
X2176841Y573540D2*
X2193587D1*
X2211403Y590287D2*
X2213780Y587910D1*
X2216212Y590287D1*
X2213780Y592719D1*
X2211403Y590287D1*
X2213780Y573540D2*
Y540047D1*
X2231651Y559170D2*
X2260336D1*
Y563978D1*
X2257959Y568787D1*
X2255583Y571163D1*
X2250774Y573540D1*
X2243589D1*
X2238836Y571163D1*
X2234028Y566355D1*
X2231651Y559170D1*
Y554417D1*
X2234028Y547232D1*
X2238836Y542479D1*
X2243589Y540047D1*
X2250774D1*
X2255583Y542479D1*
X2260336Y547232D1*
X2275775Y573540D2*
Y540047D1*
Y559170D2*
X2278207Y566355D1*
X2282960Y571163D1*
X2287769Y573540D1*
X2294954D1*
X2361426Y578293D2*
Y580670D1*
X2363802Y585478D1*
X2366179Y587855D1*
X2370987Y590231D1*
X2380549D1*
X2385302Y587855D1*
X2387679Y585478D1*
X2390111Y580670D1*
Y575917D1*
X2387679Y571108D1*
X2382926Y563978D1*
X2358994Y540047D1*
X2392487D1*
X2422296Y590231D2*
X2415111Y587855D1*
X2410303Y580670D1*
X2407926Y568732D1*
Y561547D1*
X2410303Y549608D1*
X2415111Y542423D1*
X2422296Y540047D1*
X2427050D1*
X2434235Y542423D1*
X2438988Y549608D1*
X2441420Y561547D1*
Y568732D1*
X2438988Y580670D1*
X2434235Y587855D1*
X2427050Y590231D1*
X2422296D1*
X2438988Y580670D2*
X2410303Y549608D1*
X2456859Y580670D2*
X2461667Y583102D1*
X2468852Y590231D1*
Y540047D1*
X2496230Y590231D2*
X2489100Y587855D1*
X2486668Y583102D1*
Y578293D1*
X2489100Y573540D1*
X2493853Y571108D1*
X2503415Y568732D1*
X2510600Y566355D1*
X2515353Y561547D1*
X2517730Y556793D1*
Y549608D1*
X2515353Y544855D1*
X2512977Y542423D1*
X2505792Y540047D1*
X2496230D1*
X2489100Y542423D1*
X2486668Y544855D1*
X2484292Y549608D1*
Y556793D1*
X2486668Y561547D1*
X2491477Y566355D1*
X2498607Y568732D1*
X2508168Y571108D1*
X2512977Y573540D1*
X2515353Y578293D1*
Y583102D1*
X2512977Y587855D1*
X2505792Y590231D1*
X2496230D1*
X2440381Y507610D2*
X2442757Y505233D1*
X2445189Y507610D1*
X2442757Y510041D1*
X2440381Y507610D1*
X2442757Y490863D2*
Y457370D1*
X2489313Y507610D2*
Y457370D1*
Y483678D2*
X2484560Y488486D1*
X2479752Y490863D1*
X2472567D1*
X2467814Y488486D1*
X2463005Y483678D1*
X2460629Y476493D1*
Y471740D1*
X2463005Y464555D1*
X2467814Y459801D1*
X2472567Y457370D1*
X2479752D1*
X2484560Y459801D1*
X2489313Y464555D1*
X2507184Y490863D2*
X2521499Y457370D1*
X2516746Y447808D1*
X2511938Y442999D1*
X2507184Y440623D1*
X2504753D1*
X2535869Y490863D2*
X2521499Y457370D1*
X2551309Y507610D2*
Y457370D1*
X2569124Y462178D2*
X2566748Y459746D1*
X2569124Y457370D1*
X2571556Y459746D1*
X2569124Y462178D1*
X2586996Y507610D2*
X2589372Y505233D1*
X2591804Y507610D1*
X2589372Y510041D1*
X2586996Y507610D1*
X2589372Y490863D2*
Y457370D1*
X2619181Y490863D2*
X2614428Y488486D1*
X2609620Y483678D1*
X2607243Y476493D1*
Y471740D1*
X2609620Y464555D1*
X2614428Y459801D1*
X2619181Y457370D1*
X2626367D1*
X2631175Y459801D1*
X2635928Y464555D1*
X2638360Y471740D1*
Y476493D1*
X2635928Y483678D1*
X2631175Y488486D1*
X2626367Y490863D1*
X2619181D1*
X2571537Y1321716D2*
Y1349350D1*
X2546389Y1364790D2*
X2596629Y1364789D1*
Y1393474D1*
X2546389Y1439975D2*
Y1408914D1*
X2596629D1*
Y1439975D1*
X2570321Y1408914D2*
Y1428037D1*
X2546389Y1486531D2*
Y1455414D1*
X2596629D1*
X2570321D2*
Y1474538D1*
X2546389Y1518717D2*
X2596629D1*
X2546389Y1501970D2*
Y1535464D1*
X2550009Y1572403D2*
X2593064D1*
X2571564Y1550903D2*
Y1593958D1*
X2550009Y764475D2*
X2593064D1*
X2571564Y742975D2*
Y786030D1*
X2570321Y801470D2*
Y822969D1*
X2567889Y830154D1*
X2565512Y832586D1*
X2560759Y834963D1*
X2555951D1*
X2551198Y832586D1*
X2548766Y830154D1*
X2546389Y822969D1*
Y801470D1*
X2596629D1*
X2570321Y818216D2*
X2596629Y834963D1*
X2546389Y850402D2*
X2596629D1*
X2558327Y901711D2*
X2553574Y899335D1*
X2548766Y894526D1*
X2546389Y889773D1*
Y880211D1*
X2548766Y875403D1*
X2553574Y870650D1*
X2558327Y868218D1*
X2565512Y865841D1*
X2577506D1*
X2584636Y868218D1*
X2589444Y870650D1*
X2594197Y875403D1*
X2596629Y880211D1*
Y889773D1*
X2594197Y894526D1*
X2589444Y899335D1*
X2584636Y901711D1*
X2577506D1*
Y889773D1*
X2546389Y917151D2*
X2596629D1*
X2546389Y950644D2*
X2596629D1*
X2570321Y917151D2*
Y950644D1*
X2546389Y982830D2*
X2596629D1*
X2546389Y966083D2*
Y999576D1*
X2571537Y1015016D2*
Y1042650D1*
X2404948Y1806512D2*
X2426448D1*
X2433633Y1808944D1*
X2436064Y1811321D1*
X2438441Y1816074D1*
Y1820883D1*
X2436064Y1825636D1*
X2433633Y1828068D1*
X2426448Y1830444D1*
X2404948D1*
Y1780204D1*
X2421694Y1806512D2*
X2438441Y1780204D1*
X2453880Y1799327D2*
X2482565D1*
Y1804136D1*
X2480189Y1808944D1*
X2477812Y1811321D1*
X2473004Y1813698D1*
X2465819D1*
X2461065Y1811321D1*
X2456257Y1806512D1*
X2453880Y1799327D1*
Y1794574D1*
X2456257Y1787389D1*
X2461065Y1782636D1*
X2465819Y1780204D1*
X2473004D1*
X2477812Y1782636D1*
X2482565Y1787389D1*
X2498004Y1813698D2*
X2512375Y1780204D1*
X2526689Y1813698D1*
X2544505Y1785013D2*
X2542129Y1782581D1*
X2544505Y1780204D1*
X2546937Y1782581D1*
X2544505Y1785013D1*
X2649279Y1780204D2*
X2630101Y1830444D1*
X2610977Y1780204D1*
X2618162Y1796951D2*
X2642094D1*
M02*
