M48
INCH
T01C0.0118
T02C0.0138
T03C0.0157
T04C0.034
T05C0.0551
T06C0.11
%
T01
X+014128Y+012412
X+012908Y+012491
X+012908Y+012963
X+012435Y+012963
X+012435Y+012491
X+012435Y+012018
X+012908Y+012018
X+012908Y+011546
X+012908Y+011073
X+012435Y+011073
X+012435Y+011546
X+011963Y+011546
X+011963Y+011073
X+011963Y+010601
X+011963Y+010128
X+012435Y+010128
X+012908Y+010128
X+012908Y+010601
X+012435Y+010601
X+011963Y+012018
X+011963Y+012491
X+011963Y+012963
X+011963Y+013435
X+012435Y+013435
X+012908Y+013435
X+014128Y+011132
T02
X+010624Y+010561
X+010624Y+012963
X+008538Y+009223
X+008065Y+009223
T03
X+013065Y+014223
X+013065Y+014656
X+012986Y+015168
X+012986Y+015601
X+012435Y+015798
X+012986Y+016349
X+012986Y+016782
X+012435Y+016585
X+011648Y+016585
X+011648Y+015798
X+011648Y+015010
X+011648Y+014223
X+012435Y+014223
X+012435Y+015010
X+010782Y+015010
X+010782Y+015404
X+010782Y+014617
X+009719Y+016113
X+009719Y+016506
X+009719Y+016900
X+008577Y+016900
X+008577Y+016506
X+008577Y+016113
X+007986Y+015404
X+007986Y+015010
X+007986Y+014617
X+007986Y+014223
X+007986Y+013829
X+007986Y+013435
X+008695Y+014065
X+008695Y+014459
X+008735Y+012648
X+008735Y+012254
X+007042Y+011506
X+006490Y+011152
X+006766Y+010010
X+006766Y+009617
X+007160Y+009459
X+007593Y+009459
X+008971Y+008672
X+009364Y+008672
X+009719Y+007412
X+009719Y+007018
X+009719Y+006624
X+008577Y+006624
X+008577Y+007018
X+008577Y+007412
X+010860Y+006979
X+011648Y+006979
X+011648Y+007766
X+011648Y+008554
X+011648Y+009341
X+012435Y+009341
X+013065Y+009341
X+013065Y+008908
X+012986Y+008396
X+012986Y+007963
X+012435Y+007766
X+012986Y+007215
X+012986Y+006782
X+012435Y+006979
X+012435Y+008554
X+014994Y+008790
X+014994Y+009183
X+015349Y+008317
X+015349Y+007924
X+015349Y+007372
X+015349Y+006979
X+015349Y+006585
X+015585Y+005955
X+016372Y+005955
X+017160Y+005955
X+017947Y+005955
X+018735Y+005955
X+019522Y+005955
X+020309Y+005955
X+021097Y+005955
X+021884Y+005955
X+022672Y+005955
X+023459Y+005955
X+024246Y+005955
X+025034Y+005955
X+025821Y+005955
X+026609Y+005955
X+026215Y+005168
X+025427Y+005168
X+024640Y+005168
X+023853Y+005168
X+023065Y+005168
X+022278Y+005168
X+021490Y+005168
X+020703Y+005168
X+019916Y+005168
X+019128Y+005168
X+018341Y+005168
X+017553Y+005168
X+016766Y+005168
X+015979Y+005168
X+015191Y+005168
X+014798Y+004380
X+014010Y+004380
X+013223Y+004380
X+012435Y+004380
X+011648Y+004380
X+010860Y+004380
X+010073Y+004380
X+009286Y+004380
X+008498Y+004380
X+007711Y+004380
X+006923Y+004380
X+015585Y+004380
X+016372Y+004380
X+017160Y+004380
X+017947Y+004380
X+018735Y+004380
X+019522Y+004380
X+020309Y+004380
X+021097Y+004380
X+021884Y+004380
X+022672Y+004380
X+023459Y+004380
X+024246Y+004380
X+025034Y+004380
X+025821Y+004380
X+026609Y+004380
X+028971Y+006664
X+028971Y+007451
X+028971Y+008239
X+028971Y+009026
X+028971Y+009813
X+028971Y+010601
X+028971Y+011388
X+028971Y+012176
X+028971Y+012963
X+028971Y+013750
X+028971Y+014538
X+028971Y+015325
X+028971Y+016113
X+028971Y+016900
X+026609Y+017609
X+025821Y+017609
X+025034Y+017609
X+024246Y+017609
X+023459Y+017609
X+022672Y+017609
X+021884Y+017609
X+021097Y+017609
X+020309Y+017609
X+019522Y+017609
X+018735Y+017609
X+017947Y+017609
X+017160Y+017609
X+016372Y+017609
X+015585Y+017609
X+015349Y+016979
X+015349Y+016585
X+015349Y+016191
X+015349Y+015640
X+015349Y+015246
X+014994Y+014774
X+014994Y+014380
X+016884Y+013750
X+017672Y+014065
X+019955Y+013750
X+019955Y+014538
X+019955Y+015325
X+019955Y+016113
X+019955Y+016900
X+019916Y+018396
X+020703Y+018396
X+021490Y+018396
X+022278Y+018396
X+023065Y+018396
X+023853Y+018396
X+024640Y+018396
X+025427Y+018396
X+026215Y+018396
X+025821Y+019183
X+026609Y+019183
X+025034Y+019183
X+024246Y+019183
X+023459Y+019183
X+022672Y+019183
X+021884Y+019183
X+021097Y+019183
X+020309Y+019183
X+019522Y+019183
X+018735Y+019183
X+017947Y+019183
X+017160Y+019183
X+016372Y+019183
X+015585Y+019183
X+014798Y+019183
X+014010Y+019183
X+013223Y+019183
X+012435Y+019183
X+011648Y+019183
X+010860Y+019183
X+010073Y+019183
X+009286Y+019183
X+008498Y+019183
X+007711Y+019183
X+006923Y+019183
X+010860Y+016585
X+015191Y+018396
X+015979Y+018396
X+016766Y+018396
X+017553Y+018396
X+018341Y+018396
X+019128Y+018396
X+019955Y+012963
X+019955Y+012176
X+019955Y+011388
X+019955Y+010601
X+019955Y+009813
X+019955Y+009026
X+019955Y+008239
X+019955Y+007451
X+019955Y+006664
X+017672Y+009498
X+016884Y+009813
X+022632Y+011743
X+023420Y+011743
X+024207Y+011743
X+024994Y+011743
X+025782Y+011743
X+026569Y+011743
X+027357Y+011743
X+028144Y+011743
X+024640Y+009735
X+024640Y+009341
X+024640Y+008554
X+024640Y+008160
X+024640Y+013790
X+024640Y+014183
X+024640Y+014971
X+024640Y+015365
T04
X+004975Y+010270
X+004975Y+009270
X+004975Y+008270
X+004975Y+007270
X+004994Y+011270
X+004994Y+012270
X+004994Y+013270
X+004994Y+014270
X+004994Y+015270
X+004994Y+016270
T05
X+027947Y+013620
X+027947Y+015589
X+027947Y+009920
X+027947Y+007951
T06
X+027947Y+005522
X+027947Y+018120
X+005506Y+018120
X+005506Y+005522
T00
M30
